<svg id="图层_1" data-name="图层 1" xmlns="http://www.w3.org/2000/svg" viewBox="0 0 40 45"><defs><style>.cls-1{fill:#fff;}</style></defs><title>55logo</title><path class="cls-1" d="M16.44,27.45a6.21,6.21,0,0,1-1.79,2.82h0l-.35.29,0,0a6.23,6.23,0,0,1-1.65.88l0,0-.41.12-.1,0c-.13,0-.27.06-.4.09l-.14,0-.4.05h0l-.47,0a6.11,6.11,0,0,1-6.1-6.1H.05c0,.09,0,.17,0,.26,0,.27,0,.54,0,.81s.09.69.16,1v0c0,.1,0,.2.08.3s.1.44.17.65.08.23.11.34a6.37,6.37,0,0,0,.23.61l0,.09c0,.09.09.18.13.28s.17.36.26.53.13.24.2.36l.3.49.08.13c0,.08.12.15.17.23s.21.29.33.43.18.23.28.34.24.27.37.4l.14.16.17.15c.13.13.27.25.41.37s.21.19.32.28l.46.33a1.49,1.49,0,0,0,.2.15.67.67,0,0,0,.14.09,5.09,5.09,0,0,0,.5.3l.36.21.52.25.27.13.1,0a4.84,4.84,0,0,0,.6.22c.12,0,.23.09.35.12s.43.12.65.17l.28.07h0l.83.13.19,0a9.24,9.24,0,0,0,1.05.06,8.77,8.77,0,0,0,1-.06l.27,0,.72-.11.11,0L13,36a5.29,5.29,0,0,0,.57-.15l.41-.13c.17,0,.34-.12.51-.18l.22-.08.2-.1.44-.21.44-.23.39-.24.32-.2.1-.07c.26-.18.52-.38.77-.59s.47-.4.69-.62h0a12.65,12.65,0,0,0,.9-1Z"/><path class="cls-1" d="M39.94,25.44c0-.25,0-.51,0-.75s0-.27-.06-.4a6,6,0,0,0-.09-.61s0-.06,0-.09-.07-.24-.1-.37-.08-.34-.13-.51-.1-.31-.15-.46-.11-.32-.17-.47,0-.12-.07-.18-.1-.2-.14-.3-.13-.27-.2-.4-.17-.32-.27-.49-.13-.22-.2-.33-.1-.18-.16-.27L38,19.57c-.06-.08-.12-.17-.19-.25a5.17,5.17,0,0,0-.42-.51,1.54,1.54,0,0,0-.17-.19c-.11-.12-.21-.25-.33-.37s-.12-.1-.17-.16l-.1-.09a10.33,10.33,0,0,0-5.06-2.62c-.24-.05-.49-.08-.74-.11l-.31,0a11.58,11.58,0,0,0-2.15,0l-.35,0c-.23,0-.47.06-.7.11h-.05l1.06-2.5h9.76V8.74H25.61L21.22,19.1c0,.06-.12.12-.17.19L23.56,24a6.11,6.11,0,0,1,2.16-3.12h0a6.16,6.16,0,0,1,2.14-1l.06,0,.44-.09h.08a6,6,0,0,1,1-.08,6.1,6.1,0,1,1-2.52,11.65h0a5.7,5.7,0,0,1-.9-.5,7.08,7.08,0,0,1-.9-.74,6.08,6.08,0,0,1-1.29-1.9l-3.47-6.46c-.1-.24-.21-.48-.33-.71a11.42,11.42,0,0,0-.65-1.13v0c-.07-.1-.15-.19-.22-.28a5.22,5.22,0,0,0-.33-.45l-.3-.34-.33-.37-.11-.12L17.82,18l-.35-.31c-.12-.11-.25-.21-.38-.31l-.36-.28L16.49,17l-.17-.11-.39-.24-.43-.24-.42-.2L14.7,16l-.07,0a7.63,7.63,0,0,0-.72-.26l-.14-.05a9.56,9.56,0,0,0-1-.28c-.24-.05-.48-.08-.72-.11l-.33,0a9.47,9.47,0,0,0-1.07-.05h0a9.47,9.47,0,0,0-1.07.05l-.33,0c-.24,0-.48.06-.72.11l-.14,0L9.4,12.89h9.76V8.74H6.72L2.25,19.27v0L4.75,24a6.08,6.08,0,0,1,8.36-3.82h0a6.62,6.62,0,0,1,.9.5,7.08,7.08,0,0,1,.9.74,6.47,6.47,0,0,1,.75.91,5.91,5.91,0,0,1,.54,1l3.46,6.45.36.67.64,1.2A10.69,10.69,0,0,0,22,33.17a10.12,10.12,0,0,0,1.56,1.28,10.38,10.38,0,0,0,1.79,1c.3.12.61.24.92.33h0c.35.1.69.19,1.05.27h0a9.34,9.34,0,0,0,1.06.16c.24,0,.48,0,.72,0l.35,0h0a9.42,9.42,0,0,0,1.06-.06c.32,0,.64-.08,1-.14l.11,0,.08,0a8.93,8.93,0,0,0,.89-.23l.13,0c.27-.09.53-.18.79-.29l.09,0,0,0,.81-.39.16-.09q.4-.23.78-.48h0c.32-.21.62-.45.92-.69l.23-.21.41-.38.21-.23.21-.23c.2-.23.4-.47.58-.71l.14-.19.15-.2c.17-.25.32-.51.47-.78l.06-.09c.12-.23.23-.46.34-.7,0-.08.07-.15.1-.22s.09-.24.13-.36.16-.41.23-.62.16-.59.23-.9l0-.11a1.13,1.13,0,0,1,0-.18c0-.23.07-.45.1-.68l0-.31a8.3,8.3,0,0,0,.05-.87v-.08C40,25.62,39.94,25.53,39.94,25.44Z"/></svg>