<?xml version="1.0" encoding="UTF-8"?>
<svg width="16px" height="20px" viewBox="0 0 16 20" version="1.1" xmlns="http://www.w3.org/2000/svg" xmlns:xlink="http://www.w3.org/1999/xlink">
    <!-- Generator: Sketch 50.2 (55047) - http://www.bohemiancoding.com/sketch -->
    <title>Group 4</title>
    <desc>Created with Sketch.</desc>
    <defs></defs>
    <g id="Page-1" stroke="none" stroke-width="1" fill="none" fill-rule="evenodd">
        <g id="Tablet" transform="translate(-269.000000, -71.000000)">
            <g id="Group-4" transform="translate(269.000000, 71.000000)">
                <rect id="Rectangle-7" fill="#8D9ACE" x="3" y="4" width="10" height="1"></rect>
                <rect id="Rectangle-7" fill="#8D9ACE" x="3" y="8" width="10" height="1"></rect>
                <rect id="Rectangle-7" fill="#8D9ACE" x="3" y="12" width="5" height="1"></rect>
                <circle id="Path" stroke="#8D9ACE" cx="11.5" cy="12.5" r="2"></circle>
                <path d="M15.4690531,19 C15.2230041,17.0268442 13.5398088,15.5 11.5,15.5 C9.46019117,15.5 7.77699592,17.0268442 7.53094688,19 L15.4690531,19 Z" id="Path" stroke="#8D9ACE"></path>
                <path d="M5.9037088,19.5 L15.5,15.6614835 L15.5,2 C15.5,1.17157288 14.8284271,0.5 14,0.5 L2,0.5 C1.17157288,0.5 0.5,1.17157288 0.5,2 L0.5,18 C0.5,18.8284271 1.17157288,19.5 2,19.5 L5.9037088,19.5 Z" id="Rectangle-8" stroke="#8D9ACE"></path>
            </g>
        </g>
    </g>
</svg>