<?xml version="1.0" encoding="UTF-8"?>
<svg width="50px" height="50px" viewBox="0 0 50 50" version="1.1" xmlns="http://www.w3.org/2000/svg" xmlns:xlink="http://www.w3.org/1999/xlink">
    <!-- Generator: Sketch 51.3 (57544) - http://www.bohemiancoding.com/sketch -->
    <title>B</title>
    <desc>Created with Sketch.</desc>
    <defs></defs>
    <g id="Page-1" stroke="none" stroke-width="1" fill="none" fill-rule="evenodd">
        <g id="Welcome-on-board" transform="translate(-232.000000, -369.000000)" fill-rule="nonzero">
            <g id="Group-3" transform="translate(232.000000, 369.000000)">
                <g id="B">
                    <rect id="Rectangle-6-Copy" fill="#152BA6" x="0" y="0" width="50" height="50"></rect>
                    <g id="btc-(1)" transform="translate(14.000000, 10.000000)" fill="#FFFFFF">
                        <path d="M17.8978462,14.1592467 C19.5160424,13.3317666 20.5458408,11.860626 20.3067586,9.4149496 C19.9940902,6.0682069 17.2455491,4.94649867 13.6046366,4.63394695 L13.6046366,0 L10.7727639,0 L10.7727639,4.50521485 C10.0371936,4.50521485 9.28324138,4.52359682 8.52934748,4.54197878 L8.52934748,0 L5.6974748,0 L5.6974748,4.63394695 C4.65629708,4.66540053 3.44367109,4.65005305 0.0154058355,4.63394695 L0.0154058355,7.64963926 C2.25123607,7.61007427 3.42435544,7.46640318 3.69314058,8.90002122 L3.69314058,21.5881857 C3.52245093,22.7256499 2.61216446,22.5618462 0.585421751,22.5260159 L0.015464191,25.8911406 C5.17881167,25.8911406 5.69753316,25.9095225 5.69753316,25.9095225 L5.69753316,29.8779841 L8.52940584,29.8779841 L8.52940584,25.9646684 C9.3016817,25.9830504 10.055634,25.9830504 10.7728223,25.9830504 L10.7728223,29.8779841 L13.604695,29.8779841 L13.604695,25.9095225 C18.3489337,25.6520584 21.520435,24.4568223 21.9433952,19.9883714 C22.2743289,16.4026631 20.5825464,14.8027905 17.8978462,14.1592467 Z M8.58455172,7.8518992 C10.184366,7.8518992 15.186069,7.3554695 15.186069,10.6837719 C15.186069,13.8650186 10.1844244,13.4972042 8.58455172,13.4972042 L8.58455172,7.8518992 Z M8.58455172,22.5443979 L8.58455172,16.3290769 C10.4969761,16.3290769 16.3532361,15.7958249 16.3532361,19.4367958 C16.3531777,22.9489761 10.4969761,22.5443979 8.58455172,22.5443979 Z" id="Shape"></path>
                    </g>
                </g>
            </g>
        </g>
    </g>
</svg>