<svg width="124px" height="24px" id="图层_1" data-name="图层 1" xmlns="http://www.w3.org/2000/svg" viewBox="0 0 133.62 23.83"><defs><style>.cls-1{fill:#fff;}</style></defs><title>block360</title><path class="cls-1" d="M0,.93H9.14A5.32,5.32,0,0,1,13,2.22a6.14,6.14,0,0,1,1.65,2.71,7,7,0,0,1,.19,1,5.82,5.82,0,0,1,.07.93,6.36,6.36,0,0,1-.43,2.56,4.36,4.36,0,0,1-.94,1.41,2.86,2.86,0,0,1-.5.42l-.43.28a4.27,4.27,0,0,1,2.31,2.32,8.67,8.67,0,0,1,.59,3.22,7.83,7.83,0,0,1-.44,2.59,7.06,7.06,0,0,1-1.18,2.11h-.05a5.83,5.83,0,0,1-1.93,1.41A10.22,10.22,0,0,1,8,23.81H0Zm3.76,9H8.38a3.17,3.17,0,0,0,2-.55,2.23,2.23,0,0,0,.81-1.94,2.25,2.25,0,0,0-.78-2,3.8,3.8,0,0,0-2.16-.51H3.76Zm0,10H8.57a2.91,2.91,0,0,0,2.23-.77,3.53,3.53,0,0,0,.79-2.56,2.49,2.49,0,0,0-.85-2.12,3.35,3.35,0,0,0-1.88-.67H3.76Z"/><path class="cls-1" d="M22.78,19.67h9.33v4.14H18.86V.93h3.92Z"/><path class="cls-1" d="M34,11.93q0-4.86,1.56-7.33A9.77,9.77,0,0,1,39,1.13a9.35,9.35,0,0,1,2.26-.8A11.31,11.31,0,0,1,43,.13a12,12,0,0,1,1.79.2,9.35,9.35,0,0,1,2.26.8,9.75,9.75,0,0,1,3.41,3.49Q52,7.11,52,12c0,3.27-.52,5.72-1.56,7.37A9.48,9.48,0,0,1,47,22.83a8.75,8.75,0,0,1-2.26.77,9,9,0,0,1-1.79.21,8.92,8.92,0,0,1-1.78-.21,8.35,8.35,0,0,1-2.2-.77,9.48,9.48,0,0,1-3.41-3.48C34.59,17.7,34,15.25,34,12Zm3.92-.18A10.41,10.41,0,0,0,39,17.24a5.29,5.29,0,0,0,2.45,2.27,3.48,3.48,0,0,0,.78.22,4.72,4.72,0,0,0,1.5,0,3,3,0,0,0,.78-.22A5.28,5.28,0,0,0,47,17.24a10.24,10.24,0,0,0,1.12-5.44A10.31,10.31,0,0,0,47,6.35a5.32,5.32,0,0,0-2.45-2.26,3.48,3.48,0,0,0-.78-.22,4.05,4.05,0,0,0-1.5,0,3.48,3.48,0,0,0-.78.22A5.36,5.36,0,0,0,39,6.35a10.42,10.42,0,0,0-1.11,5.45Z"/><path class="cls-1" d="M71,8H67.12l-.18-.69a4.26,4.26,0,0,0-.3-.82,4.93,4.93,0,0,0-1.2-1.63A3.56,3.56,0,0,0,63,4.1a5.05,5.05,0,0,0-.68.07,3.81,3.81,0,0,0-.75.22,5,5,0,0,0-2.21,2.22,11.07,11.07,0,0,0-1,5.41,12.79,12.79,0,0,0,1.07,5.39A3.67,3.67,0,0,0,63,19.74a3.62,3.62,0,0,0,2.71-1.09,5.71,5.71,0,0,0,1.44-3.17h3.91a11.87,11.87,0,0,1-2.61,6,7,7,0,0,1-5.54,2.32,7.51,7.51,0,0,1-6.16-3c-1.61-2-2.41-5-2.41-8.86S55.17,5,56.84,3A7.69,7.69,0,0,1,63,0a7.12,7.12,0,0,1,5.12,1.76,9.65,9.65,0,0,1,2.53,3.91,12,12,0,0,1,.3,1.18A8.89,8.89,0,0,1,71,8Z"/><path class="cls-1" d="M78.2,23.81H74.28V.93H78.2v9.3L85.37.93h5.06l-7.64,9.36L90.88,23.8h-5l-5.8-10-1.85,2.3Z"/><path class="cls-1" d="M96.45,10.11H97a2.71,2.71,0,0,0,.57,0,2.34,2.34,0,0,0,.64-.12A2.49,2.49,0,0,0,99.5,9.2a3.14,3.14,0,0,0,.59-2.14,5.48,5.48,0,0,0,0-.57,5.78,5.78,0,0,0-.14-.7,3.49,3.49,0,0,0-.71-1.12,1.88,1.88,0,0,0-1.43-.51,2,2,0,0,0-1.59.61,3.32,3.32,0,0,0-.7,1.34,4.29,4.29,0,0,0-.18,1v.73H91.88a8.65,8.65,0,0,1,1.49-5.19A5.39,5.39,0,0,1,98,.65c.24,0,.49,0,.73,0s.49.09.73.15a6,6,0,0,1,2.93,1.8,6.09,6.09,0,0,1,1.36,4.33,4.83,4.83,0,0,1-.61,2.58,5,5,0,0,1-1.3,1.53l-.18.11a.39.39,0,0,1-.14.08h0l.56.3a4.34,4.34,0,0,1,.75.59,5.34,5.34,0,0,1,1,1.62,6.93,6.93,0,0,1,.46,2.77,7.71,7.71,0,0,1-1.75,5.23,5.71,5.71,0,0,1-4.55,2,11.2,11.2,0,0,1-1.29-.1,5.07,5.07,0,0,1-1.61-.48A5.69,5.69,0,0,1,92.66,21a8.46,8.46,0,0,1-1.11-4.82h3.57V17a4.79,4.79,0,0,0,.16.92A3.73,3.73,0,0,0,96,19.5a2.08,2.08,0,0,0,1.75.7,2.47,2.47,0,0,0,1.93-.93,4.14,4.14,0,0,0,.81-2.81,2.76,2.76,0,0,0-.89-2.4,4.17,4.17,0,0,0-2-.77H96.36Z"/><path class="cls-1" d="M118.62,6.32H115a2.53,2.53,0,0,0-.59-1.53,2,2,0,0,0-1.54-.61,2.26,2.26,0,0,0-2.22,1.66,13.9,13.9,0,0,0-.78,3.66v.93h0a1.33,1.33,0,0,0,.14-.19,1.24,1.24,0,0,1,.18-.22,4.23,4.23,0,0,1,1.15-1,3.85,3.85,0,0,1,2-.45,4.73,4.73,0,0,1,4.11,2A8.24,8.24,0,0,1,119,15a1.6,1.6,0,0,1,0,.31v.3a9.69,9.69,0,0,1-1.67,6,5.18,5.18,0,0,1-4.38,2.27c-2.76,0-4.57-1.16-5.41-3.46a22.09,22.09,0,0,1-1.31-7.6v-2.4A18.56,18.56,0,0,1,106.45,8a13.21,13.21,0,0,1,1.87-5.1Q109.73.62,113.11.62A6.11,6.11,0,0,1,114,.7a7,7,0,0,1,1.12.27,7,7,0,0,1,1,.46,3,3,0,0,1,.81.65c.13.15.25.29.35.42a3.47,3.47,0,0,1,.29.38,5.54,5.54,0,0,1,.65,1.37,12.62,12.62,0,0,1,.43,2.1Zm-3.28,9.61a4.46,4.46,0,0,0-.6-2.55,2.79,2.79,0,0,0-1.34-1.08,2.36,2.36,0,0,0-.38-.1h-.51a2.71,2.71,0,0,0-1.82,1,4.23,4.23,0,0,0-.83,2.93,5.27,5.27,0,0,0,.8,3,2.41,2.41,0,0,0,2.1,1.18,2.22,2.22,0,0,0,1.8-1,5.46,5.46,0,0,0,.78-3.3Z"/><path class="cls-1" d="M120.76,12.18c0-4,.52-6.87,1.57-8.74a5.61,5.61,0,0,1,9.72,0c1,1.87,1.57,4.8,1.57,8.77s-.52,6.9-1.57,8.78a5.6,5.6,0,0,1-9.72,0c-1-1.88-1.58-4.8-1.57-8.78Zm3.76,0a24.18,24.18,0,0,0,.55,6.24c.37,1.23,1.08,1.85,2.12,1.85a2.15,2.15,0,0,0,2.13-1.85,24,24,0,0,0,.55-6.21A23.84,23.84,0,0,0,129.32,6a2.15,2.15,0,0,0-4.25,0,23.84,23.84,0,0,0-.55,6.19Z"/></svg>