<?xml version="1.0" encoding="UTF-8"?>
<svg width="98px" height="28px" viewBox="0 0 98 28" version="1.1" xmlns="http://www.w3.org/2000/svg" xmlns:xlink="http://www.w3.org/1999/xlink">
    <!-- Generator: Sketch 51.1 (57501) - http://www.bohemiancoding.com/sketch -->
    <title>Group 24</title>
    <desc>Created with Sketch.</desc>
    <defs></defs>
    <g id="Page-1" stroke="none" stroke-width="1" fill="none" fill-rule="evenodd">
        <g id="G.55.com0930" transform="translate(-150.000000, -2849.000000)">
            <g id="Group-24" transform="translate(150.000000, 2849.000000)">
                <g id="Group-19">
                    <path d="M92.0557635,15.2561231 L92.0557635,19.9227897 C92.0557635,20.2767385 92.3390336,20.5653538 92.6924058,20.5689436 L93.0143036,20.5689436 C93.3669606,20.5653538 93.6502307,20.2767385 93.6502307,19.9227897 L93.6502307,15.2561231 C93.6437927,13.4296615 94.9700117,11.8724308 96.7697781,11.5945846 C97.0866686,11.5486359 97.3234423,11.2772513 97.3277343,10.9556103 L97.3277343,10.6253538 C97.3298803,10.272841 97.0480409,9.98422564 96.6953839,9.98207179 C96.6674861,9.98135385 96.6395883,9.98350769 96.6124058,9.98637949 C93.992873,10.3525333 92.0443182,12.6025846 92.0486102,15.2561231" id="Fill-1" fill="#FFFFFF"></path>
                    <path d="M77.999273,20.6772103 L77.6773752,20.6772103 C77.3261489,20.6729026 77.0443095,20.3842872 77.0478861,20.0310564 L77.0478861,20.0238769 L77.0478861,7.81874872 C77.0400175,7.46551795 77.3189956,7.17331282 77.6702219,7.16541538 L77.6773752,7.16541538 L77.999273,7.16541538 C78.3519299,7.17259487 78.633054,7.46408205 78.628762,7.81874872 L78.628762,20.0238769 C78.633054,20.3778256 78.3519299,20.6685949 77.999273,20.6772103" id="Fill-3" fill="#FFFFFF"></path>
                    <path d="M74.7021095,20.6772103 L74.3587518,20.6772103 C74.0025182,20.6729026 73.7178175,20.3806974 73.7221095,20.0238769 L73.7221095,7.81874872 C73.7178175,7.46192821 74.0025182,7.16900513 74.3587518,7.16541538 L74.6734964,7.16541538 C75.0247226,7.16900513 75.306562,7.45833846 75.3029854,7.81085128 L75.3029854,7.81874872 L75.3029854,20.0238769 C75.310854,20.3763897 75.0318759,20.6685949 74.6806496,20.6764923 C74.6785036,20.6772103 74.6756423,20.6772103 74.6734964,20.6772103" id="Fill-5" fill="#FFFFFF"></path>
                    <path d="M88.1214569,19.7293026 C87.429019,20.1629436 86.645019,20.4264308 85.8324058,20.4975077 C82.9324642,20.7638667 80.366581,18.6207897 80.1011942,15.7109436 C79.8358073,12.8010974 81.9703474,10.2258154 84.8702891,9.95945641 C86.0083766,9.8546359 87.1493255,10.1238667 88.1214569,10.7262256 L88.1214569,12.779559 C86.7737781,11.2438667 84.441092,11.0952513 82.9117197,12.4471487 C81.3816321,13.7997641 81.2335591,16.1402769 82.581238,17.6759692 C83.9282015,19.2109436 86.2601723,19.3602769 87.7902599,18.0083795 C87.9075737,17.9042769 88.0177343,17.7937128 88.1214569,17.6759692 L88.1214569,19.7293026 Z M89.2802891,20.3898154 C88.9326394,20.3941231 88.6472234,20.1141231 88.6429314,19.7652 L88.6429314,19.7580205 L88.6429314,11.1210974 C88.6429314,10.7721744 88.9254861,10.4893026 89.2724204,10.4893026 L89.2802891,10.4893026 L89.5950336,10.4893026 C89.9426832,10.4857128 90.2273839,10.7649949 90.2316759,11.1139179 L90.2316759,11.1210974 L90.2316759,19.779559 C90.2316759,20.1284821 89.9498365,20.4113538 89.6021869,20.4113538 L89.5950336,20.4113538 L89.2802891,20.3898154 Z" id="Fill-7" fill="#FFFFFF"></path>
                    <path d="M57.541165,19.7293026 C56.848727,20.1629436 56.064727,20.4264308 55.2521139,20.4975077 C52.3521723,20.7638667 49.7862891,18.6207897 49.5209022,15.7109436 C49.2555153,12.8010974 51.3900555,10.2258154 54.2899971,9.95945641 C55.4280847,9.8546359 56.5690336,10.1238667 57.541165,10.7262256 L57.541165,12.779559 C56.1934861,11.2438667 53.8608,11.0952513 52.3314277,12.4471487 C50.8013401,13.7997641 50.6532672,16.1402769 52.000946,17.6759692 C53.3479095,19.2109436 55.6798803,19.3602769 57.2099679,18.0083795 C57.3272818,17.9042769 57.4374423,17.7937128 57.541165,17.6759692 L57.541165,19.7293026 Z M58.6999971,20.3898154 C58.3523474,20.3941231 58.0669314,20.1141231 58.0626394,19.7652 L58.0626394,19.7580205 L58.0626394,11.1210974 C58.0626394,10.7721744 58.3451942,10.4893026 58.6921285,10.4893026 L58.6999971,10.4893026 L59.0147416,10.4893026 C59.3580993,10.4857128 59.640654,10.7614051 59.6435153,11.1067385 L59.6435153,11.1210974 L59.6435153,19.779559 C59.6478073,20.1248923 59.3731212,20.4070462 59.0290482,20.4113538 L59.0147416,20.4113538 L58.6999971,20.3898154 Z" id="Fill-9" fill="#FFFFFF"></path>
                    <path d="M72.1697752,14.7463795 C72.4380234,17.6569436 70.3063445,20.2343795 67.4064029,20.5043282 C64.5071766,20.773559 61.9391474,18.6333538 61.6701839,15.7235077 C61.4019358,12.8136615 63.5343299,10.2362256 66.4328409,9.96627692 C66.4378482,9.96555897 66.4421401,9.96555897 66.4471474,9.96484103 C69.3392204,9.71140513 71.8936584,11.8458667 72.1697752,14.7463795 M70.5888993,14.8899692 C70.3821693,12.8545846 68.571673,11.3720205 66.5430015,11.5787897 C64.5150453,11.7862769 63.037892,13.6041231 63.2439066,15.6395077 C63.4492058,17.6619692 65.2389577,19.1402256 67.2554686,18.953559 C69.2812788,18.7697641 70.7763153,16.9734564 70.5931912,14.9395077 C70.5917606,14.9229949 70.5903299,14.9064821 70.5888993,14.8899692" id="Fill-11" fill="#FFFFFF"></path>
                    <path d="M41.6178102,20.6772103 L36.9967883,20.6772103 C36.3286715,20.7446974 35.7320876,20.2550564 35.665562,19.5852103 C35.6612701,19.5442872 35.6591241,19.5040821 35.6591241,19.4638769 L35.6591241,8.39310769 C35.715635,7.69741538 36.3014891,7.16613333 36.9967883,7.17977436 L41.4532847,7.17977436 C50.3162044,7.17977436 50.1230657,20.6772103 41.6178102,20.6772103 M41.3459854,8.76644103 L37.24,8.76644103 L37.24,19.0905436 L41.3459854,19.0905436 C48.0271533,19.0905436 48.320438,8.76644103 41.3459854,8.76644103" id="Fill-13" fill="#FFFFFF"></path>
                    <path d="M14.2851095,0.193917949 C21.8425547,0.193917949 27.9693431,6.34243077 27.9693431,13.9282769 C27.9693431,21.5134051 21.8425547,27.6626359 14.2851095,27.6626359 C6.72766423,27.6626359 0.600875912,21.5134051 0.600875912,13.9282769 C0.600875912,6.34243077 6.72766423,0.193917949 14.2851095,0.193917949" id="Fill-15" fill="#FFFFFF"></path>
                    <path d="M13.5554745,19.6717949 L12.4538686,19.6717949 L12.4538686,20.6338462 C12.4538686,20.7860513 12.3336934,20.9102564 12.1820438,20.9138462 L11.4667153,20.9138462 C11.315781,20.9102564 11.1948905,20.7860513 11.1948905,20.6338462 L11.1948905,19.6717949 L10.0432117,19.6717949 C9.74134307,19.6717949 9.49670073,19.4284103 9.49240876,19.1261538 L9.49240876,8.70871795 C9.49670073,8.40646154 9.74134307,8.16307692 10.0432117,8.16307692 L11.2235036,8.16307692 L11.2235036,7.20102564 C11.2235036,7.04882051 11.3443942,6.92533333 11.4953285,6.92102564 L12.2106569,6.92102564 C12.3623066,6.92533333 12.4824818,7.04882051 12.4824818,7.20102564 L12.4824818,8.18461538 L13.5554745,8.18461538 L13.5554745,7.20102564 C13.5554745,7.04666667 13.6806569,6.92102564 13.8344526,6.92102564 L14.5140146,6.92102564 C14.6663796,6.92461538 14.7894161,7.04810256 14.7929927,7.20102564 L14.7929927,8.18461538 C17.886073,8.31815385 20.3532409,10.822359 20.4512409,13.9282051 C20.3532409,17.0333333 17.886073,19.5375385 14.7929927,19.6717949 L14.7929927,20.6482051 C14.7894161,20.8011282 14.6663796,20.9246154 14.5140146,20.9282051 L13.8344526,20.9282051 C13.6806569,20.9282051 13.5554745,20.8025641 13.5554745,20.6482051 L13.5554745,19.6717949 Z M11.960292,10.08 C11.657708,10.0843077 11.4130657,10.3291282 11.4094891,10.6328205 L11.4094891,17.2235897 C11.4130657,17.5272821 11.657708,17.7721026 11.960292,17.7764103 L14.3566423,17.7764103 C16.5290949,17.8324103 18.3352993,16.1107692 18.3910949,13.9310769 L18.3910949,13.9282051 C18.3367299,11.7477949 16.5312409,10.0247179 14.3595036,10.08 L14.3566423,10.08 L11.960292,10.08 Z" id="Fill-17" fill="#11216E"></path>
                </g>
            </g>
        </g>
    </g>
</svg>