<?xml version="1.0" encoding="UTF-8"?>
<svg width="18px" height="18px" viewBox="0 0 18 18" version="1.1" xmlns="http://www.w3.org/2000/svg" xmlns:xlink="http://www.w3.org/1999/xlink">
    <!-- Generator: Sketch 50.2 (55047) - http://www.bohemiancoding.com/sketch -->
    <title>交易</title>
    <desc>Created with Sketch.</desc>
    <defs></defs>
    <g id="Page-1" stroke="none" stroke-width="1" fill="none" fill-rule="evenodd">
        <g id="G.55.com" transform="translate(-1141.000000, -901.000000)" fill="#FFFFFF" fill-rule="nonzero">
            <g id="mainboard" transform="translate(80.000000, 725.000000)">
                <g id="pair2" transform="translate(0.000000, 157.000000)">
                    <g id="交易" transform="translate(1061.000000, 19.000000)">
                        <path d="M1.29317689,9.40729595 C1.10740064,7.40885433 1.73742443,5.45925048 3.06612843,3.9179304 C4.39483244,2.37661033 6.26471072,1.42915755 8.33248109,1.24943455 C11.2362446,0.99547814 14.0047145,2.31019096 15.573716,4.68370666 L7.02195085,12.9587787 C6.83819391,13.1365482 6.78569193,13.3983187 6.88867658,13.6288329 C6.98762263,13.8534867 7.21580432,14 7.48033354,14 L11.0625842,13.9316271 C11.409905,13.9257666 11.6885693,13.6464145 11.6804921,13.3084572 C11.6764535,13.1385017 11.6037584,12.9783138 11.4805807,12.8669637 C11.3594223,12.7595206 11.199897,12.7067758 11.0383525,12.7106828 L9.02308408,12.749753 L16.8155898,5.2111546 C17.0134819,5.01971053 17.0579066,4.71886986 16.9205938,4.48249504 C15.1839897,1.47213479 11.7713609,-0.270396903 8.2193999,0.0343507924 C5.81642457,0.243376455 3.64365024,1.34515659 2.09888038,3.13652605 C0.552091219,4.92789552 -0.178897915,7.19396813 0.0371679342,9.51669255 C0.0916892232,10.1066528 0.208809029,10.6907526 0.382469431,11.2514102 C0.430932799,11.4076911 0.539975377,11.5366228 0.689404095,11.6147632 C0.838832813,11.6909502 1.0084546,11.7085317 1.16999916,11.6616475 C1.33154372,11.6147632 1.46481798,11.5092736 1.54357096,11.3666673 C1.62434324,11.2221075 1.64049769,11.0580126 1.59203432,10.9017318 C1.4405863,10.4192146 1.34164026,9.91520877 1.29317689,9.40729595 Z" id="Shape"></path>
                        <path d="M17.9641645,7.90214337 C17.9346349,7.55179688 17.6354016,7.28644569 17.2967955,7.31546847 C16.9581894,7.34863737 16.7081721,7.66374191 16.7396703,8.01823452 C17.113712,12.3965292 14.0347587,16.2793634 9.87699069,16.6753171 C7.46737512,16.9033533 5.06957139,15.8792635 3.44544325,13.9285177 L11.8239758,5.10559059 C12.0070594,4.91486942 12.0562754,4.62049545 11.9460315,4.37380176 C11.8357877,4.12503502 11.5936449,3.97784803 11.3337844,4.00272471 L7.82369899,4.33648675 C7.48509288,4.36965565 7.23507558,4.68476019 7.26657382,5.03925279 C7.29807207,5.3937454 7.59730537,5.65495048 7.93394284,5.62592769 L9.754935,5.45386403 L2.17960762,13.4268381 C1.9630572,13.6548743 1.93943351,14.0218052 2.12448569,14.2767911 C3.81161032,16.6089793 6.46533727,18 9.22143351,18 C9.4753881,18 9.73327996,17.9875617 9.9852659,17.964758 C14.8222148,17.5066126 18.399234,12.9935693 17.9641645,7.90214337 Z" id="Shape"></path>
                    </g>
                </g>
            </g>
        </g>
    </g>
</svg>