<svg id="图层_1" data-name="图层 1" xmlns="http://www.w3.org/2000/svg" viewBox="0 0 5952.36 2204.19"><defs><style>.cls-1{fill:#fff;}</style></defs><title>55-logo-H5_qp</title><path class="cls-1" d="M5568.88,330.47A379.73,379.73,0,0,0,5304.61,436.7,379.74,379.74,0,0,0,5041,330.47c-210.43-.19-381.17,170.24-381.36,380.67V828.35h0v612.92h234.17V828.35h0V711.14a146.85,146.85,0,0,1,293.69,0v728.7h234.17V828.35h.41V711.14q-.19-5.5,0-11a146.85,146.85,0,0,1,293.49,11v730.33h233.76l.2-730.33C5949.36,501,5779,330.66,5568.88,330.47Z"/><path class="cls-1" d="M4109.15,298.8A588.38,588.38,0,0,0,3835,316.51a576.66,576.66,0,0,0-232.52,139c-72.91,71.88-115.13,164.76-162.71,254.15s-91.85,180-139.84,267.74c-43.46,79.91-92.47,151.58-178.15,190.3-163.68,79.62-360.91,11.48-440.54-152.2S2669.78,654.58,2833.46,575a336.16,336.16,0,0,1,288.34-7.62c90.21,41.19,138.81,116.37,183.3,200.19l132.63-247.09a572.11,572.11,0,0,0-528.92-215.22A586.78,586.78,0,0,0,2502.7,565.34c-166,267.81-83.44,619.47,184.37,785.45C2911,1489.57,3200.79,1457,3388.31,1272a649.17,649.17,0,0,0,107.09-154l13.8,27.6c154.4,277.77,504.75,377.8,782.53,223.4a575.46,575.46,0,0,0,295.85-497.83h1C4588.83,589.3,4386.67,348,4109.15,298.8ZM4337.09,934a334.28,334.28,0,0,1-323.92,262.85v0c-182.79,0-331-148.2-331-331A330.91,330.91,0,0,1,3796.05,616a322.92,322.92,0,0,1,380.8-32.13C4294.45,656.12,4365.92,797.2,4337.09,934Z"/><rect class="cls-1" x="2134.04" y="1199.07" width="242.41" height="242.41" rx="121.1" ry="121.1"/><path class="cls-1" d="M463.07,1192.06A319.44,319.44,0,0,1,237.16,888.91H3.45C3,1193.73,249.69,1441.23,554.52,1441.7A551.94,551.94,0,0,0,946.1,1279.6a561.46,561.46,0,0,0,47-54.37l-131-245.09C810.42,1148.83,631.8,1243.71,463.07,1192.06Z"/><path class="cls-1" d="M1527.74,336.42a552.32,552.32,0,0,0-100.19,11.72l55.54-131.06h511.52V0H1342.76L1114,539.48q-5.16,6.38-10.13,12.89l131.46,245.29c80.32-270,459.28-305.64,589.44-57,138,263-144.17,562.05-414.79,439.09-105.86-48-150.76-144.16-202.25-239.11C1164,859.7,1119.74,779,1076.9,696.58c-48.81-92.88-96.18-175.67-180.62-242.2-134.78-106.09-303.63-139.24-459-105.17l56-132.13h511.52V0H352.94L119.28,550.91l-1.12,1.46,131.4,245.91C301.89,628.14,482.28,532.62,652.39,585a321,321,0,0,1,35.24,13.18C786.07,642.83,831.79,727.48,879,817.07l120.32,224.44q33.38,61.79,67.15,125a533,533,0,0,0,308.85,249.22c355.3,112.41,727.66-167.86,718.19-541C2085.89,569.83,1832.6,328.84,1527.74,336.42Z"/><path class="cls-1" d="M316.08,1784.14Q270,1722.8,175.4,1722.76a157.3,157.3,0,0,0-139,65.69A213.73,213.73,0,0,0,.15,1913.67a208,208,0,0,0,42.43,133.88,164.79,164.79,0,0,0,130.78,55,162.9,162.9,0,0,0,137.16-61.79,215.22,215.22,0,0,0,41.19-134.28A198.5,198.5,0,0,0,316.08,1784.14Zm-43,230.46,0,0a103,103,0,0,1-92.68,45.5q-68,0-98.24-41.22A164.78,164.78,0,0,1,51.84,1918a161.07,161.07,0,0,1,34.6-113.07,117.81,117.81,0,0,1,91.24-38.51,113.69,113.69,0,0,1,90.83,38.72,152,152,0,0,1,33.36,103A197.67,197.67,0,0,1,273.08,2014.6Z"/><path class="cls-1" d="M531.1,1824.34a106.29,106.29,0,0,0-46.34,10.09,116.59,116.59,0,0,0-39.54,33.16v-37.28H404V2093h44.69V1955.38a177.3,177.3,0,0,1,3.29-39.55,70.45,70.45,0,0,1,46.14-48.39,82.08,82.08,0,0,1,25.74-3.3,43.66,43.66,0,0,1,42.8,24.46,93.79,93.79,0,0,1,6.59,40.37v164.76H617.4V1925.26a141.41,141.41,0,0,0-10.71-61.79C592.89,1837.34,568.38,1824.34,531.1,1824.34Z"/><path class="cls-1" d="M885.55,1871.52a99.68,99.68,0,0,0-39.75-34,117.81,117.81,0,0,0-52.73-13.42,112,112,0,0,0-89.17,39.54,151,151,0,0,0-34.19,103,138.78,138.78,0,0,0,34,99.88,109,109,0,0,0,82.38,35.84,157.7,157.7,0,0,0,35.84-3.91,103,103,0,0,0,49.43-26.57,127.05,127.05,0,0,0,20.59-29,95.25,95.25,0,0,0,11.33-32.34H859.8a76.86,76.86,0,0,1-16.27,30.9,69.6,69.6,0,0,1-54.78,22.86,61.81,61.81,0,0,1-54.17-24.3,112.68,112.68,0,0,1-18.74-64.26H907a316,316,0,0,0-3.92-57.88A117.94,117.94,0,0,0,885.55,1871.52Zm-168.68,69a82.39,82.39,0,0,1,21.63-55.81,66.49,66.49,0,0,1,50.66-22,63.23,63.23,0,0,1,59.93,31.92,111.8,111.8,0,0,1,12.36,45.93Z"/><polygon class="cls-1" points="1417.76 2025.97 1335.38 1732.69 1282.66 1732.69 1200.28 2025.35 1132.28 1732.69 1079.14 1732.69 1173.47 2092.91 1225.78 2092.91 1308.17 1794.27 1391.58 2092.91 1442.92 2092.91 1539.1 1732.69 1485.76 1732.69 1417.76 2025.97"/><path class="cls-1" d="M1758.18,1856.47a118.24,118.24,0,0,0-85.31-34,111.39,111.39,0,0,0-89.59,39.13A157.49,157.49,0,0,0,1550,1967a146,146,0,0,0,31.51,98.44,107.66,107.66,0,0,0,85.47,36.66A110.82,110.82,0,0,0,1762.3,2061,172.16,172.16,0,0,0,1793,1956,132.64,132.64,0,0,0,1758.18,1856.47Zm-11.33,100.73a167.78,167.78,0,0,1-16.07,73.94,60.33,60.33,0,0,1-59.52,33.15,63.87,63.87,0,0,1-57.87-28,124.75,124.75,0,0,1-18.12-69.82,144.14,144.14,0,0,1,18.12-74.35,61.76,61.76,0,0,1,58.29-30.89,65.27,65.27,0,0,1,63.43,36.24A131.3,131.3,0,0,1,1746.85,1957.2Z"/><path class="cls-1" d="M1914.7,1843.49a96.24,96.24,0,0,0-25.12,32.13v-45.31h-41.2v261.6h45.08v-151a74.52,74.52,0,0,1,17.92-49.43,62.79,62.79,0,0,1,51.28-20.59h14.62v-46.55H1961A65.57,65.57,0,0,0,1914.7,1843.49Z"/><rect class="cls-1" x="2015.62" y="1732.69" width="44.28" height="360.22"/><path class="cls-1" d="M2297.16,1864.09a125.45,125.45,0,0,0-26.77-25.74,93,93,0,0,0-51.29-12.59,95.15,95.15,0,0,0-82.38,41.19,170.16,170.16,0,0,0-29.24,99.48,144.17,144.17,0,0,0,31.92,98.24,97.2,97.2,0,0,0,75.79,37.07,103,103,0,0,0,48.19-10.91,95,95,0,0,0,36.46-35v37.08h39.75V1731.46h-42.43Zm2.47,97.42A124.82,124.82,0,0,1,2279,2037.3a59.73,59.73,0,0,1-50.05,26.36,61.79,61.79,0,0,1-57-28.42h0a130.78,130.78,0,0,1-17.34-70.64,117.23,117.23,0,0,1,20.59-75.18,66.53,66.53,0,0,1,54-25.54,62.89,62.89,0,0,1,49.85,23.89A112,112,0,0,1,2299.63,1961.51Z"/><path class="cls-1" d="M2468.1,2040.39h-52.52v53.34h26.78a10,10,0,0,1,0,3.09v3.09a66.25,66.25,0,0,1-3.71,20.59,31.51,31.51,0,0,1-23.89,24.1l.41,23.68a52.92,52.92,0,0,0,41.19-27.18,107.07,107.07,0,0,0,11.74-51.28Z"/><path class="cls-1" d="M2987.28,1784.14q-45.69-61.34-140.87-61.37a156.92,156.92,0,0,0-137.78,66.72,212.55,212.55,0,0,0-36.87,125.22,208.07,208.07,0,0,0,42.43,133.87q5.23,5.37,10.9,10.29c75.92,65.89,190.91,57.81,256.84-18.11a214,214,0,0,0,41.19-134.28A198.73,198.73,0,0,0,2987.28,1784.14Zm-43,230.46v0a101.32,101.32,0,0,1-93.31,45.69q-68,0-98.24-41.19a164.71,164.71,0,0,1-30.25-100.93,161.91,161.91,0,0,1,35.22-113.28,118.21,118.21,0,0,1,91.24-38.51,114.06,114.06,0,0,1,91,38.72,152.79,152.79,0,0,1,33.16,103A197.68,197.68,0,0,1,2944.28,2014.6Z"/><path class="cls-1" d="M3202.53,1824.34a106.29,106.29,0,0,0-46.34,10.09,118.41,118.41,0,0,0-39.54,33.16v-37.28h-41.19l-.4,263.23h44.07V1956a177.3,177.3,0,0,1,3.3-39.55,66.48,66.48,0,0,1,14.41-27,65.3,65.3,0,0,1,31.93-20.59,82.37,82.37,0,0,1,25.74-3.3,43.25,43.25,0,0,1,42.63,24.51,90.67,90.67,0,0,1,7,38.93v164.76h44.69V1925.26a138.17,138.17,0,0,0-10.71-61.79C3264.32,1837.34,3239.81,1824.34,3202.53,1824.34Z"/><path class="cls-1" d="M3556.78,1871.52a97,97,0,0,0-39.75-34,116.92,116.92,0,0,0-54.4-13.42,112.42,112.42,0,0,0-89.38,39.54,152,152,0,0,0-34,103,138.83,138.83,0,0,0,33.77,99.88,109.34,109.34,0,0,0,82.39,35.84,156.5,156.5,0,0,0,35.83-3.91,103,103,0,0,0,49.43-26.57,116.13,116.13,0,0,0,21.63-29,90.94,90.94,0,0,0,11.32-32.34h-43a79.52,79.52,0,0,1-16.27,30.9,69.81,69.81,0,0,1-54.78,22.86,61.83,61.83,0,0,1-54.38-24.3,114.34,114.34,0,0,1-18.74-64.26h191.13a297.57,297.57,0,0,0-3.92-57.88A115.1,115.1,0,0,0,3556.78,1871.52Zm-168.47,69.2a82.34,82.34,0,0,1,20.59-55.81,66.53,66.53,0,0,1,51.49-22.24,63.85,63.85,0,0,1,60.14,31.92,118.65,118.65,0,0,1,12.36,45.93Z"/><polygon class="cls-1" points="3831.93 1927.33 4029.65 1927.33 4029.65 1886.14 3831.93 1886.14 3831.93 1776.77 4045.71 1776.77 4045.71 1732.69 3784.36 1732.69 3784.36 2092.3 4049.42 2092.3 4049.42 2049.46 3831.93 2049.46 3831.93 1927.33"/><polygon class="cls-1" points="4316.95 1831.55 4263.2 1830.31 4201.41 1922.79 4140.86 1830.31 4083.81 1830.31 4170.91 1958.21 4079.06 2092.49 4135.06 2092.49 4198.28 1994.05 4263.61 2092.91 4320.87 2092.91 4228.39 1958.21 4316.95 1831.55"/><path class="cls-1" d="M4461.33,1861.41a56.43,56.43,0,0,1,44.9,16.07,80,80,0,0,1,17.91,41.19H4567a103,103,0,0,0-33.36-74.35,114.35,114.35,0,0,0-72.46-22.43,108.79,108.79,0,0,0-85.68,38.51,159.49,159.49,0,0,0-33.57,107.72A144.18,144.18,0,0,0,4372.6,2062a100.29,100.29,0,0,0,82.38,37.69c2.32.21,4.65.38,7,.38a103,103,0,0,0,105-100.88h-42.84a91.78,91.78,0,0,1-22.24,45.72,56.89,56.89,0,0,1-43.46,16.89,57.47,57.47,0,0,1-52.51-27,123.64,123.64,0,0,1-16.69-66.32A163.37,163.37,0,0,1,4401,1902.6,61.82,61.82,0,0,1,4461.33,1861.41Z"/><path class="cls-1" d="M4736.91,1823.94a93.88,93.88,0,0,0-53.34,14,126.58,126.58,0,0,0-28.21,28V1731.46h-44.08v362.89h44.08V1955.12c0-35,7.41-58.9,22.24-71.46a75.59,75.59,0,0,1,49.84-18.75,47.16,47.16,0,0,1,45.1,20.6,92.78,92.78,0,0,1,7.42,42.63V2093h45.51V1924.49a135.67,135.67,0,0,0-11.12-60.55A78.67,78.67,0,0,0,4736.91,1823.94Z"/><path class="cls-1" d="M5100.2,2059.67a20.5,20.5,0,0,1-2.68-11.12V1897.17a59.74,59.74,0,0,0-28.83-54.79,140.76,140.76,0,0,0-75.18-17.71,130.35,130.35,0,0,0-70.23,19,76.62,76.62,0,0,0-31.51,68H4933a50.77,50.77,0,0,1,.93-10.86,50.25,50.25,0,0,1,59-39.6,83.9,83.9,0,0,1,45.92,10.29,35.85,35.85,0,0,1,16.07,32.75,41.14,41.14,0,0,1-2.89,17.1,24.3,24.3,0,0,1-20.59,12.56l-70.64,10.28a108.72,108.72,0,0,0-59.94,24.71,72.1,72.1,0,0,0-22.65,56.64,73.76,73.76,0,0,0,23.07,55.61,83.59,83.59,0,0,0,59.72,22,120.49,120.49,0,0,0,55.82-13,114.86,114.86,0,0,0,38.72-30.69,60.27,60.27,0,0,0,7.62,24.3,36,36,0,0,0,33.16,16.27,91.49,91.49,0,0,0,14.62,0,100,100,0,0,0,15.65-3.7v-32.54h-14.42A14,14,0,0,1,5100.2,2059.67Zm-83.66-6.1a99.51,99.51,0,0,1-45.1,10.71,52.93,52.93,0,0,1-33.16-10.92,36.63,36.63,0,0,1-13.8-30.27,39.14,39.14,0,0,1,20.59-36.66,107.43,107.43,0,0,1,36.05-10.09l26.77-3.3a190.33,190.33,0,0,0,24.92-4.94,73.09,73.09,0,0,0,20.6-8.65v35.63A60.56,60.56,0,0,1,5016.54,2053.57Z"/><path class="cls-1" d="M5296.88,1824.34a107.5,107.5,0,0,0-46.34,10.09,117.92,117.92,0,0,0-39.33,33.16v-37.28H5170l-.83,264h44.08V1956.77a190.67,190.67,0,0,1,3.29-39.54,71.28,71.28,0,0,1,46.34-48.4,82.43,82.43,0,0,1,25.75-3.3,43.25,43.25,0,0,1,42.63,24.51,90.76,90.76,0,0,1,7.21,38.93v164.76h44.9V1925.26a137.85,137.85,0,0,0-10.92-61.79C5358.67,1837.34,5334.37,1824.34,5296.88,1824.34Z"/><path class="cls-1" d="M5662,1832.78h-41.19v33.16a120.65,120.65,0,0,0-25.33-25.12,96.13,96.13,0,0,0-52.75-15.26,99.22,99.22,0,0,0-77.64,37.07,152.24,152.24,0,0,0-32.13,103q.21,70,31.92,100.3a104.43,104.43,0,0,0,74.35,30.27,105.56,105.56,0,0,0,49.23-9.89,85.58,85.58,0,0,0,31.71-29.86,205.86,205.86,0,0,1-8.65,75.38c-10.3,23.89-32.33,35.63-66.11,35.63a64.09,64.09,0,0,1-46.75-14.62,50.83,50.83,0,0,1-12.77-27.19H5441a74.59,74.59,0,0,0,32.34,59.52,127.28,127.28,0,0,0,71.05,18.95q75.51-.1,103-53.55a177.05,177.05,0,0,0,14.62-78.88ZM5611.21,2018a67.76,67.76,0,0,1-66.73,43,58.06,58.06,0,0,1-48.19-23.27,108.78,108.78,0,0,1-17.92-67.55,172.23,172.23,0,0,1,9.06-61.79,61.79,61.79,0,0,1,63.44-43.66,64,64,0,0,1,50,23.48l.05,0a109.34,109.34,0,0,1,21,73.11A137.57,137.57,0,0,1,5611.21,2018Z"/><path class="cls-1" d="M5948.28,1917.84a114.91,114.91,0,0,0-17.47-46.32,98.45,98.45,0,0,0-39.75-34,117.18,117.18,0,0,0-53.78-13.38,112.45,112.45,0,0,0-89.16,39.48,152.27,152.27,0,0,0-34.19,103,138.78,138.78,0,0,0,34,99.88,109.32,109.32,0,0,0,82.38,35.84,156.5,156.5,0,0,0,35.83-3.91,103,103,0,0,0,49.43-26.57,116.13,116.13,0,0,0,21.63-29,91.13,91.13,0,0,0,11.32-32.34h-43.45a76.53,76.53,0,0,1-16.07,30.9,69.81,69.81,0,0,1-54.78,22.86,61.82,61.82,0,0,1-54.37-24.3,114.26,114.26,0,0,1-18.74-64.26h191.08A298.4,298.4,0,0,0,5948.28,1917.84Zm-186.15,22.64a82.39,82.39,0,0,1,21.63-55.81,66.49,66.49,0,0,1,50.66-22,63.83,63.83,0,0,1,60.14,31.92,118.65,118.65,0,0,1,12.36,45.93Z"/></svg>