<svg width='290' height='110' id="图层_1" data-name="图层 1" xmlns="http://www.w3.org/2000/svg" viewBox="0 0 290 110"><defs><style>.cls-1{fill:#17489c;}</style></defs><title>55-logo290110</title><path id="_路径_" data-name="&lt;路径&gt;" class="cls-1" d="M263.73,42.4H252.36V36.71a7.13,7.13,0,0,0-14.26,0V42.4H226.73V36.71a18.5,18.5,0,0,1,37,0Z"/><rect id="_路径_2" data-name="&lt;路径&gt;" class="cls-1" x="252.36" y="30.95" width="11.37" height="41.14"/><path id="_路径_3" data-name="&lt;路径&gt;" class="cls-1" d="M289.35,72.17H278V36.71a7.13,7.13,0,1,0-14.25,0V42.4H252.36V36.71a18.5,18.5,0,0,1,37,0Z"/><rect id="_路径_4" data-name="&lt;路径&gt;" class="cls-1" x="226.73" y="40.96" width="11.37" height="31.2"/><path class="cls-1" d="M223.28,44.48A28.2,28.2,0,0,0,200,16.69a28.57,28.57,0,0,0-13.31.86h0A28,28,0,0,0,175.4,24.3c-3.54,3.49-5.59,8-7.9,12.34s-4.46,8.74-6.79,13c-2.11,3.88-4.49,7.36-8.65,9.24h0a16,16,0,0,1-14-28.78,16.32,16.32,0,0,1,14-.37v0c4.38,2,6.74,5.65,8.9,9.72l6.44-12A28,28,0,0,0,165,24.75h0A28,28,0,0,0,141.72,17,28.49,28.49,0,0,0,122,29.63a27.7,27.7,0,0,0,43,34.31h0a31.52,31.52,0,0,0,5.2-7.48l.67,1.34h0a27.94,27.94,0,0,0,52.36-13.32ZM195.34,60.29a16.07,16.07,0,0,1-10.54-28.2,15.68,15.68,0,0,1,18.49-1.56c5.71,3.51,9.18,10.36,7.78,17A16.23,16.23,0,0,1,195.34,60.29Z"/><g id="_编组_" data-name="&lt;编组&gt;"><rect id="_路径_5" data-name="&lt;路径&gt;" class="cls-1" x="104.1" y="60.4" width="11.77" height="11.77" rx="5.88" ry="5.88"/><polygon id="_路径_6" data-name="&lt;路径&gt;" class="cls-1" points="76.96 2.18 65.68 2.18 54.3 29.01 65.59 29.01 76.96 2.18"/><rect id="_矩形_" data-name="&lt;矩形&gt;" class="cls-1" x="66.95" y="2.18" width="30.38" height="10.54"/><polygon id="_路径_7" data-name="&lt;路径&gt;" class="cls-1" points="28.9 2.18 17.62 2.18 6.24 29.01 17.53 29.01 28.9 2.18"/><rect id="_矩形_2" data-name="&lt;矩形&gt;" class="cls-1" x="18.89" y="2.18" width="30.38" height="10.54"/><g id="_编组_2" data-name="&lt;编组&gt;"><path id="_路径_8" data-name="&lt;路径&gt;" class="cls-1" d="M42.34,49.77A15.51,15.51,0,0,1,12,45.34H.65A27.14,27.14,0,0,0,17,70.06a27.15,27.15,0,0,0,29.42-5.75h0a27.32,27.32,0,0,0,2.28-2.64Z"/><path id="_路径_9" data-name="&lt;路径&gt;" class="cls-1" d="M102.13,44.65A26.81,26.81,0,0,0,56.36,26.37h0A27.32,27.32,0,0,0,54.08,29l6.38,11.91c3.9-13.11,22.3-14.84,28.62-2.77,6.7,12.77-7,27.29-20.14,21.32h0c-5.14-2.33-7.32-7-9.82-11.61C57,43.92,54.85,40,52.77,36,50.4,31.49,48.1,27.47,44,24.24A26.75,26.75,0,0,0,6.22,29L12.6,40.94a15.65,15.65,0,0,1,21.27-9.72v0c4.78,2.17,7,6.28,9.29,10.63L49,52.75q1.62,3,3.26,6.07a25.88,25.88,0,0,0,15,12.1h0C84.51,76.38,102.59,62.77,102.13,44.65Z"/></g></g><path class="cls-1" d="M15.14,100.94a8,8,0,0,1-5.82,2.29,8,8,0,0,1-5.81-2.29,8.15,8.15,0,0,1,0-11.45A8,8,0,0,1,9.32,87.2a8,8,0,0,1,5.82,2.29,8.15,8.15,0,0,1,0,11.45Zm-1.92-9.71a5.23,5.23,0,0,0-3.9-1.64,5.23,5.23,0,0,0-3.89,1.64,5.82,5.82,0,0,0,0,8,5.23,5.23,0,0,0,3.89,1.64,5.23,5.23,0,0,0,3.9-1.64,5.82,5.82,0,0,0,0-8Z"/><path class="cls-1" d="M23,96.69v6.39H20.55V91.28H23v2.15a4.64,4.64,0,0,1,7.16-1.11,4.75,4.75,0,0,1,1.23,3.53v7.23H28.93V96.6c0-2.17-.9-3.26-2.7-3.26A3.19,3.19,0,0,0,24,94.2,3.13,3.13,0,0,0,23,96.69Z"/><path class="cls-1" d="M46.17,98.26H36.92a2.71,2.71,0,0,0,1.17,2.08A4.6,4.6,0,0,0,44,99.73l1.42,1.55a6.58,6.58,0,0,1-5,2,5.8,5.8,0,0,1-6-6.08,5.73,5.73,0,0,1,1.78-4.43,6,6,0,0,1,4.18-1.64,6.09,6.09,0,0,1,4.09,1.45,5,5,0,0,1,1.69,4Zm-9.25-2h6.76A2.83,2.83,0,0,0,42.75,94a3.43,3.43,0,0,0-2.3-.8,4,4,0,0,0-2.45.83A2.7,2.7,0,0,0,36.92,96.31Z"/><path class="cls-1" d="M58.68,103.08H55.84l-4.08-11.8h2.57l2.93,8.91,2.92-8.91h2.58l2.92,8.91,2.93-8.91h2.58l-4.09,11.8H64.27L61.47,95Z"/><path class="cls-1" d="M82.94,101.49a6.47,6.47,0,0,1-8.87,0,6.11,6.11,0,0,1,0-8.62,6.44,6.44,0,0,1,8.87,0,6.11,6.11,0,0,1,0,8.62ZM75.83,100a3.85,3.85,0,0,0,5.35,0,3.79,3.79,0,0,0,1-2.78,3.83,3.83,0,0,0-1-2.79,3.88,3.88,0,0,0-5.35,0,3.83,3.83,0,0,0-1,2.79A3.79,3.79,0,0,0,75.83,100Z"/><path class="cls-1" d="M94.19,91.1l0,2.51h-.13A3.32,3.32,0,0,0,91.3,94.8,5.13,5.13,0,0,0,90.37,98v5.06H87.89V91.28h2.48v2.37A5.18,5.18,0,0,1,92,91.83,4,4,0,0,1,94.19,91.1Z"/><path class="cls-1" d="M99.78,103.08H97.29V86.62h2.49Z"/><path class="cls-1" d="M104.48,101.57a6,6,0,0,1-1.66-4.44,5.81,5.81,0,0,1,1.7-4.39,5.7,5.7,0,0,1,4.07-1.64,4.46,4.46,0,0,1,3.81,2V86.62h2.48v16.46H112.4V101.3a4.59,4.59,0,0,1-4,2A5.32,5.32,0,0,1,104.48,101.57Zm.82-4.34a3.7,3.7,0,0,0,1.09,2.77,3.55,3.55,0,0,0,2.55,1.06,3.29,3.29,0,0,0,2.48-1.08,3.83,3.83,0,0,0,1-2.76,4,4,0,0,0-1-2.81,3.24,3.24,0,0,0-2.51-1.14,3.38,3.38,0,0,0-2.55,1.14A3.94,3.94,0,0,0,105.3,97.23Z"/><path class="cls-1" d="M118,105.41l.82-2.31a1.49,1.49,0,0,1-.91-1.46,1.61,1.61,0,0,1,.49-1.19,1.6,1.6,0,0,1,1.15-.48,1.62,1.62,0,0,1,1.17.48,1.54,1.54,0,0,1,.5,1.14,3.25,3.25,0,0,1-.6,1.62l-1.33,2.2Z"/><path class="cls-1" d="M141.45,100.94a8.52,8.52,0,0,1-11.62,0,8.15,8.15,0,0,1,0-11.45,8.52,8.52,0,0,1,11.62,0,8.15,8.15,0,0,1,0,11.45Zm-1.92-9.71a5.43,5.43,0,0,0-7.78,0,5.79,5.79,0,0,0,0,8,5.43,5.43,0,0,0,7.78,0,5.79,5.79,0,0,0,0-8Z"/><path class="cls-1" d="M149.35,96.69v6.39h-2.49V91.28h2.49v2.15a4.63,4.63,0,0,1,7.15-1.11,4.75,4.75,0,0,1,1.23,3.53v7.23h-2.48V96.6c0-2.17-.9-3.26-2.71-3.26a3.21,3.21,0,0,0-2.24.86A3.16,3.16,0,0,0,149.35,96.69Z"/><path class="cls-1" d="M172.48,98.26h-9.25a2.7,2.7,0,0,0,1.18,2.08,4.59,4.59,0,0,0,5.85-.61l1.42,1.55a6.58,6.58,0,0,1-5,2,5.8,5.8,0,0,1-6-6.08,5.76,5.76,0,0,1,1.77-4.43,6,6,0,0,1,4.18-1.64,6.12,6.12,0,0,1,4.1,1.45,5,5,0,0,1,1.68,4Zm-9.25-2H170a2.83,2.83,0,0,0-.93-2.28,3.44,3.44,0,0,0-2.3-.8,3.94,3.94,0,0,0-2.45.83A2.69,2.69,0,0,0,163.23,96.31Z"/><path class="cls-1" d="M191.14,98.26h-9.25a2.71,2.71,0,0,0,1.17,2.08,4.6,4.6,0,0,0,5.86-.61l1.42,1.55a6.58,6.58,0,0,1-5,2,5.9,5.9,0,0,1-4.23-1.65,5.82,5.82,0,0,1-1.74-4.43,5.73,5.73,0,0,1,1.78-4.43,6,6,0,0,1,4.18-1.64,6.09,6.09,0,0,1,4.09,1.45,5,5,0,0,1,1.69,4Zm-9.25-2h6.76a2.83,2.83,0,0,0-.93-2.28,3.43,3.43,0,0,0-2.3-.8,4,4,0,0,0-2.45.83A2.7,2.7,0,0,0,181.89,96.31Z"/><path class="cls-1" d="M196.46,91.28,199,95.16l2.61-3.88h3L200.43,97l4.3,6h-3.06l-2.82-3.93-2.75,3.93h-2.9l4.19-6-4-5.79Z"/><path class="cls-1" d="M218.15,101.08a6.79,6.79,0,0,1-5,2.17,6,6,0,0,1-4.24-1.67A6.23,6.23,0,0,1,209,92.8a6.45,6.45,0,0,1,4.51-1.7A6.13,6.13,0,0,1,218,92.94l-1.47,1.8a4.68,4.68,0,0,0-3.08-1.33,3.87,3.87,0,0,0-2.69,1,3.4,3.4,0,0,0-1.15,2.66,3.84,3.84,0,0,0,3.91,3.89,4.29,4.29,0,0,0,3.12-1.51Z"/><path class="cls-1" d="M223.3,96.69v6.39h-2.49V86.64h2.49v6.79a3.94,3.94,0,0,1,1.6-1.71,4.61,4.61,0,0,1,2.32-.62,4.41,4.41,0,0,1,3.23,1.22,4.75,4.75,0,0,1,1.23,3.53v7.23h-2.49V96.6c0-2.17-.9-3.26-2.7-3.26a3.19,3.19,0,0,0-2.24.86A3.13,3.13,0,0,0,223.3,96.69Z"/><path class="cls-1" d="M245.14,103.08h-2.26V101.5a4.84,4.84,0,0,1-3.92,1.75,4.51,4.51,0,0,1-3.06-1,3.49,3.49,0,0,1-1.2-2.78A3,3,0,0,1,236,96.82a6.22,6.22,0,0,1,3.48-.86h3.22v-.44c0-1.57-.87-2.36-2.62-2.36a6.12,6.12,0,0,0-3.41,1.2l-1.11-1.55a7.62,7.62,0,0,1,4.88-1.71,5.29,5.29,0,0,1,3.4,1.05,4,4,0,0,1,1.32,3.32Zm-2.48-4.39v-1h-2.79c-1.8,0-2.69.56-2.69,1.68a1.48,1.48,0,0,0,.67,1.32,3.18,3.18,0,0,0,1.85.46,3.31,3.31,0,0,0,2.07-.67A2.12,2.12,0,0,0,242.66,98.69Z"/><path class="cls-1" d="M251.18,96.69v6.39h-2.49V91.28h2.49v2.15a4.46,4.46,0,0,1,3.92-2.33,4.39,4.39,0,0,1,3.23,1.22,4.75,4.75,0,0,1,1.23,3.53v7.23h-2.48V96.6c0-2.17-.9-3.26-2.71-3.26a3.23,3.23,0,0,0-2.24.86A3.16,3.16,0,0,0,251.18,96.69Z"/><path class="cls-1" d="M273.78,91.28v10.29a6.06,6.06,0,0,1-1.7,4.69,6.18,6.18,0,0,1-4.36,1.56,7.66,7.66,0,0,1-4.81-1.66l1.18-1.89a5.71,5.71,0,0,0,3.49,1.32,4.11,4.11,0,0,0,2.79-.91,3.69,3.69,0,0,0,1-2.91v-1.51a4.14,4.14,0,0,1-1.58,1.66,4.37,4.37,0,0,1-2.32.63,5,5,0,0,1-3.86-1.65,6.27,6.27,0,0,1,0-8.16,5,5,0,0,1,3.85-1.64,4.56,4.56,0,0,1,3.8,1.93V91.28Zm-9.21,5.44a3.74,3.74,0,0,0,.9,2.51,3,3,0,0,0,2.42,1,3.2,3.2,0,0,0,2.46-1,3.58,3.58,0,0,0,.94-2.54,3.67,3.67,0,0,0-1-2.57,3.18,3.18,0,0,0-2.46-1.05,3,3,0,0,0-2.41,1.08A3.87,3.87,0,0,0,264.57,96.72Z"/><path class="cls-1" d="M288.84,98.26h-9.25a2.71,2.71,0,0,0,1.17,2.08,4.19,4.19,0,0,0,2.49.78,4.12,4.12,0,0,0,3.37-1.39l1.42,1.55a6.58,6.58,0,0,1-5,2,5.8,5.8,0,0,1-6-6.08,5.76,5.76,0,0,1,1.77-4.43,6,6,0,0,1,4.18-1.64,6.07,6.07,0,0,1,4.09,1.45,5,5,0,0,1,1.69,4Zm-9.25-2h6.76a2.83,2.83,0,0,0-.93-2.28,3.4,3.4,0,0,0-2.29-.8,3.94,3.94,0,0,0-2.45.83A2.69,2.69,0,0,0,279.59,96.31Z"/></svg>