<?xml version="1.0" standalone="no"?><!DOCTYPE svg PUBLIC "-//W3C//DTD SVG 1.1//EN" "http://www.w3.org/Graphics/SVG/1.1/DTD/svg11.dtd"><svg class="icon" width="14px" height="14.00px" viewBox="0 0 1024 1024" version="1.1" xmlns="http://www.w3.org/2000/svg"><path d="M512 0C229.376 0 0 229.376 0 512S229.376 1024 512 1024 1024 794.624 1024 512 794.624 0 512 0z m51.2 870.4h-102.4v-102.4h102.4v102.4z m105.961739-396.777739l-46.035478 47.059478c-36.864 37.398261-59.926261 68.118261-59.926261 144.918261h-102.4v-25.6c0-56.32 23.062261-107.52 59.926261-144.918261l63.488-64.467478c18.921739-18.432 30.185739-44.076522 30.185739-72.214261 0-56.32-46.08-102.4-102.4-102.4a102.711652 102.711652 0 0 0-102.4 102.4H307.2c0-113.129739 91.670261-204.8 204.8-204.8 113.174261 0 204.8 91.670261 204.8 204.8 0 43.186087-17.096348 84.591304-47.638261 115.222261z" fill="#8aa8ff" /></svg>