<?xml version="1.0" encoding="UTF-8"?>
<svg width="60px" height="60px" viewBox="0 0 60 60" version="1.1" xmlns="http://www.w3.org/2000/svg" xmlns:xlink="http://www.w3.org/1999/xlink">
    <!-- Generator: Sketch 50.2 (55047) - http://www.bohemiancoding.com/sketch -->
    <title>how to use</title>
    <desc>Created with Sketch.</desc>
    <defs></defs>
    <g id="Page-1" stroke="none" stroke-width="1" fill="none" fill-rule="evenodd">
        <g id="G.55.com0928标注" transform="translate(-998.000000, -1328.000000)">
            <g id="how-to-use" transform="translate(998.000000, 1327.000000)">
                <path d="M59,41 L40.5483871,41 C38.588667,41 37,38.9852814 37,36.5 C37,34.0147186 38.588667,32 40.5483871,32 L59,32" id="Rectangle-37" stroke="#FFFFFF" stroke-width="2" fill="#406FFD"></path>
                <rect id="Rectangle-38" fill="#FFFFFF" x="42" y="35" width="3" height="3"></rect>
                <path d="M6.1354723,19.0321111 L6.1354723,17.0321111 L55,17.0321111 C57.7511239,17.0321111 60,19.1771244 60,21.8473737 L60,56.1847374 C60,58.8549868 57.7511239,61 55,61 L5,61 C2.2488761,61 0,58.8549868 0,56.1847374 L0,13 L2,13 L2,56.1847374 C2,57.7287107 3.3328459,59 5,59 L55,59 C56.6671541,59 58,57.7287107 58,56.1847374 L58,21.8473737 C58,20.3034004 56.6671541,19.0321111 55,19.0321111 L6.1354723,19.0321111 Z" id="Rectangle-34" fill="#FFFFFF" fill-rule="nonzero"></path>
                <path d="M34,9 L34,7 L47,7 C50.3137085,7 53,9.6862915 53,13 L53,18 L51,18 L51,13 C51,10.790861 49.209139,9 47,9 L34,9 Z" id="Rectangle-36" fill="#FFFFFF" fill-rule="nonzero"></path>
                <path d="M45,17 L45,19 L5.4,19 C2.38719235,19 0,16.2872814 0,13 C0,9.71271858 2.38719235,7 5.4,7 L45,7 L45,9 L5.4,9 C3.55270185,9 2,10.7644339 2,13 C2,15.2355661 3.55270185,17 5.4,17 L45,17 Z" id="Rectangle-35" fill="#FFFFFF" fill-rule="nonzero"></path>
                <path d="M5.37119701,7.83433293 L40.7020658,9.61639537 C41.8161451,9.61639537 42.7192848,10.4769912 42.7192848,11.53859 C42.7192848,19.3020638 43.133368,23.601442 42.0686006,25.7845388" id="Rectangle-39" stroke="#FFFFFF" stroke-width="2" fill="#091341" transform="translate(24.084871, 16.809436) rotate(-26.000000) translate(-24.084871, -16.809436) "></path>
            </g>
        </g>
    </g>
</svg>