<?xml version="1.0" encoding="UTF-8"?>
<svg width="138px" height="25px" viewBox="0 0 138 25" version="1.1" xmlns="http://www.w3.org/2000/svg" xmlns:xlink="http://www.w3.org/1999/xlink">
    <!-- Generator: Sketch 50.2 (55047) - http://www.bohemiancoding.com/sketch -->
    <title>knownsec</title>
    <desc>Created with Sketch.</desc>
    <defs></defs>
    <g id="Page-1" stroke="none" stroke-width="1" fill="none" fill-rule="evenodd">
        <g id="G.55.com" transform="translate(-356.000000, -1782.000000)" fill="#FFFFFF" fill-rule="nonzero">
            <g id="Our-Lovely-Partners-" transform="translate(79.000000, 1548.000000)">
                <g id="Group-3" transform="translate(70.000000, 174.000000)">
                    <g id="knownsec" transform="translate(207.000000, 60.000000)">
                        <path d="M17.35,14.49 L5.7,14.49 C4.8759967,14.484739 4.20624676,13.8238599 4.19,13 L4.19,6.59 C4.19545382,5.75831955 4.86831955,5.08545382 5.7,5.08 L20.7,5.08 C20.8314131,5.07737941 20.9487409,4.99702274 20.9986771,4.87543882 C21.0486134,4.7538549 21.0216353,4.61422977 20.93,4.52 L17.35,1 C17.2884661,0.940430307 17.2056213,0.908012778 17.12,0.91 L5.7,0.91 C2.5597709,0.90998067 0.0110183477,3.44979023 0,6.59 L0,13 C3.85521638e-16,16.1480231 2.55197693,18.7 5.7,18.7 L17.35,18.7 C17.4366306,18.7000423 17.5195768,18.6649589 17.5798844,18.6027667 C17.640192,18.5405745 17.6727072,18.4565883 17.67,18.37 L17.67,14.82 C17.6727072,14.7334117 17.640192,14.6494255 17.5798844,14.5872333 C17.5195768,14.5250411 17.4366306,14.4899577 17.35,14.49 Z" id="Shape"></path>
                        <path d="M6.81,11.31 L18.45,11.31 C18.8565732,11.3019657 19.2494123,11.4571806 19.540693,11.7409443 C19.8319736,12.0247081 19.997404,12.4133557 20,12.82 L20,19.22 C19.9945029,20.0500421 19.3200603,20.7200182 18.49,20.72 L3.5,20.72 C3.36858687,20.7226206 3.25125913,20.8029773 3.20132288,20.9245612 C3.15138663,21.0461451 3.17836469,21.1857702 3.27,21.28 L6.8,24.82 C6.86526842,24.8812694 6.95053687,24.9167979 7.04,24.92 L18.45,24.92 C21.5996448,24.9200048 24.154484,22.36964 24.16,19.22 L24.16,12.82 C24.154484,9.67036003 21.5996448,7.11999517 18.45,7.12 L6.81,7.12 C6.72247856,7.12 6.63854177,7.15476776 6.57665476,7.21665476 C6.51476776,7.27854177 6.48,7.36247856 6.48,7.45 L6.48,11 C6.48261112,11.0848833 6.51885629,11.1652475 6.58075256,11.2233924 C6.64264883,11.2815374 6.72511932,11.312694 6.81,11.31 Z" id="Shape"></path>
                        <polygon id="Shape" points="69 7.46 71.41 7.46 73.87 15.65 76 7.46 78.65 7.46 81 15.65 83.3 7.46 85.6 7.46 82.3 18.11 79.59 18.11 77.32 10.17 75.32 18.11 72.59 18.11"></polygon>
                        <path d="M110.89,9.49 L104.32,9.49 C103.782107,9.44492423 103.242883,9.55972681 102.77,9.82 C102.436294,10.0407392 102.242735,10.4202654 102.26,10.82 C102.241343,11.1628761 102.399914,11.4913449 102.68,11.69 C103.065563,11.9001092 103.501379,12.000416 103.94,11.98 L107.45,11.98 C108.535922,11.8880802 109.624109,12.128737 110.57,12.67 C111.229329,13.2607115 111.570481,14.1284229 111.49,15.01 C111.576146,15.9264617 111.201401,16.8258493 110.49,17.41 C109.47081,18.0026439 108.295439,18.2712004 107.12,18.18 L101.38,18.18 L100,16.34 L106.68,16.34 C107.22655,16.3906088 107.776509,16.2903017 108.27,16.05 C108.581387,15.8517427 108.758226,15.4980637 108.73,15.13 C108.771503,14.7465878 108.612829,14.3687927 108.31,14.13 C107.854532,13.9156548 107.35245,13.8193652 106.85,13.85 L103.7,13.85 C102.584083,13.9354834 101.468443,13.6809778 100.5,13.12 C99.8059648,12.5577641 99.432194,11.6906158 99.5,10.8 C99.4228811,9.85887516 99.7933671,8.93636509 100.5,8.31 C100.915338,8.03076916 101.380422,7.83387237 101.87,7.73 C102.526729,7.58646543 103.197853,7.51935304 103.87,7.53 L109.44,7.53 L110.89,9.49 Z" id="Shape"></path>
                        <polygon id="Shape" points="35.06 12.66 40.13 7.46 36.95 7.46 31.96 12.57 31.96 7.46 29.29 7.46 29.29 15.39 31.96 18.02 31.96 12.82 36.78 18.12 40.18 18.12"></polygon>
                        <polygon id="Shape" points="50.53 15.12 44.82 7.46 41.11 7.46 41.11 15.39 44.12 18.08 43.99 10.06 49.99 18.12 53.39 18.12 53.39 10.18 50.4 7.49"></polygon>
                        <polygon id="Shape" points="95.2 14.88 90.02 7.22 86.66 7.22 86.66 15.15 89.38 17.84 89.26 9.82 94.71 17.88 97.8 17.88 97.8 9.94 95.08 7.25"></polygon>
                        <polyline id="Shape" points="115.59 18.32 124.82 18.32 124.82 15.69 115.59 15.69 115.59 14.25 123.62 14.25 123.62 11.61 115.59 11.61 115.59 9.93 124.82 9.93 122.78 7.3 115.59 7.3 112.96 7.3 112.96 9.93 112.96 9.93 112.96 11.61 112.96 11.61 112.96 14.25 112.96 14.25 112.96 15.69 112.96 15.69"></polyline>
                        <path d="M128.72,15.93 C128.167715,15.93 127.72,15.4822847 127.72,14.93 L127.72,10.84 C127.72,10.2877153 128.167715,9.84 128.72,9.84 L137.17,9.84 L135.73,7.33 L128.79,7.33 C126.934962,7.33545587 125.430969,8.83498628 125.42,10.69 L125.42,15 C125.430969,16.8550137 126.934962,18.3545441 128.79,18.36 L137.17,18.36 L137.17,15.93 L128.72,15.93 Z" id="Shape"></path>
                        <path d="M65,7.88 L57.31,7.88 C55.9679481,7.88 54.88,8.96794806 54.88,10.31 L54.88,15.75 C54.88,17.0920519 55.9679481,18.18 57.31,18.18 L65,18.18 C66.3420519,18.18 67.43,17.0920519 67.43,15.75 L67.43,10.31 C67.43,8.96794806 66.3420519,7.88 65,7.88 Z M65.54,15.31 C65.5345189,15.8197153 65.1197448,16.2300295 64.61,16.23 L57.7,16.23 C57.1902552,16.2300295 56.7754811,15.8197153 56.77,15.31 L56.77,10.76 C56.77,10.2463752 57.1863752,9.83 57.7,9.83 L64.64,9.83 C65.1536248,9.83 65.57,10.2463752 65.57,10.76 L65.54,15.31 Z" id="Shape"></path>
                    </g>
                </g>
            </g>
        </g>
    </g>
</svg>