<?xml version="1.0" encoding="UTF-8"?>
<svg width="54px" height="58px" viewBox="0 0 54 58" version="1.1" xmlns="http://www.w3.org/2000/svg" xmlns:xlink="http://www.w3.org/1999/xlink">
    <!-- Generator: Sketch 50.2 (55047) - http://www.bohemiancoding.com/sketch -->
    <title>mining</title>
    <desc>Created with Sketch.</desc>
    <defs></defs>
    <g id="Page-1" stroke="none" stroke-width="1" fill="none" fill-rule="evenodd">
        <g id="G.55.com0928标注" transform="translate(-183.000000, -1326.000000)">
            <g id="mining" transform="translate(208.500000, 1356.500000) rotate(41.000000) translate(-208.500000, -1356.500000) translate(190.000000, 1325.000000)">
                <path d="M18.5,64 C10.8237598,64 0,49.8759959 0,37.187363 C0,36.4634416 0.0458204088,35.4142062 0.137093085,34.0319578 L0.198070247,33.1085097 L1.12346871,33.097912 C7.07776767,33.0297226 12.870122,32.9971498 18.5005409,33.0001953 C24.0841685,33.0032155 29.8692702,33.0032155 35.8558447,33.0001953 L36.7904676,32.9997238 L36.8540336,33.9321827 C36.9512137,35.3577312 37,36.4401482 37,37.187363 C37,49.8759959 26.1762402,64 18.5,64 Z M2,37.187363 C2,43.2542237 4.4024063,49.4945227 8.32503013,54.6131835 C11.7496303,59.0819696 15.8902554,62 18.5,62 C21.1097446,62 25.2503697,59.0819696 28.6749699,54.6131835 C32.5975937,49.4945227 35,43.2542237 35,37.187363 C35,36.659977 34.9727671,35.9299044 34.9181281,35.0006446 C29.2643196,35.0032073 23.7914303,35.0030575 18.4994591,35.000195 C13.1704857,34.9973125 7.69592457,35.0263844 2.07578345,35.0874124 C2.02520816,35.9790377 2,36.6801293 2,37.187363 Z" id="Oval-7" fill="#FFFFFF" fill-rule="nonzero"></path>
                <path d="M16,9 L16,28 L20,28 L20,9 L16,9 Z M16,7 L20,7 C21.1045695,7 22,7.8954305 22,9 L22,28 C22,29.1045695 21.1045695,30 20,30 L16,30 C14.8954305,30 14,29.1045695 14,28 L14,9 C14,7.8954305 14.8954305,7 16,7 Z" id="Rectangle-22" fill="#FFFFFF" fill-rule="nonzero"></path>
                <path d="M25.9999623,1 L11.0000713,1 L15.8728892,7 L21.2457642,7 L25.9999623,1 Z M11.0000713,-1 L25.9999623,-1 C27.1045318,-1 27.9999623,-0.1045695 27.9999623,1 C27.9999623,1.45093861 27.847571,1.88864386 27.5675201,2.24208001 L22.2127716,9 L14.9206794,9 L9.44756702,2.26084511 C8.7512215,1.40342066 8.88180176,0.143841229 9.73922621,-0.552504299 C10.0956743,-0.841988762 10.5408802,-1 11.0000713,-1 Z" id="Rectangle-28" fill="#FFFFFF" fill-rule="nonzero"></path>
                <path d="M15.3997987,3 L21.6001973,3 C21.8211112,3 22.0001973,3.1790861 22.0001973,3.4 C22.0001973,3.49593455 21.9657183,3.58867387 21.9030471,3.66130826 L19.9449845,5.93065413 C19.9069925,5.97468589 19.8517162,6 19.7935596,6 L17.2670602,6 C17.2099587,6 17.1555802,5.97559267 17.1176281,5.93292869 L15.1009345,3.66585739 C14.9541055,3.50079921 14.9688832,3.24796472 15.1339413,3.10113574 C15.207176,3.03598922 15.3017815,3 15.3997987,3 Z" id="Rectangle-28" fill="#406FFD"></path>
                <rect id="Rectangle-21" fill="#FFFFFF" x="0" y="26" width="37" height="5" rx="1"></rect>
                <path d="M18,39 C18,38.4477153 18.4477153,38 19,38 C19.5522847,38 20,38.4477153 20,39 L20,46 C20,46.5522847 19.5522847,47 19,47 C18.4477153,47 18,46.5522847 18,46 L18,39 Z" id="Path-4" fill="#FFFFFF" fill-rule="nonzero"></path>
            </g>
        </g>
    </g>
</svg>