<?xml version="1.0" encoding="UTF-8"?>
<svg width="62px" height="62px" viewBox="0 0 62 62" version="1.1" xmlns="http://www.w3.org/2000/svg" xmlns:xlink="http://www.w3.org/1999/xlink">
    <!-- Generator: Sketch 50.2 (55047) - http://www.bohemiancoding.com/sketch -->
    <title>plan</title>
    <desc>Created with Sketch.</desc>
    <defs></defs>
    <g id="Page-1" stroke="none" stroke-width="1" fill="none" fill-rule="evenodd">
        <g id="G.55.com0928标注" transform="translate(-601.000000, -1326.000000)">
            <g id="plan" transform="translate(601.000000, 1326.000000)">
                <path d="M21,20 L21,24 L41,24 L41,20 L21,20 Z M20,19 L42,19 L42,25 L20,25 L20,19 Z" id="Rectangle-31" fill="#FFFFFF" fill-rule="nonzero"></path>
                <rect id="Rectangle-40" fill="#406FFD" x="23" y="21" width="4" height="2"></rect>
                <rect id="Rectangle-40-Copy" fill="#406FFD" x="23" y="30" width="4" height="2"></rect>
                <rect id="Rectangle-40-Copy-2" fill="#406FFD" x="23" y="39" width="4" height="2"></rect>
                <path d="M21,29 L21,33 L41,33 L41,29 L21,29 Z M20,28 L42,28 L42,34 L20,34 L20,28 Z" id="Rectangle-31-Copy" fill="#FFFFFF" fill-rule="nonzero"></path>
                <path d="M21,38 L21,42 L41,42 L41,38 L21,38 Z M20,37 L42,37 L42,43 L20,43 L20,37 Z" id="Rectangle-31-Copy-2" fill="#FFFFFF" fill-rule="nonzero"></path>
                <path d="M31,0 L31,2 C14.9837423,2 2,14.9837423 2,31 L0,31 C0,13.8791728 13.8791728,0 31,0 Z M31,62 L31,60 C47.0162577,60 60,47.0162577 60,31 L62,31 C62,48.1208272 48.1208272,62 31,62 Z" id="Oval-9" fill="#FFFFFF" fill-rule="nonzero"></path>
                <path d="M31,54.5 L31,53.5 C31.9856673,53.5 32.9633259,53.4366514 33.928964,53.3111487 L34.0578487,54.3028083 C33.0495013,54.4338619 32.0287917,54.5 31,54.5 Z M37.0779953,53.7062969 L36.8200193,52.7401456 C37.7677549,52.4870869 38.6958522,52.1723577 39.5993364,51.7983773 L39.9817972,52.722349 C39.0378649,53.1130722 38.0681869,53.4419018 37.0779953,53.7062969 Z M42.7427911,51.3601906 L42.2423877,50.4943983 C43.0902414,50.0043629 43.9053101,49.4593521 44.6823914,48.8632287 L45.2910551,49.656657 C44.4795418,50.2791944 43.6283139,50.8483836 42.7427911,51.3601906 Z M47.6535627,47.580376 L46.9449099,46.8748185 C47.6358408,46.1808566 48.2811531,45.4426809 48.8763645,44.6652512 L49.6703741,45.2731564 C49.0488411,46.0849659 48.3750144,46.8557592 47.6535627,47.580376 Z M51.344641,42.7696539 L50.479511,42.2681062 C50.9704716,41.421238 51.4057352,40.542948 51.7821471,39.6384415 L52.7053927,40.0226517 C52.3121627,40.9675715 51.8574767,41.8850529 51.344641,42.7696539 Z M53.7109734,37.0604538 L52.7446216,36.8032298 C52.9956922,35.8599958 53.1853368,34.8987039 53.3118052,33.9239083 L54.303494,34.0525684 C54.1713913,35.0707918 53.9732745,36.0750285 53.7109734,37.0604538 Z M54.4997878,30.8990949 L53.4997967,30.9033005 C53.4956504,29.9174062 53.4280974,28.9396964 53.2983501,27.9742059 L54.2894409,27.8410183 C54.4249303,28.8492365 54.4954599,29.8700301 54.4997878,30.8990949 Z M53.6797461,24.8234344 L52.714733,25.0856363 C52.4575581,24.1391248 52.1387923,23.2124599 51.7608779,22.3106266 L52.6831721,21.924138 C53.0780038,22.8663417 53.4110502,23.8345209 53.6797461,24.8234344 Z M51.30897,19.16903 L50.4453593,19.6731893 C49.9516589,18.8274943 49.4031333,18.0148031 48.8036677,17.2403135 L49.5944602,16.6282292 C50.2204836,17.4370306 50.7933392,18.285769 51.30897,19.16903 Z M47.5068694,14.2735716 L46.8044208,14.985306 C46.1074375,14.2974161 45.3664443,13.6553427 44.586413,13.0635497 L45.1908287,12.2668806 C46.0053588,12.8848471 46.7790965,13.5552938 47.5068694,14.2735716 Z M42.6813064,10.6043968 L42.1835222,11.4716977 C41.3346485,10.9844898 40.4545834,10.5531022 39.5485265,10.180664 L39.9287141,9.25575461 C40.8752601,9.64483604 41.7946032,10.0954768 42.6813064,10.6043968 Z M36.9616832,8.26296717 L36.7086932,9.23043608 C35.764536,8.98354207 34.8025349,8.79810828 33.8272262,8.67586418 L33.9515921,7.68362774 C34.9703351,7.81131586 35.975301,8.00503149 36.9616832,8.26296717 Z M30.7971024,7.50085806 L30.8055629,8.50082227 C29.8202554,8.50915877 28.843297,8.58085629 27.8787362,8.71468782 L27.7413041,7.72417664 C28.7485758,7.58441901 29.7686145,7.5095599 30.7971024,7.50085806 Z M24.7250353,8.34722102 L24.9914561,9.31107783 C24.046202,9.57235667 23.1210025,9.89514325 22.2208521,10.2769724 L21.8303481,9.3563712 C22.7707894,8.95745125 23.7374353,8.62020474 24.7250353,8.34722102 Z M19.0810946,10.7426214 L19.5889986,11.604035 C18.7455041,12.1013736 17.9352297,12.6533826 17.1633682,13.2561548 L16.5478792,12.4680093 C17.3539309,11.8385368 18.2001389,11.2620477 19.0810946,10.7426214 Z M14.2010279,14.5669557 L14.9158305,15.266282 C14.2307947,15.9664779 13.5917999,16.7105045 13.0032946,17.4933742 L12.2039582,16.8924904 C12.8184945,16.0749926 13.4857289,15.2980845 14.2010279,14.5669557 Z M10.553807,19.4072827 L11.4232635,19.9012923 C10.9397688,20.7522425 10.5122278,21.6341599 10.1437452,22.5418493 L9.21718391,22.1657056 C9.6021356,21.2174476 10.0487616,20.2961622 10.553807,19.4072827 Z M8.2373262,25.1372565 L9.20589418,25.3860055 C8.96314684,26.3312044 8.78191037,27.2940387 8.66389408,28.2699881 L7.67112624,28.1499381 C7.79439619,27.1305428 7.98372475,26.1247187 8.2373262,25.1372565 Z M7.50190689,31.3024204 L8.50182731,31.2898043 C8.51426172,32.2753242 8.59011445,33.2523195 8.72814069,34.2167187 L7.73822786,34.3583965 C7.59408644,33.3512701 7.51488667,32.3311643 7.50190689,31.3024204 Z M8.37460332,37.3731916 L9.33728603,37.102559 C9.60265619,38.0465224 9.92944745,38.9702237 10.3151718,39.8686593 L9.39627893,40.2631665 C8.99329128,39.3245209 8.65186164,38.359443 8.37460332,37.3731916 Z M10.7945822,43.0065965 L11.6537836,42.4949589 C12.154733,43.3362113 12.7101936,44.1440296 13.3162367,44.9132272 L12.5307493,45.5321049 C11.8978651,44.7288403 11.3177756,43.8852036 10.7945822,43.0065965 Z M14.6031987,47.8343545 L15.3009922,47.1180555 C16.0026597,47.8015953 16.7480581,48.4389973 17.5321939,49.0258221 L16.9330288,49.8264475 C16.1142067,49.2136646 15.3358649,48.5480922 14.6031987,47.8343545 Z M19.4961122,51.4964091 L19.9863363,50.6248127 C20.8394294,51.1046297 21.7232713,51.52835 22.63267,51.8928924 L22.2605904,52.8210933 C21.3105405,52.4402553 20.3872375,51.9976171 19.4961122,51.4964091 Z M25.2385684,53.7884511 L25.4829752,52.8187783 C26.4291748,53.0572687 27.3927954,53.234204 28.3693339,53.3478956 L28.253692,54.3411866 C27.2336995,54.222436 26.227067,54.037603 25.2385684,53.7884511 Z" id="Oval-9" fill="#FFFFFF" fill-rule="nonzero"></path>
                <path d="M2.80168103,41.2637586 C5.97760949,49.9870966 13.0861102,56.8210095 21.9829035,59.6212178 M59.5814028,21.8573742 C56.7903505,13.1247897 50.1080896,6.13141431 41.5739353,2.91656293" id="Oval-10" stroke="#FFFFFF"></path>
            </g>
        </g>
    </g>
</svg>