<svg width="930px" height="355px" id="图层_1" data-name="图层 1" xmlns="http://www.w3.org/2000/svg" viewBox="0 0 930.68 353.53"><defs><style>.cls-1{fill:#fff;}.cls-2{fill:none;}</style></defs><title>realtime</title><path class="cls-1" d="M282.77,179.07H248.39a1,1,0,0,1,0-2h34.38a1,1,0,0,1,0,2Z"/><path class="cls-1" d="M288.89,178.8l-6.48,3.79a1,1,0,0,1-1.4-.21,1.08,1.08,0,0,1-.19-.65v-7.46a1.07,1.07,0,0,1,1.14-1,1,1,0,0,1,.45.13l6.48,3.79a.85.85,0,0,1,.51,1.09A.83.83,0,0,1,288.89,178.8Z"/><path class="cls-1" d="M211.62,213.64H3.36A3.36,3.36,0,0,1,0,210.28H0V145.8a3.36,3.36,0,0,1,3.35-3.37H211.62a3.37,3.37,0,0,1,3.38,3.36h0v64.47a3.37,3.37,0,0,1-3.37,3.37ZM3.36,143.78a2,2,0,0,0-2,2v64.47a2,2,0,0,0,2,2H211.62a2,2,0,0,0,2-2V145.8a2,2,0,0,0-2-2Z"/><path class="cls-1" d="M54.6,171.42a4.12,4.12,0,0,0-1.54-3,5.77,5.77,0,0,0-3.63-1,5.84,5.84,0,0,0-3.57.91A3.06,3.06,0,0,0,44.64,171a2.06,2.06,0,0,0,.81,1.78,10.25,10.25,0,0,0,3.26,1.16l3.59.85a8.1,8.1,0,0,1,4.12,2,5.38,5.38,0,0,1,1.24,3.77A5.29,5.29,0,0,1,55.53,185a9.07,9.07,0,0,1-5.75,1.64,9.5,9.5,0,0,1-6.3-1.89,6.3,6.3,0,0,1-2.22-5.1v-.15h2.57A4.31,4.31,0,0,0,45.45,183a6.89,6.89,0,0,0,4.33,1.22,7.08,7.08,0,0,0,3.9-.89A2.89,2.89,0,0,0,55,180.66a2.65,2.65,0,0,0-.88-2.2,9.62,9.62,0,0,0-3.5-1.33L47,176.28a8.24,8.24,0,0,1-3.88-1.79A4.28,4.28,0,0,1,42,171.31a5.87,5.87,0,0,1,2-4.69,8,8,0,0,1,5.42-1.73A8.27,8.27,0,0,1,55,166.63a6.34,6.34,0,0,1,2.2,4.79Z"/><path class="cls-1" d="M61.61,165.45h2.78V186H61.61Z"/><path class="cls-1" d="M86.51,178.46a9.55,9.55,0,0,1-2.92,6,8.64,8.64,0,0,1-6,2.16,8.51,8.51,0,0,1-6.79-2.93,11.72,11.72,0,0,1-2.53-7.91,11.47,11.47,0,0,1,2.63-7.92,10,10,0,0,1,12.78-1.16,7.42,7.42,0,0,1,2.69,5H83.64a4.92,4.92,0,0,0-1.9-3.16,6.35,6.35,0,0,0-3.87-1.11,6,6,0,0,0-4.93,2.27,9.42,9.42,0,0,0-1.84,6.13q0,4.09,1.7,6.23a5.94,5.94,0,0,0,4.94,2.15,5.62,5.62,0,0,0,4-1.48,7.4,7.4,0,0,0,2.1-4.2Z"/><path class="cls-1" d="M91.58,183.61a12.55,12.55,0,0,1,0-15.72,10.3,10.3,0,0,1,14.53,0,12.55,12.55,0,0,1,0,15.72A10.32,10.32,0,0,1,91.58,183.61ZM104,181.83a10.32,10.32,0,0,0,0-12.16,7,7,0,0,0-9.89-.49c-.17.15-.33.32-.49.49a10.36,10.36,0,0,0,0,12.16,7,7,0,0,0,9.89.49C103.68,182.17,103.84,182,104,181.83Z"/><path class="cls-1" d="M125.34,167.92h-7v-2.47h16.71v2.47h-7V186h-2.78Z"/><path class="cls-1" d="M143.46,186.45a6.37,6.37,0,0,1-5-2,8,8,0,0,1-1.82-5.57,8.87,8.87,0,0,1,1.93-6,6.47,6.47,0,0,1,5.17-2.23,5.85,5.85,0,0,1,4.75,2.18,8.79,8.79,0,0,1,1.81,5.74v.9h-11a6.46,6.46,0,0,0,1,3.42,3.91,3.91,0,0,0,3.36,1.43,4,4,0,0,0,2.52-.82,3.31,3.31,0,0,0,1.32-2.07H150a6.31,6.31,0,0,1-2.24,3.76A6.88,6.88,0,0,1,143.46,186.45Zm4.21-9a5.62,5.62,0,0,0-1-3.25,3.57,3.57,0,0,0-3-1.29,3.89,3.89,0,0,0-3.18,1.49,5.67,5.67,0,0,0-1.13,3Z"/><path class="cls-1" d="M161.89,175.4a2.6,2.6,0,0,0-1-1.94,4,4,0,0,0-2.43-.68,4.43,4.43,0,0,0-2.39.54,1.83,1.83,0,0,0-.82,1.6,1.36,1.36,0,0,0,.58,1.2,7.16,7.16,0,0,0,2.28.82l2.61.61a6.63,6.63,0,0,1,3.12,1.47,3.5,3.5,0,0,1,.93,2.6,4.28,4.28,0,0,1-1.6,3.52,6.68,6.68,0,0,1-4.34,1.31,7.4,7.4,0,0,1-4.72-1.26,5.18,5.18,0,0,1-1.72-3.94h2.42a3.14,3.14,0,0,0,1.13,2.31,4.74,4.74,0,0,0,2.89.72,4.32,4.32,0,0,0,2.57-.65,2.17,2.17,0,0,0,.88-1.87,1.36,1.36,0,0,0-.57-1.19,7.33,7.33,0,0,0-2.31-.82l-2.61-.61a6.15,6.15,0,0,1-3-1.42,3.39,3.39,0,0,1-.9-2.52,4.12,4.12,0,0,1,1.5-3.35,6.24,6.24,0,0,1,4.09-1.24,6.35,6.35,0,0,1,4.16,1.27,4.6,4.6,0,0,1,1.65,3.52Z"/><path class="cls-1" d="M173.16,186a13.16,13.16,0,0,1-1.88.19,3.09,3.09,0,0,1-2.33-.72,3.63,3.63,0,0,1-.68-2.51v-9.88h-2.08V171h2.08v-4.2h2.52V171h2.37v2.06h-2.37V183a1,1,0,0,0,.4.8,1.77,1.77,0,0,0,1.07.29h.9Z"/><path class="cls-1" d="M927.64,212.21H690.23a3,3,0,0,1-3-3v-64.5a3,3,0,0,1,3-3H927.64a3,3,0,0,1,3,3v64.46a3,3,0,0,1-3,3ZM690.23,142.35a2.36,2.36,0,0,0-2.36,2.36v64.46a2.37,2.37,0,0,0,2.36,2.37H927.64a2.37,2.37,0,0,0,2.37-2.37V144.71a2.37,2.37,0,0,0-2.37-2.36Z"/><path class="cls-1" d="M701.7,165.76h8a5.64,5.64,0,0,1,3.77,1.2,4,4,0,0,1,1.43,3.17,4.21,4.21,0,0,1-1.69,3.56,4.75,4.75,0,0,1-.83.51,5.83,5.83,0,0,1,1.62.8,4.25,4.25,0,0,1,1.79,3.62,4.88,4.88,0,0,1-1.75,4,7.48,7.48,0,0,1-4.86,1.44H701.7Zm2.47,7.79h4.42a4.72,4.72,0,0,0,2.95-.73,2.68,2.68,0,0,0,.94-2.29,2.33,2.33,0,0,0-.86-2,4.49,4.49,0,0,0-2.7-.65h-4.75Zm0,8.39h5.05a4.87,4.87,0,0,0,3.12-.82,3.19,3.19,0,0,0,1-2.59,2.54,2.54,0,0,0-1-2.26,5.75,5.75,0,0,0-3.25-.71h-4.87Z"/><path class="cls-1" d="M718.78,170.74h2.13V173a7.85,7.85,0,0,1,.61-1,3.77,3.77,0,0,1,3.12-1.7,2,2,0,0,1,.64.11v2.29h-.46a3.57,3.57,0,0,0-2.81,1.09,4.48,4.48,0,0,0-1,3.11V184h-2.24Z"/><path class="cls-1" d="M730.47,184.42a4.42,4.42,0,0,1-3.1-1,3.63,3.63,0,0,1-1.15-2.82,3.82,3.82,0,0,1,1.08-2.85,5.25,5.25,0,0,1,3.14-1.32l3-.39a4.21,4.21,0,0,0,.71-.12,1.26,1.26,0,0,0,.68-.45,1.49,1.49,0,0,0,.23-.85v-.11a2,2,0,0,0-.81-1.67,3.65,3.65,0,0,0-2.25-.61,3.34,3.34,0,0,0-2.16.64,2.83,2.83,0,0,0-.94,1.91h-2.07a4.43,4.43,0,0,1,1.55-3.29,6.26,6.26,0,0,1,4-1.1,5.64,5.64,0,0,1,3.69,1,3.73,3.73,0,0,1,1.27,3.07v7.32a.72.72,0,0,0,.21.54.76.76,0,0,0,.55.21h.3l.41-.07v1.62a5.31,5.31,0,0,1-.68.2,3.08,3.08,0,0,1-.61.07,2.2,2.2,0,0,1-1.84-.7,2.93,2.93,0,0,1-.54-1.3,6.37,6.37,0,0,1-.57.59A5.88,5.88,0,0,1,730.47,184.42Zm4.64-5.64v-1.44a5.1,5.1,0,0,1-1.38.41l-2.05.3a5.5,5.5,0,0,0-2.37.75,1.66,1.66,0,0,0-.75,1.44,2.12,2.12,0,0,0,2.34,2.33,4.7,4.7,0,0,0,3-1,3.24,3.24,0,0,0,1.11-1.52,3,3,0,0,0,.08-.51C735.1,179.34,735.11,179.07,735.11,178.78Z"/><path class="cls-1" d="M741.19,165.76h2.29v2.54h-2.29Zm0,5h2.24v13.32h-2.24Z"/><path class="cls-1" d="M746.8,170.74h2.13v2l.5-.66a4.52,4.52,0,0,1,8.24,2.89v9.13h-2.24v-8.37a3.79,3.79,0,0,0-.68-2.53,2.74,2.74,0,0,0-2.19-.78,3,3,0,0,0-2.57,1.23,5.26,5.26,0,0,0-1,3.32v7.13H746.8Z"/><path class="cls-1" d="M769,182.48a8.46,8.46,0,0,1,0-10.2,6.15,6.15,0,0,1,8.69-.31l.31.31a8.46,8.46,0,0,1,0,10.2,6.15,6.15,0,0,1-8.69.31Zm7.29-1.37a7.13,7.13,0,0,0,0-7.45,3.54,3.54,0,0,0-5-.66,3.44,3.44,0,0,0-.66.66,7.18,7.18,0,0,0,0,7.45,3.55,3.55,0,0,0,5.62,0Z"/><path class="cls-1" d="M785,172.59v11.47h-2.2V172.59H781v-1.85h1.85v-2.27a2.78,2.78,0,0,1,.87-2.23,3.92,3.92,0,0,1,2.61-.74h1v2h-.89a1.2,1.2,0,0,0-1,.42,1.8,1.8,0,0,0-.35,1.19v1.62h2.23v1.85Z"/><path class="cls-1" d="M796.65,165.76h8.05a5.64,5.64,0,0,1,3.77,1.2,4,4,0,0,1,1.43,3.17,4.21,4.21,0,0,1-1.69,3.56,4.48,4.48,0,0,1-.84.51,5.89,5.89,0,0,1,1.63.8,4.25,4.25,0,0,1,1.79,3.62,4.88,4.88,0,0,1-1.75,4,7.48,7.48,0,0,1-4.86,1.44h-7.49Zm2.48,7.79h4.42a4.74,4.74,0,0,0,3-.73,2.68,2.68,0,0,0,.94-2.29,2.33,2.33,0,0,0-.86-2,4.56,4.56,0,0,0-2.7-.65h-4.75Zm0,8.39h5a4.83,4.83,0,0,0,3.11-.82,3.19,3.19,0,0,0,1-2.59,2.54,2.54,0,0,0-1-2.26,5.75,5.75,0,0,0-3.25-.71h-4.87Z"/><path class="cls-1" d="M813.48,165.76h2.24v18.3h-2.24Z"/><path class="cls-1" d="M820,182.48a8.46,8.46,0,0,1,0-10.2,6.15,6.15,0,0,1,8.69-.31l.31.31a8.46,8.46,0,0,1,0,10.2,6.15,6.15,0,0,1-8.69.31Zm7.29-1.37a7.13,7.13,0,0,0,0-7.45,3.54,3.54,0,0,0-5-.66,3.44,3.44,0,0,0-.66.66,7.18,7.18,0,0,0,0,7.45,3.55,3.55,0,0,0,5.62,0Z"/><path class="cls-1" d="M843.78,179.27A6.23,6.23,0,0,1,842,183.1a5.42,5.42,0,0,1-3.81,1.32,5.19,5.19,0,0,1-4.23-1.9,7.78,7.78,0,0,1-1.59-5.13,7.64,7.64,0,0,1,1.64-5.14,6.15,6.15,0,0,1,8.24-.6,5,5,0,0,1,1.53,3.62h-2.16a3,3,0,0,0-3.29-3,3.07,3.07,0,0,0-2.66,1.36,6.47,6.47,0,0,0-1,3.76,6.73,6.73,0,0,0,.89,3.82,3.06,3.06,0,0,0,2.67,1.28,3,3,0,0,0,2.18-.84,4.22,4.22,0,0,0,1.16-2.38Z"/><path class="cls-1" d="M846.07,165.76h2.24v10.55l5.63-5.57h2.85l-5.07,4.94,5.41,8.38h-2.92l-4.14-6.77L848.31,179v5.06h-2.24Z"/><path class="cls-1" d="M869.28,179.27a6.23,6.23,0,0,1-1.78,3.83,5.42,5.42,0,0,1-3.81,1.32,5.25,5.25,0,0,1-4.24-1.9,7.77,7.77,0,0,1-1.58-5.13,7.64,7.64,0,0,1,1.64-5.14,6.15,6.15,0,0,1,8.24-.6,5,5,0,0,1,1.53,3.62h-2.16a3,3,0,0,0-3-3h-.29a3.07,3.07,0,0,0-2.66,1.36,6.47,6.47,0,0,0-1,3.76,6.64,6.64,0,0,0,.9,3.82,3.34,3.34,0,0,0,4.7.56l.15-.12a4.28,4.28,0,0,0,1.16-2.38Z"/><path class="cls-1" d="M871.52,165.76h2.24v6.78l.39-.5a4.53,4.53,0,0,1,8.24,2.89v9.13h-2.24v-8.57a3.55,3.55,0,0,0-.64-2.38,2.58,2.58,0,0,0-2.07-.73,3.27,3.27,0,0,0-2.68,1.23,5.08,5.08,0,0,0-1,3.32v7.13h-2.24Z"/><path class="cls-1" d="M889.21,184.42a4.42,4.42,0,0,1-3.1-1A3.63,3.63,0,0,1,885,180.6a3.8,3.8,0,0,1,1-2.9,5.25,5.25,0,0,1,3.15-1.32l3-.39a4.21,4.21,0,0,0,.71-.12,1.2,1.2,0,0,0,.67-.45,1.49,1.49,0,0,0,.23-.85v-.11a2,2,0,0,0-.8-1.67,3.7,3.7,0,0,0-2.26-.61,3.34,3.34,0,0,0-2.16.64,2.83,2.83,0,0,0-.94,1.91h-2.07a4.43,4.43,0,0,1,1.55-3.29,6.26,6.26,0,0,1,4-1.1,5.73,5.73,0,0,1,3.7,1,3.81,3.81,0,0,1,1.27,3.07v7.32a.71.71,0,0,0,.2.54.76.76,0,0,0,.55.21h.3a2.7,2.7,0,0,0,.41-.07V184a5.31,5.31,0,0,1-.68.2,3.08,3.08,0,0,1-.61.07,2.2,2.2,0,0,1-1.84-.7,2.93,2.93,0,0,1-.54-1.3,4.53,4.53,0,0,1-.57.59A5.9,5.9,0,0,1,889.21,184.42Zm4.64-5.64v-1.44a5.1,5.1,0,0,1-1.38.41l-2.05.3a5.5,5.5,0,0,0-2.37.75,1.66,1.66,0,0,0-.74,1.44,2.12,2.12,0,0,0,2.34,2.33,4.64,4.64,0,0,0,3-1,3.24,3.24,0,0,0,1.11-1.52,2.26,2.26,0,0,0,.08-.51c0-.2,0-.47,0-.76Z"/><path class="cls-1" d="M899.93,165.76h2.29v2.54h-2.29Zm0,5h2.25v13.32H900Z"/><path class="cls-1" d="M905.55,170.74h2.12v2l.5-.66a4.52,4.52,0,0,1,8.24,2.89v9.13h-2.24v-8.37a3.79,3.79,0,0,0-.68-2.53,2.74,2.74,0,0,0-2.19-.78,3,3,0,0,0-2.57,1.23,5.3,5.3,0,0,0-.94,3.32v7.13h-2.24Z"/><path class="cls-1" d="M557.93,290.72H326.24a3.38,3.38,0,0,1-3.38-3.38h0V68.73a3.38,3.38,0,0,1,3.38-3.38H557.93a3.38,3.38,0,0,1,3.38,3.38h0V287.34a3.38,3.38,0,0,1-3.38,3.38ZM326.24,66.7a2,2,0,0,0-2,2V287.34a2,2,0,0,0,2,2H557.93a2,2,0,0,0,2-2V68.73a2,2,0,0,0-2-2Z"/><path class="cls-1" d="M339.33,89h4.79a3.81,3.81,0,0,1,2.49.71,2.55,2.55,0,0,1,.85,2.08,2.62,2.62,0,0,1-.89,2.12,4.07,4.07,0,0,1-.48.33l.23.11a2,2,0,0,1,1,1.82l.05,1.88a1.49,1.49,0,0,0,.12.66.87.87,0,0,0,.41.35v.23h-1.72a5,5,0,0,1-.11-.66c0-.36-.06-.75-.08-1.19v-.81a1.91,1.91,0,0,0-.47-1.37,2.15,2.15,0,0,0-1.45-.41h-3.3V99.3h-1.39Zm1.39,4.65h3.44a2,2,0,0,0,1.42-.43,1.77,1.77,0,0,0,.45-1.34,1.65,1.65,0,0,0-.47-1.3,2.23,2.23,0,0,0-1.5-.41h-3.34Z"/><path class="cls-1" d="M352.41,99.51a3.22,3.22,0,0,1-2.5-1,4,4,0,0,1-.91-2.79,4.46,4.46,0,0,1,1-3,3.25,3.25,0,0,1,2.59-1.12A2.9,2.9,0,0,1,355,92.7a4.38,4.38,0,0,1,.91,2.87V96H350.4a3.23,3.23,0,0,0,.51,1.71,2.26,2.26,0,0,0,2.94.3,1.64,1.64,0,0,0,.66-1h1.24a3.19,3.19,0,0,1-1.12,1.88A3.43,3.43,0,0,1,352.41,99.51Zm2.1-4.53a2.77,2.77,0,0,0-.52-1.62,1.8,1.8,0,0,0-1.5-.65,2,2,0,0,0-1.59.74,2.83,2.83,0,0,0-.56,1.53Z"/><path class="cls-1" d="M359.31,99.51a2.53,2.53,0,0,1-1.75-.59,2.06,2.06,0,0,1-.64-1.59,2.17,2.17,0,0,1,.6-1.61,3.08,3.08,0,0,1,1.77-.74l1.72-.22a1.76,1.76,0,0,0,.4-.07.59.59,0,0,0,.37-.25.72.72,0,0,0,.14-.47V93.9a1.1,1.1,0,0,0-.46-.94,2,2,0,0,0-1.26-.34A1.85,1.85,0,0,0,359,93a1.6,1.6,0,0,0-.53,1.08h-1.16a2.51,2.51,0,0,1,.87-1.86,3.51,3.51,0,0,1,2.22-.62,3.16,3.16,0,0,1,2.08.6,2.1,2.1,0,0,1,.72,1.72V98a.51.51,0,0,0,.11.31.52.52,0,0,0,.32.11h.16l.24,0v.92l-.39.11h-.34a1.3,1.3,0,0,1-1-.39,1.66,1.66,0,0,1-.3-.74,2.58,2.58,0,0,1-.32.34A3.35,3.35,0,0,1,359.31,99.51Zm2.61-3.18v-.81a2.69,2.69,0,0,1-.78.23l-1.16.17a3.1,3.1,0,0,0-1.33.42,1,1,0,0,0-.42.81,1.2,1.2,0,0,0,1.08,1.31,1,1,0,0,0,.24,0,2.6,2.6,0,0,0,1.68-.54,1.76,1.76,0,0,0,.62-.85,1.41,1.41,0,0,0,0-.29,1.07,1.07,0,0,0,.07-.45Z"/><path class="cls-1" d="M365.34,89h1.26V99.3h-1.26Z"/><path class="cls-1" d="M368.19,94.69h3.52V96h-3.52Z"/><path class="cls-1" d="M376,99.3a7.47,7.47,0,0,1-.94.09A1.53,1.53,0,0,1,373.9,99a1.81,1.81,0,0,1-.34-1.25V92.84h-1v-1h1v-2.1h1.26v2.1H376v1h-1.18v4.94a.46.46,0,0,0,.2.39.84.84,0,0,0,.53.15H376Z"/><path class="cls-1" d="M377.28,89h1.29v1.43h-1.29Zm0,2.8h1.26v7.5H377.3Z"/><path class="cls-1" d="M380.44,91.81h1.2v1.11l.26-.33a2.58,2.58,0,0,1,2-1,2.17,2.17,0,0,1,1.61.6,2.11,2.11,0,0,1,.41.61l.2-.26a2.48,2.48,0,0,1,1.94-1,2.44,2.44,0,0,1,1.82.65,2.41,2.41,0,0,1,.64,1.81v5.3h-1.26V94.47a2.06,2.06,0,0,0-.35-1.3,1.25,1.25,0,0,0-1-.44,1.55,1.55,0,0,0-1.3.64,2.77,2.77,0,0,0-.49,1.72V99.3h-1.26V94.17a1.53,1.53,0,0,0-.32-1.07,1.17,1.17,0,0,0-.93-.37,1.61,1.61,0,0,0-1.37.72,3,3,0,0,0-.54,1.84v4h-1.26Z"/><path class="cls-1" d="M395.44,99.51a3.22,3.22,0,0,1-2.5-1,4,4,0,0,1-.91-2.79,4.41,4.41,0,0,1,1-3,3.23,3.23,0,0,1,2.58-1.12A3,3,0,0,1,398,92.7a4.37,4.37,0,0,1,.9,2.87V96h-5.48a3.23,3.23,0,0,0,.51,1.71,2.26,2.26,0,0,0,2.94.3,1.64,1.64,0,0,0,.66-1h1.25a3.19,3.19,0,0,1-1.12,1.88A3.46,3.46,0,0,1,395.44,99.51ZM397.55,95a2.77,2.77,0,0,0-.52-1.62,1.8,1.8,0,0,0-1.5-.65,2,2,0,0,0-1.59.74,3,3,0,0,0-.57,1.53Z"/><path class="cls-1" d="M404.72,89h1.4V99.3h-1.4Z"/><path class="cls-1" d="M408.34,91.81h1.19v1.11l.28-.38a2.55,2.55,0,0,1,4.64,1.63V99.3h-1.26V94.6a2.2,2.2,0,0,0-.38-1.43,1.58,1.58,0,0,0-1.24-.44,1.74,1.74,0,0,0-1.44.69,3,3,0,0,0-.53,1.87v4h-1.26Z"/><path class="cls-1" d="M417.88,92.85V99.3h-1.26V92.85h-1v-1h1V90.53a1.58,1.58,0,0,1,.49-1.25,2.21,2.21,0,0,1,1.47-.42h.56V90h-.5a.68.68,0,0,0-.56.24,1,1,0,0,0-.2.67v.91h1.26v1Z"/><path class="cls-1" d="M420.83,98.41a4.76,4.76,0,0,1,0-5.73,3.46,3.46,0,0,1,4.88-.17c.06,0,.11.11.17.17a4.76,4.76,0,0,1,0,5.73,3.46,3.46,0,0,1-4.88.17C420.94,98.53,420.89,98.47,420.83,98.41Zm4.1-.77a4,4,0,0,0,0-4.19,2,2,0,0,0-2.81-.35,1.93,1.93,0,0,0-.35.35,4.09,4.09,0,0,0,0,4.19,2,2,0,0,0,2.81.35A1.93,1.93,0,0,0,424.93,97.64Z"/><path class="cls-1" d="M428.45,91.81h1.2v1.28a3.87,3.87,0,0,1,.34-.55,2.13,2.13,0,0,1,1.76-1,1,1,0,0,1,.35.07V92.9h-.25a2,2,0,0,0-1.58.61,2.52,2.52,0,0,0-.56,1.75v4h-1.26Z"/><path class="cls-1" d="M433.05,91.81h1.2v1.11l.26-.33a2.58,2.58,0,0,1,2-1,2.17,2.17,0,0,1,1.6.6,2,2,0,0,1,.42.61l.2-.26a2.48,2.48,0,0,1,1.94-1,2.44,2.44,0,0,1,1.82.65,2.41,2.41,0,0,1,.64,1.81v5.3h-1.26V94.47a2.06,2.06,0,0,0-.35-1.3,1.28,1.28,0,0,0-1-.44,1.61,1.61,0,0,0-1.31.64,2.85,2.85,0,0,0-.48,1.72V99.3h-1.26V94.17a1.65,1.65,0,0,0-.32-1.07,1.17,1.17,0,0,0-.93-.37,1.61,1.61,0,0,0-1.37.72,3,3,0,0,0-.54,1.84v4h-1.26Z"/><path class="cls-1" d="M447,99.51a2.51,2.51,0,0,1-1.74-.59,2.07,2.07,0,0,1-.65-1.59,2.14,2.14,0,0,1,.61-1.61A3,3,0,0,1,447,95l1.71-.22a1.76,1.76,0,0,0,.4-.07.61.61,0,0,0,.38-.25.72.72,0,0,0,.14-.47V93.9a1.12,1.12,0,0,0-.46-.94,2,2,0,0,0-1.27-.34,1.82,1.82,0,0,0-1.21.36,1.6,1.6,0,0,0-.53,1.08H445a2.51,2.51,0,0,1,.86-1.86,3.54,3.54,0,0,1,2.23-.62,3.16,3.16,0,0,1,2.08.6,2.1,2.1,0,0,1,.72,1.72V98a.4.4,0,0,0,.11.31.51.51,0,0,0,.31.11h.17l.23,0v.92l-.38.11H451a1.26,1.26,0,0,1-1-.39,1.66,1.66,0,0,1-.3-.74,2.65,2.65,0,0,1-.33.34A3.36,3.36,0,0,1,447,99.51Zm2.62-3.18v-.81a3,3,0,0,1-.78.23l-1.16.17a3.1,3.1,0,0,0-1.33.42,1,1,0,0,0-.42.81A1.19,1.19,0,0,0,447,98.46a1.13,1.13,0,0,0,.26,0,2.6,2.6,0,0,0,1.68-.54,1.76,1.76,0,0,0,.62-.85,1.41,1.41,0,0,0,0-.29,3.42,3.42,0,0,0,0-.45Z"/><path class="cls-1" d="M455.73,99.3a7.47,7.47,0,0,1-.94.09,1.61,1.61,0,0,1-1.17-.36,1.86,1.86,0,0,1-.34-1.25V92.84h-1v-1h1v-2.1h1.26v2.1h1.19v1h-1.19v4.94a.46.46,0,0,0,.2.39.87.87,0,0,0,.54.15h.45Z"/><path class="cls-1" d="M457,89h1.29v1.43H457Zm0,2.8h1.26v7.5H457Z"/><path class="cls-1" d="M460.68,98.41a4.76,4.76,0,0,1,0-5.73,3.46,3.46,0,0,1,4.88-.17c.06,0,.11.11.17.17a4.76,4.76,0,0,1,0,5.73,3.46,3.46,0,0,1-4.88.17C460.79,98.53,460.74,98.47,460.68,98.41Zm4.1-.77a4,4,0,0,0,0-4.19A2,2,0,0,0,462,93.1a1.93,1.93,0,0,0-.35.35,4.09,4.09,0,0,0,0,4.19,2,2,0,0,0,2.81.35A1.93,1.93,0,0,0,464.78,97.64Z"/><path class="cls-1" d="M468.12,91.81h1.2v1.11l.28-.38a2.58,2.58,0,0,1,2-1,2.36,2.36,0,0,1,2.59,2.11,1.93,1.93,0,0,1,0,.48V99.3H473V94.6a2.08,2.08,0,0,0-.39-1.43,1.57,1.57,0,0,0-1.23-.44,1.74,1.74,0,0,0-1.44.69,3,3,0,0,0-.54,1.87v4h-1.26Z"/><path class="cls-1" d="M480.32,89h4.23a3.86,3.86,0,0,1,3.12,1.39,5.77,5.77,0,0,1,1.15,3.76,5.64,5.64,0,0,1-1.18,3.75,4,4,0,0,1-3.21,1.39h-4.11Zm1.39,9.1h2.55a2.73,2.73,0,0,0,2.31-1,4.53,4.53,0,0,0,.82-2.92,4.68,4.68,0,0,0-.79-2.93,2.62,2.62,0,0,0-2.22-1h-2.67Z"/><path class="cls-1" d="M490.47,89h1.29v1.43h-1.29Zm0,2.8h1.27v7.5h-1.27Z"/><path class="cls-1" d="M497.92,94a1.32,1.32,0,0,0-.51-1,1.92,1.92,0,0,0-1.21-.34,2.19,2.19,0,0,0-1.2.27.92.92,0,0,0-.41.8.7.7,0,0,0,.29.6,3.54,3.54,0,0,0,1.14.41l1.3.31a3.49,3.49,0,0,1,1.57.73,1.77,1.77,0,0,1,.46,1.3,2.15,2.15,0,0,1-.8,1.76,3.31,3.31,0,0,1-2.17.66,3.71,3.71,0,0,1-2.36-.63,2.62,2.62,0,0,1-.86-2h1.21a1.61,1.61,0,0,0,.56,1.15,2.38,2.38,0,0,0,1.45.36,2.18,2.18,0,0,0,1.29-.32,1.1,1.1,0,0,0,.43-.94.71.71,0,0,0-.28-.6,3.63,3.63,0,0,0-1.16-.4l-1.3-.31a3.06,3.06,0,0,1-1.51-.71,1.68,1.68,0,0,1-.45-1.26,2.09,2.09,0,0,1,.76-1.68,3.13,3.13,0,0,1,2-.62,3.18,3.18,0,0,1,2.08.64A2.29,2.29,0,0,1,499.1,94Z"/><path class="cls-1" d="M506.71,96.61a3.43,3.43,0,0,1-1,2.15,3,3,0,0,1-2.14.75,2.89,2.89,0,0,1-2.38-1.08,4.32,4.32,0,0,1-.89-2.88,4.26,4.26,0,0,1,.92-2.89,3.43,3.43,0,0,1,4.63-.34,2.82,2.82,0,0,1,.86,2H505.5a1.71,1.71,0,0,0-1.85-1.69,1.71,1.71,0,0,0-1.49.77,3.58,3.58,0,0,0-.55,2.11,3.77,3.77,0,0,0,.51,2.15,1.88,1.88,0,0,0,2.64.32l.08-.07a2.54,2.54,0,0,0,.66-1.34Z"/><path class="cls-1" d="M508,89h1.26V99.3H508Z"/><path class="cls-1" d="M511.69,98.41a4.76,4.76,0,0,1,0-5.73,3.46,3.46,0,0,1,4.88-.17l.17.17a4.76,4.76,0,0,1,0,5.73,3.46,3.46,0,0,1-4.88.17C511.8,98.53,511.75,98.47,511.69,98.41Zm4.1-.77a4,4,0,0,0,0-4.19A2,2,0,0,0,513,93.1a1.93,1.93,0,0,0-.35.35,4.09,4.09,0,0,0,0,4.19,2,2,0,0,0,2.81.35A1.93,1.93,0,0,0,515.79,97.64Z"/><path class="cls-1" d="M523.43,94a1.32,1.32,0,0,0-.51-1,2,2,0,0,0-1.22-.34,2.15,2.15,0,0,0-1.19.27.92.92,0,0,0-.41.8.65.65,0,0,0,.29.6,3.54,3.54,0,0,0,1.14.41l1.3.31a3.26,3.26,0,0,1,1.56.73,1.74,1.74,0,0,1,.47,1.3,2.11,2.11,0,0,1-.81,1.76,3.28,3.28,0,0,1-2.16.66,3.71,3.71,0,0,1-2.36-.63,2.59,2.59,0,0,1-.86-2h1.21a1.61,1.61,0,0,0,.56,1.15,2.38,2.38,0,0,0,1.45.36,2.13,2.13,0,0,0,1.28-.32,1.08,1.08,0,0,0,.44-.94.7.7,0,0,0-.29-.6,3.66,3.66,0,0,0-1.15-.4l-1.3-.31a3.06,3.06,0,0,1-1.51-.71,1.68,1.68,0,0,1-.45-1.26,2.08,2.08,0,0,1,.75-1.68,3.13,3.13,0,0,1,2-.62,3.2,3.2,0,0,1,2.09.64,2.3,2.3,0,0,1,.82,1.76Z"/><path class="cls-1" d="M527.61,96.64A2,2,0,0,0,528,98a1.5,1.5,0,0,0,1.19.42,1.76,1.76,0,0,0,1.44-.7,3.15,3.15,0,0,0,.53-1.91v-4h1.26V99.3h-1.2V98.16a2.14,2.14,0,0,1-.28.39,2.49,2.49,0,0,1-2,1,2.26,2.26,0,0,1-2.58-1.88,2.15,2.15,0,0,1,0-.67V91.81h1.26Z"/><path class="cls-1" d="M534.46,91.81h1.2v1.28a3.87,3.87,0,0,1,.34-.55,2.13,2.13,0,0,1,1.76-1,1,1,0,0,1,.35.07V92.9h-.26a2,2,0,0,0-1.57.61,2.48,2.48,0,0,0-.56,1.75v4h-1.26Z"/><path class="cls-1" d="M542.11,99.51a3.22,3.22,0,0,1-2.5-1,4,4,0,0,1-.91-2.79,4.46,4.46,0,0,1,1-3,3.28,3.28,0,0,1,2.59-1.12,3,3,0,0,1,2.38,1.1,4.37,4.37,0,0,1,.9,2.87V96H540a3.23,3.23,0,0,0,.51,1.71,2.26,2.26,0,0,0,2.94.3,1.64,1.64,0,0,0,.66-1h1.25a3.19,3.19,0,0,1-1.12,1.88A3.5,3.5,0,0,1,542.11,99.51ZM544.22,95a2.77,2.77,0,0,0-.52-1.62,1.8,1.8,0,0,0-1.5-.65,2,2,0,0,0-1.59.74A2.86,2.86,0,0,0,540,95Z"/><path class="cls-1" d="M529.59,164.45h-175a3,3,0,0,1-3-3V124.54a3,3,0,0,1,3-3h175a3,3,0,0,1,3,3v36.87a3,3,0,0,1-3,3Zm-175-42.27a2.37,2.37,0,0,0-2.37,2.36v36.87a2.37,2.37,0,0,0,2.37,2.37h175a2.37,2.37,0,0,0,2.37-2.37V124.54a2.37,2.37,0,0,0-2.37-2.36Z"/><path class="cls-1" d="M403.08,137.38h3.76a3.41,3.41,0,0,1,2.77,1.25,5.86,5.86,0,0,1,0,6.67,3.54,3.54,0,0,1-2.85,1.24H403.1Zm1.24,8.1h2.27a2.47,2.47,0,0,0,2.05-.92,4,4,0,0,0,.73-2.59,4.24,4.24,0,0,0-.7-2.61,2.33,2.33,0,0,0-2-.92H404.3Z"/><path class="cls-1" d="M413.84,146.72a2.19,2.19,0,0,1-1.55-.53,1.82,1.82,0,0,1-.57-1.41,2,2,0,0,1,.53-1.43,2.73,2.73,0,0,1,1.58-.66l1.52-.19a2.25,2.25,0,0,0,.36-.06.57.57,0,0,0,.33-.22.82.82,0,0,0,.12-.43h0a1,1,0,0,0-.4-.84,1.87,1.87,0,0,0-1.13-.3,1.61,1.61,0,0,0-1.08.32,1.38,1.38,0,0,0-.47,1h-1a2.17,2.17,0,0,1,.77-1.64,3.09,3.09,0,0,1,2-.55,2.84,2.84,0,0,1,1.85.52,1.88,1.88,0,0,1,.63,1.54v3.66a.34.34,0,0,0,.1.27.37.37,0,0,0,.28.1h.36v.81l-.35.1h-.3a1.14,1.14,0,0,1-.92-.35,1.33,1.33,0,0,1-.27-.66,1.64,1.64,0,0,1-.29.3A3,3,0,0,1,413.84,146.72Zm2.32-2.82v-.73a2.75,2.75,0,0,1-.69.21l-1,.15a2.61,2.61,0,0,0-1.18.38.8.8,0,0,0-.37.71,1,1,0,0,0,.91,1.17,1.13,1.13,0,0,0,.26,0,2.3,2.3,0,0,0,1.49-.48,1.55,1.55,0,0,0,.55-.76,1.13,1.13,0,0,0,0-.26A2.77,2.77,0,0,0,416.16,143.9Z"/><path class="cls-1" d="M421.62,146.53a5.7,5.7,0,0,1-.83.09,1.37,1.37,0,0,1-1-.33,1.63,1.63,0,0,1-.3-1.11v-4.39h-.92v-.92h.92V138h1.12v1.86h1.05v.92h-1.05v4.39a.4.4,0,0,0,.17.35.81.81,0,0,0,.48.13h.4Z"/><path class="cls-1" d="M424.47,146.72a2.19,2.19,0,0,1-1.55-.53,1.82,1.82,0,0,1-.57-1.41,1.9,1.9,0,0,1,.54-1.43,2.64,2.64,0,0,1,1.57-.66l1.52-.19a2.25,2.25,0,0,0,.36-.06.57.57,0,0,0,.33-.22.82.82,0,0,0,.12-.43h0a1,1,0,0,0-.4-.84,1.87,1.87,0,0,0-1.13-.3,1.61,1.61,0,0,0-1.08.32,1.38,1.38,0,0,0-.47,1h-1a2.17,2.17,0,0,1,.77-1.64,3.09,3.09,0,0,1,2-.55,2.84,2.84,0,0,1,1.85.52,1.88,1.88,0,0,1,.63,1.54v3.66a.39.39,0,0,0,.11.27.34.34,0,0,0,.27.1h.36v.81l-.34.1h-.31a1.14,1.14,0,0,1-.92-.35,1.33,1.33,0,0,1-.27-.66,1.64,1.64,0,0,1-.29.3A3,3,0,0,1,424.47,146.72Zm2.32-2.82v-.73a2.75,2.75,0,0,1-.69.21l-1,.15a2.61,2.61,0,0,0-1.18.38.8.8,0,0,0-.37.71,1.05,1.05,0,0,0,1.17,1.17,2.3,2.3,0,0,0,1.49-.48,1.63,1.63,0,0,0,.56-.76,1.13,1.13,0,0,0,0-.26A2.55,2.55,0,0,0,426.79,143.9Z"/><path class="cls-1" d="M436.16,137.38h1.41l3.28,9.16h-1.32l-.94-2.66h-3.65l-1,2.66H432.7Zm-.83,5.41h2.88l-1.41-4.06h0Z"/><path class="cls-1" d="M441.85,139.87h1.07v1l.24-.33a2.27,2.27,0,0,1,4.13,1.44v4.57h-1.13v-4.19a1.94,1.94,0,0,0-.33-1.26,1.39,1.39,0,0,0-1.1-.39,1.56,1.56,0,0,0-1.29.61A2.71,2.71,0,0,0,443,143v3.57h-1.12Z"/><path class="cls-1" d="M450.7,146.72a2.19,2.19,0,0,1-1.55-.53,1.83,1.83,0,0,1-.58-1.41,1.9,1.9,0,0,1,.54-1.43,2.76,2.76,0,0,1,1.57-.66l1.53-.19a2.25,2.25,0,0,0,.36-.06.57.57,0,0,0,.33-.22.82.82,0,0,0,.12-.43h0a1,1,0,0,0-.41-.84,1.84,1.84,0,0,0-1.12-.3,1.61,1.61,0,0,0-1.08.32,1.38,1.38,0,0,0-.47,1h-1a2.22,2.22,0,0,1,.78-1.64,3.09,3.09,0,0,1,2-.55,2.8,2.8,0,0,1,1.84.52,1.87,1.87,0,0,1,.64,1.54v3.66a.34.34,0,0,0,.1.27.37.37,0,0,0,.28.1h.35v.81l-.34.1h-.3a1.14,1.14,0,0,1-.92-.35,1.33,1.33,0,0,1-.27-.66,2.06,2.06,0,0,1-.29.3A3,3,0,0,1,450.7,146.72Zm2.3-2.82v-.73a2.75,2.75,0,0,1-.69.21l-1,.15a2.61,2.61,0,0,0-1.18.38.8.8,0,0,0-.37.71,1,1,0,0,0,.8,1.17,1.09,1.09,0,0,0,.36,0,2.32,2.32,0,0,0,1.5-.48,1.55,1.55,0,0,0,.55-.76,1.13,1.13,0,0,0,0-.26A1.8,1.8,0,0,0,453,143.9Z"/><path class="cls-1" d="M456.06,137.38h1.12v9.16h-1.12Z"/><path class="cls-1" d="M461.73,146.75a6.26,6.26,0,0,1-1,2,2.19,2.19,0,0,1-1.91.41v-1a2,2,0,0,0,.64.1.78.78,0,0,0,.63-.31,4.26,4.26,0,0,0,.58-1.17v-.1h0l-2.47-6.78h1.28l1.78,5.51,1.8-5.51h1.23Z"/><path class="cls-1" d="M464.8,145.66l4-4.85h-3.7v-.94h5.2v.88l-4,4.85h4.09v.94H464.8Z"/><path class="cls-1" d="M474.33,146.72a2.85,2.85,0,0,1-2.22-.9,3.59,3.59,0,0,1-.81-2.48,4,4,0,0,1,.85-2.67,2.88,2.88,0,0,1,2.3-1,2.59,2.59,0,0,1,2.11,1,3.85,3.85,0,0,1,.81,2.55v.4h-4.86a2.82,2.82,0,0,0,.45,1.52,1.74,1.74,0,0,0,1.49.63,1.81,1.81,0,0,0,1.12-.36,1.46,1.46,0,0,0,.59-.92h1.11a2.79,2.79,0,0,1-1,1.67A3.07,3.07,0,0,1,474.33,146.72Zm1.87-4a2.54,2.54,0,0,0-.46-1.44,1.63,1.63,0,0,0-1.34-.57,1.72,1.72,0,0,0-1.41.66,2.45,2.45,0,0,0-.5,1.35Z"/><path class="cls-1" d="M478.86,139.87h1.06V141a3.94,3.94,0,0,1,.31-.48,1.85,1.85,0,0,1,1.56-.85.86.86,0,0,1,.32,0v1.15h-.23a1.75,1.75,0,0,0-1.4.55A2.23,2.23,0,0,0,480,143v3.57h-1.12Z"/><path class="cls-1" d="M529.59,216.48h-175a3,3,0,0,1-3-3V176.56a3,3,0,0,1,3-3h175a3,3,0,0,1,3,3v36.88a3,3,0,0,1-3,3Zm-175-42.28a2.37,2.37,0,0,0-2.37,2.36v36.88a2.37,2.37,0,0,0,2.37,2.36h175a2.37,2.37,0,0,0,2.37-2.36V176.56a2.37,2.37,0,0,0-2.37-2.36Z"/><path class="cls-1" d="M400.4,198.75,398,189.6h1.34l1.63,7.23a.61.61,0,0,0,.07.35.89.89,0,0,1,0,.23h0a1,1,0,0,1,0-.25.57.57,0,0,1,.07-.33l1.94-7.23h1.39l1.93,7.19a2.09,2.09,0,0,0,.08.34,1.13,1.13,0,0,1,0,.26h0v-.24a1.68,1.68,0,0,1,.08-.36l1.65-7.19h1.33l-2.4,9.15H405.9l-2-7.08a2.37,2.37,0,0,1-.09-.36,1,1,0,0,1,0-.24h0a1,1,0,0,1,0,.25,1.47,1.47,0,0,1-.08.35l-1.94,7.08Z"/><path class="cls-1" d="M412.42,198.93a2.19,2.19,0,0,1-1.55-.53,1.79,1.79,0,0,1-.57-1.41,1.91,1.91,0,0,1,.53-1.42,2.58,2.58,0,0,1,1.58-.66l1.52-.2.36-.06a.57.57,0,0,0,.33-.22.82.82,0,0,0,.12-.43h0a1,1,0,0,0-.4-.84,1.87,1.87,0,0,0-1.13-.3,1.66,1.66,0,0,0-1.08.32,1.38,1.38,0,0,0-.47,1h-1a2.21,2.21,0,0,1,.77-1.64,3.09,3.09,0,0,1,2-.55,2.84,2.84,0,0,1,1.85.52,1.88,1.88,0,0,1,.63,1.54v3.66a.43.43,0,0,0,.1.27.37.37,0,0,0,.28.1h.36v.81a2,2,0,0,1-.35.1H416a1.14,1.14,0,0,1-.92-.35,1.29,1.29,0,0,1-.27-.65,2,2,0,0,1-.29.29A2.91,2.91,0,0,1,412.42,198.93Zm2.32-2.82v-.72a2.38,2.38,0,0,1-.69.2l-1,.15a2.88,2.88,0,0,0-1.18.38.83.83,0,0,0-.37.72,1,1,0,0,0,.81,1.16,1.09,1.09,0,0,0,.36,0,2.3,2.3,0,0,0,1.49-.48,1.55,1.55,0,0,0,.55-.76,1,1,0,0,0,0-.25,2.5,2.5,0,0,0,0-.4Z"/><path class="cls-1" d="M417.78,189.6h1.12v9.15h-1.12Z"/><path class="cls-1" d="M420.61,189.6h1.12v9.15h-1.12Z"/><path class="cls-1" d="M426.13,198.93a2.85,2.85,0,0,1-2.22-.9,3.59,3.59,0,0,1-.81-2.48,4,4,0,0,1,.86-2.67,2.85,2.85,0,0,1,2.3-1,2.6,2.6,0,0,1,2.11,1,3.9,3.9,0,0,1,.8,2.55v.4H424.3a2.91,2.91,0,0,0,.46,1.52,1.74,1.74,0,0,0,1.49.63,1.81,1.81,0,0,0,1.12-.36,1.49,1.49,0,0,0,.58-.92h1.11a2.79,2.79,0,0,1-1,1.67A3,3,0,0,1,426.13,198.93Zm1.87-4a2.5,2.5,0,0,0-.46-1.45,1.61,1.61,0,0,0-1.33-.57,1.72,1.72,0,0,0-1.41.66,2.5,2.5,0,0,0-.51,1.36Z"/><path class="cls-1" d="M433,198.74a6,6,0,0,1-.84.09,1.37,1.37,0,0,1-1-.33,1.63,1.63,0,0,1-.3-1.11V193h-.92v-.91h.92v-1.87H432v1.87h1V193h-1.1v4.39a.39.39,0,0,0,.18.35.75.75,0,0,0,.48.14h.4Z"/><path class="cls-1" d="M440.4,189.6h1.41l3.29,9.15h-1.33l-.93-2.65h-3.66l-1,2.65H437Zm-.82,5.4h2.88l-1.41-4.06h0Z"/><path class="cls-1" d="M446.1,192.09h1.06v1l.25-.33a2.26,2.26,0,0,1,4.12,1.44v4.57h-1.12v-4.19a1.89,1.89,0,0,0-.34-1.26,1.36,1.36,0,0,0-1.1-.39,1.53,1.53,0,0,0-1.28.61,2.66,2.66,0,0,0-.47,1.66v3.57H446.1Z"/><path class="cls-1" d="M454.94,198.93a2.19,2.19,0,0,1-1.55-.53,1.79,1.79,0,0,1-.57-1.41,1.88,1.88,0,0,1,.54-1.42,2.55,2.55,0,0,1,1.57-.66l1.53-.2a2,2,0,0,0,.35-.06.57.57,0,0,0,.34-.22.73.73,0,0,0,.11-.43h0a1,1,0,0,0-.4-.84,1.87,1.87,0,0,0-1.13-.3,1.66,1.66,0,0,0-1.08.32,1.43,1.43,0,0,0-.47,1h-1a2.21,2.21,0,0,1,.77-1.64,3.09,3.09,0,0,1,2-.55,2.84,2.84,0,0,1,1.85.52,1.92,1.92,0,0,1,.64,1.54v3.66a.34.34,0,0,0,.1.27.37.37,0,0,0,.28.1h.35v.81a1.91,1.91,0,0,1-.34.1h-.31a1.14,1.14,0,0,1-.92-.35,1.55,1.55,0,0,1-.27-.65,1.92,1.92,0,0,1-.28.29A3,3,0,0,1,454.94,198.93Zm2.32-2.82v-.72a2.38,2.38,0,0,1-.69.2l-1,.15a2.92,2.92,0,0,0-1.19.38.83.83,0,0,0-.37.72,1.13,1.13,0,0,0,.31.86,1.17,1.17,0,0,0,.86.3,2.3,2.3,0,0,0,1.49-.48,1.63,1.63,0,0,0,.56-.76,1,1,0,0,0,0-.25,1.71,1.71,0,0,0,0-.4Z"/><path class="cls-1" d="M460.3,189.6h1.12v9.15H460.3Z"/><path class="cls-1" d="M466,199a6.82,6.82,0,0,1-1,2,1.86,1.86,0,0,1-1.37.47,2,2,0,0,1-.55-.07v-1a2,2,0,0,0,.64.1.77.77,0,0,0,.64-.31,5,5,0,0,0,.58-1.16v-.11h0l-2.47-6.77h1.27l1.78,5.51,1.81-5.51h1.22Z"/><path class="cls-1" d="M469.05,197.87l4-4.85h-3.7v-.93h5.2V193l-4,4.85h4.09v.94h-5.59v-.92Z"/><path class="cls-1" d="M478.57,198.93a2.85,2.85,0,0,1-2.22-.9,3.59,3.59,0,0,1-.81-2.48,4,4,0,0,1,.86-2.67,2.85,2.85,0,0,1,2.3-1,2.6,2.6,0,0,1,2.11,1,3.9,3.9,0,0,1,.8,2.55v.4h-4.87a2.91,2.91,0,0,0,.46,1.52,1.74,1.74,0,0,0,1.49.63,1.81,1.81,0,0,0,1.12-.36,1.49,1.49,0,0,0,.58-.92h1.11a2.79,2.79,0,0,1-1,1.67A3,3,0,0,1,478.57,198.93Zm1.87-4a2.5,2.5,0,0,0-.46-1.45,1.61,1.61,0,0,0-1.33-.57,1.72,1.72,0,0,0-1.41.66,2.5,2.5,0,0,0-.51,1.36Z"/><path class="cls-1" d="M483.11,192.09h1.06v1.14c.1-.18.2-.34.3-.49a1.88,1.88,0,0,1,1.57-.85,1.13,1.13,0,0,1,.32.05v1.15h-.24a1.8,1.8,0,0,0-1.4.55,2.24,2.24,0,0,0-.49,1.55v3.57h-1.12Z"/><path class="cls-1" d="M529.59,268.5h-175a3,3,0,0,1-3-3V228.58a3,3,0,0,1,3-3h175a3,3,0,0,1,3,3v36.88a3,3,0,0,1-3,3Zm-175-42.28a2.37,2.37,0,0,0-2.37,2.36v36.88a2.38,2.38,0,0,0,2.37,2.36h175a2.37,2.37,0,0,0,2.37-2.36V228.58a2.37,2.37,0,0,0-2.37-2.36Z"/><path class="cls-1" d="M379.19,244.08a1.78,1.78,0,0,0-.68-1.33,2.52,2.52,0,0,0-1.61-.47,2.61,2.61,0,0,0-1.59.4,1.36,1.36,0,0,0-.54,1.18.89.89,0,0,0,.36.79,4.42,4.42,0,0,0,1.45.52l1.59.38a3.55,3.55,0,0,1,1.84.9,2.38,2.38,0,0,1,.54,1.68,2.34,2.34,0,0,1-.94,2,4,4,0,0,1-2.55.73,4.29,4.29,0,0,1-2.81-.84,2.79,2.79,0,0,1-1-2.27v-.07h1.14a1.91,1.91,0,0,0,.72,1.54,3.07,3.07,0,0,0,1.93.54,3.17,3.17,0,0,0,1.73-.39,1.3,1.3,0,0,0,.59-1.15,1.18,1.18,0,0,0-.39-1,4.62,4.62,0,0,0-1.56-.59l-1.59-.38a3.58,3.58,0,0,1-1.73-.8,1.89,1.89,0,0,1-.51-1.41,2.59,2.59,0,0,1,.89-2.08,3.56,3.56,0,0,1,2.41-.77,3.74,3.74,0,0,1,2.46.77,2.82,2.82,0,0,1,1,2.13Z"/><path class="cls-1" d="M382,243.92h1v1l.24-.3a2.29,2.29,0,0,1,1.79-.89,1.93,1.93,0,0,1,1.43.53,1.79,1.79,0,0,1,.37.54l.18-.23a2.14,2.14,0,0,1,4,1.33v4.68h-1.12v-4.3a1.87,1.87,0,0,0-.31-1.15,1.1,1.1,0,0,0-.91-.39,1.39,1.39,0,0,0-1.16.57,2.46,2.46,0,0,0-.43,1.53v3.74H386V246a1.48,1.48,0,0,0-.28-1,1,1,0,0,0-.83-.33,1.42,1.42,0,0,0-1.22.64,2.57,2.57,0,0,0-.48,1.63v3.57H382Z"/><path class="cls-1" d="M394.36,250.76a2.2,2.2,0,0,1-1.55-.52,1.77,1.77,0,0,1-.58-1.42,1.88,1.88,0,0,1,.54-1.42,2.7,2.7,0,0,1,1.57-.66l1.53-.19.35-.07a.57.57,0,0,0,.34-.22.69.69,0,0,0,.12-.42v-.06a1,1,0,0,0-.41-.84,1.84,1.84,0,0,0-1.12-.3,1.66,1.66,0,0,0-1.08.32,1.38,1.38,0,0,0-.47,1h-1a2.19,2.19,0,0,1,.78-1.65,3.09,3.09,0,0,1,2-.55,2.78,2.78,0,0,1,1.85.53,1.86,1.86,0,0,1,.64,1.53v3.66a.34.34,0,0,0,.1.27.37.37,0,0,0,.28.1h.35v.81a1.91,1.91,0,0,1-.34.1,1.5,1.5,0,0,1-.3,0,1.15,1.15,0,0,1-.93-.35,1.42,1.42,0,0,1-.26-.65,4.11,4.11,0,0,1-.29.3A3,3,0,0,1,394.36,250.76Zm2.32-2.82v-.72a2.38,2.38,0,0,1-.69.2l-1,.15a2.88,2.88,0,0,0-1.18.38.86.86,0,0,0-.38.72,1.06,1.06,0,0,0,.95,1.16h.22a2.32,2.32,0,0,0,1.5-.48,1.55,1.55,0,0,0,.55-.76,1,1,0,0,0,0-.25,2.41,2.41,0,0,0,0-.4Z"/><path class="cls-1" d="M399.85,243.92h1.06v1.14a5,5,0,0,1,.31-.49,1.85,1.85,0,0,1,1.56-.85.87.87,0,0,1,.32.06v1.14h-.23a1.82,1.82,0,0,0-1.41.55A2.23,2.23,0,0,0,401,247v3.57h-1.12Z"/><path class="cls-1" d="M406.38,250.57a5.7,5.7,0,0,1-.83.09,1.4,1.4,0,0,1-1-.32,1.64,1.64,0,0,1-.3-1.12v-4.39h-.92v-.91h.92v-1.87h1.12v1.87h1.05v.91h-1.05v4.39a.43.43,0,0,0,.18.36.85.85,0,0,0,.47.13h.4Z"/><path class="cls-1" d="M418.88,247.21a4.24,4.24,0,0,1-1.3,2.66,4.1,4.1,0,0,1-5.69-.31,5.18,5.18,0,0,1-1.13-3.51,5.06,5.06,0,0,1,1.17-3.52,4.42,4.42,0,0,1,5.68-.51,3.33,3.33,0,0,1,1.2,2.19h-1.2a2.19,2.19,0,0,0-.84-1.4,2.85,2.85,0,0,0-1.72-.49,2.63,2.63,0,0,0-2.19,1A4.18,4.18,0,0,0,412,246a4.34,4.34,0,0,0,.76,2.77,2.6,2.6,0,0,0,2.19.95,2.51,2.51,0,0,0,1.77-.65,3.33,3.33,0,0,0,.93-1.87Z"/><path class="cls-1" d="M420.7,249.79a4.26,4.26,0,0,1,0-5.1,3.08,3.08,0,0,1,4.35-.14l.14.14a4.26,4.26,0,0,1,0,5.1,3.08,3.08,0,0,1-4.35.14Zm3.65-.69a3.6,3.6,0,0,0,0-3.72,1.7,1.7,0,0,0-1.41-.7,1.66,1.66,0,0,0-1.4.7,3.6,3.6,0,0,0,0,3.72,1.66,1.66,0,0,0,1.4.7,1.7,1.7,0,0,0,1.41-.7Z"/><path class="cls-1" d="M427.32,243.92h1.06v1l.25-.33a2.26,2.26,0,0,1,4.12,1.45v4.56h-1.12v-4.2a1.91,1.91,0,0,0-.34-1.27,1.36,1.36,0,0,0-1.1-.39,1.53,1.53,0,0,0-1.28.61,2.73,2.73,0,0,0-.47,1.66v3.57h-1.12Z"/><path class="cls-1" d="M436.86,250.57a6,6,0,0,1-.84.09,1.4,1.4,0,0,1-1-.32,1.64,1.64,0,0,1-.3-1.12v-4.39h-.92v-.91h.92v-1.87h1.12v1.87h1.06v.91h-1.1v4.39a.43.43,0,0,0,.18.36.81.81,0,0,0,.48.13h.4Z"/><path class="cls-1" d="M438.11,243.92h1.06v1.14a5,5,0,0,1,.31-.49,1.85,1.85,0,0,1,1.56-.85.87.87,0,0,1,.32.06v1.14h-.23a1.82,1.82,0,0,0-1.41.55,2.24,2.24,0,0,0-.49,1.55v3.57h-1.12Z"/><path class="cls-1" d="M444,250.76a2.2,2.2,0,0,1-1.55-.52,1.82,1.82,0,0,1-.57-1.42,1.88,1.88,0,0,1,.54-1.42,2.7,2.7,0,0,1,1.57-.66l1.52-.19.36-.07a.57.57,0,0,0,.34-.22.78.78,0,0,0,.11-.42v-.06a1,1,0,0,0-.4-.84,1.87,1.87,0,0,0-1.13-.3,1.66,1.66,0,0,0-1.08.32,1.47,1.47,0,0,0-.47,1h-1a2.21,2.21,0,0,1,.77-1.65,3.09,3.09,0,0,1,2-.55,2.78,2.78,0,0,1,1.85.53,1.86,1.86,0,0,1,.63,1.53v3.66a.39.39,0,0,0,.11.27.34.34,0,0,0,.27.1h.36v.81a1.91,1.91,0,0,1-.34.1,1.61,1.61,0,0,1-.31,0,1.14,1.14,0,0,1-.92-.35,1.55,1.55,0,0,1-.27-.65,4,4,0,0,1-.28.3A3,3,0,0,1,444,250.76Zm2.32-2.82v-.72a2.1,2.1,0,0,1-.69.2l-1,.15a2.92,2.92,0,0,0-1.19.38.83.83,0,0,0-.37.72,1.17,1.17,0,0,0,.3.86,1.2,1.2,0,0,0,.87.3,2.3,2.3,0,0,0,1.49-.48,1.52,1.52,0,0,0,.56-.76v-.25a2.49,2.49,0,0,1,0-.4Z"/><path class="cls-1" d="M454.54,248.18a3.12,3.12,0,0,1-.89,1.92,2.7,2.7,0,0,1-1.9.66,2.62,2.62,0,0,1-2.12-.95,3.91,3.91,0,0,1-.79-2.57,3.79,3.79,0,0,1,.82-2.57,2.76,2.76,0,0,1,2.2-.95,2.7,2.7,0,0,1,1.92.66,2.49,2.49,0,0,1,.76,1.8h-1.08a1.52,1.52,0,0,0-1.64-1.5,1.54,1.54,0,0,0-1.33.69,3.16,3.16,0,0,0-.48,1.87,3.28,3.28,0,0,0,.45,1.91,1.52,1.52,0,0,0,1.33.65,1.48,1.48,0,0,0,1.09-.43,2.06,2.06,0,0,0,.58-1.19Z"/><path class="cls-1" d="M458.11,250.57a6,6,0,0,1-.84.09,1.4,1.4,0,0,1-1-.32,1.64,1.64,0,0,1-.3-1.12v-4.39h-1v-.91h.93v-1.87h1.12v1.87h1.05v.91h-1.05v4.39a.42.42,0,0,0,.17.36.81.81,0,0,0,.48.13h.4Z"/><path class="cls-1" d="M465.55,241.43H467l3.28,9.15H469l-.93-2.65h-3.65l-1,2.65H462.1Zm-.82,5.4h2.88l-1.41-4.06h0Z"/><path class="cls-1" d="M471.25,243.92h1.06v1l.25-.33a2.26,2.26,0,0,1,4.12,1.45v4.56h-1.12v-4.2a1.91,1.91,0,0,0-.34-1.27,1.38,1.38,0,0,0-1.09-.39,1.56,1.56,0,0,0-1.29.61,2.73,2.73,0,0,0-.47,1.66v3.57h-1.12Z"/><path class="cls-1" d="M480.1,250.76a2.2,2.2,0,0,1-1.55-.52,1.77,1.77,0,0,1-.58-1.42,1.88,1.88,0,0,1,.54-1.42,2.7,2.7,0,0,1,1.57-.66l1.53-.19.35-.07a.57.57,0,0,0,.34-.22.69.69,0,0,0,.12-.42v-.06a1,1,0,0,0-.41-.84,1.84,1.84,0,0,0-1.12-.3,1.66,1.66,0,0,0-1.08.32,1.38,1.38,0,0,0-.47,1h-1a2.24,2.24,0,0,1,.77-1.65,3.09,3.09,0,0,1,2-.55,2.78,2.78,0,0,1,1.85.53,1.86,1.86,0,0,1,.64,1.53v3.66a.34.34,0,0,0,.1.27.37.37,0,0,0,.28.1h.35v.81a1.91,1.91,0,0,1-.34.1,1.61,1.61,0,0,1-.31,0,1.14,1.14,0,0,1-.92-.35,1.42,1.42,0,0,1-.26-.65,4.11,4.11,0,0,1-.29.3A3,3,0,0,1,480.1,250.76Zm2.32-2.82v-.72a2.38,2.38,0,0,1-.69.2l-1,.15a2.88,2.88,0,0,0-1.18.38.86.86,0,0,0-.38.72,1.13,1.13,0,0,0,.31.86,1.17,1.17,0,0,0,.86.3,2.32,2.32,0,0,0,1.5-.48,1.55,1.55,0,0,0,.55-.76,1,1,0,0,0,0-.25,2.41,2.41,0,0,0,0-.4Z"/><path class="cls-1" d="M485.46,241.43h1.12v9.15h-1.12Z"/><path class="cls-1" d="M491.13,250.8a6.47,6.47,0,0,1-1,2,1.82,1.82,0,0,1-1.37.47,1.41,1.41,0,0,1-.54-.07v-1a1.72,1.72,0,0,0,.64.1.78.78,0,0,0,.63-.31,4.35,4.35,0,0,0,.58-1.16v-.11h0L487.6,244h1.28l1.78,5.51h0l1.81-5.51h1.23Z"/><path class="cls-1" d="M494.2,249.7l4-4.85h-3.7v-.93h5.2v.88l-4,4.85h4.09v.93H494.2Z"/><path class="cls-1" d="M503.73,250.76a2.8,2.8,0,0,1-2.23-.9,3.56,3.56,0,0,1-.81-2.47,4,4,0,0,1,.86-2.68,2.88,2.88,0,0,1,2.3-1,2.59,2.59,0,0,1,2.11,1,3.85,3.85,0,0,1,.8,2.55v.4H501.9a2.82,2.82,0,0,0,.45,1.52,1.72,1.72,0,0,0,1.49.64,1.88,1.88,0,0,0,1.12-.37,1.46,1.46,0,0,0,.59-.92h1.11a2.79,2.79,0,0,1-1,1.67A3,3,0,0,1,503.73,250.76Zm1.87-4a2.51,2.51,0,0,0-.47-1.45,1.61,1.61,0,0,0-1.33-.57,1.72,1.72,0,0,0-1.41.66,2.48,2.48,0,0,0-.5,1.36Z"/><path class="cls-1" d="M508.26,243.92h1.06v1.14a5,5,0,0,1,.31-.49,1.85,1.85,0,0,1,1.56-.85.87.87,0,0,1,.32.06v1.14h-.23a1.82,1.82,0,0,0-1.41.55,2.24,2.24,0,0,0-.49,1.55v3.57h-1.12Z"/><path class="cls-1" d="M637.12,178H602.74a1,1,0,0,1,0-2h34.38a1,1,0,0,1,0,2Z"/><path class="cls-1" d="M643.24,177.73l-6.49,3.79a1,1,0,0,1-1.59-.85V173.2a1.07,1.07,0,0,1,1.15-1,1,1,0,0,1,.44.13l6.49,3.79a.85.85,0,0,1,0,1.59Z"/><path class="cls-1" d="M822.49,130.92l-3.8-6.49a1,1,0,0,1,.21-1.4,1.08,1.08,0,0,1,.65-.19H827a1.07,1.07,0,0,1,1,1.14,1,1,0,0,1-.13.45l-3.79,6.49a.85.85,0,0,1-1.1.48A.87.87,0,0,1,822.49,130.92Z"/><path class="cls-1" d="M823.25,127a.67.67,0,0,1-.68-.66V20.75H739.44a.68.68,0,1,1-.16-1.35h84a.67.67,0,0,1,.67.67V126.33A.67.67,0,0,1,823.25,127Z"/><path class="cls-1" d="M446.3,56.89a.67.67,0,0,1-.68-.68V20.07a.69.69,0,0,1,.68-.67H576.4a.68.68,0,0,1,0,1.35H447V56.21a.67.67,0,0,1-.66.68Z"/><path class="cls-1" d="M442.91,294.59l3.8,6.48a1.08,1.08,0,0,1-.41,1.46,1.17,1.17,0,0,1-.45.13h-7.46a1,1,0,0,1-.86-1.59l3.79-6.48a.85.85,0,0,1,1.59,0Z"/><path class="cls-1" d="M823.78,334.13h-84a.68.68,0,1,1-.16-1.35H823.1V221.53a.68.68,0,0,1,1.36,0V333.45A.67.67,0,0,1,823.78,334.13Z"/><path class="cls-1" d="M576.31,334.13H442.08a.67.67,0,0,1-.67-.67h0V297.31a.68.68,0,0,1,1.35,0v35.47H576.31a.68.68,0,1,1,.16,1.35Z"/><rect class="cls-2" x="576.86" y="0.56" width="162.2" height="39.47" rx="4" ry="4"/><path class="cls-1" d="M590.71,23.76a4.58,4.58,0,0,1-1.07-3.19,4.63,4.63,0,0,1,1.07-3.19,3.84,3.84,0,0,1,5.43-.17c.06.05.11.11.17.17a4.68,4.68,0,0,1,1.07,3.19,4.68,4.68,0,0,1-1.07,3.19,3.84,3.84,0,0,1-5.43.17Zm4.55-.86a3.78,3.78,0,0,0,.66-2.33,3.78,3.78,0,0,0-.66-2.33,2.22,2.22,0,0,0-3.11-.4,2.16,2.16,0,0,0-.4.4,3.71,3.71,0,0,0-.65,2.33,3.71,3.71,0,0,0,.65,2.33,2.22,2.22,0,0,0,3.11.4A2.16,2.16,0,0,0,595.26,22.9Z"/><path class="cls-1" d="M599,16.42h1.33v1.23l.31-.41a3.15,3.15,0,0,1,4.41-.32A2.85,2.85,0,0,1,605.8,19v5.71h-1.4V19.52a2.43,2.43,0,0,0-.43-1.59,1.74,1.74,0,0,0-1.37-.48,1.89,1.89,0,0,0-1.6.76,3.3,3.3,0,0,0-.6,2.08v4.46H599Z"/><path class="cls-1" d="M610.89,27.1a2.2,2.2,0,0,0,1.83-.76,3.35,3.35,0,0,0,.63-2.21v-.27h0A2.73,2.73,0,0,1,611.1,25a3.2,3.2,0,0,1-2.66-1.25,5.29,5.29,0,0,1-1-3.37,4.53,4.53,0,0,1,1-3A3.16,3.16,0,0,1,611,16.17a2.74,2.74,0,0,1,2.38,1.3l.1.15v-1.2h1.31v7.71a4.41,4.41,0,0,1-1,3.12,3.76,3.76,0,0,1-2.89,1,3.62,3.62,0,0,1-2.25-.65,2.81,2.81,0,0,1-1-1.9h1.43a1.6,1.6,0,0,0,.59,1A2,2,0,0,0,610.89,27.1Zm.27-9.65a2,2,0,0,0-1.72.74,4.12,4.12,0,0,0-.54,2.38,4.08,4.08,0,0,0,.59,2.36,1.92,1.92,0,0,0,1.67.83A2,2,0,0,0,612.8,23a3,3,0,0,0,.62-2,5,5,0,0,0-.56-2.65,1.89,1.89,0,0,0-1.7-.9Z"/><path class="cls-1" d="M617.29,23.76a4.68,4.68,0,0,1-1.07-3.19,4.68,4.68,0,0,1,1.07-3.19,3.86,3.86,0,0,1,5.46-.15l.15.15a4.7,4.7,0,0,1,1.1,3.19,4.68,4.68,0,0,1-1.07,3.19,3.86,3.86,0,0,1-5.46.15l-.15-.15Zm4.56-.86a3.71,3.71,0,0,0,.65-2.33,3.71,3.71,0,0,0-.65-2.33,2.11,2.11,0,0,0-1.76-.86,2.08,2.08,0,0,0-1.75.86,3.71,3.71,0,0,0-.65,2.33,3.71,3.71,0,0,0,.65,2.33,2.05,2.05,0,0,0,1.75.86A2.11,2.11,0,0,0,621.85,22.9Z"/><path class="cls-1" d="M625.59,13.31H627v1.58h-1.44Zm0,3.11H627v8.33h-1.4Z"/><path class="cls-1" d="M629.1,16.42h1.33v1.23l.31-.41a3.15,3.15,0,0,1,4.41-.32A2.84,2.84,0,0,1,635.9,19v5.71h-1.4V19.52a2.43,2.43,0,0,0-.43-1.59,1.74,1.74,0,0,0-1.37-.48,1.94,1.94,0,0,0-1.61.76,3.35,3.35,0,0,0-.59,2.08v4.46h-1.4Z"/><path class="cls-1" d="M641,27.1a2.2,2.2,0,0,0,1.83-.76,3.35,3.35,0,0,0,.63-2.21v-.27h0a2.73,2.73,0,0,1-2.25,1.1,3.2,3.2,0,0,1-2.66-1.25,5.29,5.29,0,0,1-1-3.37,4.53,4.53,0,0,1,1-3,3.18,3.18,0,0,1,2.55-1.15,2.74,2.74,0,0,1,2.38,1.3l.1.15v-1.2h1.31v7.71a4.41,4.41,0,0,1-1,3.12,3.76,3.76,0,0,1-2.89,1,3.62,3.62,0,0,1-2.25-.65,2.81,2.81,0,0,1-1-1.9h1.43a1.6,1.6,0,0,0,.59,1A2,2,0,0,0,641,27.1Zm.27-9.65a2,2,0,0,0-1.72.74,4.12,4.12,0,0,0-.54,2.38,4.08,4.08,0,0,0,.59,2.36,1.92,1.92,0,0,0,1.67.83,2,2,0,0,0,1.64-.77,3,3,0,0,0,.62-2,5,5,0,0,0-.56-2.65,1.88,1.88,0,0,0-1.68-.89Z"/><path class="cls-1" d="M656,18.83a1.46,1.46,0,0,0-.56-1.07,2.15,2.15,0,0,0-1.35-.38,2.48,2.48,0,0,0-1.33.3,1,1,0,0,0-.45.89.75.75,0,0,0,.32.67,4,4,0,0,0,1.26.45l1.45.34a3.79,3.79,0,0,1,1.74.82,2,2,0,0,1,.51,1.44,2.41,2.41,0,0,1-.89,2,3.71,3.71,0,0,1-2.41.72,4.12,4.12,0,0,1-2.62-.7,2.88,2.88,0,0,1-1-2.19H652a1.78,1.78,0,0,0,.63,1.29,2.65,2.65,0,0,0,1.6.39,2.4,2.4,0,0,0,1.43-.35,1.2,1.2,0,0,0,.49-1.05.78.78,0,0,0-.32-.66,4.16,4.16,0,0,0-1.28-.45L653.12,21a3.46,3.46,0,0,1-1.67-.79,1.86,1.86,0,0,1-.5-1.4,2.29,2.29,0,0,1,.83-1.86,3.49,3.49,0,0,1,2.27-.69,3.54,3.54,0,0,1,2.31.71,2.54,2.54,0,0,1,.92,1.95Z"/><path class="cls-1" d="M660.67,21.79a2.25,2.25,0,0,0,.41,1.51,1.64,1.64,0,0,0,1.31.46A1.89,1.89,0,0,0,664,23a3.41,3.41,0,0,0,.6-2.12V16.42H666v8.33h-1.33V23.48a3.32,3.32,0,0,1-.32.42A2.79,2.79,0,0,1,662.1,25a2.89,2.89,0,0,1-2.12-.71,2.89,2.89,0,0,1-.71-2.12V16.42h1.4Z"/><path class="cls-1" d="M668,16.42h1.33V17.6l.07-.1a2.74,2.74,0,0,1,2.37-1.33,3.25,3.25,0,0,1,2.59,1.12,4.56,4.56,0,0,1,.95,3,5.39,5.39,0,0,1-1,3.41,3.2,3.2,0,0,1-2.64,1.3,2.66,2.66,0,0,1-2.24-1.08V28H668Zm3.62,7.34a1.89,1.89,0,0,0,1.66-.83,4.26,4.26,0,0,0,.57-2.42,4,4,0,0,0-.54-2.31,2,2,0,0,0-1.69-.75,1.85,1.85,0,0,0-1.69.84A5.31,5.31,0,0,0,669.4,21a3.25,3.25,0,0,0,.6,2,2,2,0,0,0,1.6.76Z"/><path class="cls-1" d="M680.34,25a3.59,3.59,0,0,1-2.78-1.12,4.47,4.47,0,0,1-1-3.1,5,5,0,0,1,1.07-3.34,3.6,3.6,0,0,1,2.88-1.24,3.28,3.28,0,0,1,2.64,1.21,4.82,4.82,0,0,1,1,3.19v.5H678a3.67,3.67,0,0,0,.57,1.9,2.16,2.16,0,0,0,1.87.79,2.27,2.27,0,0,0,1.4-.45,1.85,1.85,0,0,0,.73-1.15H684a3.51,3.51,0,0,1-1.24,2.09A3.88,3.88,0,0,1,680.34,25Zm2.34-5a3,3,0,0,0-.58-1.8,2,2,0,0,0-1.66-.72,2.17,2.17,0,0,0-1.77.83A3.15,3.15,0,0,0,678,20Z"/><path class="cls-1" d="M686,16.42h1.33v1.42a4.67,4.67,0,0,1,.38-.6,2.36,2.36,0,0,1,1.95-1.07,1.09,1.09,0,0,1,.4.07v1.43h-.29a2.26,2.26,0,0,0-1.75.68,2.76,2.76,0,0,0-.62,1.95v4.46H686Z"/><path class="cls-1" d="M690.21,16.42h1.64l2.23,6.82h0l2.31-6.82h1.55l-3.11,8.33h-1.5Z"/><path class="cls-1" d="M699.12,13.31h1.43v1.58h-1.43Zm0,3.11h1.41v8.33h-1.41Z"/><path class="cls-1" d="M707.4,18.83a1.42,1.42,0,0,0-.57-1.07,2.09,2.09,0,0,0-1.35-.38,2.48,2.48,0,0,0-1.33.3,1,1,0,0,0-.45.89.79.79,0,0,0,.32.67,4,4,0,0,0,1.27.45l1.45.34a3.75,3.75,0,0,1,1.73.82,2,2,0,0,1,.52,1.44,2.41,2.41,0,0,1-.9,2,3.69,3.69,0,0,1-2.4.72,4.09,4.09,0,0,1-2.63-.7,2.9,2.9,0,0,1-.95-2.19h1.34a1.78,1.78,0,0,0,.63,1.29,2.76,2.76,0,0,0,1.61.39,2.4,2.4,0,0,0,1.43-.35,1.25,1.25,0,0,0,.48-1.05.73.73,0,0,0-.32-.66,4.16,4.16,0,0,0-1.28-.45L704.55,21a3.46,3.46,0,0,1-1.67-.79,1.9,1.9,0,0,1-.5-1.4,2.26,2.26,0,0,1,.84-1.86,3.47,3.47,0,0,1,2.26-.69,3.59,3.59,0,0,1,2.32.71,2.53,2.53,0,0,1,.91,1.95Z"/><path class="cls-1" d="M710.63,13.31h1.43v1.58h-1.43Zm0,3.11H712v8.33h-1.4Z"/><path class="cls-1" d="M714.73,23.76a4.68,4.68,0,0,1-1.07-3.19,4.68,4.68,0,0,1,1.07-3.19,3.86,3.86,0,0,1,5.46-.15l.15.15a4.68,4.68,0,0,1,1.07,3.19,4.68,4.68,0,0,1-1.07,3.19,3.86,3.86,0,0,1-5.46.15Zm4.56-.86a3.85,3.85,0,0,0,.65-2.33,3.85,3.85,0,0,0-.65-2.33,2.11,2.11,0,0,0-1.76-.86,2.08,2.08,0,0,0-1.75.86,3.71,3.71,0,0,0-.65,2.33,3.71,3.71,0,0,0,.65,2.33,2.05,2.05,0,0,0,1.75.86A2.11,2.11,0,0,0,719.29,22.9Z"/><path class="cls-1" d="M723,16.42h1.33v1.23l.31-.41a3.15,3.15,0,0,1,4.41-.32,2.9,2.9,0,0,1,.74,2.12v5.71h-1.4V19.52a2.42,2.42,0,0,0-.42-1.59,1.74,1.74,0,0,0-1.37-.48,1.94,1.94,0,0,0-1.61.76,3.35,3.35,0,0,0-.59,2.08v4.46H723Z"/><path class="cls-1" d="M736.36,353.53H579.56a3,3,0,0,1-3-3V316.42a3,3,0,0,1,3-3h156.8a3,3,0,0,1,3,3v34.07a3,3,0,0,1-3,3Zm-156.8-39.47a2.36,2.36,0,0,0-2.36,2.36v34.07a2.36,2.36,0,0,0,2.36,2.36h156.8a2.36,2.36,0,0,0,2.36-2.36V316.42a2.36,2.36,0,0,0-2.36-2.36Z"/><path class="cls-1" d="M736.36,40.15H579.56a3,3,0,0,1-3-3V3a3,3,0,0,1,3-3h156.8a3,3,0,0,1,3,3V37.11a3,3,0,0,1-3,3ZM579.56.68A2.36,2.36,0,0,0,577.2,3V37.11a2.36,2.36,0,0,0,2.36,2.36h156.8a2.36,2.36,0,0,0,2.36-2.36V3A2.36,2.36,0,0,0,736.36.68Z"/><path class="cls-1" d="M590.71,336.91a5.27,5.27,0,0,1,0-6.37,3.84,3.84,0,0,1,5.43-.17c.06.05.11.11.17.17a5.27,5.27,0,0,1,0,6.37,3.81,3.81,0,0,1-5.4.2A1.89,1.89,0,0,1,590.71,336.91Zm4.55-.85a4.44,4.44,0,0,0,0-4.66,2.21,2.21,0,0,0-3.1-.41,2.65,2.65,0,0,0-.41.41,4.49,4.49,0,0,0,0,4.66,2.22,2.22,0,0,0,3.11.4A2.16,2.16,0,0,0,595.26,336.06Z"/><path class="cls-1" d="M599,329.58h1.33v1.23l.31-.42a2.83,2.83,0,0,1,5.16,1.81v5.7h-1.4v-5.23a2.4,2.4,0,0,0-.43-1.58,1.73,1.73,0,0,0-1.37-.49,1.89,1.89,0,0,0-1.6.77,3.25,3.25,0,0,0-.6,2.07v4.46H599Z"/><path class="cls-1" d="M610.89,340.26a2.2,2.2,0,0,0,1.83-.76,3.35,3.35,0,0,0,.63-2.21V337h0a2.69,2.69,0,0,1-2.25,1.11,3.2,3.2,0,0,1-2.66-1.25,5.29,5.29,0,0,1-1-3.37,4.53,4.53,0,0,1,1-3,3.18,3.18,0,0,1,2.55-1.15,2.74,2.74,0,0,1,2.38,1.3l.1.14v-1.19h1.31v7.71a4.47,4.47,0,0,1-1,3.12,3.76,3.76,0,0,1-2.89,1,3.62,3.62,0,0,1-2.25-.65,2.81,2.81,0,0,1-1-1.9h1.43a1.67,1.67,0,0,0,.59,1A2,2,0,0,0,610.89,340.26Zm.27-9.66a2,2,0,0,0-1.72.75,5.27,5.27,0,0,0,0,4.74,1.94,1.94,0,0,0,1.67.82,2,2,0,0,0,1.64-.76,3,3,0,0,0,.62-2,5,5,0,0,0-.56-2.65,1.9,1.9,0,0,0-1.65-.9Z"/><path class="cls-1" d="M617.29,336.91a5.27,5.27,0,0,1,0-6.37,3.86,3.86,0,0,1,5.46-.15l.15.15a5.27,5.27,0,0,1,0,6.37,3.83,3.83,0,0,1-5.41.2Zm4.56-.85a4.49,4.49,0,0,0,0-4.66,2.12,2.12,0,0,0-1.76-.87,2.06,2.06,0,0,0-1.75.87,4.49,4.49,0,0,0,0,4.66,2.08,2.08,0,0,0,1.75.86A2.11,2.11,0,0,0,621.85,336.06Z"/><path class="cls-1" d="M625.59,326.46H627v1.59h-1.44Zm0,3.12H627v8.32h-1.4Z"/><path class="cls-1" d="M629.1,329.58h1.33v1.23l.31-.42a2.83,2.83,0,0,1,5.16,1.81v5.7h-1.4v-5.23a2.4,2.4,0,0,0-.43-1.58,1.73,1.73,0,0,0-1.37-.49,2,2,0,0,0-1.61.77,3.32,3.32,0,0,0-.59,2.07v4.46h-1.4Z"/><path class="cls-1" d="M641,340.26a2.2,2.2,0,0,0,1.83-.76,3.35,3.35,0,0,0,.63-2.21V337h0a2.69,2.69,0,0,1-2.25,1.11,3.2,3.2,0,0,1-2.66-1.25,5.29,5.29,0,0,1-1-3.37,4.53,4.53,0,0,1,1-3,3.18,3.18,0,0,1,2.55-1.15,2.74,2.74,0,0,1,2.38,1.3l.1.14v-1.19h1.31v7.71a4.47,4.47,0,0,1-1,3.12,3.76,3.76,0,0,1-2.89,1,3.62,3.62,0,0,1-2.25-.65,2.81,2.81,0,0,1-1-1.9h1.43a1.67,1.67,0,0,0,.59,1A2,2,0,0,0,641,340.26Zm.27-9.66a2,2,0,0,0-1.72.75,5.27,5.27,0,0,0,0,4.74,1.94,1.94,0,0,0,1.67.82,2,2,0,0,0,1.64-.76,3,3,0,0,0,.62-2,5,5,0,0,0-.56-2.65,1.88,1.88,0,0,0-1.63-.9Z"/><path class="cls-1" d="M656,332a1.48,1.48,0,0,0-.56-1.08,2.24,2.24,0,0,0-1.35-.38,2.38,2.38,0,0,0-1.33.31,1,1,0,0,0-.45.88.75.75,0,0,0,.32.67,4,4,0,0,0,1.26.45l1.45.35a3.67,3.67,0,0,1,1.74.81,2,2,0,0,1,.51,1.44,2.35,2.35,0,0,1-.89,2,3.67,3.67,0,0,1-2.41.73,4.12,4.12,0,0,1-2.62-.7,2.88,2.88,0,0,1-1-2.19H652a1.78,1.78,0,0,0,.63,1.29,2.65,2.65,0,0,0,1.6.39,2.34,2.34,0,0,0,1.43-.36,1.2,1.2,0,0,0,.49-1,.78.78,0,0,0-.32-.66,4.16,4.16,0,0,0-1.28-.45l-1.45-.34a3.46,3.46,0,0,1-1.67-.79,1.86,1.86,0,0,1-.5-1.4,2.29,2.29,0,0,1,.83-1.86,4.11,4.11,0,0,1,4.58,0,2.54,2.54,0,0,1,.92,1.95Z"/><path class="cls-1" d="M660.67,335a2.25,2.25,0,0,0,.41,1.51,1.64,1.64,0,0,0,1.31.46,1.9,1.9,0,0,0,1.6-.78,3.41,3.41,0,0,0,.6-2.12v-4.44H666V338h-1.33v-1.27a3.43,3.43,0,0,1-.32.43,2.8,2.8,0,0,1-2.24,1.07,2.51,2.51,0,0,1-2.83-2.14,2.66,2.66,0,0,1,0-.69v-5.72h1.4Z"/><path class="cls-1" d="M668,329.58h1.33v1.18l.07-.1a2.74,2.74,0,0,1,2.37-1.33,3.25,3.25,0,0,1,2.59,1.12,4.51,4.51,0,0,1,.95,3,5.38,5.38,0,0,1-1,3.4,3.17,3.17,0,0,1-2.66,1.24,2.66,2.66,0,0,1-2.24-1.08v4.14H668Zm3.62,7.33a1.86,1.86,0,0,0,1.66-.82,4.26,4.26,0,0,0,.57-2.42,4,4,0,0,0-.54-2.32,2,2,0,0,0-1.69-.75,1.87,1.87,0,0,0-1.69.85,5.31,5.31,0,0,0-.53,2.69,3.25,3.25,0,0,0,.57,2.05,2,2,0,0,0,1.63.72Z"/><path class="cls-1" d="M680.34,338.13a3.59,3.59,0,0,1-2.78-1.12,4.47,4.47,0,0,1-1-3.1,5,5,0,0,1,1.07-3.34,3.6,3.6,0,0,1,2.88-1.24,3.28,3.28,0,0,1,2.64,1.21,4.82,4.82,0,0,1,1,3.19v.5H678a3.67,3.67,0,0,0,.57,1.9,2.16,2.16,0,0,0,1.87.79,2.27,2.27,0,0,0,1.4-.45,1.85,1.85,0,0,0,.73-1.15H684a3.51,3.51,0,0,1-1.24,2.09A3.88,3.88,0,0,1,680.34,338.13Zm2.34-5a3,3,0,0,0-.58-1.8,2,2,0,0,0-1.66-.72,2.13,2.13,0,0,0-1.77.82,3.16,3.16,0,0,0-.63,1.7Z"/><path class="cls-1" d="M686,329.58h1.33V331a4.78,4.78,0,0,1,.38-.61,2.35,2.35,0,0,1,1.95-1.06,1.09,1.09,0,0,1,.4.07v1.43h-.29a2.26,2.26,0,0,0-1.75.68,2.73,2.73,0,0,0-.62,1.94v4.46H686Z"/><path class="cls-1" d="M690.21,329.58h1.64l2.23,6.81h0l2.31-6.81h1.55l-3.11,8.32h-1.5Z"/><path class="cls-1" d="M699.12,326.46h1.43v1.59h-1.43Zm0,3.12h1.41v8.32h-1.41Z"/><path class="cls-1" d="M707.4,332a1.44,1.44,0,0,0-.57-1.08,2.24,2.24,0,0,0-1.35-.38,2.38,2.38,0,0,0-1.33.31,1,1,0,0,0-.45.88.77.77,0,0,0,.32.67,4,4,0,0,0,1.27.45l1.45.35a3.64,3.64,0,0,1,1.73.81,2,2,0,0,1,.52,1.44,2.36,2.36,0,0,1-.9,2,3.64,3.64,0,0,1-2.4.73,4.09,4.09,0,0,1-2.63-.7,2.9,2.9,0,0,1-.95-2.19h1.34a1.78,1.78,0,0,0,.63,1.29,2.76,2.76,0,0,0,1.61.39,2.41,2.41,0,0,0,1.43-.36,1.21,1.21,0,0,0,.48-1,.73.73,0,0,0-.32-.66,4.16,4.16,0,0,0-1.28-.45l-1.45-.34a3.46,3.46,0,0,1-1.67-.79,1.9,1.9,0,0,1-.5-1.4,2.26,2.26,0,0,1,.84-1.86,3.47,3.47,0,0,1,2.26-.69,3.52,3.52,0,0,1,2.32.71,2.53,2.53,0,0,1,.91,1.95Z"/><path class="cls-1" d="M710.63,326.46h1.43v1.59h-1.43Zm0,3.12H712v8.32h-1.4Z"/><path class="cls-1" d="M714.73,336.91a5.27,5.27,0,0,1,0-6.37,3.86,3.86,0,0,1,5.46-.15l.15.15a5.27,5.27,0,0,1,0,6.37,3.83,3.83,0,0,1-5.41.2C714.86,337,714.79,337,714.73,336.91Zm4.56-.85a4.49,4.49,0,0,0,0-4.66,2.12,2.12,0,0,0-1.76-.87,2.06,2.06,0,0,0-1.75.87,4.49,4.49,0,0,0,0,4.66,2.08,2.08,0,0,0,1.75.86A2.11,2.11,0,0,0,719.29,336.06Z"/><path class="cls-1" d="M723,329.58h1.33v1.23l.31-.42a2.91,2.91,0,0,1,2.28-1.06,2.59,2.59,0,0,1,2.87,2.28,2.91,2.91,0,0,1,0,.59v5.7h-1.4v-5.23a2.4,2.4,0,0,0-.42-1.58,1.73,1.73,0,0,0-1.37-.49,2,2,0,0,0-1.61.77,3.32,3.32,0,0,0-.59,2.07v4.46H723Z"/></svg>