<?xml version="1.0" encoding="utf-8"?>
<!-- Generator: Adobe Illustrator 22.1.0, SVG Export Plug-In . SVG Version: 6.00 Build 0)  -->
<svg width="250px" version="1.1" id="图层_1" xmlns="http://www.w3.org/2000/svg" xmlns:xlink="http://www.w3.org/1999/xlink" x="0px" y="0px"
	 viewBox="0 0 180 68" style="enable-background:new 0 0 180 68;" xml:space="preserve">
<style type="text/css">
	.st0{fill:#FFFFFF;}
</style>
<g>
	<polygon class="st0" points="8.4,61.1 4.5,55.3 3.3,55.3 3.2,66.6 4.4,66.6 4.5,57.4 8.4,63.1 12.4,57.5 12.4,66.7 13.6,66.7 
		13.6,55.4 12.5,55.4 	"/>
	<path class="st0" d="M19.8,58c-0.8,0-1.7,0.1-2.6,0.4l0,1.2c1-0.3,1.8-0.4,2.5-0.4c1.7,0,2.6,0.8,2.5,2.3c-0.5-0.1-1.1-0.1-1.8-0.2
		c-0.9,0-1.7,0.1-2.3,0.4c-1.2,0.5-1.8,1.3-1.8,2.4c0,1.1,0.5,1.8,1.4,2.3c0.6,0.3,1.4,0.5,2.2,0.5c0.8,0,1.5-0.1,2.1-0.4
		c0.9-0.5,1.4-1.2,1.4-2.3l0-2.5C23.5,59.2,22.3,58,19.8,58z M22.3,64.1c0,1.1-0.8,1.6-2.3,1.6c-1.6,0-2.4-0.6-2.4-1.7
		c0-1.1,1-1.7,2.9-1.7c0.7,0,1.4,0.1,1.9,0.1L22.3,64.1z"/>
	<polygon class="st0" points="32.2,58.2 30.6,58.2 26.7,62.3 26.8,55 25.6,54.9 25.5,66.8 26.7,66.8 26.7,64 27.7,62.9 31,66.8 
		32.6,66.8 28.5,62.1 	"/>
	<path class="st0" d="M38.5,58.1c-1.5,0-2.6,0.6-3.2,1.8c-0.4,0.8-0.6,1.7-0.7,2.8c0,2.8,1.3,4.3,4.1,4.3c1.1,0,2.1-0.2,2.9-0.6
		l0-1.3c-0.8,0.5-1.8,0.7-2.9,0.7c-1.7,0-2.6-0.7-2.8-2.1c-0.1-0.2-0.1-0.4-0.1-0.5l6.3,0l0-0.2l0-0.4c0-0.9-0.1-1.7-0.5-2.4
		C41.1,58.8,40.1,58.1,38.5,58.1z M35.8,62.1c0.1-1.9,1-2.9,2.6-2.9c1,0,1.8,0.5,2.2,1.4c0.2,0.5,0.4,1,0.3,1.5L35.8,62.1z"/>
	<polygon class="st0" points="49.3,56.7 53.3,56.8 53.2,66.9 54.4,66.9 54.5,56.8 58.4,56.8 58.4,55.6 49.3,55.6 	"/>
	<path class="st0" d="M64.2,58.2c-0.9,0-1.8,0.2-2.7,0.6l0-3.6l-1.2,0L60.3,67l1.2,0l0-7c0.9-0.4,1.7-0.6,2.6-0.6
		c1.5,0,2.2,0.8,2.2,2.4l0,5.2l1.2,0l0-5.2C67.5,59.4,66.4,58.2,64.2,58.2z"/>
	<path class="st0" d="M73.9,58.3c-1.5,0-2.6,0.6-3.2,1.8c-0.4,0.8-0.6,1.7-0.7,2.8c0,2.8,1.3,4.3,4.1,4.3c1.1,0,2.1-0.2,2.9-0.6
		l0-1.3c-0.8,0.5-1.8,0.7-2.9,0.7c-1.7,0-2.6-0.7-2.8-2.1c-0.1-0.2-0.1-0.4-0.1-0.5l6.3,0l0-0.2l0-0.4c0-0.9-0.1-1.7-0.5-2.4
		C76.6,59,75.5,58.3,73.9,58.3z M71.3,62.3c0.1-1.9,1-2.9,2.6-2.9c1,0,1.8,0.5,2.2,1.4c0.2,0.5,0.4,1,0.3,1.5L71.3,62.3z"/>
	<path class="st0" d="M95.8,65.3l-2.9-9.4l-1.1,0c-0.7,2.2-1.7,5.4-3,9.4c-1.2-4-2.2-7.1-2.9-9.4l-1.3,0l3.6,11.3l1.1,0l3-9.2
		l2.9,9.3l1.1,0l3.7-11.3l-1.3,0L95.8,65.3z"/>
	<path class="st0" d="M105.6,58.5c-2.7,0-4.1,1.5-4.1,4.4c0,3,1.3,4.5,4,4.5c2.7,0,4.1-1.5,4.1-4.4C109.6,60,108.3,58.5,105.6,58.5z
		 M105.5,66.3c-1.9,0-2.9-1.1-2.8-3.3c0-2.2,1-3.3,2.9-3.3c1.9,0,2.9,1.1,2.8,3.4C108.4,65.2,107.4,66.3,105.5,66.3z"/>
	<path class="st0" d="M111.6,67.3l1.2,0l0-7.1c1-0.3,2-0.4,3.1-0.5l0-1.2c-1.5,0-3,0.3-4.2,0.8L111.6,67.3z"/>
	
		<rect x="113.2" y="60.9" transform="matrix(6.393077e-03 -1 1 6.393077e-03 56.8651 180.1307)" class="st0" width="11.8" height="1.2"/>
	<path class="st0" d="M128.9,59c-0.6-0.2-1.3-0.3-2.2-0.3c-2.6,0-4,1.4-4,4.3c0,3,1.3,4.5,3.8,4.6c1.4,0,2.3-0.4,2.9-1.1
		c0.4-0.5,0.6-1,0.6-1.6l0.1-9.2l-1.2,0L128.9,59z M128.8,64.8c0,0.4-0.2,0.8-0.5,1.1c-0.4,0.3-1,0.5-1.8,0.5
		c-1.8,0-2.6-1.2-2.6-3.4c0-2.2,0.9-3.2,2.8-3.2c0.8,0,1.5,0.1,2.2,0.4L128.8,64.8z"/>
	<polygon class="st0" points="137.9,67.5 139.1,67.5 139.2,62.4 144.2,62.4 144.2,61.2 139.2,61.2 139.2,57.3 145,57.3 145,56.2 
		138,56.2 	"/>
	
		<rect x="142.5" y="61" transform="matrix(6.393077e-03 -1 1 6.393077e-03 85.8439 209.6713)" class="st0" width="11.8" height="1.2"/>
	<path class="st0" d="M155.9,58.8c-2.7,0-4.1,1.5-4.1,4.4c0,3,1.3,4.5,4,4.5c2.7,0,4.1-1.5,4.1-4.4
		C159.9,60.3,158.6,58.8,155.9,58.8z M155.8,66.6c-1.9,0-2.9-1.1-2.8-3.3c0-2.2,1-3.3,2.9-3.3c1.9,0,2.9,1.1,2.8,3.4
		C158.7,65.5,157.7,66.6,155.8,66.6z"/>
	<polygon class="st0" points="170.3,65.8 168.2,59.1 167.2,59 165.1,65.7 162.8,59 161.5,59 164.5,67.6 165.6,67.7 167.7,61 
		169.7,67.7 170.8,67.7 173.9,59.1 172.6,59.1 	"/>
	<polygon class="st0" points="176.9,64.9 177.9,64.9 178,56.4 176.8,56.4 	"/>
	
		<rect x="176.5" y="66.2" transform="matrix(6.405222e-03 -1 1 6.405222e-03 109.343 243.8125)" class="st0" width="1.7" height="1.3"/>
	<path class="st0" d="M176.6,13.6c-2.2-2.2-5.1-3.4-8.2-3.4c-3,0-5.8,1.1-8,3.2c-2.2-2.1-5-3.2-8-3.2c-3.1,0-6,1.2-8.2,3.4
		c-2.2,2.2-3.4,5.1-3.4,8.2v2.7v0.9v18.6h7.1V25.3v-0.9v-2.7c0-1.2,0.5-2.3,1.3-3.1c0.8-0.8,2-1.3,3.1-1.3c1.2,0,2.3,0.5,3.1,1.3
		c0.8,0.8,1.3,2,1.3,3.1v3.5v18.5h7.1V25.3v-3.5c0-1.2,0.5-2.3,1.3-3.1c0.8-0.8,2-1.3,3.1-1.3c1.2,0,2.3,0.5,3.1,1.3
		c0.8,0.8,1.3,2,1.3,3.1v22.1h7.1V21.8C180,18.7,178.8,15.8,176.6,13.6z"/>
	<path class="st0" d="M124.3,9.3c-2.8-0.5-5.6-0.3-8.3,0.5v0c-2.6,0.8-5.1,2.3-7,4.2c-2.2,2.2-3.5,5-4.9,7.7
		c-1.4,2.7-2.8,5.4-4.2,8.1c-1.3,2.4-2.8,4.6-5.4,5.8v0c-4.9,2.2-11,0-13.2-5c-2.1-4.8-0.2-10.6,4.5-13c2.7-1.4,6-1.5,8.7-0.2v0
		c2.7,1.2,4.2,3.5,5.6,6.1l4-7.5c-0.5-0.6-0.9-1.2-1.5-1.7l0,0c-3.8-3.7-9.3-5.6-14.5-4.8c-5,0.7-9.6,3.6-12.3,7.9
		c-3.1,4.9-3.4,11.3-1,16.6c2.2,4.6,6.5,8,11.4,9.3c5.8,1.5,12.1-0.2,16.4-4.4l0,0c1.4-1.4,2.3-3,3.2-4.7c0.1,0.3,0.3,0.6,0.4,0.8h0
		c3.1,5.5,9,9,15.4,9c5.8,0,11.3-3,14.4-7.9c1.8-2.8,2.8-6.1,2.9-9.4C138.9,18.2,132.6,10.7,124.3,9.3z M131.2,28.6
		c-1,4.6-5.1,7.9-9.8,7.9c-4.1,0-7.9-2.6-9.4-6.4c-1.5-3.9-0.3-8.4,2.8-11.1c3.2-2.8,7.9-3.2,11.5-1
		C129.9,20.1,132.1,24.4,131.2,28.6z"/>
	<path class="st0" d="M71.8,40.2L71.8,40.2c0-2-1.6-3.7-3.7-3.7h0c-2,0-3.7,1.6-3.7,3.7v0c0,2,1.6,3.7,3.7,3.7h0
		C70.2,43.9,71.8,42.3,71.8,40.2z"/>
	<path class="st0" d="M28.6,39c0.5-0.5,1-1.1,1.4-1.6l-4-7.4c-1.3,4.5-5.8,7.4-10.5,6.8c-4.8-0.6-8.5-4.8-8.5-9.6H0
		C0,33.8,4.1,40,10.2,42.6C16.4,45.2,23.8,43.8,28.6,39L28.6,39z"/>
	<path class="st0" d="M53.6,12c-3.3-1.5-7-1.9-10.5-1.1l1.7-4h15.5V0.3H47.6h-6.2h-0.8l-6.9,16.4c-0.1,0.1-0.2,0.2-0.3,0.4l4,7.4
		c2.4-8.2,13.9-9.3,17.8-1.7c4.2,8-4.4,17-12.6,13.3v0c-3.2-1.4-4.6-4.3-6.1-7.2c-1.3-2.5-2.7-4.9-4-7.4C31,18.5,29.6,16,27,14
		c-3-2.4-6.8-3.6-10.6-3.6c-1.1,0-2.2,0.2-3.3,0.4l1.7-4h15.5V0.3H17.6h-6.2h-0.8L3.5,17c0,0,0,0,0,0l4,7.4c1.6-5.5,8-8.5,13.3-6.1
		v0c3,1.4,4.3,3.9,5.8,6.6c1.2,2.3,2.4,4.5,3.7,6.8c0.7,1.3,1.4,2.5,2,3.8c1.9,3.6,5.4,6.3,9.3,7.5v0c10.8,3.4,22-5.1,21.8-16.4
		C63.1,20.5,59.3,14.6,53.6,12z"/>
</g>
</svg>
