<?xml version="1.0" encoding="utf-8"?>
<!-- Generator: Adobe Illustrator 22.1.0, SVG Export Plug-In . SVG Version: 6.00 Build 0)  -->
<svg version="1.1" id="图层_1" xmlns="http://www.w3.org/2000/svg" xmlns:xlink="http://www.w3.org/1999/xlink" x="0px" y="0px"
	 viewBox="0 0 220 33" style="enable-background:new 0 0 220 33;" xml:space="preserve">
<style type="text/css">
	.st0{fill:#FFFFFF;}
</style>
<g>
	<path class="st0" d="M162.2,19c-0.4-0.4-0.8-0.7-1.3-0.9l-0.5-0.2c-0.2-0.1-0.3-0.1-0.4-0.1l0.3-0.1c0.1-0.1,0.2-0.1,0.3-0.2
		c0.3-0.2,0.6-0.5,0.9-0.8c0.3-0.4,0.6-0.8,0.8-1.3c0.2-0.6,0.3-1.3,0.3-2.1c0-3.6-2.4-5.4-7.1-5.4h-5.9v21.2h7.4
		c2.1,0,3.7-0.4,4.9-1.3c1.3-1,2-2.4,2-4.4c0-1-0.2-1.9-0.5-2.7C163.1,20,162.7,19.4,162.2,19z M151.6,9.8h3.8c3.3,0,5,1.2,5,3.7
		c0,2.4-1.5,3.7-4.4,3.7h-4.3V9.8z M160.4,26.3c-0.8,0.6-2,0.9-3.6,0.9h-5.2V19h5.5c3.1,0,4.6,1.4,4.6,4.1
		C161.8,24.6,161.3,25.7,160.4,26.3z"/>
	<rect x="165.2" y="20.1" class="st0" width="7.7" height="1.8"/>
	<path class="st0" d="M185.8,19.3c-0.6-0.4-1.3-0.8-2.3-1.3l-2.5-1c-1.6-0.6-2.7-1.2-3.2-1.7c-0.6-0.6-0.9-1.4-0.9-2.3
		c0-2.4,1.6-3.6,4.9-3.6c0.7,0,1.3,0.1,2,0.3c0.5,0.2,1,0.4,1.5,0.6c0.3,0.2,0.7,0.4,1,0.7l0.5,0.5l1.3-1.4l-0.6-0.6
		c-0.4-0.3-0.8-0.6-1.2-0.9c-0.6-0.3-1.2-0.6-1.9-0.8c-0.8-0.2-1.7-0.3-2.7-0.3c-4.6,0-6.9,1.9-6.9,5.8c0,0.9,0.2,1.7,0.6,2.5
		c0.4,0.6,0.9,1.2,1.7,1.7c0.6,0.4,1.3,0.8,2.3,1.2c0.3,0.1,0.7,0.3,1.3,0.5l1.3,0.5c1.6,0.6,2.7,1.3,3.3,1.9
		c0.6,0.6,0.9,1.4,0.9,2.4c0,2.5-1.6,3.7-4.9,3.7c-0.7,0-1.5-0.1-2.1-0.3c-0.6-0.2-1.2-0.4-1.7-0.6c-0.5-0.2-0.9-0.5-1.2-0.7
		c-0.3-0.2-0.5-0.5-0.7-0.7l-1.3,1.5l0.2,0.3l0.4,0.4c0.4,0.3,0.9,0.6,1.4,0.9c0.6,0.3,1.3,0.6,2.1,0.8c0.9,0.2,1.8,0.3,2.8,0.3
		c2.2,0,4-0.5,5.3-1.6c1.3-1.1,1.9-2.5,1.9-4.2c0-0.9-0.2-1.8-0.6-2.5C187.1,20.4,186.6,19.9,185.8,19.3z"/>
	<path class="st0" d="M193,7.4c-0.8,0-1.3,0.4-1.3,1.3c0,0.9,0.4,1.3,1.3,1.3c0.8,0,1.3-0.4,1.3-1.3C194.2,7.8,193.8,7.4,193,7.4z"
		/>
	<rect x="192" y="13.7" class="st0" width="1.9" height="15.3"/>
	<path class="st0" d="M201.4,10.1l-1.9,0.3v3.4h-2.5v1.8h2.5v9.3c0,3,1.3,4.5,4.1,4.5c0.5,0,0.9,0,1.4-0.1c0.2,0,0.4,0,0.5-0.1
		l0.2-0.1c0,0,0.1,0,0.2-0.1l-0.4-1.7l-0.7,0.2c-0.3,0.1-0.6,0.1-0.9,0.1c-1.7,0-2.5-1-2.5-3v-9.1h4.5v-1.8h-4.5V10.1z"/>
	<path class="st0" d="M218.4,26.3c-0.1,0.1-0.1,0.1-0.2,0.2c-0.2,0.2-0.5,0.3-0.8,0.5c-0.4,0.2-0.8,0.3-1.2,0.5
		c-0.5,0.1-1,0.2-1.6,0.2c-3.2,0-4.8-1.9-4.8-5.8H220c0-2.8-0.4-4.8-1.2-6.1c-0.9-1.5-2.5-2.3-4.7-2.3c-4.2,0-6.3,2.7-6.3,8
		c0,5.3,2.2,8,6.7,8c0.8,0,1.5-0.1,2.2-0.3c0.6-0.1,1.1-0.3,1.6-0.6c0.3-0.2,0.7-0.4,0.9-0.7l0.4-0.3l-1.1-1.3L218.4,26.3z
		 M214.1,15.2c2.5,0,3.8,1.6,3.8,4.9h-8.1C210.1,16.8,211.5,15.2,214.1,15.2z"/>
	<rect x="134.6" class="st0" width="1.8" height="33.3"/>
	<path class="st0" d="M114.6,6.8c-2,0-4,0.8-5.4,2.2c-1.5-1.4-3.4-2.2-5.4-2.2c-2.1,0-4.1,0.8-5.5,2.3c-1.5,1.5-2.3,3.5-2.3,5.5v1.8
		v0.6v12.6h4.8V17.1v-0.6v-1.8c0-0.8,0.3-1.6,0.9-2.1c0.6-0.6,1.3-0.9,2.1-0.9c0.8,0,1.6,0.3,2.1,0.9c0.6,0.6,0.9,1.3,0.9,2.1v2.4
		v12.6h4.8V17.1v-2.4c0-0.8,0.3-1.6,0.9-2.1c0.6-0.6,1.3-0.9,2.1-0.9c0.8,0,1.6,0.3,2.1,0.9c0.6,0.6,0.9,1.3,0.9,2.1v15h4.8v-15
		c0-2.1-0.8-4.1-2.3-5.5C118.6,7.7,116.7,6.8,114.6,6.8z"/>
	<path class="st0" d="M84.5,6.2c-1.9-0.3-3.8-0.2-5.6,0.4v0c-1.8,0.6-3.4,1.5-4.8,2.9c-1.5,1.5-2.4,3.4-3.4,5.2
		c-1,1.8-1.9,3.7-2.9,5.5c-0.9,1.6-1.9,3.1-3.7,3.9v0c-3.3,1.5-7.5,0-9-3.4c-1.4-3.2-0.1-7.2,3-8.8c1.8-0.9,4.1-1,5.9-0.2v0
		c1.9,0.8,2.9,2.4,3.8,4.1l2.7-5.1c-0.3-0.4-0.6-0.8-1-1.2l0,0c-2.6-2.5-6.3-3.8-9.9-3.3c-3.4,0.5-6.5,2.5-8.3,5.3
		c-2.1,3.3-2.3,7.7-0.7,11.3c1.5,3.1,4.4,5.4,7.7,6.3c3.9,1,8.3-0.2,11.2-3l0,0c0.9-0.9,1.6-2,2.2-3.2c0.1,0.2,0.2,0.4,0.3,0.6h0
		c2.1,3.8,6.1,6.1,10.4,6.1c3.9,0,7.7-2.1,9.8-5.4c1.2-1.9,1.9-4.1,1.9-6.4C94.4,12.2,90.2,7.1,84.5,6.2z M89.2,19.3
		c-0.7,3.1-3.5,5.4-6.7,5.4c-2.8,0-5.4-1.8-6.4-4.4c-1-2.6-0.2-5.7,1.9-7.6c2.2-1.9,5.4-2.2,7.8-0.7C88.3,13.5,89.8,16.5,89.2,19.3z
		"/>
	<path class="st0" d="M46.4,24.7L46.4,24.7c-1.4,0-2.5,1.1-2.5,2.5c0,1.4,1.1,2.5,2.5,2.5h0c1.4,0,2.5-1.1,2.5-2.5
		C48.9,25.8,47.7,24.7,46.4,24.7z"/>
	<path class="st0" d="M17.7,20.2c-0.9,3-4,5-7.1,4.7c-3.3-0.4-5.8-3.2-5.8-6.5H0c0,4.5,2.8,8.7,6.9,10.5c4.2,1.8,9.2,0.8,12.5-2.4
		l0,0c0.3-0.3,0.7-0.7,1-1.1L17.7,20.2z"/>
	<path class="st0" d="M36.4,8c-2.3-1-4.8-1.3-7.1-0.8l1.2-2.7H41V0h-8.6h-4.2h-0.5l-4.7,11.2c-0.1,0.1-0.1,0.1-0.2,0.2l2.7,5
		c1.7-5.6,9.5-6.3,12.1-1.2c2.8,5.4-3,11.6-8.5,9v0c-2.2-1-3.1-3-4.2-4.9c-0.9-1.7-1.8-3.3-2.7-5c-1-1.9-2-3.6-3.7-5
		c-2-1.6-4.6-2.5-7.2-2.4c-0.8,0-1.5,0.1-2.3,0.3l1.2-2.7h10.5V0H12H7.7H7.2L2.4,11.4c0,0,0,0,0,0l2.7,5.1c1.1-3.8,5.4-5.7,9-4.1v0
		c2,0.9,3,2.7,3.9,4.5c0.8,1.5,1.7,3.1,2.5,4.6c0.5,0.9,0.9,1.7,1.4,2.6c1.3,2.5,3.7,4.3,6.3,5.1v0c7.3,2.3,15-3.5,14.8-11.1
		C42.9,13.8,40.3,9.8,36.4,8z"/>
</g>
</svg>
