<svg xmlns="http://www.w3.org/2000/svg" viewBox="0 0 24 24"><defs><style>.cls-1{fill:#5a6bb1;}</style></defs><title>资源 2</title><g id="图层_2" data-name="图层 2"><g id="图层_1-2" data-name="图层 1"><path class="cls-1" d="M12,0A12,12,0,1,0,24,12,12,12,0,0,0,12,0Zm2.39,14.68a2.44,2.44,0,0,1,.71,1.92c0,1.39,0,2,0,2A1.46,1.46,0,0,1,13.62,20H11.4a1.48,1.48,0,0,1-1.48-1.46v-1c-2.89.63-3.5-1.23-3.5-1.23a2.78,2.78,0,0,0-1.16-1.52c-.94-.64.07-.63.07-.63a2.18,2.18,0,0,1,1.6,1.07,2.21,2.21,0,0,0,3,.87,2.19,2.19,0,0,1,.66-1.4c-2.31-.26-4.74-1.15-4.74-5.13A4,4,0,0,1,7,6.76,3.69,3.69,0,0,1,7.05,4s.87-.28,2.86,1.06a9.88,9.88,0,0,1,2.6-.35,10.25,10.25,0,0,1,2.6.35C17.1,3.73,18,4,18,4a3.74,3.74,0,0,1,.1,2.75,4,4,0,0,1,1.07,2.79C19.14,13.54,16.71,14.42,14.39,14.68Z"/></g></g></svg>