<svg xmlns="http://www.w3.org/2000/svg" viewBox="0 0 24 24"><defs><style>.cls-1{fill:#5a6bb1;}</style></defs><title>资源 1</title><g id="图层_2" data-name="图层 2"><g id="图层_1-2" data-name="图层 1"><path class="cls-1" d="M12,0A12,12,0,1,0,24,12,12,12,0,0,0,12,0Zm7.53,12.86c-3.22.13-7,0-10.11.06A3.13,3.13,0,0,0,12.12,16a3.48,3.48,0,0,0,3.27-1.65h3.86a7,7,0,0,1-7.51,4.82,7.73,7.73,0,0,1-2.38-.62c-1.3.71-4.16,1.76-5.31.28-.86-1.12-.31-3.15.17-4.48A17,17,0,0,1,8.81,7.53s0-.06,0-.12a16.2,16.2,0,0,0-3.48,2.95c.91-3.09,2.89-5.3,6.52-5.61.25,0,.6,0,.89-.06a5.84,5.84,0,0,0,.83-.34c1.15-.47,3.69-1.3,5-.28,1.12.88.91,3,.22,4.42A7.56,7.56,0,0,1,19.53,12.86Z"/><path class="cls-1" d="M15.11,5.2A7.84,7.84,0,0,1,18.54,8,5.17,5.17,0,0,0,19,6.17C18.92,4.23,16.43,4.42,15.11,5.2Z"/><path class="cls-1" d="M9.42,10.87h6.13C15.37,6.93,9.61,7.25,9.42,10.87Z"/><path class="cls-1" d="M5.66,14.5a6.52,6.52,0,0,0-.78,3.3c.31,1.74,2.76,1.23,3.87.45A7.81,7.81,0,0,1,5.66,14.5Z"/></g></g></svg>