<svg xmlns="http://www.w3.org/2000/svg" viewBox="0 0 24 24"><defs><style>.cls-1{fill:#5a6bb1;}</style></defs><title>资源 3</title><g id="图层_2" data-name="图层 2"><g id="图层_1-2" data-name="图层 1"><path class="cls-1" d="M13.21,12a1.27,1.27,0,0,0-.29-.89,1.2,1.2,0,0,0-.89-.32h-.89v2.42H12a1.16,1.16,0,0,0,.89-.33A1.26,1.26,0,0,0,13.21,12Zm-.6.66a.9.9,0,0,1-.66.21h-.41V11.16H12a1,1,0,0,1,.66.2.91.91,0,0,1,.21.67A.9.9,0,0,1,12.61,12.69Z"/><rect class="cls-1" x="7.73" y="13.51" width="8.53" height="3.68"/><path class="cls-1" d="M12,0A12,12,0,1,0,24,12,12,12,0,0,0,12,0Zm6,19.27H6V4.73h8.32L18,8Z"/><path class="cls-1" d="M9.92,12.31c.59,0,.88-.25.88-.75s-.29-.74-.88-.74h-1v2.42h.4v-.93Zm-.6-1.15h.57a.66.66,0,0,1,.39.09.37.37,0,0,1,.12.31.41.41,0,0,1-.12.32.66.66,0,0,1-.39.09H9.32Z"/><polygon class="cls-1" points="15.23 11.16 15.23 10.82 13.58 10.82 13.58 13.24 13.98 13.24 13.98 12.17 15.16 12.17 15.16 11.83 13.98 11.83 13.98 11.16 15.23 11.16"/><polygon class="cls-1" points="7.73 6.82 7.73 10.49 16.27 10.49 16.27 9.14 13.66 6.82 7.73 6.82"/></g></g></svg>