<?xml version="1.0" encoding="UTF-8"?>
<svg width="16px" height="20px" viewBox="0 0 16 20" version="1.1" xmlns="http://www.w3.org/2000/svg" xmlns:xlink="http://www.w3.org/1999/xlink">
    <!-- Generator: Sketch 50.2 (55047) - http://www.bohemiancoding.com/sketch -->
    <title>Referral_ID</title>
    <desc>Created with Sketch.</desc>
    <defs></defs>
    <g id="Page-1" stroke="none" stroke-width="1" fill="none" fill-rule="evenodd">
        <g id="Tablet" transform="translate(-193.000000, -71.000000)">
            <g id="Referral_ID" transform="translate(193.000000, 71.000000)">
                <rect id="Rectangle-5" stroke="#8D9ACE" x="0.5" y="0.5" width="15" height="19" rx="2"></rect>
                <g id="Group-2" transform="translate(2.000000, 3.000000)">
                    <polygon id="Rectangle-6" fill="#8D9ACE" points="6 0 12 0 12 1.00047153 7.40579131 1.00047153 6 1.00047153"></polygon>
                    <rect id="Rectangle-6-Copy" fill="#8D9ACE" x="6" y="2" width="6" height="1.00047153"></rect>
                    <rect id="Rectangle-6-Copy" fill="#8D9ACE" x="6" y="4" width="6" height="1.00047153"></rect>
                    <rect id="Rectangle-6-Copy-2" fill="#8D9ACE" x="0" y="10" width="12" height="1.00047153"></rect>
                    <rect id="Rectangle-6-Copy-2" fill="#8D9ACE" x="0" y="7" width="12" height="1.00047153"></rect>
                    <rect id="Rectangle-6-Copy-3" fill="#8D9ACE" x="0" y="13" width="9" height="1.00047153"></rect>
                    <ellipse id="Oval" stroke="#8D9ACE" stroke-width="0.6" cx="2" cy="0.959344793" rx="1" ry="1"></ellipse>
                    <path d="M4,4.91868959 C4,3.85902659 3.1045695,3 2,3 C0.8954305,3 0,3.85902659 0,4.91868959" id="Oval" stroke="#8D9ACE" stroke-width="0.6" stroke-linecap="round" stroke-linejoin="round"></path>
                </g>
            </g>
        </g>
    </g>
</svg>