<?xml version="1.0" encoding="utf-8"?>
<!-- Generator: Adobe Illustrator 22.0.0, SVG Export Plug-In . SVG Version: 6.00 Build 0)  -->
<svg width="16px" height="20px" version="1.1" id="图层_1" xmlns="http://www.w3.org/2000/svg" xmlns:xlink="http://www.w3.org/1999/xlink" x="0px" y="0px"
	 viewBox="0 0 20 20" style="enable-background:new 0 0 20 20;" xml:space="preserve">
<style type="text/css">
	.st0{fill:#8D9ACE;}
</style>
<g>
	<g>
		<path class="st0" d="M12.6,10.9c1.6-0.9,2.8-2.5,2.8-4.5c0-2.9-2.3-5.1-5.3-5.1c-3,0-5.3,2.3-5.3,5.1c0,2,1.1,3.6,2.8,4.5
			C4,12,1.5,15.1,1.5,18.8h1.1c0-4,3.3-7.2,7.4-7.2s7.4,3.2,7.4,7.2h1.1C18.5,15.1,16,12,12.6,10.9z M5.8,6.4c0-2.3,1.9-4.1,4.2-4.1
			s4.2,1.9,4.2,4.1s-1.9,4.1-4.2,4.1h0C7.7,10.5,5.8,8.7,5.8,6.4z"/>
	</g>
</g>
</svg>
