<?xml version="1.0" encoding="UTF-8"?>
<svg width="124px" height="24px" viewBox="0 0 124 24" version="1.1" xmlns="http://www.w3.org/2000/svg" xmlns:xlink="http://www.w3.org/1999/xlink">
    <!-- Generator: Sketch 50.2 (55047) - http://www.bohemiancoding.com/sketch -->
    <title>btc123</title>
    <desc>Created with Sketch.</desc>
    <defs></defs>
    <g id="Page-1" stroke="none" stroke-width="1" fill="none" fill-rule="evenodd">
        <g id="G.55.com" transform="translate(-149.000000, -1723.000000)" fill="#FFFFFF" fill-rule="nonzero">
            <g id="Our-Lovely-Partners-" transform="translate(79.000000, 1548.000000)">
                <g id="Group-3" transform="translate(70.000000, 174.000000)">
                    <g id="btc123" transform="translate(0.000000, 1.000000)">
                        <path d="M12.7259321,13.7343918 C12.9021037,13.5810819 13.0063289,13.3081574 12.9993471,13.0184263 C13.0091112,12.7242899 12.9088233,12.444168 12.7344763,12.2785953 C12.4901734,12.0740137 12.2070276,11.978276 11.9227756,12.0041418 L11,12.0041418 L11,13.9969124 L11.939864,13.9969124 C12.2146167,14.0184245 12.4878706,13.9271667 12.7259321,13.7343918 Z" id="Shape"></path>
                        <path d="M12.1728739,16.0027769 L11,16.0027769 L11,17.9941477 L12.3934143,17.9941477 C12.8240292,18.0240406 13.2548689,17.9389912 13.6364602,17.7487655 C13.8844451,17.5790868 14.0210829,17.3003674 13.9973445,17.0126189 C14.0177847,16.7017605 13.8406739,16.4090327 13.5462392,16.2670346 C13.1187274,16.0733217 12.6468353,15.982522 12.1728739,16.0027769 Z" id="Shape"></path>
                        <path d="M12,3.55271368e-15 C5.372583,0 8.11624501e-16,5.372583 0,12 C-8.11624501e-16,18.627417 5.372583,24 12,24 C18.627417,24 24,18.627417 24,12 C24,5.372583 18.627417,0 12,3.55271368e-15 Z M14.87,10.33 C15.5760873,10.8646738 15.9697404,11.7157142 15.92,12.6 C15.916827,13.1824307 15.6956321,13.7425532 15.3,14.17 C15.057629,14.4397684 14.7656664,14.6604378 14.44,14.82 C15.0401177,14.9537892 15.6013153,15.2241222 16.08,15.61 C16.6832296,16.0955879 17.0238077,16.835975 17,17.61 C17.0328825,18.5665878 16.6234553,19.4850326 15.89,20.1 C15.0255039,20.7396802 13.9634765,21.0547483 12.89,20.99 L6.89,20.99 C6.69501815,20.9900752 6.53541615,20.8349066 6.53,20.64 L6.53,18.69 C6.53,18.4911775 6.69117749,18.33 6.89,18.33 L8.09,18.33 L8.09,11.77 L7.21,11.42 C7.07689198,11.3715668 6.99146227,11.2413882 7,11.1 L7,9.89 C7,9.71326888 7.14326888,9.57 7.32,9.57 L9.66,9.57 L8.82,7.25 C8.04250498,7.15911016 7.45480599,6.50277479 7.45,5.72 C7.40302413,5.13468289 7.6887056,4.57257027 8.18921704,4.26550164 C8.68972849,3.958433 9.32027151,3.958433 9.82078296,4.26550164 C10.3212944,4.57257027 10.6069759,5.13468289 10.56,5.72 C10.5604593,6.177573 10.354762,6.61100661 10,6.9 L10.89,9.57 L11.82,9.57 C12.1064529,9.55434536 12.3935471,9.55434536 12.68,9.57 L13.75,7.17 C12.8187158,6.49853057 12.5153703,5.24874161 13.0352117,4.22505882 C13.5550531,3.20137603 14.7431217,2.70894939 15.834718,3.06472892 C16.9263143,3.42050846 17.596044,4.51843972 17.4128361,5.65184009 C17.2296281,6.78524046 16.2480951,7.61625422 15.1,7.61 L14.95,7.61 L14.05,9.88 C14.3458824,9.9846412 14.6228171,10.1366176 14.87,10.33 Z" id="Shape"></path>
                        <path d="M30.5022596,22.3687929 C29.9280103,21.9559782 29.5169127,21.3728141 29.3348397,20.7127446 L29.1680655,20.7127446 L28.7407064,22.7433753 L27,22.7433753 L30.700304,6.2518937 L32.5243976,5 L31.0546994,12.048063 L31.231897,12.048063 C31.6723216,11.3764887 32.2809133,10.8178696 33.0038736,10.4215869 C33.693345,10.0297584 34.4822127,9.82195888 35.2865964,9.82028362 C36.6217046,9.74633133 37.8662278,10.4603471 38.4136139,11.614336 C39.0682675,13.1326506 39.1781187,14.8121509 38.7263156,16.3951899 C38.4274991,18.1636244 37.6278674,19.8225263 36.4123227,21.1957587 C35.4726939,22.3128648 34.0543934,22.9744718 32.5452444,22.9996685 C31.8090601,23.0097914 31.0902654,22.7878269 30.5022596,22.3687929 Z M31.7426432,12.9155169 C30.88686,13.9213183 30.3228548,15.1205769 30.1061707,16.3951899 C29.7802393,17.5415673 29.8459092,18.7560497 30.2937918,19.8650055 C30.6761293,20.6846681 31.5580674,21.1921805 32.5035508,21.1366141 C33.5614407,21.1316916 34.5592071,20.670784 35.2136326,19.8847204 C36.0602948,18.8721589 36.6167308,17.6703332 36.8292583,16.3951899 C37.1497739,15.2436496 37.0952803,14.0274306 36.6729075,12.9056594 C36.2958839,12.0874043 35.4151175,11.5821118 34.4735718,11.6439083 C33.4066128,11.6548127 32.4023663,12.1224223 31.7426432,12.9155169 Z" id="Shape"></path>
                        <path d="M45.2979398,6 L44.6798732,9.27584713 L47,9.27584713 L46.6767036,10.9628103 L44.3565769,10.9628103 L42.9873217,18.112788 C42.8341247,18.6448118 42.8575505,19.2143672 43.0538827,19.7310958 C43.2945452,20.0957182 43.7139377,20.2892451 44.1378764,20.2313 L44.518225,20.2313 L44.9175911,20.2313 L44.6038035,21.8888394 C44.4375125,21.9277726 44.269271,21.9572409 44.0998415,21.9771107 C43.9351672,21.9871423 43.7700625,21.9871423 43.6053883,21.9771107 C42.803675,22.0879455 41.9994995,21.7919635 41.4469097,21.1826687 C41.0438163,20.3832953 40.9684581,19.4505423 41.2377179,18.5933764 L42.7020602,10.9628103 L41,10.9628103 L41.3232964,9.27584713 L43.0063391,9.27584713 L43.6529319,6.63751516 L45.2979398,6 Z" id="Shape"></path>
                        <path d="M57.9801068,13.0471191 L56.2783344,13.0471191 C56.2710526,12.4648751 56.0636579,11.903415 55.6918479,11.4593801 C55.2508701,10.9919206 54.6265512,10.7489211 53.9900756,10.7970105 C53.0120171,10.8108417 52.0928142,11.2728939 51.4902969,12.0535646 C50.70191,13.0283868 50.1841895,14.1984607 49.9904298,15.4433387 C49.6861827,16.58558 49.7467656,17.7960927 50.1634914,18.9012979 C50.4938288,19.714733 51.2964967,20.2268948 52.1633143,20.1773335 C52.8467486,20.1967505 53.5190762,19.9992163 54.0862209,19.6123712 C54.6519196,19.2043361 55.0892752,18.639473 55.3457247,17.9856692 L57.0474971,17.9856692 C56.6922309,19.1080081 56.0244919,20.1024682 55.1245905,20.8494439 C54.2042126,21.6125882 53.0446582,22.0168488 51.8556492,21.9891093 C50.5328072,22.0962609 49.2713413,21.4057467 48.6347806,20.2260372 C47.9561055,18.7342601 47.8165753,17.0482649 48.2405847,15.4628202 C48.5243548,13.7134911 49.2986432,12.0837257 50.4711564,10.7677883 C51.4505168,9.65842605 52.8479213,9.02134019 54.3169697,9.01445686 C55.4118821,8.91235578 56.487508,9.35551838 57.2013296,10.2028259 C57.8020785,11.0192888 58.0798525,12.0337904 57.9801068,13.0471191 Z" id="Shape"></path>
                        <path d="M62.627907,22 L63.4011628,18.2090592 L64.1235465,14.6649245 L64.8357558,11.130662 L65.6090116,7.32984901 L65.4462209,7.32984901 L63.2180233,8.89953542 C62.6380814,9.32404181 61.8953488,9.88675958 61,10.4692218 L61.4578488,8.228223 L63.8284884,6.62891986 L66.1482558,5 L68,5 L64.5,22 L62.627907,22 Z" id="Shape"></path>
                        <path d="M73.4823129,6.52090598 C74.5026811,5.54383449 75.8488922,5.00264919 77.2458585,5.00793705 C78.4108408,4.92809399 79.5367189,5.4545998 80.2407224,6.40845559 C80.9502245,7.43852029 81.1769292,8.73782375 80.859661,9.95575436 C80.652474,11.0090975 80.2231963,12.003415 79.6018181,12.8692418 C78.5624154,14.2483414 77.4174207,15.5404934 76.1776904,16.7334463 L72.0447783,20.8225515 L72.0447783,21.016784 L79.032794,21.016784 L78.6534446,23 L69,23 L69.2895035,21.4870311 L75.4988546,15.0364676 C76.3815434,14.17994 77.2117042,13.2683771 77.9845916,12.3069899 C78.4372604,11.6821446 78.7507512,10.9633304 78.9030166,10.2011007 C79.101288,9.41149151 78.9977384,8.57415858 78.6135131,7.86008794 C78.211704,7.22049094 77.4964221,6.86213204 76.7566974,6.9298165 C75.8909922,6.92400704 75.0582708,7.2695102 74.4406694,7.89075623 C73.7598017,8.56640644 73.3084418,9.44782231 73.1528779,10.4055559 L71.3859082,10.4055559 C71.6413579,8.90722813 72.3793946,7.53964194 73.4823129,6.52090598 Z" id="Shape"></path>
                        <path d="M86.1990931,14.6697491 L86.5772305,12.8383763 L88.3554985,12.8383763 C89.205906,12.8484017 90.0282463,12.542291 90.6549829,11.9824086 C91.3238724,11.4150467 91.7744333,10.6427625 91.9324742,9.7927237 C92.1030114,9.08829729 91.9779411,8.3467195 91.5849966,7.73242931 C91.1332879,7.13370483 90.3927165,6.8089594 89.6329898,6.8764616 C88.7805125,6.86059742 87.9491139,7.13518891 87.2824057,7.65280441 C86.5854853,8.22319148 86.0976999,8.99864155 85.8924952,9.86239549 L84.0631276,9.86239549 C84.4123352,8.51717148 85.1711764,7.30627293 86.2399728,6.38875906 C87.3153152,5.47189801 88.704961,4.98170266 90.1337664,5.01522947 C91.3642553,4.90277046 92.5668269,5.41869014 93.3121649,6.37880595 C93.9468968,7.31402243 94.1541865,8.46400496 93.884481,9.55384899 C93.712048,10.5078698 93.2655651,11.3947776 92.5967697,12.111799 C92.0092061,12.7588347 91.2538163,13.2401131 90.4097045,13.5052348 L90.4097045,13.694344 C91.2649191,13.8312622 92.0136404,14.3307464 92.4536907,15.0579205 C92.9134909,15.9551236 93.0224661,16.9845857 92.7602886,17.9542763 C92.4753455,19.377424 91.6735316,20.65298 90.5016839,21.5473501 C89.3587356,22.486768 87.9092786,22.9984785 86.4137116,22.9905515 C85.113865,23.0750446 83.8432306,22.589551 82.9491551,21.6667875 C82.1323469,20.6822755 81.8201536,19.3891785 82.1009009,18.1533386 L83.9200485,18.1533386 C83.7752851,18.9283609 84.0052617,19.7251154 84.5434643,20.3131641 C85.135334,20.8771018 85.9450307,21.1700979 86.7714092,21.1193663 C87.7252025,21.1336428 88.6529272,20.8160046 89.3877115,20.2235861 C90.1380578,19.6428105 90.6435223,18.8141003 90.8082818,17.8945577 C91.0499985,17.0846666 90.8872805,16.2112402 90.3688248,15.5356699 C89.7729491,14.9155882 88.9176821,14.5963564 88.0489006,14.6697491 L86.1990931,14.6697491 Z" id="Shape"></path>
                        <path d="M95.2409556,22.5555278 C95.0170312,22.2421645 94.9454166,21.8639189 95.0419419,21.5043999 C95.1301067,21.0967479 95.3666193,20.7247541 95.7163771,20.4436287 C96.0037469,20.1747604 96.4009421,20.0153999 96.8220085,20.0000334 C97.2018366,19.9972794 97.5566941,20.1647782 97.7617952,20.4436287 C97.989835,20.7593675 98.0578723,21.1433484 97.9497525,21.5043999 C97.8623844,21.9073827 97.6300093,22.2755824 97.2863737,22.5555278 C96.9990039,22.8243961 96.6018087,22.9837566 96.1807423,22.9991231 C95.7976415,23.0138021 95.4364007,22.8432903 95.2409556,22.5555278 Z" id="Shape"></path>
                        <path d="M106.988025,17.4940374 L105.980549,17.4940374 C105.977676,17.1309489 105.852866,16.780462 105.627932,16.5038261 C105.365892,16.2191596 104.997628,16.0689875 104.620456,16.0929937 C104.035555,16.1125805 103.487693,16.3970804 103.119316,16.8725218 C102.645904,17.4785048 102.336299,18.2059705 102.222663,18.9793544 C102.051945,19.6761506 102.08707,20.4106717 102.32341,21.086187 C102.529018,21.5877244 103.011124,21.902781 103.532382,21.8762492 C103.935373,21.8854472 104.330662,21.759977 104.660755,21.5180876 C105.012336,21.2563608 105.279399,20.8889392 105.426437,20.4646714 L106.433913,20.4646714 C106.225218,21.1822652 105.81442,21.8173816 105.255166,22.2870815 C104.703266,22.7626088 104.005461,23.0133003 103.290587,22.9928705 C102.511061,23.0599629 101.764828,22.6492995 101.376383,21.9394542 C100.972795,21.0108111 100.89087,19.9642579 101.144663,18.9793544 C101.315613,17.890755 101.784519,16.8772496 102.494681,16.0613912 C103.087661,15.3802153 103.931011,14.9968212 104.811876,15.0079749 C105.463398,14.9485856 106.101962,15.2235131 106.524586,15.7453663 C106.882461,16.2473081 107.047778,16.8710901 106.988025,17.4940374 Z" id="Shape"></path>
                        <path d="M107.371711,21.9409662 C106.971814,21.02054 106.891627,19.9782365 107.14549,19.0004718 C107.30523,17.9055937 107.759734,16.8839455 108.453637,16.0599774 C109.040843,15.3809675 109.869989,14.9993745 110.735518,15.0098008 C111.506769,14.9301231 112.249982,15.341285 112.633806,16.0599774 C113.031276,16.9814422 113.107999,18.0240344 112.850192,19.0004718 C112.690452,20.0953499 112.235948,21.1169981 111.542045,21.9409662 C110.954839,22.6199761 110.125693,23.0015691 109.260164,22.9911428 C108.492313,23.0665272 107.754017,22.6559575 107.371711,21.9409662 Z M110.961739,21.1323303 C111.41559,20.5239629 111.713823,19.800261 111.82728,19.0319771 C112.006651,18.3402067 111.979141,17.6058872 111.748594,16.931624 C111.531312,16.430925 111.043947,16.1287754 110.528968,16.1754968 C109.950766,16.1806855 109.403985,16.4572267 109.033943,16.931624 C108.583879,17.5424269 108.286099,18.2650294 108.168402,19.0319771 C107.992278,19.724144 108.019748,20.4573947 108.247087,21.1323303 C108.458995,21.6393499 108.948677,21.9471527 109.466713,21.8989592 C110.04878,21.9016631 110.599834,21.6190901 110.961739,21.1323303 Z" id="Shape"></path>
                        <path d="M114,23 L114.525708,20.26203 L114.97926,17.9363411 L115.504967,15.1983711 L116.535767,15.1983711 L116.298683,16.4246434 L116.391455,16.4246434 C116.58849,15.9966647 116.89482,15.6313682 117.277942,15.3675121 C117.627932,15.1261744 118.041675,15.0007255 118.463362,15.0080875 C118.842212,14.9921958 119.21212,15.1287642 119.494161,15.3886547 C119.750892,15.6571078 119.920153,16.0005852 119.978637,16.3717868 L120.071409,16.3717868 C120.320819,15.9692528 120.655544,15.6295911 121.050669,15.3780834 C121.430694,15.1343141 121.870317,15.0060225 122.318552,15.0080875 C122.866996,14.9507497 123.40294,15.2013183 123.72044,15.6635089 C124.01787,16.2465 124.080776,16.925785 123.895675,17.5557739 L122.864876,22.9471434 L121.834076,22.9471434 L122.864876,17.8411993 C122.992077,17.4145019 122.958983,16.9544348 122.772104,16.5514991 C122.554716,16.2498689 122.197758,16.088956 121.834076,16.1286466 C121.382181,16.1316512 120.950767,16.3223557 120.638349,16.6572123 C120.297196,17.0009827 120.066956,17.44371 119.978637,17.9257698 L119.019994,22.9471434 L117.989194,22.9471434 L119.019994,17.661487 C119.12739,17.2859689 119.071,16.8811574 118.865374,16.5514991 C118.651629,16.2640559 118.309485,16.1085505 117.95827,16.1392179 C117.500737,16.1523889 117.070039,16.3636369 116.772851,16.7206401 C116.406547,17.1062713 116.162249,17.5962957 116.071907,18.1266248 L115.144187,22.9577147 L114,23 Z" id="Shape"></path>
                    </g>
                </g>
            </g>
        </g>
    </g>
</svg>