<?xml version="1.0" encoding="utf-8"?>
<!-- Generator: Adobe Illustrator 22.1.0, SVG Export Plug-In . SVG Version: 6.00 Build 0)  -->
<svg version="1.1" id="图层_1" xmlns="http://www.w3.org/2000/svg" xmlns:xlink="http://www.w3.org/1999/xlink" x="0px" y="0px"
	 viewBox="0 0 155.5 77.8" style="enable-background:new 0 0 155.5 77.8;" xml:space="preserve">
<style type="text/css">
	.st0{fill:#FFFFFF;}
	.st1{fill:#11216E;}
	.st2{clip-path:url(#SVGID_4_);}
	.st3{clip-path:url(#SVGID_6_);}
</style>
<title>合作伙伴logo</title>
<path class="st0" d="M113.4,33.4c-3.7,0.5-6.4,3.6-6.4,7.3l0,0v6.4c0,0.5,0.4,0.9,0.9,0.9h0.4c0.5,0,0.9-0.4,0.9-0.9v-6.4
	c0-2.5,1.8-4.7,4.3-5c0.5-0.1,0.8-0.5,0.8-0.9v-0.4C114.3,33.8,113.9,33.4,113.4,33.4z"/>
<path class="st0" d="M87.6,29.6h-0.4c-0.5,0-0.9,0.4-0.9,0.9v16.7c0,0.5,0.4,0.9,0.9,0.9h0.4c0.5,0,0.8-0.4,0.9-0.9V30.5
	C88.5,30,88.1,29.6,87.6,29.6z"/>
<path class="st0" d="M83,29.6h-0.4c-0.5,0-0.9,0.4-0.9,0.9v16.7c0,0.5,0.4,0.9,0.9,0.9H83c0.5,0,0.9-0.4,0.9-0.9V30.5
	C83.9,30,83.5,29.6,83,29.6z"/>
<path class="st0" d="M98,45.7c-1.6,0.1-3.2-0.5-4.3-1.7c-1.9-2.1-1.7-5.4,0.4-7.2c2.1-1.9,5.4-1.7,7.2,0.4v-2.8
	c-1.4-0.7-2.9-1.1-4.4-1c-3.8,0.5-6.6,3.8-6.4,7.7c0.3,4,3.7,7,7.7,6.8c1.1-0.1,2.2-0.4,3.1-1l0,0l-0.2-2.8
	C100.5,44.9,99.3,45.6,98,45.7z"/>
<path class="st0" d="M103.6,34h-0.4c-0.5,0-0.9,0.4-0.9,0.9v11.9c0,0.5,0.4,0.9,0.9,0.9v0.1h0.4c0.5,0,0.9-0.4,0.9-0.9v-12
	C104.5,34.4,104.1,34,103.6,34z"/>
<path class="st0" d="M56,45.7c-2.8,0.2-5.2-1.9-5.5-4.7c-0.1-1.6,0.5-3.2,1.7-4.3c2.1-1.9,5.3-1.7,7.2,0.4v-2.8
	c-1.3-0.7-2.9-1.1-4.4-1c-0.1,0-0.3,0-0.4,0c-4,0.5-6.8,4.1-6.3,8.1s4.1,6.8,8.1,6.3c1.1-0.1,2.2-0.4,3.1-1L59.3,44
	C58.5,45,57.3,45.6,56,45.7z"/>
<path class="st0" d="M61.5,34h-0.4c-0.5,0-0.9,0.4-0.9,0.9v11.9c0,0.5,0.4,0.9,0.9,0.9v0.1h0.4c0.5,0,0.9-0.4,0.9-0.9v-12
	C62.4,34.4,62,34,61.5,34z"/>
<path class="st0" d="M79.5,39.8c-0.4-3.9-4-6.7-7.9-6.3c-4,0.4-6.9,3.9-6.5,7.9s3.9,6.9,7.9,6.5s6.9-3.9,6.5-7.9
	C79.5,39.9,79.5,39.9,79.5,39.8z M72.7,45.7L72.7,45.7c-2.8,0.2-5.3-1.9-5.5-4.7s1.9-5.3,4.7-5.5c2.8-0.2,5.3,1.9,5.5,4.7
	C77.6,43,75.5,45.5,72.7,45.7z"/>
<path class="st0" d="M37.2,29.7h-6.1c-0.9,0-1.7,0.7-1.8,1.6v15.2c0,0.1,0,0.1,0,0.2c0.1,0.9,0.9,1.5,1.8,1.4h6.4
	C49.3,48.2,49.4,29.6,37.2,29.7z M37.1,46h-5.6V31.8h5.6C46.7,31.8,46.3,46,37.1,46z"/>
<circle class="st0" cx="11.5" cy="38.9" r="11.5"/>
<g>
	<g>
		<path id="SVGID_1_" class="st1" d="M9.7,35.5c-0.2,0-0.4,0.2-0.4,0.4l0,0v5.8c0,0.2,0.2,0.4,0.4,0.4l0,0h2.1
			c1.9,0.1,3.4-1.3,3.5-3.2s-1.3-3.4-3.2-3.5c-0.1,0-0.2,0-0.4,0L9.7,35.5L9.7,35.5z M11.1,43.9h-0.9v0.8c0,0.1-0.1,0.3-0.3,0.3H9.3
			C9.2,45,9,44.9,9,44.7v-0.8H8c-0.2,0-0.4-0.2-0.4-0.4l0,0v-9.1C7.6,34.2,7.8,34,8,34l0,0h1v-1c0-0.1,0.1-0.3,0.3-0.3h0.6
			c0.1,0,0.3,0.1,0.3,0.3v0.8h1V33c0-0.1,0.1-0.3,0.3-0.3h0.6c0.1,0,0.3,0.1,0.3,0.3v0.8c2.8,0,5,2.3,5,5s-2.3,5-5,5v0.8
			c0,0.1-0.1,0.3-0.3,0.3h-0.6c-0.1,0-0.3-0.1-0.3-0.3v-0.8L11.1,43.9L11.1,43.9z"/>
	</g>
	<g>
		<defs>
			<path id="SVGID_2_" d="M9.7,35.5c-0.2,0-0.4,0.2-0.4,0.4l0,0v5.8c0,0.2,0.2,0.4,0.4,0.4l0,0h2.1c1.9,0.1,3.4-1.3,3.5-3.2
				s-1.3-3.4-3.2-3.5c-0.1,0-0.2,0-0.4,0L9.7,35.5L9.7,35.5z M11.1,43.9h-0.9v0.8c0,0.1-0.1,0.3-0.3,0.3H9.3C9.2,45,9,44.9,9,44.7
				v-0.8H8c-0.2,0-0.4-0.2-0.4-0.4l0,0v-9.1C7.6,34.2,7.8,34,8,34l0,0h1v-1c0-0.1,0.1-0.3,0.3-0.3h0.6c0.1,0,0.3,0.1,0.3,0.3v0.8h1
				V33c0-0.1,0.1-0.3,0.3-0.3h0.6c0.1,0,0.3,0.1,0.3,0.3v0.8c2.8,0,5,2.3,5,5s-2.3,5-5,5v0.8c0,0.1-0.1,0.3-0.3,0.3h-0.6
				c-0.1,0-0.3-0.1-0.3-0.3v-0.8L11.1,43.9L11.1,43.9z"/>
		</defs>
		<clipPath id="SVGID_4_">
			<use xlink:href="#SVGID_2_"  style="overflow:visible;"/>
		</clipPath>
		<g class="st2">
			<g>
				<g>
					<g id="_编组_4">
						<g>
							<rect id="SVGID_3_" x="-60.4" y="-5.9" class="st1" width="338.3" height="180"/>
						</g>
						<g id="_剪切组_">
							<defs>
								<rect id="SVGID_5_" x="-60.4" y="-5.9" width="338.3" height="180"/>
							</defs>
							<clipPath id="SVGID_6_">
								<use xlink:href="#SVGID_5_"  style="overflow:visible;"/>
							</clipPath>
							<g class="st3">
								<g id="_编组_5">
									<rect x="7" y="32.1" class="st1" width="10.8" height="13.4"/>
								</g>
							</g>
						</g>
					</g>
				</g>
			</g>
		</g>
	</g>
</g>
</svg>
