<?xml version="1.0" encoding="UTF-8"?>
<svg width="116px" height="32px" viewBox="0 0 116 32" version="1.1" xmlns="http://www.w3.org/2000/svg" xmlns:xlink="http://www.w3.org/1999/xlink">
    <!-- Generator: Sketch 51.1 (57501) - http://www.bohemiancoding.com/sketch -->
    <title>Group 20</title>
    <desc>Created with Sketch.</desc>
    <defs></defs>
    <g id="Page-1" stroke="none" stroke-width="1" fill="none" fill-rule="evenodd">
        <g id="G.55.com0930" transform="translate(-306.000000, -3236.000000)">
            <g id="Group-17" transform="translate(150.000000, 3019.000000)">
                <g id="Group-16" transform="translate(0.000000, 217.000000)">
                    <g id="Group-20" transform="translate(156.000000, 0.000000)">
                        <g id="IOS" transform="translate(8.000000, 4.000000)" fill-rule="nonzero" stroke="#FFFFFF">
                            <path d="M7.51827859,5.14237026 C8.49018784,5.40500275 9.76800951,6.40930935 11.5312547,5.49324727 C13.0098314,4.72636042 15.3732173,4.66332862 18.0361424,6.90515948 C18.2761987,7.10581068 18.749938,7.71091592 18.0361424,8.14793638 C18.0361424,8.14793638 16.3143228,9.25414438 16.2166008,10.978064 C16.1656154,11.8762671 16.0254056,13.4110913 17.3319065,14.5172993 C17.3319065,14.5172993 18.0478265,15.1329098 18.668149,15.3997444 C18.668149,15.3997444 19.4690447,15.78739 18.9368845,16.6404202 C18.9368845,16.6404202 17.7047373,19.3108673 15.6313309,21.231236 C14.8824828,21.9245857 13.5419916,22.3300903 11.6268523,21.5043738 C11.6268523,21.5043738 9.89972179,20.513724 7.88261177,21.6850649 C7.88261177,21.6850649 6.41147046,22.7355948 4.40392021,21.3236826 C4.40392021,21.3236826 2.21261007,20.40657 0.564082025,15.2180027 C-0.262306394,12.6158401 -0.304794214,9.60817295 1.28106426,7.53232584 C2.29015036,6.20865814 4.37524092,4.29249157 7.51827859,5.14237026 Z M12.8696215,3.99624213 C11.5769291,5.47959037 9.61823987,5.85147796 9.10626145,5.50270203 C8.64845502,5.18964411 8.81521976,3.14951502 10.1079122,1.66511625 C11.4006046,0.182818524 13.3900975,-0.254201914 13.7799234,0.13449414 C14.2048018,0.554706115 14.1591274,2.51394441 12.8696215,3.99624213 Z" id="Shape"></path>
                        </g>
                        <rect id="Rectangle-46-Copy" stroke="#FFFFFF" x="0.5" y="0.5" width="114.399239" height="30.4104438" rx="4"></rect>
                        <g id="Group-15-Copy" transform="translate(34.000000, 2.000000)" fill="#FFFFFF">
                            <text id="Download-on-the" font-family="Helvetica-Light, Helvetica" font-size="10" font-weight="300">
                                <tspan x="0" y="10">Download on the</tspan>
                            </text>
                            <text id="App-Store" font-family="Helvetica" font-size="12" font-weight="normal">
                                <tspan x="0" y="23">App Store</tspan>
                            </text>
                        </g>
                    </g>
                </g>
            </g>
        </g>
    </g>
</svg>