

<?xml version="1.0" encoding="UTF-8"?>
<svg width="12px" height="24px" id="图层_1" data-name="图层 1" xmlns="http://www.w3.org/2000/svg" viewBox="0 0 155.5 77.75"><defs><style>.cls-1{fill:#5a6cb1;}</style></defs><title>未标题-18</title><path class="cls-1" d="M0,24.42H5.6V35.53L15.88,24.42H23L12.32,35.37,23.74,51.25H16.41L8.33,39.45,5.6,42.24v9H0Z"/><path class="cls-1" d="M31.81,26.66H28V24.42H38.24v2.24h-3.8V37H31.81Z"/><path class="cls-1" d="M40.36,35.94a4.82,4.82,0,0,1-1.29-3.54,5,5,0,0,1,1.29-3.61,4.57,4.57,0,0,1,3.47-1.34,4.59,4.59,0,0,1,3.49,1.34A5,5,0,0,1,48.6,32.4a4.81,4.81,0,0,1-1.28,3.54,4.68,4.68,0,0,1-3.49,1.31A4.67,4.67,0,0,1,40.36,35.94Zm5.14-1.46a3.26,3.26,0,0,0,.58-2.1,3.4,3.4,0,0,0-.58-2.15,2.26,2.26,0,0,0-3.33,0,3.47,3.47,0,0,0-.57,2.15,3.33,3.33,0,0,0,.57,2.1,2.29,2.29,0,0,0,3.33,0Z"/><path class="cls-1" d="M52.06,37l-2.7-9.31H52l1.49,6.84h0l1.39-6.84H57.3l1.38,6.85,1.51-6.85h2.48L60,37h-2.5L56,30.08h0L54.57,37H52.06Z"/><path class="cls-1" d="M64,27.7H66.3v1.37a4.87,4.87,0,0,1,.32-.47,3.14,3.14,0,0,1,2.64-1.15,3,3,0,0,1,2.3.87,3.34,3.34,0,0,1,.84,2.42V37H69.94V31.19a1.86,1.86,0,0,0-.37-1.28,1.45,1.45,0,0,0-1.14-.42,1.89,1.89,0,0,0-1.49.59,2.44,2.44,0,0,0-.52,1.67V37H64Z"/><path class="cls-1" d="M32.19,46.11A2.15,2.15,0,0,1,33,47.59h-.83a1.49,1.49,0,0,0-.5-1,1.72,1.72,0,0,0-1.05-.3,1.51,1.51,0,0,0-1.26.6,3.05,3.05,0,0,0,0,3.14,1.47,1.47,0,0,0,1.26.58,1.44,1.44,0,0,0,1.58-1.41H33a2.63,2.63,0,0,1-.81,1.59,2.45,2.45,0,0,1-1.62.53,2.37,2.37,0,0,1-1.91-.82,3.52,3.52,0,0,1,0-4,2.31,2.31,0,0,1,1.92-.87A2.56,2.56,0,0,1,32.19,46.11Z"/><path class="cls-1" d="M38.35,46.47a3,3,0,0,1,.7,2,3,3,0,0,1-.69,2,2.45,2.45,0,0,1-2,.86,2.42,2.42,0,0,1-1.95-.86,2.93,2.93,0,0,1-.7-2,3,3,0,0,1,.7-2,2.67,2.67,0,0,1,3.89,0ZM35.06,47a2.83,2.83,0,0,0,0,3,1.55,1.55,0,0,0,1.35.66A1.61,1.61,0,0,0,37.76,50a2.83,2.83,0,0,0,0-3,1.61,1.61,0,0,0-1.35-.66A1.55,1.55,0,0,0,35.06,47Z"/><path class="cls-1" d="M44.22,46.66a1.94,1.94,0,0,1,.76-.77,1.77,1.77,0,0,1,1-.26,1.87,1.87,0,0,1,1.38.54,2.13,2.13,0,0,1,.51,1.48v3.57H47V47.79a1.55,1.55,0,0,0-.31-1.07,1.22,1.22,0,0,0-1-.37,1.09,1.09,0,0,0-.89.4,1.47,1.47,0,0,0-.37,1.06v3.41h-.84V47.79c0-1-.42-1.44-1.25-1.44a1.17,1.17,0,0,0-1,.46,1.65,1.65,0,0,0-.38,1.1v3.31h-.84V45.78H41v.73a1.81,1.81,0,0,1,1.54-.88A1.7,1.7,0,0,1,44.22,46.66Z"/><path class="cls-1" d="M53.22,46.66a1.88,1.88,0,0,1,.76-.77,1.71,1.71,0,0,1,1-.26,1.87,1.87,0,0,1,1.38.54,2.14,2.14,0,0,1,.52,1.48v3.57H56V47.79a1.61,1.61,0,0,0-.3-1.07,1.22,1.22,0,0,0-1-.37,1.09,1.09,0,0,0-.89.4,1.47,1.47,0,0,0-.37,1.06v3.41h-.84V47.79q0-1.44-1.26-1.44a1.14,1.14,0,0,0-1,.46,1.6,1.6,0,0,0-.38,1.1v3.31h-.84V45.78H50v.73a1.8,1.8,0,0,1,1.53-.88A1.7,1.7,0,0,1,53.22,46.66Z"/><path class="cls-1" d="M58.13,45.78H59V49.1a1.69,1.69,0,0,0,.33,1.16,1.33,1.33,0,0,0,1.07.39,1.38,1.38,0,0,0,1-.42,2,2,0,0,0,.54-1.14V45.78h.84v5.44h-.84v-.84a2.06,2.06,0,0,1-1.77,1q-2,0-2-2.22Z"/><path class="cls-1" d="M68.6,47.87v3.35h-.84V47.94c0-1.06-.48-1.59-1.43-1.59a1.31,1.31,0,0,0-1,.41,1.8,1.8,0,0,0-.49,1.18v3.28H64V45.78h.84v.8a1.85,1.85,0,0,1,.73-.69,1.94,1.94,0,0,1,1-.26C67.92,45.63,68.6,46.38,68.6,47.87Z"/><path class="cls-1" d="M71.05,43.91a.52.52,0,0,1,.19.44.6.6,0,0,1-.19.45.65.65,0,0,1-.9,0,.61.61,0,0,1-.18-.45.53.53,0,0,1,.18-.44.65.65,0,0,1,.9,0Zm-.87,1.87H71v5.44h-.84Z"/><path class="cls-1" d="M74.05,44v1.76H75.4v.7H74.05V50a.6.6,0,0,0,.12.43.49.49,0,0,0,.4.13h.69v.71h-.82a1.18,1.18,0,0,1-1-.35,1.4,1.4,0,0,1-.26-.92V46.48h-1.1v-.7h1.1V44.37Z"/><path class="cls-1" d="M75.73,45.78h.92l1.66,4.29,1.61-4.29h.93l-3,7.52H77l.94-2.21Z"/></svg>