<svg id="图层_1" data-name="图层 1" xmlns="http://www.w3.org/2000/svg" viewBox="0 0 155.5 77.75"><defs><style>.cls-1{fill:#5a6cb1;}</style></defs><title>logo_new_0911</title><path class="cls-1" d="M0,28H9.14A5.31,5.31,0,0,1,13,29.29,6.1,6.1,0,0,1,14.65,32a6.52,6.52,0,0,1,.19,1,6,6,0,0,1,.07.93,6.39,6.39,0,0,1-.43,2.56,4.48,4.48,0,0,1-.94,1.41,3.59,3.59,0,0,1-.5.42l-.43.28a4.23,4.23,0,0,1,2.31,2.32,8.72,8.72,0,0,1,.59,3.22,7.7,7.7,0,0,1-.44,2.59,7.18,7.18,0,0,1-1.18,2.11l-.05,0a.07.07,0,0,0,0,0,6.05,6.05,0,0,1-1.93,1.41A10.33,10.33,0,0,1,8,50.88H0Zm3.76,9H8.38a3.19,3.19,0,0,0,2-.55,2.23,2.23,0,0,0,.81-1.94,2.25,2.25,0,0,0-.78-2A3.76,3.76,0,0,0,8.25,32H3.76Zm0,10H8.57a2.93,2.93,0,0,0,2.23-.77,3.54,3.54,0,0,0,.79-2.56,2.47,2.47,0,0,0-.85-2.12,3.31,3.31,0,0,0-1.88-.67H3.76Z"/><path class="cls-1" d="M22.78,46.74h9.33v4.14H18.86V28h3.92Z"/><path class="cls-1" d="M34,39q0-4.86,1.56-7.33A9.67,9.67,0,0,1,39,28.2a8.91,8.91,0,0,1,2.26-.8A10.56,10.56,0,0,1,43,27.2a10.66,10.66,0,0,1,1.79.2,9,9,0,0,1,2.26.8,9.67,9.67,0,0,1,3.41,3.49Q52,34.17,52,39.05c0,3.27-.52,5.72-1.56,7.37a9.55,9.55,0,0,1-3.41,3.48,8.9,8.9,0,0,1-2.26.77,9.85,9.85,0,0,1-1.79.21,9.75,9.75,0,0,1-1.78-.21A8.77,8.77,0,0,1,39,49.9a9.55,9.55,0,0,1-3.41-3.48c-1-1.65-1.56-4.1-1.56-7.37Zm3.92-.18A10.46,10.46,0,0,0,39,44.31a5.31,5.31,0,0,0,2.45,2.27,3.8,3.8,0,0,0,.78.22,5.14,5.14,0,0,0,.75.06,4.93,4.93,0,0,0,.75-.06,3.48,3.48,0,0,0,.78-.22A5.31,5.31,0,0,0,47,44.31a10.27,10.27,0,0,0,1.12-5.44A10.32,10.32,0,0,0,47,33.42a5.29,5.29,0,0,0-2.45-2.26,3,3,0,0,0-.78-.22,4,4,0,0,0-.75-.07,4.11,4.11,0,0,0-.75.07,3.26,3.26,0,0,0-.78.22A5.29,5.29,0,0,0,39,33.42a10.42,10.42,0,0,0-1.11,5.45Z"/><path class="cls-1" d="M71,35.05H67.12l-.18-.69a4.26,4.26,0,0,0-.3-.82,4.94,4.94,0,0,0-1.2-1.63A3.57,3.57,0,0,0,63,31.17a4.24,4.24,0,0,0-.68.07,3.32,3.32,0,0,0-.75.22,4.94,4.94,0,0,0-2.21,2.22,11.12,11.12,0,0,0-1,5.41,12.87,12.87,0,0,0,1.07,5.39A3.68,3.68,0,0,0,63,46.81a3.64,3.64,0,0,0,2.71-1.09,5.75,5.75,0,0,0,1.44-3.17l3.91,0a11.91,11.91,0,0,1-2.61,6,7,7,0,0,1-5.54,2.32,7.54,7.54,0,0,1-6.16-3c-1.61-2-2.41-5-2.41-8.86s.83-6.93,2.5-8.93a7.68,7.68,0,0,1,6.13-3,7.08,7.08,0,0,1,5.12,1.76,9.58,9.58,0,0,1,2.53,3.91,10.75,10.75,0,0,1,.3,1.18A9.25,9.25,0,0,1,71,35.08Z"/><path class="cls-1" d="M78.2,50.88H74.28V28H78.2v9.3L85.37,28h5.06l-7.64,9.36,8.09,13.51h-5l-5.8-10-1.85,2.3Z"/><path class="cls-1" d="M96.45,37.18H97a3.45,3.45,0,0,0,.57,0,3,3,0,0,0,.64-.12,2.56,2.56,0,0,0,1.29-.79,3.15,3.15,0,0,0,.59-2.14,4.72,4.72,0,0,0-.05-.57,5.78,5.78,0,0,0-.14-.7,3.37,3.37,0,0,0-.71-1.12,1.85,1.85,0,0,0-1.43-.51,2,2,0,0,0-1.59.61,3.26,3.26,0,0,0-.7,1.34,3.92,3.92,0,0,0-.18,1c0,.32,0,.56,0,.73l-3.41,0a8.58,8.58,0,0,1,1.49-5.19,5.4,5.4,0,0,1,4.66-2,6.29,6.29,0,0,1,.73,0,5.55,5.55,0,0,1,.73.15,5.87,5.87,0,0,1,2.93,1.8A6.08,6.08,0,0,1,103.78,34a4.93,4.93,0,0,1-.61,2.58,5.07,5.07,0,0,1-1.3,1.53l-.18.11a.7.7,0,0,1-.14.08v0l.56.3a3.7,3.7,0,0,1,.75.59,5.32,5.32,0,0,1,1,1.62,7,7,0,0,1,.46,2.77,7.73,7.73,0,0,1-1.75,5.23,5.73,5.73,0,0,1-4.55,2,11.84,11.84,0,0,1-1.29-.1,5.09,5.09,0,0,1-1.61-.48,5.74,5.74,0,0,1-2.46-2.12,8.43,8.43,0,0,1-1.11-4.82l3.57,0v0c0,.23,0,.5,0,.8a4.56,4.56,0,0,0,.16.92,3.79,3.79,0,0,0,.76,1.56,2.12,2.12,0,0,0,1.75.7,2.47,2.47,0,0,0,1.93-.93,4.17,4.17,0,0,0,.81-2.81,2.75,2.75,0,0,0-.89-2.4,4.06,4.06,0,0,0-2-.77l-.66,0-.62,0Z"/><path class="cls-1" d="M118.62,33.39H115a2.5,2.5,0,0,0-.59-1.53,1.94,1.94,0,0,0-1.54-.61,2.26,2.26,0,0,0-2.22,1.66,13.81,13.81,0,0,0-.78,3.66c0,.15,0,.31,0,.47s0,.31,0,.46l0,0a1.17,1.17,0,0,0,.14-.19,1.42,1.42,0,0,1,.18-.22,4.06,4.06,0,0,1,1.15-1,3.77,3.77,0,0,1,2-.45,4.71,4.71,0,0,1,4.11,2,8.16,8.16,0,0,1,1.53,4.38,1.71,1.71,0,0,1,0,.31v.3a9.72,9.72,0,0,1-1.67,6,5.19,5.19,0,0,1-4.38,2.27c-2.76,0-4.57-1.16-5.41-3.46a22.27,22.27,0,0,1-1.31-7.6v-.28c0-.64,0-1.35,0-2.12a18.56,18.56,0,0,1,.24-2.34A13.19,13.19,0,0,1,108.32,30q1.41-2.31,4.79-2.31a5.33,5.33,0,0,1,.86.08,6.26,6.26,0,0,1,1.12.27,6.89,6.89,0,0,1,1,.46,2.79,2.79,0,0,1,.81.65c.13.15.25.29.35.42a3.47,3.47,0,0,1,.29.38,5.56,5.56,0,0,1,.65,1.37,12.18,12.18,0,0,1,.43,2.1ZM115.34,43a4.45,4.45,0,0,0-.6-2.55,2.67,2.67,0,0,0-1.34-1.08,2,2,0,0,0-.38-.1l-.35,0h-.16a2.68,2.68,0,0,0-1.82,1,4.24,4.24,0,0,0-.83,2.93,5.28,5.28,0,0,0,.8,3,2.42,2.42,0,0,0,2.1,1.18,2.25,2.25,0,0,0,1.8-1,5.45,5.45,0,0,0,.78-3.3Z"/><path class="cls-1" d="M120.76,39.25c0-4,.52-6.87,1.57-8.74a5.6,5.6,0,0,1,9.72,0c1,1.87,1.57,4.8,1.57,8.77s-.52,6.9-1.57,8.78a5.6,5.6,0,0,1-9.72,0q-1.58-2.82-1.57-8.78Zm3.76,0a24.37,24.37,0,0,0,.55,6.24c.37,1.23,1.08,1.85,2.12,1.85a2.16,2.16,0,0,0,2.13-1.85,24.2,24.2,0,0,0,.55-6.21,24,24,0,0,0-.55-6.19,2.15,2.15,0,0,0-4.25,0,24,24,0,0,0-.55,6.19Z"/></svg>