<?xml version="1.0" encoding="utf-8"?>
<!-- Generator: Adobe Illustrator 22.1.0, SVG Export Plug-In . SVG Version: 6.00 Build 0)  -->
<svg version="1.1" id="图层_1" xmlns="http://www.w3.org/2000/svg" xmlns:xlink="http://www.w3.org/1999/xlink" x="0px" y="0px"
	 viewBox="0 0 216 53" style="enable-background:new 0 0 216 53;" xml:space="preserve">
<style type="text/css">
	.st0{fill:#FFFFFF;}
</style>
<g>
	<path class="st0" d="M211.8,16.4c-2.6-2.6-6.1-4-9.8-4c-3.6,0-7,1.4-9.6,3.9c-2.6-2.5-6-3.9-9.6-3.9c-3.7,0-7.2,1.4-9.8,4
		c-2.6,2.6-4,6.1-4,9.8v3.2v1.1v22.3h8.5V30.4v-1.1v-3.2c0-1.4,0.6-2.8,1.6-3.8c1-1,2.3-1.6,3.8-1.6c1.4,0,2.8,0.6,3.8,1.6
		c1,1,1.6,2.3,1.6,3.8v4.2v22.2h8.5V30.4v-4.2c0-1.4,0.6-2.8,1.6-3.8c1-1,2.3-1.6,3.8-1.6c1.4,0,2.8,0.6,3.8,1.6
		c1,1,1.6,2.3,1.6,3.8v26.5h8.5V26.2C215.9,22.5,214.5,19,211.8,16.4z"/>
	<path class="st0" d="M149.1,11.2c-3.3-0.6-6.7-0.4-10,0.6v0c-3.1,1-6.1,2.7-8.4,5c-2.6,2.6-4.2,6-5.9,9.2c-1.7,3.2-3.3,6.5-5.1,9.8
		c-1.6,2.9-3.4,5.5-6.5,6.9v0c-5.9,2.7-13.2,0-15.8-5.9c-2.5-5.7-0.2-12.7,5.4-15.6c3.2-1.6,7.2-1.8,10.4-0.3v0
		c3.3,1.5,5,4.2,6.7,7.3l4.8-9c-0.5-0.7-1.1-1.4-1.8-2l0,0c-4.5-4.5-11.1-6.7-17.4-5.8c-6,0.9-11.5,4.4-14.7,9.4
		c-3.8,5.9-4.1,13.6-1.2,19.9c2.6,5.5,7.8,9.6,13.6,11.1c7,1.8,14.6-0.3,19.7-5.3l0,0c1.6-1.6,2.8-3.6,3.9-5.6
		c0.2,0.3,0.3,0.7,0.5,1h0c3.7,6.6,10.8,10.8,18.4,10.7c6.9-0.1,13.5-3.6,17.3-9.4c2.2-3.3,3.4-7.3,3.4-11.2
		C166.6,21.8,159.1,12.8,149.1,11.2z M157.4,34.3c-1.2,5.5-6.1,9.5-11.8,9.5c-4.9,0-9.5-3.1-11.2-7.7c-1.8-4.7-0.4-10.1,3.3-13.3
		c3.9-3.4,9.5-3.8,13.8-1.2C155.8,24.2,158.4,29.3,157.4,34.3z"/>
	<path class="st0" d="M81.8,43.9L81.8,43.9c-2.4,0-4.4,2-4.4,4.4v0c0,2.4,2,4.4,4.4,4.4h0c2.4,0,4.4-2,4.4-4.4v0
		C86.2,45.8,84.3,43.9,81.8,43.9z"/>
	<path class="st0" d="M31.3,35.9c-1.6,5.4-7,8.9-12.5,8.2C13,43.4,8.6,38.4,8.6,32.6H0.1C0.1,40.5,5,48,12.4,51.1
		c7.4,3.1,16.3,1.4,22-4.3l0,0c0.6-0.6,1.2-1.3,1.7-2L31.3,35.9z"/>
	<path class="st0" d="M64.3,14.4c-4-1.8-8.4-2.2-12.6-1.3l2-4.8h18.6V0.3H57.1h-7.5h-1L40.4,20c-0.1,0.1-0.2,0.3-0.3,0.4l4.8,8.9
		c2.9-9.8,16.7-11.1,21.4-2.1c5,9.5-5.2,20.4-15.1,15.9v0c-3.8-1.7-5.5-5.2-7.3-8.7c-1.6-3-3.2-5.9-4.7-8.9
		c-1.8-3.4-3.5-6.4-6.5-8.8c-3.6-2.8-8.1-4.4-12.7-4.3c-1.3,0-2.7,0.2-4,0.5l2-4.8h18.6V0.3H21.2h-7.5h-1l-8.5,20c0,0,0,0,0,0
		L9,29.3c2-6.6,9.6-10.1,15.9-7.3v0c3.6,1.6,5.2,4.7,6.9,7.9c1.5,2.7,2.9,5.4,4.4,8.2c0.8,1.5,1.6,3,2.4,4.5c2.3,4.3,6.5,7.6,11.2,9
		v0c12.9,4.1,26.4-6.1,26.1-19.6C75.8,24.6,71.2,17.5,64.3,14.4z"/>
</g>
</svg>
