<?xml version="1.0" encoding="UTF-8"?>
<svg width="54px" height="60px" viewBox="0 0 54 60" version="1.1" xmlns="http://www.w3.org/2000/svg" xmlns:xlink="http://www.w3.org/1999/xlink">
    <!-- Generator: Sketch 50.2 (55047) - http://www.bohemiancoding.com/sketch -->
    <title>mining </title>
    <desc>Created with Sketch.</desc>
    <defs></defs>
    <g id="Page-1" stroke="none" stroke-width="1" fill="none" fill-rule="evenodd">
        <g id="G.55.com" transform="translate(-194.000000, -1269.000000)">
            <g id="mining-" transform="translate(194.000000, 1269.000000)">
                <path d="M4,2 C2.8954305,2 2,2.8954305 2,4 L2,34 C2,35.1045695 2.8954305,36 4,36 L50,36 C51.1045695,36 52,35.1045695 52,34 L52,4 C52,2.8954305 51.1045695,2 50,2 L4,2 Z M4,0 L50,0 C52.209139,-4.05812251e-16 54,1.790861 54,4 L54,34 C54,36.209139 52.209139,38 50,38 L4,38 C1.790861,38 2.705415e-16,36.209139 0,34 L0,4 C-2.705415e-16,1.790861 1.790861,4.05812251e-16 4,0 Z" id="Rectangle" fill="#FFFFFF" fill-rule="nonzero"></path>
                <rect id="Rectangle-12" fill="#FFFFFF" x="31" y="54" width="23" height="2" rx="1"></rect>
                <rect id="Rectangle-12" fill="#FFFFFF" x="0" y="54" width="23" height="2" rx="1"></rect>
                <rect id="Rectangle-23" fill="#FFFFFF" x="26" y="36" width="2" height="15"></rect>
                <rect id="Rectangle-25" fill="#FFFFFF" x="0" y="18" width="54" height="2"></rect>
                <rect id="Rectangle-26" fill="#FFFFFF" x="6" y="8" width="3" height="5" rx="1"></rect>
                <rect id="Rectangle-26-Copy" fill="#FFFFFF" x="12" y="8" width="3" height="5" rx="1"></rect>
                <rect id="Rectangle-26" fill="#FFFFFF" x="6" y="25" width="3" height="5" rx="1"></rect>
                <rect id="Rectangle-26-Copy" fill="#FFFFFF" x="12" y="25" width="3" height="5" rx="1"></rect>
                <rect id="Rectangle-27" fill="#FFFFFF" x="26" y="10" width="22" height="2" rx="1"></rect>
                <rect id="Rectangle-27-Copy" fill="#FFFFFF" x="26" y="26" width="22" height="2" rx="1"></rect>
                <path d="M27,58 C28.6568542,58 30,56.6568542 30,55 C30,53.3431458 28.6568542,52 27,52 C25.3431458,52 24,53.3431458 24,55 C24,56.6568542 25.3431458,58 27,58 Z M27,60 C24.2385763,60 22,57.7614237 22,55 C22,52.2385763 24.2385763,50 27,50 C29.7614237,50 32,52.2385763 32,55 C32,57.7614237 29.7614237,60 27,60 Z" id="Path" fill="#FFFFFF" fill-rule="nonzero"></path>
                <circle id="Oval-2" fill="#406FFD" cx="27" cy="55" r="3"></circle>
            </g>
        </g>
    </g>
</svg>