<?xml version="1.0" standalone="no"?><!DOCTYPE svg PUBLIC "-//W3C//DTD SVG 1.1//EN" "http://www.w3.org/Graphics/SVG/1.1/DTD/svg11.dtd"><svg class="icon" width="14px" height="14.00px" viewBox="0 0 1024 1024" version="1.1" xmlns="http://www.w3.org/2000/svg"><path d="M564.118304 482.991329L252.746407 193.391139c-12.649483-11.311557-31.988597-10.33852-43.543414 2.067704-11.554816 12.406224-11.068298 31.745338 1.094667 43.543414l287.410856 267.341964L209.932771 785.484262c-12.284594 11.919705-12.649483 31.623708-0.608148 44.029932 11.919705 12.284594 31.623708 12.649483 44.029932 0.729778l311.371897-301.884784c6.081482-5.959853 9.608742-14.109039 9.487113-22.623115-0.243259-8.757335-3.770519-16.906521-10.095261-22.744744" fill="#8aa8ff" /><path d="M831.217009 482.991329L519.845112 193.391139c-12.649483-11.311557-31.988597-10.33852-43.543413 2.067704-11.554816 12.406224-11.068298 31.745338 1.094666 43.543414l287.410857 267.341964-287.897375 279.140041c-12.284594 11.919705-12.649483 31.623708-0.608148 44.029932 11.919705 12.284594 31.623708 12.649483 44.029932 0.729778l311.371897-301.884784c6.081482-5.959853 9.608742-14.109039 9.487112-22.623115-0.12163-8.757335-3.770519-16.906521-9.973631-22.744744" fill="#8aa8ff" /></svg>