<?xml version="1.0" encoding="UTF-8"?>
<svg width="96px" height="82px" viewBox="0 0 96 82" version="1.1" xmlns="http://www.w3.org/2000/svg" xmlns:xlink="http://www.w3.org/1999/xlink">
    <!-- Generator: Sketch 50.2 (55047) - http://www.bohemiancoding.com/sketch -->
    <title>super_miner@2x</title>
    <desc>Created with Sketch.</desc>
    <defs></defs>
    <g id="Page-1" stroke="none" stroke-width="1" fill="none" fill-rule="evenodd">
        <g id="登录后首页" transform="translate(-262.000000, -1062.000000)">
            <g id="super_miner" transform="translate(263.000000, 1063.000000)">
                <rect id="矩形_817" stroke="#6179D6" x="0" y="0" width="94" height="80"></rect>
                <rect id="矩形_817_拷贝_2" stroke="#5460CB" fill-opacity="0.67747962" fill="#8AA8FF" fill-rule="nonzero" x="0" y="0" width="94" height="15"></rect>
                <rect id="矩形_820_拷贝_2" fill="#5460CB" fill-rule="nonzero" x="81" y="7" width="3" height="1"></rect>
                <rect id="矩形_820" fill="#5460CB" fill-rule="nonzero" x="6" y="7" width="66" height="1"></rect>
                <rect id="矩形_820_拷贝" fill="#5460CB" fill-rule="nonzero" x="76" y="7" width="3" height="1"></rect>
                <rect id="矩形_820_拷贝_3" fill="#5460CB" fill-rule="nonzero" x="86" y="7" width="3" height="1"></rect>
                <rect id="矩形_820_拷贝_4" fill="#5460CB" fill-rule="nonzero" x="11" y="27" width="3" height="1"></rect>
                <rect id="矩形_820_拷贝_5" fill="#5460CB" fill-rule="nonzero" x="16" y="27" width="3" height="1"></rect>
                <rect id="矩形_820_拷贝_6" fill="#5460CB" fill-rule="nonzero" x="20" y="27" width="3" height="1"></rect>
                <rect id="矩形_820_拷贝_7" fill="#5460CB" fill-rule="nonzero" x="25" y="27" width="3" height="1"></rect>
                <rect id="矩形_820_拷贝_8" fill="#5460CB" fill-rule="nonzero" x="29" y="27" width="3" height="1"></rect>
                <rect id="矩形_817_拷贝" stroke="#5460CB" x="6" y="19" width="83" height="56"></rect>
                <rect id="矩形_830" fill="#5460CB" fill-rule="nonzero" x="64" y="68" width="20" height="2"></rect>
                <text id="&lt;/&gt;" font-family="PingFang-SC-Medium, PingFang SC" font-size="20" font-weight="400" fill="#5460CB">
                    <tspan x="30" y="55">&lt;/&gt;</tspan>
                </text>
            </g>
        </g>
    </g>
</svg>