<?xml version="1.0" encoding="UTF-8"?>
<svg width="59px" height="60px" viewBox="0 0 59 60" version="1.1" xmlns="http://www.w3.org/2000/svg" xmlns:xlink="http://www.w3.org/1999/xlink">
    <!-- Generator: Sketch 50.2 (55047) - http://www.bohemiancoding.com/sketch -->
    <title>super_miner</title>
    <desc>Created with Sketch.</desc>
    <defs></defs>
    <g id="Page-1" stroke="none" stroke-width="1" fill="none" fill-rule="evenodd">
        <g id="G.55.com" transform="translate(-606.000000, -1269.000000)">
            <g id="super_miner" transform="translate(606.000000, 1269.000000)">
                <polygon id="Path" fill="#406FFD" points="39 38 44 40.7050826 44 59 39 59"></polygon>
                <polygon id="Path" fill="#406FFD" transform="translate(16.500000, 48.500000) scale(-1, 1) translate(-16.500000, -48.500000) " points="14 38 19 40.7050826 19 59 14 59"></polygon>
                <path d="M15.1515151,57.9996203 C15.1515151,58.2167454 14.7442424,58.3939393 14.2424242,58.3939394 C13.7406061,58.3939395 13.3333333,58.2167454 13.3333333,57.9996203 L13.3333333,40.0705799 C13.3333333,39.8534548 13.7406061,39.6762608 14.2424242,39.6762608 C14.7442424,39.6762608 15.1515151,39.8534549 15.1515151,40.0705799 L15.1515151,57.9996203 Z M20,57.9459629 C20,58.1930363 19.5927273,58.3939393 19.0909091,58.3939394 C18.5890909,58.3939395 18.1818182,58.1942841 18.1818182,57.9459629 L18.1818182,37.6297946 C18.1818182,37.3827212 18.5890909,37.1818182 19.0909091,37.1818182 C19.5927272,37.1818182 19.9999999,37.3814734 20,37.6297946 L20,57.9447151 L20,57.9459629 Z" id="Shape" fill="#FFFFFF" fill-rule="nonzero"></path>
                <path d="M57.6494707,53.1559343 C58.404183,54.5896525 58.3535387,56.3130756 57.5159357,57.7001232 C56.6783327,59.0871707 55.1756514,59.9360121 53.5537819,59.9382825 L4.64033215,59.9999964 C3.0167693,60.0020254 1.51052359,59.1554154 0.669784176,57.768285 C-0.170955242,56.3811546 -0.223585182,54.6557859 0.531048709,53.2201167 C6.63379804,41.6055768 16.1982325,35.7575758 29.1007646,35.7575758 C42.000825,35.7575758 51.5578442,41.5833598 57.6494707,53.1559343 Z M56.0094649,54.0174592 C50.2366941,43.0509143 41.3087351,37.6089902 29.1007646,37.6089902 C16.8915582,37.6089902 7.95741988,43.0718971 2.17229028,54.0804073 C1.71928611,54.9420227 1.75092337,55.9775899 2.25568176,56.8100207 C2.76044015,57.6424516 3.66466559,58.1502781 4.63909626,58.1485819 L53.5513101,58.0868681 C54.524564,58.0857647 55.4264107,57.5765631 55.9291518,56.7442889 C56.4318929,55.9120146 56.4623533,54.8778068 56.0094649,54.0174592 Z" id="Shape" fill="#FFFFFF" fill-rule="nonzero"></path>
                <path d="M28.4620605,34.5147013 C35.6729435,34.5147013 41.5362512,28.748489 41.7000789,21.5721556 L15.224042,21.5721556 C15.3878697,28.748489 21.2511774,34.5147013 28.4620605,34.5147013 Z M43.4997202,19.7232205 L43.5366738,20.6082441 C43.5465281,20.8264185 43.5514553,21.0445928 43.5514553,21.2639997 C43.5514553,29.6026971 36.7951018,36.3636364 28.4620605,36.3636364 C20.1290191,36.3636364 13.3726656,29.6026971 13.3726656,21.2639997 C13.3726656,21.0445928 13.3775928,20.8264185 13.3862152,20.6082441 L13.4244007,19.7232205 L43.4997202,19.7232205 Z M34.644401,9.24592161 C32.4334347,9.24592158 30.6410923,7.45236266 30.6410922,5.23989561 L30.6410922,1.99686343 C29.2107118,1.80041064 27.760217,1.80041064 26.3298365,1.99686343 L26.3298365,5.23989561 C26.3395541,7.39481177 24.6439858,9.17132004 22.4923567,9.26056211 C20.3407277,9.34980418 18.5040608,7.7198007 18.3355368,5.57147128 C15.2181879,8.20908753 13.2520703,11.9595846 12.8553149,16.0253503 L44.1180774,16.0253503 C43.7206893,11.9592166 41.7536586,8.20866387 38.635392,5.57147128 C38.46298,7.64877936 36.7274475,9.24666019 34.644401,9.24592161 Z M38.2375247,2.95954229 C42.9236084,6.08965484 45.8213145,11.2822843 46.026116,16.916537 L46.0606061,17.8742854 L10.9090909,17.8742854 L10.943581,16.916537 C11.1486619,11.2820562 14.0468518,6.08938111 18.7334041,2.95954229 C19.0167389,2.76988336 19.3814204,2.75176651 19.6821342,2.91241076 C19.9828479,3.07305501 20.1707242,3.38635361 20.1708999,3.72746667 L20.1708999,5.23989561 C20.1708999,6.43122401 21.1360074,7.39698648 22.3265277,7.39698648 C23.5170481,7.39698648 24.4821555,6.43122401 24.4821556,5.23989561 L24.4821556,1.21044973 C24.482271,0.765570183 24.7990222,0.383864089 25.2360094,0.302006259 C27.3836257,-0.100668753 29.5873031,-0.100668753 31.7349194,0.302006259 C32.1719066,0.383864064 32.4886579,0.765570165 32.4887732,1.21044973 L32.4887732,5.23989561 C32.4889701,6.43108474 33.4540199,7.39662987 34.6444011,7.39662987 C35.8347823,7.39662987 36.7998321,6.43108474 36.8000289,5.23989561 L36.8000289,3.72746667 C36.8002046,3.38635359 36.9880808,3.07305497 37.2887946,2.91241072 C37.5895084,2.75176646 37.9541899,2.76988332 38.2375247,2.95954229 Z" id="Shape" fill="#FFFFFF" fill-rule="nonzero"></path>
                <path d="M8.19309266,18.2077922 C7.68478889,18.2077922 7.27272727,17.7949639 7.27272727,17.2857143 C7.27272727,16.7764647 7.68478889,16.3636364 8.19309266,16.3636364 L49.9887255,16.3636364 C50.4970293,16.3636364 50.9090909,16.7764647 50.9090909,17.2857143 C50.9090909,17.7949639 50.4970293,18.2077922 49.9887255,18.2077922 L8.19309266,18.2077922 Z M44.7009196,58.0054372 C44.7009196,58.2193593 44.2885959,58.3939393 43.7805542,58.3939394 C43.2725125,58.3939395 42.8601888,58.2193593 42.8601888,58.0054372 L42.8601888,40.3408831 C42.8601888,40.126961 43.2725125,39.952381 43.7805542,39.952381 C44.2885958,39.952381 44.7009195,40.1269611 44.7009196,40.3408831 L44.7009196,58.0054372 Z M39.7923042,57.9525714 C39.7923042,58.196 39.3799805,58.3939393 38.8719388,58.3939394 C38.3638971,58.3939395 37.9515734,58.1972294 37.9515734,57.9525714 L37.9515734,37.9361039 C37.9515734,37.6926753 38.3638971,37.4947359 38.8719388,37.4947359 C39.3799805,37.4947359 39.7923042,37.6914459 39.7923042,37.9361039 L39.7923042,57.951342 L39.7923042,57.9525714 Z M25.3732465,31.7316017 C24.8649427,31.7316017 24.4528811,31.3187734 24.4528811,30.8095238 C24.4528811,30.3002742 24.8649427,29.8874459 25.3732465,29.8874459 L31.630504,29.8874459 C32.1388078,29.8874459 32.5508694,30.3002742 32.5508694,30.8095238 C32.5508694,31.3187734 32.1388078,31.7316017 31.630504,31.7316017 L25.3732465,31.7316017 Z" id="Shape" fill="#FFFFFF" fill-rule="nonzero"></path>
            </g>
        </g>
    </g>
</svg>