<?xml version="1.0" encoding="UTF-8"?>
<svg width="50px" height="18px" viewBox="0 0 50 18" version="1.1" xmlns="http://www.w3.org/2000/svg" xmlns:xlink="http://www.w3.org/1999/xlink">
    <!-- Generator: Sketch 50.2 (55047) - http://www.bohemiancoding.com/sketch -->
    <title>town-01</title>
    <desc>Created with Sketch.</desc>
    <defs></defs>
    <g id="Page-1" stroke="none" stroke-width="1" fill="none" fill-rule="evenodd">
        <g id="G.55.com0928标注" transform="translate(-778.000000, -1816.000000)" fill="#FFFFFF" fill-rule="nonzero">
            <g id="town-01" transform="translate(778.000000, 1816.000000)">
                <polygon id="Shape" points="13.9726027 0.136986301 9.65753425 0.136986301 3.42465753 6.84931507 3.42465753 0.0684931507 0 0.0684931507 0 16.369863 3.42465753 16.369863 3.42465753 10.890411 5.06849315 9.17808219 10 16.369863 14.4520548 16.369863 7.53424658 6.71232877"></polygon>
                <polygon id="Shape" points="19.9315068 7.67123288 21.5068493 7.67123288 21.5068493 1.36986301 23.8356164 1.36986301 23.8356164 0 17.6027397 0 17.6027397 1.36986301 19.9315068 1.36986301"></polygon>
                <path d="M25.1369863,2.73972603 C24.5896291,3.33235733 24.3162681,4.12758938 24.3835616,4.93150685 C24.328181,5.71329104 24.6012224,6.48277131 25.1369863,7.05479452 C26.3398833,8.15202823 28.1806647,8.15202823 29.3835616,7.05479452 C29.9108769,6.47766384 30.1825886,5.71193084 30.1369863,4.93150685 C30.2042798,4.12758938 29.9309188,3.33235733 29.3835616,2.73972603 C28.1806647,1.64249232 26.3398833,1.64249232 25.1369863,2.73972603 Z M28.2876712,6.16438356 L28.1506849,6.30136986 C27.5813588,6.78735654 26.7273486,6.72635581 26.2328767,6.16438356 C25.9850852,5.77723608 25.8652816,5.32198246 25.890411,4.8630137 C25.8652816,4.40404494 25.9850852,3.94879132 26.2328767,3.56164384 L26.369863,3.42465753 C26.9391891,2.93867086 27.7931993,2.99967159 28.2876712,3.56164384 C28.5354627,3.94879132 28.6552663,4.40404494 28.630137,4.8630137 C28.6975496,5.32531688 28.5739102,5.79514658 28.2876712,6.16438356 Z" id="Shape"></path>
                <polygon id="Shape" points="38.630137 2.05479452 37.1232877 2.05479452 36.2328767 6.16438356 35.4109589 2.05479452 33.9041096 2.05479452 33.0821918 6.16438356 32.1917808 2.05479452 30.6164384 2.05479452 32.260274 7.67123288 33.6986301 7.73972603 34.5890411 3.49315068 35.4794521 7.73972603 36.9863014 7.73972603"></polygon>
                <path d="M43.1506849,7.80821918 L44.5890411,7.80821918 L44.5890411,3.97260274 C44.6421842,3.42587028 44.4688965,2.88125161 44.109589,2.46575342 C43.755235,2.09132445 43.2545541,1.89105208 42.739726,1.91780822 C42.1323464,1.86363336 41.5390186,2.12160196 41.1643836,2.60273973 C41.0958904,2.67123288 41.0273973,2.80821918 40.9589041,2.87671233 L40.9589041,2.05479452 L39.5205479,2.05479452 L39.5205479,7.73972603 L41.0273973,7.73972603 L41.0273973,4.52054795 C41.0360545,4.15150798 41.1553648,3.79357699 41.369863,3.49315068 C41.6126155,3.27039951 41.9308203,3.14801304 42.260274,3.15068493 C42.5177657,3.13683708 42.7682962,3.2370493 42.9452055,3.42465753 C43.0853505,3.65054227 43.1567453,3.91232325 43.1506849,4.17808219 L43.1506849,7.80821918 Z" id="Shape"></path>
                <path d="M19.2465753,13.3561644 C19.4680287,13.3611901 19.6828356,13.4327924 19.8630137,13.5616438 C20.0615646,13.6755851 20.1900658,13.881187 20.2054795,14.109589 L20.6849315,14.109589 C20.6387669,13.7643386 20.4683044,13.4477653 20.2054795,13.2191781 C19.8953905,13.0335318 19.5394355,12.9386105 19.1780822,12.9452055 C18.72624,12.9385994 18.2966098,13.1407783 18.0136986,13.4931507 C17.4657534,14.2237443 17.4657534,15.2283105 18.0136986,15.9589041 C18.3127054,16.2817856 18.7384152,16.4570779 19.1780822,16.4383562 C19.5471222,16.4296989 19.9050531,16.3103886 20.2054795,16.0958904 C20.4575025,15.8313303 20.6244972,15.4973408 20.6849315,15.1369863 L20.2054795,15.1369863 C20.1907201,15.38377 20.0647496,15.6105169 19.8630137,15.7534247 C19.4458924,16.090487 18.8352671,16.0294244 18.4931507,15.6164384 C18.1505672,15.0230664 18.1505672,14.2920021 18.4931507,13.6986301 C18.6813601,13.478767 18.9571709,13.3533985 19.2465753,13.3561644 Z" id="Shape"></path>
                <path d="M23.9041096,13.3561644 C23.601086,13.0540179 23.186929,12.8901199 22.759205,12.9030812 C22.3314811,12.9160426 21.9280081,13.1047173 21.6438356,13.4246575 C21.0958904,14.1552511 21.0958904,15.1598174 21.6438356,15.890411 C21.9267468,16.2427833 22.3563769,16.4449622 22.8082192,16.4383562 C23.2568562,16.4306648 23.6807179,16.2312005 23.9726027,15.890411 C24.1892109,15.5150383 24.307042,15.0908462 24.3150685,14.6575342 C24.326318,14.2111851 24.1809187,13.7749871 23.9041096,13.4246575 C23.9726027,13.4246575 23.9041096,13.3561644 23.9041096,13.3561644 Z M23.5616438,15.5479452 C23.3676154,15.8066498 23.0631068,15.9589041 22.739726,15.9589041 C22.4163452,15.9589041 22.1118367,15.8066498 21.9178082,15.5479452 C21.7252651,15.2922633 21.6283319,14.9772306 21.6438356,14.6575342 C21.6388147,14.3392423 21.7347241,14.0275368 21.9178082,13.7671233 C22.1118367,13.5084187 22.4163452,13.3561644 22.739726,13.3561644 C23.0631068,13.3561644 23.3676154,13.5084187 23.5616438,13.7671233 C23.9274188,14.3043838 23.9274188,15.0106846 23.5616438,15.5479452 Z" id="Shape"></path>
                <path d="M28.5616438,12.9452055 C28.3691369,12.9321353 28.177407,12.9800678 28.0136986,13.0821918 C27.8215175,13.2059876 27.6580424,13.3694627 27.5342466,13.5616438 C27.3577405,13.180227 26.9933874,12.9199748 26.5753425,12.8767123 C26.1803094,12.8731761 25.813947,13.082526 25.6164384,13.4246575 L25.6164384,13.0136986 L25.0684932,13.0136986 L25.0684932,16.369863 L25.6164384,16.369863 L25.6164384,14.3835616 C25.5778443,14.1359264 25.6533841,13.8841271 25.8219178,13.6986301 C25.890411,13.4931507 26.1643836,13.4246575 26.369863,13.4246575 C26.8493151,13.4246575 27.1232877,13.7671233 27.1232877,14.3150685 L27.1232877,16.369863 L27.6027397,16.369863 L27.6027397,14.3150685 C27.6077655,14.0936152 27.6793678,13.8788083 27.8082192,13.6986301 C27.9302877,13.5176524 28.1381411,13.4137257 28.3561644,13.4246575 C28.5831244,13.385122 28.814756,13.4623325 28.9726027,13.630137 C29.1116684,13.8310386 29.1835948,14.0707934 29.1780822,14.3150685 L29.1780822,16.369863 L29.7260274,16.369863 L29.7260274,14.1780822 C29.7159489,13.8510707 29.5952121,13.537155 29.3835616,13.2876712 C29.1675405,13.0665235 28.8707814,12.9428739 28.5616438,12.9452055 Z" id="Shape"></path>
                <path d="M33.9726027,12.9452055 C33.7800958,12.9321353 33.588366,12.9800678 33.4246575,13.0821918 C33.2324764,13.2059876 33.0690013,13.3694627 32.9452055,13.5616438 C32.8012799,13.1544988 32.4181171,12.8808111 31.9863014,12.8767123 C31.5912683,12.8731761 31.2249059,13.082526 31.0273973,13.4246575 L31.0273973,13.0136986 L30.5479452,13.0136986 L30.5479452,16.369863 L31.0273973,16.369863 L31.0273973,14.3835616 C30.9888032,14.1359264 31.064343,13.8841271 31.2328767,13.6986301 C31.3013699,13.4931507 31.5753425,13.4246575 31.7808219,13.4246575 C32.260274,13.4246575 32.5342466,13.7671233 32.5342466,14.3150685 L32.5342466,16.369863 L33.0821918,16.369863 L33.0821918,14.3150685 C33.0872175,14.0936152 33.1588198,13.8788083 33.2876712,13.6986301 C33.4097397,13.5176524 33.6175932,13.4137257 33.8356164,13.4246575 C34.0625765,13.385122 34.2942081,13.4623325 34.4520548,13.630137 C34.5911204,13.8310386 34.6630469,14.0707934 34.6575342,14.3150685 L34.6575342,16.369863 L35.1369863,16.369863 L35.1369863,14.1780822 C35.1269078,13.8510707 35.006171,13.537155 34.7945205,13.2876712 C34.5784994,13.0665235 34.2817403,12.9428739 33.9726027,12.9452055 Z" id="Shape"></path>
                <path d="M38.3561644,15 C38.312882,15.2573586 38.193616,15.4958904 38.0136986,15.6849315 C37.8558491,15.8588233 37.63211,15.9582628 37.3972603,15.9589041 C37.1489768,16.0087572 36.8921693,15.9317149 36.7123288,15.7534247 C36.5732631,15.5525231 36.5013367,15.3127682 36.5068493,15.0684932 L36.5068493,13.0136986 L35.9589041,13.0136986 L36.0273973,14.9315068 C36.0273973,15.8219178 36.4383562,16.3013699 37.260274,16.3013699 C37.7075335,16.2990069 38.1218885,16.0659322 38.3561644,15.6849315 L38.3561644,16.2328767 L38.9041096,16.2328767 L38.9041096,12.9452055 L38.3561644,12.9452055 L38.3561644,15 Z" id="Shape"></path>
                <path d="M41.0273973,12.9452055 C40.8159602,12.957936 40.6078878,13.0041743 40.4109589,13.0821918 C40.2414379,13.1822391 40.1000473,13.3236297 40,13.4931507 L40,13.0136986 L39.4520548,13.0136986 L39.4520548,16.3013699 L40,16.3013699 L40,14.3150685 C39.9861521,14.0575768 40.0863644,13.8070462 40.2739726,13.630137 C40.4318222,13.4562452 40.6555612,13.3568057 40.890411,13.3561644 C41.5068493,13.3561644 41.7808219,13.6986301 41.7808219,14.3150685 L41.7808219,16.369863 L42.3287671,16.369863 L42.3287671,14.3150685 C42.3287671,13.3561644 41.9178082,12.9452055 41.0273973,12.9452055 Z" id="Shape"></path>
                <rect id="Rectangle-path" x="43.2876712" y="13.0136986" width="1" height="3.28767123"></rect>
                <path d="M43.5616438,11.7123288 C43.348864,11.743389 43.1817452,11.9105079 43.1506849,12.1232877 C43.1817452,12.3360675 43.348864,12.5031864 43.5616438,12.5342466 C43.7744236,12.5031864 43.9415425,12.3360675 43.9726027,12.1232877 C43.9705488,12.0159893 43.9202227,11.9153373 43.8356164,11.8493151 C43.7671233,11.7808219 43.630137,11.7808219 43.5616438,11.7123288 Z" id="Shape"></path>
                <path d="M45.6164384,11.9178082 L45.2054795,12.1917808 L45.2054795,13.0136986 L44.5205479,13.0136986 L44.5205479,13.4246575 L45.2054795,13.4246575 L45.2054795,15.5479452 C45.17687,15.7415228 45.2261268,15.9385499 45.3424658,16.0958904 C45.4915704,16.2328269 45.6880314,16.3064997 45.890411,16.3013699 L46.369863,16.3013699 L46.369863,15.890411 L45.9589041,15.890411 C45.8219178,15.890411 45.7534247,15.890411 45.6849315,15.8219178 C45.6304538,15.7415517 45.6061892,15.644493 45.6164384,15.5479452 L45.6164384,13.4246575 L46.4383562,13.4246575 L46.4383562,13.0136986 L45.6164384,13.0136986 L45.6164384,11.9178082 Z" id="Shape"></path>
                <polygon id="Shape" points="49.1780822 13.0136986 48.2191781 15.6164384 47.1917808 13.0136986 46.6438356 13.0136986 47.9452055 16.2328767 47.3972603 17.6027397 47.9452055 17.6027397 49.7260274 13.0136986"></polygon>
            </g>
        </g>
    </g>
</svg>