<?xml version="1.0" encoding="UTF-8"?>
<svg width="73px" height="26px" viewBox="0 0 73 26" version="1.1" xmlns="http://www.w3.org/2000/svg" xmlns:xlink="http://www.w3.org/1999/xlink">
    <!-- Generator: Sketch 50.2 (55047) - http://www.bohemiancoding.com/sketch -->
    <title>town-01</title>
    <desc>Created with Sketch.</desc>
    <defs></defs>
    <g id="Page-1" stroke="none" stroke-width="1" fill="none" fill-rule="evenodd">
        <g id="G.55.com0928标注" transform="translate(-778.000000, -1813.000000)" fill="#FFFFFF" fill-rule="nonzero">
            <g id="town-01" transform="translate(778.000000, 1813.000000)">
                <polygon id="Shape" points="20.4 0.2 14.1 0.2 5 10 5 0.1 0 0.1 0 23.9 5 23.9 5 15.9 7.4 13.4 14.6 23.9 21.1 23.9 11 9.8"></polygon>
                <polygon id="Shape" points="29.1 11.2 31.4 11.2 31.4 2 34.8 2 34.8 0 25.7 0 25.7 2 29.1 2"></polygon>
                <path d="M36.7,4 C35.9008585,4.8652417 35.5017515,6.02628049 35.6,7.2 C35.5191443,8.34140491 35.9177847,9.46484611 36.7,10.3 C38.4562296,11.9019612 41.1437704,11.9019612 42.9,10.3 C43.6698802,9.45738921 44.0665793,8.33941903 44,7.2 C44.0982485,6.02628049 43.6991415,4.8652417 42.9,4 C41.1437704,2.39803879 38.4562296,2.39803879 36.7,4 Z M41.3,9 L41.1,9.2 C40.2687839,9.90954055 39.021929,9.82047948 38.3,9 C37.9382244,8.43476468 37.7633112,7.77009439 37.8,7.1 C37.7633112,6.42990561 37.9382244,5.76523532 38.3,5.2 L38.5,5 C39.3312161,4.29045945 40.578071,4.37952052 41.3,5.2 C41.6617756,5.76523532 41.8366888,6.42990561 41.8,7.1 C41.8984224,7.77496265 41.7179089,8.46091401 41.3,9 Z" id="Shape"></path>
                <polygon id="Shape" points="56.4 3 54.2 3 52.9 9 51.7 3 49.5 3 48.3 9 47 3 44.7 3 47.1 11.2 49.2 11.3 50.5 5.1 51.8 11.3 54 11.3"></polygon>
                <path d="M63,11.4 L65.1,11.4 L65.1,5.8 C65.177589,5.0017706 64.9245889,4.20662735 64.4,3.6 C63.8826431,3.0533337 63.151649,2.76093604 62.4,2.8 C61.5132257,2.7209047 60.6469671,3.09753887 60.1,3.8 C60,3.9 59.9,4.1 59.8,4.2 L59.8,3 L57.7,3 L57.7,11.3 L59.9,11.3 L59.9,6.6 C59.9126395,6.06120165 60.0868326,5.53862241 60.4,5.1 C60.7544186,4.77478328 61.2189977,4.59609903 61.7,4.6 C62.0759379,4.57978213 62.4417125,4.72609197 62.7,5 C62.9046117,5.32979171 63.0088482,5.71199195 63,6.1 L63,11.4 Z" id="Shape"></path>
                <path d="M28.1,19.5 C28.4233219,19.5073376 28.73694,19.6118769 29,19.8 C29.2898844,19.9663543 29.477496,20.266533 29.5,20.6 L30.2,20.6 C30.1325997,20.0959343 29.8837244,19.6337373 29.5,19.3 C29.0472701,19.0289565 28.5275758,18.8903713 28,18.9 C27.3403103,18.8903551 26.7130503,19.1855363 26.3,19.7 C25.5,20.7666667 25.5,22.2333333 26.3,23.3 C26.7365499,23.771407 27.3580862,24.0273337 28,24 C28.5387984,23.9873605 29.0613776,23.8131674 29.5,23.5 C29.8679536,23.1137422 30.1117659,22.6261176 30.2,22.1 L29.5,22.1 C29.4784514,22.4603041 29.2945344,22.7913547 29,23 C28.3910029,23.492111 27.49949,23.4029597 27,22.8 C26.4998282,21.933677 26.4998282,20.866323 27,20 C27.2747858,19.6789999 27.6774695,19.4959618 28.1,19.5 Z" id="Shape"></path>
                <path d="M34.9,19.5 C34.4575856,19.0588662 33.8529163,18.8195751 33.2284394,18.8384986 C32.6039624,18.8574222 32.0148918,19.1328872 31.6,19.6 C30.8,20.6666667 30.8,22.1333333 31.6,23.2 C32.0130503,23.7144637 32.6403103,24.0096449 33.3,24 C33.95501,23.9887707 34.5738481,23.6975527 35,23.2 C35.3162479,22.6519559 35.4882813,22.0326355 35.5,21.4 C35.5164243,20.7483303 35.3041413,20.1114812 34.9,19.6 C35,19.6 34.9,19.5 34.9,19.5 Z M34.4,22.7 C34.1167184,23.0777088 33.672136,23.3 33.2,23.3 C32.727864,23.3 32.2832816,23.0777088 32,22.7 C31.718887,22.3267044 31.5773646,21.8667567 31.6,21.4 C31.5926695,20.9352938 31.7326972,20.4802037 32,20.1 C32.2832816,19.7222912 32.727864,19.5 33.2,19.5 C33.672136,19.5 34.1167184,19.7222912 34.4,20.1 C34.9340315,20.8844004 34.9340315,21.9155996 34.4,22.7 Z" id="Shape"></path>
                <path d="M41.7,18.9 C41.4189399,18.8809176 41.1390143,18.950899 40.9,19.1 C40.6194155,19.2807419 40.3807419,19.5194155 40.2,19.8 C39.9423011,19.2431314 39.4103456,18.8631632 38.8,18.8 C38.2232517,18.7948371 37.6883626,19.1004879 37.4,19.6 L37.4,19 L36.6,19 L36.6,23.9 L37.4,23.9 L37.4,21 C37.3436526,20.6384525 37.4539407,20.2708255 37.7,20 C37.8,19.7 38.2,19.6 38.5,19.6 C39.2,19.6 39.6,20.1 39.6,20.9 L39.6,23.9 L40.3,23.9 L40.3,20.9 C40.3073376,20.5766781 40.4118769,20.26306 40.6,20 C40.77822,19.7357725 41.081686,19.5840395 41.4,19.6 C41.7313616,19.5422781 42.0695438,19.6550055 42.3,19.9 C42.5030358,20.1933163 42.6080484,20.5433584 42.6,20.9 L42.6,23.9 L43.4,23.9 L43.4,20.7 C43.3852854,20.2225632 43.2090097,19.7642464 42.9,19.4 C42.5846091,19.0771244 42.1513408,18.8965959 41.7,18.9 Z" id="Shape"></path>
                <path d="M49.6,18.9 C49.3189399,18.8809176 49.0390143,18.950899 48.8,19.1 C48.5194155,19.2807419 48.2807419,19.5194155 48.1,19.8 C47.8898686,19.2055683 47.330451,18.8059843 46.7,18.8 C46.1232517,18.7948371 45.5883626,19.1004879 45.3,19.6 L45.3,19 L44.6,19 L44.6,23.9 L45.3,23.9 L45.3,21 C45.2436526,20.6384525 45.3539407,20.2708255 45.6,20 C45.7,19.7 46.1,19.6 46.4,19.6 C47.1,19.6 47.5,20.1 47.5,20.9 L47.5,23.9 L48.3,23.9 L48.3,20.9 C48.3073376,20.5766781 48.4118769,20.26306 48.6,20 C48.77822,19.7357725 49.081686,19.5840395 49.4,19.6 C49.7313616,19.5422781 50.0695438,19.6550055 50.3,19.9 C50.5030358,20.1933163 50.6080484,20.5433584 50.6,20.9 L50.6,23.9 L51.3,23.9 L51.3,20.7 C51.2852854,20.2225632 51.1090097,19.7642464 50.8,19.4 C50.4846091,19.0771244 50.0513408,18.8965959 49.6,18.9 Z" id="Shape"></path>
                <path d="M56,21.9 C55.9368077,22.2757435 55.7626794,22.624 55.5,22.9 C55.2695396,23.153882 54.9428807,23.2990637 54.6,23.3 C54.2375061,23.3727854 53.8625671,23.2603037 53.6,23 C53.3969642,22.7066837 53.2919516,22.3566416 53.3,22 L53.3,19 L52.5,19 L52.6,21.8 C52.6,23.1 53.2,23.8 54.4,23.8 C55.0529989,23.7965501 55.6579573,23.456261 56,22.9 L56,23.7 L56.8,23.7 L56.8,18.9 L56,18.9 L56,21.9 Z" id="Shape"></path>
                <path d="M59.9,18.9 C59.5913019,18.9185865 59.2875161,18.9860945 59,19.1 C58.7524993,19.2460691 58.5460691,19.4524993 58.4,19.7 L58.4,19 L57.6,19 L57.6,23.8 L58.4,23.8 L58.4,20.9 C58.3797821,20.5240621 58.526092,20.1582875 58.8,19.9 C59.0304604,19.646118 59.3571193,19.5009363 59.7,19.5 C60.6,19.5 61,20 61,20.9 L61,23.9 L61.8,23.9 L61.8,20.9 C61.8,19.5 61.2,18.9 59.9,18.9 Z" id="Shape"></path>
                <rect id="Rectangle-path" x="63.2" y="19" width="1" height="4.8"></rect>
                <path d="M63.6,17.1 C63.2893415,17.1453479 63.0453479,17.3893415 63,17.7 C63.0453479,18.0106585 63.2893415,18.2546521 63.6,18.3 C63.9106585,18.2546521 64.1546521,18.0106585 64.2,17.7 C64.1970012,17.5433444 64.1235252,17.3963924 64,17.3 C63.9,17.2 63.7,17.2 63.6,17.1 Z" id="Shape"></path>
                <path d="M66.6,17.4 L66,17.8 L66,19 L65,19 L65,19.6 L66,19.6 L66,22.7 C65.9582302,22.9826233 66.0301451,23.2702829 66.2,23.5 C66.4176928,23.6999272 66.7045259,23.8074896 67,23.8 L67.7,23.8 L67.7,23.2 L67.1,23.2 C66.9,23.2 66.8,23.2 66.7,23.1 C66.6204626,22.9826655 66.5850362,22.8409598 66.6,22.7 L66.6,19.6 L67.8,19.6 L67.8,19 L66.6,19 L66.6,17.4 Z" id="Shape"></path>
                <polygon id="Shape" points="71.8 19 70.4 22.8 68.9 19 68.1 19 70 23.7 69.2 25.7 70 25.7 72.6 19"></polygon>
            </g>
        </g>
    </g>
</svg>