<svg id="图层_1" data-name="图层 1" xmlns="http://www.w3.org/2000/svg" viewBox="0 0 220 110"><defs><style>.cls-1{fill:#1f7fc2;}.cls-2{fill:#6bc4fd;}</style></defs><title>ZDCY</title><path class="cls-1" d="M28.44,54.74H9.35a2.48,2.48,0,0,1-2.47-2.47V41.78a2.48,2.48,0,0,1,2.47-2.47H33.87a.54.54,0,0,0,.38-.92l-5.8-5.8a.55.55,0,0,0-.38-.16H9.35A9.35,9.35,0,0,0,0,41.78V52.27a9.35,9.35,0,0,0,9.35,9.35H28.44a.54.54,0,0,0,.54-.54v-5.8A.54.54,0,0,0,28.44,54.74Z"/><path class="cls-2" d="M11.17,49.53H30.26A2.48,2.48,0,0,1,32.73,52V62.49A2.48,2.48,0,0,1,30.26,65H5.74a.54.54,0,0,0-.38.92l5.8,5.8a.55.55,0,0,0,.38.16H30.26a9.35,9.35,0,0,0,9.35-9.35V52a9.35,9.35,0,0,0-9.35-9.34H11.17a.54.54,0,0,0-.54.53V49A.54.54,0,0,0,11.17,49.53Z"/><path class="cls-1" d="M108.3,43.21h3.94l4,13.43,3.41-13.43H124L128,56.64l3.77-13.43h3.78l-5.42,17.48h-4.49l-3.73-13-3.27,13h-4.47Z"/><path class="cls-1" d="M176.91,46.55H166.14a4.66,4.66,0,0,0-2.55.53,1.89,1.89,0,0,0-.82,1.73,1.64,1.64,0,0,0,.69,1.42,3.81,3.81,0,0,0,2.06.47h5.75q3.6,0,5.12,1.14a4.55,4.55,0,0,1,1.51,3.83,4.55,4.55,0,0,1-1.73,3.94q-1.77,1.28-5.51,1.27h-9.42l-2.19-3.1H170a5.09,5.09,0,0,0,2.6-.47,1.63,1.63,0,0,0,.77-1.52,1.84,1.84,0,0,0-.69-1.56,4.81,4.81,0,0,0-2.39-.45h-5.15a9,9,0,0,1-5.25-1.21,4.43,4.43,0,0,1-1.66-3.81,4.87,4.87,0,0,1,1.71-4.07,6.47,6.47,0,0,1,2.24-.95,14,14,0,0,1,3.3-.33h9.13Z"/><polygon class="cls-1" points="52.58 51.74 60.89 43.21 55.68 43.21 47.49 51.6 47.49 43.21 43.11 43.21 43.11 56.21 47.49 60.54 47.49 52 55.4 60.69 60.96 60.69 52.58 51.74"/><polygon class="cls-1" points="77.93 55.77 68.57 43.21 62.5 43.21 62.5 56.21 67.42 60.63 67.21 47.48 77.05 60.69 82.63 60.69 82.63 47.67 77.72 43.26 77.93 55.77"/><polygon class="cls-1" points="151.18 55.37 142.69 42.82 137.18 42.82 137.18 55.82 141.65 60.24 141.45 47.09 150.38 60.29 155.45 60.29 155.45 47.28 150.99 42.87 151.18 55.37"/><polyline class="cls-1" points="184.63 61.03 199.76 61.03 199.76 56.7 184.63 56.7 184.63 54.34 197.79 54.34 197.79 50.02 184.63 50.02 184.63 47.27 199.76 47.27 196.42 42.95 184.63 42.95 180.3 42.95 180.3 47.27 180.3 47.27 180.3 50.02 180.3 50.02 180.3 54.34 180.3 54.34 180.3 56.7 180.3 56.7"/><path class="cls-1" d="M206.16,57.1a1.69,1.69,0,0,1-1.69-1.69V48.76a1.69,1.69,0,0,1,1.69-1.69H220L217.64,43H206.26a5.54,5.54,0,0,0-5.52,5.52v7A5.54,5.54,0,0,0,206.26,61H220V57.1Z"/><path class="cls-1" d="M101.71,43.9H89.06a4,4,0,0,0-4,4v8.92a4,4,0,0,0,4,4h12.65a4,4,0,0,0,4-4V47.89A4,4,0,0,0,101.71,43.9Zm.89,12.18a1.52,1.52,0,0,1-1.52,1.51H89.69a1.52,1.52,0,0,1-1.51-1.51V48.62a1.52,1.52,0,0,1,1.51-1.52h11.39a1.53,1.53,0,0,1,1.52,1.52Z"/></svg>