<?xml version="1.0" standalone="no"?>
<!DOCTYPE svg PUBLIC "-//W3C//DTD SVG 1.1//EN" "http://www.w3.org/Graphics/SVG/1.1/DTD/svg11.dtd" >
<!--
2013-9-30: Created.
-->
<svg>
<metadata>
Created by iconfont
</metadata>
<defs>

<font id="iconfont" horiz-adv-x="1024" >
  <font-face
    font-family="iconfont"
    font-weight="500"
    font-stretch="normal"
    units-per-em="1024"
    ascent="896"
    descent="-128"
  />
    <missing-glyph />
    
    <glyph glyph-name="x" unicode="x" horiz-adv-x="1001"
d="M281 543q-27 -1 -53 -1h-83q-18 0 -36.5 -6t-32.5 -18.5t-23 -32t-9 -45.5v-76h912v41q0 16 -0.5 30t-0.5 18q0 13 -5 29t-17 29.5t-31.5 22.5t-49.5 9h-133v-97h-438v97zM955 310v-52q0 -23 0.5 -52t0.5 -58t-10.5 -47.5t-26 -30t-33 -16t-31.5 -4.5q-14 -1 -29.5 -0.5
t-29.5 0.5h-32l-45 128h-439l-44 -128h-29h-34q-20 0 -45 1q-25 0 -41 9.5t-25.5 23t-13.5 29.5t-4 30v167h911zM163 247q-12 0 -21 -8.5t-9 -21.5t9 -21.5t21 -8.5q13 0 22 8.5t9 21.5t-9 21.5t-22 8.5zM316 123q-8 -26 -14 -48q-5 -19 -10.5 -37t-7.5 -25t-3 -15t1 -14.5
t9.5 -10.5t21.5 -4h37h67h81h80h64h36q23 0 34 12t2 38q-5 13 -9.5 30.5t-9.5 34.5q-5 19 -11 39h-368zM336 498v228q0 11 2.5 23t10 21.5t20.5 15.5t34 6h188q31 0 51.5 -14.5t20.5 -52.5v-227h-327z" />
    

    
    <glyph glyph-name="taiyang" unicode="&#58944;" d="M512.37632227 656.62393458c-150.76542237 0-273.00491719-122.25813618-273.00491718-273.02355855 0-150.75610169 122.23832974-272.99443143 273.00491718-272.99443142S785.38007438 232.84427434999998 785.38007438 383.60037603C785.38007438 534.3657984 663.14174464 656.62393458 512.37632227 656.62393458zM512.37632227 691.75239566c34.15212032 0 61.8287013 27.67774606 61.8287013 61.82986639L574.20502357 831.09183488c0 34.15212032-27.67774606 61.82986638-61.8287013 61.82986638S450.54529081 865.24279011 450.54529081 831.09183488l0-77.50957283C450.54529081 719.43130681 478.22420195 691.75239566 512.37632227 691.75239566zM512.37632227 75.45884217000003c-34.15212032 0-61.82986638-27.67891115-61.82986638-61.82986638l0-77.50840776c0-34.15212032 27.67891115-61.82986638 61.82986638-61.82986638s61.8287013 27.67891115 61.8287013 61.82986638L574.20502357 13.627810700000055C574.20502357 47.77993102000005 546.52727751 75.45884217000003 512.37632227 75.45884217000003zM959.85729536 445.43024242L882.34888761 445.43024242c-34.15212032 0-61.82054571-27.66842539-61.82054571-61.82986639 0-34.14163456 27.66842539-61.82054571 61.82054571-61.8205457l77.50840775 0c34.15212032 0 61.8287013 27.67891115 61.8287013 61.8205457C1021.68599666 417.76181703 994.00825059 445.43024242 959.85729536 445.43024242zM204.22313757 383.60037603c0 34.16144099-27.67891115 61.82986638-61.82986639 61.82986639l-77.50957283 0c-34.12182813 0-61.82986638-27.66842539-61.82986638-61.82986639 0-34.14163456 27.70803826-61.82054571 61.82986638-61.8205457l77.50957283 0C176.5453915 321.77983033 204.22313757 349.45874146999995 204.22313757 383.60037603zM817.72631381 165.69696255999997c-24.15569579 24.14637511-63.27107584 24.14637511-87.44657806 0-24.14637511-24.15569579-24.14637511-63.28971719 0-87.4360923l54.81372786-54.79392143c12.058624-12.07726535 27.8769755-18.12754887 43.72328903-18.12754886 15.81718642 0 31.62505216 6.04911843 43.69299683 18.12754886 24.16501646 24.1545307 24.16501646 63.27923143 0 87.42560655L817.72631381 165.69696255999997zM206.99603854 601.49446883c12.08775111-12.08775111 27.93522973-18.10657735 43.75241615-18.10657734 15.82650709 0 31.63437283 6.01882624 43.72212394 18.07745024 24.14637511 24.14637511 24.14637511 63.29088227 0.01980644 87.46521941l-54.80440718 54.81372785c-24.12656867 24.11608291-63.28039651 24.11608291-87.45589874 0.04893355-24.15569579-24.17550222-24.15569579-63.32000939-0.01980644-87.46521941L206.99603854 601.49446883zM207.02633074 165.69696255999997l-54.79392143-54.80440718c-24.15569579-24.14637511-24.15569579-63.27107584 0-87.42560655 12.04813824-12.07726535 27.89561685-18.12754887 43.73260971-18.12754886 15.79854507 0 31.63553792 6.04911843 43.69299684 18.12754886l54.81372785 54.79392143c24.14637511 24.14637511 24.14637511 63.27923143 0 87.4360923C270.32536861 189.84217259000002 231.14241365 189.84217259000002 207.02633074 165.69696255999997zM774.01234546 583.38789149c15.80786574 0 31.67515079 6.01882624 43.73260971 18.10657734l54.80440718 54.8335343c24.12540359 24.14521003 24.12540359 63.28971719-0.03961288 87.46521941-24.15569579 24.06714937-63.28971719 24.11608291-87.46521941-0.04893355l-54.78343566-54.81372785c-24.12656867-24.17550222-24.12656867-63.32000939 0.01980643-87.46521941C742.36748686 589.4067177300001 758.18467328 583.38789149 774.01234546 583.38789149z"  horiz-adv-x="1024" />

    
    <glyph glyph-name="weibo" unicode="&#58927;" d="M511.896576 896c-282.712064 0-511.896576-229.184512-511.896576-511.899648 0-282.708992 229.184512-511.893504 511.896576-511.893504s511.893504 229.184512 511.893504 511.893504C1023.79008 666.815488 794.60864 896 511.896576 896zM464.433152 128.958464c-130.83136 0-264.563712 63.404032-264.563712 167.69024 0 54.520832 34.541568 117.568512 94.0288 177.068032 79.430656 79.409152 172.059648 115.581952 206.896128 80.723968 15.371264-15.348736 16.859136-41.947136 6.979584-73.693184-5.149696-15.992832 15.009792-7.13728 15.009792-7.172096 64.202752 26.88 120.215552 28.464128 140.68736-0.78848 10.925056-15.588352 9.879552-37.446656-0.18944-62.778368-4.657152-11.669504 1.432576-13.477888 10.313728-16.144384 36.175872-11.214848 76.438528-38.340608 76.438528-86.140928C750.032896 228.608 635.94496 128.958464 464.433152 128.958464zM701.2864 460.551168c4.231168 13.072384 1.580032 27.972608-8.28416 38.90688-9.854976 10.912768-24.419328 15.053824-37.851136 12.214272l0 0.023552c-11.203584-2.438144-22.247424 4.753408-24.649728 15.946752-2.408448 11.240448 4.749312 22.293504 15.97952 24.686592 27.476992 5.84192 57.244672-2.65216 77.402112-25.01632 20.200448-22.361088 25.602048-52.822016 16.96768-79.543296-3.524608-10.940416-15.244288-16.896-26.169344-13.39904-10.921984 3.535872-16.894976 15.269888-13.374464 26.180608L701.2864 460.551168zM822.412288 421.435392c-0.007168-0.021504-0.007168-0.069632-0.007168-0.093184-4.110336-12.674048-17.73056-19.61472-30.399488-15.512576-12.719104 4.10624-19.668992 17.696768-15.563776 30.401536l-0.007168 0.008192c12.599296 39.001088 4.609024 83.49184-24.807424 116.109312-29.443072 32.620544-72.856576 45.080576-112.9728 36.56192-13.048832-2.782208-25.880576 5.547008-28.662784 18.582528-2.793472 13.024256 5.52448 25.86112 18.573312 28.653568l0.023552 0c56.388608 11.988992 117.481472-5.516288 158.901248-51.437568C828.920832 538.835968 840.088576 476.296192 822.412288 421.435392zM640.536576 317.687808c-6.767616 68.514816-96.889856 115.705856-201.298944 105.382912-104.38656-10.322944-183.547904-74.238976-176.766976-142.767104 6.781952-68.545536 96.900096-115.736576 201.29792-105.434112C568.179712 185.198592 647.307264 249.120768 640.536576 317.687808zM530.835456 261.430272c-21.305344-48.190464-82.586624-73.882624-134.575104-57.115648-50.193408 16.19968-71.442432 65.757184-49.466368 110.401536 21.577728 43.771904 77.727744 68.530176 127.40608 55.606272C525.613056 357.033984 551.84896 308.534272 530.835456 261.430272zM424.604672 298.141696c-16.164864 6.776832-37.061632-0.191488-47.03744-15.834112-10.098688-15.710208-5.36064-34.419712 10.691584-41.729024 16.285696-7.436288 37.90848-0.376832 48.008192 15.73376C446.1824 272.581632 440.961024 291.170304 424.604672 298.141696zM464.448512 314.65984c-6.203392 2.461696-13.959168-0.518144-17.596416-6.62016-3.533824-6.132736-1.584128-13.11744 4.632576-15.675392 6.324224-2.603008 14.395392 0.402432 18.046976 6.641664C473.01632 305.293312 470.751232 312.354816 464.448512 314.65984z"  horiz-adv-x="1024" />

    
    <glyph glyph-name="apple1" unicode="&#59068;" d="M801.36533333 353.58720000000005c0 139.17980445 117.16721778 197.31683555 117.16721778 197.31683555s-75.45059555 104.21020445-187.29073778 104.21020445c-94.26488889 0-129.01489778-44.37902222-201.84291555-44.37902222-72.29667555 0-112.37262222 44.37902222-200.24661333 44.37902222-111.83900445 0-254.21255111-108.42112-254.21255112-300.86257778 0-258.46897778 181.07505778-479.35146667 281.37358222-479.35146667 45.97532445 0 100.23025778 43.12860445 176.63431112 43.13543112 74.56768 0.01137778 120.71480889-43.10471111 171.13315555-43.10471112 45.80124445 0 87.87285333 23.46666667 154.44536889 110.80931556 66.57024 87.34037333 90.53525333 162.49969778 90.53525334 162.49969778C933.43857778 153.92426666999995 801.36533333 214.41080889 801.36533333 353.58720000000005zM710.91996445 872.11463111c0 7.07697778-0.36977778 14.06748445-1.00238223 20.98631111C591.32586667 885.62346667 497.44327111 787.13173333 497.44327111 666.65016889c0-7.07697778 0.37091555-14.07089778 1.00352-20.98176C617.03850667 653.14019555 710.91996445 751.63648 710.91996445 872.11463111z"  horiz-adv-x="1024" />

    
    <glyph glyph-name="iconfontarrowdown" unicode="&#58894;" d="M959.391517 640.122285L511.696078 192.42684699999995 64.00064 640.122285Z"  horiz-adv-x="1024" />

    
    <glyph glyph-name="weizhi" unicode="&#58911;" d="M885.13021952 523.5637566600001c0 204.70569643-167.30325219 370.71186261-373.82999381 370.71186261-206.46153785 0-373.82999381-166.00616619-373.82999382-370.71186261 0-67.63714446 18.55393109-130.79386567 50.41290126-185.38911517l-0.39937251 0 323.78269923-463.4361105 323.91427072 463.4361105-0.4319744 0C866.71018781 392.76989099 885.13021952 455.92661219 885.13021952 523.5637566600001M511.33282645 338.24333823999996c-103.21505053 0-186.91441437 82.96931669-186.91441436 185.3530203 0 102.31733589 83.69936498 185.3530203 186.91441436 185.35302031 103.31285618 0 186.91441437-83.03568441 186.91441437-185.35302031C698.24724195 421.21265493 614.64568263 338.24333823999996 511.33282645 338.24333823999996"  horiz-adv-x="1025" />

    
    <glyph glyph-name="shuoming" unicode="&#59081;" d="M502.319 885.18733333c-267.446 0-484.908-217.605-484.908-484.908s217.605-484.908 484.908-484.908 484.908 217.605 484.908 484.908-217.605 484.908-484.908 484.908zM576.97 176.38333333000003c0-41.161-33.605-74.689-74.689-74.689s-74.689 33.605-74.689 74.689l0 223.856c0 41.161 33.605 74.689 74.689 74.689s74.689-33.605 74.689-74.689l0-223.856zM502.319 549.56733333c-41.161 0-74.689 33.605-74.689 74.689s33.605 74.689 74.689 74.689 74.689-33.605 74.689-74.689-33.605-74.689-74.689-74.689z"  horiz-adv-x="1024" />

    
    <glyph glyph-name="iconfontquestion" unicode="&#58890;" d="M512 819C271.8 819 77 624.2 77 384c0-240.2 194.8-435 435-435 240.2 0 435 194.8 435 435C947 624.2 752.2 819 512 819L512 819zM509.2 79.6c-35.4 0-64.2 28.2-64.2 62.9s28.7 62.9 64.2 62.9c35.4 0 64.2-28.2 64.2-62.9S544.7 79.6 509.2 79.6L509.2 79.6zM681.6 435.5c-12.6-19.8-39.3-46.7-80.3-80.8-21.2-17.6-34.4-31.8-39.5-42.6-5.1-10.7-7.5-29.9-7-57.6l-91.4 0c-0.2 13.1-0.4 21.1-0.4 24 0 29.6 4.9 53.9 14.7 73 9.8 19.1 29.4 40.6 58.7 64.4 29.3 23.9 46.9 39.5 52.6 46.9 8.8 11.7 13.3 24.6 13.3 38.6 0 19.5-7.9 36.2-23.5 50.2-15.6 13.9-36.8 20.9-63.3 20.9-25.6 0-47-7.3-64.2-21.8-17.2-14.5-32-46.5-35.5-66.3-3.3-18.7-93.4-26.6-92.3 11.3 1.1 37.9 20.8 79 54.6 108.8 33.8 29.8 78.2 44.7 133.1 44.7 57.8 0 103.7-15.1 137.9-45.3 34.2-30.2 51.2-65.3 51.2-105.4C700.4 476.3 694.1 455.3 681.6 435.5L681.6 435.5z"  horiz-adv-x="1024" />

    
    <glyph glyph-name="jingshigantanhao2" unicode="&#59380;" d="M512 893.72444445C230.1952 893.72444445 2.27555555 665.8048 2.27555555 384s227.91964445-509.72444445 509.72444445-509.72444445 509.72444445 227.91964445 509.72444445 509.72444445S793.8048 893.72444445 512 893.72444445zM512 92.72888889000001c-40.04977778 0-72.81777778 32.768-72.81777778 72.81777778 0 40.04977778 32.768 72.81777778 72.81777778 72.81777778 40.04977778 0 72.81777778-32.768 72.81777778-72.81777778C584.81777778 125.49688889000004 552.04977778 92.72888889000001 512 92.72888889000001zM584.81777778 384c0-40.04977778-32.768-72.81777778-72.81777778-72.81777778C471.95022222 311.18222221999997 439.18222222 343.95022222 439.18222222 384L439.18222222 602.4533333300001c0 40.04977778 32.768 72.81777778 72.81777778 72.81777778 40.04977778 0 72.81777778-32.768 72.81777778-72.81777778L584.81777778 384z"  horiz-adv-x="1024" />

    
    <glyph glyph-name="aixin1" unicode="&#58882;" d="M512-23.194002l-64.352657 58.361199C219.085764 242.646622 68.191078 379.561921 68.191078 547.099658c0 136.915299 107.180068 244.094344 244.094344 244.094344 77.222779 0 151.3388-35.948747 199.713554-92.53451 48.374754 56.585763 122.490775 92.53451 199.713554 92.53451 136.915299 0 244.094344-107.180068 244.094344-244.094344 0-167.537737-150.894685-304.453037-379.456265-511.933485L512-23.194002z"  horiz-adv-x="1024" />

    
    <glyph glyph-name="weixin-copy1" unicode="&#58964;" d="M579.86616889 384.06826667c-11.67018667 0-23.34378667-10.83733333-23.34378667-24.17777778 0-10.83960889 11.66791111-21.67808 23.34378667-21.67808 17.51381333 0 30.02026667 10.83960889 30.02026666 21.67808 0 13.33930667-12.50417778 24.17777778-30.02026666 24.17777778v0zM503.15377778 496.64c18.34439111 0 30.02026667 11.67018667 30.02026667 29.18513778 0 18.34439111-11.67473778 29.18286222-30.02026667 29.18286222-17.5104 0-34.18794667-10.83960889-34.18794667-29.18286222-0.00113778-17.51722667 16.67868445-29.18513778 34.18794667-29.18513778v0zM512.32654222 895.44021333c-282.65472 0-511.78723555-229.13251555-511.78723555-511.78723555 0-282.65244445 229.13251555-511.78609778 511.78723555-511.78609778 282.65244445 0 511.78609778 229.13251555 511.78609778 511.78609778 0.00113778 282.65472-229.13137778 511.78723555-511.78609778 511.78723555v0zM415.60177778 253.99182222000002c-30.85539555 0-53.36860445 4.99939555-82.55260445 13.34044445l-84.21717333-42.53013334 24.18574222 71.71527112c-59.20426667 41.68817778-94.22848 94.22051555-94.22848 158.4275911 0 113.40231111 106.73265778 200.12259555 236.81365333 200.12259556 115.06915555 0 217.63299555-68.37703111 237.64423112-165.10634666-8.33763555 1.67139555-15.84469333 2.50197333-22.51434667 2.50197333-113.40231111 0-200.95317333-85.04888889-200.95317333-187.61272889 0-17.50812445 2.50197333-33.35168 6.67079111-50.03036444-6.67079111-0.82830222-14.17784889-0.82830222-20.84864-0.82830223v0zM763.31463111 172.27662222000004l16.67413334-60.04053333-63.3708089 35.85365333c-24.18005333-4.99939555-47.52839111-12.50417778-71.70844444-12.50417777-111.73660445 0-200.12259555 76.71125333-200.12259556 171.76803555 0 95.05792 88.38826667 171.77031111 200.12259556 171.77031111 105.89525333 0 200.95317333-76.71239111 200.95317334-171.77031111 0-53.36177778-35.85365333-100.89016889-82.54805334-135.07811555v0zM338.05312 555.008c-17.5104 0-35.85365333-10.83960889-35.85365333-29.18286222 0-17.51608889 18.34325333-29.19082667 35.85365333-29.19082667 16.67982222 0 30.02026667 11.67473778 30.02026667 29.19082667 0 18.34325333-13.34044445 29.18286222-30.02026667 29.18286222v0zM710.78343111 384.06826667c-12.50986667 0-23.34947555-10.83733333-23.34947556-24.17777778 0-10.83960889 10.83960889-21.67808 23.34947556-21.67808 16.67413333 0 29.18286222 10.83960889 29.18286222 21.67808 0 13.33930667-12.50872889 24.17777778-29.18286222 24.17777778v0zM710.78343111 384.06826667z"  horiz-adv-x="1024" />

    
    <glyph glyph-name="xiangqu" unicode="&#58924;" d="M512-26.110425c-0.002047 0-0.004093 0-0.00614 0-5.574972 0.002047-10.916631 2.229784-14.84101 6.186909L370.833887 107.469919c-1.613754 1.622964-164.173107 165.007101-187.469696 188.304713C114.596991 364.540809 74.209142 441.7114 66.567092 518.942365c-7.609305 76.902484 18.981307 150.036132 74.874291 205.929116 54.793954 54.79293 121.562637 77.752852 193.072297 66.412572 59.33027-9.41237 120.361275-42.176588 177.48632-95.104031 57.122999 52.92642 118.155027 85.690638 177.485297 95.104031 71.513754 11.351536 138.279367-11.616572 193.072297-66.412572 55.891961-55.892985 82.482573-129.026632 74.874291-205.929116-7.643074-77.230965-48.0299-154.400532-116.7971-223.167732-50.870598-50.868551-311.172065-313.063135-313.795822-315.705312C522.914584-23.886781 517.572926-26.110425 512-26.110425zM298.928207 752.320647c-47.080272 0-89.998757-19.104103-127.914298-57.020668-47.547923-47.547923-69.27476-107.107413-62.829977-172.238806 6.67912-67.496254 42.902112-135.863341 104.751762-197.714014 23.334451-23.334451 185.92962-186.758498 187.568956-188.406021l111.505583-112.451118c56.269561 56.671721 255.224846 257.029958 299.05305 300.858162 61.850673 61.850673 98.073666 130.216737 104.750739 197.714014 6.446829 65.131393-15.280008 124.690884-62.828954 172.238806-45.573965 45.574988-98.377588 63.974034-156.947542 54.680367-55.707766-8.838296-114.234741-42.590004-169.251775-97.609085-3.922333-3.921309-9.240455-6.125511-14.785751-6.125511s-10.863419 2.203178-14.785751 6.124488c-55.020104 55.020104-113.546056 88.772836-169.252799 97.610108C318.119291 751.541911 308.437791 752.320647 298.928207 752.320647z"  horiz-adv-x="1024" />

    
    <glyph glyph-name="android" unicode="&#59418;" d="M885.65488299 574.43559197c-34.24657522 0-62.0173403-28.20038997-62.0173403-62.98486898l0-246.1377957c0-34.78797198 27.76960114-62.98603406 62.0173403-62.98603406 34.25123214 0 62.01617635 28.19922603 62.01617635 62.98603406L947.67105821 511.45072185C947.67338723 546.23520085 919.90960697 574.43559197 885.65488299 574.43559197L885.65488299 574.43559197zM137.61626909 574.43559197c-34.25006706 0-62.0173403-28.20038997-62.01734031-62.98486898l0-246.1377957c0-34.78797198 27.76727325-62.98603406 62.01734031-62.98603406s62.01617635 28.19922603 62.01617635 62.98603406L199.6324443 511.45072185C199.6324443 546.23520085 171.86633614 574.43559197 137.61626909 574.43559197L137.61626909 574.43559197zM236.95275805 572.5284761600001l0-449.69499193c0-26.71009223 21.65239467-48.36248803 48.36365198-48.36248804l55.25278606 0 0-136.94554794c0-34.78797198 27.76727325-62.98719801 62.0173403-62.98719801 34.25123214 0 62.01850425 28.20038997 62.01850425 62.98719801L464.60504178 74.47216014000003l96.52355299 0 0-136.94554795c0-34.78797198 27.76960114-62.98719801 62.0173403-62.987198 34.25123214 0 62.02199723 28.20038997 62.02199723 62.987198L685.1679323 74.47216014000003l55.24696405 0c26.71475029 0 48.36598101 21.65006677 48.36598102 48.36248804L788.78087737 572.5284761600001 236.95392313 572.5284761600001 236.95275805 572.5284761600001 236.95275805 572.5284761600001zM642.43830329 805.5528163500001L693.41463325 879.54842397c3.02367403 4.39521394 2.27270429 10.16895261-1.68357092 12.89456753-3.95627406 2.7232859-9.61591296 1.37037483-12.64075094-3.027167l-52.95097514-76.86443122c-34.8927579 13.74683136-73.66378382 21.40789305-114.50376078 21.40789305-40.84114205 0-79.60983893-7.66106169-114.50376078-21.40789305L344.18316857 889.4158245c-3.02716701 4.39754297-8.68796985 5.74928896-12.64424391 3.027167-3.95627406-2.72677888-4.70608099-8.4993536-1.68007794-12.89456753l50.97632995-73.99677156c-81.04192114-37.70103808-137.87931307-109.33661923-145.11307776-192.94814094l551.82811819 0C780.31528733 696.2161971200001 723.47906048 767.8517782700001 642.43830329 805.5528163500001L642.43830329 805.5528163500001zM395.23168483 688.93469582c-16.86132053 0-30.53247374 13.66649515-30.53247374 30.53130866 0 16.86132053 13.66998813 30.53130866 30.53247374 30.53130866s30.53130866-13.66882418 30.53130866-30.53130866C425.76299349 702.60235491 412.0953344 688.93469582 395.23168483 688.93469582L395.23168483 688.93469582zM631.85718955 688.93469582c-16.86132053 0-30.52898077 13.66649515-30.52898077 30.53130866 0 16.86132053 13.6653312 30.53130866 30.52898077 30.53130866 16.86714254 0 30.53363769-13.66882418 30.53363768-30.53130866C662.39082723 702.60235491 648.72549603 688.93469582 631.85718955 688.93469582L631.85718955 688.93469582z"  horiz-adv-x="1024" />

    
    <glyph glyph-name="sousuo" unicode="&#58895;" d="M939.52079621 41.77896879000002l-206.73030698 206.73030698c45.04629259 61.13425421 72.39582734 136.74767389 72.39582735 218.79627817 0 203.51271463-164.90160672 368.41432137-368.41432138 368.41432137S68.35767383 670.8182686 68.35767383 468.10995202s164.90160672-368.41432137 368.41432137-368.41432135c85.26619664 0 164.09720864 28.95833093 226.03586092 78.0266139l205.92590891-205.92590887c19.30555395-19.30555395 51.48147723-19.30555395 70.78703118 0 19.30555395 19.30555395 19.30555395 50.67707915 0 69.98263309zM128.68752996 468.10995202c0 169.72799522 137.55207195 308.08446526 308.08446524 308.08446526 169.72799522 0 308.08446526-137.55207195 308.08446524-308.08446526 0-169.72799522-137.55207195-308.08446526-308.08446524-308.08446524-170.53239329 0-308.08446526 137.55207195-308.08446524 308.08446524z"  horiz-adv-x="1024" />

    
    <glyph glyph-name="xiangxia" unicode="&#58900;" d="M75.09902222 621.82513778l440.28700445-478.51633778 433.51495111 480.99100445z"  horiz-adv-x="1024" />

    
    <glyph glyph-name="guanbi" unicode="&#58928;" d="M512-96c-265.12000031 0-480 214.87999969-480 480s214.87999969 480 480 480 480-214.87999969 480-480-214.87999969-480-480-480z m218.82666656 661.60000031a26.45333344 26.45333344 0 1 1-37.44 37.44L513.49333344 423.19999969 333.65333375 603.04000031a26.50666688 26.50666688 0 0 1-37.49333344-37.44l179.89333313-179.84000062-181.49333344-181.49333344a26.45333344 26.45333344 0 1 1 37.44-37.44l181.49333344 181.49333344 181.49333344-181.49333344a26.45333344 26.45333344 0 1 1 37.44 37.44L550.93333344 385.75999969l179.89333312 179.84000062z"  horiz-adv-x="1024" />

    
    <glyph glyph-name="shouyexiangshanghuadong" unicode="&#58919;" d="M407.9041770000001 728.3993289999999c-3.552713678800501e-15-6.28003 2.3341609999999964-12.564153999999998 7.01374099999999-17.393135l314.4517619999998-324.50779200000017-314.51316000000025-327.0824299999998c-9.421580000000006-9.797133999999996-9.243525000000012-25.494650999999994 0.39397299999998836-35.063587 9.645683999999992-9.570983000000004 25.100678-9.386788000000012 34.515095 0.4062529999999853L781.00571 369.23727299999996c9.285480000000002 9.657963999999993 9.261944000000009 25.094537999999993-0.06651499999998123 34.721803L449.6980490000002 745.7955350000002c-9.453302999999993 9.757225000000005-24.905225999999985 9.88104500000001-34.511002 0.2711760000000183C410.33452900000015 741.214193 407.90417700000023 734.806249 407.9041770000001 728.3993289999999L407.9041770000001 728.3993289999999 407.9041770000001 728.3993289999999zM259.141038 129.99954000000014c-1.7763568394002505e-15-4.291746 1.633196999999996-8.586562 4.900612999999995-11.824303000000004 6.421245999999997-6.379291000000004 16.726962999999994-6.255471000000005 23.002899999999997 0.2732229999999909L533.7503730000001 375.01486c6.183839000000003 6.427385999999996 6.179746000000006 16.692170999999995-0.008185999999998472 23.115464L288.0136230000004 653.098319c-6.293332999999996 6.519484000000002-16.588816999999995 6.631024000000007-23.010063 0.24354700000001017-6.421246000000004-6.383383999999999-6.527670000000005-16.852829999999997-0.2415000000000056-23.372313999999996l234.6001089999999-243.41486900000015L263.772522 141.55676100000017c-3.0914080000000013-3.2193209999999985-4.630461000000005-7.388270999999996-4.630461000000004-11.552103999999995L259.1420619999997 129.99954000000025 259.141038 129.99954000000014zM259.141038 129.99954000000014"  horiz-adv-x="1024" />

    
    <glyph glyph-name="jia" unicode="&#59077;" d="M512 864C247.472 864 32 648.528 32 384s215.472-480 480-480 480 215.472 480 480S776.528 864 512 864z m180.984-508.8h-153.888v-151.992c0-16.416-12.336-28.8-28.632-28.8-16.32 0-28.608 12.408-28.608 28.8l1.464 151.992h-152.304c-16.32 0-28.608 12.384-28.608 28.8s12.312 28.824 28.608 28.824h152.376v151.992c0 16.416 12.288 28.8 28.608 28.8s28.584-12.384 28.584-28.8v-151.992h152.4c16.32 0 28.608-12.384 28.608-28.824s-12.288-28.8-28.608-28.8z"  horiz-adv-x="1024" />

    
    <glyph glyph-name="feiji" unicode="&#58887;" d="M512.6144 872.96c-270.75072 0-490.24-219.48928-490.24-490.24S241.86368-107.51999999999998 512.6144-107.51999999999998c270.75584 0 490.24 219.48928 490.24 490.24S783.37024 872.96 512.6144 872.96z m-26.51136-681.60512l-58.10688 57.48224-58.112-57.48224v115.584l361.28768 236.22656-399.81568-197.69856L227.77344 444.0064l568.45824 132.63872-310.12864-385.29024z"  horiz-adv-x="1024" />

    
    <glyph glyph-name="paixu1" unicode="&#59120;" d="M941.18229328 725.21728a32.87552 32.87552 0 0 1-8.41216 10.15808c-11.17184 9.12896-27.36128 11.65824-41.31328 7.60832a42.75712 42.75712 0 0 1-9.53856-4.04992 38.76864 38.76864 0 0 1-5.18656-3.5584L693.02613328 584.5964799999999c-15.46752-12.6464-15.47264-33.14688 0-45.78816 15.47264-12.6464 40.56576-12.6464 56.0384 0l116.05504 94.82752v-588.35456c0-17.87904 17.74592-32.37888 39.6288-32.36864 21.88288 0 39.61856 14.4896 39.61856 32.36864V712.4736h-0.02048a27.37664 27.37664 0 0 1-3.16416 12.74368z"  horiz-adv-x="1024" />

    
    <glyph glyph-name="paixu3" unicode="&#59121;" d="M346.33898672 218.95168c-15.47776 12.6464-40.57088 12.6464-56.0384 0l-116.06528-94.82752 0.00512 588.34944c0 17.88416-17.74592 32.37888-39.6288 32.37888s-39.61856-14.49472-39.61856-32.37888v-667.19232h0.01024a27.4944 27.4944 0 0 1 3.17952-12.73344 32.73216 32.73216 0 0 1 8.41216-10.15296c11.17696-9.12384 27.36128-11.66336 41.31328-7.61344a42.99776 42.99776 0 0 1 9.53856 4.04992 40.29952 40.29952 0 0 1 5.18656 3.56352l183.7056 150.76864c15.4624 12.6464 15.4624 33.14688 0 45.78816z"  horiz-adv-x="1024" />

    
    <glyph glyph-name="yueliang" unicode="&#58881;" d="M413.21951211 790.09756055C413.21951211 814.3536583 393.57317041 834 369.31707354 834 303.3536583 834 62 649.56585381 62 394.97560987 62 140.38536592000003 268.38536592-66 522.97560987-66 777.56585381-66 962 177.04390223999997 962 241.31707354000002 962 265.57317041 942.3536583 285.21951211 918.09756055 285.21951211 893.84146367 285.21951211 653.38780449 225.73170760999994 503.24146367 375.87804844000004 353.09512198 526.02439013 413.21951211 765.8414636699999 413.21951211 790.09756055Z"  horiz-adv-x="1024" />

    
    <glyph glyph-name="you-tube" unicode="&#58898;" d="M428.69646222 267.49155555000004l198.06435556 116.50844445-198.06435556 115.92590222zM512 893.14190222c-281.36789333 0-509.14190222-227.77400889-509.14190222-509.14190222 0-281.36789333 227.77400889-509.14190222 509.14190222-509.14190222 281.36789333 0 509.14190222 227.77400889 509.14190222 509.14190222 0.58254222 281.36789333-227.77400889 509.14190222-509.14190222 509.14190222z m291.85365333-613.41696c0-100.19726222-100.19726222-100.19726222-100.19726222-100.19726222h-381.56515556c-100.19726222 0-100.19726222 100.19726222-100.19726222 100.19726222v208.55011556c0 100.19726222 100.19726222 100.19726222 100.19726222 100.19726222h381.56515556c100.19726222 0 100.19726222-100.19726222 100.19726222-100.19726222v-208.55011556z"  horiz-adv-x="1024" />

    
    <glyph glyph-name="duihao2-copy" unicode="&#59039;" d="M0 384C0 666.7652410000001 229.234759 896 512 896s512-229.234759 512-512-229.234759-512-512-512S0 101.23475900000005 0 384z m419.310345-194.630621a35.310345 35.310345 0 0 1 49.399172-1.271172l335.518897 311.931586a35.310345 35.310345 0 0 1-48.075035 51.729655l-309.124413-289.544827-145.125518 149.645241a35.310345 35.310345 0 1 1-50.688-49.169655l168.112552-173.320828z"  horiz-adv-x="1024" />

    
    <glyph glyph-name="yuancircle46-copy" unicode="&#59230;" d="M146.63614625 18.636146250000024c201.45252468-201.45252468 529.26192673-201.45252468 730.71445141 0s201.45252468 529.26192673 0 730.71445141-529.26192673 201.45252468-730.71445141 0S-54.81637842 220.10192701999995 146.63614625 18.636146250000024zM186.72250768 709.29074838c179.3679089 179.3679089 471.21358787 179.3679089 650.58149678 0 179.34139676-179.35465282 179.34139676-471.21358787 0-650.58149676-179.3679089-179.35465282-471.24010001-179.35465282-650.58149678 0C7.35459879 238.0771605 7.35459879 529.93609556 186.72250768 709.29074838z"  horiz-adv-x="1024" />

    
    <glyph glyph-name="direction-arrow-down" unicode="&#58880;" d="M471.43253333 846.4608l0-782.46186667-192.34986666 199.80693334c-5.11573333 5.11466667-13.408 5.11466668-18.5248 0l-40.13546667-40.13546667c-5.11466667-5.11573333-5.11466668-13.408 0-18.5248l242.14506667-251.52746667c0.24426667-0.29013333 0.496-0.57706667 0.76906666-0.85013333l1.34293334-1.34293333 37.34293333-38.79146667c2.7392-2.73813333 6.38933333-3.99573333 9.97546667-3.8016 3.5936-0.20053333 7.25333333 1.05706667 9.9968 3.79946667l38.6848 40.13546666c0.25706667 0.2592 0.49386667 0.52906667 0.72533333 0.80213334l242.18666667 251.57546666c5.1168 5.11573333 5.1168 13.408 0 18.5248l-40.13546667 40.13546667c-5.11466667 5.11466667-13.40693333 5.11466667-18.5248 0l-190.54613333-197.9328 0 780.58666667c0 7.2352-5.86453333 13.09866667-13.09866668 13.09866666l-56.76053332 0c-7.23306667 0-13.09866667-5.86346667-13.09866667-13.09866666z"  horiz-adv-x="1024" />

    
    <glyph glyph-name="yk_gantanhao_fill" unicode="&#58884;" d="M512 893.72444445C230.74133333 893.72444445 2.27555555 665.25866667 2.27555555 384s228.46577778-509.72444445 509.72444445-509.72444445 509.72444445 228.46577778 509.72444445 509.72444445S793.25866667 893.72444445 512 893.72444445z m36.40888889-800.99555556h-72.81777778v72.81777778h72.81777778v-72.81777778z m-72.81777778 145.63555556V675.27111111h72.81777778v-436.90666666h-72.81777778z"  horiz-adv-x="1024" />

    
    <glyph glyph-name="facebook" unicode="&#58883;" d="M512 896c-281.6 0-512-230.4-512-512s230.4-512 512-512 512 230.4 512 512c0 284.8-230.4 512-512 512z m128-326.4h-57.6c-22.4 0-35.2-3.2-41.6-12.8-6.4-9.6-9.6-22.4-9.6-38.4v-70.4h108.8l-16-108.8h-92.8v-281.6h-112v281.6h-96v108.8h96v80c0 44.8 12.8 80 38.4 105.6 25.6 25.6 60.8 38.4 102.4 38.4 35.2 0 64 0 83.2-3.2v-99.2z"  horiz-adv-x="1024" />

    
    <glyph glyph-name="direction-arrow-down-copy" unicode="&#59381;" d="M552.56746667-78.46079999999995l0 782.46186667 192.34986666-199.80693334c5.11573333-5.11466667 13.408-5.11466668 18.5248 0l40.13546667 40.13546667c5.11466667 5.11573333 5.11466668 13.408 0 18.5248l-242.14506667 251.52746667c-0.24426666 0.29013333-0.496 0.57706667-0.76906666 0.85013333l-1.34293334 1.34293333-37.34293333 38.79146667c-2.7392 2.73813333-6.38933333 3.99573333-9.97546667 3.8016-3.5936 0.20053333-7.25333332-1.05706667-9.9968-3.79946667l-38.6848-40.13546666c-0.25706667-0.2592-0.49386667-0.52906667-0.72533333-0.80213334l-242.18666667-251.57546666c-5.1168-5.11573333-5.1168-13.408 0-18.5248l40.13546667-40.13546666c5.11466667-5.11466667 13.40693333-5.11466667 18.5248 0l190.54613333 197.93279999 0-780.58666667c0-7.2352 5.86453333-13.09866667 13.09866668-13.09866666l56.76053332-1e-8c7.23306667 0 13.09866667 5.86346667 13.09866667 13.09866667z"  horiz-adv-x="1024" />

    
    <glyph glyph-name="tuite2" unicode="&#58891;" d="M1024 384C1024 666.7625 794.7625 896 512 896S0 666.7625 0 384s229.2375-512 512-512 512 229.2375 512 512zM236.3125 202.05a218.375 218.375 0 0 1 167.5 49.425c-49.525 1.1625-91.25 36.1625-105.6625 84.2a107.1 107.1 0 0 1 51.0625 1.7125c-51.7625 11.45-90.7625 60.55-90.7625 119.0625v1.55a108.325 108.325 0 0 1 51.25-15.6375c-30.3 21.925-50.2625 59.1625-50.2625 101.05a125.3 125.3 0 0 0 15.3125 60.5125c55.8-73.75 139.1625-122.75 233.15-128.8375a126.025 126.025 0 0 0-2.925 27.325c0 66.1375 50.6375 118.925 113.1 117.9a112.5 112.5 0 0 0 82.5625-38.9625 216.525 216.525 0 0 1 71.825 27.7 115.8875 115.8875 0 0 0-49.75-65 215.325 215.325 0 0 1 65 17.775A232.5 232.5 0 0 0 731.25 501.1375c0.2375-5.125 0.325-10.2375 0.325-15.3625 0-157.05-113.75-338.15-321.8625-338.0625a304.5875 304.5875 0 0 0-173.4 54.3375z m0 0"  horiz-adv-x="1024" />

    


  </font>
</defs>
</svg>
