<svg id="图层_1" data-name="图层 1" xmlns="http://www.w3.org/2000/svg" viewBox="0 0 39.92 27.58"><defs><style>.cls-1{fill:#0092ff;}</style></defs><title>55logo_update</title><path class="cls-1" d="M16.43,18.75a6,6,0,0,1-1.8,2.82h0l-.36.29,0,0a6.29,6.29,0,0,1-1.66.88l0,0-.41.12-.1,0a2.88,2.88,0,0,1-.4.09l-.14,0-.4.05H11l-.47,0A6.1,6.1,0,0,1,4.46,17H0c0,.09,0,.17,0,.26,0,.27,0,.54,0,.81s.09.69.16,1v0c0,.1.06.19.08.29s.1.44.17.66.08.23.12.34.14.41.22.61l0,.08c0,.1.09.19.14.29s.16.36.25.53l.21.36c.1.16.19.33.3.49l.08.13c.05.08.11.15.17.23s.21.29.33.44l.28.33c.12.14.24.28.37.41l.14.15c0,.06.11.1.17.16l.41.37.32.27.46.34c.07.05.13.11.2.15l.14.09.5.3.36.21.53.25.26.13.11,0,.6.22.35.11c.21.07.43.12.65.17s.19.06.28.07H8.5c.27.06.54.09.82.13l.2,0c.34,0,.7,0,1.05,0s.69,0,1,0l.27,0c.24,0,.48-.06.72-.11l.11,0a1.34,1.34,0,0,0,.27-.07l.58-.14L14,27l.52-.19.22-.08.2-.1.44-.21.44-.23.39-.24.32-.2.1-.07a9.2,9.2,0,0,0,.77-.59c.24-.2.48-.41.7-.63h0a11.39,11.39,0,0,0,.9-1Z"/><path class="cls-1" d="M40,16.74c0-.26,0-.51,0-.76s0-.26-.06-.4,0-.41-.09-.61a.28.28,0,0,1,0-.09c0-.12-.07-.24-.1-.36s-.08-.35-.13-.52l-.15-.46-.18-.47-.06-.18-.15-.3c-.06-.14-.12-.27-.19-.4l-.27-.49-.2-.34c-.06-.08-.11-.18-.17-.26a2.15,2.15,0,0,0-.18-.24l-.19-.26c-.13-.17-.27-.35-.41-.51l-.17-.19c-.11-.12-.22-.25-.34-.37s-.12-.1-.17-.16l-.1-.09a11.73,11.73,0,0,0-1.29-1,10.06,10.06,0,0,0-1.8-1,10.81,10.81,0,0,0-2-.62c-.25-.05-.5-.08-.75-.11l-.3,0c-.36,0-.72,0-1.08,0s-.73,0-1.08,0c-.12,0-.23,0-.35.06s-.47,0-.7.1l-.06,0,1.07-2.52H38.1V0H25.62L21.24,10.34l-.19.23,2.52,4.69a6.14,6.14,0,0,1,2.17-3.13h0a6.09,6.09,0,0,1,2.14-1H28l.44-.1h.08a6,6,0,0,1,1-.08,6.12,6.12,0,1,1-2.52,11.68h0a5.28,5.28,0,0,1-.9-.5,6,6,0,0,1-.91-.75,5.87,5.87,0,0,1-.75-.9,6.82,6.82,0,0,1-.54-1L20.33,13a7.7,7.7,0,0,0-.33-.71,11.58,11.58,0,0,0-.65-1.14h0l-.22-.29-.33-.45-.3-.34-.33-.37-.11-.12-.24-.21L17.46,9l-.37-.31-.37-.27-.24-.18-.17-.1-.39-.24-.43-.25-.42-.2c-.13-.06-.25-.13-.38-.18l-.07,0L13.9,7l-.14-.05a9.73,9.73,0,0,0-1.06-.28c-.24-.05-.48-.08-.72-.11l-.33,0c-.35,0-.71,0-1.07,0h0c-.36,0-.72,0-1.08,0l-.33,0c-.24,0-.48.06-.72.11l-.14,0L9.37,4.15h9.79V0H6.69L2.21,10.55l0,0,2.52,4.69a6.1,6.1,0,0,1,8.38-3.83h0a6,6,0,0,1,.9.49,6.1,6.1,0,0,1,2.2,2.65l3.47,6.47.36.67.64,1.2a10.58,10.58,0,0,0,2.86,2.85,10.38,10.38,0,0,0,1.79,1c.3.13.62.24.93.34h0a9.34,9.34,0,0,0,1,.27h0a9.36,9.36,0,0,0,1.06.17c.24,0,.48,0,.72,0l.35,0h0c.36,0,.71,0,1.07,0s.64-.09.95-.15l.11,0,.08,0c.3-.06.6-.14.89-.22l.13-.05c.27-.09.53-.18.8-.29l.08,0,0,0q.42-.18.81-.39l.17-.09c.26-.15.53-.31.78-.48h0a8.8,8.8,0,0,0,.91-.7l.24-.21a4.86,4.86,0,0,0,.41-.38l.21-.22.21-.23c.2-.23.4-.47.58-.72l.14-.18c.05-.07.11-.14.15-.21a7.68,7.68,0,0,0,.47-.78.47.47,0,0,0,.06-.09,6.59,6.59,0,0,0,.34-.71,1.51,1.51,0,0,0,.11-.22c0-.11.08-.23.13-.35s.16-.41.22-.62.17-.6.24-.9a.35.35,0,0,1,0-.11c0-.07,0-.13,0-.19,0-.22.08-.45.11-.68L40,18c0-.28,0-.58,0-.87V17C40,16.92,40,16.83,40,16.74Z"/></svg>