<?xml version="1.0" encoding="utf-8"?>
<!-- Generator: Adobe Illustrator 22.1.0, SVG Export Plug-In . SVG Version: 6.00 Build 0)  -->
<svg version="1.1" id="图层_1" xmlns="http://www.w3.org/2000/svg" xmlns:xlink="http://www.w3.org/1999/xlink" x="0px" y="0px"
	 viewBox="0 0 174 54" style="enable-background:new 0 0 174 54;" xml:space="preserve">
<style type="text/css">
	.st0{fill:#0092FF;}
</style>
<g>
	<g>
		<polygon class="st0" points="47.8,20.2 42.8,15.2 37.3,9.6 31.7,15.2 19.7,27.2 17.5,29.4 16.1,30.8 11.1,25.8 28.3,8.5 29.5,9.7 
			29.5,1.8 21.6,1.8 22.8,3 4.5,21.3 0,25.8 0,25.8 5.6,31.3 5.6,31.3 10.5,36.3 10.5,36.3 16.1,41.9 19.6,38.4 25.3,32.7 
			25.3,32.7 35.8,22.2 34.4,20.7 37.3,20.7 37.3,20.7 42.3,20.7 42.3,25.7 42.3,25.7 42.3,28.6 40.8,27.2 28,39.9 33.6,45.5 
			53.4,25.7 		"/>
		<polygon class="st0" points="28.1,45.9 28.1,45.9 28.1,45.9 28.2,45.9 28.2,45.9 28.2,45.9 28.2,45.9 28.2,45.9 28.2,45.9 
			28.2,45.9 28.2,45.8 28.2,45.8 28.2,45.8 28.2,45.8 28.2,45.8 28.2,45.8 28.2,45.8 28.2,45.8 28.2,45.8 28.2,45.8 28.2,45.8 
			28.2,45.8 28.2,45.8 28.2,45.8 28.2,45.8 28.2,45.8 28.2,45.8 28.2,45.8 28.2,45.8 28.2,45.8 28.2,45.8 28.2,45.8 28.3,45.8 
			28.3,45.8 28.3,45.8 28.3,45.8 28.3,45.8 28.3,45.8 28.3,45.8 28.3,45.7 28.3,45.7 28.3,45.7 28.3,45.7 28.3,45.7 28.3,45.7 
			28.3,45.7 28.3,45.7 28.3,45.7 28.3,45.7 28.3,45.7 28.3,45.7 28.3,45.7 28.3,45.7 28.3,45.7 28.3,45.7 28.3,45.7 28.3,45.7 
			28.3,45.7 28.3,45.7 28.3,45.7 28.4,45.7 28.3,45.7 28.3,45.7 28.3,45.7 28.3,45.7 28.3,45.7 28.3,45.7 28.3,45.7 28.4,45.7 
			28.4,45.7 28.4,45.7 28.4,45.7 28.4,45.7 28.4,45.7 28.4,45.7 28.4,45.7 28.4,45.6 28.4,45.6 28.4,45.6 28.4,45.6 28.4,45.6 
			28.4,45.6 28.4,45.6 28.4,45.6 28.4,45.6 28.4,45.6 28.4,45.6 28.4,45.6 28.4,45.6 28.4,45.6 28.4,45.6 28.4,45.6 28.4,45.6 
			28.4,45.6 28.4,45.6 28.4,45.6 28.4,45.6 28.5,45.6 28.5,45.6 28.5,45.6 28.5,45.6 28.5,45.6 28.6,45.5 28,45 27.9,45 27.9,45.1 
			27.9,45.1 27.9,45.1 27.9,45.1 27.9,45.1 27.9,45.1 27.9,45.1 27.9,45.1 27.9,45.1 27.9,45.1 27.9,45.1 27.9,45.1 27.9,45.1 
			27.9,45.1 27.9,45.1 27.9,45.1 27.9,45.1 27.9,45.1 27.9,45.1 27.9,45.1 27.9,45.1 27.9,45.1 27.9,45.1 27.9,45.1 27.9,45.1 
			27.9,45.1 27.8,45.1 27.8,45.1 27.8,45.2 27.8,45.2 27.8,45.2 27.8,45.2 27.8,45.2 27.8,45.2 27.8,45.2 27.8,45.2 27.8,45.2 
			27.8,45.2 27.8,45.2 27.8,45.2 27.8,45.2 27.8,45.2 27.8,45.2 27.8,45.2 27.8,45.2 27.8,45.2 27.8,45.2 27.8,45.2 27.8,45.2 
			27.8,45.2 27.8,45.2 27.8,45.2 27.8,45.2 27.8,45.2 27.8,45.2 27.8,45.2 27.8,45.2 27.8,45.2 27.8,45.2 27.8,45.2 27.8,45.2 
			27.8,45.2 27.8,45.2 27.7,45.2 27.7,45.2 27.7,45.2 27.7,45.3 27.7,45.3 27.7,45.3 27.7,45.3 27.7,45.3 27.7,45.3 27.7,45.3 
			27.7,45.3 27.7,45.3 27.7,45.3 27.7,45.3 27.7,45.3 27.7,45.3 27.7,45.3 27.7,45.3 27.7,45.3 27.7,45.3 27.7,45.3 27.7,45.3 
			27.7,45.3 27.7,45.3 27.7,45.3 27.7,45.3 27.7,45.3 27.7,45.3 27.6,45.3 27.6,45.3 27.6,45.3 27.6,45.3 27.6,45.4 27.6,45.4 
			27.6,45.4 27.6,45.4 27.6,45.4 27.6,45.4 27.6,45.4 28.1,45.9 		"/>
		<polygon class="st0" points="27.1,46.9 27.1,46.8 27.1,46.8 27.1,46.8 27.1,46.8 27.1,46.8 27.1,46.8 27.1,46.8 27.1,46.8 
			27.1,46.8 27.1,46.8 27.1,46.8 27.1,46.8 27.1,46.8 27.1,46.8 27.1,46.8 27.1,46.8 27.1,46.8 27.1,46.8 27.1,46.8 27.1,46.8 
			27.1,46.8 27.1,46.8 27.1,46.8 27.1,46.8 27.1,46.8 27.1,46.8 27.1,46.8 27.1,46.8 27.1,46.8 27.1,46.8 27.1,46.8 27.2,46.8 
			27.2,46.8 27.2,46.8 27.2,46.8 27.2,46.7 27.2,46.7 27.2,46.7 27.2,46.7 27.2,46.7 27.2,46.7 27.2,46.7 27.2,46.7 27.2,46.7 
			27.2,46.7 27.2,46.7 27.2,46.7 27.2,46.7 27.2,46.7 27.2,46.7 27.2,46.7 27.2,46.7 27.2,46.7 27.2,46.7 27.2,46.7 27.2,46.7 
			27.2,46.7 27.2,46.7 27.2,46.7 27.2,46.7 27.2,46.7 27.2,46.7 27.2,46.7 27.2,46.7 27.2,46.7 27.2,46.7 27.3,46.7 27.3,46.7 
			27.3,46.7 27.3,46.7 27.3,46.7 27.3,46.6 27.3,46.6 27.3,46.6 27.3,46.6 27.3,46.6 27.3,46.6 27.3,46.6 27.3,46.6 27.3,46.6 
			27.3,46.6 27.3,46.6 27.3,46.6 27.3,46.6 27.4,46.5 27,46.1 26.9,46.2 26.9,46.2 26.9,46.2 26.9,46.2 26.9,46.2 26.9,46.2 
			26.9,46.2 26.9,46.2 26.9,46.2 26.8,46.2 26.8,46.2 26.8,46.2 26.8,46.2 26.8,46.2 26.8,46.2 26.8,46.2 26.8,46.2 26.8,46.2 
			26.8,46.2 26.8,46.2 26.8,46.3 26.8,46.3 26.8,46.3 26.8,46.3 26.8,46.3 26.8,46.3 26.8,46.3 26.8,46.3 26.8,46.3 26.8,46.3 
			26.8,46.3 26.8,46.3 26.8,46.3 26.8,46.3 26.8,46.3 26.8,46.3 26.8,46.3 26.8,46.3 26.8,46.3 26.8,46.3 26.8,46.3 26.8,46.3 
			26.8,46.3 26.8,46.3 26.7,46.3 26.7,46.3 26.7,46.3 26.7,46.3 26.7,46.3 26.7,46.3 26.7,46.3 26.7,46.3 26.7,46.3 26.7,46.3 
			26.7,46.3 26.7,46.3 26.7,46.4 26.7,46.4 26.7,46.4 26.7,46.4 26.7,46.4 26.7,46.4 26.7,46.4 26.7,46.4 26.7,46.4 26.7,46.4 
			26.7,46.4 26.7,46.4 26.7,46.4 26.7,46.4 26.7,46.4 26.7,46.4 26.7,46.4 26.7,46.4 26.7,46.4 26.7,46.4 26.7,46.4 26.7,46.4 
			26.6,46.4 26.6,46.4 26.6,46.4 26.6,46.4 26.6,46.4 26.6,46.4 26.6,46.4 26.6,46.4 26.6,46.4 26.6,46.4 26.6,46.4 26.6,46.4 
			26.6,46.4 26.6,46.5 26.6,46.5 26.6,46.5 26.6,46.5 26.6,46.5 26.6,46.5 26.6,46.5 26.6,46.5 26.6,46.5 26.6,46.5 26.6,46.5 
			26.6,46.5 27,46.9 27,46.9 27,46.9 27,46.9 27,46.9 27,46.9 27,46.9 27,46.9 27,46.9 27,46.9 27,46.9 27,46.9 27,46.9 27,46.9 
			27,46.9 27.1,46.9 27.1,46.9 27.1,46.9 		"/>
		<polygon class="st0" points="26.1,47.7 26.1,47.7 26.1,47.7 26.1,47.7 26.1,47.7 26.1,47.7 26.1,47.7 26.1,47.7 26.1,47.7 
			26.1,47.7 26.1,47.7 26.1,47.7 26.1,47.7 26.1,47.7 26.1,47.7 26.1,47.7 26.1,47.7 26.1,47.7 26.1,47.7 26.1,47.7 26.1,47.7 
			26.1,47.7 26.1,47.7 26.1,47.7 26.1,47.7 26.1,47.7 26.1,47.7 26.1,47.7 26.1,47.7 26.1,47.7 26.1,47.7 26.1,47.7 26.1,47.7 
			26.1,47.7 26.1,47.7 26.2,47.7 26.2,47.6 26.2,47.6 26.2,47.6 25.9,47.3 25.8,47.3 25.8,47.3 25.8,47.3 25.8,47.3 25.8,47.3 
			25.8,47.3 25.8,47.3 25.8,47.3 25.8,47.3 25.8,47.3 25.8,47.3 25.8,47.3 25.8,47.3 25.8,47.3 25.8,47.4 25.8,47.4 25.8,47.4 
			25.8,47.4 25.8,47.4 25.8,47.4 25.8,47.4 25.8,47.4 25.8,47.4 25.8,47.4 25.8,47.4 25.8,47.4 25.8,47.4 25.8,47.4 25.8,47.4 
			25.8,47.4 25.8,47.4 25.8,47.4 25.8,47.4 25.7,47.4 25.7,47.4 25.7,47.4 25.7,47.4 25.7,47.4 25.7,47.4 25.7,47.4 25.7,47.4 
			25.7,47.4 25.7,47.4 25.7,47.4 25.7,47.4 25.7,47.4 25.7,47.4 25.7,47.4 25.7,47.4 25.7,47.4 25.7,47.4 25.7,47.4 25.7,47.4 
			25.7,47.4 25.7,47.4 25.7,47.4 25.7,47.4 25.7,47.4 25.7,47.4 25.7,47.5 25.7,47.5 25.7,47.5 25.7,47.5 25.7,47.5 25.7,47.5 
			25.7,47.5 25.7,47.5 25.7,47.5 25.7,47.5 25.7,47.5 25.7,47.5 25.7,47.5 25.7,47.5 25.7,47.5 25.7,47.5 25.7,47.5 25.7,47.5 
			25.6,47.5 25.6,47.5 25.6,47.5 25.6,47.5 25.6,47.5 25.6,47.5 25.6,47.5 25.6,47.5 25.6,47.5 25.6,47.5 25.6,47.5 25.6,47.5 
			25.6,47.5 25.6,47.5 25.6,47.5 25.6,47.5 25.6,47.5 25.6,47.5 25.6,47.5 25.6,47.5 25.6,47.5 25.6,47.5 25.6,47.5 25.6,47.5 
			25.6,47.5 25.6,47.5 25.9,47.9 25.9,47.9 25.9,47.9 25.9,47.9 25.9,47.9 25.9,47.9 25.9,47.9 25.9,47.9 25.9,47.9 25.9,47.9 
			25.9,47.9 26,47.8 26,47.8 26,47.8 26,47.8 26,47.8 26,47.8 26,47.8 26,47.8 26,47.8 26,47.8 26,47.8 26,47.8 26,47.8 26,47.8 
			26,47.8 26,47.8 26,47.8 26,47.8 26,47.8 26,47.8 26,47.8 26,47.8 26,47.8 26,47.8 26,47.8 26,47.8 26,47.8 26,47.8 26,47.8 
			26,47.8 26,47.8 26,47.8 26,47.8 26,47.8 26,47.8 26,47.8 26,47.8 26,47.8 26,47.8 26,47.8 26,47.8 26,47.8 26,47.8 26,47.8 
			26,47.8 26.1,47.7 26.1,47.7 26.1,47.7 26.1,47.7 26.1,47.7 26.1,47.7 26.1,47.7 26.1,47.7 26.1,47.7 		"/>
		<polygon class="st0" points="24.8,48.4 24.8,48.4 24.8,48.5 24.8,48.5 24.8,48.5 24.8,48.5 24.8,48.5 24.8,48.5 24.8,48.5 
			24.8,48.5 24.8,48.5 24.8,48.5 24.8,48.5 24.7,48.5 24.7,48.5 24.7,48.5 24.7,48.5 24.7,48.5 24.7,48.5 24.7,48.5 24.7,48.5 
			24.7,48.5 24.7,48.5 24.7,48.5 24.7,48.5 24.7,48.5 24.7,48.5 24.7,48.5 24.7,48.5 24.7,48.5 24.7,48.5 24.7,48.5 24.7,48.5 
			24.7,48.5 24.7,48.5 24.7,48.5 24.7,48.5 24.7,48.5 24.7,48.5 24.7,48.5 24.7,48.5 24.7,48.5 24.7,48.5 24.7,48.5 24.7,48.5 
			24.7,48.5 24.7,48.5 24.7,48.5 24.7,48.5 24.7,48.5 24.7,48.5 24.7,48.5 24.7,48.5 24.7,48.5 24.7,48.5 24.7,48.5 24.7,48.5 
			24.7,48.5 24.7,48.5 24.7,48.5 24.7,48.5 24.7,48.5 24.7,48.5 24.7,48.5 24.7,48.5 24.7,48.5 24.7,48.6 24.7,48.6 24.7,48.6 
			24.7,48.6 24.7,48.6 24.7,48.6 24.7,48.6 24.7,48.6 24.7,48.6 24.6,48.6 24.6,48.6 24.6,48.6 24.6,48.6 24.6,48.6 24.6,48.6 
			24.6,48.6 24.6,48.6 24.6,48.6 24.6,48.6 24.6,48.6 24.6,48.6 24.6,48.6 24.6,48.6 24.6,48.6 24.6,48.6 24.6,48.6 24.6,48.6 
			24.6,48.6 24.6,48.6 24.6,48.6 24.6,48.6 24.6,48.6 24.6,48.6 24.6,48.6 24.6,48.6 24.6,48.6 24.6,48.6 24.8,48.8 24.8,48.8 
			24.8,48.8 24.8,48.8 24.9,48.8 24.9,48.8 24.9,48.8 24.9,48.8 24.9,48.8 24.9,48.8 24.9,48.8 24.9,48.8 24.9,48.8 24.9,48.8 
			24.9,48.8 24.9,48.8 24.9,48.8 24.9,48.8 24.9,48.8 24.9,48.8 24.9,48.8 24.9,48.8 24.9,48.8 24.9,48.8 24.9,48.8 24.9,48.8 
			24.9,48.8 24.9,48.8 24.9,48.8 24.9,48.8 24.9,48.8 24.9,48.8 24.9,48.8 24.9,48.8 24.9,48.8 24.9,48.8 24.9,48.8 24.9,48.8 
			24.9,48.8 24.9,48.8 24.9,48.8 24.9,48.8 24.9,48.8 24.9,48.8 24.9,48.8 24.9,48.8 24.9,48.8 24.9,48.8 24.9,48.8 24.9,48.8 
			24.9,48.8 24.9,48.8 24.9,48.8 24.9,48.8 24.9,48.8 24.9,48.8 24.9,48.8 24.9,48.8 24.9,48.8 24.9,48.7 24.9,48.7 24.9,48.7 
			24.9,48.7 24.9,48.7 24.9,48.7 24.9,48.7 24.9,48.7 25,48.7 25,48.7 25,48.7 25,48.7 25,48.7 25,48.7 25,48.7 25,48.7 25,48.7 
			25,48.7 25,48.7 25,48.7 25,48.7 25,48.7 25,48.7 25,48.7 25,48.7 25,48.7 25,48.7 25,48.7 25,48.7 25,48.7 25,48.7 25,48.7 
			25,48.7 25,48.7 25,48.7 25,48.7 25,48.7 25,48.7 25,48.7 25,48.7 25,48.7 25,48.7 25,48.7 25,48.7 25.1,48.6 24.8,48.4 		"/>
		<polygon class="st0" points="23.8,49.5 23.8,49.5 23.8,49.5 23.8,49.5 23.8,49.5 23.8,49.5 23.8,49.5 23.8,49.5 23.8,49.5 
			23.8,49.5 23.8,49.5 23.8,49.5 23.8,49.5 23.8,49.5 23.8,49.5 23.8,49.5 23.8,49.5 23.8,49.5 23.8,49.5 23.8,49.5 23.8,49.5 
			23.8,49.5 23.8,49.5 23.8,49.5 23.8,49.5 23.8,49.5 23.8,49.5 23.8,49.5 23.8,49.5 23.8,49.5 23.8,49.5 23.8,49.5 23.8,49.5 
			23.8,49.5 23.8,49.5 23.8,49.5 23.7,49.5 23.7,49.5 23.7,49.5 23.7,49.5 23.7,49.5 23.7,49.5 23.7,49.5 23.7,49.5 23.7,49.5 
			23.7,49.6 23.7,49.6 23.7,49.6 23.7,49.6 23.7,49.6 23.7,49.6 23.7,49.6 23.7,49.6 23.7,49.6 23.7,49.6 23.7,49.6 23.7,49.6 
			23.7,49.6 23.7,49.6 23.7,49.6 23.7,49.6 23.7,49.6 23.7,49.6 23.7,49.6 23.7,49.6 23.7,49.6 23.7,49.6 23.7,49.6 23.7,49.6 
			23.7,49.6 23.7,49.6 23.7,49.6 23.7,49.6 23.7,49.6 23.7,49.6 23.7,49.6 23.7,49.6 23.7,49.6 23.7,49.6 23.7,49.6 23.7,49.6 
			23.7,49.6 23.7,49.6 23.7,49.6 23.7,49.6 23.7,49.6 23.7,49.6 23.7,49.6 23.7,49.6 23.7,49.6 23.7,49.6 23.7,49.6 23.7,49.6 
			23.7,49.6 23.7,49.6 23.7,49.6 23.7,49.6 23.7,49.6 23.7,49.6 23.7,49.6 23.7,49.6 23.7,49.6 23.7,49.6 23.8,49.7 23.8,49.7 
			23.8,49.7 23.8,49.7 23.8,49.7 23.8,49.7 23.8,49.7 23.8,49.7 23.8,49.7 23.8,49.7 23.8,49.7 23.8,49.7 23.8,49.7 23.8,49.7 
			23.8,49.7 23.8,49.7 23.8,49.7 23.8,49.7 23.8,49.7 23.8,49.7 23.8,49.7 23.8,49.7 23.8,49.7 23.9,49.7 23.9,49.7 23.9,49.7 
			23.9,49.7 23.9,49.7 23.9,49.7 23.9,49.7 23.9,49.7 23.9,49.7 23.9,49.7 23.9,49.7 23.9,49.7 23.9,49.7 23.9,49.7 23.9,49.7 
			23.9,49.7 23.9,49.7 23.9,49.7 23.9,49.7 23.9,49.7 23.9,49.7 23.9,49.7 23.9,49.7 23.9,49.7 23.9,49.7 23.9,49.7 23.9,49.7 
			23.9,49.7 23.9,49.7 23.9,49.7 23.9,49.7 23.9,49.7 23.9,49.7 23.9,49.7 23.9,49.7 23.9,49.7 23.9,49.7 23.9,49.7 23.9,49.7 
			23.9,49.7 23.9,49.7 23.9,49.7 23.9,49.7 23.9,49.7 23.9,49.7 23.9,49.7 23.9,49.7 23.9,49.7 23.9,49.7 23.9,49.7 23.9,49.7 
			23.9,49.7 23.9,49.7 23.9,49.7 23.9,49.7 23.9,49.7 23.9,49.7 23.9,49.7 23.9,49.7 23.9,49.7 23.9,49.7 23.9,49.7 23.9,49.7 
			23.9,49.7 23.9,49.7 23.9,49.7 23.9,49.7 23.9,49.7 23.9,49.7 23.9,49.7 23.9,49.7 23.9,49.7 23.9,49.7 23.9,49.7 23.9,49.7 
			23.9,49.7 23.9,49.7 23.9,49.6 23.9,49.6 23.9,49.6 24,49.6 23.8,49.5 		"/>
		<polygon class="st0" points="29.6,41.6 29.6,41.7 29.6,41.7 29.6,41.7 29.6,41.7 29.6,41.7 29.5,41.7 29.5,41.7 29.5,41.7 
			29.5,41.7 29.5,41.7 29.5,41.7 29.5,41.7 29.5,41.7 29.5,41.7 29.5,41.7 29.5,41.7 29.5,41.7 29.5,41.7 29.5,41.7 29.5,41.7 
			29.5,41.7 29.5,41.8 29.5,41.8 29.5,41.8 29.5,41.8 29.5,41.8 29.4,41.8 29.4,41.8 29.4,41.8 29.4,41.8 29.4,41.8 29.4,41.8 
			29.4,41.8 29.4,41.8 29.4,41.8 29.4,41.8 29.4,41.8 29.4,41.8 29.4,41.8 29.4,41.8 29.4,41.8 29.4,41.8 29.4,41.9 29.4,41.9 
			29.4,41.9 29.4,41.9 29.4,41.9 29.3,41.9 29.3,41.9 29.3,41.9 29.3,41.9 29.3,41.9 29.3,41.9 29.3,41.9 29.3,41.9 29.3,41.9 
			29.3,41.9 29.3,41.9 29.3,41.9 29.3,41.9 29.3,41.9 29.3,41.9 29.3,41.9 29.3,42 29.3,42 29.3,42 29.3,42 29.2,42 29.2,42 
			29.2,42 29.2,42 29.2,42 29.2,42 29.2,42 29.2,42 29.2,42 29.1,42.1 29.1,42.1 29.1,42.1 29.1,42.1 29.1,42.1 29.1,42.1 
			29.1,42.1 29.1,42.1 29.1,42.1 29.1,42.2 29.1,42.2 29.1,42.2 29.1,42.2 29,42.2 29,42.2 29,42.2 29,42.2 29,42.2 29,42.2 
			29,42.2 29,42.2 29,42.2 29,42.2 29,42.2 29,42.2 29,42.2 29.7,42.9 29.7,42.9 29.7,42.9 29.7,42.9 29.7,42.9 29.7,42.9 
			29.7,42.9 29.7,42.9 29.7,42.9 29.7,42.9 29.7,42.9 29.8,42.9 29.8,42.9 29.8,42.9 29.8,42.9 29.8,42.9 29.8,42.9 29.8,42.8 
			29.8,42.8 29.8,42.8 29.8,42.8 29.8,42.8 29.8,42.8 29.8,42.8 29.8,42.8 29.9,42.7 29.9,42.7 29.9,42.7 29.9,42.7 29.9,42.7 
			29.9,42.7 29.9,42.7 30,42.7 30,42.7 30,42.7 30,42.7 30,42.7 30,42.7 30,42.7 30,42.6 30,42.6 30,42.6 30,42.6 30,42.6 30,42.6 
			30,42.6 30,42.6 30,42.6 30,42.6 30,42.6 30,42.6 30,42.6 30,42.6 30.1,42.6 30.1,42.6 30.1,42.6 30.1,42.6 30.1,42.6 30.1,42.6 
			30.1,42.6 30.1,42.5 30.1,42.5 30.1,42.5 30.1,42.5 30.1,42.5 30.1,42.5 30.1,42.5 30.1,42.5 30.1,42.5 30.1,42.5 30.1,42.5 
			30.1,42.5 30.1,42.5 30.1,42.5 30.2,42.5 30.2,42.5 30.2,42.5 30.2,42.5 30.2,42.5 30.2,42.5 30.2,42.5 30.2,42.4 30.2,42.4 
			30.2,42.4 30.2,42.4 30.2,42.4 30.2,42.4 30.2,42.4 30.2,42.4 30.2,42.4 30.2,42.4 30.2,42.4 30.2,42.4 30.2,42.4 30.3,42.4 
			30.3,42.4 30.3,42.4 30.3,42.4 30.3,42.4 30.3,42.4 30.3,42.4 30.3,42.4 30.3,42.3 30.4,42.2 29.7,41.5 		"/>
		<polygon class="st0" points="28.5,42.8 28.4,42.9 28.4,42.9 28.4,42.9 28.4,42.9 28.4,42.9 28.4,42.9 28.4,42.9 28.4,42.9 
			28.4,42.9 28.4,42.9 28.4,42.9 28.4,42.9 28.4,42.9 28,43.3 28,43.3 28,43.3 28,43.3 28,43.3 28,43.3 28,43.3 28,43.3 28,43.3 
			28,43.3 28,43.3 28,43.3 28,43.3 27.9,43.4 27.9,43.4 27.9,43.4 27.9,43.4 27.9,43.4 27.9,43.4 27.9,43.4 27.9,43.4 27.9,43.4 
			27.9,43.4 27.9,43.4 27.9,43.4 27.9,43.4 27.9,43.4 27.9,43.4 27.9,43.4 27.9,43.4 27.9,43.4 27.9,43.4 27.9,43.4 27.9,43.4 
			27.9,43.4 27.9,43.4 27.9,43.4 27.8,43.4 27.8,43.5 27.8,43.5 27.8,43.5 27.8,43.5 27.8,43.5 27.8,43.5 27.8,43.5 27.8,43.5 
			27.8,43.5 27.8,43.5 27.8,43.5 27.8,43.5 27.8,43.5 27.8,43.5 27.8,43.5 27.8,43.5 27.8,43.5 27.8,43.5 27.8,43.5 27.8,43.5 
			27.8,43.5 27.8,43.5 27.8,43.5 27.7,43.5 27.7,43.6 27.7,43.6 27.7,43.6 28.4,44.2 28.4,44.2 28.4,44.2 28.4,44.2 28.4,44.1 
			28.4,44.1 28.4,44.1 28.4,44.1 28.4,44.1 28.4,44.1 28.4,44.1 28.4,44.1 28.4,44.1 28.4,44.1 28.4,44.1 28.4,44.1 28.4,44.1 
			28.4,44.1 28.4,44.1 28.4,44.1 28.4,44.1 28.4,44.1 28.4,44.1 28.4,44.1 28.5,44.1 28.5,44.1 28.5,44.1 28.5,44.1 28.5,44.1 
			28.5,44 28.5,44 28.5,44 28.5,44 28.5,44 28.5,44 28.5,44 28.5,44 28.5,44 28.5,44 28.5,44 28.5,44 28.5,44 28.5,44 28.5,44 
			28.5,44 28.5,44 28.5,44 28.5,44 28.6,44 28.6,44 28.6,44 28.6,44 28.6,44 28.6,43.9 28.6,43.9 28.6,43.9 28.6,43.9 28.6,43.9 
			28.6,43.9 28.6,43.9 28.6,43.9 28.6,43.9 28.6,43.9 28.6,43.9 29,43.5 29,43.5 29,43.5 29,43.5 29,43.5 29,43.5 29,43.5 29,43.5 
			29,43.5 29,43.5 29.1,43.5 29.1,43.5 29.1,43.5 29.1,43.5 29.1,43.5 29.1,43.4 29.1,43.4 29.1,43.4 29.1,43.4 29.1,43.4 
			29.1,43.4 29.1,43.4 29.1,43.4 29.1,43.4 29.1,43.4 29.1,43.4 29.1,43.4 29.1,43.4 29.1,43.4 29.1,43.4 29.1,43.4 29.1,43.4 
			29.1,43.4 29.1,43.4 29.2,43.4 29.2,43.4 29.2,43.4 29.2,43.4 29.2,43.4 29.3,43.2 28.7,42.6 28.6,42.7 28.5,42.8 28.5,42.8 
			28.5,42.8 28.5,42.8 28.5,42.8 28.5,42.8 28.5,42.8 28.5,42.8 28.5,42.8 28.5,42.8 28.5,42.8 28.5,42.8 28.5,42.8 28.5,42.8 
			28.5,42.8 28.5,42.8 28.5,42.8 28.5,42.8 28.5,42.8 28.5,42.8 28.5,42.8 28.5,42.8 28.5,42.8 		"/>
		<polygon class="st0" points="27.3,45.1 27.3,45.1 27.3,45.1 27.3,45.1 27.3,45.1 27.3,45.1 27.3,45.1 27.3,45.1 27.4,45.1 
			27.4,45.1 27.4,45 27.4,45 27.4,45 27.4,45 27.4,45 27.4,45 27.4,45 27.4,45 27.4,45 27.4,45 27.4,45 27.4,45 27.4,45 27.4,45 
			27.4,45 27.4,45 27.4,45 27.4,45 27.4,45 27.4,45 27.4,45 27.4,45 27.4,45 27.4,45 27.4,45 27.4,45 27.5,45 27.5,45 27.5,45 
			27.5,44.9 27.5,44.9 27.5,44.9 27.5,44.9 27.5,44.9 27.5,44.9 27.5,44.9 27.5,44.9 27.5,44.9 27.5,44.9 27.5,44.9 27.5,44.9 
			27.5,44.9 27.5,44.9 27.5,44.9 27.5,44.9 27.5,44.9 27.5,44.9 27.5,44.9 27.5,44.9 27.5,44.9 27.5,44.9 27.5,44.9 27.5,44.9 
			27.5,44.9 27.5,44.9 27.5,44.9 27.5,44.9 27.5,44.9 27.5,44.9 27.5,44.9 27.5,44.9 27.5,44.9 27.5,44.9 27.6,44.9 27.6,44.9 
			27.6,44.9 27.6,44.8 27.6,44.8 27.6,44.8 27.6,44.8 27.6,44.8 27.6,44.8 27.6,44.8 27.6,44.8 27.6,44.8 27.6,44.8 27.6,44.8 
			27.6,44.8 27.6,44.8 27.6,44.8 27.6,44.8 27.6,44.8 27.6,44.8 27.6,44.8 27.6,44.8 27.6,44.8 27.6,44.8 27.6,44.8 27.6,44.8 
			27.6,44.8 27.6,44.8 27.7,44.8 27.7,44.7 27.2,44.2 27.1,44.2 27.1,44.3 27.1,44.3 27.1,44.3 27.1,44.3 27.1,44.3 27.1,44.3 
			27.1,44.3 27.1,44.3 27.1,44.3 27.1,44.3 27.1,44.3 27.1,44.3 27.1,44.3 27.1,44.3 27.1,44.3 27.1,44.3 27.1,44.3 27.1,44.3 
			27.1,44.3 27.1,44.3 27.1,44.3 27.1,44.3 27,44.3 27,44.3 27,44.3 27,44.3 27,44.3 27,44.3 27,44.3 27,44.4 27,44.4 27,44.4 
			27,44.4 27,44.4 27,44.4 27,44.4 27,44.4 27,44.4 27,44.4 27,44.4 27,44.4 27,44.4 27,44.4 27,44.4 27,44.4 27,44.4 27,44.4 
			27,44.4 27,44.4 27,44.4 27,44.4 27,44.4 27,44.4 27,44.4 27,44.4 27,44.4 27,44.4 27,44.4 26.9,44.4 26.9,44.4 26.9,44.4 
			26.9,44.4 26.9,44.4 26.9,44.4 26.9,44.4 26.9,44.4 26.9,44.5 26.9,44.5 26.9,44.5 26.9,44.5 26.9,44.5 26.9,44.5 26.9,44.5 
			26.9,44.5 26.9,44.5 26.9,44.5 26.9,44.5 26.9,44.5 26.9,44.5 26.9,44.5 26.9,44.5 26.9,44.5 26.9,44.5 26.9,44.5 26.9,44.5 
			26.9,44.5 26.9,44.5 26.8,44.5 26.8,44.5 26.8,44.5 26.8,44.5 26.8,44.5 26.8,44.5 26.8,44.5 26.8,44.5 26.8,44.6 26.8,44.6 
			26.8,44.6 26.8,44.6 26.8,44.6 26.8,44.6 26.8,44.6 27.3,45.1 		"/>
		<polygon class="st0" points="26.1,45.4 26.1,45.4 26.1,45.4 26,45.4 26,45.4 26,45.4 26,45.4 26,45.4 26,45.4 26,45.4 26,45.4 
			26,45.4 26,45.4 26,45.4 26,45.4 26,45.4 26,45.4 26,45.4 26,45.4 26,45.4 26,45.4 26,45.5 26,45.5 26,45.5 26,45.5 26,45.5 
			26,45.5 26,45.5 26,45.5 26,45.5 26,45.5 26,45.5 26,45.5 26,45.5 26,45.5 26,45.5 26,45.5 26,45.5 25.9,45.5 25.9,45.5 
			25.9,45.5 25.9,45.5 25.9,45.5 25.9,45.5 25.9,45.5 25.9,45.5 25.9,45.5 25.9,45.5 25.9,45.5 25.9,45.5 25.9,45.5 25.9,45.5 
			25.9,45.5 25.9,45.5 25.9,45.5 25.9,45.5 25.9,45.6 25.9,45.6 25.9,45.6 25.9,45.6 25.9,45.6 25.9,45.6 25.9,45.6 25.9,45.6 
			25.9,45.6 25.9,45.6 25.9,45.6 25.9,45.6 25.9,45.6 25.9,45.6 25.9,45.6 25.9,45.6 25.9,45.6 25.8,45.6 25.8,45.6 25.8,45.6 
			25.8,45.6 25.8,45.6 25.8,45.6 25.8,45.6 25.8,45.6 25.8,45.6 25.8,45.6 25.8,45.6 25.8,45.6 25.8,45.6 25.8,45.6 25.8,45.6 
			25.8,45.6 25.8,45.6 25.8,45.6 25.8,45.7 25.8,45.7 25.8,45.7 25.8,45.7 25.8,45.7 25.8,45.7 25.8,45.7 25.8,45.7 25.8,45.7 
			25.8,45.7 25.8,45.7 25.8,45.7 26.2,46.1 26.2,46.1 26.2,46.1 26.2,46.1 26.2,46.1 26.2,46.1 26.2,46.1 26.2,46.1 26.2,46.1 
			26.2,46.1 26.2,46.1 26.2,46.1 26.2,46.1 26.2,46.1 26.2,46.1 26.2,46.1 26.2,46.1 26.2,46.1 26.2,46.1 26.2,46 26.2,46 26.3,46 
			26.3,46 26.3,46 26.3,46 26.3,46 26.3,46 26.3,46 26.3,46 26.3,46 26.3,46 26.3,46 26.3,46 26.3,46 26.3,46 26.3,46 26.3,46 
			26.3,46 26.3,46 26.3,46 26.3,46 26.3,46 26.3,46 26.3,46 26.3,46 26.3,46 26.3,46 26.3,46 26.3,46 26.3,46 26.3,46 26.3,46 
			26.3,46 26.3,46 26.3,45.9 26.3,45.9 26.4,45.9 26.4,45.9 26.4,45.9 26.4,45.9 26.4,45.9 26.4,45.9 26.4,45.9 26.4,45.9 
			26.4,45.9 26.4,45.9 26.4,45.9 26.4,45.9 26.4,45.9 26.4,45.9 26.4,45.9 26.4,45.9 26.4,45.9 26.4,45.9 26.4,45.9 26.4,45.9 
			26.4,45.9 26.4,45.9 26.4,45.9 26.4,45.9 26.4,45.9 26.4,45.9 26.4,45.9 26.4,45.9 26.4,45.9 26.4,45.9 26.4,45.9 26.4,45.9 
			26.4,45.9 26.4,45.8 26.5,45.8 26.5,45.8 26.5,45.8 26.5,45.8 26.5,45.8 26.5,45.8 26.5,45.8 26.5,45.8 26.5,45.8 26.5,45.8 
			26.5,45.8 26.5,45.8 26.5,45.8 26.6,45.7 26.1,45.3 		"/>
		<polygon class="st0" points="25.3,46.9 25.3,46.9 25.3,46.9 25.3,46.9 25.3,46.9 25.3,46.9 25.3,46.9 25.3,46.9 25.3,46.9 
			25.3,46.9 25.3,46.9 25.3,46.9 25.3,46.9 25.3,46.9 25.3,46.9 25.3,46.9 25.3,46.9 25.3,46.9 25.3,46.9 25.3,46.9 25.3,46.9 
			25.3,46.9 25.3,46.9 25.3,46.9 25.3,46.9 25.3,46.9 25.3,46.9 25.3,46.9 25.3,46.9 25.3,46.9 25.3,46.9 25.3,46.9 25.3,46.9 
			25.3,46.9 25.3,46.9 25.3,46.8 25.3,46.8 25.3,46.8 25.4,46.8 25.1,46.5 25,46.5 25,46.5 25,46.5 25,46.5 25,46.5 25,46.5 
			25,46.5 25,46.5 25,46.5 25,46.5 25,46.5 25,46.5 25,46.5 25,46.5 25,46.5 25,46.6 25,46.6 25,46.6 25,46.6 25,46.6 25,46.6 
			25,46.6 25,46.6 25,46.6 25,46.6 24.9,46.6 24.9,46.6 24.9,46.6 24.9,46.6 24.9,46.6 24.9,46.6 24.9,46.6 24.9,46.6 24.9,46.6 
			24.9,46.6 24.9,46.6 24.9,46.6 24.9,46.6 24.9,46.6 24.9,46.6 24.9,46.6 24.9,46.6 24.9,46.6 24.9,46.6 24.9,46.6 24.9,46.6 
			24.9,46.6 24.9,46.6 24.9,46.6 24.9,46.6 24.9,46.6 24.9,46.6 24.9,46.6 24.9,46.6 24.9,46.6 24.9,46.6 24.9,46.6 24.9,46.6 
			24.9,46.6 24.9,46.6 24.9,46.7 24.9,46.7 24.9,46.7 24.9,46.7 24.9,46.7 24.9,46.7 24.9,46.7 24.9,46.7 24.9,46.7 24.9,46.7 
			24.8,46.7 24.8,46.7 24.8,46.7 24.8,46.7 24.8,46.7 24.8,46.7 24.8,46.7 24.8,46.7 24.8,46.7 24.8,46.7 24.8,46.7 24.8,46.7 
			24.8,46.7 24.8,46.7 24.8,46.7 24.8,46.7 24.8,46.7 24.8,46.7 24.8,46.7 24.8,46.7 24.8,46.7 24.8,46.7 24.8,46.7 24.8,46.7 
			24.8,46.7 24.8,46.7 24.8,46.7 24.8,46.7 24.8,46.7 24.8,46.7 24.8,46.7 24.8,46.7 24.8,46.7 25.1,47.1 25.1,47.1 25.1,47.1 
			25.1,47.1 25.1,47.1 25.1,47.1 25.1,47.1 25.1,47.1 25.1,47.1 25.1,47.1 25.1,47 25.1,47 25.1,47 25.1,47 25.1,47 25.1,47 
			25.1,47 25.1,47 25.1,47 25.2,47 25.2,47 25.2,47 25.2,47 25.2,47 25.2,47 25.2,47 25.2,47 25.2,47 25.2,47 25.2,47 25.2,47 
			25.2,47 25.2,47 25.2,47 25.2,47 25.2,47 25.2,47 25.2,47 25.2,47 25.2,47 25.2,47 25.2,47 25.2,47 25.2,47 25.2,47 25.2,47 
			25.2,47 25.2,47 25.2,47 25.2,47 25.2,47 25.2,47 25.2,47 25.2,47 25.2,47 25.2,46.9 25.2,46.9 25.2,46.9 25.2,46.9 25.2,46.9 
			25.2,46.9 25.2,46.9 25.2,46.9 25.3,46.9 25.3,46.9 		"/>
		<polygon class="st0" points="24,47.6 24,47.6 24,47.6 23.9,47.7 23.9,47.7 23.9,47.7 23.9,47.7 23.9,47.7 23.9,47.7 23.9,47.7 
			23.9,47.7 23.9,47.7 23.9,47.7 23.9,47.7 23.9,47.7 23.9,47.7 23.9,47.7 23.9,47.7 23.9,47.7 23.9,47.7 23.9,47.7 23.9,47.7 
			23.9,47.7 23.9,47.7 23.9,47.7 23.9,47.7 23.9,47.7 23.9,47.7 23.9,47.7 23.9,47.7 23.9,47.7 23.9,47.7 23.9,47.7 23.9,47.7 
			23.9,47.7 23.9,47.7 23.9,47.7 23.9,47.7 23.9,47.7 23.9,47.7 23.9,47.7 23.9,47.7 23.9,47.7 23.9,47.7 23.9,47.7 23.9,47.7 
			23.9,47.7 23.9,47.7 23.9,47.7 23.9,47.7 23.9,47.7 23.9,47.7 23.9,47.7 23.9,47.7 23.9,47.7 23.9,47.7 23.9,47.7 23.9,47.7 
			23.9,47.7 23.9,47.7 23.9,47.7 23.9,47.7 23.9,47.7 23.9,47.7 23.9,47.7 23.8,47.7 23.8,47.7 23.8,47.8 23.8,47.8 23.8,47.8 
			23.8,47.8 23.8,47.8 23.8,47.8 23.8,47.8 23.8,47.8 23.8,47.8 23.8,47.8 23.8,47.8 23.8,47.8 23.8,47.8 23.8,47.8 23.8,47.8 
			23.8,47.8 23.8,47.8 23.8,47.8 23.8,47.8 23.8,47.8 23.8,47.8 23.8,47.8 23.8,47.8 23.8,47.8 23.8,47.8 23.8,47.8 23.8,47.8 
			23.8,47.8 23.8,47.8 23.8,47.8 23.8,47.8 23.8,47.8 23.8,47.8 23.8,47.8 23.8,47.8 23.8,47.8 24,48 24,48 24,48 24,48 24,48 
			24,48 24,48 24,48 24,48 24,48 24,48 24,48 24,48 24,48 24.1,48 24.1,48 24.1,48 24.1,48 24.1,48 24.1,48 24.1,48 24.1,48 
			24.1,48 24.1,48 24.1,48 24.1,48 24.1,48 24.1,48 24.1,48 24.1,48 24.1,48 24.1,48 24.1,48 24.1,48 24.1,48 24.1,48 24.1,48 
			24.1,48 24.1,48 24.1,48 24.1,48 24.1,48 24.1,48 24.1,48 24.1,48 24.1,48 24.1,48 24.1,48 24.1,48 24.1,48 24.1,48 24.1,48 
			24.1,48 24.1,48 24.1,48 24.1,48 24.1,48 24.1,47.9 24.1,47.9 24.1,47.9 24.1,47.9 24.1,47.9 24.1,47.9 24.1,47.9 24.1,47.9 
			24.1,47.9 24.1,47.9 24.1,47.9 24.1,47.9 24.1,47.9 24.1,47.9 24.1,47.9 24.1,47.9 24.1,47.9 24.1,47.9 24.1,47.9 24.1,47.9 
			24.2,47.9 24.2,47.9 24.2,47.9 24.2,47.9 24.2,47.9 24.2,47.9 24.2,47.9 24.2,47.9 24.2,47.9 24.2,47.9 24.2,47.9 24.2,47.9 
			24.2,47.9 24.2,47.9 24.2,47.9 24.2,47.9 24.2,47.9 24.2,47.9 24.2,47.9 24.2,47.9 24.2,47.9 24.2,47.9 24.2,47.9 24.2,47.9 
			24.2,47.9 24.2,47.9 24.2,47.8 24,47.6 		"/>
		<polygon class="st0" points="23,48.7 23,48.7 23,48.7 23,48.7 23,48.7 23,48.7 23,48.7 23,48.7 23,48.7 23,48.7 23,48.7 23,48.7 
			23,48.7 23,48.7 23,48.7 23,48.7 23,48.7 23,48.7 23,48.7 23,48.7 23,48.7 23,48.7 23,48.7 23,48.7 23,48.7 23,48.7 23,48.7 
			22.9,48.7 22.9,48.7 22.9,48.7 22.9,48.7 22.9,48.7 22.9,48.7 22.9,48.7 22.9,48.7 22.9,48.7 22.9,48.7 22.9,48.7 22.9,48.7 
			22.9,48.7 22.9,48.7 22.9,48.7 22.9,48.7 22.9,48.7 22.9,48.7 22.9,48.7 22.9,48.7 22.9,48.7 22.9,48.7 22.9,48.7 22.9,48.7 
			22.9,48.7 22.9,48.7 22.9,48.7 22.9,48.7 22.9,48.8 22.9,48.8 22.9,48.8 22.9,48.8 22.9,48.8 22.9,48.8 22.9,48.8 22.9,48.8 
			22.9,48.8 22.9,48.8 22.9,48.8 22.9,48.8 22.9,48.8 22.9,48.8 22.9,48.8 22.9,48.8 22.9,48.8 22.9,48.8 22.9,48.8 22.9,48.8 
			22.9,48.8 22.9,48.8 22.9,48.8 22.9,48.8 22.9,48.8 22.9,48.8 22.9,48.8 22.9,48.8 22.9,48.8 22.9,48.8 22.9,48.8 22.9,48.8 
			22.9,48.8 22.9,48.8 22.9,48.8 22.9,48.8 22.9,48.8 22.9,48.8 22.9,48.8 22.9,48.8 22.9,48.8 22.9,48.8 22.9,48.8 22.9,48.8 
			22.9,48.8 22.9,48.8 22.9,48.8 22.9,48.8 23,48.9 23,48.9 23,48.9 23,48.9 23,48.9 23,48.9 23,48.9 23,48.9 23,48.9 23,48.9 
			23,48.9 23,48.9 23,48.9 23,48.9 23,48.9 23,48.9 23,48.9 23,48.9 23,48.9 23,48.9 23,48.9 23,48.9 23,48.9 23,48.9 23,48.9 
			23,48.9 23,48.9 23,48.9 23,48.9 23,48.9 23,48.9 23,48.9 23.1,48.9 23.1,48.9 23.1,48.9 23.1,48.9 23.1,48.9 23.1,48.9 
			23.1,48.9 23.1,48.9 23.1,48.9 23.1,48.9 23.1,48.9 23.1,48.9 23.1,48.9 23.1,48.9 23.1,48.9 23.1,48.9 23.1,48.9 23.1,48.9 
			23.1,48.9 23.1,48.9 23.1,48.9 23.1,48.9 23.1,48.9 23.1,48.9 23.1,48.9 23.1,48.9 23.1,48.9 23.1,48.9 23.1,48.9 23.1,48.9 
			23.1,48.9 23.1,48.9 23.1,48.9 23.1,48.9 23.1,48.9 23.1,48.9 23.1,48.9 23.1,48.9 23.1,48.9 23.1,48.9 23.1,48.9 23.1,48.9 
			23.1,48.9 23.1,48.9 23.1,48.9 23.1,48.9 23.1,48.9 23.1,48.9 23.1,48.9 23.1,48.9 23.1,48.9 23.1,48.9 23.1,48.9 23.1,48.9 
			23.1,48.9 23.1,48.9 23.1,48.9 23.1,48.9 23.1,48.8 23.1,48.8 23.1,48.8 23.1,48.8 23.1,48.8 23.1,48.8 23.1,48.8 23.1,48.8 
			23.1,48.8 23.1,48.8 23.1,48.8 23.1,48.8 23.1,48.8 23.1,48.8 23,48.7 		"/>
		<polygon class="st0" points="26.6,44.2 26.6,44.2 26.6,44.2 26.6,44.2 26.6,44.2 26.6,44.2 26.6,44.2 26.6,44.2 26.6,44.2 
			26.6,44.2 26.6,44.2 26.6,44.2 26.6,44.2 26.6,44.2 26.6,44.2 26.6,44.2 26.6,44.2 26.6,44.2 26.6,44.2 26.6,44.2 26.6,44.2 
			26.6,44.1 26.6,44.1 26.6,44.1 26.7,44.1 26.7,44.1 26.7,44.1 26.7,44.1 26.7,44.1 26.7,44.1 26.7,44.1 26.7,44.1 26.7,44.1 
			26.7,44.1 26.7,44.1 26.7,44.1 26.7,44.1 26.7,44.1 26.7,44.1 26.7,44.1 26.7,44.1 26.7,44.1 26.7,44.1 26.7,44.1 26.7,44.1 
			26.7,44.1 26.7,44.1 26.7,44.1 26.7,44.1 26.7,44.1 26.7,44.1 26.7,44.1 26.7,44.1 26.7,44.1 26.7,44.1 26.7,44.1 26.7,44.1 
			26.7,44.1 26.7,44 26.7,44 26.7,44 26.8,44 26.8,44 26.8,44 26.8,44 26.8,44 26.8,44 26.8,44 26.8,44 26.8,44 26.8,44 26.8,44 
			26.8,44 26.8,44 26.8,44 26.8,44 26.8,44 26.8,44 26.8,44 26.8,44 26.8,44 26.8,44 26.8,44 26.8,44 26.8,44 26.9,43.9 26.4,43.4 
			26.3,43.4 26.3,43.4 26.3,43.5 26.3,43.5 26.3,43.5 26.3,43.5 26.3,43.5 26.3,43.5 26.3,43.5 26.3,43.5 26.3,43.5 26.3,43.5 
			26.3,43.5 26.3,43.5 26.3,43.5 26.3,43.5 26.3,43.5 26.3,43.5 26.2,43.5 26.2,43.5 26.2,43.5 26.2,43.5 26.2,43.5 26.2,43.5 
			26.2,43.5 26.2,43.5 26.2,43.5 26.2,43.5 26.2,43.5 26.2,43.5 26.2,43.6 26.2,43.6 26.2,43.6 26.2,43.6 26.2,43.6 26.2,43.6 
			26.2,43.5 26.2,43.5 26.2,43.5 26.2,43.6 26.2,43.6 26.2,43.6 26.2,43.6 26.2,43.6 26.2,43.6 26.2,43.6 26.2,43.6 26.2,43.6 
			26.2,43.6 26.2,43.6 26.2,43.6 26.2,43.6 26.2,43.6 26.2,43.6 26.2,43.6 26.1,43.6 26.1,43.6 26.1,43.6 26.1,43.6 26.1,43.6 
			26.1,43.6 26.1,43.6 26.1,43.6 26.1,43.6 26.1,43.6 26.1,43.6 26.1,43.6 26.1,43.6 26.1,43.7 26.1,43.7 26.1,43.7 26.1,43.7 
			26.1,43.7 26.1,43.7 26.1,43.7 26.1,43.7 26.1,43.7 26.1,43.7 26.1,43.7 26.1,43.7 26.1,43.7 26.1,43.7 26.1,43.7 26,43.7 
			26,43.7 26,43.7 26,43.7 26,43.7 26,43.7 26,43.7 26,43.7 26,43.7 26,43.7 26,43.7 26,43.7 26,43.7 26,43.7 26,43.8 26,43.8 
			26,43.8 26,43.8 26,43.8 26,43.8 26.5,44.3 26.5,44.3 26.5,44.3 26.5,44.3 26.5,44.3 26.5,44.3 26.5,44.3 26.5,44.3 26.5,44.3 
			26.5,44.3 26.5,44.2 26.5,44.2 26.5,44.2 26.5,44.2 26.6,44.2 26.6,44.2 26.6,44.2 26.6,44.2 		"/>
		<polygon class="st0" points="25.2,44.7 25.2,44.7 25.2,44.7 25.2,44.7 25.1,44.7 25.1,44.7 25.1,44.7 25.1,44.7 25.1,44.7 
			25.1,44.7 25.1,44.7 25.1,44.7 25.1,44.7 25.1,44.7 25.1,44.7 25.1,44.7 25.1,44.7 25.1,44.7 25.1,44.7 25.1,44.7 25.1,44.7 
			25.1,44.7 25.1,44.7 25.1,44.7 25.1,44.7 25.1,44.7 25.1,44.7 25.1,44.7 25.1,44.7 25.1,44.8 25.1,44.8 25.1,44.8 25.1,44.8 
			25.1,44.8 25.1,44.8 25.1,44.8 25.1,44.8 25.1,44.8 25.1,44.8 25,44.8 25,44.8 25,44.8 25,44.8 25,44.8 25,44.8 25,44.8 25,44.8 
			25,44.8 25,44.8 25,44.8 25,44.8 25,44.8 25,44.8 25,44.8 25,44.8 25,44.8 25,44.8 25,44.8 25,44.8 25,44.8 25,44.8 25,44.8 
			25,44.8 25,44.8 25,44.9 25,44.9 25,44.9 25,44.9 25,44.9 25,44.9 25,44.9 25,44.9 25,44.9 25,44.9 24.9,44.9 25.4,45.3 
			25.4,45.3 25.4,45.3 25.4,45.3 25.4,45.3 25.4,45.3 25.4,45.3 25.4,45.3 25.4,45.3 25.4,45.3 25.4,45.3 25.4,45.3 25.4,45.3 
			25.4,45.3 25.4,45.3 25.4,45.3 25.4,45.3 25.4,45.3 25.4,45.2 25.4,45.2 25.4,45.2 25.4,45.2 25.4,45.2 25.4,45.2 25.4,45.2 
			25.4,45.2 25.4,45.2 25.5,45.2 25.5,45.2 25.5,45.2 25.5,45.2 25.5,45.2 25.5,45.2 25.5,45.2 25.5,45.2 25.5,45.2 25.5,45.2 
			25.5,45.2 25.5,45.2 25.5,45.2 25.5,45.2 25.5,45.2 25.5,45.2 25.5,45.2 25.5,45.2 25.5,45.2 25.5,45.2 25.5,45.2 25.5,45.2 
			25.5,45.2 25.5,45.2 25.5,45.2 25.5,45.2 25.5,45.1 25.5,45.1 25.5,45.1 25.5,45.1 25.5,45.1 25.5,45.1 25.5,45.1 25.5,45.1 
			25.6,45.1 25.6,45.1 25.6,45.1 25.6,45.1 25.6,45.1 25.6,45.1 25.6,45.1 25.6,45.1 25.6,45.1 25.6,45.1 25.6,45.1 25.6,45.1 
			25.6,45.1 25.6,45.1 25.6,45.1 25.6,45.1 25.6,45.1 25.6,45.1 25.6,45.1 25.6,45.1 25.6,45.1 25.6,45.1 25.6,45.1 25.6,45.1 
			25.6,45.1 25.6,45.1 25.6,45.1 25.6,45 25.6,45 25.6,45 25.6,45 25.6,45 25.6,45 25.6,45 25.6,45 25.7,45 25.7,45 25.7,45 
			25.7,45 25.7,45 25.7,45 25.7,45 25.7,44.9 25.3,44.5 25.2,44.6 25.2,44.6 25.2,44.6 25.2,44.6 25.2,44.6 25.2,44.6 25.2,44.6 
			25.2,44.6 25.2,44.6 25.2,44.6 25.2,44.6 25.2,44.6 25.2,44.6 25.2,44.6 25.2,44.6 25.2,44.6 25.2,44.6 25.2,44.6 25.2,44.6 
			25.2,44.6 25.2,44.6 25.2,44.6 25.2,44.7 25.2,44.7 25.2,44.7 25.2,44.7 25.2,44.7 25.2,44.7 		"/>
		<polygon class="st0" points="24.4,46.1 24.4,46.1 24.4,46.1 24.4,46.1 24.4,46.1 24.5,46.1 24.5,46.1 24.5,46.1 24.5,46.1 
			24.5,46.1 24.5,46.1 24.5,46.1 24.5,46.1 24.5,46.1 24.5,46.1 24.5,46.1 24.5,46.1 24.5,46.1 24.5,46.1 24.5,46.1 24.5,46.1 
			24.5,46.1 24.5,46.1 24.5,46.1 24.5,46.1 24.5,46.1 24.5,46.1 24.5,46.1 24.5,46.1 24.5,46.1 24.5,46.1 24.5,46.1 24.5,46.1 
			24.5,46.1 24.5,46.1 24.5,46 24.5,46 24.5,46 24.6,46 24.2,45.7 24.2,45.7 24.2,45.7 24.2,45.7 24.2,45.7 24.2,45.7 24.2,45.7 
			24.2,45.7 24.2,45.7 24.2,45.7 24.2,45.7 24.2,45.7 24.2,45.7 24.2,45.7 24.2,45.7 24.2,45.7 24.2,45.8 24.2,45.8 24.2,45.8 
			24.1,45.8 24.1,45.8 24.1,45.8 24.1,45.8 24.1,45.8 24.1,45.8 24.1,45.8 24.1,45.8 24.1,45.8 24.1,45.8 24.1,45.8 24.1,45.8 
			24.1,45.8 24.1,45.8 24.1,45.8 24.1,45.8 24.1,45.8 24.1,45.8 24.1,45.8 24.1,45.8 24.1,45.8 24.1,45.8 24.1,45.8 24.1,45.8 
			24.1,45.8 24.1,45.8 24.1,45.8 24.1,45.8 24.1,45.8 24.1,45.8 24.1,45.8 24.1,45.8 24.1,45.8 24.1,45.8 24.1,45.8 24.1,45.8 
			24.1,45.8 24.1,45.8 24.1,45.8 24.1,45.8 24.1,45.8 24.1,45.8 24.1,45.8 24.1,45.9 24.1,45.9 24,45.9 24,45.9 24,45.9 24,45.9 
			24,45.9 24,45.9 24,45.9 24,45.9 24,45.9 24,45.9 24,45.9 24,45.9 24,45.9 24,45.9 24,45.9 24,45.9 24,45.9 24,45.9 24,45.9 
			24,45.9 24,45.9 24,45.9 24,45.9 24,45.9 24,45.9 24,45.9 24,45.9 24,45.9 24,45.9 24,45.9 24,45.9 24,45.9 24,45.9 24,45.9 
			24,45.9 24,45.9 24,45.9 24,45.9 24,45.9 24,45.9 24.3,46.3 24.3,46.3 24.3,46.3 24.3,46.3 24.3,46.3 24.3,46.3 24.3,46.3 
			24.3,46.3 24.3,46.3 24.3,46.2 24.3,46.2 24.3,46.2 24.3,46.2 24.3,46.2 24.3,46.2 24.3,46.2 24.3,46.2 24.3,46.2 24.3,46.2 
			24.3,46.2 24.3,46.2 24.3,46.2 24.3,46.2 24.3,46.2 24.3,46.2 24.3,46.2 24.4,46.2 24.4,46.2 24.4,46.2 24.4,46.2 24.4,46.2 
			24.4,46.2 24.4,46.2 24.4,46.2 24.4,46.2 24.4,46.2 24.4,46.2 24.4,46.2 24.4,46.2 24.4,46.2 24.4,46.2 24.4,46.2 24.4,46.2 
			24.4,46.2 24.4,46.2 24.4,46.2 24.4,46.2 24.4,46.2 24.4,46.2 24.4,46.2 24.4,46.2 24.4,46.2 24.4,46.2 24.4,46.2 24.4,46.1 
			24.4,46.1 24.4,46.1 24.4,46.1 24.4,46.1 24.4,46.1 24.4,46.1 24.4,46.1 24.4,46.1 24.4,46.1 24.4,46.1 		"/>
		<polygon class="st0" points="23.1,46.8 23.1,46.8 23.1,46.8 23.1,46.8 23.1,46.9 23.1,46.9 23.1,46.9 23.1,46.9 23.1,46.9 
			23.1,46.9 23.1,46.9 23.1,46.9 23.1,46.9 23.1,46.9 23.1,46.9 23.1,46.9 23.1,46.9 23.1,46.9 23.1,46.9 23.1,46.9 23.1,46.9 
			23.1,46.9 23.1,46.9 23.1,46.9 23.1,46.9 23.1,46.9 23.1,46.9 23.1,46.9 23.1,46.9 23.1,46.9 23.1,46.9 23.1,46.9 23.1,46.9 
			23.1,46.9 23.1,46.9 23.1,46.9 23.1,46.9 23.1,46.9 23.1,46.9 23.1,46.9 23.1,46.9 23.1,46.9 23.1,46.9 23.1,46.9 23.1,46.9 
			23.1,46.9 23.1,46.9 23.1,46.9 23.1,46.9 23.1,46.9 23.1,46.9 23.1,46.9 23.1,46.9 23.1,46.9 23.1,46.9 23,46.9 23,46.9 23,46.9 
			23,46.9 23,46.9 23,46.9 23,46.9 23,46.9 23,46.9 23,46.9 23,46.9 23,46.9 23,46.9 23,47 23,47 23,47 23,47 23,47 23,47 23,47 
			23,47 23,47 23,47 23,47 23,47 23,47 23,47 23,47 23,47 23,47 23,47 23,47 23,47 23,47 23,47 23,47 23,47 23,47 23,47 23,47 
			23,47 23,47 23,47 23,47 23,47 23,47 23,47 23,47 23.2,47.2 23.2,47.2 23.2,47.2 23.2,47.2 23.2,47.2 23.2,47.2 23.2,47.2 
			23.2,47.2 23.2,47.2 23.2,47.2 23.2,47.2 23.2,47.2 23.2,47.2 23.2,47.2 23.2,47.2 23.2,47.2 23.2,47.2 23.2,47.2 23.2,47.2 
			23.2,47.2 23.2,47.2 23.2,47.2 23.2,47.2 23.2,47.2 23.2,47.2 23.3,47.2 23.3,47.2 23.3,47.2 23.3,47.2 23.3,47.2 23.3,47.2 
			23.3,47.2 23.3,47.2 23.3,47.2 23.3,47.2 23.3,47.2 23.3,47.2 23.3,47.2 23.3,47.2 23.3,47.2 23.3,47.2 23.3,47.2 23.3,47.2 
			23.3,47.2 23.3,47.2 23.3,47.2 23.3,47.2 23.3,47.2 23.3,47.2 23.3,47.2 23.3,47.2 23.3,47.2 23.3,47.2 23.3,47.2 23.3,47.2 
			23.3,47.2 23.3,47.1 23.3,47.1 23.3,47.1 23.3,47.1 23.3,47.1 23.3,47.1 23.3,47.1 23.3,47.1 23.3,47.1 23.3,47.1 23.3,47.1 
			23.3,47.1 23.3,47.1 23.3,47.1 23.3,47.1 23.3,47.1 23.3,47.1 23.3,47.1 23.3,47.1 23.3,47.1 23.3,47.1 23.3,47.1 23.3,47.1 
			23.3,47.1 23.3,47.1 23.3,47.1 23.3,47.1 23.3,47.1 23.3,47.1 23.3,47.1 23.3,47.1 23.4,47.1 23.4,47.1 23.4,47.1 23.4,47.1 
			23.4,47.1 23.4,47.1 23.4,47.1 23.4,47.1 23.4,47.1 23.4,47.1 23.4,47.1 23.4,47.1 23.4,47.1 23.4,47.1 23.4,47.1 23.4,47.1 
			23.4,47 23.2,46.8 		"/>
		<polygon class="st0" points="22.2,47.9 22.2,47.9 22.2,47.9 22.2,47.9 22.2,47.9 22.2,47.9 22.2,47.9 22.2,47.9 22.2,47.9 
			22.2,47.9 22.2,47.9 22.2,47.9 22.2,47.9 22.2,47.9 22.2,47.9 22.2,47.9 22.2,47.9 22.2,47.9 22.1,47.9 22.1,47.9 22.1,47.9 
			22.1,47.9 22.1,47.9 22.1,47.9 22.1,47.9 22.1,47.9 22.1,47.9 22.1,47.9 22.1,47.9 22.1,47.9 22.1,47.9 22.1,47.9 22.1,47.9 
			22.1,47.9 22.1,47.9 22.1,47.9 22.1,47.9 22.1,47.9 22.1,47.9 22.1,47.9 22.1,47.9 22.1,47.9 22.1,47.9 22.1,47.9 22.1,47.9 
			22.1,47.9 22.1,47.9 22.1,47.9 22.1,47.9 22.1,47.9 22.1,47.9 22.1,47.9 22.1,47.9 22.1,47.9 22.1,47.9 22.1,47.9 22.1,47.9 
			22.1,47.9 22.1,47.9 22.1,47.9 22.1,47.9 22.1,47.9 22.1,47.9 22.1,47.9 22.1,48 22.1,48 22.1,48 22.1,48 22.1,48 22.1,48 
			22.1,48 22.1,48 22.1,48 22.1,48 22.1,48 22.1,48 22.1,48 22.1,48 22.1,48 22.1,48 22.1,48 22.1,48 22.1,48 22.1,48 22.1,48 
			22.1,48 22.1,48 22.1,48 22.1,48 22.1,48 22.1,48 22.1,48 22.1,48 22.1,48 22.1,48 22.1,48 22.1,48 22.1,48 22.1,48 22.1,48 
			22.1,48 22.1,48 22.1,48 22.2,48.1 22.2,48.1 22.2,48.1 22.2,48.1 22.2,48.1 22.2,48.1 22.2,48.1 22.2,48.1 22.2,48.1 22.2,48.1 
			22.2,48.1 22.2,48.1 22.2,48.1 22.2,48.1 22.2,48.1 22.2,48.1 22.2,48.1 22.2,48.1 22.2,48.1 22.2,48.1 22.2,48.1 22.2,48.1 
			22.2,48.1 22.2,48.1 22.2,48.1 22.2,48.1 22.2,48.1 22.2,48.1 22.2,48.1 22.2,48.1 22.2,48.1 22.2,48.1 22.2,48.1 22.2,48.1 
			22.2,48.1 22.2,48.1 22.2,48.1 22.2,48.1 22.2,48.1 22.2,48.1 22.2,48.1 22.3,48.1 22.3,48.1 22.3,48.1 22.3,48.1 22.3,48.1 
			22.3,48.1 22.3,48.1 22.3,48.1 22.3,48.1 22.3,48.1 22.3,48.1 22.3,48.1 22.3,48.1 22.3,48.1 22.3,48.1 22.3,48.1 22.3,48.1 
			22.3,48.1 22.3,48.1 22.3,48.1 22.3,48.1 22.3,48.1 22.3,48.1 22.3,48.1 22.3,48.1 22.3,48.1 22.3,48.1 22.3,48.1 22.3,48.1 
			22.3,48.1 22.3,48.1 22.3,48.1 22.3,48.1 22.3,48.1 22.3,48.1 22.3,48.1 22.3,48.1 22.3,48.1 22.3,48.1 22.3,48.1 22.3,48 
			22.3,48 22.3,48 22.3,48 22.3,48 22.3,48 22.3,48 22.3,48 22.3,48 22.3,48 22.3,48 22.3,48 22.3,48 22.3,48 22.3,48 22.3,48 
			22.3,48 22.3,48 22.3,48 22.3,48 22.3,48 22.3,48 22.3,48 22.2,47.9 		"/>
		<polygon class="st0" points="27.9,40 27.9,40 27.9,40.1 27.9,40.1 27.9,40.1 27.9,40.1 27.9,40.1 27.9,40.1 27.9,40.1 27.9,40.1 
			27.9,40.1 27.9,40.1 27.9,40.1 27.9,40.1 27.9,40.1 27.9,40.1 27.9,40.1 27.9,40.1 27.9,40.1 27.9,40.1 27.8,40.1 27.8,40.1 
			27.8,40.1 27.8,40.2 27.8,40.2 27.8,40.2 27.8,40.2 27.8,40.2 27.8,40.2 27.8,40.2 27.8,40.2 27.8,40.2 27.8,40.2 27.8,40.2 
			27.8,40.2 27.8,40.2 27.8,40.2 27.8,40.2 27.8,40.2 27.8,40.2 27.8,40.2 27.7,40.2 27.7,40.2 27.7,40.2 27.7,40.3 27.7,40.3 
			27.7,40.3 27.7,40.3 27.7,40.3 27.7,40.3 27.7,40.3 27.7,40.3 27.7,40.3 27.7,40.3 27.7,40.3 27.7,40.3 27.7,40.3 27.7,40.3 
			27.7,40.3 27.7,40.3 27.7,40.3 27.7,40.3 27.6,40.3 27.6,40.3 27.6,40.3 27.6,40.4 27.6,40.4 27.6,40.4 27.6,40.4 27.6,40.4 
			27.6,40.4 27.6,40.4 27.6,40.4 27.6,40.4 27.6,40.4 27.6,40.4 27.6,40.4 27.6,40.4 27.6,40.4 27.6,40.4 27.6,40.4 27.4,40.6 
			27.4,40.6 27.3,40.6 27.3,40.6 27.3,40.6 27.3,40.6 27.3,40.7 27.3,40.7 27.3,40.7 27.3,40.7 27.3,40.7 27.3,40.7 27.3,40.7 
			27.3,40.7 27.3,40.7 27.3,40.7 27.3,40.7 27.3,40.7 27.3,40.7 27.3,40.7 27.3,40.7 27.3,40.7 28,41.4 28,41.4 28,41.4 28,41.4 
			28,41.4 28,41.4 28,41.4 28,41.4 28,41.4 28,41.4 28,41.4 28,41.4 28,41.4 28,41.4 28,41.4 28,41.4 28,41.3 28.1,41.3 28.1,41.3 
			28.1,41.3 28.1,41.3 28.3,41.1 28.3,41.1 28.3,41.1 28.3,41.1 28.3,41.1 28.3,41.1 28.3,41.1 28.3,41.1 28.3,41.1 28.3,41.1 
			28.3,41.1 28.3,41.1 28.3,41.1 28.3,41.1 28.3,41.1 28.3,41.1 28.3,41.1 28.3,41 28.4,41 28.4,41 28.4,41 28.4,41 28.4,41 
			28.4,41 28.4,41 28.4,41 28.4,41 28.4,41 28.4,41 28.4,41 28.4,41 28.4,41 28.4,41 28.4,41 28.4,41 28.4,41 28.4,41 28.4,41 
			28.5,40.9 28.5,40.9 28.5,40.9 28.5,40.9 28.5,40.9 28.5,40.9 28.5,40.9 28.5,40.9 28.5,40.9 28.5,40.9 28.5,40.9 28.5,40.9 
			28.5,40.9 28.5,40.9 28.5,40.9 28.5,40.9 28.5,40.9 28.5,40.9 28.5,40.9 28.5,40.9 28.5,40.9 28.6,40.8 28.6,40.8 28.6,40.8 
			28.6,40.8 28.6,40.8 28.6,40.8 28.6,40.8 28.6,40.8 28.6,40.8 28.6,40.8 28.6,40.8 28.6,40.8 28.6,40.8 28.6,40.8 28.6,40.8 
			28.6,40.8 28.6,40.8 28.6,40.8 28.6,40.8 28.6,40.8 28.6,40.8 28.7,40.7 28.7,40.7 28.8,40.6 28.1,39.9 		"/>
		<polygon class="st0" points="26.9,41.1 26.9,41.1 26.9,41.2 26.9,41.2 26.9,41.2 26.9,41.2 26.9,41.2 26.9,41.2 26.9,41.2 
			26.9,41.2 26.9,41.2 26.9,41.2 26.9,41.2 26.9,41.2 26.9,41.2 26.9,41.2 26.9,41.2 26.8,41.2 26.8,41.2 26.8,41.2 26.8,41.2 
			26.8,41.2 26.8,41.2 26.8,41.2 26.8,41.2 26.8,41.2 26.8,41.3 26.8,41.3 26.8,41.3 26.8,41.3 26.8,41.3 26.8,41.3 26.8,41.3 
			26.8,41.3 26.4,41.7 26.4,41.7 26.4,41.7 26.4,41.7 26.4,41.7 26.4,41.7 26.4,41.7 26.4,41.7 26.4,41.7 26.3,41.7 26.3,41.7 
			26.3,41.7 26.3,41.7 26.3,41.7 26.3,41.7 26.3,41.7 26.3,41.7 26.3,41.7 26.3,41.8 26.3,41.8 26.3,41.8 26.3,41.8 26.3,41.8 
			26.3,41.8 26.3,41.8 26.3,41.8 26.3,41.8 26.3,41.8 26.3,41.8 26.3,41.8 26.3,41.8 26.3,41.8 26.3,41.8 26.2,41.8 26.2,41.8 
			26.2,41.8 26.2,41.8 26.2,41.8 26.2,41.8 26.2,41.8 26.2,41.8 26.2,41.8 26.2,41.8 26.2,41.9 26.2,41.9 26.2,41.9 26.2,41.9 
			26.2,41.9 26.2,41.9 26.2,41.9 26.2,41.9 26.2,41.9 26.2,41.9 26.2,41.9 26.2,41.9 26.2,41.9 26.2,41.9 26.1,41.9 26.1,41.9 
			26.1,41.9 26.1,41.9 26.1,41.9 26.1,41.9 26.1,41.9 26.1,41.9 26.1,41.9 26.1,41.9 26.1,42 26.1,42 26.7,42.6 26.7,42.6 
			26.7,42.6 26.7,42.5 26.7,42.5 26.7,42.5 26.7,42.5 26.7,42.5 26.8,42.5 26.8,42.5 26.8,42.5 26.8,42.5 26.8,42.5 26.8,42.5 
			26.8,42.5 26.8,42.5 26.8,42.5 26.8,42.5 26.8,42.5 26.8,42.5 26.8,42.5 26.8,42.5 26.8,42.5 26.8,42.5 26.8,42.5 26.8,42.5 
			26.8,42.5 26.8,42.5 26.8,42.4 26.8,42.4 26.8,42.4 26.8,42.4 26.9,42.4 26.9,42.4 26.9,42.4 26.9,42.4 26.9,42.4 26.9,42.4 
			26.9,42.4 26.9,42.4 26.9,42.4 26.9,42.4 26.9,42.4 26.9,42.4 26.9,42.4 26.9,42.4 26.9,42.4 26.9,42.4 26.9,42.4 26.9,42.4 
			26.9,42.4 26.9,42.4 26.9,42.3 26.9,42.3 26.9,42.3 26.9,42.3 27,42.3 27,42.3 27,42.3 27,42.3 27,42.3 27,42.3 27,42.3 27,42.3 
			27,42.3 27,42.3 27,42.3 27.4,41.9 27.4,41.9 27.4,41.9 27.4,41.9 27.4,41.9 27.4,41.9 27.4,41.9 27.4,41.9 27.4,41.9 27.4,41.9 
			27.4,41.9 27.4,41.9 27.4,41.8 27.4,41.8 27.4,41.8 27.5,41.8 27.5,41.8 27.5,41.8 27.5,41.8 27.5,41.8 27.5,41.8 27.5,41.8 
			27.5,41.8 27.5,41.8 27.5,41.8 27.5,41.8 27.5,41.8 27.5,41.8 27.5,41.8 27.5,41.8 27.5,41.8 27.5,41.8 27.5,41.8 27.5,41.8 
			27.5,41.8 27.5,41.8 27.6,41.6 27,41 		"/>
		<polygon class="st0" points="25.5,42.6 25.5,42.6 25.5,42.7 25.5,42.7 25.5,42.7 25.5,42.7 25.5,42.7 25.5,42.7 25.5,42.7 
			25.5,42.7 25.5,42.7 25.5,42.7 25.5,42.7 25.5,42.7 25.4,42.7 25.4,42.7 25.4,42.7 25.4,42.7 25.4,42.7 25.4,42.7 25.4,42.7 
			25.4,42.7 25.4,42.7 25.4,42.7 25.4,42.7 25.4,42.7 25.4,42.7 25.4,42.7 25.4,42.7 25.4,42.7 25.4,42.7 25.4,42.8 25.4,42.8 
			25.4,42.8 25.4,42.7 25.4,42.7 25.4,42.7 25.4,42.7 25.4,42.7 25.4,42.8 25.4,42.8 25.4,42.8 25.4,42.8 25.4,42.8 25.4,42.8 
			25.4,42.8 25.4,42.8 25.4,42.8 25.4,42.8 25.4,42.8 25.3,42.8 25.3,42.8 25.3,42.8 25.3,42.8 25.3,42.8 25.3,42.8 25.3,42.8 
			25.3,42.8 25.3,42.8 25.3,42.8 25.3,42.8 25.3,42.8 25.3,42.8 25.3,42.8 25.3,42.8 25.3,42.8 25.3,42.8 25.3,42.8 25.3,42.9 
			25.3,42.9 25.3,42.9 25.3,42.9 25.3,42.9 25.3,42.9 25.3,42.9 25.3,42.9 25.3,42.9 25.3,42.9 25.2,42.9 25.2,42.9 25.2,42.9 
			25.2,42.9 25.2,42.9 25.2,42.9 25.2,42.9 25.2,42.9 25.2,42.9 25.2,42.9 25.2,42.9 25.2,42.9 25.2,42.9 25.2,42.9 25.2,42.9 
			25.2,42.9 25.2,42.9 25.2,42.9 25.2,42.9 25.2,43 25.2,43 25.2,43 25.2,43 25.2,43 25.2,43 25.7,43.5 25.7,43.5 25.7,43.5 
			25.7,43.5 25.7,43.5 25.7,43.5 25.7,43.5 25.7,43.5 25.7,43.5 25.7,43.5 25.7,43.4 25.7,43.4 25.7,43.4 25.7,43.4 25.7,43.4 
			25.7,43.4 25.7,43.4 25.7,43.4 25.8,43.4 25.8,43.4 25.8,43.4 25.8,43.4 25.8,43.4 25.8,43.4 25.8,43.4 25.8,43.4 25.8,43.4 
			25.8,43.4 25.8,43.4 25.8,43.4 25.8,43.4 25.8,43.4 25.8,43.4 25.8,43.4 25.8,43.4 25.8,43.4 25.8,43.4 25.8,43.4 25.8,43.4 
			25.8,43.3 25.8,43.3 25.8,43.3 25.8,43.3 25.8,43.3 25.8,43.3 25.8,43.3 25.9,43.3 25.9,43.3 25.9,43.3 25.9,43.3 25.9,43.3 
			25.9,43.3 25.9,43.3 25.9,43.3 25.9,43.3 25.9,43.3 25.9,43.3 25.9,43.3 25.9,43.3 25.9,43.3 25.9,43.3 25.9,43.3 25.9,43.3 
			25.9,43.3 25.9,43.3 25.9,43.3 25.9,43.3 25.9,43.2 25.9,43.3 25.9,43.3 25.9,43.3 25.9,43.3 25.9,43.3 25.9,43.3 25.9,43.3 
			25.9,43.3 25.9,43.2 25.9,43.2 25.9,43.2 25.9,43.2 25.9,43.2 25.9,43.2 25.9,43.2 26,43.2 26,43.2 26,43.2 26,43.2 26,43.2 
			26,43.2 26,43.2 26,43.2 26,43.2 26,43.2 26,43.2 26,43.2 26,43.2 26,43.2 26,43.2 26,43.2 26,43.2 26,43.2 26,43.2 26,43.2 
			26.1,43.1 25.6,42.6 		"/>
		<polygon class="st0" points="24.6,44.5 24.6,44.5 24.6,44.5 24.6,44.5 24.6,44.5 24.6,44.5 24.6,44.5 24.6,44.5 24.6,44.5 
			24.6,44.5 24.6,44.5 24.6,44.5 24.6,44.5 24.6,44.5 24.6,44.5 24.6,44.5 24.6,44.4 24.6,44.4 24.6,44.4 24.6,44.4 24.6,44.4 
			24.6,44.4 24.6,44.4 24.6,44.4 24.6,44.4 24.6,44.4 24.6,44.4 24.6,44.4 24.6,44.4 24.6,44.4 24.6,44.4 24.7,44.4 24.7,44.4 
			24.7,44.4 24.7,44.4 24.7,44.4 24.7,44.4 24.7,44.4 24.7,44.4 24.7,44.4 24.7,44.4 24.7,44.4 24.7,44.4 24.7,44.4 24.7,44.4 
			24.7,44.4 24.7,44.4 24.7,44.4 24.7,44.4 24.7,44.4 24.7,44.4 24.7,44.4 24.7,44.3 24.7,44.3 24.7,44.3 24.7,44.3 24.7,44.3 
			24.7,44.3 24.7,44.3 24.7,44.3 24.7,44.3 24.7,44.3 24.7,44.3 24.7,44.3 24.7,44.3 24.7,44.3 24.8,44.3 24.8,44.3 24.8,44.3 
			24.8,44.3 24.8,44.3 24.8,44.3 24.8,44.3 24.8,44.3 24.8,44.3 24.8,44.3 24.8,44.3 24.8,44.3 24.8,44.3 24.8,44.3 24.8,44.3 
			24.8,44.3 24.8,44.3 24.8,44.3 24.8,44.3 24.8,44.3 24.8,44.3 24.8,44.2 24.8,44.2 24.8,44.2 24.8,44.2 24.8,44.2 24.8,44.2 
			24.8,44.2 24.8,44.2 24.8,44.2 24.8,44.2 24.8,44.2 24.8,44.2 24.8,44.2 24.9,44.2 24.9,44.2 24.9,44.1 24.5,43.7 24.4,43.8 
			24.4,43.8 24.4,43.8 24.4,43.8 24.4,43.8 24.4,43.8 24.4,43.8 24.4,43.8 24.4,43.8 24.4,43.8 24.4,43.8 24.4,43.8 24.4,43.8 
			24.4,43.8 24.4,43.8 24.4,43.8 24.4,43.8 24.4,43.8 24.4,43.8 24.4,43.8 24.4,43.8 24.4,43.8 24.4,43.9 24.4,43.9 24.4,43.9 
			24.4,43.9 24.4,43.9 24.3,43.9 24.3,43.9 24.3,43.9 24.3,43.9 24.3,43.9 24.3,43.9 24.3,43.9 24.3,43.9 24.3,43.9 24.3,43.9 
			24.3,43.9 24.3,43.9 24.3,43.9 24.3,43.9 24.3,43.9 24.3,43.9 24.3,43.9 24.3,43.9 24.3,43.9 24.3,43.9 24.3,43.9 24.3,43.9 
			24.3,43.9 24.3,43.9 24.3,43.9 24.3,43.9 24.3,43.9 24.3,43.9 24.3,43.9 24.3,43.9 24.3,44 24.3,44 24.3,44 24.3,44 24.2,44 
			24.2,44 24.2,44 24.2,44 24.2,44 24.2,44 24.2,44 24.2,44 24.2,44 24.2,44 24.2,44 24.2,44 24.2,44 24.2,44 24.2,44 24.2,44 
			24.2,44 24.2,44 24.2,44 24.2,44 24.2,44 24.2,44 24.2,44 24.2,44 24.2,44 24.2,44 24.2,44 24.2,44 24.2,44 24.2,44 24.2,44 
			24.2,44 24.2,44.1 24.2,44.1 24.2,44.1 24.1,44.1 24.1,44.1 24.1,44.1 24.1,44.1 24.1,44.1 24.1,44.1 24.1,44.1 24.6,44.5 		"/>
		<polygon class="st0" points="23.6,45.3 23.6,45.3 23.6,45.3 23.6,45.3 23.6,45.3 23.6,45.3 23.6,45.3 23.6,45.3 23.6,45.3 
			23.6,45.3 23.6,45.3 23.6,45.3 23.6,45.3 23.7,45.3 23.7,45.3 23.7,45.3 23.7,45.3 23.7,45.3 23.7,45.3 23.7,45.3 23.7,45.3 
			23.7,45.3 23.7,45.3 23.7,45.3 23.7,45.3 23.7,45.3 23.7,45.3 23.7,45.3 23.7,45.3 23.7,45.3 23.7,45.3 23.7,45.3 23.7,45.3 
			23.7,45.3 23.7,45.2 23.7,45.2 23.7,45.2 23.7,45.2 23.8,45.2 23.4,44.9 23.4,44.9 23.4,44.9 23.4,44.9 23.4,44.9 23.4,44.9 
			23.4,44.9 23.4,44.9 23.4,44.9 23.4,44.9 23.4,44.9 23.4,44.9 23.3,44.9 23.3,44.9 23.3,44.9 23.3,44.9 23.3,44.9 23.3,45 
			23.3,45 23.3,45 23.3,45 23.3,45 23.3,45 23.3,45 23.3,45 23.3,45 23.3,45 23.3,45 23.3,45 23.3,45 23.3,45 23.3,45 23.3,45 
			23.3,45 23.3,45 23.3,45 23.3,45 23.3,45 23.3,45 23.3,45 23.3,45 23.3,45 23.3,45 23.3,45 23.3,45 23.3,45 23.3,45 23.3,45 
			23.3,45 23.3,45 23.3,45 23.3,45 23.3,45 23.3,45 23.3,45 23.3,45 23.3,45 23.2,45 23.2,45 23.2,45 23.2,45 23.2,45 23.2,45 
			23.2,45.1 23.2,45.1 23.2,45.1 23.2,45.1 23.2,45.1 23.2,45.1 23.2,45.1 23.2,45.1 23.2,45.1 23.2,45.1 23.2,45.1 23.2,45.1 
			23.2,45.1 23.2,45.1 23.2,45.1 23.2,45.1 23.2,45.1 23.2,45.1 23.2,45.1 23.2,45.1 23.2,45.1 23.2,45.1 23.2,45.1 23.2,45.1 
			23.2,45.1 23.2,45.1 23.2,45.1 23.2,45.1 23.2,45.1 23.2,45.1 23.2,45.1 23.2,45.1 23.2,45.1 23.2,45.1 23.2,45.1 23.2,45.1 
			23.2,45.1 23.2,45.1 23.1,45.1 23.1,45.1 23.1,45.1 23.5,45.5 23.5,45.5 23.5,45.5 23.5,45.5 23.5,45.5 23.5,45.5 23.5,45.5 
			23.5,45.5 23.5,45.4 23.5,45.4 23.5,45.4 23.5,45.4 23.5,45.4 23.5,45.4 23.5,45.4 23.5,45.4 23.5,45.4 23.5,45.4 23.5,45.4 
			23.5,45.4 23.5,45.4 23.5,45.4 23.5,45.4 23.5,45.4 23.5,45.4 23.5,45.4 23.5,45.4 23.5,45.4 23.5,45.4 23.5,45.4 23.5,45.4 
			23.5,45.4 23.5,45.4 23.6,45.4 23.6,45.4 23.6,45.4 23.6,45.4 23.6,45.4 23.6,45.4 23.6,45.4 23.6,45.4 23.6,45.4 23.6,45.4 
			23.6,45.4 23.6,45.4 23.6,45.4 23.6,45.4 23.6,45.4 23.6,45.4 23.6,45.4 23.6,45.4 23.6,45.4 23.6,45.4 23.6,45.4 23.6,45.3 
			23.6,45.3 23.6,45.3 23.6,45.3 23.6,45.3 23.6,45.3 23.6,45.3 23.6,45.3 23.6,45.3 23.6,45.3 23.6,45.3 		"/>
		<polygon class="st0" points="22.3,46 22.3,46 22.3,46 22.3,46 22.3,46 22.3,46 22.3,46.1 22.3,46.1 22.3,46.1 22.3,46.1 
			22.3,46.1 22.3,46.1 22.3,46.1 22.3,46.1 22.3,46.1 22.3,46.1 22.3,46.1 22.3,46.1 22.3,46.1 22.3,46.1 22.3,46.1 22.3,46.1 
			22.3,46.1 22.3,46.1 22.3,46.1 22.3,46.1 22.3,46.1 22.3,46.1 22.3,46.1 22.3,46.1 22.3,46.1 22.3,46.1 22.3,46.1 22.3,46.1 
			22.3,46.1 22.3,46.1 22.3,46.1 22.3,46.1 22.3,46.1 22.3,46.1 22.3,46.1 22.3,46.1 22.3,46.1 22.3,46.1 22.3,46.1 22.2,46.1 
			22.2,46.1 22.2,46.1 22.2,46.1 22.2,46.1 22.2,46.1 22.2,46.1 22.2,46.1 22.2,46.1 22.2,46.1 22.2,46.1 22.2,46.1 22.2,46.1 
			22.2,46.1 22.2,46.1 22.2,46.1 22.2,46.1 22.2,46.1 22.2,46.1 22.2,46.1 22.2,46.1 22.2,46.1 22.2,46.1 22.2,46.1 22.2,46.2 
			22.2,46.2 22.2,46.2 22.2,46.2 22.2,46.2 22.2,46.2 22.2,46.2 22.2,46.2 22.2,46.2 22.2,46.2 22.2,46.2 22.2,46.2 22.2,46.2 
			22.2,46.2 22.2,46.2 22.2,46.2 22.2,46.2 22.2,46.2 22.2,46.2 22.2,46.2 22.2,46.2 22.2,46.2 22.2,46.2 22.2,46.2 22.2,46.2 
			22.2,46.2 22.2,46.2 22.2,46.2 22.2,46.2 22.2,46.2 22.2,46.2 22.2,46.2 22.2,46.2 22.2,46.2 22.4,46.4 22.4,46.4 22.4,46.4 
			22.4,46.4 22.4,46.4 22.4,46.4 22.4,46.4 22.4,46.4 22.4,46.4 22.4,46.4 22.4,46.4 22.4,46.4 22.4,46.4 22.4,46.4 22.4,46.4 
			22.4,46.4 22.4,46.4 22.4,46.4 22.4,46.4 22.4,46.4 22.4,46.4 22.4,46.4 22.4,46.4 22.4,46.4 22.4,46.4 22.4,46.4 22.4,46.4 
			22.4,46.4 22.4,46.4 22.4,46.4 22.4,46.4 22.4,46.4 22.4,46.4 22.4,46.4 22.4,46.4 22.5,46.4 22.5,46.4 22.5,46.4 22.5,46.4 
			22.5,46.4 22.5,46.4 22.5,46.4 22.5,46.4 22.5,46.4 22.5,46.4 22.5,46.4 22.5,46.4 22.5,46.4 22.5,46.4 22.5,46.4 22.5,46.4 
			22.5,46.4 22.5,46.4 22.5,46.4 22.5,46.4 22.5,46.3 22.5,46.3 22.5,46.3 22.5,46.3 22.5,46.3 22.5,46.3 22.5,46.3 22.5,46.3 
			22.5,46.3 22.5,46.3 22.5,46.3 22.5,46.3 22.5,46.3 22.5,46.3 22.5,46.3 22.5,46.3 22.5,46.3 22.5,46.3 22.5,46.3 22.5,46.3 
			22.5,46.3 22.5,46.3 22.5,46.3 22.5,46.3 22.5,46.3 22.5,46.3 22.5,46.3 22.5,46.3 22.5,46.3 22.5,46.3 22.5,46.3 22.5,46.3 
			22.5,46.3 22.5,46.3 22.5,46.3 22.5,46.3 22.5,46.3 22.5,46.3 22.5,46.3 22.5,46.3 22.5,46.3 22.5,46.3 22.6,46.3 22.6,46.3 
			22.6,46.3 22.6,46.3 22.6,46.3 22.6,46.3 22.6,46.2 22.4,46 		"/>
		<polygon class="st0" points="21.4,47.1 21.4,47.1 21.4,47.1 21.4,47.1 21.4,47.1 21.4,47.1 21.4,47.1 21.4,47.1 21.3,47.1 
			21.3,47.1 21.3,47.1 21.3,47.1 21.3,47.1 21.3,47.1 21.3,47.1 21.3,47.1 21.3,47.1 21.3,47.1 21.3,47.1 21.3,47.1 21.3,47.1 
			21.3,47.1 21.3,47.1 21.3,47.1 21.3,47.1 21.3,47.1 21.3,47.1 21.3,47.1 21.3,47.1 21.3,47.1 21.3,47.1 21.3,47.1 21.3,47.1 
			21.3,47.1 21.3,47.1 21.3,47.1 21.3,47.1 21.3,47.1 21.3,47.1 21.3,47.1 21.3,47.1 21.3,47.1 21.3,47.1 21.3,47.1 21.3,47.1 
			21.3,47.1 21.3,47.1 21.3,47.1 21.3,47.1 21.3,47.1 21.3,47.1 21.3,47.1 21.3,47.1 21.3,47.1 21.3,47.1 21.3,47.1 21.3,47.1 
			21.3,47.1 21.3,47.1 21.3,47.1 21.3,47.1 21.3,47.1 21.3,47.1 21.3,47.1 21.3,47.1 21.3,47.1 21.3,47.1 21.3,47.1 21.3,47.1 
			21.3,47.1 21.3,47.1 21.3,47.1 21.3,47.1 21.3,47.1 21.3,47.2 21.3,47.2 21.3,47.2 21.3,47.2 21.3,47.2 21.3,47.2 21.3,47.2 
			21.3,47.2 21.3,47.2 21.3,47.2 21.3,47.2 21.3,47.2 21.3,47.2 21.3,47.2 21.3,47.2 21.3,47.2 21.3,47.2 21.3,47.2 21.3,47.2 
			21.3,47.2 21.3,47.2 21.3,47.2 21.3,47.2 21.3,47.2 21.3,47.2 21.3,47.2 21.3,47.2 21.3,47.2 21.3,47.2 21.4,47.3 21.4,47.3 
			21.4,47.3 21.4,47.3 21.4,47.3 21.4,47.3 21.4,47.3 21.4,47.3 21.4,47.3 21.4,47.3 21.4,47.3 21.4,47.3 21.4,47.3 21.4,47.3 
			21.4,47.3 21.4,47.3 21.4,47.3 21.4,47.3 21.4,47.3 21.4,47.3 21.4,47.3 21.4,47.3 21.4,47.3 21.4,47.3 21.4,47.3 21.4,47.3 
			21.4,47.3 21.4,47.3 21.4,47.3 21.4,47.3 21.4,47.3 21.4,47.3 21.4,47.3 21.4,47.3 21.4,47.3 21.4,47.3 21.4,47.3 21.4,47.3 
			21.4,47.3 21.4,47.3 21.4,47.3 21.4,47.3 21.4,47.3 21.4,47.3 21.4,47.3 21.4,47.3 21.4,47.3 21.4,47.3 21.4,47.3 21.4,47.3 
			21.5,47.3 21.5,47.3 21.5,47.3 21.5,47.3 21.5,47.3 21.5,47.3 21.5,47.3 21.5,47.3 21.5,47.3 21.5,47.3 21.5,47.3 21.5,47.3 
			21.5,47.3 21.5,47.3 21.5,47.3 21.5,47.3 21.5,47.3 21.5,47.3 21.5,47.3 21.5,47.3 21.5,47.3 21.5,47.2 21.5,47.2 21.5,47.2 
			21.5,47.2 21.5,47.2 21.5,47.2 21.5,47.2 21.5,47.2 21.5,47.2 21.5,47.2 21.5,47.2 21.5,47.2 21.5,47.2 21.5,47.2 21.5,47.2 
			21.5,47.2 21.5,47.2 21.5,47.2 21.5,47.2 21.5,47.2 21.5,47.2 21.5,47.2 21.5,47.2 21.5,47.2 21.5,47.2 21.5,47.2 21.5,47.2 
			21.5,47.2 21.5,47.2 21.5,47.2 21.5,47.2 21.5,47.2 21.5,47.2 21.4,47.1 		"/>
		<polygon class="st0" points="31.2,43.3 31.2,43.3 31.2,43.3 31.2,43.3 31.2,43.3 31.2,43.3 31.2,43.3 31.2,43.3 31.2,43.3 
			31.2,43.3 31.2,43.3 31.2,43.3 31.2,43.3 31.1,43.3 31.1,43.3 31.1,43.3 31.1,43.3 31.1,43.3 31.1,43.3 31.1,43.3 31.1,43.3 
			31.1,43.4 31.1,43.4 31.1,43.4 31.1,43.4 31.1,43.4 31.1,43.4 31.1,43.4 31.1,43.4 31.1,43.4 31.1,43.4 31.1,43.4 31.1,43.4 
			31.1,43.4 31,43.4 31,43.4 31,43.4 31,43.4 31,43.4 31,43.4 31,43.4 31,43.4 31,43.5 31,43.5 31,43.5 31,43.5 31,43.5 31,43.5 
			31,43.5 31,43.5 31,43.5 31,43.5 31,43.5 31,43.5 30.9,43.5 30.9,43.5 30.9,43.5 30.9,43.5 30.6,43.8 30.6,43.8 30.6,43.8 
			30.6,43.8 30.6,43.8 30.6,43.8 30.6,43.8 30.6,43.9 30.6,43.9 30.6,43.9 30.6,43.9 30.6,43.9 30.6,43.9 30.6,43.9 30.6,43.9 
			30.6,43.9 30.6,43.9 30.6,43.9 30.5,43.9 30.5,43.9 30.5,43.9 30.5,43.9 30.5,43.9 30.5,43.9 30.5,43.9 30.5,43.9 30.5,43.9 
			30.5,43.9 30.5,44 30.5,44 30.5,44 30.5,44 30.5,44 30.5,44 30.5,44 30.5,44 30.5,44 30.5,44 30.5,44 30.4,44 30.4,44 30.4,44 
			30.4,44 30.4,44 30.4,44 31.1,44.7 31.1,44.7 31.1,44.7 31.2,44.7 31.2,44.7 31.5,44.4 31.5,44.4 31.5,44.4 31.5,44.4 31.5,44.4 
			31.5,44.4 31.5,44.4 31.5,44.4 31.5,44.4 31.5,44.4 31.5,44.4 31.5,44.4 31.5,44.4 31.5,44.3 31.5,44.3 31.5,44.3 31.5,44.3 
			31.5,44.3 31.5,44.3 31.5,44.3 31.6,44.3 31.6,44.3 31.6,44.3 31.6,44.3 31.6,44.3 31.6,44.3 31.6,44.3 31.6,44.3 31.6,44.3 
			31.6,44.3 31.6,44.3 31.6,44.3 31.6,44.3 31.6,44.3 31.6,44.2 31.6,44.2 31.6,44.2 31.6,44.2 31.6,44.2 31.6,44.2 31.6,44.2 
			31.7,44.2 31.7,44.2 31.7,44.2 31.7,44.2 31.7,44.2 31.7,44.2 31.7,44.2 31.7,44.2 31.7,44.2 31.7,44.2 31.7,44.2 31.7,44.2 
			31.7,44.2 31.7,44.2 31.7,44.2 31.7,44.1 31.7,44.1 31.7,44.1 31.7,44.1 31.7,44.1 31.7,44.1 31.8,44.1 31.8,44.1 31.8,44.1 
			31.8,44.1 31.8,44.1 31.8,44.1 31.8,44.1 31.8,44.1 31.8,44.1 31.8,44.1 31.8,44.1 31.8,44.1 31.8,44.1 31.8,44.1 31.8,44.1 
			31.8,44 31.8,44 31.8,44 31.8,44 31.8,44 31.8,44 31.9,44 31.9,44 31.9,44 31.9,44 31.9,44 31.9,44 31.9,44 31.9,44 31.9,44 
			31.9,44 31.9,44 31.9,44 31.9,44 31.9,44 31.9,44 32,43.8 31.3,43.1 		"/>
		<polygon class="st0" points="30,45.8 30,45.8 30,45.8 30,45.8 30,45.7 30,45.7 30,45.7 30,45.7 30,45.7 30,45.7 30,45.7 30,45.7 
			30,45.7 30,45.7 30,45.7 30.1,45.7 30.1,45.7 30.1,45.7 30.1,45.7 30.1,45.7 30.1,45.7 30.1,45.7 30.1,45.7 30.1,45.7 30.1,45.7 
			30.1,45.7 30.1,45.7 30.1,45.7 30.1,45.7 30.1,45.6 30.1,45.6 30.1,45.6 30.1,45.6 30.1,45.6 30.1,45.6 30.1,45.6 30.1,45.6 
			30.1,45.6 30.1,45.6 30.2,45.6 30.2,45.6 30.2,45.6 30.2,45.6 30.2,45.6 30.2,45.6 30.2,45.6 30.2,45.6 30.2,45.6 30.2,45.6 
			30.2,45.6 30.2,45.6 30.2,45.6 30.2,45.6 30.2,45.5 30.2,45.5 30.2,45.5 30.2,45.5 30.2,45.5 30.2,45.5 30.6,45.1 30.6,45.1 
			30.6,45.1 30.6,45.1 30.6,45.1 30.6,45.1 30.7,45.1 30.7,45.1 30.7,45.1 30.7,45.1 30.7,45.1 30.7,45.1 30.7,45.1 30.7,45.1 
			30.7,45.1 30.7,45.1 30.7,45.1 30.7,45.1 30.7,45.1 30.7,45.1 30.7,45 30.7,45 30.7,45 30.7,45 30.7,45 30.7,45 30.7,45 30.7,45 
			30.7,45 30.7,45 30.8,45 30.8,45 30.8,45 30.8,45 30.8,45 30.8,45 30.8,45 30.8,45 30.8,45 30.8,45 30.8,45 30.8,45 30.8,45 
			30.9,44.8 30.3,44.2 30.2,44.4 30.2,44.4 30.2,44.4 30.2,44.4 30.2,44.4 30.2,44.4 30.2,44.4 30.2,44.4 30.2,44.4 30.1,44.4 
			30.1,44.4 30.1,44.4 30.1,44.4 30.1,44.4 30.1,44.4 30.1,44.4 30.1,44.4 30.1,44.4 30.1,44.4 30.1,44.4 30.1,44.4 30.1,44.4 
			30.1,44.4 30.1,44.4 30.1,44.5 30.1,44.5 30.1,44.5 30.1,44.5 30.1,44.5 30.1,44.5 30.1,44.5 30.1,44.5 30.1,44.5 30,44.5 
			30,44.5 30,44.5 30,44.5 30,44.5 30,44.5 30,44.5 30,44.5 29.6,44.9 29.6,44.9 29.6,44.9 29.6,44.9 29.6,44.9 29.6,44.9 
			29.6,44.9 29.6,44.9 29.6,44.9 29.6,44.9 29.6,45 29.6,45 29.6,45 29.6,45 29.6,45 29.6,45 29.6,45 29.6,45 29.5,45 29.5,45 
			29.5,45 29.5,45 29.5,45 29.5,45 29.5,45 29.5,45 29.5,45 29.5,45 29.5,45 29.5,45 29.5,45 29.5,45 29.5,45 29.5,45 29.5,45.1 
			29.5,45.1 29.5,45.1 29.5,45.1 29.5,45.1 29.5,45.1 29.5,45.1 29.5,45.1 29.4,45.1 29.4,45.1 29.4,45.1 29.4,45.1 29.4,45.1 
			29.4,45.1 29.4,45.1 29.4,45.1 29.4,45.1 29.4,45.1 29.4,45.1 29.4,45.1 29.4,45.1 29.4,45.1 29.4,45.1 29.4,45.1 29.4,45.2 
			29.4,45.2 29.4,45.2 29.4,45.2 30,45.8 		"/>
		<polygon class="st0" points="29,46.6 29,46.6 29,46.6 29,46.6 29,46.6 29.1,46.6 29.1,46.6 29.1,46.6 29.1,46.6 29.1,46.6 
			29.1,46.6 29.1,46.6 29.1,46.6 29.1,46.6 29.1,46.6 29.1,46.6 29.1,46.6 29.1,46.6 29.1,46.5 29.1,46.5 29.1,46.5 29.1,46.5 
			29.1,46.5 29.1,46.5 29.1,46.5 29.1,46.5 29.1,46.5 29.1,46.5 29.1,46.5 29.1,46.5 29.1,46.5 29.1,46.5 29.1,46.5 29.2,46.5 
			29.2,46.5 29.2,46.5 29.2,46.5 29.1,46.5 29.1,46.5 29.1,46.5 29.1,46.5 29.1,46.5 29.2,46.5 29.2,46.5 29.2,46.5 29.2,46.5 
			29.2,46.5 29.2,46.5 29.2,46.5 29.2,46.5 29.2,46.5 29.2,46.5 29.2,46.5 29.2,46.5 29.2,46.5 29.2,46.4 29.2,46.4 29.2,46.4 
			29.2,46.4 29.2,46.4 29.2,46.4 29.2,46.4 29.2,46.4 29.2,46.4 29.2,46.4 29.2,46.4 29.2,46.4 29.2,46.4 29.2,46.4 29.2,46.4 
			29.3,46.4 29.3,46.4 29.3,46.4 29.3,46.4 29.3,46.4 29.3,46.4 29.3,46.4 29.3,46.4 29.3,46.4 29.3,46.4 29.4,46.3 28.9,45.8 
			28.8,45.9 28.8,45.9 28.8,45.9 28.8,45.9 28.7,45.9 28.7,45.9 28.7,45.9 28.7,45.9 28.7,45.9 28.7,45.9 28.7,45.9 28.7,45.9 
			28.7,45.9 28.7,45.9 28.7,45.9 28.7,45.9 28.7,45.9 28.7,45.9 28.7,45.9 28.7,45.9 28.7,45.9 28.7,45.9 28.7,45.9 28.7,45.9 
			28.7,45.9 28.7,45.9 28.7,45.9 28.7,45.9 28.7,45.9 28.7,46 28.7,46 28.7,46 28.6,46 28.6,46 28.6,46 28.6,46 28.6,46 28.6,46 
			28.6,46 28.6,46 28.6,46 28.6,46 28.6,46 28.6,46 28.6,46 28.6,46 28.6,46 28.6,46 28.6,46 28.6,46 28.6,46 28.6,46 28.6,46 
			28.6,46 28.6,46 28.6,46 28.6,46 28.6,46 28.6,46 28.6,46 28.6,46 28.6,46 28.6,46 28.6,46 28.6,46 28.6,46 28.6,46.1 28.6,46.1 
			28.5,46.1 28.5,46.1 28.5,46.1 28.5,46.1 28.5,46.1 28.5,46.1 28.5,46.1 28.5,46.1 28.5,46.1 28.5,46.1 28.5,46.1 28.5,46.1 
			28.5,46.1 28.5,46.1 28.5,46.1 28.5,46.1 28.5,46.1 28.5,46.1 28.5,46.1 28.5,46.1 28.5,46.1 28.5,46.1 28.5,46.1 28.5,46.1 
			28.5,46.1 28.5,46.1 28.5,46.1 28.5,46.2 28.5,46.2 28.4,46.2 28.4,46.2 28.4,46.2 28.4,46.2 28.4,46.2 28.4,46.2 29,46.7 
			29,46.7 29,46.7 29,46.7 29,46.7 29,46.7 29,46.7 29,46.7 29,46.7 29,46.7 29,46.7 29,46.7 29,46.6 29,46.6 29,46.6 29,46.6 
			29,46.6 29,46.6 29,46.6 29,46.6 29,46.6 29,46.6 29,46.6 		"/>
		<polygon class="st0" points="28,47.5 28,47.5 28.1,47.5 28.1,47.5 28.1,47.5 28.1,47.5 28.1,47.5 28.1,47.5 28.1,47.5 28.1,47.5 
			28.1,47.5 28.1,47.5 28.1,47.5 28.1,47.4 28.1,47.4 28.1,47.4 28.1,47.4 28.1,47.4 28.1,47.4 28.1,47.4 28.1,47.4 28.1,47.4 
			28.1,47.4 28.1,47.4 28.1,47.4 28.1,47.4 28.2,47.3 27.8,46.9 27.7,47 27.7,47 27.7,47 27.7,47 27.7,47 27.7,47 27.7,47 27.7,47 
			27.7,47 27.7,47 27.7,47 27.7,47 27.7,47 27.7,47 27.6,47 27.6,47 27.6,47 27.6,47 27.6,47 27.6,47 27.6,47.1 27.6,47.1 
			27.6,47.1 27.6,47.1 27.6,47.1 27.6,47.1 27.6,47.1 27.6,47.1 27.6,47.1 27.6,47.1 27.6,47.1 27.6,47.1 27.6,47.1 27.6,47.1 
			27.6,47.1 27.6,47.1 27.6,47.1 27.6,47.1 27.6,47.1 27.6,47.1 27.6,47.1 27.6,47.1 27.6,47.1 27.6,47.1 27.6,47.1 27.6,47.1 
			27.6,47.1 27.6,47.1 27.6,47.1 27.5,47.1 27.5,47.1 27.5,47.1 27.5,47.1 27.5,47.1 27.5,47.1 27.5,47.2 27.5,47.2 27.5,47.2 
			27.5,47.2 27.5,47.2 27.5,47.2 27.5,47.2 27.5,47.2 27.5,47.2 27.5,47.2 27.5,47.2 27.5,47.2 27.5,47.2 27.5,47.2 27.5,47.2 
			27.5,47.2 27.5,47.2 27.5,47.2 27.5,47.2 27.5,47.2 27.5,47.2 27.5,47.2 27.5,47.2 27.5,47.2 27.5,47.2 27.5,47.2 27.5,47.2 
			27.5,47.2 27.5,47.2 27.4,47.2 27.4,47.2 27.4,47.2 27.4,47.2 27.4,47.2 27.4,47.2 27.4,47.3 27.4,47.3 27.4,47.3 27.4,47.3 
			27.4,47.3 27.4,47.3 27.4,47.3 27.4,47.3 27.4,47.3 27.4,47.3 27.4,47.3 27.4,47.3 27.4,47.3 27.8,47.7 27.8,47.7 27.8,47.7 
			27.8,47.7 27.8,47.7 27.8,47.7 27.8,47.7 27.8,47.7 27.8,47.7 27.8,47.7 27.9,47.7 27.9,47.7 27.9,47.7 27.9,47.7 27.9,47.7 
			27.9,47.7 27.9,47.7 27.9,47.7 27.9,47.7 27.9,47.7 27.9,47.6 27.9,47.6 27.9,47.6 27.9,47.6 27.9,47.6 27.9,47.6 27.9,47.6 
			27.9,47.6 27.9,47.6 27.9,47.6 27.9,47.6 27.9,47.6 27.9,47.6 27.9,47.6 27.9,47.6 27.9,47.6 27.9,47.6 27.9,47.6 27.9,47.6 
			27.9,47.6 27.9,47.6 27.9,47.6 27.9,47.6 27.9,47.6 28,47.6 28,47.6 28,47.6 28,47.6 28,47.6 28,47.6 28,47.6 28,47.6 28,47.6 
			28,47.6 28,47.6 28,47.5 28,47.5 28,47.5 28,47.5 28,47.5 28,47.5 28,47.5 28,47.5 28,47.5 28,47.5 28,47.5 28,47.5 28,47.5 
			28,47.5 28,47.5 28,47.5 28,47.5 28,47.5 28,47.5 28,47.5 28,47.5 28,47.5 		"/>
		<polygon class="st0" points="26.6,48.1 26.6,48.1 26.6,48.1 26.6,48.1 26.6,48.1 26.6,48.1 26.6,48.1 26.6,48.1 26.6,48.1 
			26.6,48.1 26.6,48.1 26.6,48.1 26.6,48.1 26.6,48.2 26.6,48.2 26.6,48.2 26.6,48.2 26.6,48.2 26.6,48.2 26.6,48.2 26.6,48.2 
			26.6,48.2 26.6,48.2 26.6,48.2 26.6,48.2 26.6,48.2 26.6,48.2 26.6,48.2 26.6,48.2 26.6,48.2 26.6,48.2 26.6,48.2 26.6,48.2 
			26.6,48.2 26.6,48.2 26.6,48.2 26.6,48.2 26.6,48.2 26.6,48.2 26.6,48.2 26.5,48.2 26.5,48.2 26.5,48.2 26.5,48.2 26.5,48.2 
			26.5,48.2 26.5,48.2 26.5,48.2 26.5,48.2 26.5,48.2 26.5,48.2 26.5,48.2 26.5,48.2 26.5,48.2 26.5,48.2 26.5,48.2 26.5,48.2 
			26.5,48.2 26.5,48.3 26.5,48.3 26.5,48.3 26.5,48.3 26.5,48.3 26.5,48.3 26.5,48.3 26.5,48.3 26.5,48.3 26.5,48.3 26.5,48.3 
			26.5,48.3 26.5,48.3 26.5,48.3 26.5,48.3 26.5,48.3 26.5,48.3 26.5,48.3 26.5,48.3 26.5,48.3 26.5,48.3 26.5,48.3 26.5,48.3 
			26.5,48.3 26.5,48.3 26.5,48.3 26.4,48.3 26.4,48.3 26.4,48.3 26.4,48.3 26.4,48.3 26.4,48.3 26.4,48.3 26.4,48.3 26.4,48.3 
			26.4,48.3 26.4,48.3 26.4,48.3 26.4,48.3 26.4,48.3 26.4,48.3 26.4,48.3 26.4,48.3 26.4,48.3 26.4,48.3 26.7,48.7 26.7,48.7 
			26.7,48.7 26.7,48.7 26.8,48.7 26.8,48.7 26.8,48.7 26.8,48.7 26.8,48.7 26.8,48.7 26.8,48.7 26.8,48.6 26.8,48.6 26.8,48.6 
			26.8,48.6 26.8,48.6 26.8,48.6 26.8,48.6 26.8,48.6 26.8,48.6 26.8,48.6 26.8,48.6 26.8,48.6 26.8,48.6 26.8,48.6 26.8,48.6 
			26.8,48.6 26.8,48.6 26.8,48.6 26.8,48.6 26.8,48.6 26.8,48.6 26.8,48.6 26.8,48.6 26.8,48.6 26.8,48.6 26.8,48.6 26.8,48.6 
			26.8,48.6 26.8,48.6 26.8,48.6 26.8,48.6 26.8,48.6 26.8,48.6 26.8,48.6 26.8,48.6 26.8,48.6 26.8,48.6 26.8,48.6 26.9,48.6 
			26.9,48.6 26.9,48.6 26.9,48.6 26.9,48.6 26.9,48.6 26.9,48.6 26.9,48.6 26.9,48.5 26.9,48.5 26.9,48.5 26.9,48.5 26.9,48.5 
			26.9,48.5 26.9,48.5 26.9,48.5 26.9,48.5 26.9,48.5 26.9,48.5 26.9,48.5 26.9,48.5 26.9,48.5 26.9,48.5 26.9,48.5 26.9,48.5 
			26.9,48.5 26.9,48.5 26.9,48.5 26.9,48.5 26.9,48.5 26.9,48.5 26.9,48.5 26.9,48.5 26.9,48.5 26.9,48.5 26.9,48.5 26.9,48.5 
			26.9,48.5 26.9,48.5 26.9,48.5 26.9,48.5 26.9,48.5 26.9,48.5 26.9,48.5 27,48.5 27,48.5 27,48.5 27,48.5 27,48.5 27,48.5 
			27,48.5 27,48.5 27,48.5 27,48.4 27,48.4 26.7,48.1 		"/>
		<polygon class="st0" points="25.6,49.2 25.6,49.3 25.6,49.3 25.6,49.3 25.6,49.3 25.6,49.3 25.6,49.3 25.6,49.3 25.6,49.3 
			25.6,49.3 25.6,49.3 25.6,49.3 25.6,49.3 25.6,49.3 25.6,49.3 25.6,49.3 25.6,49.3 25.6,49.3 25.6,49.3 25.6,49.3 25.6,49.3 
			25.6,49.3 25.6,49.3 25.5,49.3 25.5,49.3 25.5,49.3 25.5,49.3 25.5,49.3 25.5,49.3 25.5,49.3 25.5,49.3 25.5,49.3 25.5,49.3 
			25.5,49.3 25.5,49.3 25.5,49.3 25.5,49.3 25.5,49.3 25.5,49.3 25.5,49.3 25.5,49.3 25.5,49.3 25.5,49.3 25.5,49.3 25.5,49.3 
			25.5,49.3 25.5,49.3 25.5,49.3 25.5,49.3 25.5,49.3 25.5,49.3 25.5,49.3 25.5,49.3 25.5,49.3 25.5,49.3 25.5,49.3 25.5,49.3 
			25.5,49.3 25.5,49.3 25.5,49.3 25.5,49.3 25.5,49.3 25.5,49.3 25.5,49.3 25.5,49.4 25.5,49.4 25.5,49.4 25.5,49.4 25.5,49.4 
			25.5,49.4 25.5,49.4 25.5,49.4 25.5,49.4 25.5,49.4 25.5,49.4 25.5,49.4 25.5,49.4 25.5,49.4 25.5,49.4 25.5,49.4 25.5,49.4 
			25.5,49.4 25.5,49.4 25.5,49.4 25.5,49.4 25.4,49.4 25.4,49.4 25.4,49.4 25.4,49.4 25.4,49.4 25.4,49.4 25.4,49.4 25.4,49.4 
			25.4,49.4 25.4,49.4 25.4,49.4 25.4,49.4 25.4,49.4 25.4,49.4 25.4,49.4 25.4,49.4 25.4,49.4 25.4,49.4 25.7,49.6 25.7,49.6 
			25.7,49.6 25.7,49.6 25.7,49.6 25.7,49.6 25.7,49.6 25.7,49.6 25.7,49.6 25.7,49.6 25.7,49.6 25.7,49.6 25.7,49.6 25.7,49.6 
			25.7,49.6 25.7,49.6 25.7,49.6 25.7,49.6 25.7,49.6 25.7,49.6 25.7,49.6 25.7,49.6 25.7,49.6 25.7,49.6 25.7,49.6 25.7,49.6 
			25.7,49.6 25.7,49.6 25.7,49.6 25.7,49.6 25.7,49.6 25.7,49.6 25.7,49.6 25.7,49.6 25.7,49.6 25.7,49.6 25.7,49.6 25.7,49.6 
			25.7,49.6 25.7,49.6 25.7,49.6 25.7,49.6 25.7,49.6 25.7,49.6 25.7,49.6 25.7,49.6 25.7,49.6 25.7,49.6 25.7,49.6 25.7,49.6 
			25.7,49.6 25.7,49.6 25.7,49.6 25.7,49.6 25.7,49.6 25.7,49.6 25.7,49.6 25.8,49.6 25.8,49.6 25.8,49.6 25.8,49.5 25.8,49.5 
			25.8,49.5 25.8,49.5 25.8,49.5 25.8,49.5 25.8,49.5 25.8,49.5 25.8,49.5 25.8,49.5 25.8,49.5 25.8,49.5 25.8,49.5 25.8,49.5 
			25.8,49.5 25.8,49.5 25.8,49.5 25.8,49.5 25.8,49.5 25.8,49.5 25.8,49.5 25.8,49.5 25.8,49.5 25.8,49.5 25.8,49.5 25.8,49.5 
			25.8,49.5 25.8,49.5 25.8,49.5 25.8,49.5 25.8,49.5 25.8,49.5 25.8,49.5 25.8,49.5 25.8,49.5 25.8,49.5 25.8,49.5 25.8,49.5 
			25.8,49.5 25.8,49.5 25.8,49.5 25.8,49.5 25.8,49.5 25.9,49.4 25.6,49.2 		"/>
		<polygon class="st0" points="24.6,50.3 24.6,50.3 24.6,50.3 24.6,50.3 24.6,50.3 24.6,50.3 24.6,50.3 24.6,50.3 24.6,50.3 
			24.6,50.3 24.6,50.3 24.6,50.3 24.6,50.3 24.6,50.3 24.6,50.3 24.6,50.3 24.6,50.3 24.6,50.3 24.6,50.3 24.6,50.3 24.6,50.3 
			24.6,50.3 24.6,50.3 24.6,50.3 24.6,50.3 24.6,50.3 24.6,50.3 24.6,50.3 24.6,50.3 24.6,50.3 24.6,50.3 24.6,50.3 24.6,50.3 
			24.6,50.3 24.6,50.3 24.6,50.3 24.6,50.4 24.6,50.4 24.6,50.4 24.6,50.4 24.6,50.4 24.6,50.4 24.6,50.4 24.6,50.4 24.6,50.4 
			24.6,50.4 24.5,50.4 24.5,50.4 24.5,50.4 24.5,50.4 24.5,50.4 24.5,50.4 24.5,50.4 24.5,50.4 24.5,50.4 24.5,50.4 24.5,50.4 
			24.5,50.4 24.5,50.4 24.5,50.4 24.5,50.4 24.5,50.4 24.5,50.4 24.5,50.4 24.5,50.4 24.5,50.4 24.5,50.4 24.5,50.4 24.5,50.4 
			24.5,50.4 24.5,50.4 24.5,50.4 24.5,50.4 24.5,50.4 24.5,50.4 24.5,50.4 24.5,50.4 24.5,50.4 24.5,50.4 24.5,50.4 24.5,50.4 
			24.5,50.4 24.5,50.4 24.5,50.4 24.5,50.4 24.5,50.4 24.5,50.4 24.5,50.4 24.5,50.4 24.5,50.4 24.5,50.4 24.5,50.4 24.5,50.4 
			24.5,50.4 24.5,50.4 24.5,50.4 24.5,50.4 24.5,50.4 24.5,50.4 24.5,50.4 24.5,50.4 24.5,50.4 24.5,50.4 24.6,50.6 24.6,50.6 
			24.6,50.6 24.6,50.6 24.6,50.5 24.6,50.5 24.6,50.5 24.6,50.5 24.6,50.5 24.6,50.5 24.6,50.5 24.6,50.5 24.6,50.5 24.7,50.5 
			24.7,50.5 24.7,50.5 24.7,50.5 24.7,50.5 24.7,50.5 24.7,50.5 24.7,50.5 24.7,50.5 24.7,50.5 24.7,50.5 24.7,50.5 24.7,50.5 
			24.7,50.5 24.7,50.5 24.7,50.5 24.7,50.5 24.7,50.5 24.7,50.5 24.7,50.5 24.7,50.5 24.7,50.5 24.7,50.5 24.7,50.5 24.7,50.5 
			24.7,50.5 24.7,50.5 24.7,50.5 24.7,50.5 24.7,50.5 24.7,50.5 24.7,50.5 24.7,50.5 24.7,50.5 24.7,50.5 24.7,50.5 24.7,50.5 
			24.7,50.5 24.7,50.5 24.7,50.5 24.7,50.5 24.7,50.5 24.7,50.5 24.7,50.5 24.7,50.5 24.7,50.5 24.7,50.5 24.7,50.5 24.7,50.5 
			24.7,50.5 24.7,50.5 24.7,50.5 24.7,50.5 24.7,50.5 24.7,50.5 24.7,50.5 24.7,50.5 24.7,50.5 24.7,50.5 24.7,50.5 24.7,50.5 
			24.7,50.5 24.7,50.5 24.7,50.5 24.7,50.5 24.7,50.5 24.7,50.5 24.7,50.5 24.7,50.5 24.7,50.5 24.7,50.5 24.7,50.5 24.7,50.5 
			24.7,50.5 24.7,50.5 24.7,50.5 24.7,50.5 24.7,50.5 24.7,50.5 24.7,50.5 24.7,50.5 24.7,50.5 24.7,50.5 24.7,50.5 24.7,50.5 
			24.7,50.5 24.7,50.5 24.7,50.5 24.7,50.5 24.7,50.5 24.8,50.4 24.6,50.3 		"/>
		<polygon class="st0" points="30,47.2 30,47.2 30,47.2 30,47.2 30.1,47.2 30.1,47.2 30.1,47.2 30.1,47.2 30.1,47.2 30.1,47.2 
			30.1,47.2 30.1,47.2 30.1,47.2 30.1,47.2 30.1,47.2 30.1,47.2 30.1,47.2 30.1,47.2 30.2,47.1 29.7,46.6 29.6,46.7 29.6,46.7 
			29.6,46.7 29.6,46.7 29.6,46.7 29.6,46.7 29.6,46.7 29.6,46.7 29.5,46.7 29.5,46.7 29.5,46.7 29.5,46.7 29.5,46.7 29.5,46.7 
			29.5,46.7 29.5,46.7 29.5,46.7 29.5,46.7 29.5,46.7 29.5,46.7 29.5,46.7 29.5,46.7 29.5,46.7 29.5,46.7 29.5,46.7 29.5,46.7 
			29.5,46.7 29.5,46.7 29.5,46.8 29.5,46.8 29.5,46.8 29.5,46.8 29.5,46.8 29.5,46.8 29.5,46.8 29.5,46.8 29.4,46.8 29.4,46.8 
			29.4,46.8 29.4,46.8 29.4,46.8 29.4,46.8 29.4,46.8 29.4,46.8 29.5,46.8 29.4,46.8 29.4,46.8 29.4,46.8 29.4,46.8 29.4,46.8 
			29.4,46.8 29.4,46.8 29.4,46.8 29.4,46.8 29.4,46.8 29.4,46.8 29.4,46.8 29.4,46.8 29.4,46.8 29.4,46.8 29.4,46.8 29.4,46.8 
			29.4,46.8 29.4,46.8 29.4,46.8 29.4,46.8 29.4,46.9 29.4,46.9 29.4,46.9 29.4,46.9 29.4,46.9 29.4,46.9 29.4,46.9 29.3,46.9 
			29.3,46.9 29.3,46.9 29.3,46.9 29.3,46.9 29.3,46.9 29.3,46.9 29.3,46.9 29.3,46.9 29.3,46.9 29.3,46.9 29.3,46.9 29.3,46.9 
			29.3,46.9 29.3,46.9 29.3,46.9 29.3,46.9 29.3,46.9 29.3,46.9 29.3,46.9 29.3,46.9 29.3,46.9 29.3,47 29.3,47 29.3,47 29.3,47 
			29.3,47 29.3,47 29.2,47 29.2,47 29.8,47.5 29.8,47.5 29.8,47.5 29.8,47.5 29.8,47.5 29.8,47.5 29.8,47.5 29.8,47.5 29.8,47.5 
			29.8,47.5 29.8,47.5 29.8,47.5 29.8,47.4 29.8,47.4 29.8,47.4 29.8,47.4 29.8,47.4 29.8,47.4 29.8,47.4 29.8,47.4 29.8,47.4 
			29.8,47.4 29.8,47.4 29.8,47.4 29.9,47.4 29.9,47.4 29.9,47.4 29.9,47.4 29.9,47.4 29.9,47.4 29.9,47.4 29.9,47.4 29.9,47.4 
			29.9,47.4 29.9,47.4 29.9,47.4 29.9,47.4 29.9,47.4 29.9,47.4 29.9,47.4 29.9,47.4 29.9,47.3 29.9,47.3 29.9,47.3 29.9,47.3 
			29.9,47.3 29.9,47.3 29.9,47.3 29.9,47.3 29.9,47.3 29.9,47.3 29.9,47.3 30,47.3 30,47.3 30,47.3 30,47.3 30,47.3 29.9,47.3 
			29.9,47.3 29.9,47.3 30,47.3 30,47.3 30,47.3 30,47.3 30,47.3 30,47.3 30,47.3 30,47.3 30,47.3 30,47.3 30,47.3 30,47.3 30,47.3 
			30,47.3 30,47.3 30,47.3 30,47.3 30,47.3 30,47.2 30,47.2 30,47.2 30,47.2 30,47.2 30,47.2 30,47.2 		"/>
		<polygon class="st0" points="28.5,47.8 28.5,47.8 28.5,47.8 28.5,47.8 28.5,47.8 28.5,47.8 28.5,47.8 28.5,47.8 28.5,47.8 
			28.5,47.8 28.5,47.8 28.5,47.8 28.5,47.8 28.5,47.8 28.5,47.8 28.5,47.8 28.5,47.8 28.5,47.8 28.5,47.8 28.5,47.9 28.4,47.9 
			28.4,47.9 28.4,47.9 28.4,47.9 28.4,47.9 28.4,47.9 28.4,47.9 28.4,47.9 28.4,47.9 28.4,47.9 28.4,47.9 28.4,47.9 28.4,47.9 
			28.4,47.9 28.4,47.9 28.4,47.9 28.4,47.9 28.4,47.9 28.4,47.9 28.4,47.9 28.4,47.9 28.4,47.9 28.4,47.9 28.4,47.9 28.4,47.9 
			28.4,47.9 28.4,47.9 28.4,47.9 28.4,47.9 28.4,47.9 28.4,47.9 28.4,47.9 28.4,47.9 28.4,47.9 28.4,48 28.3,48 28.3,48 28.3,48 
			28.3,48 28.3,48 28.3,48 28.3,48 28.3,48 28.3,48 28.3,48 28.3,48 28.3,48 28.3,48 28.3,48 28.3,48 28.3,48 28.3,48 28.3,48 
			28.3,48 28.3,48 28.3,48 28.3,48 28.3,48 28.3,48 28.3,48 28.3,48 28.3,48 28.3,48 28.3,48 28.3,48 28.3,48 28.3,48 28.3,48 
			28.3,48 28.2,48 28.2,48.1 28.2,48.1 28.2,48.1 28.2,48.1 28.2,48.1 28.2,48.1 28.2,48.1 28.2,48.1 28.2,48.1 28.2,48.1 
			28.2,48.1 28.2,48.1 28.2,48.1 28.6,48.5 28.6,48.5 28.6,48.5 28.6,48.5 28.7,48.5 28.7,48.5 28.7,48.5 28.7,48.5 28.7,48.5 
			28.7,48.5 28.7,48.5 28.7,48.5 28.7,48.5 28.7,48.5 28.7,48.5 28.7,48.5 28.7,48.5 28.7,48.5 28.7,48.5 28.7,48.5 28.7,48.4 
			28.7,48.4 28.7,48.4 28.7,48.4 28.7,48.4 28.7,48.4 28.7,48.4 28.7,48.4 28.7,48.4 28.7,48.4 28.7,48.4 28.7,48.4 28.7,48.4 
			28.7,48.4 28.7,48.4 28.7,48.4 28.7,48.4 28.7,48.4 28.7,48.4 28.8,48.4 28.8,48.4 28.8,48.4 28.8,48.4 28.8,48.4 28.8,48.4 
			28.8,48.4 28.8,48.4 28.8,48.4 28.8,48.4 28.8,48.4 28.8,48.4 28.8,48.4 28.8,48.4 28.8,48.4 28.8,48.4 28.8,48.4 28.8,48.3 
			28.8,48.3 28.8,48.3 28.8,48.3 28.8,48.3 28.8,48.3 28.8,48.3 28.8,48.3 28.8,48.3 28.8,48.3 28.8,48.3 28.8,48.3 28.8,48.3 
			28.8,48.3 28.8,48.3 28.8,48.3 28.8,48.3 28.9,48.3 28.9,48.3 28.9,48.3 28.9,48.3 28.9,48.3 28.9,48.3 28.9,48.3 28.9,48.3 
			28.9,48.3 28.9,48.3 28.9,48.3 28.9,48.3 28.9,48.3 28.9,48.3 28.9,48.3 28.9,48.3 28.9,48.3 28.9,48.3 28.9,48.2 28.9,48.2 
			28.9,48.2 28.9,48.2 28.9,48.2 28.9,48.2 28.9,48.2 28.9,48.2 28.9,48.2 28.9,48.2 28.9,48.2 28.9,48.2 29,48.1 28.6,47.7 		"/>
		<polygon class="st0" points="27.5,48.9 27.5,48.9 27.5,48.9 27.4,48.9 27.4,48.9 27.4,48.9 27.4,48.9 27.4,48.9 27.4,48.9 
			27.4,48.9 27.4,48.9 27.4,48.9 27.4,49 27.4,49 27.4,49 27.4,49 27.4,49 27.4,49 27.4,49 27.4,49 27.4,49 27.4,49 27.4,49 
			27.4,49 27.4,49 27.4,49 27.4,49 27.4,49 27.4,49 27.4,49 27.4,49 27.4,49 27.4,49 27.4,49 27.4,49 27.4,49 27.4,49 27.4,49 
			27.4,49 27.4,49 27.4,49 27.4,49 27.4,49 27.4,49 27.4,49 27.4,49 27.4,49 27.3,49 27.3,49 27.3,49 27.3,49 27.3,49 27.3,49 
			27.3,49 27.3,49 27.3,49 27.3,49 27.3,49 27.3,49.1 27.3,49.1 27.3,49.1 27.3,49.1 27.3,49.1 27.3,49.1 27.3,49.1 27.3,49.1 
			27.3,49.1 27.3,49.1 27.3,49.1 27.3,49.1 27.3,49.1 27.3,49.1 27.3,49.1 27.3,49.1 27.3,49.1 27.3,49.1 27.3,49.1 27.3,49.1 
			27.3,49.1 27.3,49.1 27.3,49.1 27.3,49.1 27.3,49.1 27.3,49.1 27.3,49.1 27.3,49.1 27.3,49.1 27.3,49.1 27.3,49.1 27.3,49.1 
			27.3,49.1 27.2,49.1 27.2,49.1 27.2,49.1 27.2,49.1 27.2,49.1 27.2,49.1 27.2,49.1 27.2,49.1 27.2,49.1 27.2,49.1 27.2,49.1 
			27.2,49.1 27.6,49.5 27.6,49.5 27.6,49.5 27.6,49.5 27.6,49.5 27.6,49.5 27.6,49.5 27.6,49.5 27.6,49.5 27.6,49.5 27.6,49.5 
			27.6,49.5 27.6,49.4 27.6,49.4 27.6,49.4 27.6,49.4 27.6,49.4 27.6,49.4 27.6,49.4 27.6,49.4 27.6,49.4 27.6,49.4 27.6,49.4 
			27.6,49.4 27.6,49.4 27.6,49.4 27.6,49.4 27.6,49.4 27.6,49.4 27.6,49.4 27.6,49.4 27.6,49.4 27.6,49.4 27.6,49.4 27.6,49.4 
			27.6,49.4 27.6,49.4 27.6,49.4 27.6,49.4 27.6,49.4 27.6,49.4 27.6,49.4 27.7,49.4 27.7,49.4 27.7,49.4 27.7,49.4 27.7,49.4 
			27.7,49.4 27.7,49.4 27.7,49.4 27.7,49.4 27.7,49.4 27.7,49.4 27.7,49.4 27.7,49.4 27.7,49.4 27.7,49.4 27.7,49.4 27.7,49.3 
			27.7,49.3 27.7,49.3 27.7,49.3 27.7,49.3 27.7,49.3 27.7,49.3 27.7,49.3 27.7,49.3 27.7,49.3 27.7,49.3 27.7,49.3 27.7,49.3 
			27.7,49.3 27.7,49.3 27.7,49.3 27.7,49.3 27.7,49.3 27.7,49.3 27.7,49.3 27.7,49.3 27.7,49.3 27.7,49.3 27.7,49.3 27.7,49.3 
			27.7,49.3 27.7,49.3 27.7,49.3 27.8,49.3 27.8,49.3 27.8,49.3 27.8,49.3 27.8,49.3 27.8,49.3 27.8,49.3 27.8,49.3 27.8,49.3 
			27.8,49.3 27.8,49.3 27.8,49.3 27.8,49.3 27.8,49.3 27.8,49.3 27.8,49.3 27.8,49.3 27.8,49.2 27.5,48.9 		"/>
		<polygon class="st0" points="26.4,50.1 26.4,50.1 26.4,50.1 26.4,50.1 26.4,50.1 26.4,50.1 26.4,50.1 26.4,50.1 26.4,50.1 
			26.4,50.1 26.4,50.1 26.4,50.1 26.4,50.1 26.4,50.1 26.4,50.1 26.4,50.1 26.4,50.1 26.4,50.1 26.4,50.1 26.4,50.1 26.4,50.1 
			26.4,50.1 26.4,50.1 26.4,50.1 26.4,50.1 26.4,50.1 26.4,50.1 26.4,50.1 26.4,50.1 26.4,50.1 26.4,50.1 26.4,50.1 26.4,50.1 
			26.3,50.1 26.3,50.1 26.3,50.1 26.3,50.1 26.3,50.1 26.3,50.1 26.3,50.1 26.3,50.1 26.3,50.1 26.3,50.1 26.3,50.1 26.3,50.1 
			26.3,50.1 26.3,50.1 26.3,50.1 26.3,50.1 26.3,50.1 26.3,50.1 26.3,50.1 26.3,50.1 26.3,50.1 26.3,50.1 26.3,50.1 26.3,50.1 
			26.3,50.1 26.3,50.1 26.3,50.1 26.3,50.1 26.3,50.1 26.3,50.1 26.3,50.2 26.3,50.2 26.3,50.2 26.3,50.2 26.3,50.2 26.3,50.2 
			26.3,50.2 26.3,50.2 26.3,50.2 26.3,50.2 26.3,50.2 26.3,50.2 26.3,50.2 26.3,50.2 26.3,50.2 26.3,50.2 26.3,50.2 26.3,50.2 
			26.3,50.2 26.3,50.2 26.3,50.2 26.3,50.2 26.3,50.2 26.3,50.2 26.3,50.2 26.3,50.2 26.3,50.2 26.3,50.2 26.3,50.2 26.3,50.2 
			26.3,50.2 26.3,50.2 26.2,50.2 26.2,50.2 26.2,50.2 26.2,50.2 26.2,50.2 26.2,50.2 26.2,50.2 26.2,50.2 26.5,50.4 26.5,50.4 
			26.5,50.4 26.5,50.4 26.5,50.4 26.5,50.4 26.5,50.4 26.5,50.4 26.5,50.4 26.5,50.4 26.5,50.4 26.5,50.4 26.5,50.4 26.5,50.4 
			26.5,50.4 26.5,50.4 26.5,50.4 26.5,50.4 26.5,50.4 26.5,50.4 26.5,50.4 26.5,50.4 26.5,50.4 26.5,50.4 26.5,50.4 26.5,50.4 
			26.5,50.4 26.5,50.4 26.5,50.4 26.5,50.4 26.5,50.4 26.5,50.4 26.5,50.4 26.5,50.4 26.5,50.4 26.5,50.4 26.5,50.4 26.5,50.4 
			26.5,50.4 26.5,50.4 26.5,50.4 26.5,50.4 26.5,50.4 26.5,50.4 26.5,50.4 26.5,50.4 26.5,50.4 26.6,50.4 26.6,50.4 26.6,50.4 
			26.6,50.4 26.6,50.4 26.6,50.4 26.6,50.4 26.6,50.4 26.6,50.4 26.6,50.4 26.6,50.4 26.6,50.4 26.6,50.4 26.6,50.4 26.6,50.3 
			26.6,50.3 26.6,50.3 26.6,50.3 26.6,50.3 26.6,50.3 26.6,50.3 26.6,50.3 26.6,50.3 26.6,50.3 26.6,50.3 26.6,50.3 26.6,50.3 
			26.6,50.3 26.6,50.3 26.6,50.3 26.6,50.3 26.6,50.3 26.6,50.3 26.6,50.3 26.6,50.3 26.6,50.3 26.6,50.3 26.6,50.3 26.6,50.3 
			26.6,50.3 26.6,50.3 26.6,50.3 26.6,50.3 26.6,50.3 26.6,50.3 26.6,50.3 26.6,50.3 26.6,50.3 26.6,50.3 26.6,50.3 26.6,50.3 
			26.6,50.3 26.6,50.3 26.6,50.3 26.6,50.3 26.6,50.3 26.7,50.2 26.4,50 		"/>
		<polygon class="st0" points="25.4,51.1 25.4,51.1 25.4,51.1 25.4,51.1 25.4,51.1 25.4,51.1 25.4,51.1 25.4,51.1 25.4,51.1 
			25.4,51.1 25.4,51.1 25.4,51.1 25.4,51.1 25.4,51.1 25.4,51.1 25.4,51.1 25.4,51.1 25.4,51.1 25.4,51.1 25.4,51.1 25.4,51.1 
			25.4,51.1 25.4,51.1 25.4,51.1 25.4,51.1 25.4,51.1 25.4,51.2 25.4,51.2 25.4,51.2 25.4,51.2 25.4,51.2 25.4,51.2 25.4,51.2 
			25.4,51.2 25.4,51.2 25.4,51.2 25.4,51.2 25.4,51.2 25.4,51.2 25.4,51.2 25.4,51.2 25.4,51.2 25.4,51.2 25.4,51.2 25.4,51.2 
			25.4,51.2 25.4,51.2 25.4,51.2 25.4,51.2 25.4,51.2 25.4,51.2 25.4,51.2 25.4,51.2 25.4,51.2 25.4,51.2 25.3,51.2 25.3,51.2 
			25.3,51.2 25.3,51.2 25.3,51.2 25.3,51.2 25.3,51.2 25.3,51.2 25.3,51.2 25.3,51.2 25.3,51.2 25.3,51.2 25.3,51.2 25.3,51.2 
			25.3,51.2 25.3,51.2 25.3,51.2 25.3,51.2 25.3,51.2 25.3,51.2 25.3,51.2 25.3,51.2 25.3,51.2 25.3,51.2 25.3,51.2 25.3,51.2 
			25.3,51.2 25.3,51.2 25.3,51.2 25.3,51.2 25.3,51.2 25.3,51.2 25.3,51.2 25.3,51.2 25.3,51.2 25.3,51.2 25.3,51.2 25.3,51.2 
			25.3,51.2 25.3,51.2 25.3,51.2 25.3,51.2 25.3,51.2 25.3,51.2 25.3,51.2 25.3,51.2 25.3,51.2 25.3,51.2 25.4,51.4 25.4,51.4 
			25.4,51.4 25.4,51.4 25.5,51.4 25.5,51.4 25.5,51.4 25.5,51.4 25.5,51.4 25.5,51.4 25.5,51.4 25.5,51.4 25.5,51.4 25.5,51.3 
			25.5,51.3 25.5,51.3 25.5,51.3 25.5,51.3 25.5,51.3 25.5,51.3 25.5,51.3 25.5,51.3 25.5,51.3 25.5,51.3 25.5,51.3 25.5,51.3 
			25.5,51.3 25.5,51.3 25.5,51.3 25.5,51.3 25.5,51.3 25.5,51.3 25.5,51.3 25.5,51.3 25.5,51.3 25.5,51.3 25.5,51.3 25.5,51.3 
			25.5,51.3 25.5,51.3 25.5,51.3 25.5,51.3 25.5,51.3 25.5,51.3 25.5,51.3 25.5,51.3 25.5,51.3 25.5,51.3 25.5,51.3 25.5,51.3 
			25.5,51.3 25.5,51.3 25.5,51.3 25.5,51.3 25.5,51.3 25.5,51.3 25.5,51.3 25.5,51.3 25.5,51.3 25.5,51.3 25.5,51.3 25.5,51.3 
			25.5,51.3 25.5,51.3 25.5,51.3 25.5,51.3 25.5,51.3 25.5,51.3 25.5,51.3 25.5,51.3 25.5,51.3 25.5,51.3 25.5,51.3 25.5,51.3 
			25.5,51.3 25.5,51.3 25.5,51.3 25.5,51.3 25.5,51.3 25.5,51.3 25.5,51.3 25.5,51.3 25.5,51.3 25.5,51.3 25.5,51.3 25.5,51.3 
			25.5,51.3 25.5,51.3 25.5,51.3 25.5,51.3 25.5,51.3 25.5,51.3 25.5,51.3 25.5,51.3 25.5,51.3 25.5,51.3 25.5,51.3 25.5,51.3 
			25.5,51.3 25.5,51.3 25.5,51.3 25.5,51.3 25.5,51.3 25.6,51.2 25.4,51.1 		"/>
		<polygon class="st0" points="32.8,44.9 32.8,44.9 32.8,44.9 32.8,44.9 32.8,44.9 32.8,44.9 32.8,44.9 32.8,44.9 32.8,44.9 
			32.8,44.9 32.8,44.9 32.8,44.9 32.8,44.9 32.8,44.9 32.8,44.9 32.8,44.9 32.8,44.9 32.8,44.9 32.8,44.9 32.8,44.9 32.7,45 
			32.7,45 32.7,45 32.7,45 32.7,45 32.7,45 32.7,45 32.7,45 32.7,45 32.7,45 32.7,45 32.7,45 32.7,45 32.7,45 32.7,45 32.7,45 
			32.7,45 32.7,45 32.7,45 32.7,45 32.6,45 32.6,45 32.6,45.1 32.6,45.1 32.6,45.1 32.6,45.1 32.6,45.1 32.6,45.1 32.6,45.1 
			32.6,45.1 32.6,45.1 32.6,45.1 32.6,45.1 32.6,45.1 32.6,45.1 32.6,45.1 32.6,45.1 32.6,45.1 32.6,45.1 32.6,45.1 32.6,45.1 
			32.5,45.1 32.5,45.1 32.5,45.2 32.5,45.2 32.5,45.2 32.5,45.2 32.5,45.2 32.5,45.2 32.5,45.2 32.5,45.2 32.5,45.2 32.5,45.2 
			32.5,45.2 32.5,45.2 32.5,45.2 32.3,45.4 32.3,45.4 32.3,45.4 32.3,45.4 32.3,45.4 32.3,45.4 32.3,45.4 32.2,45.4 32.2,45.4 
			32.2,45.5 32.2,45.5 32.2,45.5 32.2,45.5 32.2,45.5 32.2,45.5 32.2,45.5 32.2,45.5 32.2,45.5 32.2,45.5 32.2,45.5 32.2,45.5 
			32.2,45.5 32.2,45.5 32.2,45.5 32.2,45.5 32.2,45.5 32.2,45.5 32.9,46.2 32.9,46.2 32.9,46.2 32.9,46.2 32.9,46.2 32.9,46.2 
			32.9,46.2 32.9,46.2 32.9,46.2 32.9,46.2 32.9,46.2 32.9,46.2 32.9,46.2 32.9,46.2 32.9,46.2 32.9,46.2 32.9,46.2 32.9,46.2 
			33,46.1 33,46.1 33,46.1 33,46.1 33,46.1 33,46.1 33,46.1 33,46.1 33.2,45.9 33.2,45.9 33.2,45.9 33.2,45.9 33.2,45.9 33.2,45.9 
			33.2,45.9 33.2,45.9 33.2,45.9 33.2,45.9 33.2,45.9 33.2,45.9 33.2,45.9 33.3,45.9 33.3,45.8 33.3,45.8 33.3,45.8 33.3,45.8 
			33.3,45.8 33.3,45.8 33.3,45.8 33.3,45.8 33.3,45.8 33.3,45.8 33.3,45.8 33.3,45.8 33.3,45.8 33.3,45.8 33.3,45.8 33.3,45.8 
			33.3,45.8 33.3,45.8 33.3,45.8 33.3,45.8 33.4,45.8 33.4,45.7 33.4,45.7 33.4,45.7 33.4,45.7 33.4,45.7 33.4,45.7 33.4,45.7 
			33.4,45.7 33.4,45.7 33.4,45.7 33.4,45.7 33.4,45.7 33.4,45.7 33.4,45.7 33.4,45.7 33.4,45.7 33.4,45.7 33.4,45.7 33.4,45.7 
			33.4,45.7 33.5,45.7 33.5,45.7 33.5,45.6 33.5,45.6 33.5,45.6 33.5,45.6 33.5,45.6 33.5,45.6 33.5,45.6 33.5,45.6 33.5,45.6 
			33.5,45.6 33.5,45.6 33.5,45.6 33.5,45.6 33.5,45.6 33.5,45.6 33.5,45.6 33.5,45.6 33.5,45.6 33.5,45.6 33.6,45.6 33.7,45.4 
			33,44.7 		"/>
		<polygon class="st0" points="31.8,46 31.8,46 31.8,46 31.8,46 31.8,46 31.8,46 31.8,46 31.8,46 31.8,46 31.8,46 31.8,46 31.8,46 
			31.8,46 31.8,46 31.8,46 31.8,46 31.8,46 31.7,46 31.7,46 31.7,46 31.7,46 31.7,46 31.7,46 31.7,46.1 31.7,46.1 31.7,46.1 
			31.7,46.1 31.7,46.1 31.7,46.1 31.7,46.1 31.7,46.1 31.7,46.1 31.7,46.1 31.7,46.1 31.7,46.1 31.7,46.1 31.7,46.1 31.7,46.1 
			31.7,46.1 31.7,46.1 31.7,46.1 31.6,46.1 31.6,46.1 31.6,46.1 31.6,46.1 31.2,46.5 31.2,46.5 31.2,46.5 31.2,46.5 31.2,46.5 
			31.2,46.6 31.2,46.6 31.2,46.6 31.2,46.6 31.2,46.6 31.2,46.6 31.2,46.6 31.2,46.6 31.2,46.6 31.2,46.6 31.2,46.6 31.2,46.6 
			31.2,46.6 31.2,46.6 31.2,46.6 31.2,46.6 31.1,46.6 31.1,46.6 31.1,46.6 31.1,46.6 31.1,46.6 31.1,46.6 31.1,46.6 31.1,46.6 
			31.1,46.7 31.1,46.7 31.1,46.7 31.1,46.7 31.1,46.7 31.1,46.7 31.1,46.7 31.1,46.7 31.1,46.7 31.1,46.7 31.1,46.7 31.1,46.7 
			31.1,46.7 31.1,46.7 31.1,46.7 31.1,46.7 31,46.7 31,46.7 31,46.7 31,46.7 31,46.7 31,46.7 31,46.7 31,46.7 31,46.7 31,46.8 
			31,46.8 31,46.8 31,46.8 31.6,47.4 31.6,47.4 31.6,47.4 31.6,47.4 31.6,47.4 31.6,47.4 31.6,47.3 31.6,47.3 31.6,47.3 31.7,47.3 
			31.7,47.3 31.7,47.3 31.7,47.3 31.7,47.3 31.7,47.3 31.7,47.3 31.7,47.3 31.7,47.3 31.7,47.3 31.7,47.3 31.7,47.3 31.7,47.3 
			31.7,47.3 31.7,47.3 31.7,47.3 31.7,47.3 31.7,47.3 31.7,47.3 31.7,47.3 31.7,47.3 31.7,47.2 31.7,47.2 31.7,47.2 31.8,47.2 
			31.8,47.2 31.8,47.2 31.8,47.2 31.8,47.2 31.8,47.2 31.8,47.2 31.8,47.2 31.8,47.2 31.8,47.2 31.8,47.2 31.8,47.2 31.8,47.2 
			31.8,47.2 31.8,47.2 31.8,47.2 31.8,47.2 31.8,47.2 31.8,47.2 31.8,47.2 31.8,47.2 31.8,47.2 31.8,47.1 31.9,47.1 32.2,46.7 
			32.3,46.7 32.3,46.7 32.3,46.7 32.3,46.7 32.3,46.7 32.3,46.7 32.3,46.7 32.3,46.7 32.3,46.7 32.3,46.7 32.3,46.7 32.3,46.7 
			32.3,46.7 32.3,46.7 32.3,46.7 32.3,46.7 32.3,46.7 32.3,46.7 32.3,46.7 32.3,46.7 32.3,46.7 32.3,46.7 32.3,46.7 32.3,46.6 
			32.4,46.6 32.4,46.6 32.4,46.6 32.4,46.6 32.4,46.6 32.4,46.6 32.4,46.6 32.4,46.6 32.4,46.6 32.4,46.6 32.4,46.6 32.4,46.6 
			32.4,46.6 32.4,46.6 32.4,46.6 32.4,46.6 32.4,46.6 32.4,46.6 32.4,46.6 32.4,46.6 32.4,46.6 32.5,46.5 31.9,45.8 		"/>
		<polygon class="st0" points="30.4,47.5 30.4,47.5 30.4,47.5 30.4,47.5 30.4,47.5 30.4,47.5 30.4,47.5 30.4,47.5 30.4,47.5 
			30.4,47.5 30.4,47.5 30.4,47.5 30.4,47.5 30.3,47.5 30.3,47.5 30.3,47.5 30.3,47.5 30.3,47.5 30.3,47.5 30.3,47.5 30.3,47.5 
			30.3,47.5 30.3,47.5 30.3,47.5 30.3,47.5 30.3,47.5 30.3,47.5 30.3,47.5 30.3,47.6 30.3,47.6 30.3,47.6 30.3,47.6 30.3,47.6 
			30.3,47.6 30.3,47.6 30.3,47.6 30.3,47.6 30.3,47.6 30.3,47.6 30.3,47.6 30.3,47.6 30.2,47.6 30.2,47.6 30.2,47.6 30.2,47.6 
			30.2,47.6 30.3,47.6 30.3,47.6 30.3,47.6 30.2,47.6 30.2,47.6 30.2,47.6 30.2,47.6 30.2,47.6 30.2,47.6 30.2,47.6 30.2,47.6 
			30.2,47.6 30.2,47.6 30.2,47.6 30.2,47.6 30.2,47.6 30.2,47.6 30.2,47.6 30.2,47.6 30.2,47.7 30.2,47.7 30.2,47.7 30.2,47.7 
			30.2,47.7 30.2,47.7 30.2,47.7 30.2,47.7 30.2,47.7 30.2,47.7 30.2,47.7 30.2,47.7 30.2,47.7 30.1,47.7 30.1,47.7 30.1,47.7 
			30.1,47.7 30.1,47.7 30.1,47.7 30.1,47.7 30.1,47.7 30.1,47.7 30.1,47.7 30.1,47.7 30.1,47.7 30.1,47.7 30.1,47.7 30.1,47.7 
			30.1,47.7 30.1,47.8 30.1,47.8 30.1,47.8 30.1,47.8 30.1,47.8 30.1,47.8 30.1,47.8 30.1,47.8 30.1,47.8 30.6,48.3 30.6,48.3 
			30.6,48.3 30.6,48.3 30.6,48.3 30.6,48.3 30.6,48.3 30.6,48.3 30.6,48.3 30.6,48.3 30.6,48.3 30.6,48.3 30.6,48.3 30.6,48.2 
			30.6,48.2 30.6,48.2 30.6,48.2 30.6,48.2 30.6,48.2 30.7,48.2 30.7,48.2 30.7,48.2 30.7,48.2 30.7,48.2 30.7,48.2 30.7,48.2 
			30.7,48.2 30.7,48.2 30.7,48.2 30.7,48.2 30.7,48.2 30.7,48.2 30.7,48.2 30.7,48.2 30.7,48.2 30.7,48.2 30.7,48.2 30.7,48.2 
			30.7,48.2 30.7,48.2 30.7,48.2 30.7,48.2 30.7,48.1 30.7,48.1 30.7,48.1 30.7,48.1 30.7,48.1 30.8,48.1 30.8,48.1 30.8,48.1 
			30.8,48.1 30.8,48.1 30.8,48.1 30.8,48.1 30.8,48.1 30.7,48.1 30.8,48.1 30.8,48.1 30.8,48.1 30.8,48.1 30.8,48.1 30.8,48.1 
			30.8,48.1 30.8,48.1 30.8,48.1 30.8,48.1 30.8,48.1 30.8,48.1 30.8,48.1 30.8,48.1 30.8,48.1 30.8,48.1 30.8,48.1 30.8,48.1 
			30.8,48.1 30.8,48.1 30.8,48.1 30.8,48.1 30.8,48.1 30.8,48 30.8,48 30.8,48 30.8,48 30.8,48 30.9,48 30.9,48 30.9,48 30.9,48 
			30.9,48 30.9,48 30.9,48 30.9,48 30.9,48 30.9,48 30.9,48 30.9,48 30.9,48 30.9,48 30.9,48 30.9,48 30.9,48 30.9,48 30.9,48 
			31,47.9 30.5,47.4 		"/>
		<polygon class="st0" points="29.3,48.6 29.3,48.6 29.3,48.6 29.3,48.6 29.3,48.6 29.3,48.6 29.3,48.6 29.3,48.6 29.3,48.6 
			29.3,48.6 29.3,48.6 29.3,48.6 29.3,48.6 29.3,48.6 29.3,48.6 29.3,48.6 29.3,48.6 29.3,48.6 29.3,48.7 29.3,48.7 29.3,48.7 
			29.3,48.7 29.3,48.7 29.3,48.7 29.3,48.7 29.3,48.7 29.2,48.7 29.2,48.7 29.2,48.7 29.2,48.7 29.2,48.7 29.2,48.7 29.2,48.7 
			29.2,48.7 29.2,48.7 29.2,48.7 29.2,48.7 29.2,48.7 29.2,48.7 29.2,48.7 29.2,48.7 29.2,48.7 29.2,48.7 29.2,48.7 29.2,48.7 
			29.2,48.7 29.2,48.7 29.2,48.7 29.2,48.7 29.2,48.7 29.2,48.7 29.2,48.7 29.2,48.7 29.2,48.7 29.2,48.8 29.2,48.8 29.2,48.8 
			29.2,48.8 29.2,48.8 29.2,48.8 29.1,48.8 29.1,48.8 29.1,48.8 29.1,48.8 29.1,48.8 29.1,48.8 29.1,48.8 29.1,48.8 29.1,48.8 
			29.1,48.8 29.1,48.8 29.1,48.8 29.1,48.8 29.1,48.8 29.1,48.8 29.1,48.8 29.1,48.8 29.1,48.8 29.1,48.8 29.1,48.8 29.1,48.8 
			29.1,48.8 29.1,48.8 29.1,48.8 29.1,48.8 29.1,48.8 29.1,48.8 29.1,48.8 29.1,48.8 29.1,48.9 29.1,48.9 29.1,48.9 29.1,48.9 
			29.1,48.9 29.1,48.9 29,48.9 29,48.9 29,48.9 29,48.9 29,48.9 29,48.9 29,48.9 29,48.9 29.5,49.3 29.5,49.3 29.5,49.3 29.5,49.3 
			29.5,49.3 29.5,49.3 29.5,49.3 29.5,49.3 29.5,49.3 29.5,49.3 29.5,49.3 29.5,49.3 29.5,49.3 29.5,49.3 29.5,49.3 29.5,49.3 
			29.5,49.3 29.5,49.3 29.5,49.3 29.5,49.3 29.5,49.3 29.5,49.2 29.5,49.2 29.5,49.2 29.5,49.2 29.5,49.2 29.5,49.2 29.5,49.2 
			29.5,49.2 29.5,49.2 29.5,49.2 29.5,49.2 29.5,49.2 29.6,49.2 29.6,49.2 29.6,49.2 29.6,49.2 29.6,49.2 29.6,49.2 29.6,49.2 
			29.6,49.2 29.6,49.2 29.6,49.2 29.6,49.2 29.6,49.2 29.6,49.2 29.6,49.2 29.6,49.2 29.6,49.2 29.6,49.2 29.6,49.2 29.6,49.2 
			29.6,49.2 29.6,49.2 29.6,49.2 29.6,49.2 29.6,49.1 29.6,49.1 29.6,49.1 29.6,49.1 29.6,49.1 29.6,49.1 29.6,49.1 29.6,49.1 
			29.6,49.1 29.6,49.1 29.6,49.1 29.6,49.1 29.7,49.1 29.7,49.1 29.7,49.1 29.7,49.1 29.7,49.1 29.7,49.1 29.7,49.1 29.7,49.1 
			29.7,49.1 29.7,49.1 29.7,49.1 29.7,49.1 29.7,49.1 29.7,49.1 29.7,49.1 29.7,49.1 29.7,49.1 29.7,49.1 29.7,49.1 29.7,49.1 
			29.7,49.1 29.7,49.1 29.7,49.1 29.7,49.1 29.7,49 29.7,49 29.7,49 29.7,49 29.7,49 29.7,49 29.7,49 29.7,49 29.7,49 29.7,49 
			29.8,49 29.8,48.9 29.4,48.5 		"/>
		<polygon class="st0" points="28.3,49.7 28.3,49.7 28.3,49.7 28.3,49.7 28.3,49.7 28.3,49.7 28.3,49.7 28.3,49.7 28.3,49.7 
			28.3,49.7 28.2,49.7 28.2,49.8 28.2,49.8 28.2,49.8 28.2,49.8 28.2,49.8 28.2,49.8 28.2,49.8 28.2,49.8 28.2,49.8 28.2,49.8 
			28.2,49.8 28.2,49.8 28.2,49.8 28.2,49.8 28.2,49.8 28.2,49.8 28.2,49.8 28.2,49.8 28.2,49.8 28.2,49.8 28.2,49.8 28.2,49.8 
			28.2,49.8 28.2,49.8 28.2,49.8 28.2,49.8 28.2,49.8 28.2,49.8 28.2,49.8 28.2,49.8 28.2,49.8 28.2,49.8 28.2,49.8 28.2,49.8 
			28.2,49.8 28.2,49.8 28.2,49.8 28.2,49.8 28.2,49.8 28.2,49.8 28.2,49.8 28.2,49.8 28.2,49.8 28.1,49.8 28.1,49.8 28.1,49.8 
			28.1,49.9 28.1,49.9 28.1,49.9 28.1,49.9 28.1,49.9 28.1,49.9 28.1,49.9 28.1,49.9 28.1,49.9 28.1,49.9 28.1,49.9 28.1,49.9 
			28.1,49.9 28.1,49.9 28.1,49.9 28.1,49.9 28.1,49.9 28.1,49.9 28.1,49.9 28.1,49.9 28.1,49.9 28.1,49.9 28.1,49.9 28.1,49.9 
			28.1,49.9 28.1,49.9 28.1,49.9 28.1,49.9 28.1,49.9 28.1,49.9 28.1,49.9 28.1,49.9 28.1,49.9 28.1,49.9 28.1,49.9 28.1,49.9 
			28.1,49.9 28.1,49.9 28.1,49.9 28.1,49.9 28.1,49.9 28.1,49.9 28,49.9 28,49.9 28,49.9 28,50 28.4,50.3 28.4,50.3 28.4,50.3 
			28.4,50.3 28.4,50.3 28.4,50.3 28.4,50.3 28.4,50.3 28.4,50.3 28.4,50.3 28.4,50.3 28.4,50.3 28.4,50.3 28.4,50.2 28.4,50.2 
			28.4,50.2 28.4,50.2 28.4,50.2 28.4,50.2 28.4,50.2 28.4,50.2 28.4,50.2 28.4,50.2 28.4,50.2 28.4,50.2 28.4,50.2 28.4,50.2 
			28.4,50.2 28.4,50.2 28.4,50.2 28.4,50.2 28.4,50.2 28.4,50.2 28.4,50.2 28.5,50.2 28.5,50.2 28.5,50.2 28.5,50.2 28.5,50.2 
			28.5,50.2 28.5,50.2 28.5,50.2 28.5,50.2 28.5,50.2 28.5,50.2 28.5,50.2 28.5,50.2 28.5,50.2 28.5,50.2 28.5,50.2 28.5,50.2 
			28.5,50.2 28.5,50.2 28.5,50.2 28.5,50.2 28.5,50.2 28.5,50.2 28.5,50.2 28.5,50.1 28.5,50.1 28.5,50.1 28.5,50.1 28.5,50.1 
			28.5,50.1 28.5,50.1 28.5,50.1 28.5,50.1 28.5,50.1 28.5,50.1 28.5,50.1 28.5,50.1 28.5,50.1 28.5,50.1 28.5,50.1 28.5,50.1 
			28.5,50.1 28.5,50.1 28.5,50.1 28.5,50.1 28.6,50.1 28.6,50.1 28.6,50.1 28.6,50.1 28.6,50.1 28.6,50.1 28.6,50.1 28.6,50.1 
			28.6,50.1 28.6,50.1 28.6,50.1 28.6,50.1 28.6,50.1 28.6,50.1 28.6,50.1 28.6,50.1 28.6,50.1 28.6,50.1 28.6,50.1 28.6,50.1 
			28.6,50.1 28.6,50.1 28.6,50.1 28.6,50.1 28.7,50 28.3,49.7 		"/>
		<polygon class="st0" points="27.2,50.9 27.2,50.9 27.2,50.9 27.2,50.9 27.2,50.9 27.2,50.9 27.2,50.9 27.2,50.9 27.2,50.9 
			27.2,50.9 27.2,50.9 27.2,50.9 27.2,50.9 27.2,50.9 27.2,50.9 27.2,50.9 27.2,50.9 27.2,50.9 27.2,50.9 27.2,50.9 27.2,50.9 
			27.2,50.9 27.2,50.9 27.2,50.9 27.2,50.9 27.2,50.9 27.2,50.9 27.2,50.9 27.2,50.9 27.2,50.9 27.2,50.9 27.2,50.9 27.2,50.9 
			27.2,50.9 27.2,50.9 27.2,50.9 27.2,50.9 27.2,50.9 27.2,50.9 27.2,50.9 27.2,50.9 27.2,50.9 27.2,50.9 27.1,50.9 27.1,50.9 
			27.1,50.9 27.1,50.9 27.1,50.9 27.1,50.9 27.1,50.9 27.1,50.9 27.1,50.9 27.1,50.9 27.1,50.9 27.1,50.9 27.1,50.9 27.1,50.9 
			27.1,50.9 27.1,50.9 27.1,50.9 27.1,50.9 27.1,50.9 27.1,51 27.1,51 27.1,51 27.1,51 27.1,51 27.1,51 27.1,51 27.1,51 27.1,51 
			27.1,51 27.1,51 27.1,51 27.1,51 27.1,51 27.1,51 27.1,51 27.1,51 27.1,51 27.1,51 27.1,51 27.1,51 27.1,51 27.1,51 27.1,51 
			27.1,51 27.1,51 27.1,51 27.1,51 27.1,51 27.1,51 27.1,51 27.1,51 27.1,51 27.1,51 27.1,51 27.1,51 27.1,51 27.1,51 27.1,51 
			27.1,51 27.1,51 27.3,51.2 27.3,51.2 27.3,51.2 27.3,51.2 27.3,51.2 27.3,51.2 27.3,51.2 27.3,51.2 27.3,51.2 27.3,51.2 
			27.3,51.2 27.3,51.2 27.3,51.2 27.3,51.2 27.3,51.2 27.3,51.2 27.3,51.2 27.3,51.2 27.3,51.2 27.3,51.2 27.3,51.2 27.3,51.2 
			27.3,51.2 27.3,51.2 27.3,51.2 27.3,51.2 27.3,51.2 27.3,51.2 27.3,51.2 27.3,51.2 27.3,51.2 27.3,51.2 27.3,51.2 27.3,51.2 
			27.3,51.2 27.3,51.2 27.4,51.2 27.4,51.2 27.4,51.2 27.4,51.2 27.4,51.2 27.4,51.2 27.4,51.2 27.4,51.2 27.4,51.2 27.4,51.2 
			27.4,51.2 27.4,51.2 27.4,51.2 27.4,51.2 27.4,51.2 27.4,51.2 27.4,51.2 27.4,51.2 27.4,51.2 27.4,51.2 27.4,51.2 27.4,51.2 
			27.4,51.2 27.4,51.2 27.4,51.2 27.4,51.2 27.4,51.1 27.4,51.1 27.4,51.1 27.4,51.1 27.4,51.1 27.4,51.1 27.4,51.1 27.4,51.1 
			27.4,51.1 27.4,51.1 27.4,51.1 27.4,51.1 27.4,51.1 27.4,51.1 27.4,51.1 27.4,51.1 27.4,51.1 27.4,51.1 27.4,51.1 27.4,51.1 
			27.4,51.1 27.4,51.1 27.4,51.1 27.4,51.1 27.4,51.1 27.4,51.1 27.4,51.1 27.4,51.1 27.4,51.1 27.4,51.1 27.4,51.1 27.4,51.1 
			27.4,51.1 27.4,51.1 27.4,51.1 27.4,51.1 27.4,51.1 27.5,51.1 27.5,51.1 27.5,51.1 27.5,51.1 27.5,51 27.3,50.8 		"/>
		<polygon class="st0" points="26.2,51.9 26.2,51.9 26.2,51.9 26.2,51.9 26.2,51.9 26.2,51.9 26.2,51.9 26.2,51.9 26.2,51.9 
			26.2,51.9 26.2,51.9 26.2,51.9 26.2,51.9 26.2,51.9 26.2,51.9 26.2,51.9 26.2,51.9 26.2,52 26.2,52 26.2,52 26.2,52 26.2,52 
			26.2,52 26.2,52 26.2,52 26.2,52 26.2,52 26.2,52 26.2,52 26.2,52 26.2,52 26.2,52 26.2,52 26.2,52 26.2,52 26.2,52 26.2,52 
			26.2,52 26.2,52 26.2,52 26.2,52 26.2,52 26.2,52 26.2,52 26.2,52 26.2,52 26.2,52 26.2,52 26.2,52 26.2,52 26.2,52 26.2,52 
			26.2,52 26.2,52 26.2,52 26.2,52 26.2,52 26.2,52 26.2,52 26.2,52 26.2,52 26.2,52 26.2,52 26.2,52 26.1,52 26.1,52 26.1,52 
			26.1,52 26.1,52 26.1,52 26.1,52 26.1,52 26.1,52 26.1,52 26.1,52 26.1,52 26.1,52 26.1,52 26.1,52 26.1,52 26.1,52 26.1,52 
			26.1,52 26.1,52 26.1,52 26.1,52 26.1,52 26.1,52 26.1,52 26.1,52 26.1,52 26.1,52 26.1,52 26.1,52 26.1,52 26.1,52 26.1,52 
			26.1,52 26.1,52 26.1,52 26.1,52 26.1,52 26.1,52 26.3,52.2 26.3,52.2 26.3,52.2 26.3,52.2 26.3,52.2 26.3,52.2 26.3,52.2 
			26.3,52.2 26.3,52.2 26.3,52.2 26.3,52.2 26.3,52.2 26.3,52.2 26.3,52.2 26.3,52.2 26.3,52.2 26.3,52.2 26.3,52.2 26.3,52.2 
			26.3,52.2 26.3,52.2 26.3,52.2 26.3,52.2 26.3,52.1 26.3,52.1 26.3,52.1 26.3,52.1 26.3,52.1 26.3,52.1 26.3,52.1 26.3,52.1 
			26.3,52.1 26.3,52.1 26.3,52.1 26.3,52.1 26.3,52.1 26.3,52.1 26.3,52.1 26.3,52.1 26.3,52.1 26.3,52.1 26.3,52.1 26.3,52.1 
			26.3,52.1 26.3,52.1 26.3,52.1 26.3,52.1 26.3,52.1 26.3,52.1 26.3,52.1 26.3,52.1 26.3,52.1 26.3,52.1 26.3,52.1 26.3,52.1 
			26.3,52.1 26.3,52.1 26.3,52.1 26.3,52.1 26.3,52.1 26.3,52.1 26.3,52.1 26.3,52.1 26.3,52.1 26.3,52.1 26.3,52.1 26.3,52.1 
			26.3,52.1 26.3,52.1 26.3,52.1 26.3,52.1 26.3,52.1 26.3,52.1 26.3,52.1 26.3,52.1 26.3,52.1 26.3,52.1 26.3,52.1 26.3,52.1 
			26.3,52.1 26.3,52.1 26.3,52.1 26.3,52.1 26.3,52.1 26.3,52.1 26.3,52.1 26.3,52.1 26.3,52.1 26.3,52.1 26.3,52.1 26.3,52.1 
			26.3,52.1 26.3,52.1 26.3,52.1 26.3,52.1 26.3,52.1 26.3,52.1 26.3,52.1 26.4,52.1 26.4,52.1 26.4,52.1 26.4,52.1 26.4,52.1 
			26.4,52 26.2,51.9 		"/>
		<rect x="27.5" y="41" transform="matrix(0.7071 0.7071 -0.7071 0.7071 38.131 -7.3779)" class="st0" width="0.9" height="2.6"/>
		
			<rect x="29.4" y="42.5" transform="matrix(0.7071 0.7071 -0.7071 0.7071 39.6475 -8.3334)" class="st0" width="0.9" height="2.3"/>
		<rect x="30.8" y="44.5" transform="matrix(0.7071 0.7071 -0.7071 0.7071 41.3335 -8.7989)" class="st0" width="0.9" height="2"/>
		
			<rect x="31.7" y="44.1" transform="matrix(0.7071 0.7071 -0.7071 0.7071 40.8541 -9.8818)" class="st0" width="1.4" height="0.6"/>
		<rect x="30.3" y="42.4" transform="matrix(0.7071 0.7071 -0.7071 0.7071 39.1876 -9.411)" class="st0" width="1.3" height="0.4"/>
	</g>
	<g>
		<g>
			<path id="XMLID_75_" class="st0" d="M104.3,35.8L104.3,35.8c-1.3,0-2.4,1.1-2.4,2.4v0c0,1.3,1.1,2.4,2.4,2.4h0
				c1.3,0,2.4-1.1,2.4-2.4v0C106.7,36.8,105.7,35.8,104.3,35.8z"/>
			<g>
				<path id="XMLID_73_" class="st0" d="M163.6,28.4h-4.6v-2.3c0-0.8-0.3-1.5-0.9-2.1c-0.5-0.5-1.3-0.9-2.1-0.9s-1.5,0.3-2.1,0.9
					c-0.5,0.5-0.9,1.3-0.9,2.1v2.3h-4.6v-2.3c0-2,0.8-3.9,2.2-5.3c1.4-1.4,3.3-2.2,5.3-2.2s3.9,0.8,5.3,2.2c1.4,1.4,2.2,3.3,2.2,5.3
					V28.4z"/>
				<rect id="XMLID_69_" x="158.9" y="23.8" class="st0" width="4.6" height="16.8"/>
				<path id="XMLID_65_" class="st0" d="M174,40.6h-4.6V26.1c0-0.8-0.3-1.5-0.9-2.1c-0.5-0.5-1.3-0.9-2.1-0.9s-1.5,0.3-2.1,0.9
					c-0.5,0.5-0.9,1.3-0.9,2.1v2.3h-4.6v-2.3c0-2,0.8-3.9,2.2-5.3c1.4-1.4,3.3-2.2,5.3-2.2s3.9,0.8,5.3,2.2c1.4,1.4,2.2,3.3,2.2,5.3
					V40.6z"/>
				<rect id="XMLID_54_" x="148.5" y="27.8" class="st0" width="4.6" height="12.7"/>
				<path id="XMLID_2_" class="st0" d="M147.1,29.6c0-6.1-4.9-11-11-11c-6.1,0-11,4.9-11,11c0,6.1,4.9,11,11,11
					C142.2,40.6,147.1,35.7,147.1,29.6z M142.4,29.6c0,3.5-2.8,6.3-6.3,6.3c-3.5,0-6.3-2.8-6.3-6.3c0-3.5,2.8-6.3,6.3-6.3
					C139.6,23.3,142.4,26.1,142.4,29.6z"/>
				<path id="XMLID_8_" class="st0" d="M123.8,33.5c-1.2,1.5-3,2.5-5,2.5c-3.5,0-6.3-2.8-6.3-6.3s2.8-6.3,6.3-6.3c2,0,3.9,1,5,2.5
					c0.5-1.6,1.3-3,2.3-4.3c-1.9-1.7-4.5-2.8-7.3-2.8c-6.1,0-11,4.9-11,11c0,6.1,4.9,11,11,11c2.8,0,5.4-1.1,7.3-2.8
					C125.1,36.5,124.3,35.1,123.8,33.5z"/>
			</g>
			<g>
				<g>
					<polygon id="XMLID_9_" class="st0" points="69.7,13.4 65.2,13.4 60.6,24.3 65.1,24.3 					"/>
					<rect id="XMLID_10_" x="65.7" y="13.4" class="st0" width="12.3" height="4.3"/>
					<path class="st0" d="M68.4,20.5c-3.2,0-6,1.5-7.9,3.8l2.9,2.9c1.1-1.6,2.9-2.7,5-2.7c3.3,0,6.1,2.7,6.1,6.1
						c0,3.3-2.7,6.1-6.1,6.1c-3.1,0-5.7-2.4-6-5.4h-4c0.3,5.2,4.7,9.4,10,9.4c5.6,0,10.1-4.5,10.1-10.1C78.5,25,74,20.5,68.4,20.5z"
						/>
				</g>
				<g>
					<polygon id="XMLID_11_" class="st0" points="91.6,13.4 87,13.4 82.4,24.3 87,24.3 					"/>
					<rect id="XMLID_12_" x="87.5" y="13.4" class="st0" width="12.3" height="4.3"/>
					<path class="st0" d="M90.3,20.5c-3.2,0-6,1.5-7.9,3.8l2.9,2.9c1.1-1.6,2.9-2.7,5-2.7c3.3,0,6.1,2.7,6.1,6.1
						c0,3.3-2.7,6.1-6.1,6.1c-3.1,0-5.7-2.4-6-5.4h-4c0.3,5.2,4.7,9.4,10,9.4c5.6,0,10.1-4.5,10.1-10.1
						C100.4,25,95.9,20.5,90.3,20.5z"/>
				</g>
			</g>
		</g>
	</g>
</g>
</svg>
