<?xml version="1.0" encoding="UTF-8"?>
<svg width="16px" height="16px" viewBox="0 0 16 16" version="1.1" xmlns="http://www.w3.org/2000/svg" xmlns:xlink="http://www.w3.org/1999/xlink">
    <!-- Generator: Sketch 50.2 (55047) - http://www.bohemiancoding.com/sketch -->
    <title>order</title>
    <desc>Created with Sketch.</desc>
    <defs></defs>
    <g id="Page-1" stroke="none" stroke-width="1" fill="none" fill-rule="evenodd">
        <g id="Tablet" transform="translate(-423.000000, -75.000000)" fill="#8D9ACE">
            <g id="order" transform="translate(423.000000, 75.000000)">
                <path d="M4,7.5 C3.72385763,7.5 3.5,7.27614237 3.5,7 C3.5,6.72385763 3.72385763,6.5 4,6.5 L12,6.5 C12.2761424,6.5 12.5,6.72385763 12.5,7 C12.5,7.27614237 12.2761424,7.5 12,7.5 L4,7.5 Z" id="Path-7" fill-rule="nonzero"></path>
                <path d="M4,11.5 C3.72385763,11.5 3.5,11.2761424 3.5,11 C3.5,10.7238576 3.72385763,10.5 4,10.5 L12,10.5 C12.2761424,10.5 12.5,10.7238576 12.5,11 C12.5,11.2761424 12.2761424,11.5 12,11.5 L4,11.5 Z" id="Path-7" fill-rule="nonzero"></path>
                <path d="M11,1.11022302e-15 L11,1 L2,1 C1.40480525,1 1,1.3238442 1,1.6 L1,14.4 C1,14.6761558 1.40480525,15 2,15 L14,15 C14.5951948,15 15,14.6761558 15,14.4 L15,4 L16,4 L16,14.4 C16,15.2836556 15.1045695,16 14,16 L2,16 C0.8954305,16 0,15.2836556 0,14.4 L0,1.6 C0,0.7163444 0.8954305,0 2,0 L11,1.11022302e-15 Z" id="Rectangle-9" fill-rule="nonzero"></path>
                <path d="M11.5,1.04031242 C11.5,2.59954413 11.5,3.13434171 11.5,3.5 C11.9577555,3.5 12.5424238,3.5 14.5746095,3.5 L11.5,1.04031242 Z" id="Rectangle-10" stroke="#8D9ACE"></path>
            </g>
        </g>
    </g>
</svg>