<?xml version="1.0" encoding="UTF-8"?>
<svg width="460px" height="88px" viewBox="0 0 460 88" version="1.1" xmlns="http://www.w3.org/2000/svg" xmlns:xlink="http://www.w3.org/1999/xlink">
    <!-- Generator: Sketch 54.1 (76490) - https://sketchapp.com -->
    <title>logo反白</title>
    <desc>Created with Sketch.</desc>
    <g id="页面1" stroke="none" stroke-width="1" fill="none" fill-rule="evenodd">
        <g id="logo复制" transform="translate(-70.000000, -16.000000)" fill="#FFFFFF">
            <g id="logo反白" transform="translate(70.000000, 16.000000)">
                <path d="M367.0544,48.0078 C368.8284,56.4158 364.4444,65.0668 357.2414,69.4888 C349.8684,74.0138 340.4304,73.1978 333.9064,67.5208 C327.5594,61.9998 325.2544,52.8558 328.2564,44.9878 C331.2234,37.2088 338.8884,31.9338 347.2114,31.9338 C356.6714,31.9338 365.1004,38.7448 367.0544,48.0078 M376.6944,33.4208 C370.2734,23.6238 359.1864,17.5578 347.4704,17.4678 C334.6854,17.3698 322.6114,24.4418 316.3914,35.6048 L316.3734,35.6048 C316.0884,36.1638 315.8124,36.7268 315.5294,37.2858 C313.6744,33.8738 311.7324,30.6218 308.9654,27.8568 L308.9664,27.8548 C300.3354,19.3558 287.5054,15.8068 275.7624,18.8528 C265.8654,21.4198 257.0864,28.3038 252.7334,37.6158 C247.7944,48.1828 248.3184,61.2638 254.6814,71.1558 C260.1954,79.7258 269.4684,86.0048 279.5334,87.4768 C290.1894,89.0348 301.3164,84.8418 308.9664,77.3088 L308.9654,77.3078 C310.0384,76.2348 311.0134,75.0698 311.9404,73.8658 L303.8224,58.7288 C301.0944,63.8738 298.1124,68.4908 292.5854,70.9948 L292.5854,70.9768 C287.0654,73.4808 280.3444,73.2888 274.9594,70.5038 C265.5304,65.6248 261.6534,53.8888 265.9144,44.2278 C270.3304,34.2158 282.6394,29.6748 292.5854,34.1868 L292.5854,34.1698 C297.8354,36.5478 300.8454,40.9328 303.4984,45.8338 C306.4464,51.2778 309.1514,56.8488 312.0684,62.3088 C314.9874,67.7708 317.5794,73.4688 322.0424,77.8768 C326.0004,81.7858 330.9234,84.7148 336.2244,86.3888 L336.2244,86.3928 C341.6424,88.1058 347.4334,88.4138 353.0304,87.4848 C369.9114,84.6798 382.6204,69.5168 382.4664,52.4058 C382.4534,45.7268 380.3474,38.9968 376.6944,33.4208" id="Fill-1"></path>
                <path d="M52.4226,59.8325 C49.7346,68.8755 40.6636,74.7785 31.3206,73.6255 C21.6686,72.4345 14.2206,63.9955 14.2206,54.2705 L0.0006,54.2705 C0.0006,67.6235 8.2706,80.1575 20.5966,85.3445 C33.0956,90.6035 47.9956,87.7075 57.5816,78.1195 L57.5816,78.1185 C58.6156,77.0845 59.5556,75.9605 60.4496,74.7995 L52.4226,59.8325 Z" id="Fill-3"></path>
                <path d="M108.0256,23.6299 C101.3156,20.5469 93.8756,19.8889 86.8836,21.3799 L90.3306,13.2509 L121.5526,13.2509 L121.5526,-0.0001 L95.9476,-0.0001 L83.3596,-0.0001 L81.7586,-0.0001 L67.7596,33.0209 C67.5676,33.2619 67.3666,33.4949 67.1786,33.7399 L75.2046,48.7069 C80.1006,32.2339 103.2326,30.0499 111.1866,45.2229 C119.6056,61.2819 102.4116,79.5399 85.8566,72.0299 L85.8566,72.0469 C79.4036,69.1249 76.6526,63.2889 73.5196,57.4459 C70.8576,52.4829 68.1426,47.5439 65.5316,42.5519 C62.5526,36.8549 59.6576,31.7969 54.5216,27.7419 C48.4826,22.9749 40.8426,20.4219 33.1506,20.5499 C30.9016,20.5879 28.6616,20.8719 26.4666,21.3599 L29.9046,13.2509 L61.1276,13.2509 L61.1276,-0.0001 L35.5226,-0.0001 L22.9356,-0.0001 L21.3346,-0.0001 L7.0536,33.6849 C7.0356,33.7089 7.0156,33.7309 6.9976,33.7549 L15.0306,48.7329 C18.3356,37.5559 31.1436,31.6889 41.7716,36.5099 L41.7716,36.4879 C47.7806,39.2129 50.5206,44.3909 53.4516,49.8569 L60.8156,63.5879 C62.1796,66.1329 63.5446,68.6779 64.9086,71.2219 C68.8196,78.5149 75.8706,83.9459 83.7256,86.4269 L83.7256,86.4309 C105.4426,93.2949 128.1746,76.1829 127.5876,53.3989 C127.2636,40.7369 119.5676,28.9329 108.0256,23.6299" id="Fill-5"></path>
                <polygon id="Fill-7" points="208.7551 30.9995 184.5091 30.9995 184.5091 87.9995 170.3441 87.9995 170.3441 30.9995 146.0991 30.9995 146.0991 18.3035 208.7551 18.3035"></polygon>
                <path d="M249.2659,19.5542 L249.2509,17.9992 L247.6899,18.0532 C247.2609,18.0702 243.4609,18.2192 242.4529,18.3392 C223.7419,20.5422 208.7809,36.0752 208.4439,54.9992 L208.4439,87.9992 L222.4849,87.9992 L222.4849,55.6492 C222.5989,49.2932 225.8489,43.3382 230.5519,38.8802 C235.2369,34.4392 241.3439,32.0222 247.7219,32.1692 L249.2659,32.1972 L249.2659,24.3522 C249.2949,22.6882 249.2659,19.5542 249.2659,19.5542" id="Fill-9"></path>
                <polygon id="Fill-11" points="368.168 52.9995 382.468 52.9995 382.468 6.9995 368.168 6.9995"></polygon>
                <polygon id="Fill-13" points="393.709 58.9995 454.49 58.9995 454.49 44.8495 393.709 44.8495"></polygon>
                <path d="M137.469,73.2046 L137.468,73.2046 C133.382,73.2046 130.07,76.5166 130.07,80.6016 C130.07,84.6876 133.382,87.9996 137.468,87.9996 L137.469,87.9996 C141.555,87.9996 144.867,84.6876 144.867,80.6016 C144.867,76.5166 141.555,73.2046 137.469,73.2046" id="Fill-14"></path>
                <path d="M438.0901,66.9995 C434.3811,70.7065 429.2581,72.9995 423.5991,72.9995 C412.2781,72.9995 403.0991,63.8215 403.0991,52.4995 C403.0991,41.1775 412.2781,31.9995 423.5991,31.9995 C434.9211,31.9995 444.0991,41.1775 444.0991,52.4995 C444.0991,54.7735 443.7141,56.9545 443.0301,58.9995 L458.4951,58.9995 C458.8851,56.8915 459.0991,54.7215 459.0991,52.4995 C459.0991,32.8935 443.2051,16.9995 423.5991,16.9995 C403.9931,16.9995 388.0991,32.8935 388.0991,52.4995 C388.0991,72.1045 403.9931,87.9995 423.5991,87.9995 C438.0381,87.9995 450.4551,79.3745 456.0011,66.9995 L438.0901,66.9995 Z" id="Fill-15"></path>
            </g>
        </g>
    </g>
</svg>