<?xml version="1.0" encoding="UTF-8"?>
<svg width="105px" height="40px" viewBox="0 0 105 40" version="1.1" xmlns="http://www.w3.org/2000/svg" xmlns:xlink="http://www.w3.org/1999/xlink">
    <!-- Generator: Sketch 51 (57462) - http://www.bohemiancoding.com/sketch -->
    <title>logo</title>
    <desc>Created with Sketch.</desc>
    <defs>
        <polygon id="path-1" points="0 39.4961 104.99 39.4961 104.99 0.0001 0 0.0001"></polygon>
    </defs>
    <g id="Page-1" stroke="none" stroke-width="1" fill="none" fill-rule="evenodd">
        <g id="logo">
            <g>
                <path d="M93.8579,14.349 L89.8019,14.349 L89.8019,12.322 C89.8019,11.643 89.5379,11.003 89.0569,10.523 C88.5779,10.043 87.9389,9.779 87.2589,9.779 C86.5809,9.779 85.9419,10.043 85.4619,10.524 C84.9809,11.004 84.7159,11.643 84.7159,12.322 L84.7159,14.349 L80.6609,14.349 L80.6609,12.322 C80.6609,10.56 81.3469,8.903 82.5929,7.656 C83.8389,6.409 85.4969,5.723 87.2589,5.723 C89.0219,5.723 90.6789,6.409 91.9249,7.655 C93.1719,8.903 93.8579,10.559 93.8579,12.322 L93.8579,14.349 Z" id="Fill-1" fill="#FFFFFF"></path>
                <mask id="mask-2" fill="white">
                    <use xlink:href="#path-1"></use>
                </mask>
                <g id="Clip-4"></g>
                <polygon id="Fill-3" fill="#FFFFFF" mask="url(#mask-2)" points="89.802 24.9421 93.858 24.9421 93.858 10.2641 89.802 10.2641"></polygon>
                <path d="M102.9995,24.9711 L98.9435,24.9711 L98.9435,12.3221 C98.9435,11.6431 98.6795,11.0041 98.1985,10.5231 C97.7185,10.0431 97.0805,9.7791 96.4005,9.7791 C95.7225,9.7791 95.0835,10.0431 94.6035,10.5241 C94.1225,11.0041 93.8575,11.6431 93.8575,12.3221 L93.8575,14.3491 L89.8025,14.3491 L89.8025,12.3221 C89.8025,10.5601 90.4875,8.9031 91.7345,7.6561 C92.9805,6.4091 94.6385,5.7231 96.4005,5.7231 C98.1635,5.7231 99.8205,6.4091 101.0665,7.6551 C102.3135,8.9031 102.9995,10.5601 102.9995,12.3221 L102.9995,24.9711 Z" id="Fill-5" fill="#FFFFFF" mask="url(#mask-2)"></path>
                <polygon id="Fill-6" fill="#FFFFFF" mask="url(#mask-2)" points="80.66 24.9711 84.716 24.9711 84.716 13.8381 80.66 13.8381"></polygon>
                <path d="M69.4615,20.7328 C67.1085,20.7328 64.9405,19.2418 64.1025,17.0428 C63.2545,14.8188 63.9055,12.2338 65.6995,10.6718 C67.5445,9.0678 70.2125,8.8368 72.2965,10.1168 C74.3325,11.3668 75.5715,13.8118 75.0705,16.1888 C74.5185,18.8078 72.1355,20.7328 69.4615,20.7328 M79.4285,15.0928 C79.4715,10.2558 75.8785,5.9688 71.1065,5.1768 C69.5235,4.9148 67.8875,5.0018 66.3555,5.4858 L66.3555,5.4868 C64.8575,5.9608 63.4655,6.7878 62.3465,7.8928 C61.0845,9.1388 60.3515,10.7508 59.5255,12.2948 C58.7015,13.8368 57.9375,15.4128 57.1045,16.9518 C56.3545,18.3368 55.5025,19.5768 54.0185,20.2488 L54.0185,20.2438 C51.2065,21.5188 47.7275,20.2358 46.4795,17.4058 C45.2745,14.6738 46.3695,11.3568 49.0355,9.9778 C50.5585,9.1898 52.4585,9.1358 54.0185,9.8428 L54.0185,9.8378 C55.5805,10.5458 56.4245,11.8518 57.1945,13.3058 L59.4895,9.0268 C59.2285,8.6868 58.9525,8.3568 58.6485,8.0538 L58.6495,8.0528 C56.4865,5.9228 53.3415,4.8518 50.3285,5.2928 C47.4825,5.7098 44.8615,7.3708 43.3035,9.7938 C41.5045,12.5888 41.3565,16.2878 42.7525,19.2748 C43.9825,21.9078 46.4645,23.8528 49.2625,24.5788 C52.5825,25.4398 56.2095,24.4368 58.6495,22.0338 L58.6485,22.0338 C59.4315,21.2518 59.9805,20.3328 60.5045,19.3678 C60.5845,19.5258 60.6625,19.6848 60.7435,19.8428 L60.7485,19.8428 C62.5065,22.9998 65.9205,24.9988 69.5345,24.9698 C72.8465,24.9448 75.9815,23.2298 77.7955,20.4608 C78.8285,18.8838 79.4245,16.9818 79.4285,15.0928" id="Fill-7" fill="#FFFFFF" mask="url(#mask-2)"></path>
                <path d="M39.0083,20.7728 L39.0073,20.7728 C37.8483,20.7728 36.9083,21.7118 36.9083,22.8718 C36.9083,24.0308 37.8483,24.9708 39.0073,24.9708 L39.0083,24.9708 C40.1673,24.9708 41.1073,24.0308 41.1073,22.8718 C41.1073,21.7118 40.1673,20.7728 39.0083,20.7728" id="Fill-8" fill="#FFFFFF" mask="url(#mask-2)"></path>
                <polygon id="Fill-9" fill="#FFFFFF" mask="url(#mask-2)" points="27.2261 0.0004 23.2001 0.0004 19.1411 9.5734 23.1671 9.5734"></polygon>
                <polygon id="Fill-10" fill="#FFFFFF" mask="url(#mask-2)" points="23.654 3.7601 34.492 3.7601 34.492 0.0001 23.654 0.0001"></polygon>
                <polygon id="Fill-11" fill="#FFFFFF" mask="url(#mask-2)" points="10.0796 0.0004 6.0546 0.0004 1.9946 9.5734 6.0206 9.5734"></polygon>
                <polygon id="Fill-12" fill="#FFFFFF" mask="url(#mask-2)" points="6.508 3.7601 17.345 3.7601 17.345 0.0001 6.508 0.0001"></polygon>
                <path d="M14.8755,16.9779 C14.1125,19.5439 11.5385,21.2189 8.8875,20.8919 C6.1485,20.5539 4.0355,18.1599 4.0355,15.3999 L-0.0005,15.3999 C-0.0005,19.1889 2.3475,22.7459 5.8445,24.2169 C9.3915,25.7099 13.6195,24.8879 16.3395,22.1669 C16.6325,21.8739 16.8995,21.5549 17.1525,21.2249 L14.8755,16.9779 Z" id="Fill-13" fill="#FFFFFF" mask="url(#mask-2)"></path>
                <path d="M36.2036,15.1527 C36.1126,11.5597 33.9286,8.2107 30.6526,6.7057 C27.0456,5.0477 22.6866,5.8387 19.8766,8.6317 L19.8776,8.6317 C19.5836,8.9247 19.3156,9.2447 19.0616,9.5737 L21.3406,13.8207 C22.7286,9.1467 29.2936,8.5267 31.5506,12.8327 C33.9386,17.3887 29.0596,22.5697 24.3626,20.4387 L24.3626,20.4437 C22.5316,19.6147 21.7516,17.9587 20.8616,16.3007 C20.1066,14.8917 19.3366,13.4907 18.5956,12.0747 C17.7496,10.4587 16.9286,9.0227 15.4716,7.8727 C13.7576,6.5187 11.5896,5.7947 9.4066,5.8317 C6.5396,5.8797 3.7066,7.2657 1.9856,9.5787 L4.2656,13.8287 C5.2026,10.6567 8.8376,8.9927 11.8526,10.3597 L11.8526,10.3537 C13.5576,11.1277 14.3356,12.5957 15.1676,14.1477 C15.8636,15.4467 16.5596,16.7457 17.2576,18.0447 C17.6436,18.7657 18.0316,19.4877 18.4186,20.2107 C19.5276,22.2797 21.5286,23.8207 23.7586,24.5247 L23.7586,24.5257 C29.9206,26.4727 36.3706,21.6177 36.2036,15.1527" id="Fill-14" fill="#FFFFFF" mask="url(#mask-2)"></path>
                <path d="M5.4341,34.7758 C5.4341,33.9248 5.2661,33.3028 4.9271,32.9068 C4.5831,32.5058 4.0371,32.3028 3.2911,32.3028 C2.5511,32.3028 2.0091,32.5058 1.6691,32.9068 C1.3261,33.3078 1.1541,33.9338 1.1541,34.7758 C1.1541,35.6268 1.3261,36.2478 1.6691,36.6448 C2.0091,37.0458 2.5511,37.2488 3.2911,37.2488 C4.0371,37.2488 4.5831,37.0458 4.9271,36.6448 C5.2661,36.2478 5.4341,35.6268 5.4341,34.7758 M3.2911,37.8518 C1.4541,37.8518 0.5331,36.8258 0.5331,34.7758 C0.5331,32.7218 1.4541,31.6948 3.2911,31.6948 C5.1381,31.6948 6.0641,32.7218 6.0641,34.7758 C6.0641,36.8258 5.1381,37.8518 3.2911,37.8518" id="Fill-15" fill="#FFFFFF" mask="url(#mask-2)"></path>
                <path d="M10.9038,37.7728 L10.2728,37.7728 L10.2728,34.8288 C10.2728,34.1188 9.8728,33.7618 9.0698,33.7618 C8.6328,33.7618 8.2018,33.8458 7.7738,34.0178 L7.7738,37.7728 L7.1478,37.7728 L7.1478,33.6378 C7.7878,33.2988 8.4438,33.1308 9.1188,33.1308 C10.3078,33.1308 10.9038,33.6958 10.9038,34.8288 L10.9038,37.7728 Z" id="Fill-16" fill="#FFFFFF" mask="url(#mask-2)"></path>
                <path d="M15.2886,35.2601 C15.2886,34.9961 15.2266,34.7271 15.0996,34.4581 C14.8706,33.9831 14.4776,33.7441 13.9276,33.7441 C13.0596,33.7441 12.6046,34.2511 12.5566,35.2601 L15.2886,35.2601 Z M15.9326,35.5161 L15.9196,35.7051 L15.9106,35.8381 L12.5646,35.8381 C12.5646,35.9171 12.5876,36.0101 12.6356,36.1111 C12.7456,36.8521 13.2396,37.2221 14.1166,37.2221 C14.6816,37.2221 15.1876,37.0981 15.6326,36.8521 L15.6326,37.5171 C15.1876,37.7291 14.6676,37.8341 14.0816,37.8341 C12.6356,37.8341 11.9126,37.0801 11.9126,35.5771 C11.9126,35.0091 12.0226,34.5161 12.2476,34.0971 C12.5966,33.4571 13.1646,33.1401 13.9536,33.1401 C14.7866,33.1401 15.3596,33.5021 15.6776,34.2251 C15.8496,34.6041 15.9326,35.0351 15.9326,35.5161 Z" id="Fill-17" fill="#FFFFFF" mask="url(#mask-2)"></path>
                <path d="M21.4107,37.7728 L20.8207,37.7728 L18.8987,31.7878 L19.5687,31.7878 C19.9337,32.9768 20.4547,34.6298 21.1207,36.7508 C21.7817,34.6298 22.3017,32.9768 22.6807,31.7878 L23.2577,31.7878 L24.8227,36.7508 L26.3647,31.7878 L27.0307,31.7878 L25.1087,37.7728 L24.5317,37.7728 L22.9717,32.8888 L21.4107,37.7728 Z" id="Fill-18" fill="#FFFFFF" mask="url(#mask-2)"></path>
                <path d="M29.5962,33.7269 C28.5862,33.7269 28.0792,34.3129 28.0792,35.4899 C28.0792,36.6629 28.5862,37.2479 29.5962,37.2479 C30.6052,37.2479 31.1122,36.6629 31.1122,35.4899 C31.1122,34.3129 30.6052,33.7269 29.5962,33.7269 M29.5962,37.8429 C28.1722,37.8429 27.4582,37.0589 27.4582,35.4899 C27.4582,33.9159 28.1722,33.1309 29.5962,33.1309 C31.0242,33.1309 31.7382,33.9159 31.7382,35.4899 C31.7382,37.0589 31.0242,37.8429 29.5962,37.8429" id="Fill-19" fill="#FFFFFF" mask="url(#mask-2)"></path>
                <path d="M34.6822,33.7533 C34.1312,33.7663 33.5932,33.8503 33.0642,34.0093 L33.0642,37.7733 L32.4432,37.7733 L32.4432,33.5813 C33.1212,33.2943 33.8672,33.1453 34.6822,33.1403 L34.6822,33.7533 Z" id="Fill-20" fill="#FFFFFF" mask="url(#mask-2)"></path>
                <polygon id="Fill-21" fill="#FFFFFF" mask="url(#mask-2)" points="35.717 37.7731 36.348 37.7731 36.348 31.5281 35.717 31.5281"></polygon>
                <path d="M40.5923,36.9799 C40.7603,36.8339 40.8433,36.6449 40.8433,36.4109 L40.8433,33.9519 C40.4993,33.8059 40.1163,33.7359 39.6893,33.7359 C38.7153,33.7359 38.2263,34.3089 38.2263,35.4499 C38.2263,36.6489 38.6933,37.2489 39.6273,37.2489 C40.0553,37.2489 40.3763,37.1609 40.5923,36.9799 M40.8433,33.3129 L40.8433,31.5279 L41.4653,31.5279 L41.4653,36.3889 C41.4653,36.7149 41.3673,37.0059 41.1693,37.2569 C40.8573,37.6499 40.3413,37.8429 39.6273,37.8429 C38.2743,37.8429 37.5953,37.0449 37.5953,35.4499 C37.5953,33.9119 38.2913,33.1399 39.6893,33.1399 C40.1433,33.1399 40.5263,33.1979 40.8433,33.3129" id="Fill-22" fill="#FFFFFF" mask="url(#mask-2)"></path>
                <polygon id="Fill-23" fill="#FFFFFF" mask="url(#mask-2)" points="43.1792 36.8519 43.8852 36.8519 43.1612 38.6939 42.5322 38.6939"></polygon>
                <path d="M52.2984,34.7758 C52.2984,33.9248 52.1314,33.3028 51.7914,32.9068 C51.4474,32.5058 50.9024,32.3028 50.1564,32.3028 C49.4164,32.3028 48.8744,32.5058 48.5344,32.9068 C48.1914,33.3078 48.0194,33.9338 48.0194,34.7758 C48.0194,35.6268 48.1914,36.2478 48.5344,36.6448 C48.8744,37.0458 49.4164,37.2488 50.1564,37.2488 C50.9024,37.2488 51.4474,37.0458 51.7914,36.6448 C52.1314,36.2478 52.2984,35.6268 52.2984,34.7758 M50.1564,37.8518 C48.3194,37.8518 47.3984,36.8258 47.3984,34.7758 C47.3984,32.7218 48.3194,31.6948 50.1564,31.6948 C52.0034,31.6948 52.9294,32.7218 52.9294,34.7758 C52.9294,36.8258 52.0034,37.8518 50.1564,37.8518" id="Fill-24" fill="#FFFFFF" mask="url(#mask-2)"></path>
                <path d="M57.7681,37.7728 L57.1381,37.7728 L57.1381,34.8288 C57.1381,34.1188 56.7371,33.7618 55.9351,33.7618 C55.4981,33.7618 55.0671,33.8458 54.6391,34.0178 L54.6391,37.7728 L54.0131,37.7728 L54.0131,33.6378 C54.6531,33.2988 55.3091,33.1308 55.9841,33.1308 C57.1731,33.1308 57.7681,33.6958 57.7681,34.8288 L57.7681,37.7728 Z" id="Fill-25" fill="#FFFFFF" mask="url(#mask-2)"></path>
                <path d="M62.1538,35.2601 C62.1538,34.9961 62.0918,34.7271 61.9648,34.4581 C61.7348,33.9831 61.3428,33.7441 60.7918,33.7441 C59.9238,33.7441 59.4698,34.2511 59.4218,35.2601 L62.1538,35.2601 Z M62.7978,35.5161 L62.7838,35.7051 L62.7748,35.8381 L59.4298,35.8381 C59.4298,35.9171 59.4518,36.0101 59.5008,36.1111 C59.6108,36.8521 60.1038,37.2221 60.9818,37.2221 C61.5458,37.2221 62.0518,37.0981 62.4978,36.8521 L62.4978,37.5171 C62.0518,37.7291 61.5328,37.8341 60.9458,37.8341 C59.5008,37.8341 58.7778,37.0801 58.7778,35.5771 C58.7778,35.0091 58.8878,34.5161 59.1128,34.0971 C59.4608,33.4571 60.0298,33.1401 60.8188,33.1401 C61.6518,33.1401 62.2238,33.5021 62.5418,34.2251 C62.7138,34.6041 62.7978,35.0351 62.7978,35.5161 Z" id="Fill-26" fill="#FFFFFF" mask="url(#mask-2)"></path>
                <polygon id="Fill-27" fill="#FFFFFF" mask="url(#mask-2)" points="66.8394 32.3822 66.8394 34.4492 69.6204 34.4492 69.6204 35.0622 66.8394 35.0622 66.8394 37.1692 69.9904 37.1692 69.9904 37.7732 66.2174 37.7732 66.2174 31.7872 69.9904 31.7872 69.9904 32.3822"></polygon>
                <path d="M72.3179,35.4721 L70.6909,33.2151 L71.4409,33.2151 C71.6039,33.4401 71.8289,33.7571 72.1199,34.1631 L72.7059,34.9741 L73.9489,33.2151 L74.7279,33.2151 L73.0849,35.4811 L74.7559,37.7731 L73.9969,37.7731 L72.7059,35.9561 C72.2829,36.5521 71.8499,37.1601 71.4139,37.7731 L70.6469,37.7731 L72.3179,35.4721 Z" id="Fill-28" fill="#FFFFFF" mask="url(#mask-2)"></path>
                <path d="M78.7525,36.9486 L78.7525,37.5836 C78.2895,37.7556 77.8355,37.8436 77.3905,37.8436 C75.9675,37.8436 75.2535,37.0586 75.2535,35.4896 C75.2535,33.9166 75.9675,33.1316 77.3905,33.1316 C77.8145,33.1316 78.2685,33.2196 78.7525,33.3916 L78.7525,34.0176 C78.2595,33.8376 77.8175,33.7446 77.4355,33.7446 C76.3945,33.7446 75.8745,34.3266 75.8745,35.4896 C75.8745,36.6486 76.3945,37.2306 77.4355,37.2306 C77.8445,37.2306 78.2855,37.1376 78.7525,36.9486" id="Fill-29" fill="#FFFFFF" mask="url(#mask-2)"></path>
                <path d="M83.4556,37.7728 L82.8336,37.7728 L82.8336,35.0008 C82.8336,34.1758 82.4416,33.7618 81.6616,33.7618 C81.2076,33.7618 80.7536,33.8638 80.2956,34.0708 L80.2956,37.7728 L79.6646,37.7728 L79.6646,31.5278 L80.2956,31.5278 L80.2956,33.4398 C80.7676,33.2328 81.2386,33.1308 81.7146,33.1308 C82.8736,33.1308 83.4556,33.7528 83.4556,35.0008 L83.4556,37.7728 Z" id="Fill-30" fill="#FFFFFF" mask="url(#mask-2)"></path>
                <path d="M87.6509,35.5424 C87.3559,35.4944 87.0159,35.4724 86.6329,35.4724 C85.6289,35.4724 85.1259,35.7754 85.1259,36.3804 C85.1259,36.9574 85.5579,37.2484 86.4179,37.2484 C87.2419,37.2484 87.6509,36.9664 87.6509,36.3974 L87.6509,35.5424 Z M88.2769,36.3974 C88.2769,36.9524 88.0349,37.3544 87.5459,37.6014 C87.2329,37.7554 86.8529,37.8344 86.4179,37.8344 C85.9719,37.8344 85.5799,37.7554 85.2499,37.5924 C84.7519,37.3414 84.4999,36.9354 84.4999,36.3804 C84.4999,35.7584 84.8169,35.3264 85.4479,35.0794 C85.7959,34.9424 86.2109,34.8724 86.6859,34.8724 C87.0699,34.8724 87.3909,34.8984 87.6419,34.9474 C87.6419,34.1584 87.1929,33.7624 86.2899,33.7624 C85.9059,33.7624 85.4609,33.8374 84.9539,33.9914 L84.9539,33.3744 C85.4169,33.2204 85.8709,33.1404 86.3159,33.1404 C87.6249,33.1404 88.2769,33.7794 88.2769,35.0624 L88.2769,36.3974 Z" id="Fill-31" fill="#FFFFFF" mask="url(#mask-2)"></path>
                <path d="M93.1031,37.7728 L92.4731,37.7728 L92.4731,34.8288 C92.4731,34.1188 92.0721,33.7618 91.2701,33.7618 C90.8331,33.7618 90.4021,33.8458 89.9741,34.0178 L89.9741,37.7728 L89.3481,37.7728 L89.3481,33.6378 C89.9871,33.2988 90.6441,33.1308 91.3181,33.1308 C92.5081,33.1308 93.1031,33.6958 93.1031,34.8288 L93.1031,37.7728 Z" id="Fill-32" fill="#FFFFFF" mask="url(#mask-2)"></path>
                <path d="M97.3345,34.5336 C97.3345,34.3176 97.2555,34.1366 97.0925,33.9916 C96.8855,33.8146 96.5715,33.7266 96.1525,33.7266 C95.2495,33.7266 94.8005,34.3046 94.8005,35.4586 C94.8005,36.5556 95.2675,37.1026 96.2065,37.1026 C96.6115,37.1026 96.9865,37.0236 97.3345,36.8696 L97.3345,34.5336 Z M97.9605,34.5516 L97.9605,37.9186 C97.9605,38.9716 97.2995,39.4966 95.9725,39.4966 C95.5365,39.4966 95.1005,39.4426 94.6725,39.3336 L94.6725,38.7206 C95.1265,38.8356 95.5405,38.8916 95.9195,38.8916 C96.8625,38.8916 97.3345,38.5746 97.3345,37.9356 L97.3345,37.5086 C97.0045,37.6366 96.6295,37.6976 96.2065,37.6976 C94.8445,37.6976 94.1655,36.9526 94.1655,35.4586 C94.1655,34.5686 94.4035,33.9296 94.8795,33.5376 C95.2105,33.2676 95.6375,33.1316 96.1525,33.1316 C96.8625,33.1316 97.3695,33.3256 97.6695,33.7186 C97.8635,33.9606 97.9605,34.2376 97.9605,34.5516 Z" id="Fill-33" fill="#FFFFFF" mask="url(#mask-2)"></path>
                <path d="M102.2007,35.2601 C102.2007,34.9961 102.1387,34.7271 102.0117,34.4581 C101.7817,33.9831 101.3887,33.7441 100.8387,33.7441 C99.9707,33.7441 99.5157,34.2511 99.4677,35.2601 L102.2007,35.2601 Z M102.8447,35.5161 L102.8307,35.7051 L102.8217,35.8381 L99.4767,35.8381 C99.4767,35.9171 99.4987,36.0101 99.5477,36.1111 C99.6577,36.8521 100.1507,37.2221 101.0277,37.2221 C101.5927,37.2221 102.0987,37.0981 102.5447,36.8521 L102.5447,37.5171 C102.0987,37.7291 101.5787,37.8341 100.9927,37.8341 C99.5477,37.8341 98.8247,37.0801 98.8247,35.5771 C98.8247,35.0091 98.9337,34.5161 99.1597,34.0971 C99.5077,33.4571 100.0757,33.1401 100.8647,33.1401 C101.6977,33.1401 102.2707,33.5021 102.5887,34.2251 C102.7607,34.6041 102.8447,35.0351 102.8447,35.5161 Z" id="Fill-34" fill="#FFFFFF" mask="url(#mask-2)"></path>
                <path d="M104.3423,31.7875 L104.9643,31.7875 L104.9193,36.2825 L104.3773,36.2825 L104.3423,31.7875 Z M104.3163,37.7735 L104.9913,37.7735 L104.9913,36.8785 L104.3163,36.8785 L104.3163,37.7735 Z" id="Fill-35" fill="#FFFFFF" mask="url(#mask-2)"></path>
            </g>
        </g>
    </g>
</svg>