<svg id="图层_1" data-name="图层 1" xmlns="http://www.w3.org/2000/svg" viewBox="0 0 100.25 29"><defs><style>.cls-1{fill:#fff;}</style></defs><title>logo_footer</title><path class="cls-1" d="M24.68,7.68l-3.2-3.2-3.21,3.2L11.36,14.6l-1.28,1.28-.79.79L6.41,13.79l9.93-9.92.66.66V0H12.47l.66.66L2.59,11.2,0,13.79,3.21,17l2.87,2.88h0l3.21,3.2,2-2,3.28-3.28h0l6.08-6.08-.83-.83h4.53v2.86h0v1.66l-.82-.83L16.16,22h0L16.1,22h-.22l-.11.12h-.06l.41.4h.05l.12-.11h.22l.06-.06.52.53-.05.05h-.21l-.06.05H16.7l.41.41h.07l.06-.06h.21l.05,0h0l.53.53,0,0h-.15l-.18.17h-.12l.41.4h0l.18-.17h.15l.53.53h-.09l-.12.12h-.07l.41.4H19l.11-.11h.21l0,0h0l11.39-11.4-3.2-3.2ZM18.92,24.79h0l.05-.05h0Z"/><polygon class="cls-1" points="16.32 25.27 16.33 25.27 16.33 25.27 16.33 25.27 16.33 25.26 16.34 25.26 16.34 25.26 16.34 25.26 16.34 25.25 16.34 25.25 16.34 25.25 16.35 25.25 16.35 25.25 16.35 25.25 16.35 25.24 16.36 25.24 16.36 25.24 16.36 25.24 16.36 25.23 16.36 25.23 16.36 25.23 16.37 25.23 16.37 25.23 16.37 25.23 16.37 25.22 16.38 25.22 16.38 25.22 16.38 25.22 16.38 25.21 16.38 25.21 16.39 25.21 16.39 25.21 16.39 25.21 16.39 25.2 16.39 25.2 16.4 25.2 16.4 25.2 16.4 25.2 16.4 25.2 16.4 25.19 16.46 25.14 16.16 24.84 16.1 24.9 16.1 24.9 16.1 24.9 16.1 24.9 16.09 24.91 16.09 24.91 16.09 24.91 16.09 24.91 16.09 24.91 16.09 24.92 16.08 24.92 16.08 24.92 16.08 24.92 16.08 24.92 16.07 24.93 16.07 24.93 16.07 24.93 16.07 24.93 16.07 24.93 16.07 24.94 16.06 24.94 16.06 24.94 16.06 24.94 16.06 24.94 16.05 24.95 16.05 24.95 16.05 24.95 16.05 24.95 16.05 24.95 16.04 24.96 16.04 24.96 16.04 24.96 16.04 24.96 16.04 24.96 16.03 24.97 16.03 24.97 16.03 24.97 16.03 24.97 16.03 24.97 16.02 24.98 16.04 24.96 16.04 24.96 16.04 24.96 16.03 24.97 16.03 24.97 16.03 24.97 16.03 24.97 16.02 24.98 16.02 24.98 16.02 24.98 16.02 24.98 16.02 24.98 16.01 24.98 16.01 24.99 16.01 24.99 16.01 24.99 16.01 24.99 16 25 16 25 16 25 16 25 16 25 15.99 25 15.99 25.01 15.99 25.01 15.99 25.01 15.99 25.01 15.98 25.02 15.98 25.02 15.98 25.02 15.98 25.02 15.98 25.02 15.97 25.02 15.97 25.03 15.97 25.03 15.97 25.03 15.97 25.03 15.96 25.04 15.96 25.04 15.96 25.04 15.96 25.04 15.96 25.04 15.95 25.05 15.95 25.05 15.95 25.05 15.95 25.05 15.95 25.05 15.94 25.05 15.94 25.06 15.94 25.06 15.94 25.06 15.94 25.06 15.93 25.07 15.93 25.07 15.93 25.07 15.93 25.07 15.93 25.07 15.92 25.07 15.92 25.08 15.92 25.08 15.92 25.08 15.91 25.08 15.91 25.09 16.21 25.38 16.22 25.38 16.22 25.38 16.22 25.37 16.22 25.37 16.22 25.37 16.23 25.37 16.23 25.37 16.23 25.36 16.23 25.36 16.23 25.36 16.24 25.36 16.24 25.36 16.24 25.35 16.24 25.35 16.24 25.35 16.25 25.35 16.25 25.35 16.25 25.34 16.25 25.34 16.25 25.34 16.26 25.34 16.26 25.34 16.26 25.33 16.26 25.33 16.26 25.33 16.27 25.33 16.27 25.33 16.27 25.32 16.27 25.32 16.27 25.32 16.28 25.32 16.28 25.32 16.28 25.31 16.28 25.31 16.29 25.31 16.29 25.31 16.29 25.31 16.29 25.3 16.29 25.3 16.3 25.3 16.3 25.3 16.3 25.3 16.3 25.29 16.3 25.29 16.3 25.29 16.31 25.29 16.31 25.29 16.31 25.28 16.31 25.28 16.32 25.28 16.32 25.28 16.32 25.28 16.32 25.27 16.32 25.27 16.32 25.27 16.33 25.27 16.33 25.27 16.33 25.26 16.33 25.26 16.34 25.26 16.34 25.26 16.32 25.27 16.32 25.27"/><polygon class="cls-1" points="15.59 25.94 15.6 25.93 15.6 25.93 15.6 25.93 15.6 25.93 15.6 25.93 15.6 25.93 15.61 25.92 15.61 25.92 15.61 25.92 15.61 25.92 15.61 25.92 15.61 25.92 15.62 25.91 15.62 25.91 15.62 25.91 15.62 25.91 15.62 25.91 15.62 25.91 15.63 25.91 15.63 25.9 15.63 25.9 15.63 25.9 15.63 25.9 15.63 25.9 15.63 25.89 15.64 25.89 15.64 25.89 15.64 25.89 15.64 25.89 15.64 25.89 15.64 25.89 15.65 25.88 15.65 25.88 15.65 25.88 15.65 25.88 15.65 25.88 15.65 25.88 15.66 25.87 15.66 25.87 15.66 25.87 15.66 25.87 15.66 25.87 15.66 25.87 15.67 25.86 15.67 25.86 15.67 25.86 15.67 25.86 15.67 25.86 15.68 25.86 15.68 25.85 15.68 25.85 15.68 25.85 15.68 25.85 15.68 25.85 15.69 25.85 15.69 25.84 15.69 25.84 15.69 25.84 15.69 25.84 15.69 25.84 15.7 25.84 15.7 25.84 15.7 25.83 15.7 25.83 15.7 25.83 15.7 25.83 15.71 25.83 15.71 25.82 15.71 25.82 15.71 25.82 15.71 25.82 15.71 25.82 15.71 25.82 15.72 25.82 15.72 25.81 15.72 25.81 15.72 25.81 15.72 25.81 15.72 25.81 15.73 25.8 15.73 25.8 15.73 25.8 15.73 25.8 15.73 25.8 15.78 25.75 15.53 25.51 15.49 25.56 15.48 25.56 15.48 25.56 15.48 25.56 15.48 25.56 15.48 25.57 15.48 25.57 15.47 25.57 15.47 25.57 15.47 25.57 15.47 25.57 15.47 25.57 15.47 25.58 15.46 25.58 15.46 25.58 15.46 25.58 15.46 25.58 15.46 25.58 15.46 25.59 15.46 25.59 15.45 25.59 15.45 25.59 15.45 25.59 15.45 25.59 15.45 25.6 15.45 25.6 15.44 25.6 15.44 25.6 15.44 25.6 15.44 25.6 15.44 25.61 15.44 25.61 15.43 25.61 15.43 25.61 15.43 25.61 15.43 25.61 15.43 25.62 15.43 25.62 15.42 25.62 15.42 25.62 15.42 25.62 15.42 25.62 15.42 25.63 15.41 25.63 15.41 25.63 15.41 25.63 15.41 25.63 15.41 25.63 15.41 25.64 15.4 25.64 15.4 25.64 15.4 25.64 15.4 25.64 15.4 25.64 15.4 25.64 15.39 25.65 15.39 25.65 15.39 25.65 15.39 25.65 15.39 25.65 15.39 25.66 15.38 25.66 15.38 25.66 15.38 25.66 15.38 25.66 15.38 25.66 15.38 25.66 15.38 25.67 15.37 25.67 15.37 25.67 15.37 25.67 15.37 25.67 15.37 25.67 15.37 25.68 15.36 25.68 15.36 25.68 15.36 25.68 15.36 25.68 15.36 25.68 15.36 25.69 15.35 25.69 15.35 25.69 15.35 25.69 15.35 25.69 15.35 25.69 15.35 25.7 15.34 25.7 15.34 25.7 15.34 25.7 15.34 25.7 15.34 25.7 15.34 25.71 15.33 25.71 15.33 25.71 15.33 25.71 15.33 25.71 15.33 25.71 15.32 25.71 15.32 25.72 15.32 25.72 15.32 25.72 15.32 25.72 15.32 25.72 15.56 25.96 15.56 25.96 15.57 25.96 15.57 25.96 15.57 25.96 15.57 25.96 15.57 25.96 15.57 25.95 15.58 25.95 15.58 25.95 15.58 25.95 15.58 25.95 15.58 25.95 15.59 25.94 15.59 25.94 15.59 25.94 15.59 25.94 15.59 25.94 15.59 25.94"/><polygon class="cls-1" points="15.05 26.42 15.05 26.41 15.05 26.41 15.05 26.41 15.05 26.41 15.06 26.41 15.06 26.41 15.06 26.41 15.06 26.41 15.06 26.4 15.06 26.4 15.06 26.4 15.07 26.4 15.07 26.4 15.07 26.4 15.07 26.4 15.07 26.39 15.07 26.39 15.11 26.36 14.91 26.17 14.88 26.21 14.88 26.21 14.88 26.21 14.88 26.21 14.88 26.21 14.87 26.21 14.87 26.21 14.87 26.21 14.87 26.22 14.87 26.22 14.87 26.22 14.87 26.22 14.87 26.22 14.86 26.22 14.86 26.22 14.86 26.23 14.86 26.23 14.86 26.23 14.86 26.23 14.86 26.23 14.86 26.23 14.85 26.23 14.85 26.23 14.85 26.23 14.85 26.24 14.85 26.24 14.85 26.24 14.85 26.24 14.84 26.24 14.84 26.24 14.84 26.24 14.84 26.25 14.84 26.25 14.84 26.25 14.84 26.25 14.84 26.25 14.83 26.25 14.83 26.25 14.83 26.25 14.83 26.25 14.83 26.26 14.83 26.26 14.83 26.26 14.82 26.26 14.82 26.26 14.82 26.26 14.82 26.26 14.82 26.27 14.82 26.27 14.82 26.27 14.82 26.27 14.81 26.27 14.81 26.27 14.81 26.27 14.81 26.27 14.81 26.28 14.81 26.28 14.81 26.28 14.8 26.28 14.8 26.28 14.8 26.28 14.8 26.28 14.8 26.29 14.8 26.29 14.8 26.29 14.8 26.29 14.79 26.29 14.79 26.29 14.79 26.29 14.79 26.29 14.79 26.3 14.79 26.3 14.79 26.3 14.79 26.3 14.79 26.3 14.78 26.3 14.78 26.3 14.78 26.3 14.78 26.3 14.78 26.31 14.78 26.31 14.78 26.31 14.77 26.31 14.77 26.31 14.77 26.31 14.77 26.31 14.77 26.32 14.77 26.32 14.77 26.32 14.77 26.32 14.76 26.32 14.76 26.32 14.76 26.32 14.76 26.32 14.76 26.32 14.76 26.33 14.76 26.33 14.76 26.33 14.75 26.33 14.75 26.33 14.75 26.33 14.75 26.33 14.75 26.34 14.94 26.52 14.94 26.52 14.94 26.52 14.94 26.52 14.95 26.52 14.95 26.52 14.95 26.52 14.95 26.52 14.95 26.51 14.95 26.51 14.95 26.51 14.95 26.51 14.96 26.51 14.96 26.51 14.96 26.51 14.96 26.5 14.96 26.5 14.96 26.5 14.96 26.5 14.96 26.5 14.97 26.5 14.97 26.5 14.97 26.5 14.97 26.49 14.97 26.49 14.97 26.49 14.97 26.49 14.97 26.49 14.98 26.49 14.98 26.49 14.98 26.49 14.98 26.48 14.98 26.48 14.98 26.48 14.98 26.48 14.98 26.48 14.99 26.48 14.99 26.48 14.99 26.48 14.99 26.47 14.99 26.47 14.99 26.47 14.99 26.47 15 26.47 15 26.47 15 26.47 15 26.46 15 26.46 15 26.46 15 26.46 15.01 26.46 15.01 26.46 15.01 26.46 15.01 26.46 15.01 26.45 15.01 26.45 15.01 26.45 15.01 26.45 15.02 26.45 15.02 26.45 15.02 26.45 15.02 26.45 15.02 26.45 15.02 26.44 15.02 26.44 15.02 26.44 15.03 26.44 15.03 26.44 15.03 26.44 15.03 26.44 15.03 26.43 15.03 26.43 15.03 26.43 15.04 26.43 15.04 26.43 15.04 26.43 15.04 26.43 15.04 26.43 15.04 26.42 15.04 26.42 15.04 26.42 15.04 26.42 15.05 26.42 15.05 26.42 15.05 26.42 15.05 26.42"/><polygon class="cls-1" points="14.28 26.86 14.27 26.86 14.27 26.86 14.27 26.86 14.27 26.86 14.27 26.86 14.27 26.86 14.27 26.86 14.27 26.86 14.27 26.86 14.27 26.86 14.26 26.86 14.26 26.87 14.26 26.87 14.26 26.87 14.26 26.87 14.26 26.87 14.26 26.87 14.26 26.87 14.26 26.87 14.26 26.87 14.26 26.87 14.25 26.88 14.25 26.88 14.25 26.88 14.25 26.88 14.25 26.88 14.25 26.88 14.25 26.88 14.25 26.88 14.25 26.88 14.25 26.88 14.24 26.88 14.24 26.89 14.24 26.89 14.24 26.89 14.24 26.89 14.24 26.89 14.24 26.89 14.24 26.89 14.24 26.89 14.24 26.89 14.24 26.89 14.23 26.89 14.23 26.89 14.23 26.9 14.23 26.9 14.23 26.9 14.23 26.9 14.23 26.9 14.23 26.9 14.23 26.9 14.23 26.9 14.22 26.9 14.22 26.9 14.22 26.91 14.22 26.91 14.22 26.91 14.22 26.91 14.22 26.91 14.22 26.91 14.22 26.91 14.22 26.91 14.22 26.91 14.21 26.91 14.21 26.91 14.21 26.91 14.21 26.92 14.21 26.92 14.21 26.92 14.21 26.92 14.21 26.92 14.21 26.92 14.21 26.92 14.21 26.92 14.21 26.92 14.2 26.92 14.2 26.93 14.2 26.93 14.2 26.93 14.2 26.93 14.2 26.93 14.2 26.93 14.2 26.93 14.2 26.93 14.2 26.93 14.2 26.93 14.19 26.93 14.19 26.93 14.19 26.94 14.19 26.94 14.19 26.94 14.19 26.94 14.19 26.94 14.19 26.94 14.19 26.94 14.19 26.94 14.19 26.94 14.18 26.94 14.18 26.95 14.18 26.95 14.18 26.95 14.18 26.95 14.32 27.08 14.32 27.08 14.32 27.08 14.32 27.08 14.32 27.08 14.32 27.08 14.32 27.08 14.32 27.08 14.32 27.07 14.32 27.07 14.33 27.07 14.33 27.07 14.33 27.07 14.33 27.07 14.33 27.07 14.33 27.07 14.33 27.07 14.33 27.07 14.33 27.07 14.34 27.07 14.34 27.06 14.34 27.06 14.34 27.06 14.34 27.06 14.34 27.06 14.34 27.06 14.34 27.06 14.34 27.06 14.34 27.06 14.34 27.06 14.35 27.05 14.35 27.05 14.35 27.05 14.35 27.05 14.35 27.05 14.35 27.05 14.35 27.05 14.35 27.05 14.35 27.05 14.35 27.05 14.35 27.05 14.36 27.05 14.36 27.04 14.36 27.04 14.36 27.04 14.36 27.04 14.36 27.04 14.36 27.04 14.36 27.04 14.36 27.04 14.36 27.04 14.36 27.04 14.37 27.04 14.37 27.03 14.37 27.03 14.37 27.03 14.37 27.03 14.37 27.03 14.37 27.03 14.37 27.03 14.37 27.03 14.37 27.03 14.37 27.03 14.38 27.02 14.38 27.02 14.38 27.02 14.38 27.02 14.38 27.02 14.38 27.02 14.38 27.02 14.38 27.02 14.38 27.02 14.38 27.02 14.38 27.02 14.38 27.02 14.39 27.01 14.39 27.01 14.39 27.01 14.39 27.01 14.39 27.01 14.39 27.01 14.39 27.01 14.39 27.01 14.39 27.01 14.39 27.01 14.4 27 14.4 27 14.4 27 14.4 27 14.4 27 14.4 27 14.4 27 14.4 27 14.4 27 14.4 27 14.4 27 14.41 27 14.41 26.99 14.41 26.99 14.41 26.99 14.41 26.99 14.41 26.99 14.41 26.99 14.44 26.96 14.3 26.83 14.28 26.86"/><polygon class="cls-1" points="13.71 27.47 13.71 27.47 13.71 27.47 13.71 27.47 13.71 27.47 13.7 27.47 13.7 27.47 13.7 27.47 13.7 27.47 13.7 27.47 13.7 27.47 13.7 27.47 13.7 27.47 13.7 27.47 13.7 27.47 13.7 27.47 13.7 27.47 13.7 27.48 13.7 27.48 13.7 27.48 13.7 27.48 13.7 27.48 13.7 27.48 13.69 27.48 13.69 27.48 13.69 27.48 13.69 27.48 13.69 27.48 13.69 27.48 13.69 27.48 13.69 27.48 13.69 27.48 13.69 27.48 13.69 27.48 13.69 27.48 13.69 27.48 13.69 27.48 13.69 27.49 13.69 27.49 13.69 27.49 13.69 27.49 13.68 27.49 13.68 27.49 13.68 27.49 13.68 27.49 13.68 27.49 13.68 27.49 13.68 27.49 13.68 27.49 13.68 27.49 13.68 27.49 13.68 27.49 13.68 27.49 13.68 27.5 13.68 27.5 13.68 27.5 13.68 27.5 13.68 27.5 13.68 27.5 13.67 27.5 13.67 27.5 13.67 27.5 13.67 27.5 13.67 27.5 13.67 27.5 13.67 27.5 13.67 27.5 13.67 27.5 13.67 27.5 13.67 27.5 13.67 27.5 13.67 27.5 13.67 27.5 13.67 27.5 13.67 27.51 13.66 27.51 13.66 27.51 13.66 27.51 13.66 27.51 13.66 27.51 13.66 27.51 13.66 27.51 13.66 27.51 13.66 27.51 13.66 27.51 13.66 27.51 13.66 27.51 13.66 27.51 13.66 27.51 13.66 27.51 13.66 27.52 13.66 27.52 13.66 27.52 13.65 27.52 13.65 27.52 13.65 27.52 13.65 27.52 13.65 27.52 13.65 27.52 13.65 27.52 13.65 27.52 13.65 27.52 13.65 27.52 13.73 27.6 13.73 27.6 13.73 27.6 13.73 27.6 13.73 27.6 13.73 27.6 13.74 27.6 13.74 27.6 13.74 27.6 13.74 27.6 13.74 27.6 13.74 27.6 13.74 27.59 13.74 27.59 13.74 27.59 13.74 27.59 13.74 27.59 13.74 27.59 13.74 27.59 13.74 27.59 13.74 27.59 13.74 27.59 13.74 27.59 13.74 27.59 13.75 27.59 13.75 27.59 13.75 27.59 13.75 27.59 13.75 27.59 13.75 27.59 13.75 27.59 13.75 27.59 13.75 27.58 13.75 27.58 13.75 27.58 13.75 27.58 13.75 27.58 13.75 27.58 13.75 27.58 13.75 27.58 13.75 27.58 13.76 27.58 13.76 27.58 13.76 27.58 13.76 27.58 13.76 27.58 13.76 27.58 13.76 27.58 13.76 27.58 13.76 27.57 13.76 27.57 13.76 27.57 13.76 27.57 13.76 27.57 13.76 27.57 13.76 27.57 13.76 27.57 13.76 27.57 13.76 27.57 13.77 27.57 13.77 27.57 13.77 27.57 13.77 27.57 13.77 27.57 13.77 27.57 13.77 27.57 13.77 27.57 13.77 27.57 13.77 27.57 13.77 27.56 13.77 27.56 13.77 27.56 13.77 27.56 13.77 27.56 13.77 27.56 13.77 27.56 13.77 27.56 13.78 27.56 13.78 27.56 13.78 27.56 13.78 27.56 13.78 27.56 13.78 27.56 13.78 27.56 13.78 27.56 13.78 27.56 13.78 27.55 13.78 27.55 13.78 27.55 13.78 27.55 13.78 27.55 13.78 27.55 13.78 27.55 13.78 27.55 13.78 27.55 13.79 27.55 13.79 27.55 13.79 27.55 13.79 27.55 13.79 27.55 13.79 27.55 13.79 27.55 13.79 27.55 13.8 27.53 13.72 27.45 13.71 27.47"/><polygon class="cls-1" points="16.45 23.57 16.45 23.57 16.45 23.58 16.45 23.58 16.44 23.58 16.44 23.58 16.44 23.59 16.44 23.59 16.43 23.59 16.43 23.59 16.43 23.6 16.43 23.6 16.42 23.6 16.42 23.6 16.42 23.61 16.42 23.61 16.41 23.61 16.41 23.61 16.41 23.61 16.41 23.62 16.41 23.62 16.4 23.62 16.4 23.62 16.4 23.63 16.4 23.63 16.39 23.63 16.39 23.63 16.39 23.64 16.39 23.64 16.38 23.64 16.38 23.64 16.38 23.64 16.38 23.65 16.37 23.65 16.37 23.65 16.37 23.66 16.37 23.66 16.36 23.66 16.14 23.89 16.13 23.89 16.13 23.89 16.13 23.89 16.13 23.9 16.12 23.9 16.12 23.9 16.12 23.9 16.12 23.91 16.11 23.91 16.11 23.91 16.11 23.91 16.11 23.92 16.11 23.92 16.1 23.92 16.1 23.92 16.1 23.93 16.09 23.93 16.09 23.93 16.09 23.93 16.09 23.93 16.09 23.94 16.08 23.94 16.08 23.94 16.08 23.95 16.08 23.95 16.07 23.95 16.07 23.95 16.07 23.95 16.07 23.96 16.06 23.96 16.06 23.96 16.06 23.96 16.06 23.97 16.05 23.97 16.05 23.97 16.05 23.97 16.05 23.98 16.05 23.98 16.04 23.98 16.04 23.98 16.04 23.98 16.04 23.99 16.03 23.99 16.03 23.99 16.03 23.99 16.02 24 16.02 24 16.02 24 16.02 24 16.02 24.01 16.01 24.01 16.01 24.01 16.01 24.01 16.01 24.02 16 24.02 16 24.02 16 24.02 16 24.02 15.99 24.03 15.99 24.03 15.99 24.03 15.99 24.03 15.98 24.04 15.98 24.04 16.34 24.39 16.34 24.39 16.34 24.38 16.34 24.38 16.35 24.38 16.35 24.38 16.35 24.37 16.36 24.37 16.36 24.37 16.36 24.37 16.36 24.36 16.36 24.36 16.37 24.36 16.37 24.36 16.37 24.36 16.37 24.35 16.38 24.35 16.38 24.35 16.38 24.35 16.38 24.34 16.39 24.34 16.39 24.34 16.39 24.34 16.39 24.33 16.39 24.33 16.4 24.33 16.4 24.33 16.4 24.32 16.41 24.32 16.41 24.32 16.41 24.32 16.41 24.32 16.41 24.31 16.42 24.31 16.42 24.31 16.42 24.31 16.42 24.3 16.43 24.3 16.43 24.3 16.43 24.3 16.43 24.29 16.44 24.29 16.44 24.29 16.44 24.29 16.44 24.28 16.45 24.28 16.45 24.28 16.45 24.28 16.45 24.27 16.46 24.27 16.46 24.27 16.46 24.27 16.46 24.27 16.46 24.26 16.47 24.26 16.47 24.26 16.47 24.26 16.48 24.25 16.48 24.25 16.48 24.25 16.48 24.25 16.48 24.24 16.49 24.24 16.49 24.24 16.72 24.01 16.72 24.01 16.72 24.01 16.73 24 16.73 24 16.73 24 16.73 24 16.73 24 16.74 23.99 16.74 23.99 16.74 23.99 16.74 23.98 16.75 23.98 16.75 23.98 16.75 23.98 16.75 23.98 16.76 23.97 16.76 23.97 16.76 23.97 16.76 23.97 16.77 23.96 16.77 23.96 16.77 23.96 16.77 23.96 16.77 23.95 16.78 23.95 16.78 23.95 16.78 23.95 16.79 23.95 16.79 23.94 16.79 23.94 16.79 23.94 16.8 23.94 16.8 23.93 16.8 23.93 16.8 23.93 16.8 23.93 16.81 23.92 16.81 23.92 16.87 23.86 16.52 23.51 16.45 23.57"/><polygon class="cls-1" points="15.86 24.8 15.86 24.8 15.87 24.8 15.87 24.8 15.87 24.8 15.87 24.79 15.87 24.79 15.88 24.79 15.88 24.79 15.88 24.79 15.88 24.78 15.88 24.78 15.88 24.78 15.89 24.78 15.89 24.77 15.89 24.77 15.89 24.77 15.89 24.77 15.9 24.77 15.9 24.77 15.9 24.76 15.9 24.76 15.9 24.76 15.91 24.76 15.91 24.75 15.91 24.75 15.91 24.75 15.92 24.75 15.92 24.75 15.92 24.75 15.92 24.74 15.92 24.74 15.93 24.74 15.93 24.74 15.93 24.73 15.93 24.73 15.93 24.73 15.99 24.68 15.69 24.38 15.63 24.44 15.63 24.44 15.63 24.44 15.63 24.44 15.63 24.44 15.62 24.45 15.62 24.45 15.62 24.45 15.62 24.45 15.62 24.45 15.61 24.46 15.61 24.46 15.61 24.46 15.61 24.46 15.61 24.46 15.6 24.47 15.6 24.47 15.6 24.47 15.6 24.47 15.59 24.47 15.59 24.48 15.59 24.48 15.59 24.48 15.59 24.48 15.58 24.48 15.58 24.49 15.58 24.49 15.58 24.49 15.58 24.49 15.57 24.49 15.57 24.5 15.57 24.5 15.57 24.5 15.57 24.5 15.56 24.5 15.56 24.51 15.56 24.51 15.56 24.51 15.57 24.5 15.57 24.5 15.57 24.5 15.57 24.5 15.56 24.5 15.56 24.5 15.56 24.51 15.56 24.51 15.56 24.51 15.55 24.51 15.55 24.52 15.55 24.52 15.55 24.52 15.55 24.52 15.54 24.52 15.54 24.52 15.54 24.53 15.54 24.53 15.54 24.53 15.53 24.53 15.53 24.54 15.53 24.54 15.53 24.54 15.53 24.54 15.52 24.54 15.52 24.55 15.52 24.55 15.52 24.55 15.52 24.55 15.51 24.55 15.51 24.55 15.51 24.56 15.51 24.56 15.51 24.56 15.5 24.56 15.5 24.57 15.5 24.57 15.5 24.57 15.49 24.57 15.49 24.57 15.49 24.57 15.49 24.58 15.49 24.58 15.48 24.58 15.48 24.58 15.48 24.59 15.48 24.59 15.48 24.59 15.47 24.59 15.47 24.59 15.47 24.59 15.47 24.6 15.47 24.6 15.46 24.6 15.46 24.6 15.46 24.61 15.46 24.61 15.46 24.61 15.46 24.61 15.45 24.61 15.45 24.61 15.45 24.62 15.45 24.62 15.44 24.62 15.44 24.62 15.74 24.92 15.74 24.92 15.75 24.91 15.75 24.91 15.75 24.91 15.75 24.91 15.76 24.91 15.76 24.9 15.76 24.9 15.76 24.9 15.76 24.9 15.77 24.9 15.77 24.89 15.77 24.89 15.77 24.89 15.77 24.89 15.78 24.89 15.78 24.88 15.78 24.88 15.78 24.88 15.78 24.88 15.79 24.88 15.79 24.87 15.79 24.87 15.79 24.87 15.79 24.87 15.8 24.87 15.8 24.86 15.8 24.86 15.8 24.86 15.8 24.86 15.81 24.86 15.81 24.85 15.81 24.85 15.81 24.85 15.81 24.85 15.82 24.85 15.82 24.84 15.82 24.84 15.82 24.84 15.82 24.84 15.83 24.84 15.83 24.83 15.83 24.83 15.83 24.83 15.84 24.83 15.84 24.83 15.84 24.82 15.84 24.82 15.84 24.82 15.85 24.82 15.85 24.82 15.85 24.81 15.85 24.81 15.85 24.81 15.86 24.81 15.86 24.81 15.86 24.8 15.86 24.8 15.86 24.8 15.87 24.8 15.87 24.8 15.87 24.79 15.87 24.79 15.86 24.8 15.86 24.8"/><polygon class="cls-1" points="15.02 25.09 15.02 25.1 15.01 25.1 15.01 25.1 15.01 25.1 15.01 25.1 15.01 25.11 15.01 25.11 15 25.11 15 25.11 15 25.11 15 25.11 15 25.11 14.99 25.12 14.99 25.12 14.99 25.12 14.99 25.12 14.99 25.12 14.99 25.12 14.98 25.13 14.98 25.13 14.98 25.13 14.98 25.13 14.98 25.13 14.98 25.13 14.97 25.14 14.97 25.14 14.97 25.14 14.97 25.14 14.97 25.14 14.97 25.14 14.96 25.15 14.96 25.15 14.96 25.15 14.96 25.15 14.96 25.15 14.96 25.15 14.96 25.16 14.95 25.16 14.95 25.16 14.95 25.16 14.95 25.16 14.95 25.16 14.95 25.16 14.94 25.17 14.94 25.17 14.94 25.17 14.94 25.17 14.94 25.17 14.94 25.18 14.93 25.18 14.93 25.18 14.93 25.18 14.93 25.18 14.93 25.18 14.93 25.18 14.92 25.19 14.92 25.19 14.92 25.19 14.92 25.19 14.92 25.19 14.91 25.2 14.91 25.2 14.91 25.2 14.91 25.2 14.91 25.2 14.91 25.2 14.9 25.2 14.9 25.21 14.9 25.21 14.9 25.21 14.9 25.21 14.9 25.21 14.89 25.21 14.89 25.22 14.89 25.22 14.89 25.22 14.89 25.22 14.89 25.22 14.88 25.22 14.88 25.23 14.88 25.23 14.88 25.23 14.88 25.23 14.88 25.23 14.88 25.23 14.87 25.23 14.87 25.24 14.87 25.24 14.87 25.24 14.87 25.24 14.87 25.24 14.86 25.25 14.86 25.25 14.86 25.25 14.86 25.25 14.86 25.25 14.86 25.25 14.85 25.25 14.85 25.26 14.85 25.26 14.85 25.26 14.85 25.26 15.09 25.5 15.1 25.5 15.1 25.5 15.1 25.5 15.1 25.5 15.1 25.5 15.1 25.49 15.11 25.49 15.11 25.49 15.11 25.49 15.11 25.49 15.11 25.49 15.11 25.48 15.12 25.48 15.12 25.48 15.12 25.48 15.12 25.48 15.12 25.48 15.12 25.47 15.13 25.47 15.13 25.47 15.13 25.47 15.13 25.47 15.13 25.47 15.13 25.46 15.13 25.46 15.14 25.46 15.14 25.46 15.14 25.46 15.14 25.46 15.14 25.45 15.14 25.45 15.15 25.45 15.15 25.45 15.15 25.45 15.15 25.45 15.15 25.45 15.15 25.44 15.16 25.44 15.16 25.44 15.16 25.44 15.16 25.44 15.16 25.43 15.16 25.43 15.17 25.43 15.17 25.43 15.17 25.43 15.17 25.43 15.17 25.43 15.18 25.42 15.18 25.42 15.18 25.42 15.18 25.42 15.18 25.42 15.18 25.41 15.18 25.41 15.19 25.41 15.19 25.41 15.19 25.41 15.19 25.41 15.19 25.41 15.19 25.4 15.2 25.4 15.2 25.4 15.2 25.4 15.2 25.4 15.2 25.4 15.2 25.39 15.21 25.39 15.21 25.39 15.21 25.39 15.21 25.39 15.21 25.39 15.21 25.38 15.22 25.38 15.22 25.38 15.22 25.38 15.22 25.38 15.22 25.38 15.22 25.37 15.23 25.37 15.23 25.37 15.23 25.37 15.23 25.37 15.23 25.37 15.23 25.36 15.24 25.36 15.24 25.36 15.24 25.36 15.24 25.36 15.24 25.36 15.24 25.36 15.25 25.35 15.25 25.35 15.25 25.35 15.25 25.35 15.25 25.35 15.25 25.34 15.26 25.34 15.26 25.34 15.26 25.34 15.26 25.34 15.26 25.34 15.31 25.29 15.06 25.05 15.02 25.09"/><polygon class="cls-1" points="14.58 25.95 14.59 25.95 14.59 25.95 14.59 25.95 14.59 25.95 14.59 25.94 14.59 25.94 14.59 25.94 14.59 25.94 14.6 25.94 14.6 25.94 14.6 25.94 14.6 25.93 14.6 25.93 14.6 25.93 14.64 25.9 14.45 25.71 14.41 25.74 14.41 25.75 14.41 25.75 14.41 25.75 14.4 25.75 14.4 25.75 14.4 25.75 14.4 25.75 14.4 25.75 14.4 25.75 14.4 25.76 14.4 25.76 14.39 25.76 14.39 25.76 14.39 25.76 14.39 25.76 14.39 25.76 14.39 25.77 14.39 25.77 14.39 25.77 14.38 25.77 14.38 25.77 14.38 25.77 14.38 25.77 14.38 25.77 14.38 25.78 14.38 25.78 14.38 25.78 14.37 25.78 14.37 25.78 14.37 25.78 14.37 25.78 14.37 25.79 14.37 25.79 14.37 25.79 14.37 25.79 14.36 25.79 14.36 25.79 14.36 25.79 14.36 25.79 14.36 25.8 14.36 25.8 14.36 25.8 14.36 25.8 14.35 25.8 14.35 25.8 14.35 25.8 14.35 25.8 14.35 25.8 14.35 25.81 14.35 25.81 14.34 25.81 14.34 25.81 14.34 25.81 14.34 25.81 14.34 25.81 14.34 25.82 14.34 25.82 14.34 25.82 14.33 25.82 14.33 25.82 14.33 25.82 14.33 25.82 14.33 25.82 14.33 25.82 14.33 25.83 14.32 25.83 14.32 25.83 14.32 25.83 14.32 25.83 14.32 25.83 14.32 25.83 14.32 25.84 14.32 25.84 14.31 25.84 14.31 25.84 14.31 25.84 14.31 25.84 14.31 25.84 14.31 25.84 14.31 25.85 14.31 25.85 14.3 25.85 14.3 25.85 14.3 25.85 14.3 25.85 14.3 25.85 14.3 25.86 14.3 25.86 14.29 25.86 14.29 25.86 14.29 25.86 14.29 25.86 14.29 25.86 14.29 25.86 14.29 25.86 14.29 25.87 14.29 25.87 14.28 25.87 14.28 25.87 14.28 25.87 14.28 25.87 14.28 25.87 14.47 26.06 14.47 26.06 14.47 26.06 14.47 26.06 14.47 26.06 14.48 26.05 14.48 26.05 14.48 26.05 14.48 26.05 14.48 26.05 14.48 26.05 14.48 26.05 14.48 26.05 14.49 26.05 14.49 26.04 14.49 26.04 14.49 26.04 14.49 26.04 14.49 26.04 14.49 26.04 14.5 26.04 14.5 26.04 14.5 26.03 14.5 26.03 14.5 26.03 14.5 26.03 14.5 26.03 14.51 26.03 14.51 26.03 14.51 26.02 14.51 26.02 14.51 26.02 14.51 26.02 14.51 26.02 14.51 26.02 14.52 26.02 14.52 26.02 14.52 26.02 14.52 26.01 14.52 26.01 14.52 26.01 14.52 26.01 14.52 26.01 14.53 26.01 14.53 26.01 14.53 26 14.53 26 14.53 26 14.53 26 14.53 26 14.54 26 14.54 26 14.54 26 14.54 25.99 14.54 25.99 14.54 25.99 14.54 25.99 14.54 25.99 14.54 25.99 14.55 25.99 14.55 25.99 14.55 25.98 14.55 25.98 14.55 25.98 14.55 25.98 14.55 25.98 14.55 25.98 14.56 25.98 14.56 25.98 14.56 25.97 14.56 25.97 14.56 25.97 14.56 25.97 14.56 25.97 14.57 25.97 14.57 25.97 14.57 25.96 14.57 25.96 14.57 25.96 14.57 25.96 14.57 25.96 14.57 25.96 14.58 25.96 14.58 25.96 14.58 25.95 14.58 25.95 14.58 25.95 14.58 25.95 14.58 25.95"/><polygon class="cls-1" points="13.8 26.39 13.8 26.39 13.8 26.39 13.8 26.4 13.8 26.4 13.8 26.4 13.8 26.4 13.8 26.4 13.8 26.4 13.8 26.4 13.79 26.4 13.79 26.4 13.79 26.4 13.79 26.41 13.79 26.41 13.79 26.41 13.79 26.41 13.79 26.41 13.79 26.41 13.79 26.41 13.79 26.41 13.79 26.41 13.78 26.41 13.78 26.41 13.78 26.41 13.78 26.42 13.78 26.42 13.78 26.42 13.78 26.42 13.78 26.42 13.78 26.42 13.78 26.42 13.78 26.42 13.77 26.42 13.77 26.42 13.77 26.43 13.77 26.43 13.77 26.43 13.77 26.43 13.77 26.43 13.77 26.43 13.77 26.43 13.77 26.43 13.77 26.43 13.76 26.43 13.76 26.43 13.76 26.43 13.76 26.44 13.76 26.44 13.76 26.44 13.76 26.44 13.76 26.44 13.76 26.44 13.76 26.44 13.75 26.44 13.75 26.44 13.75 26.44 13.75 26.45 13.75 26.45 13.75 26.45 13.75 26.45 13.75 26.45 13.75 26.45 13.75 26.45 13.74 26.45 13.74 26.45 13.74 26.45 13.74 26.45 13.74 26.45 13.74 26.46 13.74 26.46 13.74 26.46 13.74 26.46 13.74 26.46 13.74 26.46 13.73 26.46 13.73 26.46 13.73 26.46 13.73 26.46 13.73 26.46 13.73 26.47 13.73 26.47 13.73 26.47 13.73 26.47 13.73 26.47 13.73 26.47 13.72 26.47 13.72 26.47 13.72 26.47 13.72 26.47 13.72 26.48 13.72 26.48 13.72 26.48 13.72 26.48 13.72 26.48 13.72 26.48 13.72 26.48 13.71 26.48 13.71 26.48 13.71 26.48 13.71 26.48 13.71 26.48 13.71 26.49 13.85 26.62 13.85 26.62 13.85 26.62 13.85 26.62 13.85 26.62 13.85 26.62 13.85 26.61 13.85 26.61 13.85 26.61 13.86 26.61 13.86 26.61 13.86 26.61 13.86 26.61 13.86 26.61 13.86 26.61 13.86 26.61 13.86 26.61 13.86 26.61 13.86 26.6 13.86 26.6 13.87 26.6 13.87 26.6 13.87 26.6 13.87 26.6 13.87 26.6 13.87 26.6 13.87 26.6 13.87 26.6 13.87 26.59 13.87 26.59 13.88 26.59 13.88 26.59 13.88 26.59 13.88 26.59 13.88 26.59 13.88 26.59 13.88 26.59 13.88 26.59 13.88 26.59 13.88 26.59 13.88 26.58 13.88 26.58 13.89 26.58 13.89 26.58 13.89 26.58 13.89 26.58 13.89 26.58 13.89 26.58 13.89 26.58 13.89 26.58 13.89 26.57 13.89 26.57 13.89 26.57 13.9 26.57 13.9 26.57 13.9 26.57 13.9 26.57 13.9 26.57 13.9 26.57 13.9 26.57 13.9 26.57 13.9 26.57 13.9 26.56 13.9 26.56 13.91 26.56 13.91 26.56 13.91 26.56 13.91 26.56 13.91 26.56 13.91 26.56 13.91 26.56 13.91 26.56 13.91 26.55 13.91 26.55 13.91 26.55 13.92 26.55 13.92 26.55 13.92 26.55 13.92 26.55 13.92 26.55 13.92 26.55 13.92 26.55 13.92 26.55 13.92 26.55 13.93 26.54 13.93 26.54 13.93 26.54 13.93 26.54 13.93 26.54 13.93 26.54 13.93 26.54 13.93 26.54 13.93 26.54 13.93 26.54 13.93 26.54 13.94 26.53 13.94 26.53 13.94 26.53 13.94 26.53 13.94 26.53 13.94 26.53 13.94 26.53 13.94 26.53 13.97 26.5 13.83 26.37 13.8 26.39"/><polygon class="cls-1" points="13.24 27 13.24 27 13.24 27 13.24 27 13.24 27 13.24 27 13.24 27 13.24 27 13.24 27 13.24 27 13.23 27 13.23 27.01 13.23 27.01 13.23 27.01 13.23 27.01 13.23 27.01 13.23 27.01 13.23 27.01 13.23 27.01 13.23 27.01 13.23 27.01 13.23 27.01 13.23 27.01 13.23 27.01 13.23 27.01 13.23 27.01 13.23 27.01 13.23 27.01 13.22 27.02 13.22 27.02 13.22 27.02 13.22 27.02 13.22 27.02 13.22 27.02 13.22 27.02 13.22 27.02 13.22 27.02 13.22 27.02 13.22 27.02 13.22 27.02 13.22 27.02 13.22 27.02 13.22 27.02 13.22 27.02 13.22 27.02 13.22 27.02 13.21 27.02 13.21 27.02 13.21 27.03 13.21 27.03 13.21 27.03 13.21 27.03 13.21 27.03 13.21 27.03 13.21 27.03 13.21 27.03 13.21 27.03 13.21 27.03 13.21 27.03 13.21 27.03 13.21 27.03 13.21 27.03 13.21 27.03 13.21 27.03 13.21 27.04 13.21 27.04 13.2 27.04 13.2 27.04 13.2 27.04 13.2 27.04 13.2 27.04 13.2 27.04 13.2 27.04 13.2 27.04 13.2 27.04 13.2 27.04 13.2 27.04 13.2 27.04 13.2 27.04 13.2 27.04 13.2 27.04 13.2 27.04 13.2 27.04 13.2 27.05 13.19 27.05 13.19 27.05 13.19 27.05 13.19 27.05 13.19 27.05 13.19 27.05 13.19 27.05 13.19 27.05 13.19 27.05 13.19 27.05 13.19 27.05 13.19 27.05 13.19 27.05 13.19 27.05 13.19 27.05 13.19 27.05 13.19 27.05 13.19 27.05 13.18 27.05 13.27 27.14 13.27 27.14 13.27 27.14 13.27 27.13 13.27 27.13 13.27 27.13 13.27 27.13 13.27 27.13 13.27 27.13 13.27 27.13 13.27 27.13 13.27 27.13 13.27 27.13 13.27 27.13 13.27 27.13 13.28 27.13 13.28 27.13 13.28 27.13 13.28 27.13 13.28 27.13 13.28 27.13 13.28 27.13 13.28 27.12 13.28 27.12 13.28 27.12 13.28 27.12 13.28 27.12 13.28 27.12 13.28 27.12 13.28 27.12 13.28 27.12 13.28 27.12 13.28 27.12 13.29 27.12 13.29 27.12 13.29 27.12 13.29 27.12 13.29 27.12 13.29 27.11 13.29 27.11 13.29 27.11 13.29 27.11 13.29 27.11 13.29 27.11 13.29 27.11 13.29 27.11 13.29 27.11 13.29 27.11 13.29 27.11 13.29 27.11 13.29 27.11 13.29 27.11 13.29 27.11 13.3 27.11 13.3 27.11 13.3 27.11 13.3 27.11 13.3 27.11 13.3 27.1 13.3 27.1 13.3 27.1 13.3 27.1 13.3 27.1 13.3 27.1 13.3 27.1 13.3 27.1 13.3 27.1 13.3 27.1 13.3 27.1 13.3 27.1 13.3 27.1 13.31 27.1 13.31 27.1 13.31 27.1 13.31 27.1 13.31 27.09 13.31 27.09 13.31 27.09 13.31 27.09 13.31 27.09 13.31 27.09 13.31 27.09 13.31 27.09 13.31 27.09 13.31 27.09 13.31 27.09 13.31 27.09 13.31 27.09 13.31 27.09 13.32 27.09 13.32 27.09 13.32 27.09 13.32 27.09 13.32 27.09 13.32 27.09 13.32 27.08 13.32 27.08 13.32 27.08 13.32 27.08 13.32 27.08 13.32 27.08 13.32 27.08 13.32 27.08 13.34 27.07 13.26 26.98 13.24 27"/><polygon class="cls-1" points="15.39 24.34 15.39 24.34 15.4 24.34 15.4 24.33 15.4 24.33 15.4 24.33 15.4 24.33 15.41 24.32 15.41 24.32 15.41 24.32 15.41 24.32 15.41 24.32 15.42 24.32 15.42 24.31 15.42 24.31 15.42 24.31 15.43 24.31 15.43 24.3 15.43 24.3 15.43 24.3 15.43 24.3 15.44 24.3 15.44 24.3 15.44 24.29 15.44 24.29 15.44 24.29 15.45 24.29 15.45 24.29 15.45 24.28 15.45 24.28 15.45 24.28 15.46 24.28 15.46 24.28 15.46 24.27 15.46 24.27 15.46 24.27 15.52 24.22 15.22 23.92 15.16 23.97 15.16 23.98 15.16 23.98 15.16 23.98 15.15 23.98 15.15 23.98 15.15 23.99 15.15 23.99 15.15 23.99 15.14 23.99 15.14 23.99 15.14 24 15.14 24 15.14 24 15.13 24 15.13 24 15.13 24.01 15.13 24.01 15.13 24.01 15.12 24.01 15.12 24.01 15.12 24.02 15.12 24.02 15.12 24.02 15.11 24.02 15.11 24.02 15.11 24.03 15.11 24.03 15.11 24.03 15.1 24.03 15.1 24.03 15.1 24.04 15.1 24.04 15.1 24.04 15.09 24.04 15.09 24.04 15.11 24.03 15.11 24.03 15.1 24.03 15.1 24.04 15.1 24.04 15.1 24.04 15.09 24.04 15.09 24.04 15.09 24.05 15.09 24.05 15.09 24.05 15.08 24.05 15.08 24.05 15.08 24.05 15.08 24.06 15.08 24.06 15.07 24.06 15.07 24.06 15.07 24.07 15.07 24.07 15.07 24.07 15.06 24.07 15.06 24.07 15.06 24.07 15.06 24.08 15.06 24.08 15.05 24.08 15.05 24.08 15.05 24.09 15.05 24.09 15.05 24.09 15.04 24.09 15.04 24.09 15.04 24.09 15.04 24.1 15.04 24.1 15.03 24.1 15.03 24.1 15.03 24.11 15.03 24.11 15.03 24.11 15.02 24.11 15.02 24.11 15.02 24.11 15.02 24.12 15.02 24.12 15.01 24.12 15.01 24.12 15.01 24.13 15.01 24.13 15.01 24.13 15 24.13 15 24.13 15 24.14 15 24.14 14.99 24.14 14.99 24.14 14.99 24.14 14.99 24.14 14.99 24.15 14.98 24.15 14.98 24.15 14.98 24.15 14.98 24.16 14.98 24.16 14.97 24.16 14.97 24.16 15.27 24.46 15.28 24.45 15.28 24.45 15.28 24.45 15.28 24.45 15.28 24.45 15.29 24.44 15.29 24.44 15.29 24.44 15.29 24.44 15.29 24.44 15.3 24.43 15.3 24.43 15.3 24.43 15.3 24.43 15.3 24.43 15.31 24.42 15.31 24.42 15.31 24.42 15.31 24.42 15.31 24.42 15.32 24.41 15.32 24.41 15.32 24.41 15.32 24.41 15.32 24.41 15.33 24.4 15.33 24.4 15.33 24.4 15.33 24.4 15.33 24.4 15.34 24.39 15.34 24.39 15.34 24.39 15.34 24.39 15.34 24.39 15.35 24.38 15.35 24.38 15.35 24.38 15.35 24.38 15.36 24.38 15.36 24.38 15.36 24.37 15.36 24.37 15.36 24.37 15.37 24.37 15.37 24.36 15.37 24.36 15.37 24.36 15.37 24.36 15.38 24.36 15.38 24.35 15.38 24.35 15.38 24.35 15.38 24.35 15.38 24.35 15.39 24.34 15.39 24.34 15.39 24.34 15.39 24.34 15.39 24.34 15.4 24.33 15.4 24.33 15.4 24.33 15.4 24.33 15.4 24.33 15.39 24.34 15.39 24.34"/><polygon class="cls-1" points="14.5 24.68 14.5 24.68 14.5 24.68 14.49 24.68 14.49 24.68 14.49 24.69 14.49 24.69 14.49 24.69 14.49 24.69 14.48 24.69 14.48 24.7 14.48 24.7 14.48 24.7 14.48 24.7 14.48 24.7 14.47 24.7 14.47 24.7 14.47 24.71 14.47 24.71 14.47 24.71 14.47 24.71 14.46 24.71 14.46 24.71 14.46 24.72 14.46 24.72 14.46 24.72 14.46 24.72 14.46 24.72 14.45 24.73 14.45 24.73 14.45 24.73 14.45 24.73 14.45 24.73 14.45 24.73 14.44 24.73 14.44 24.74 14.44 24.74 14.44 24.74 14.44 24.74 14.44 24.74 14.43 24.74 14.43 24.75 14.43 24.75 14.43 24.75 14.43 24.75 14.43 24.75 14.42 24.75 14.42 24.76 14.42 24.76 14.42 24.76 14.42 24.76 14.41 24.76 14.41 24.76 14.41 24.77 14.41 24.77 14.41 24.77 14.41 24.77 14.4 24.77 14.4 24.77 14.4 24.77 14.4 24.78 14.4 24.78 14.4 24.78 14.39 24.78 14.39 24.78 14.39 24.79 14.39 24.79 14.39 24.79 14.39 24.79 14.38 24.79 14.38 24.79 14.38 24.8 14.38 24.8 14.38 24.8 14.38 24.8 14.62 25.04 14.62 25.04 14.63 25.04 14.63 25.04 14.63 25.04 14.63 25.03 14.63 25.03 14.63 25.03 14.64 25.03 14.64 25.03 14.64 25.02 14.64 25.02 14.64 25.02 14.64 25.02 14.65 25.02 14.65 25.02 14.65 25.02 14.65 25.01 14.65 25.01 14.65 25.01 14.66 25.01 14.66 25.01 14.66 25.01 14.66 25 14.66 25 14.66 25 14.67 25 14.67 25 14.67 25 14.67 24.99 14.67 24.99 14.67 24.99 14.68 24.99 14.68 24.99 14.68 24.99 14.68 24.98 14.68 24.98 14.68 24.98 14.69 24.98 14.69 24.98 14.69 24.98 14.69 24.98 14.69 24.97 14.69 24.97 14.7 24.97 14.7 24.97 14.7 24.97 14.7 24.96 14.7 24.96 14.7 24.96 14.71 24.96 14.71 24.96 14.71 24.96 14.71 24.95 14.71 24.95 14.71 24.95 14.72 24.95 14.72 24.95 14.72 24.95 14.72 24.95 14.72 24.94 14.72 24.94 14.73 24.94 14.73 24.94 14.73 24.94 14.73 24.93 14.73 24.93 14.73 24.93 14.74 24.93 14.74 24.93 14.74 24.93 14.74 24.93 14.74 24.92 14.74 24.92 14.75 24.92 14.75 24.92 14.75 24.92 14.75 24.92 14.75 24.91 14.75 24.91 14.76 24.91 14.76 24.91 14.76 24.91 14.76 24.91 14.76 24.9 14.76 24.9 14.77 24.9 14.77 24.9 14.77 24.9 14.77 24.9 14.77 24.89 14.77 24.89 14.78 24.89 14.78 24.89 14.78 24.89 14.78 24.89 14.78 24.89 14.78 24.88 14.79 24.88 14.79 24.88 14.79 24.88 14.79 24.88 14.79 24.88 14.84 24.83 14.59 24.59 14.55 24.63 14.54 24.64 14.54 24.64 14.54 24.64 14.54 24.64 14.54 24.64 14.54 24.64 14.54 24.64 14.53 24.65 14.53 24.65 14.53 24.65 14.53 24.65 14.53 24.65 14.53 24.65 14.52 24.66 14.52 24.66 14.52 24.66 14.52 24.66 14.52 24.66 14.52 24.66 14.51 24.67 14.51 24.67 14.51 24.67 14.51 24.67 14.51 24.67 14.51 24.67 14.5 24.68 14.5 24.68 14.5 24.68"/><polygon class="cls-1" points="14.12 25.48 14.12 25.48 14.12 25.48 14.12 25.48 14.12 25.48 14.12 25.48 14.13 25.48 14.13 25.48 14.13 25.47 14.13 25.47 14.13 25.47 14.13 25.47 14.17 25.44 13.97 25.25 13.94 25.28 13.94 25.28 13.94 25.29 13.94 25.29 13.94 25.29 13.93 25.29 13.93 25.29 13.93 25.29 13.93 25.29 13.93 25.29 13.93 25.3 13.93 25.3 13.93 25.3 13.92 25.3 13.92 25.3 13.92 25.3 13.92 25.3 13.92 25.3 13.92 25.3 13.92 25.31 13.91 25.31 13.91 25.31 13.91 25.31 13.91 25.31 13.91 25.31 13.91 25.31 13.91 25.32 13.9 25.32 13.9 25.32 13.9 25.32 13.9 25.32 13.9 25.32 13.9 25.32 13.9 25.32 13.9 25.32 13.89 25.33 13.89 25.33 13.89 25.33 13.89 25.33 13.89 25.33 13.89 25.33 13.89 25.33 13.89 25.34 13.88 25.34 13.88 25.34 13.88 25.34 13.88 25.34 13.88 25.34 13.88 25.34 13.88 25.34 13.88 25.35 13.87 25.35 13.87 25.35 13.87 25.35 13.87 25.35 13.87 25.35 13.87 25.35 13.87 25.36 13.87 25.36 13.86 25.36 13.86 25.36 13.86 25.36 13.86 25.36 13.86 25.36 13.86 25.36 13.86 25.36 13.86 25.37 13.85 25.37 13.85 25.37 13.85 25.37 13.85 25.37 13.85 25.37 13.85 25.37 13.85 25.38 13.84 25.38 13.84 25.38 13.84 25.38 13.84 25.38 13.84 25.38 13.84 25.38 13.84 25.38 13.84 25.39 13.83 25.39 13.83 25.39 13.83 25.39 13.83 25.39 13.83 25.39 13.83 25.39 13.83 25.39 13.82 25.39 13.82 25.4 13.82 25.4 13.82 25.4 13.82 25.4 13.82 25.4 13.82 25.4 13.82 25.4 13.81 25.41 13.81 25.41 13.81 25.41 13.81 25.41 13.81 25.41 13.81 25.41 14 25.6 14 25.6 14 25.6 14 25.6 14.01 25.59 14.01 25.59 14.01 25.59 14.01 25.59 14.01 25.59 14.01 25.59 14.01 25.59 14.01 25.59 14.02 25.59 14.02 25.58 14.02 25.58 14.02 25.58 14.02 25.58 14.02 25.58 14.02 25.58 14.02 25.58 14.03 25.57 14.03 25.57 14.03 25.57 14.03 25.57 14.03 25.57 14.03 25.57 14.03 25.57 14.04 25.57 14.04 25.56 14.04 25.56 14.04 25.56 14.04 25.56 14.04 25.56 14.04 25.56 14.04 25.56 14.04 25.55 14.05 25.55 14.05 25.55 14.05 25.55 14.05 25.55 14.05 25.55 14.05 25.55 14.05 25.55 14.05 25.55 14.06 25.54 14.06 25.54 14.06 25.54 14.06 25.54 14.06 25.54 14.06 25.54 14.06 25.54 14.07 25.54 14.07 25.53 14.07 25.53 14.07 25.53 14.07 25.53 14.07 25.53 14.07 25.53 14.07 25.53 14.08 25.52 14.08 25.52 14.08 25.52 14.08 25.52 14.08 25.52 14.08 25.52 14.08 25.52 14.09 25.52 14.09 25.52 14.09 25.51 14.09 25.51 14.09 25.51 14.09 25.51 14.09 25.51 14.09 25.51 14.1 25.51 14.1 25.5 14.1 25.5 14.1 25.5 14.1 25.5 14.1 25.5 14.1 25.5 14.11 25.5 14.11 25.5 14.11 25.49 14.11 25.49 14.11 25.49 14.11 25.49 14.11 25.49 14.11 25.49 14.12 25.49 14.12 25.48 14.12 25.48"/><polygon class="cls-1" points="13.33 25.93 13.33 25.93 13.33 25.93 13.33 25.93 13.33 25.93 13.33 25.94 13.33 25.94 13.33 25.94 13.33 25.94 13.33 25.94 13.32 25.94 13.32 25.94 13.32 25.94 13.32 25.94 13.32 25.94 13.32 25.95 13.32 25.95 13.32 25.95 13.32 25.95 13.32 25.95 13.32 25.95 13.31 25.95 13.31 25.95 13.31 25.95 13.31 25.95 13.31 25.95 13.31 25.95 13.31 25.96 13.31 25.96 13.31 25.96 13.31 25.96 13.31 25.96 13.3 25.96 13.3 25.96 13.3 25.96 13.3 25.96 13.3 25.96 13.3 25.96 13.3 25.97 13.3 25.97 13.3 25.97 13.3 25.97 13.29 25.97 13.29 25.97 13.29 25.97 13.29 25.97 13.29 25.97 13.29 25.97 13.29 25.98 13.29 25.98 13.29 25.98 13.29 25.98 13.29 25.98 13.29 25.98 13.28 25.98 13.28 25.98 13.28 25.98 13.28 25.98 13.28 25.98 13.28 25.98 13.28 25.99 13.28 25.99 13.28 25.99 13.28 25.99 13.28 25.99 13.27 25.99 13.27 25.99 13.27 25.99 13.27 25.99 13.27 25.99 13.27 26 13.27 26 13.27 26 13.27 26 13.27 26 13.27 26 13.26 26 13.26 26 13.26 26 13.26 26 13.26 26 13.26 26 13.26 26.01 13.26 26.01 13.26 26.01 13.26 26.01 13.26 26.01 13.25 26.01 13.25 26.01 13.25 26.01 13.25 26.01 13.25 26.01 13.25 26.02 13.25 26.02 13.25 26.02 13.25 26.02 13.24 26.02 13.24 26.02 13.24 26.02 13.24 26.02 13.24 26.02 13.24 26.02 13.24 26.02 13.38 26.16 13.38 26.16 13.38 26.16 13.38 26.16 13.38 26.16 13.38 26.15 13.38 26.15 13.38 26.15 13.38 26.15 13.38 26.15 13.39 26.15 13.39 26.15 13.39 26.15 13.39 26.15 13.39 26.15 13.39 26.14 13.39 26.14 13.39 26.14 13.39 26.14 13.39 26.14 13.39 26.14 13.4 26.14 13.4 26.14 13.4 26.14 13.4 26.14 13.4 26.14 13.4 26.14 13.4 26.13 13.4 26.13 13.4 26.13 13.4 26.13 13.4 26.13 13.41 26.13 13.41 26.13 13.41 26.13 13.41 26.13 13.41 26.13 13.41 26.13 13.41 26.12 13.41 26.12 13.41 26.12 13.41 26.12 13.41 26.12 13.42 26.12 13.42 26.12 13.42 26.12 13.42 26.12 13.42 26.12 13.42 26.11 13.42 26.11 13.42 26.11 13.42 26.11 13.43 26.11 13.43 26.11 13.43 26.11 13.43 26.11 13.43 26.11 13.43 26.11 13.43 26.11 13.43 26.11 13.43 26.1 13.43 26.1 13.43 26.1 13.44 26.1 13.44 26.1 13.44 26.1 13.44 26.1 13.44 26.1 13.44 26.1 13.44 26.1 13.44 26.09 13.44 26.09 13.44 26.09 13.44 26.09 13.45 26.09 13.45 26.09 13.45 26.09 13.45 26.09 13.45 26.09 13.45 26.09 13.45 26.09 13.45 26.09 13.45 26.08 13.45 26.08 13.45 26.08 13.46 26.08 13.46 26.08 13.46 26.08 13.46 26.08 13.46 26.08 13.46 26.08 13.46 26.08 13.46 26.07 13.46 26.07 13.46 26.07 13.46 26.07 13.46 26.07 13.47 26.07 13.47 26.07 13.47 26.07 13.47 26.07 13.47 26.07 13.47 26.07 13.5 26.04 13.36 25.91 13.33 25.93"/><polygon class="cls-1" points="12.78 26.53 12.77 26.53 12.77 26.54 12.77 26.54 12.77 26.54 12.77 26.54 12.77 26.54 12.77 26.54 12.77 26.54 12.77 26.54 12.77 26.54 12.77 26.54 12.77 26.54 12.77 26.54 12.77 26.54 12.77 26.54 12.77 26.54 12.77 26.54 12.77 26.54 12.76 26.54 12.76 26.55 12.76 26.55 12.76 26.55 12.76 26.55 12.76 26.55 12.76 26.55 12.76 26.55 12.76 26.55 12.76 26.55 12.76 26.55 12.76 26.55 12.76 26.55 12.76 26.55 12.76 26.55 12.76 26.55 12.76 26.55 12.76 26.55 12.75 26.55 12.75 26.55 12.75 26.55 12.75 26.55 12.75 26.56 12.75 26.56 12.75 26.56 12.75 26.56 12.75 26.56 12.75 26.56 12.75 26.56 12.75 26.56 12.75 26.56 12.75 26.56 12.75 26.56 12.75 26.56 12.74 26.56 12.74 26.56 12.74 26.56 12.74 26.56 12.74 26.57 12.74 26.57 12.74 26.57 12.74 26.57 12.74 26.57 12.74 26.57 12.74 26.57 12.74 26.57 12.74 26.57 12.74 26.57 12.74 26.57 12.74 26.57 12.74 26.57 12.74 26.57 12.73 26.57 12.73 26.57 12.73 26.57 12.73 26.57 12.73 26.57 12.73 26.57 12.73 26.58 12.73 26.58 12.73 26.58 12.73 26.58 12.73 26.58 12.73 26.58 12.73 26.58 12.73 26.58 12.73 26.58 12.73 26.58 12.73 26.58 12.73 26.58 12.72 26.58 12.72 26.58 12.72 26.58 12.72 26.58 12.72 26.58 12.72 26.59 12.72 26.59 12.72 26.59 12.72 26.59 12.72 26.59 12.72 26.59 12.72 26.59 12.72 26.59 12.72 26.59 12.8 26.67 12.8 26.67 12.8 26.67 12.8 26.67 12.8 26.67 12.8 26.67 12.8 26.67 12.8 26.67 12.8 26.67 12.8 26.66 12.81 26.66 12.81 26.66 12.81 26.66 12.81 26.66 12.81 26.66 12.81 26.66 12.81 26.66 12.81 26.66 12.81 26.66 12.81 26.66 12.81 26.66 12.81 26.66 12.81 26.66 12.81 26.66 12.81 26.66 12.81 26.66 12.81 26.66 12.81 26.66 12.82 26.66 12.82 26.65 12.82 26.65 12.82 26.65 12.82 26.65 12.82 26.65 12.82 26.65 12.82 26.65 12.82 26.65 12.82 26.65 12.82 26.65 12.82 26.65 12.82 26.65 12.82 26.65 12.82 26.65 12.82 26.65 12.82 26.65 12.82 26.64 12.83 26.64 12.83 26.64 12.83 26.64 12.83 26.64 12.83 26.64 12.83 26.64 12.83 26.64 12.83 26.64 12.83 26.64 12.83 26.64 12.83 26.64 12.83 26.64 12.83 26.64 12.83 26.64 12.83 26.64 12.83 26.64 12.84 26.64 12.84 26.64 12.84 26.64 12.84 26.63 12.84 26.63 12.84 26.63 12.84 26.63 12.84 26.63 12.84 26.63 12.84 26.63 12.84 26.63 12.84 26.63 12.84 26.63 12.84 26.63 12.84 26.63 12.84 26.63 12.84 26.63 12.84 26.63 12.85 26.63 12.85 26.63 12.85 26.63 12.85 26.63 12.85 26.62 12.85 26.62 12.85 26.62 12.85 26.62 12.85 26.62 12.85 26.62 12.85 26.62 12.85 26.62 12.85 26.62 12.85 26.62 12.85 26.62 12.85 26.62 12.85 26.62 12.85 26.62 12.86 26.62 12.86 26.62 12.86 26.61 12.86 26.61 12.86 26.61 12.87 26.6 12.79 26.52 12.78 26.53"/><polygon class="cls-1" points="15.51 22.65 15.51 22.65 15.51 22.65 15.51 22.66 15.5 22.66 15.5 22.66 15.5 22.66 15.5 22.66 15.49 22.67 15.49 22.67 15.49 22.67 15.49 22.67 15.48 22.68 15.48 22.68 15.48 22.68 15.48 22.68 15.47 22.69 15.47 22.69 15.47 22.69 15.47 22.69 15.46 22.7 15.46 22.7 15.46 22.7 15.46 22.7 15.46 22.7 15.45 22.71 15.45 22.71 15.45 22.71 15.45 22.71 15.44 22.72 15.44 22.72 15.44 22.72 15.44 22.72 15.43 22.73 15.21 22.95 15.2 22.96 15.2 22.96 15.2 22.96 15.2 22.96 15.19 22.97 15.19 22.97 15.19 22.97 15.19 22.97 15.18 22.98 15.18 22.98 15.18 22.98 15.18 22.98 15.17 22.98 15.17 22.99 15.17 22.99 15.17 22.99 15.16 23 15.16 23 15.16 23 15.16 23 15.15 23 15.15 23.01 15.15 23.01 15.15 23.01 15.14 23.01 15.14 23.02 15.14 23.02 15.14 23.02 15.14 23.02 15.13 23.03 15.13 23.03 15.13 23.03 15.13 23.03 15.12 23.04 15.12 23.04 15.12 23.04 15.12 23.04 15.11 23.04 15.11 23.05 15.11 23.05 15.11 23.05 15.1 23.05 15.1 23.06 15.1 23.06 15.1 23.06 15.1 23.06 15.09 23.07 15.09 23.07 15.09 23.07 15.09 23.07 15.08 23.07 15.08 23.08 15.08 23.08 15.07 23.08 15.07 23.09 15.07 23.09 15.07 23.09 15.07 23.09 15.06 23.09 15.06 23.1 15.06 23.1 15.06 23.1 15.05 23.1 15.05 23.11 15.05 23.11 15.05 23.11 15.04 23.11 15.04 23.11 15.4 23.46 15.4 23.46 15.4 23.46 15.4 23.46 15.41 23.45 15.41 23.45 15.41 23.45 15.41 23.45 15.42 23.45 15.42 23.44 15.42 23.44 15.42 23.44 15.43 23.44 15.43 23.43 15.43 23.43 15.43 23.43 15.44 23.43 15.44 23.43 15.44 23.42 15.44 23.42 15.45 23.42 15.45 23.41 15.45 23.41 15.45 23.41 15.46 23.41 15.46 23.41 15.46 23.4 15.46 23.4 15.46 23.4 15.47 23.4 15.47 23.39 15.47 23.39 15.47 23.39 15.48 23.39 15.48 23.38 15.48 23.38 15.48 23.38 15.49 23.38 15.49 23.38 15.49 23.37 15.49 23.37 15.5 23.37 15.5 23.36 15.5 23.36 15.5 23.36 15.51 23.36 15.51 23.36 15.51 23.35 15.51 23.35 15.52 23.35 15.52 23.35 15.52 23.34 15.52 23.34 15.53 23.34 15.53 23.34 15.53 23.34 15.53 23.33 15.53 23.33 15.54 23.33 15.54 23.32 15.54 23.32 15.54 23.32 15.55 23.32 15.55 23.32 15.55 23.31 15.55 23.31 15.56 23.31 15.78 23.08 15.79 23.08 15.79 23.08 15.79 23.07 15.79 23.07 15.8 23.07 15.8 23.07 15.8 23.06 15.8 23.06 15.81 23.06 15.81 23.06 15.81 23.05 15.81 23.05 15.82 23.05 15.82 23.05 15.82 23.05 15.82 23.04 15.82 23.04 15.83 23.04 15.83 23.04 15.83 23.03 15.84 23.03 15.84 23.03 15.84 23.03 15.84 23.02 15.85 23.02 15.85 23.02 15.85 23.02 15.85 23.01 15.85 23.01 15.86 23.01 15.86 23.01 15.86 23 15.86 23 15.87 23 15.87 23 15.93 22.93 15.58 22.59 15.51 22.65"/><polygon class="cls-1" points="14.64 23.57 14.64 23.57 14.63 23.57 14.63 23.57 14.63 23.57 14.63 23.57 14.63 23.58 14.62 23.58 14.62 23.58 14.62 23.58 14.62 23.59 14.62 23.59 14.61 23.59 14.61 23.59 14.61 23.59 14.61 23.59 14.61 23.6 14.6 23.6 14.6 23.6 14.6 23.6 14.6 23.61 14.6 23.61 14.59 23.61 14.59 23.61 14.59 23.61 14.59 23.61 14.59 23.62 14.58 23.62 14.58 23.62 14.58 23.62 14.58 23.63 14.57 23.63 14.57 23.63 14.57 23.63 14.57 23.63 14.57 23.64 14.56 23.64 14.56 23.64 14.56 23.64 14.56 23.64 14.56 23.64 14.55 23.65 14.55 23.65 14.55 23.65 14.55 23.65 14.55 23.66 14.54 23.66 14.54 23.66 14.54 23.66 14.54 23.66 14.54 23.66 14.54 23.67 14.53 23.67 14.53 23.67 14.53 23.67 14.53 23.68 14.52 23.68 14.52 23.68 14.52 23.68 14.52 23.68 14.52 23.68 14.51 23.69 14.51 23.69 14.51 23.69 14.51 23.69 14.51 23.7 14.5 23.7 14.5 23.7 14.8 24 14.8 23.99 14.81 23.99 14.81 23.99 14.81 23.99 14.81 23.98 14.81 23.98 14.82 23.98 14.82 23.98 14.82 23.98 14.82 23.98 14.82 23.97 14.83 23.97 14.83 23.97 14.83 23.97 14.83 23.96 14.84 23.96 14.84 23.96 14.84 23.96 14.84 23.96 14.84 23.95 14.85 23.95 14.85 23.95 14.85 23.95 14.85 23.95 14.85 23.95 14.86 23.94 14.86 23.94 14.86 23.94 14.86 23.94 14.86 23.93 14.87 23.93 14.87 23.93 14.87 23.93 14.87 23.93 14.87 23.93 14.88 23.92 14.88 23.92 14.88 23.92 14.88 23.92 14.88 23.91 14.89 23.91 14.89 23.91 14.89 23.91 14.89 23.91 14.89 23.91 14.9 23.9 14.9 23.9 14.9 23.9 14.9 23.9 14.9 23.89 14.91 23.89 14.91 23.89 14.91 23.89 14.91 23.89 14.91 23.89 14.92 23.88 14.92 23.88 14.92 23.88 14.92 23.88 14.93 23.88 14.93 23.87 14.93 23.87 14.93 23.87 14.93 23.87 14.94 23.86 14.94 23.86 14.94 23.86 14.92 23.88 14.93 23.87 14.93 23.87 14.93 23.87 14.93 23.87 14.94 23.87 14.94 23.86 14.94 23.86 14.94 23.86 14.94 23.86 14.95 23.86 14.95 23.85 14.95 23.85 14.95 23.85 14.95 23.85 14.96 23.85 14.96 23.84 14.96 23.84 14.96 23.84 14.96 23.84 14.96 23.84 14.97 23.83 14.97 23.83 14.97 23.83 14.97 23.83 14.97 23.83 14.98 23.82 14.98 23.82 14.98 23.82 14.98 23.82 14.98 23.82 14.99 23.81 14.99 23.81 14.99 23.81 14.99 23.81 15.05 23.75 14.75 23.46 14.69 23.51 14.69 23.51 14.69 23.52 14.69 23.52 14.69 23.52 14.68 23.52 14.68 23.52 14.68 23.53 14.68 23.53 14.67 23.53 14.67 23.53 14.67 23.53 14.67 23.54 14.67 23.54 14.66 23.54 14.66 23.54 14.66 23.54 14.66 23.55 14.66 23.55 14.65 23.55 14.65 23.55 14.65 23.55 14.65 23.56 14.65 23.56 14.64 23.56 14.64 23.56 14.64 23.56 14.64 23.57 14.64 23.57 14.63 23.57 14.63 23.57 14.63 23.57 14.63 23.58 14.63 23.58 14.64 23.56 14.64 23.57"/><polygon class="cls-1" points="14.15 24.58 14.16 24.58 14.16 24.57 14.16 24.57 14.16 24.57 14.16 24.57 14.16 24.57 14.17 24.57 14.17 24.57 14.17 24.56 14.17 24.56 14.17 24.56 14.17 24.56 14.18 24.56 14.18 24.55 14.18 24.55 14.18 24.55 14.18 24.55 14.18 24.55 14.19 24.55 14.19 24.55 14.19 24.54 14.19 24.54 14.19 24.54 14.19 24.54 14.2 24.54 14.2 24.54 14.2 24.53 14.2 24.53 14.2 24.53 14.2 24.53 14.21 24.53 14.21 24.53 14.21 24.52 14.21 24.52 14.21 24.52 14.21 24.52 14.22 24.52 14.22 24.52 14.22 24.51 14.22 24.51 14.22 24.51 14.22 24.51 14.23 24.51 14.23 24.51 14.23 24.5 14.23 24.5 14.23 24.5 14.23 24.5 14.24 24.5 14.24 24.5 14.24 24.5 14.24 24.49 14.24 24.49 14.24 24.49 14.25 24.49 14.25 24.49 14.25 24.48 14.25 24.48 14.25 24.48 14.25 24.48 14.26 24.48 14.26 24.48 14.26 24.48 14.26 24.47 14.26 24.47 14.26 24.47 14.27 24.47 14.27 24.47 14.27 24.46 14.27 24.46 14.27 24.46 14.27 24.46 14.28 24.46 14.28 24.46 14.28 24.46 14.28 24.45 14.28 24.45 14.28 24.45 14.29 24.45 14.29 24.45 14.29 24.45 14.29 24.44 14.29 24.44 14.29 24.44 14.3 24.44 14.3 24.44 14.3 24.44 14.3 24.43 14.3 24.43 14.3 24.43 14.31 24.43 14.31 24.43 14.31 24.43 14.31 24.42 14.31 24.42 14.31 24.42 14.32 24.42 14.32 24.42 14.32 24.42 14.32 24.41 14.32 24.41 14.37 24.37 14.12 24.13 14.08 24.17 14.07 24.17 14.07 24.17 14.07 24.18 14.07 24.18 14.07 24.18 14.07 24.18 14.06 24.18 14.06 24.18 14.06 24.19 14.06 24.19 14.06 24.19 14.06 24.19 14.05 24.19 14.05 24.19 14.05 24.2 14.05 24.2 14.05 24.2 14.05 24.2 14.04 24.2 14.04 24.2 14.04 24.2 14.04 24.21 14.04 24.21 14.04 24.21 14.04 24.21 14.03 24.21 14.03 24.21 14.03 24.22 14.03 24.22 14.03 24.22 14.03 24.22 14.02 24.22 14.02 24.23 14.02 24.23 14.02 24.23 14.02 24.23 14.02 24.23 14.01 24.23 14.01 24.23 14.01 24.24 14.01 24.24 14.01 24.24 14.01 24.24 14 24.24 14 24.25 14 24.25 14 24.25 14 24.25 13.99 24.25 13.99 24.25 13.99 24.25 13.99 24.26 13.99 24.26 13.99 24.26 13.98 24.26 13.98 24.26 13.98 24.26 13.98 24.27 13.98 24.27 13.98 24.27 13.97 24.27 13.97 24.27 13.97 24.27 13.97 24.28 13.97 24.28 13.97 24.28 13.96 24.28 13.96 24.28 13.96 24.28 13.96 24.29 13.96 24.29 13.96 24.29 13.96 24.29 13.95 24.29 13.95 24.29 13.95 24.3 13.95 24.3 13.95 24.3 13.95 24.3 13.94 24.3 13.94 24.3 13.94 24.3 13.94 24.31 13.94 24.31 13.94 24.31 13.93 24.31 13.93 24.31 13.93 24.32 13.93 24.32 13.93 24.32 13.93 24.32 13.92 24.32 13.92 24.32 13.92 24.32 13.92 24.33 13.92 24.33 13.91 24.33 13.91 24.33 13.91 24.33 13.91 24.34 13.91 24.34 13.91 24.34 14.15 24.58 14.15 24.58"/><polygon class="cls-1" points="13.65 25.02 13.65 25.02 13.65 25.02 13.66 25.01 13.66 25.01 13.66 25.01 13.66 25.01 13.66 25.01 13.7 24.98 13.51 24.79 13.47 24.82 13.47 24.82 13.47 24.82 13.47 24.82 13.46 24.82 13.46 24.83 13.46 24.83 13.46 24.83 13.46 24.83 13.46 24.83 13.46 24.83 13.46 24.83 13.46 24.84 13.45 24.84 13.45 24.84 13.45 24.84 13.45 24.84 13.45 24.84 13.45 24.84 13.45 24.84 13.44 24.85 13.44 24.85 13.44 24.85 13.44 24.85 13.44 24.85 13.44 24.85 13.44 24.85 13.44 24.86 13.43 24.86 13.43 24.86 13.43 24.86 13.43 24.86 13.43 24.86 13.43 24.86 13.43 24.86 13.43 24.86 13.42 24.87 13.42 24.87 13.42 24.87 13.42 24.87 13.42 24.87 13.42 24.87 13.42 24.87 13.41 24.88 13.41 24.88 13.41 24.88 13.41 24.88 13.41 24.88 13.41 24.88 13.41 24.88 13.4 24.88 13.4 24.89 13.4 24.89 13.4 24.89 13.4 24.89 13.4 24.89 13.4 24.89 13.4 24.89 13.39 24.89 13.39 24.89 13.39 24.9 13.39 24.9 13.39 24.9 13.39 24.9 13.39 24.9 13.39 24.9 13.38 24.9 13.38 24.91 13.38 24.91 13.38 24.91 13.38 24.91 13.38 24.91 13.38 24.91 13.38 24.91 13.37 24.91 13.37 24.92 13.37 24.92 13.37 24.92 13.37 24.92 13.37 24.92 13.37 24.92 13.37 24.92 13.36 24.93 13.36 24.93 13.36 24.93 13.36 24.93 13.36 24.93 13.36 24.93 13.36 24.93 13.36 24.93 13.35 24.93 13.35 24.94 13.35 24.94 13.35 24.94 13.35 24.94 13.35 24.94 13.35 24.94 13.34 24.94 13.34 24.95 13.34 24.95 13.34 24.95 13.34 24.95 13.34 24.95 13.53 25.14 13.53 25.14 13.53 25.14 13.53 25.13 13.54 25.13 13.54 25.13 13.54 25.13 13.54 25.13 13.54 25.13 13.54 25.13 13.54 25.13 13.54 25.12 13.54 25.12 13.55 25.12 13.55 25.12 13.55 25.12 13.55 25.12 13.55 25.12 13.55 25.11 13.55 25.11 13.55 25.11 13.56 25.11 13.56 25.11 13.56 25.11 13.56 25.11 13.56 25.11 13.56 25.11 13.56 25.1 13.57 25.1 13.57 25.1 13.57 25.1 13.57 25.1 13.57 25.1 13.57 25.1 13.57 25.09 13.57 25.09 13.58 25.09 13.58 25.09 13.58 25.09 13.58 25.09 13.58 25.09 13.58 25.09 13.58 25.09 13.59 25.08 13.59 25.08 13.59 25.08 13.59 25.08 13.59 25.08 13.59 25.08 13.59 25.08 13.59 25.07 13.6 25.07 13.6 25.07 13.6 25.07 13.6 25.07 13.6 25.07 13.6 25.07 13.6 25.07 13.61 25.06 13.61 25.06 13.61 25.06 13.61 25.06 13.61 25.06 13.61 25.06 13.61 25.06 13.61 25.05 13.62 25.05 13.62 25.05 13.62 25.05 13.62 25.05 13.62 25.05 13.62 25.05 13.62 25.05 13.62 25.05 13.63 25.04 13.63 25.04 13.63 25.04 13.63 25.04 13.63 25.04 13.63 25.04 13.63 25.04 13.63 25.04 13.64 25.03 13.64 25.03 13.64 25.03 13.64 25.03 13.64 25.03 13.64 25.03 13.64 25.03 13.64 25.02 13.65 25.02 13.65 25.02 13.65 25.02 13.65 25.02 13.65 25.02 13.65 25.02"/><polygon class="cls-1" points="12.86 25.47 12.86 25.47 12.86 25.47 12.86 25.47 12.86 25.47 12.86 25.47 12.86 25.48 12.86 25.48 12.86 25.48 12.86 25.48 12.86 25.48 12.85 25.48 12.85 25.48 12.85 25.48 12.85 25.48 12.85 25.48 12.85 25.48 12.85 25.48 12.85 25.49 12.85 25.49 12.85 25.49 12.85 25.49 12.84 25.49 12.84 25.49 12.84 25.49 12.84 25.49 12.84 25.49 12.84 25.49 12.84 25.5 12.84 25.5 12.84 25.5 12.84 25.5 12.83 25.5 12.83 25.5 12.83 25.5 12.83 25.5 12.83 25.5 12.83 25.5 12.83 25.5 12.83 25.5 12.83 25.51 12.83 25.51 12.82 25.51 12.82 25.51 12.82 25.51 12.82 25.51 12.82 25.51 12.82 25.51 12.82 25.51 12.82 25.51 12.82 25.52 12.82 25.52 12.82 25.52 12.81 25.52 12.81 25.52 12.81 25.52 12.81 25.52 12.81 25.52 12.81 25.52 12.81 25.52 12.81 25.52 12.81 25.52 12.81 25.53 12.81 25.53 12.8 25.53 12.8 25.53 12.8 25.53 12.8 25.53 12.8 25.53 12.8 25.53 12.8 25.53 12.8 25.53 12.8 25.54 12.8 25.54 12.8 25.54 12.79 25.54 12.79 25.54 12.79 25.54 12.79 25.54 12.79 25.54 12.79 25.54 12.79 25.54 12.79 25.54 12.79 25.55 12.79 25.55 12.79 25.55 12.78 25.55 12.78 25.55 12.78 25.55 12.78 25.55 12.78 25.55 12.78 25.55 12.78 25.55 12.78 25.55 12.78 25.55 12.78 25.56 12.78 25.56 12.77 25.56 12.77 25.56 12.77 25.56 12.77 25.56 12.77 25.56 12.77 25.56 12.91 25.7 12.91 25.7 12.91 25.7 12.91 25.69 12.91 25.69 12.91 25.69 12.91 25.69 12.91 25.69 12.91 25.69 12.91 25.69 12.92 25.69 12.92 25.69 12.92 25.68 12.92 25.68 12.92 25.68 12.92 25.68 12.92 25.68 12.92 25.68 12.92 25.68 12.92 25.68 12.93 25.68 12.93 25.68 12.93 25.68 12.93 25.68 12.93 25.68 12.93 25.67 12.93 25.67 12.93 25.67 12.93 25.67 12.93 25.67 12.93 25.67 12.94 25.67 12.94 25.67 12.94 25.67 12.94 25.67 12.94 25.66 12.94 25.66 12.94 25.66 12.94 25.66 12.94 25.66 12.94 25.66 12.94 25.66 12.95 25.66 12.95 25.66 12.95 25.66 12.95 25.66 12.95 25.66 12.95 25.65 12.95 25.65 12.95 25.65 12.95 25.65 12.95 25.65 12.96 25.65 12.96 25.65 12.96 25.65 12.96 25.65 12.96 25.65 12.96 25.64 12.96 25.64 12.96 25.64 12.96 25.64 12.96 25.64 12.96 25.64 12.96 25.64 12.97 25.64 12.97 25.64 12.97 25.64 12.97 25.64 12.97 25.64 12.97 25.63 12.97 25.63 12.97 25.63 12.97 25.63 12.97 25.63 12.97 25.63 12.98 25.63 12.98 25.63 12.98 25.63 12.98 25.63 12.98 25.63 12.98 25.62 12.98 25.62 12.98 25.62 12.98 25.62 12.98 25.62 12.98 25.62 12.99 25.62 12.99 25.62 12.99 25.62 12.99 25.62 12.99 25.61 12.99 25.61 12.99 25.61 12.99 25.61 12.99 25.61 12.99 25.61 12.99 25.61 13 25.61 13 25.61 13 25.61 13 25.61 13 25.61 13 25.6 13.03 25.58 12.89 25.45 12.86 25.47"/><polygon class="cls-1" points="12.31 26.07 12.31 26.07 12.31 26.07 12.31 26.07 12.31 26.07 12.31 26.07 12.3 26.07 12.3 26.07 12.3 26.07 12.3 26.07 12.3 26.07 12.3 26.07 12.3 26.07 12.3 26.07 12.3 26.07 12.3 26.08 12.3 26.08 12.3 26.08 12.3 26.08 12.3 26.08 12.3 26.08 12.3 26.08 12.3 26.08 12.3 26.08 12.29 26.08 12.29 26.08 12.29 26.08 12.29 26.08 12.29 26.08 12.29 26.08 12.29 26.08 12.29 26.09 12.29 26.09 12.29 26.09 12.29 26.09 12.29 26.09 12.29 26.09 12.29 26.09 12.29 26.09 12.29 26.09 12.29 26.09 12.29 26.09 12.29 26.09 12.29 26.09 12.28 26.09 12.28 26.09 12.28 26.09 12.28 26.09 12.28 26.09 12.28 26.09 12.28 26.09 12.28 26.09 12.28 26.1 12.28 26.1 12.28 26.1 12.28 26.1 12.28 26.1 12.28 26.1 12.28 26.1 12.28 26.1 12.28 26.1 12.28 26.1 12.27 26.1 12.27 26.1 12.27 26.1 12.27 26.1 12.27 26.1 12.27 26.1 12.27 26.11 12.27 26.11 12.27 26.11 12.27 26.11 12.27 26.11 12.27 26.11 12.27 26.11 12.27 26.11 12.27 26.11 12.27 26.11 12.27 26.11 12.27 26.11 12.26 26.11 12.26 26.11 12.26 26.11 12.26 26.11 12.26 26.11 12.26 26.11 12.26 26.11 12.26 26.11 12.26 26.12 12.26 26.12 12.26 26.12 12.26 26.12 12.26 26.12 12.26 26.12 12.26 26.12 12.26 26.12 12.26 26.12 12.26 26.12 12.25 26.12 12.25 26.12 12.25 26.12 12.25 26.12 12.25 26.12 12.33 26.2 12.34 26.2 12.34 26.2 12.34 26.2 12.34 26.2 12.34 26.2 12.34 26.2 12.34 26.2 12.34 26.2 12.34 26.2 12.34 26.2 12.34 26.2 12.34 26.2 12.34 26.2 12.34 26.2 12.34 26.2 12.34 26.2 12.34 26.2 12.34 26.19 12.35 26.19 12.35 26.19 12.35 26.19 12.35 26.19 12.35 26.19 12.35 26.19 12.35 26.19 12.35 26.19 12.35 26.19 12.35 26.19 12.35 26.19 12.35 26.19 12.35 26.19 12.35 26.19 12.35 26.19 12.35 26.18 12.35 26.18 12.35 26.18 12.36 26.18 12.36 26.18 12.36 26.18 12.36 26.18 12.36 26.18 12.36 26.18 12.36 26.18 12.36 26.18 12.36 26.18 12.36 26.18 12.36 26.18 12.36 26.18 12.36 26.18 12.36 26.18 12.36 26.18 12.36 26.18 12.36 26.18 12.36 26.17 12.37 26.17 12.37 26.17 12.37 26.17 12.37 26.17 12.37 26.17 12.37 26.17 12.37 26.17 12.37 26.17 12.37 26.17 12.37 26.17 12.37 26.17 12.37 26.17 12.37 26.17 12.37 26.17 12.37 26.17 12.37 26.17 12.37 26.16 12.37 26.16 12.38 26.16 12.38 26.16 12.38 26.16 12.38 26.16 12.38 26.16 12.38 26.16 12.38 26.16 12.38 26.16 12.38 26.16 12.38 26.16 12.38 26.16 12.38 26.16 12.38 26.16 12.38 26.16 12.38 26.16 12.38 26.16 12.38 26.16 12.38 26.16 12.38 26.15 12.38 26.15 12.39 26.15 12.39 26.15 12.39 26.15 12.39 26.15 12.39 26.15 12.39 26.15 12.39 26.15 12.39 26.15 12.39 26.15 12.39 26.15 12.41 26.13 12.32 26.05 12.31 26.07"/><polygon class="cls-1" points="17.39 24.5 17.39 24.5 17.39 24.5 17.39 24.5 17.38 24.5 17.38 24.51 17.38 24.51 17.38 24.51 17.37 24.52 17.37 24.52 17.37 24.52 17.37 24.52 17.36 24.52 17.36 24.53 17.36 24.53 17.36 24.53 17.36 24.53 17.35 24.54 17.35 24.54 17.35 24.54 17.35 24.54 17.34 24.55 17.34 24.55 17.34 24.55 17.34 24.55 17.33 24.55 17.33 24.56 17.33 24.56 17.33 24.56 17.32 24.56 17.32 24.57 17.32 24.57 17.32 24.57 17.31 24.57 17.31 24.58 17.31 24.58 17.31 24.58 17.3 24.58 17.3 24.59 17.3 24.59 17.3 24.59 17.07 24.82 17.07 24.82 17.06 24.82 17.06 24.83 17.06 24.83 17.06 24.83 17.05 24.83 17.05 24.84 17.05 24.84 17.05 24.84 17.05 24.84 17.04 24.84 17.04 24.85 17.04 24.85 17.04 24.85 17.03 24.85 17.03 24.86 17.03 24.86 17.03 24.86 17.02 24.86 17.02 24.87 17.02 24.87 17.02 24.87 17.01 24.87 17.01 24.88 17.01 24.88 17.01 24.88 17 24.88 17 24.89 17 24.89 17 24.89 17 24.89 16.99 24.89 16.99 24.9 16.99 24.9 16.98 24.9 16.98 24.9 16.98 24.91 16.98 24.91 16.98 24.91 16.97 24.91 16.97 24.92 16.97 24.92 16.97 24.92 16.96 24.92 16.96 24.93 16.96 24.93 16.96 24.93 16.95 24.93 16.95 24.93 16.95 24.94 16.95 24.94 16.94 24.94 16.94 24.94 16.94 24.95 16.94 24.95 16.93 24.95 16.93 24.95 16.93 24.96 16.93 24.96 16.93 24.96 16.92 24.96 17.28 25.31 17.28 25.31 17.28 25.31 17.29 25.3 17.29 25.3 17.29 25.3 17.29 25.3 17.3 25.3 17.3 25.29 17.3 25.29 17.3 25.29 17.3 25.29 17.31 25.28 17.31 25.28 17.31 25.28 17.31 25.28 17.32 25.27 17.32 25.27 17.32 25.27 17.32 25.27 17.33 25.27 17.33 25.26 17.33 25.26 17.33 25.26 17.34 25.25 17.34 25.25 17.34 25.25 17.34 25.25 17.34 25.25 17.35 25.24 17.35 25.24 17.35 25.24 17.36 25.24 17.36 25.23 17.36 25.23 17.36 25.23 17.36 25.23 17.37 25.23 17.37 25.22 17.37 25.22 17.37 25.22 17.38 25.21 17.38 25.21 17.38 25.21 17.38 25.21 17.39 25.21 17.39 25.2 17.39 25.2 17.39 25.2 17.4 25.2 17.4 25.19 17.4 25.19 17.4 25.19 17.41 25.19 17.41 25.18 17.41 25.18 17.41 25.18 17.41 25.18 17.42 25.18 17.42 25.17 17.65 24.95 17.65 24.94 17.65 24.94 17.66 24.94 17.66 24.93 17.66 24.93 17.66 24.93 17.66 24.93 17.67 24.93 17.67 24.92 17.67 24.92 17.68 24.92 17.68 24.92 17.68 24.91 17.68 24.91 17.68 24.91 17.69 24.91 17.69 24.9 17.69 24.9 17.69 24.9 17.7 24.9 17.7 24.89 17.7 24.89 17.7 24.89 17.71 24.89 17.71 24.89 17.71 24.88 17.71 24.88 17.72 24.88 17.72 24.88 17.72 24.87 17.72 24.87 17.73 24.87 17.73 24.87 17.73 24.86 17.73 24.86 17.73 24.86 17.74 24.86 17.74 24.86 17.74 24.85 17.74 24.85 17.75 24.85 17.75 24.84 17.81 24.78 17.46 24.43 17.39 24.5"/><polygon class="cls-1" points="16.73 25.8 16.73 25.79 16.73 25.79 16.74 25.79 16.74 25.79 16.74 25.79 16.74 25.78 16.75 25.78 16.75 25.78 16.75 25.78 16.75 25.78 16.75 25.77 16.75 25.77 16.76 25.77 16.76 25.77 16.76 25.77 16.76 25.76 16.77 25.76 16.77 25.76 16.77 25.76 16.77 25.76 16.77 25.75 16.77 25.75 16.78 25.75 16.78 25.75 16.78 25.75 16.78 25.74 16.79 25.74 16.79 25.74 16.79 25.74 16.79 25.74 16.79 25.73 16.8 25.73 16.8 25.73 16.8 25.73 16.8 25.73 16.8 25.72 16.79 25.74 16.79 25.74 16.79 25.73 16.8 25.73 16.8 25.73 16.8 25.73 16.8 25.73 16.8 25.73 16.8 25.72 16.81 25.72 16.81 25.72 16.81 25.72 16.81 25.71 16.82 25.71 16.82 25.71 16.82 25.71 16.82 25.71 16.82 25.7 16.82 25.7 16.83 25.7 16.83 25.7 16.83 25.7 16.83 25.7 16.84 25.69 16.84 25.69 16.84 25.69 16.84 25.69 16.84 25.68 16.85 25.68 16.85 25.68 16.85 25.68 16.85 25.68 16.85 25.68 16.86 25.67 16.86 25.67 16.86 25.67 16.86 25.67 16.86 25.66 16.87 25.66 16.87 25.66 16.87 25.66 16.87 25.66 16.87 25.66 16.93 25.6 16.63 25.31 16.57 25.36 16.57 25.36 16.57 25.36 16.57 25.36 16.57 25.37 16.56 25.37 16.56 25.37 16.56 25.37 16.56 25.38 16.55 25.38 16.55 25.38 16.55 25.38 16.55 25.38 16.55 25.39 16.55 25.39 16.54 25.39 16.54 25.39 16.54 25.39 16.54 25.39 16.54 25.4 16.53 25.4 16.53 25.4 16.53 25.4 16.53 25.41 16.52 25.41 16.52 25.41 16.52 25.41 16.52 25.41 16.52 25.41 16.51 25.42 16.51 25.42 16.51 25.42 16.51 25.42 16.51 25.43 16.5 25.43 16.5 25.43 16.5 25.43 16.5 25.43 16.5 25.43 16.49 25.44 16.49 25.44 16.49 25.44 16.5 25.43 16.5 25.43 16.5 25.43 16.5 25.43 16.5 25.43 16.5 25.44 16.49 25.44 16.49 25.44 16.49 25.44 16.49 25.44 16.48 25.45 16.48 25.45 16.48 25.45 16.48 25.45 16.48 25.45 16.47 25.46 16.47 25.46 16.47 25.46 16.47 25.46 16.47 25.46 16.46 25.47 16.46 25.47 16.46 25.47 16.46 25.47 16.46 25.47 16.45 25.48 16.45 25.48 16.45 25.48 16.45 25.48 16.45 25.48 16.44 25.49 16.44 25.49 16.44 25.49 16.44 25.49 16.44 25.49 16.43 25.5 16.43 25.5 16.43 25.5 16.43 25.5 16.43 25.5 16.42 25.51 16.42 25.51 16.42 25.51 16.42 25.51 16.41 25.51 16.41 25.52 16.41 25.52 16.41 25.52 16.41 25.52 16.41 25.52 16.4 25.53 16.4 25.53 16.4 25.53 16.4 25.53 16.39 25.53 16.39 25.54 16.39 25.54 16.39 25.54 16.39 25.54 16.39 25.54 16.38 25.55 16.68 25.84 16.69 25.84 16.69 25.84 16.69 25.84 16.69 25.83 16.69 25.83 16.7 25.83 16.7 25.83 16.7 25.83 16.7 25.82 16.7 25.82 16.71 25.82 16.71 25.82 16.71 25.82 16.71 25.81 16.71 25.81 16.72 25.81 16.72 25.81 16.72 25.81 16.72 25.8 16.72 25.8 16.73 25.8 16.73 25.8 16.73 25.8"/><polygon class="cls-1" points="16.16 26.3 16.16 26.3 16.16 26.3 16.17 26.3 16.17 26.3 16.17 26.29 16.17 26.29 16.17 26.29 16.18 26.29 16.18 26.29 16.18 26.29 16.18 26.28 16.18 26.28 16.18 26.28 16.18 26.28 16.19 26.28 16.19 26.27 16.19 26.27 16.19 26.27 16.19 26.27 16.2 26.27 16.2 26.27 16.2 26.27 16.2 26.26 16.2 26.26 16.2 26.26 16.25 26.22 16 25.98 15.96 26.02 15.96 26.02 15.95 26.02 15.95 26.02 15.95 26.02 15.95 26.03 15.95 26.03 15.95 26.03 15.94 26.03 15.94 26.03 15.94 26.04 15.94 26.04 15.94 26.04 15.94 26.04 15.93 26.04 15.93 26.04 15.93 26.05 15.93 26.05 15.93 26.05 15.93 26.05 15.92 26.05 15.92 26.05 15.92 26.05 15.92 26.06 15.92 26.06 15.91 26.06 15.91 26.06 15.91 26.06 15.91 26.06 15.91 26.07 15.91 26.07 15.9 26.07 15.9 26.07 15.9 26.07 15.9 26.07 15.9 26.08 15.9 26.08 15.89 26.08 15.89 26.08 15.89 26.08 15.89 26.08 15.89 26.09 15.89 26.09 15.88 26.09 15.88 26.09 15.88 26.09 15.88 26.09 15.88 26.09 15.88 26.1 15.88 26.1 15.87 26.1 15.87 26.1 15.87 26.1 15.87 26.11 15.87 26.11 15.87 26.11 15.86 26.11 15.86 26.11 15.86 26.11 15.86 26.11 15.86 26.12 15.86 26.12 15.85 26.12 15.85 26.12 15.85 26.12 15.85 26.13 15.85 26.13 15.85 26.13 15.84 26.13 15.84 26.13 15.84 26.13 15.84 26.14 15.84 26.14 15.84 26.14 15.83 26.14 15.83 26.14 15.83 26.14 15.83 26.14 15.83 26.15 15.82 26.15 15.82 26.15 15.82 26.15 15.82 26.15 15.82 26.15 15.82 26.16 15.81 26.16 15.81 26.16 15.81 26.16 15.81 26.16 15.81 26.16 15.81 26.17 15.8 26.17 15.8 26.17 15.8 26.17 15.8 26.17 15.8 26.17 15.8 26.18 15.79 26.18 15.79 26.18 15.79 26.18 15.79 26.18 15.79 26.18 15.79 26.18 16.03 26.43 16.04 26.43 16.04 26.42 16.04 26.42 16.04 26.42 16.04 26.42 16.04 26.42 16.05 26.42 16.05 26.41 16.05 26.41 16.05 26.41 16.05 26.41 16.05 26.41 16.05 26.41 16.06 26.4 16.06 26.4 16.06 26.4 16.06 26.4 16.06 26.4 16.07 26.4 16.07 26.39 16.07 26.39 16.07 26.39 16.07 26.39 16.07 26.39 16.07 26.39 16.08 26.39 16.08 26.38 16.08 26.38 16.08 26.38 16.08 26.38 16.09 26.38 16.09 26.38 16.09 26.37 16.09 26.37 16.09 26.37 16.09 26.37 16.09 26.37 16.1 26.36 16.1 26.36 16.1 26.36 16.1 26.36 16.1 26.36 16.11 26.36 16.11 26.36 16.11 26.35 16.11 26.35 16.11 26.35 16.11 26.35 16.11 26.35 16.12 26.34 16.12 26.34 16.12 26.34 16.12 26.34 16.12 26.34 16.13 26.34 16.13 26.34 16.13 26.33 16.13 26.33 16.13 26.33 16.13 26.33 16.14 26.33 16.14 26.33 16.14 26.32 16.14 26.32 16.14 26.32 16.14 26.32 16.14 26.32 16.15 26.32 16.15 26.31 16.15 26.31 16.15 26.31 16.15 26.31 16.16 26.31 16.16 26.31 16.16 26.3 16.16 26.3 16.16 26.3"/><polygon class="cls-1" points="15.35 26.67 15.35 26.67 15.35 26.67 15.35 26.67 15.35 26.67 15.34 26.67 15.34 26.68 15.34 26.68 15.34 26.68 15.34 26.68 15.34 26.68 15.34 26.68 15.34 26.68 15.33 26.68 15.33 26.68 15.33 26.69 15.33 26.69 15.33 26.69 15.33 26.69 15.33 26.69 15.32 26.69 15.32 26.69 15.32 26.7 15.32 26.7 15.32 26.7 15.32 26.7 15.32 26.7 15.32 26.7 15.31 26.7 15.31 26.7 15.31 26.71 15.31 26.71 15.31 26.71 15.31 26.71 15.31 26.71 15.3 26.71 15.3 26.71 15.3 26.71 15.3 26.72 15.3 26.72 15.3 26.72 15.3 26.72 15.3 26.72 15.29 26.72 15.29 26.72 15.29 26.73 15.29 26.73 15.29 26.73 15.29 26.73 15.29 26.73 15.29 26.73 15.29 26.73 15.28 26.73 15.28 26.73 15.28 26.74 15.28 26.74 15.28 26.74 15.28 26.74 15.28 26.74 15.27 26.74 15.27 26.74 15.27 26.75 15.27 26.75 15.27 26.75 15.27 26.75 15.27 26.75 15.27 26.75 15.26 26.75 15.26 26.75 15.26 26.75 15.26 26.76 15.26 26.76 15.26 26.76 15.26 26.76 15.26 26.76 15.25 26.76 15.25 26.76 15.25 26.77 15.25 26.77 15.25 26.77 15.25 26.77 15.25 26.77 15.24 26.77 15.24 26.77 15.24 26.77 15.24 26.78 15.24 26.78 15.24 26.78 15.24 26.78 15.24 26.78 15.23 26.78 15.23 26.78 15.23 26.79 15.23 26.79 15.23 26.79 15.23 26.79 15.23 26.79 15.22 26.79 15.22 26.79 15.22 26.79 15.22 26.8 15.22 26.8 15.22 26.8 15.41 26.99 15.41 26.98 15.41 26.98 15.41 26.98 15.41 26.98 15.42 26.98 15.42 26.98 15.42 26.98 15.42 26.98 15.42 26.97 15.42 26.97 15.42 26.97 15.43 26.97 15.43 26.97 15.43 26.97 15.43 26.97 15.43 26.96 15.43 26.96 15.43 26.96 15.44 26.96 15.44 26.96 15.44 26.96 15.44 26.96 15.44 26.96 15.44 26.95 15.44 26.95 15.44 26.95 15.45 26.95 15.45 26.95 15.45 26.95 15.45 26.95 15.45 26.95 15.45 26.95 15.45 26.94 15.45 26.94 15.46 26.94 15.46 26.94 15.46 26.94 15.46 26.94 15.46 26.94 15.46 26.93 15.46 26.93 15.46 26.93 15.47 26.93 15.47 26.93 15.47 26.93 15.47 26.93 15.47 26.93 15.47 26.92 15.47 26.92 15.47 26.92 15.48 26.92 15.48 26.92 15.48 26.92 15.48 26.92 15.48 26.92 15.48 26.91 15.48 26.91 15.48 26.91 15.49 26.91 15.49 26.91 15.49 26.91 15.49 26.91 15.49 26.91 15.49 26.9 15.49 26.9 15.5 26.9 15.5 26.9 15.5 26.9 15.5 26.9 15.5 26.9 15.5 26.89 15.5 26.89 15.51 26.89 15.51 26.89 15.51 26.89 15.51 26.89 15.51 26.89 15.51 26.89 15.51 26.89 15.51 26.88 15.52 26.88 15.52 26.88 15.52 26.88 15.52 26.88 15.52 26.88 15.52 26.88 15.52 26.88 15.52 26.87 15.53 26.87 15.53 26.87 15.53 26.87 15.53 26.87 15.53 26.87 15.53 26.87 15.53 26.86 15.53 26.86 15.54 26.86 15.54 26.86 15.54 26.86 15.54 26.86 15.54 26.86 15.54 26.86 15.58 26.82 15.38 26.63 15.35 26.67"/><polygon class="cls-1" points="14.74 27.32 14.74 27.32 14.74 27.32 14.74 27.32 14.74 27.32 14.74 27.32 14.74 27.32 14.74 27.32 14.74 27.32 14.74 27.32 14.73 27.33 14.73 27.33 14.73 27.33 14.73 27.33 14.73 27.33 14.73 27.33 14.73 27.33 14.73 27.33 14.73 27.33 14.73 27.33 14.73 27.34 14.72 27.34 14.72 27.34 14.72 27.34 14.72 27.34 14.72 27.34 14.72 27.34 14.72 27.34 14.72 27.34 14.72 27.34 14.72 27.34 14.72 27.34 14.71 27.35 14.71 27.35 14.71 27.35 14.71 27.35 14.71 27.35 14.71 27.35 14.71 27.35 14.71 27.35 14.71 27.35 14.71 27.35 14.71 27.36 14.71 27.36 14.7 27.36 14.7 27.36 14.7 27.36 14.7 27.36 14.7 27.36 14.7 27.36 14.7 27.36 14.7 27.36 14.7 27.36 14.7 27.36 14.7 27.37 14.69 27.37 14.69 27.37 14.69 27.37 14.69 27.37 14.69 27.37 14.69 27.37 14.69 27.37 14.69 27.37 14.69 27.37 14.69 27.38 14.69 27.38 14.68 27.38 14.68 27.38 14.68 27.38 14.68 27.38 14.68 27.38 14.68 27.38 14.68 27.38 14.68 27.38 14.68 27.38 14.68 27.39 14.67 27.39 14.67 27.39 14.67 27.39 14.67 27.39 14.67 27.39 14.67 27.39 14.67 27.39 14.67 27.39 14.67 27.39 14.67 27.39 14.66 27.39 14.66 27.4 14.66 27.4 14.66 27.4 14.66 27.4 14.66 27.4 14.66 27.4 14.66 27.4 14.66 27.4 14.66 27.4 14.66 27.4 14.65 27.41 14.65 27.41 14.65 27.41 14.65 27.41 14.65 27.41 14.65 27.41 14.79 27.54 14.79 27.54 14.79 27.54 14.79 27.54 14.79 27.54 14.79 27.54 14.79 27.54 14.79 27.54 14.79 27.54 14.79 27.54 14.8 27.54 14.8 27.53 14.8 27.53 14.8 27.53 14.8 27.53 14.8 27.53 14.8 27.53 14.8 27.53 14.8 27.53 14.8 27.53 14.81 27.53 14.81 27.52 14.81 27.52 14.81 27.52 14.81 27.52 14.81 27.52 14.81 27.52 14.81 27.52 14.81 27.52 14.81 27.52 14.81 27.52 14.82 27.52 14.82 27.52 14.82 27.51 14.82 27.51 14.82 27.51 14.82 27.51 14.82 27.51 14.82 27.51 14.82 27.51 14.82 27.51 14.82 27.51 14.83 27.51 14.83 27.5 14.83 27.5 14.83 27.5 14.83 27.5 14.83 27.5 14.83 27.5 14.83 27.5 14.83 27.5 14.83 27.5 14.84 27.5 14.84 27.5 14.84 27.5 14.84 27.49 14.84 27.49 14.84 27.49 14.84 27.49 14.84 27.49 14.84 27.49 14.84 27.49 14.84 27.49 14.85 27.49 14.85 27.49 14.85 27.48 14.85 27.48 14.85 27.48 14.85 27.48 14.85 27.48 14.85 27.48 14.85 27.48 14.85 27.48 14.86 27.48 14.86 27.48 14.86 27.48 14.86 27.48 14.86 27.47 14.86 27.47 14.86 27.47 14.86 27.47 14.86 27.47 14.86 27.47 14.86 27.47 14.87 27.47 14.87 27.47 14.87 27.47 14.87 27.46 14.87 27.46 14.87 27.46 14.87 27.46 14.87 27.46 14.87 27.46 14.87 27.46 14.87 27.46 14.88 27.46 14.88 27.46 14.88 27.46 14.88 27.45 14.88 27.45 14.88 27.45 14.88 27.45 14.88 27.45 14.91 27.43 14.77 27.29 14.74 27.32"/><polygon class="cls-1" points="14.17 27.93 14.17 27.93 14.17 27.93 14.17 27.93 14.17 27.93 14.17 27.93 14.17 27.93 14.17 27.94 14.17 27.94 14.17 27.94 14.17 27.94 14.17 27.94 14.17 27.94 14.17 27.94 14.16 27.94 14.16 27.94 14.16 27.94 14.16 27.94 14.16 27.94 14.16 27.94 14.16 27.94 14.16 27.94 14.16 27.94 14.16 27.94 14.16 27.95 14.16 27.95 14.16 27.95 14.16 27.95 14.16 27.95 14.16 27.95 14.16 27.95 14.16 27.95 14.15 27.95 14.15 27.95 14.15 27.95 14.15 27.95 14.15 27.95 14.15 27.95 14.15 27.95 14.15 27.95 14.15 27.95 14.15 27.95 14.15 27.95 14.15 27.95 14.15 27.96 14.15 27.96 14.15 27.96 14.15 27.96 14.15 27.96 14.15 27.96 14.14 27.96 14.14 27.96 14.14 27.96 14.14 27.96 14.14 27.96 14.14 27.96 14.14 27.96 14.14 27.96 14.14 27.96 14.14 27.96 14.14 27.96 14.14 27.96 14.14 27.97 14.14 27.97 14.14 27.97 14.14 27.97 14.14 27.97 14.14 27.97 14.13 27.97 14.13 27.97 14.13 27.97 14.13 27.97 14.13 27.97 14.13 27.97 14.13 27.97 14.13 27.97 14.13 27.97 14.13 27.97 14.13 27.97 14.13 27.98 14.13 27.98 14.13 27.98 14.13 27.98 14.13 27.98 14.13 27.98 14.13 27.98 14.13 27.98 14.13 27.98 14.12 27.98 14.12 27.98 14.12 27.98 14.12 27.98 14.12 27.98 14.12 27.98 14.12 27.98 14.12 27.98 14.12 27.98 14.12 27.98 14.12 27.98 14.12 27.99 14.12 27.99 14.12 27.99 14.12 27.99 14.2 28.07 14.2 28.07 14.2 28.07 14.2 28.07 14.2 28.07 14.2 28.07 14.2 28.07 14.2 28.06 14.2 28.06 14.2 28.06 14.2 28.06 14.2 28.06 14.21 28.06 14.21 28.06 14.21 28.06 14.21 28.06 14.21 28.06 14.21 28.06 14.21 28.06 14.21 28.06 14.21 28.06 14.21 28.06 14.21 28.06 14.21 28.05 14.21 28.05 14.21 28.05 14.21 28.05 14.21 28.05 14.21 28.05 14.21 28.05 14.21 28.05 14.22 28.05 14.22 28.05 14.22 28.05 14.22 28.05 14.22 28.05 14.22 28.05 14.22 28.05 14.22 28.05 14.22 28.05 14.22 28.05 14.22 28.05 14.22 28.05 14.22 28.04 14.22 28.04 14.22 28.04 14.22 28.04 14.22 28.04 14.22 28.04 14.22 28.04 14.23 28.04 14.23 28.04 14.23 28.04 14.23 28.04 14.23 28.04 14.23 28.04 14.23 28.04 14.23 28.04 14.23 28.04 14.23 28.04 14.23 28.04 14.23 28.04 14.23 28.03 14.23 28.03 14.23 28.03 14.23 28.03 14.23 28.03 14.23 28.03 14.24 28.03 14.24 28.03 14.24 28.03 14.24 28.03 14.24 28.03 14.24 28.03 14.24 28.03 14.24 28.03 14.24 28.03 14.24 28.03 14.24 28.02 14.24 28.02 14.24 28.02 14.24 28.02 14.24 28.02 14.24 28.02 14.24 28.02 14.24 28.02 14.25 28.02 14.25 28.02 14.25 28.02 14.25 28.02 14.25 28.02 14.25 28.02 14.25 28.02 14.25 28.02 14.25 28.02 14.25 28.02 14.25 28.02 14.25 28.02 14.25 28.02 14.25 28.01 14.25 28.01 14.25 28.01 14.26 28.01 14.27 28 14.19 27.92 14.17 27.93"/><polygon class="cls-1" points="17.33 26.14 17.33 26.13 17.33 26.13 17.33 26.13 17.33 26.13 17.34 26.13 17.34 26.12 17.34 26.12 17.34 26.12 17.34 26.12 17.4 26.06 17.1 25.77 17.04 25.82 17.04 25.82 17.04 25.82 17.04 25.83 17.04 25.83 17.03 25.83 17.03 25.83 17.03 25.84 17.03 25.84 17.02 25.84 17.02 25.84 17.02 25.84 17.02 25.84 17.02 25.85 17.02 25.85 17.01 25.85 17.01 25.85 17.01 25.86 17.01 25.86 17 25.86 17 25.86 17 25.86 17 25.86 17 25.87 17 25.87 16.99 25.87 16.99 25.87 16.99 25.88 16.99 25.88 16.98 25.88 16.98 25.88 16.98 25.88 16.98 25.89 16.98 25.89 16.97 25.89 16.97 25.89 16.97 25.89 16.97 25.89 16.97 25.9 16.96 25.9 16.96 25.9 16.96 25.9 16.96 25.91 16.96 25.91 16.97 25.89 16.97 25.89 16.97 25.9 16.96 25.9 16.96 25.9 16.96 25.9 16.96 25.9 16.96 25.91 16.95 25.91 16.95 25.91 16.95 25.91 16.95 25.91 16.95 25.92 16.94 25.92 16.94 25.92 16.94 25.92 16.94 25.92 16.94 25.93 16.93 25.93 16.93 25.93 16.93 25.93 16.93 25.93 16.93 25.94 16.92 25.94 16.92 25.94 16.92 25.94 16.92 25.94 16.92 25.95 16.91 25.95 16.91 25.95 16.91 25.95 16.91 25.95 16.91 25.96 16.9 25.96 16.9 25.96 16.9 25.96 16.9 25.96 16.9 25.97 16.89 25.97 16.89 25.97 16.89 25.97 16.89 25.97 16.89 25.98 16.88 25.98 16.88 25.98 16.88 25.98 16.88 25.98 16.88 25.99 16.87 25.99 16.87 25.99 16.87 25.99 16.87 25.99 16.86 26 16.86 26 16.86 26 16.86 26 16.86 26 16.86 26.01 16.85 26.01 17.15 26.3 17.16 26.3 17.16 26.3 17.16 26.3 17.16 26.3 17.16 26.29 17.17 26.29 17.17 26.29 17.17 26.29 17.17 26.29 17.17 26.28 17.18 26.28 17.18 26.28 17.18 26.28 17.18 26.28 17.18 26.27 17.19 26.27 17.19 26.27 17.19 26.27 17.19 26.27 17.2 26.26 17.2 26.26 17.2 26.26 17.2 26.26 17.2 26.26 17.2 26.25 17.21 26.25 17.21 26.25 17.21 26.25 17.21 26.25 17.21 26.24 17.22 26.24 17.22 26.24 17.22 26.24 17.22 26.24 17.23 26.23 17.23 26.23 17.23 26.23 17.23 26.23 17.23 26.23 17.23 26.22 17.24 26.22 17.24 26.22 17.24 26.22 17.24 26.22 17.25 26.21 17.25 26.21 17.25 26.21 17.25 26.21 17.25 26.21 17.26 26.2 17.26 26.2 17.26 26.2 17.26 26.2 17.26 26.2 17.27 26.19 17.27 26.19 17.25 26.21 17.25 26.2 17.26 26.2 17.26 26.2 17.26 26.2 17.26 26.2 17.27 26.2 17.27 26.19 17.27 26.19 17.27 26.19 17.27 26.19 17.27 26.18 17.28 26.18 17.28 26.18 17.28 26.18 17.28 26.18 17.29 26.18 17.29 26.17 17.29 26.17 17.29 26.17 17.29 26.17 17.3 26.16 17.3 26.16 17.3 26.16 17.3 26.16 17.3 26.16 17.31 26.16 17.31 26.15 17.31 26.15 17.31 26.15 17.31 26.15 17.32 26.14 17.32 26.14 17.32 26.14 17.32 26.14 17.32 26.14 17.33 26.14"/><polygon class="cls-1" points="16.43 26.48 16.43 26.48 16.42 26.48 16.42 26.48 16.42 26.49 16.42 26.49 16.42 26.49 16.41 26.49 16.41 26.49 16.41 26.5 16.41 26.5 16.41 26.5 16.41 26.5 16.41 26.5 16.4 26.5 16.4 26.5 16.4 26.51 16.4 26.51 16.4 26.51 16.39 26.51 16.39 26.51 16.39 26.52 16.39 26.52 16.39 26.52 16.39 26.52 16.39 26.52 16.38 26.52 16.38 26.52 16.38 26.53 16.38 26.53 16.38 26.53 16.38 26.53 16.37 26.53 16.37 26.53 16.37 26.54 16.37 26.54 16.37 26.54 16.36 26.54 16.36 26.54 16.36 26.54 16.36 26.55 16.36 26.55 16.36 26.55 16.36 26.55 16.35 26.55 16.35 26.55 16.35 26.56 16.35 26.56 16.35 26.56 16.34 26.56 16.34 26.56 16.34 26.56 16.34 26.57 16.34 26.57 16.34 26.57 16.34 26.57 16.33 26.57 16.33 26.57 16.33 26.57 16.33 26.58 16.33 26.58 16.32 26.58 16.32 26.58 16.32 26.58 16.32 26.59 16.32 26.59 16.32 26.59 16.32 26.59 16.31 26.59 16.31 26.59 16.31 26.59 16.31 26.6 16.31 26.6 16.3 26.6 16.3 26.6 16.3 26.6 16.3 26.61 16.3 26.61 16.3 26.61 16.3 26.61 16.29 26.61 16.29 26.61 16.29 26.61 16.29 26.62 16.29 26.62 16.29 26.62 16.28 26.62 16.28 26.62 16.28 26.62 16.28 26.63 16.28 26.63 16.28 26.63 16.27 26.63 16.27 26.63 16.27 26.63 16.27 26.64 16.27 26.64 16.27 26.64 16.26 26.64 16.26 26.64 16.26 26.64 16.26 26.65 16.26 26.65 16.5 26.89 16.5 26.89 16.51 26.89 16.51 26.88 16.51 26.88 16.51 26.88 16.51 26.88 16.52 26.88 16.52 26.88 16.52 26.87 16.52 26.87 16.52 26.87 16.52 26.87 16.52 26.87 16.53 26.87 16.53 26.86 16.53 26.86 16.53 26.86 16.53 26.86 16.54 26.86 16.54 26.86 16.54 26.86 16.54 26.85 16.54 26.85 16.54 26.85 16.55 26.85 16.55 26.85 16.55 26.84 16.55 26.84 16.55 26.84 16.55 26.84 16.55 26.84 16.56 26.84 16.56 26.84 16.56 26.83 16.56 26.83 16.56 26.83 16.57 26.83 16.57 26.83 16.57 26.82 16.57 26.82 16.57 26.82 16.57 26.82 16.57 26.82 16.58 26.82 16.58 26.82 16.58 26.81 16.58 26.81 16.58 26.81 16.59 26.81 16.59 26.81 16.59 26.81 16.59 26.8 16.59 26.8 16.59 26.8 16.59 26.8 16.6 26.8 16.6 26.8 16.6 26.79 16.6 26.79 16.6 26.79 16.61 26.79 16.61 26.79 16.61 26.79 16.61 26.78 16.61 26.78 16.61 26.78 16.61 26.78 16.62 26.78 16.62 26.78 16.62 26.77 16.62 26.77 16.62 26.77 16.63 26.77 16.63 26.77 16.63 26.77 16.63 26.77 16.63 26.76 16.63 26.76 16.64 26.76 16.64 26.76 16.64 26.76 16.64 26.75 16.64 26.75 16.64 26.75 16.64 26.75 16.65 26.75 16.65 26.75 16.65 26.75 16.65 26.74 16.65 26.74 16.66 26.74 16.66 26.74 16.66 26.74 16.66 26.73 16.66 26.73 16.66 26.73 16.66 26.73 16.67 26.73 16.67 26.73 16.67 26.73 16.67 26.72 16.67 26.72 16.72 26.68 16.47 26.44 16.43 26.48"/><polygon class="cls-1" points="15.82 27.13 15.82 27.13 15.82 27.13 15.82 27.13 15.82 27.14 15.81 27.14 15.81 27.14 15.81 27.14 15.81 27.14 15.81 27.14 15.81 27.14 15.81 27.14 15.8 27.14 15.8 27.15 15.8 27.15 15.8 27.15 15.8 27.15 15.8 27.15 15.8 27.15 15.8 27.15 15.79 27.16 15.79 27.16 15.79 27.16 15.79 27.16 15.79 27.16 15.79 27.16 15.79 27.16 15.79 27.16 15.79 27.16 15.78 27.17 15.78 27.17 15.78 27.17 15.78 27.17 15.78 27.17 15.78 27.17 15.78 27.17 15.77 27.18 15.77 27.18 15.77 27.18 15.77 27.18 15.77 27.18 15.77 27.18 15.77 27.18 15.77 27.18 15.76 27.19 15.76 27.19 15.76 27.19 15.76 27.19 15.76 27.19 15.76 27.19 15.76 27.19 15.76 27.19 15.75 27.2 15.75 27.2 15.75 27.2 15.75 27.2 15.75 27.2 15.75 27.2 15.75 27.2 15.74 27.2 15.74 27.21 15.74 27.21 15.74 27.21 15.74 27.21 15.74 27.21 15.74 27.21 15.73 27.21 15.73 27.21 15.73 27.22 15.73 27.22 15.73 27.22 15.73 27.22 15.73 27.22 15.73 27.22 15.72 27.22 15.72 27.23 15.72 27.23 15.72 27.23 15.72 27.23 15.72 27.23 15.72 27.23 15.72 27.23 15.71 27.23 15.71 27.23 15.71 27.24 15.71 27.24 15.71 27.24 15.71 27.24 15.71 27.24 15.71 27.24 15.7 27.24 15.7 27.25 15.7 27.25 15.7 27.25 15.7 27.25 15.7 27.25 15.7 27.25 15.7 27.25 15.69 27.25 15.69 27.25 15.69 27.26 15.69 27.26 15.69 27.26 15.88 27.45 15.88 27.45 15.88 27.45 15.88 27.44 15.89 27.44 15.89 27.44 15.89 27.44 15.89 27.44 15.89 27.44 15.89 27.44 15.89 27.43 15.89 27.43 15.9 27.43 15.9 27.43 15.9 27.43 15.9 27.43 15.9 27.43 15.9 27.43 15.9 27.43 15.9 27.42 15.91 27.42 15.91 27.42 15.91 27.42 15.91 27.42 15.91 27.42 15.91 27.42 15.91 27.41 15.91 27.41 15.92 27.41 15.92 27.41 15.92 27.41 15.92 27.41 15.92 27.41 15.92 27.41 15.92 27.4 15.93 27.4 15.93 27.4 15.93 27.4 15.93 27.4 15.93 27.4 15.93 27.4 15.93 27.39 15.94 27.39 15.94 27.39 15.94 27.39 15.94 27.39 15.94 27.39 15.94 27.39 15.94 27.39 15.94 27.39 15.95 27.38 15.95 27.38 15.95 27.38 15.95 27.38 15.95 27.38 15.95 27.38 15.95 27.38 15.95 27.38 15.96 27.37 15.96 27.37 15.96 27.37 15.96 27.37 15.96 27.37 15.96 27.37 15.96 27.37 15.96 27.36 15.97 27.36 15.97 27.36 15.97 27.36 15.97 27.36 15.97 27.36 15.97 27.36 15.97 27.36 15.97 27.36 15.98 27.35 15.98 27.35 15.98 27.35 15.98 27.35 15.98 27.35 15.98 27.35 15.98 27.35 15.98 27.34 15.99 27.34 15.99 27.34 15.99 27.34 15.99 27.34 15.99 27.34 15.99 27.34 15.99 27.34 16 27.33 16 27.33 16 27.33 16 27.33 16 27.33 16 27.33 16 27.33 16 27.32 16.01 27.32 16.01 27.32 16.01 27.32 16.01 27.32 16.01 27.32 16.01 27.32 16.05 27.28 15.86 27.1 15.82 27.13"/><polygon class="cls-1" points="15.21 27.78 15.21 27.78 15.21 27.78 15.21 27.78 15.21 27.78 15.21 27.78 15.21 27.78 15.21 27.79 15.21 27.79 15.21 27.79 15.21 27.79 15.21 27.79 15.2 27.79 15.2 27.79 15.2 27.79 15.2 27.79 15.2 27.79 15.2 27.79 15.2 27.8 15.2 27.8 15.2 27.8 15.2 27.8 15.19 27.8 15.19 27.8 15.19 27.8 15.19 27.8 15.19 27.8 15.19 27.8 15.19 27.8 15.19 27.8 15.19 27.81 15.19 27.81 15.19 27.81 15.18 27.81 15.18 27.81 15.18 27.81 15.18 27.81 15.18 27.81 15.18 27.81 15.18 27.81 15.18 27.82 15.18 27.82 15.18 27.82 15.18 27.82 15.17 27.82 15.17 27.82 15.17 27.82 15.17 27.82 15.17 27.82 15.17 27.82 15.17 27.82 15.17 27.82 15.17 27.83 15.17 27.83 15.16 27.83 15.16 27.83 15.16 27.83 15.16 27.83 15.16 27.83 15.16 27.83 15.16 27.83 15.16 27.83 15.16 27.84 15.16 27.84 15.16 27.84 15.15 27.84 15.15 27.84 15.15 27.84 15.15 27.84 15.15 27.84 15.15 27.84 15.15 27.84 15.15 27.84 15.15 27.84 15.15 27.85 15.14 27.85 15.14 27.85 15.14 27.85 15.14 27.85 15.14 27.85 15.14 27.85 15.14 27.85 15.14 27.85 15.14 27.85 15.14 27.86 15.14 27.86 15.13 27.86 15.13 27.86 15.13 27.86 15.13 27.86 15.13 27.86 15.13 27.86 15.13 27.86 15.13 27.86 15.13 27.86 15.13 27.86 15.13 27.87 15.13 27.87 15.12 27.87 15.12 27.87 15.12 27.87 15.12 27.87 15.12 27.87 15.26 28.01 15.26 28 15.26 28 15.26 28 15.26 28 15.26 28 15.26 28 15.26 28 15.27 28 15.27 28 15.27 28 15.27 28 15.27 28 15.27 27.99 15.27 27.99 15.27 27.99 15.27 27.99 15.27 27.99 15.27 27.99 15.28 27.99 15.28 27.99 15.28 27.99 15.28 27.99 15.28 27.98 15.28 27.98 15.28 27.98 15.28 27.98 15.28 27.98 15.28 27.98 15.28 27.98 15.29 27.98 15.29 27.98 15.29 27.98 15.29 27.98 15.29 27.98 15.29 27.97 15.29 27.97 15.29 27.97 15.29 27.97 15.29 27.97 15.29 27.97 15.29 27.97 15.3 27.97 15.3 27.97 15.3 27.97 15.3 27.96 15.3 27.96 15.3 27.96 15.3 27.96 15.3 27.96 15.3 27.96 15.3 27.96 15.3 27.96 15.31 27.96 15.31 27.96 15.31 27.96 15.31 27.95 15.31 27.95 15.31 27.95 15.31 27.95 15.31 27.95 15.31 27.95 15.31 27.95 15.32 27.95 15.32 27.95 15.32 27.95 15.32 27.95 15.32 27.95 15.32 27.94 15.32 27.94 15.32 27.94 15.32 27.94 15.32 27.94 15.32 27.94 15.33 27.94 15.33 27.94 15.33 27.94 15.33 27.94 15.33 27.93 15.33 27.93 15.33 27.93 15.33 27.93 15.33 27.93 15.33 27.93 15.34 27.93 15.34 27.93 15.34 27.93 15.34 27.93 15.34 27.93 15.34 27.93 15.34 27.92 15.34 27.92 15.34 27.92 15.34 27.92 15.34 27.92 15.35 27.92 15.35 27.92 15.35 27.92 15.35 27.92 15.35 27.92 15.35 27.91 15.35 27.91 15.35 27.91 15.38 27.89 15.24 27.75 15.21 27.78"/><polygon class="cls-1" points="14.64 28.4 14.64 28.4 14.64 28.4 14.64 28.4 14.64 28.4 14.64 28.4 14.64 28.4 14.63 28.4 14.63 28.4 14.63 28.4 14.63 28.4 14.63 28.4 14.63 28.4 14.63 28.41 14.63 28.41 14.63 28.41 14.63 28.41 14.63 28.41 14.63 28.41 14.63 28.41 14.63 28.41 14.63 28.41 14.63 28.41 14.63 28.41 14.63 28.41 14.63 28.41 14.62 28.41 14.62 28.41 14.62 28.41 14.62 28.41 14.62 28.41 14.62 28.41 14.62 28.41 14.62 28.42 14.62 28.42 14.62 28.42 14.62 28.42 14.62 28.42 14.62 28.42 14.62 28.42 14.62 28.42 14.62 28.42 14.62 28.42 14.62 28.42 14.61 28.42 14.61 28.42 14.61 28.42 14.61 28.42 14.61 28.42 14.61 28.42 14.61 28.43 14.61 28.43 14.61 28.43 14.61 28.43 14.61 28.43 14.61 28.43 14.61 28.43 14.61 28.43 14.61 28.43 14.61 28.43 14.61 28.43 14.61 28.43 14.6 28.43 14.6 28.43 14.6 28.43 14.6 28.43 14.6 28.43 14.6 28.43 14.6 28.43 14.6 28.43 14.6 28.44 14.6 28.44 14.6 28.44 14.6 28.44 14.6 28.44 14.6 28.44 14.6 28.44 14.6 28.44 14.6 28.44 14.6 28.44 14.59 28.44 14.59 28.44 14.59 28.44 14.59 28.44 14.59 28.44 14.59 28.44 14.59 28.45 14.59 28.45 14.59 28.45 14.59 28.45 14.59 28.45 14.59 28.45 14.59 28.45 14.59 28.45 14.59 28.45 14.59 28.45 14.59 28.45 14.59 28.45 14.58 28.45 14.58 28.45 14.58 28.45 14.58 28.45 14.58 28.45 14.66 28.53 14.66 28.53 14.66 28.53 14.67 28.53 14.67 28.53 14.67 28.53 14.67 28.53 14.67 28.53 14.67 28.53 14.67 28.53 14.67 28.53 14.67 28.53 14.67 28.53 14.67 28.53 14.67 28.53 14.67 28.53 14.67 28.52 14.67 28.52 14.67 28.52 14.68 28.52 14.68 28.52 14.68 28.52 14.68 28.52 14.68 28.52 14.68 28.52 14.68 28.52 14.68 28.52 14.68 28.52 14.68 28.52 14.68 28.52 14.68 28.52 14.68 28.52 14.68 28.52 14.68 28.52 14.68 28.52 14.68 28.52 14.68 28.51 14.69 28.51 14.69 28.51 14.69 28.51 14.69 28.51 14.69 28.51 14.69 28.51 14.69 28.51 14.69 28.51 14.69 28.51 14.69 28.51 14.69 28.51 14.69 28.51 14.69 28.51 14.69 28.51 14.69 28.51 14.69 28.51 14.69 28.5 14.69 28.5 14.7 28.5 14.7 28.5 14.7 28.5 14.7 28.5 14.7 28.5 14.7 28.5 14.7 28.5 14.7 28.5 14.7 28.5 14.7 28.5 14.7 28.5 14.7 28.5 14.7 28.5 14.7 28.5 14.7 28.5 14.7 28.5 14.7 28.5 14.7 28.5 14.71 28.49 14.71 28.49 14.71 28.49 14.71 28.49 14.71 28.49 14.71 28.49 14.71 28.49 14.71 28.49 14.71 28.49 14.71 28.49 14.71 28.49 14.71 28.49 14.71 28.49 14.71 28.49 14.71 28.49 14.71 28.49 14.71 28.48 14.71 28.48 14.71 28.48 14.71 28.48 14.72 28.48 14.72 28.48 14.72 28.48 14.72 28.48 14.72 28.48 14.72 28.48 14.72 28.48 14.72 28.48 14.72 28.48 14.72 28.48 14.74 28.46 14.65 28.38 14.64 28.4"/><polygon class="cls-1" points="18.33 25.42 18.33 25.42 18.33 25.42 18.33 25.43 18.32 25.43 18.32 25.43 18.32 25.43 18.32 25.44 18.32 25.44 18.31 25.44 18.31 25.44 18.31 25.45 18.3 25.45 18.3 25.45 18.3 25.45 18.3 25.45 18.3 25.46 18.29 25.46 18.29 25.46 18.29 25.46 18.29 25.47 18.28 25.47 18.28 25.47 18.28 25.47 18.28 25.48 18.27 25.48 18.27 25.48 18.27 25.48 18.27 25.49 18.26 25.49 18.26 25.49 18.26 25.49 18.26 25.5 18.25 25.5 18.25 25.5 18.25 25.5 18.25 25.5 18.25 25.51 18.24 25.51 18.24 25.51 18.24 25.51 18.23 25.52 18.23 25.52 18.23 25.52 18.23 25.52 18 25.75 18 25.75 18 25.76 17.99 25.76 17.99 25.76 17.99 25.76 17.98 25.77 17.98 25.77 17.98 25.77 17.98 25.77 17.98 25.78 17.97 25.78 17.97 25.78 17.97 25.78 17.97 25.79 17.96 25.79 17.96 25.79 17.96 25.79 17.96 25.79 17.95 25.8 17.95 25.8 17.95 25.8 17.95 25.8 17.95 25.81 17.94 25.81 17.94 25.81 17.94 25.81 17.93 25.82 17.93 25.82 17.93 25.82 17.93 25.82 17.93 25.82 17.92 25.83 17.92 25.83 17.92 25.83 17.92 25.84 17.91 25.84 17.91 25.84 17.91 25.84 17.91 25.84 17.9 25.85 17.9 25.85 17.9 25.85 17.9 25.85 17.89 25.86 17.89 25.86 17.89 25.86 17.89 25.86 17.88 25.86 17.88 25.87 17.88 25.87 17.88 25.87 17.88 25.88 17.87 25.88 17.87 25.88 17.87 25.88 17.86 25.88 17.86 25.89 18.22 26.24 18.22 26.23 18.22 26.23 18.23 26.23 18.23 26.23 18.23 26.22 18.23 26.22 18.23 26.22 18.24 26.22 18.24 26.21 18.24 26.21 18.25 26.21 18.25 26.21 18.25 26.2 18.25 26.2 18.25 26.2 18.26 26.2 18.26 26.2 18.26 26.19 18.26 26.19 18.27 26.19 18.27 26.19 18.27 26.18 18.27 26.18 18.28 26.18 18.28 26.18 18.28 26.17 18.28 26.17 18.29 26.17 18.29 26.17 18.29 26.16 18.29 26.16 18.3 26.16 18.3 26.16 18.3 26.16 18.3 26.15 18.3 26.15 18.31 26.15 18.31 26.15 18.31 26.14 18.32 26.14 18.32 26.14 18.32 26.14 18.32 26.13 18.32 26.13 18.33 26.13 18.33 26.13 18.33 26.13 18.33 26.12 18.34 26.12 18.34 26.12 18.34 26.11 18.34 26.11 18.35 26.11 18.35 26.11 18.35 26.11 18.35 26.1 18.58 25.88 18.58 25.87 18.59 25.87 18.59 25.87 18.59 25.87 18.59 25.86 18.6 25.86 18.6 25.86 18.6 25.86 18.6 25.85 18.61 25.85 18.61 25.85 18.61 25.85 18.61 25.84 18.61 25.84 18.62 25.84 18.62 25.84 18.62 25.84 18.63 25.83 18.63 25.83 18.63 25.83 18.63 25.83 18.63 25.82 18.64 25.82 18.64 25.82 18.64 25.82 18.64 25.81 18.65 25.81 18.65 25.81 18.65 25.81 18.65 25.8 18.66 25.8 18.66 25.8 18.66 25.8 18.66 25.8 18.67 25.79 18.67 25.79 18.67 25.79 18.67 25.79 18.68 25.78 18.68 25.78 18.68 25.78 18.68 25.78 18.68 25.77 18.69 25.77 18.69 25.77 18.75 25.71 18.4 25.36 18.33 25.42"/><polygon class="cls-1" points="17.51 26.28 17.51 26.29 17.51 26.29 17.51 26.29 17.51 26.29 17.5 26.29 17.5 26.3 17.5 26.3 17.5 26.3 17.5 26.3 17.49 26.3 17.49 26.3 17.49 26.31 17.49 26.31 17.48 26.31 17.48 26.31 17.48 26.32 17.48 26.32 17.48 26.32 17.48 26.32 17.47 26.32 17.47 26.32 17.47 26.33 17.47 26.33 17.46 26.33 17.46 26.33 17.46 26.34 17.46 26.34 17.46 26.34 17.45 26.34 17.45 26.34 17.45 26.34 17.45 26.35 17.45 26.35 17.45 26.35 17.44 26.35 17.44 26.36 17.44 26.36 17.44 26.36 17.43 26.36 17.43 26.36 17.43 26.36 17.43 26.37 17.43 26.37 17.42 26.37 17.42 26.37 17.44 26.36 17.43 26.36 17.43 26.36 17.43 26.36 17.43 26.37 17.43 26.37 17.43 26.37 17.42 26.37 17.42 26.37 17.42 26.38 17.42 26.38 17.41 26.38 17.41 26.38 17.41 26.38 17.41 26.39 17.41 26.39 17.4 26.39 17.4 26.39 17.4 26.39 17.4 26.4 17.4 26.4 17.39 26.4 17.39 26.4 17.39 26.4 17.39 26.41 17.39 26.41 17.38 26.41 17.38 26.41 17.38 26.41 17.38 26.42 17.38 26.42 17.37 26.42 17.37 26.42 17.37 26.42 17.37 26.43 17.37 26.43 17.36 26.43 17.36 26.43 17.36 26.43 17.36 26.44 17.36 26.44 17.35 26.44 17.35 26.44 17.35 26.44 17.35 26.45 17.34 26.45 17.34 26.45 17.34 26.45 17.34 26.45 17.34 26.46 17.34 26.46 17.33 26.46 17.33 26.46 17.33 26.46 17.33 26.47 17.32 26.47 17.32 26.47 17.62 26.77 17.63 26.76 17.63 26.76 17.63 26.76 17.63 26.76 17.63 26.76 17.64 26.75 17.64 26.75 17.64 26.75 17.64 26.75 17.64 26.75 17.65 26.74 17.65 26.74 17.65 26.74 17.65 26.74 17.66 26.74 17.66 26.73 17.66 26.73 17.66 26.73 17.66 26.73 17.66 26.73 17.67 26.72 17.67 26.72 17.67 26.72 17.67 26.72 17.68 26.72 17.68 26.71 17.68 26.71 17.68 26.71 17.68 26.71 17.68 26.71 17.69 26.7 17.69 26.7 17.69 26.7 17.69 26.7 17.7 26.7 17.7 26.69 17.7 26.69 17.7 26.69 17.7 26.69 17.7 26.69 17.71 26.68 17.71 26.68 17.71 26.68 17.71 26.68 17.72 26.68 17.72 26.67 17.72 26.67 17.72 26.67 17.72 26.67 17.73 26.67 17.73 26.66 17.73 26.66 17.73 26.66 17.73 26.66 17.72 26.67 17.72 26.67 17.72 26.67 17.73 26.67 17.73 26.66 17.73 26.66 17.73 26.66 17.73 26.66 17.73 26.66 17.74 26.66 17.74 26.65 17.74 26.65 17.74 26.65 17.75 26.65 17.75 26.64 17.75 26.64 17.75 26.64 17.75 26.64 17.76 26.64 17.76 26.64 17.76 26.63 17.76 26.63 17.76 26.63 17.77 26.63 17.77 26.63 17.77 26.62 17.77 26.62 17.77 26.62 17.78 26.62 17.78 26.61 17.78 26.61 17.78 26.61 17.78 26.61 17.79 26.61 17.79 26.61 17.79 26.6 17.79 26.6 17.79 26.6 17.8 26.6 17.8 26.59 17.8 26.59 17.8 26.59 17.8 26.59 17.81 26.59 17.81 26.59 17.81 26.58 17.81 26.58 17.82 26.58 17.87 26.53 17.57 26.23 17.51 26.28"/><polygon class="cls-1" points="16.9 26.94 16.9 26.94 16.89 26.95 16.89 26.95 16.89 26.95 16.89 26.95 16.89 26.95 16.89 26.95 16.88 26.95 16.88 26.96 16.88 26.96 16.88 26.96 16.88 26.96 16.88 26.96 16.87 26.96 16.87 26.97 16.87 26.97 16.87 26.97 16.87 26.97 16.87 26.97 16.86 26.98 16.86 26.98 16.86 26.98 16.86 26.98 16.86 26.98 16.86 26.98 16.85 26.98 16.85 26.99 16.85 26.99 16.85 26.99 16.85 26.99 16.85 26.99 16.84 27 16.84 27 16.84 27 16.84 27 16.84 27 16.84 27 16.83 27 16.83 27.01 16.83 27.01 16.83 27.01 16.83 27.01 16.83 27.01 16.82 27.01 16.82 27.02 16.82 27.02 16.82 27.02 16.82 27.02 16.82 27.02 16.81 27.02 16.81 27.03 16.81 27.03 16.81 27.03 16.81 27.03 16.81 27.03 16.8 27.03 16.8 27.04 16.8 27.04 16.8 27.04 16.8 27.04 16.8 27.04 16.79 27.04 16.79 27.05 16.79 27.05 16.79 27.05 16.79 27.05 16.79 27.05 16.78 27.05 16.78 27.05 16.78 27.06 16.78 27.06 16.78 27.06 16.78 27.06 16.77 27.06 16.77 27.07 16.77 27.07 16.77 27.07 16.77 27.07 16.77 27.07 16.76 27.07 16.76 27.07 16.76 27.08 16.76 27.08 16.76 27.08 16.76 27.08 16.75 27.08 16.75 27.09 16.75 27.09 16.75 27.09 16.75 27.09 16.75 27.09 16.74 27.09 16.74 27.09 16.74 27.1 16.74 27.1 16.74 27.1 16.74 27.1 16.73 27.1 16.73 27.1 16.73 27.11 16.73 27.11 16.73 27.11 16.97 27.35 16.98 27.35 16.98 27.35 16.98 27.35 16.98 27.34 16.98 27.34 16.98 27.34 16.98 27.34 16.99 27.34 16.99 27.34 16.99 27.34 16.99 27.33 16.99 27.33 17 27.33 17 27.33 17 27.33 17 27.32 17 27.32 17 27.32 17 27.32 17.01 27.32 17.01 27.32 17.01 27.32 17.01 27.31 17.01 27.31 17.02 27.31 17.02 27.31 17.02 27.31 17.02 27.3 17.02 27.3 17.02 27.3 17.02 27.3 17.03 27.3 17.03 27.3 17.03 27.3 17.03 27.29 17.03 27.29 17.04 27.29 17.04 27.29 17.04 27.29 17.04 27.29 17.04 27.28 17.04 27.28 17.05 27.28 17.05 27.28 17.05 27.28 17.05 27.28 17.05 27.27 17.05 27.27 17.05 27.27 17.06 27.27 17.06 27.27 17.06 27.27 17.06 27.26 17.06 27.26 17.07 27.26 17.07 27.26 17.07 27.26 17.07 27.26 17.07 27.25 17.07 27.25 17.07 27.25 17.08 27.25 17.08 27.25 17.08 27.25 17.08 27.25 17.08 27.24 17.09 27.24 17.09 27.24 17.09 27.24 17.09 27.24 17.09 27.23 17.09 27.23 17.09 27.23 17.1 27.23 17.1 27.23 17.1 27.23 17.1 27.23 17.1 27.22 17.11 27.22 17.11 27.22 17.11 27.22 17.11 27.22 17.11 27.21 17.11 27.21 17.11 27.21 17.12 27.21 17.12 27.21 17.12 27.21 17.12 27.2 17.12 27.2 17.13 27.2 17.13 27.2 17.13 27.2 17.13 27.2 17.13 27.2 17.13 27.19 17.14 27.19 17.14 27.19 17.14 27.19 17.14 27.19 17.14 27.19 17.14 27.18 17.19 27.14 16.94 26.9 16.9 26.94"/><polygon class="cls-1" points="16.29 27.59 16.29 27.59 16.29 27.59 16.29 27.59 16.29 27.6 16.29 27.6 16.28 27.6 16.28 27.6 16.28 27.6 16.28 27.6 16.28 27.6 16.28 27.61 16.28 27.61 16.27 27.61 16.27 27.61 16.27 27.61 16.27 27.61 16.27 27.61 16.27 27.61 16.27 27.62 16.27 27.62 16.26 27.62 16.26 27.62 16.26 27.62 16.26 27.62 16.26 27.62 16.26 27.63 16.26 27.63 16.25 27.63 16.25 27.63 16.25 27.63 16.25 27.63 16.25 27.63 16.25 27.63 16.25 27.64 16.25 27.64 16.24 27.64 16.24 27.64 16.24 27.64 16.24 27.64 16.24 27.64 16.24 27.64 16.24 27.64 16.23 27.65 16.23 27.65 16.23 27.65 16.23 27.65 16.23 27.65 16.23 27.65 16.23 27.65 16.23 27.66 16.23 27.66 16.22 27.66 16.22 27.66 16.22 27.66 16.22 27.66 16.22 27.66 16.22 27.66 16.22 27.66 16.21 27.67 16.21 27.67 16.21 27.67 16.21 27.67 16.21 27.67 16.21 27.67 16.21 27.67 16.21 27.68 16.2 27.68 16.2 27.68 16.2 27.68 16.2 27.68 16.2 27.68 16.2 27.68 16.2 27.68 16.2 27.69 16.19 27.69 16.19 27.69 16.19 27.69 16.19 27.69 16.19 27.69 16.19 27.69 16.19 27.69 16.18 27.7 16.18 27.7 16.18 27.7 16.18 27.7 16.18 27.7 16.18 27.7 16.18 27.7 16.18 27.7 16.18 27.71 16.17 27.71 16.17 27.71 16.17 27.71 16.17 27.71 16.17 27.71 16.17 27.71 16.16 27.71 16.16 27.72 16.16 27.72 16.16 27.72 16.16 27.72 16.16 27.72 16.35 27.91 16.35 27.91 16.35 27.91 16.35 27.91 16.36 27.9 16.36 27.9 16.36 27.9 16.36 27.9 16.36 27.9 16.36 27.9 16.36 27.9 16.36 27.89 16.37 27.89 16.37 27.89 16.37 27.89 16.37 27.89 16.37 27.89 16.37 27.89 16.37 27.89 16.38 27.89 16.38 27.88 16.38 27.88 16.38 27.88 16.38 27.88 16.38 27.88 16.38 27.88 16.38 27.88 16.39 27.88 16.39 27.87 16.39 27.87 16.39 27.87 16.39 27.87 16.39 27.87 16.39 27.87 16.39 27.87 16.4 27.86 16.4 27.86 16.4 27.86 16.4 27.86 16.4 27.86 16.4 27.86 16.4 27.86 16.41 27.86 16.41 27.86 16.41 27.85 16.41 27.85 16.41 27.85 16.41 27.85 16.41 27.85 16.41 27.85 16.41 27.85 16.42 27.84 16.42 27.84 16.42 27.84 16.42 27.84 16.42 27.84 16.42 27.84 16.42 27.84 16.43 27.84 16.43 27.83 16.43 27.83 16.43 27.83 16.43 27.83 16.43 27.83 16.43 27.83 16.43 27.83 16.44 27.82 16.44 27.82 16.44 27.82 16.44 27.82 16.44 27.82 16.44 27.82 16.44 27.82 16.45 27.82 16.45 27.82 16.45 27.81 16.45 27.81 16.45 27.81 16.45 27.81 16.45 27.81 16.45 27.81 16.45 27.81 16.46 27.8 16.46 27.8 16.46 27.8 16.46 27.8 16.46 27.8 16.46 27.8 16.46 27.8 16.47 27.8 16.47 27.8 16.47 27.79 16.47 27.79 16.47 27.79 16.47 27.79 16.47 27.79 16.48 27.79 16.48 27.79 16.48 27.79 16.48 27.78 16.48 27.78 16.48 27.78 16.48 27.78 16.52 27.75 16.33 27.56 16.29 27.59"/><polygon class="cls-1" points="15.69 28.24 15.68 28.24 15.68 28.24 15.68 28.24 15.68 28.24 15.68 28.25 15.68 28.25 15.68 28.25 15.68 28.25 15.68 28.25 15.68 28.25 15.68 28.25 15.67 28.25 15.67 28.25 15.67 28.25 15.67 28.25 15.67 28.25 15.67 28.26 15.67 28.26 15.67 28.26 15.67 28.26 15.67 28.26 15.66 28.26 15.66 28.26 15.66 28.26 15.66 28.26 15.66 28.26 15.66 28.27 15.66 28.27 15.66 28.27 15.66 28.27 15.66 28.27 15.65 28.27 15.65 28.27 15.65 28.27 15.65 28.27 15.65 28.27 15.65 28.27 15.65 28.27 15.65 28.28 15.65 28.28 15.65 28.28 15.65 28.28 15.64 28.28 15.64 28.28 15.64 28.28 15.64 28.28 15.64 28.28 15.64 28.28 15.64 28.29 15.64 28.29 15.64 28.29 15.64 28.29 15.64 28.29 15.63 28.29 15.63 28.29 15.63 28.29 15.63 28.29 15.63 28.29 15.63 28.29 15.63 28.3 15.63 28.3 15.63 28.3 15.63 28.3 15.63 28.3 15.63 28.3 15.62 28.3 15.62 28.3 15.62 28.3 15.62 28.3 15.62 28.3 15.62 28.3 15.62 28.31 15.62 28.31 15.62 28.31 15.62 28.31 15.62 28.31 15.61 28.31 15.61 28.31 15.61 28.31 15.61 28.31 15.61 28.31 15.61 28.32 15.61 28.32 15.61 28.32 15.61 28.32 15.61 28.32 15.61 28.32 15.6 28.32 15.6 28.32 15.6 28.32 15.6 28.32 15.6 28.32 15.6 28.32 15.6 28.33 15.6 28.33 15.6 28.33 15.6 28.33 15.59 28.33 15.59 28.33 15.59 28.33 15.59 28.33 15.59 28.33 15.73 28.47 15.73 28.47 15.73 28.47 15.73 28.46 15.73 28.46 15.73 28.46 15.73 28.46 15.73 28.46 15.73 28.46 15.74 28.46 15.74 28.46 15.74 28.46 15.74 28.46 15.74 28.46 15.74 28.45 15.74 28.45 15.74 28.45 15.74 28.45 15.74 28.45 15.74 28.45 15.75 28.45 15.75 28.45 15.75 28.45 15.75 28.45 15.75 28.45 15.75 28.45 15.75 28.44 15.75 28.44 15.75 28.44 15.75 28.44 15.76 28.44 15.76 28.44 15.76 28.44 15.76 28.44 15.76 28.44 15.76 28.44 15.76 28.43 15.76 28.43 15.76 28.43 15.76 28.43 15.76 28.43 15.77 28.43 15.77 28.43 15.77 28.43 15.77 28.43 15.77 28.43 15.77 28.43 15.77 28.43 15.77 28.42 15.77 28.42 15.77 28.42 15.78 28.42 15.78 28.42 15.78 28.42 15.78 28.42 15.78 28.42 15.78 28.42 15.78 28.42 15.78 28.41 15.78 28.41 15.78 28.41 15.78 28.41 15.79 28.41 15.79 28.41 15.79 28.41 15.79 28.41 15.79 28.41 15.79 28.41 15.79 28.41 15.79 28.41 15.79 28.4 15.79 28.4 15.79 28.4 15.79 28.4 15.8 28.4 15.8 28.4 15.8 28.4 15.8 28.4 15.8 28.4 15.8 28.4 15.8 28.39 15.8 28.39 15.8 28.39 15.8 28.39 15.8 28.39 15.81 28.39 15.81 28.39 15.81 28.39 15.81 28.39 15.81 28.39 15.81 28.39 15.81 28.39 15.81 28.38 15.81 28.38 15.81 28.38 15.81 28.38 15.82 28.38 15.82 28.38 15.82 28.38 15.82 28.38 15.82 28.38 15.82 28.38 15.82 28.38 15.85 28.35 15.71 28.22 15.69 28.24"/><polygon class="cls-1" points="15.11 28.86 15.1 28.86 15.1 28.86 15.1 28.86 15.1 28.87 15.1 28.87 15.1 28.87 15.1 28.87 15.1 28.87 15.1 28.87 15.1 28.87 15.1 28.87 15.1 28.87 15.1 28.87 15.1 28.87 15.1 28.87 15.1 28.87 15.1 28.87 15.1 28.87 15.09 28.87 15.09 28.88 15.09 28.88 15.09 28.88 15.09 28.88 15.09 28.88 15.09 28.88 15.09 28.88 15.09 28.88 15.09 28.88 15.09 28.88 15.09 28.88 15.09 28.88 15.09 28.88 15.09 28.88 15.09 28.88 15.09 28.88 15.09 28.88 15.08 28.88 15.08 28.88 15.08 28.89 15.08 28.89 15.08 28.89 15.08 28.89 15.08 28.89 15.08 28.89 15.08 28.89 15.08 28.89 15.08 28.89 15.08 28.89 15.08 28.89 15.08 28.89 15.08 28.89 15.08 28.89 15.07 28.89 15.07 28.89 15.07 28.89 15.07 28.89 15.07 28.89 15.07 28.89 15.07 28.9 15.07 28.9 15.07 28.9 15.07 28.9 15.07 28.9 15.07 28.9 15.07 28.9 15.07 28.9 15.07 28.9 15.07 28.9 15.07 28.9 15.07 28.9 15.06 28.9 15.06 28.9 15.06 28.9 15.06 28.9 15.06 28.91 15.06 28.91 15.06 28.91 15.06 28.91 15.06 28.91 15.06 28.91 15.06 28.91 15.06 28.91 15.06 28.91 15.06 28.91 15.06 28.91 15.06 28.91 15.06 28.91 15.06 28.91 15.05 28.91 15.05 28.91 15.05 28.91 15.05 28.91 15.05 28.91 15.05 28.91 15.05 28.92 15.05 28.92 15.05 28.92 15.05 28.92 15.05 28.92 15.05 28.92 15.05 28.92 15.05 28.92 15.13 29 15.13 29 15.13 29 15.13 29 15.13 29 15.13 29 15.13 29 15.13 29 15.13 29 15.13 29 15.14 29 15.14 28.99 15.14 28.99 15.14 28.99 15.14 28.99 15.14 28.99 15.14 28.99 15.14 28.99 15.14 28.99 15.14 28.99 15.14 28.99 15.14 28.99 15.14 28.99 15.14 28.99 15.14 28.99 15.14 28.99 15.14 28.99 15.14 28.98 15.15 28.98 15.15 28.98 15.15 28.98 15.15 28.98 15.15 28.98 15.15 28.98 15.15 28.98 15.15 28.98 15.15 28.98 15.15 28.98 15.15 28.98 15.15 28.98 15.15 28.98 15.15 28.98 15.15 28.98 15.15 28.98 15.15 28.98 15.15 28.98 15.16 28.98 15.16 28.97 15.16 28.97 15.16 28.97 15.16 28.97 15.16 28.97 15.16 28.97 15.16 28.97 15.16 28.97 15.16 28.97 15.16 28.97 15.16 28.97 15.16 28.97 15.16 28.97 15.16 28.97 15.16 28.97 15.16 28.97 15.16 28.97 15.17 28.96 15.17 28.96 15.17 28.96 15.17 28.96 15.17 28.96 15.17 28.96 15.17 28.96 15.17 28.96 15.17 28.96 15.17 28.96 15.17 28.96 15.17 28.96 15.17 28.96 15.17 28.96 15.17 28.96 15.17 28.96 15.18 28.96 15.18 28.96 15.18 28.95 15.18 28.95 15.18 28.95 15.18 28.95 15.18 28.95 15.18 28.95 15.18 28.95 15.18 28.95 15.18 28.95 15.18 28.95 15.18 28.95 15.18 28.95 15.18 28.95 15.18 28.95 15.18 28.95 15.18 28.95 15.19 28.95 15.19 28.95 15.19 28.95 15.19 28.95 15.19 28.94 15.2 28.93 15.12 28.85 15.11 28.86"/><rect class="cls-1" x="15.37" y="23.08" width="1.5" height="0.51" transform="translate(-11.78 18.23) rotate(-45)"/><rect class="cls-1" x="16.55" y="23.86" width="1.33" height="0.51" transform="translate(-12.01 19.24) rotate(-45)"/><rect class="cls-1" x="17.47" y="24.9" width="1.13" height="0.51" transform="translate(-12.51 20.12) rotate(-45)"/><path class="cls-1" d="M60.1,19.55h0a1.39,1.39,0,1,0,0,2.77h0a1.39,1.39,0,1,0,0-2.77Z"/><path class="cls-1" d="M99,10.91a4.33,4.33,0,0,0-6.08-.05,4.35,4.35,0,0,0-3-1.22A4.35,4.35,0,0,0,85.53,14v8.33H88.2V14a1.66,1.66,0,0,1,.49-1.19,1.68,1.68,0,0,1,2.37,0A1.66,1.66,0,0,1,91.55,14V22.3h2.67V14a1.67,1.67,0,0,1,1.68-1.68A1.67,1.67,0,0,1,97.57,14v8.33h2.68V14A4.36,4.36,0,0,0,99,10.91Z"/><path class="cls-1" d="M78.4,9.66A6.33,6.33,0,1,0,84.73,16,6.34,6.34,0,0,0,78.4,9.66Zm0,10A3.66,3.66,0,1,1,82.06,16,3.66,3.66,0,0,1,78.4,19.65Z"/><path class="cls-1" d="M68.42,19.65a3.66,3.66,0,1,1,2.89-5.89,7.5,7.5,0,0,1,1.34-2.47,6.33,6.33,0,1,0,0,9.41,7.44,7.44,0,0,1-1.34-2.48A3.63,3.63,0,0,1,68.42,19.65Z"/><path class="cls-1" d="M39.44,10.73a5.8,5.8,0,0,0-1,.1l.72-1.7h5.78V6.68H37.54L34.9,12.92h0l1.65,1.64A3.5,3.5,0,1,1,36,16.92H33.65a5.8,5.8,0,1,0,5.79-6.19Z"/><path class="cls-1" d="M52,10.73a5.89,5.89,0,0,0-1,.1l.72-1.7H57.5V6.68H50.14l-2.65,6.24h0l1.65,1.64a3.5,3.5,0,1,1-.57,2.35H46.25A5.79,5.79,0,1,0,52,10.73Z"/></svg>