<?xml version="1.0" encoding="utf-8"?>
<!-- Generator: Adobe Illustrator 22.0.0, SVG Export Plug-In . SVG Version: 6.00 Build 0)  -->
<svg version="1.1" id="图层_1" xmlns="http://www.w3.org/2000/svg" xmlns:xlink="http://www.w3.org/1999/xlink" x="0px" y="0px"
	 viewBox="0 0 20 20" style="enable-background:new 0 0 20 20;" xml:space="preserve">
<style type="text/css">
	.st0{fill:#65829A;}
	.st1{fill:#FFFFFF;}
</style>
<g>
	<g>
		<path class="st0" d="M10,19.8c-5.4,0-9.8-4.4-9.8-9.8c0-5.4,4.4-9.8,9.8-9.8c5.4,0,9.8,4.4,9.8,9.8C19.8,15.4,15.4,19.8,10,19.8
			L10,19.8z"/>
	</g>
</g>
<g>
	<g>
		<path class="st1" d="M10,15.6c0.5,0,1-0.5,1-1V7.9c0-0.5-0.4-1-1-1c-0.5,0-1,0.4-1,1v6.7C9,15.1,9.5,15.6,10,15.6L10,15.6z
			 M10,3.9c-0.5,0-1,0.4-1,1c0,0.6,0.5,1,1,1c0.5,0,1-0.4,1-1C10.9,4.3,10.4,3.9,10,3.9L10,3.9z M10,3.9"/>
	</g>
</g>
</svg>
