<?xml version="1.0" encoding="UTF-8"?>
<svg width="50px" height="50px" viewBox="0 0 50 50" version="1.1" xmlns="http://www.w3.org/2000/svg" xmlns:xlink="http://www.w3.org/1999/xlink">
    <!-- Generator: Sketch 51.3 (57544) - http://www.bohemiancoding.com/sketch -->
    <title>C</title>
    <desc>Created with Sketch.</desc>
    <defs></defs>
    <g id="Page-1" stroke="none" stroke-width="1" fill="none" fill-rule="evenodd">
        <g id="Welcome-on-board" transform="translate(-764.000000, -452.000000)" fill-rule="nonzero">
            <g id="Group-3" transform="translate(232.000000, 369.000000)">
                <g id="C" transform="translate(532.000000, 83.000000)">
                    <rect id="Rectangle-6" fill="#00893E" x="0" y="0" width="50" height="50"></rect>
                    <g id="钻石-copy-2" transform="translate(10.000000, 11.000000)" fill="#FFFFFF">
                        <path d="M14.9938422,25.884088 L27.6183182,10.3430444 C27.8104515,10.1074355 27.8168323,9.77107483 27.6337732,9.52834843 L22.1693488,2.24244931 L7.81833547,2.24244931 L2.35391115,9.52834843 C2.16969096,9.77151091 2.17608029,10.1092318 2.36936612,10.3452523 L14.9938422,25.8818801 L14.9938422,25.884088 Z M15.8504873,28.328176 C15.6408612,28.586082 15.3261954,28.7358188 14.9938422,28.7358188 C14.661489,28.7358188 14.3468231,28.586082 14.1371971,28.328176 L0.656075899,11.7361966 C-0.174670392,10.7138992 -0.20289106,9.25734901 0.587632587,8.20363948 L6.38323417,0.47617075 C6.59171507,0.198196226 6.91890527,0.0346011354 7.26637343,0.0346011384 L22.7213109,0.0346011384 C23.0687791,0.0346011232 23.3959693,0.198196215 23.6044502,0.47617075 L29.4000517,8.20363948 C30.1905754,9.257349 30.1623547,10.7138992 29.3316085,11.7361966 L15.8504873,28.328176 Z" id="Shape"></path>
                        <path d="M14.9938422,3.73937041 L10.4103493,11.0738422 L8.538094,9.90368263 L14.0577145,1.07228977 C14.2594434,0.749521209 14.6132189,0.55344125 14.9938422,0.55344125 C15.3744655,0.55344125 15.7282409,0.749521209 15.9299698,1.07228977 L21.4495903,9.90368263 L19.5773351,11.0738422 L14.9938422,3.73937041 Z" id="Shape"></path>
                        <path d="M8.42107805,10.2988875 C8.31647627,9.96382296 8.37745584,9.59898331 8.58533403,9.31614695 C8.79321221,9.03331059 9.12320924,8.86619256 9.47422164,8.86599396 L20.4913842,8.86599396 C20.8429261,8.86597258 21.17346,9.0333849 21.3814436,9.31680069 C21.5894272,9.60021648 21.6499904,9.96574574 21.5445278,10.3010953 L16.0469858,27.963881 C15.9035613,28.4256736 15.4762907,28.7403748 14.9927382,28.7403748 C14.5091857,28.7403748 14.0819152,28.4256736 13.9384907,27.963881 L8.41887019,10.3010953 L8.42107805,10.2988875 Z M14.9916343,23.9257266 L18.9922553,11.07605 L10.9755584,11.07605 L14.9916343,23.9257266 Z" id="Shape"></path>
                        <polygon id="Shape" points="0.693609314 11.0583872 0.693609314 8.85053903 29.4508323 8.85053903 29.4508323 11.0583872"></polygon>
                    </g>
                </g>
            </g>
        </g>
    </g>
</svg>