<?xml version="1.0" encoding="UTF-8"?>
<svg width="50px" height="50px" viewBox="0 0 50 50" version="1.1" xmlns="http://www.w3.org/2000/svg" xmlns:xlink="http://www.w3.org/1999/xlink">
    <!-- Generator: Sketch 51.3 (57544) - http://www.bohemiancoding.com/sketch -->
    <title>L</title>
    <desc>Created with Sketch.</desc>
    <defs></defs>
    <g id="Page-1" stroke="none" stroke-width="1" fill="none" fill-rule="evenodd">
        <g id="Welcome-on-board" transform="translate(-232.000000, -452.000000)" fill-rule="nonzero">
            <g id="Group-3" transform="translate(232.000000, 369.000000)">
                <g id="L" transform="translate(0.000000, 83.000000)">
                    <rect id="Rectangle-6-Copy" fill="#8815A6" x="0" y="0" width="50" height="50"></rect>
                    <g id="商铺" transform="translate(10.000000, 10.000000)" fill="#FFFFFF">
                        <path d="M27.1421053,2.33684211 C27.1421053,2.33684211 26.1,0.0315789474 24.8368421,0.0315789474 L5.21052632,0.0315789474 C3.94736842,0.0315789474 2.90526316,2.33684211 2.90526316,2.33684211 C2.90526316,2.33684211 0.0157894737,8.43157895 0.0157894737,9.83684211 C0.0157894737,12.3789474 2.08421053,14.4473684 4.62631579,14.4473684 C6.80526316,14.4473684 8.60526316,12.9473684 9.09473684,10.9263158 L10.5315789,10.9263158 C11.0210526,12.9473684 12.8368421,14.4473684 15,14.4473684 C17.1789474,14.4473684 18.9789474,12.9473684 19.4684211,10.9263158 L20.9052632,10.9263158 C21.3947368,12.9473684 23.2105263,14.4473684 25.3736842,14.4473684 C27.9157895,14.4473684 29.9842105,12.3789474 29.9842105,9.83684211 C30.0157895,8.43157895 27.1421053,2.33684211 27.1421053,2.33684211 Z M25.4052632,12.3631579 C24.2368421,12.3631579 23.2263158,11.5578947 22.9578947,10.4210526 C22.7368421,9.48947368 21.9,8.84210526 20.9368421,8.84210526 L19.5,8.84210526 C18.5368421,8.84210526 17.7157895,9.50526316 17.4789474,10.4210526 C17.1947368,11.5578947 16.1842105,12.3631579 15.0315789,12.3631579 C13.8631579,12.3631579 12.8526316,11.5578947 12.5842105,10.4210526 C12.3631579,9.48947368 11.5263158,8.84210526 10.5631579,8.84210526 L9.12631579,8.84210526 C8.16315789,8.84210526 7.34210526,9.50526316 7.10526316,10.4210526 C6.82105263,11.5578947 5.81052632,12.3631579 4.65789474,12.3631579 C3.26842105,12.3631579 2.14736842,11.2421053 2.11578947,9.86842105 C2.22631579,9.03157895 3.58421053,5.77894737 4.81578947,3.18947368 C4.98947368,2.79473684 5.30526316,2.32105263 5.52631579,2.1 L24.5526316,2.1 C24.7578947,2.32105263 25.0894737,2.79473684 25.2631579,3.18947368 C25.2631579,3.20526316 25.2789474,3.20526316 25.2789474,3.22105263 C26.4947368,5.77894737 27.8526316,9.04736842 27.9631579,9.88421053 C27.9157895,11.2578947 26.7947368,12.3631579 25.4052632,12.3631579 Z M26.5578947,16.2947368 C25.9894737,16.2947368 25.5157895,16.7526316 25.5157895,17.3368421 L25.5157895,25.4210526 C25.5157895,26.1157895 24.9473684,26.6842105 24.2526316,26.6842105 L5.77894737,26.6842105 C5.08421053,26.6842105 4.51578947,26.1157895 4.51578947,25.4210526 L4.51578947,17.3368421 C4.51578947,16.7684211 4.05789474,16.2947368 3.47368421,16.2947368 C2.88947368,16.2947368 2.43157895,16.7526316 2.43157895,17.3368421 L2.43157895,25.4210526 C2.43157895,27.2684211 3.93157895,28.7684211 5.77894737,28.7684211 L24.2368421,28.7684211 C26.0842105,28.7684211 27.5842105,27.2684211 27.5842105,25.4210526 L27.5842105,17.3368421 C27.6,16.7526316 27.1263158,16.2947368 26.5578947,16.2947368 Z" id="Shape"></path>
                        <path d="M23.1,4.75263158 L11.5578947,4.75263158 C10.9894737,4.75263158 10.5157895,5.21052632 10.5157895,5.79473684 C10.5157895,6.37894737 10.9736842,6.83684211 11.5578947,6.83684211 L23.1,6.83684211 C23.6684211,6.83684211 24.1421053,6.37894737 24.1421053,5.79473684 C24.1421053,5.21052632 23.6684211,4.75263158 23.1,4.75263158 Z M8.1,4.75263158 L6.94736842,4.75263158 C6.37894737,4.75263158 5.90526316,5.21052632 5.90526316,5.79473684 C5.90526316,6.37894737 6.36315789,6.83684211 6.94736842,6.83684211 L8.1,6.83684211 C8.66842105,6.83684211 9.14210526,6.37894737 9.14210526,5.79473684 C9.14210526,5.21052632 8.66842105,4.75263158 8.1,4.75263158 Z" id="Shape"></path>
                    </g>
                </g>
            </g>
        </g>
    </g>
</svg>