<svg id="图层_1" data-name="图层 1" xmlns="http://www.w3.org/2000/svg" viewBox="0 0 138 52"><defs><style>.cls-1{fill:#fff;}</style></defs><title>底部logo</title><path class="cls-1" d="M134.15,10.62A8.67,8.67,0,0,0,122,10.5a8.67,8.67,0,0,0-14.68,6.25V33.38h5.33V16.75a3.34,3.34,0,1,1,6.68,0V33.34h5.34V16.75a3.28,3.28,0,0,1,1-2.36,3.34,3.34,0,0,1,5.7,2.36V33.38h5.33V16.75A8.6,8.6,0,0,0,134.15,10.62Z"/><path class="cls-1" d="M105.71,20.39a13.23,13.23,0,0,0-10.94-13,13.45,13.45,0,0,0-6.24.4h0a13.17,13.17,0,0,0-5.27,3.16,22.63,22.63,0,0,0-3.71,5.78c-1.08,2-2.09,4.1-3.18,6.13a9,9,0,0,1-4.06,4.33h0a7.5,7.5,0,0,1-6.55-13.49,7.63,7.63,0,0,1,6.55-.18h0c2,.93,3.16,2.64,4.18,4.55l3-5.62a12.17,12.17,0,0,0-1.1-1.28h0A13.12,13.12,0,0,0,67.46,7.51a13.35,13.35,0,0,0-9.23,5.92,12.91,12.91,0,0,0,7.83,19.43A13.12,13.12,0,0,0,78.4,29.52h0A15,15,0,0,0,80.84,26c.1.21.2.42.31.63h0a13.11,13.11,0,0,0,24.55-6.25Zm-13.1,7.42a7.54,7.54,0,0,1-5-13.23,7.36,7.36,0,0,1,8.68-.73,7.72,7.72,0,0,1,3.64,8A7.6,7.6,0,0,1,92.61,27.81Z"/><g id="_编组_" data-name="&lt;编组&gt;"><rect id="_路径_" data-name="&lt;路径&gt;" class="cls-1" x="49.82" y="27.86" width="5.52" height="5.52" rx="2.76" ry="2.76"/><path class="cls-1" d="M20.86,22.87A7.28,7.28,0,0,1,6.61,20.8H1.31A12.72,12.72,0,0,0,9,32.39a12.72,12.72,0,0,0,13.79-2.7h0a10.58,10.58,0,0,0,1.07-1.24Z"/><path class="cls-1" d="M41.6,9.37a12.58,12.58,0,0,0-7.89-.84L35,5.5H46.64V.55H31.8L26.58,12.87l-.22.27,3,5.58a7.33,7.33,0,0,1,13.42-1.3c3.14,6-3.28,12.8-9.45,10h0c-2.41-1.09-3.43-3.27-4.6-5.45-1-1.85-2-3.69-3-5.55a15.71,15.71,0,0,0-4.11-5.53,12.56,12.56,0,0,0-8-2.68,12.28,12.28,0,0,0-2.49.3l1.28-3H24.11V.55H9.27L3.94,13.12l0,0,3,5.59a7.34,7.34,0,0,1,10-4.56h0c2.24,1,3.26,2.95,4.35,5,.92,1.71,1.84,3.41,2.75,5.12l1.53,2.85a12.15,12.15,0,0,0,7,5.67h0A12.69,12.69,0,0,0,48.89,20.47,12.7,12.7,0,0,0,41.6,9.37Z"/></g><path class="cls-1" d="M4.19,49.29q-3.61,0-3.62-4t3.62-4q3.63,0,3.63,4T4.19,49.29Zm2.8-4a3.76,3.76,0,0,0-.66-2.45A2.7,2.7,0,0,0,4.19,42a2.68,2.68,0,0,0-2.13.79,3.73,3.73,0,0,0-.67,2.45,3.68,3.68,0,0,0,.67,2.45,2.68,2.68,0,0,0,2.13.79,2.7,2.7,0,0,0,2.14-.79A3.74,3.74,0,0,0,7,45.26Z"/><path class="cls-1" d="M14.16,49.19h-.83V45.33c0-.93-.52-1.4-1.57-1.4a4.45,4.45,0,0,0-1.7.34v4.92H9.24V43.77a5.5,5.5,0,0,1,2.58-.66q2.34,0,2.34,2.22Z"/><path class="cls-1" d="M20.75,46.23l0,.25v.17H16.34a.87.87,0,0,0,.09.36c.14,1,.79,1.46,1.94,1.46a4.1,4.1,0,0,0,2-.49v.87a4.71,4.71,0,0,1-2,.42c-1.89,0-2.84-1-2.84-3a4.11,4.11,0,0,1,.44-1.94,2.35,2.35,0,0,1,2.24-1.25,2.24,2.24,0,0,1,2.25,1.42A4,4,0,0,1,20.75,46.23Zm-.85-.33a2.59,2.59,0,0,0-.24-1.06,1.58,1.58,0,0,0-1.54-.93c-1.14,0-1.73.66-1.8,2Z"/><path class="cls-1" d="M27.93,49.19h-.78l-2.52-7.84h.88q.72,2.32,2,6.5,1.3-4.17,2.05-6.5h.76l2,6.5,2-6.5h.87l-2.52,7.84H32l-2-6.4Z"/><path class="cls-1" d="M38.65,49.28c-1.87,0-2.8-1-2.8-3.08s.93-3.09,2.8-3.09,2.81,1,2.81,3.09S40.52,49.28,38.65,49.28Zm0-5.39c-1.32,0-2,.76-2,2.31s.67,2.3,2,2.3,2-.77,2-2.3S40,43.89,38.65,43.89Z"/><path class="cls-1" d="M45.31,43.92a8.09,8.09,0,0,0-2.12.34v4.93h-.81V43.7a7.37,7.37,0,0,1,2.93-.58Z"/><path class="cls-1" d="M47.5,49.19h-.83V41h.83Z"/><path class="cls-1" d="M53.39,43.34V41h.81v6.37a1.79,1.79,0,0,1-.39,1.14,2.41,2.41,0,0,1-2,.77c-1.77,0-2.66-1.05-2.66-3.14s.91-3,2.74-3A4.52,4.52,0,0,1,53.39,43.34Zm-.33,4.81a.94.94,0,0,0,.33-.75V44.18a3.88,3.88,0,0,0-1.52-.28c-1.27,0-1.91.75-1.91,2.24s.61,2.36,1.83,2.36A2,2,0,0,0,53.06,48.15Z"/><path class="cls-1" d="M56.45,48h.92l-.95,2.41H55.6Z"/><path class="cls-1" d="M65.59,49.29q-3.62,0-3.62-4t3.62-4q3.63,0,3.63,4T65.59,49.29Zm2.8-4a3.76,3.76,0,0,0-.66-2.45,3.28,3.28,0,0,0-4.27,0,3.73,3.73,0,0,0-.67,2.45,3.68,3.68,0,0,0,.67,2.45,3.28,3.28,0,0,0,4.27,0A3.74,3.74,0,0,0,68.39,45.26Z"/><path class="cls-1" d="M75.56,49.19h-.83V45.33c0-.93-.52-1.4-1.57-1.4a4.45,4.45,0,0,0-1.7.34v4.92h-.82V43.77a5.5,5.5,0,0,1,2.58-.66q2.34,0,2.34,2.22Z"/><path class="cls-1" d="M82.15,46.23l0,.25v.17H77.74a.87.87,0,0,0,.09.36c.14,1,.79,1.46,1.94,1.46a4.1,4.1,0,0,0,2-.49v.87a4.71,4.71,0,0,1-2,.42c-1.89,0-2.84-1-2.84-3a4.11,4.11,0,0,1,.44-1.94,2.35,2.35,0,0,1,2.24-1.25,2.24,2.24,0,0,1,2.25,1.42A4,4,0,0,1,82.15,46.23Zm-.84-.33a2.6,2.6,0,0,0-.25-1.06,1.58,1.58,0,0,0-1.54-.93c-1.14,0-1.73.66-1.79,2Z"/><path class="cls-1" d="M87.44,42.13v2.7h3.65v.81H87.44V48.4h4.13v.79H86.63V41.35h4.94v.78Z"/><path class="cls-1" d="M94.62,46.17l-2.13-3h1c.22.29.51.71.89,1.24l.77,1.06,1.63-2.3h1l-2.15,3,2.18,3h-1l-1.69-2.38-1.69,2.38h-1Z"/><path class="cls-1" d="M103.05,48.11v.83a5.19,5.19,0,0,1-1.78.34c-1.87,0-2.8-1-2.8-3.08s.93-3.09,2.8-3.09a5.22,5.22,0,0,1,1.78.34v.82a5,5,0,0,0-1.72-.36c-1.37,0-2,.76-2,2.29s.68,2.28,2,2.28A4.56,4.56,0,0,0,103.05,48.11Z"/><path class="cls-1" d="M109.21,49.19h-.81V45.56c0-1.08-.51-1.63-1.54-1.63a4.35,4.35,0,0,0-1.79.41v4.85h-.82V41h.82v2.51a4.62,4.62,0,0,1,1.86-.4c1.52,0,2.28.81,2.28,2.45Z"/><path class="cls-1" d="M115.53,47.39a1.64,1.64,0,0,1-1,1.57,3.34,3.34,0,0,1-1.48.31,3.51,3.51,0,0,1-1.53-.32,1.67,1.67,0,0,1-1-1.59,1.73,1.73,0,0,1,1.24-1.7,4.45,4.45,0,0,1,1.63-.27,6.25,6.25,0,0,1,1.25.1q0-1.56-1.77-1.56a6.11,6.11,0,0,0-1.75.3v-.81a5.64,5.64,0,0,1,1.78-.3,2.25,2.25,0,0,1,2.57,2.52Zm-.82-1.12a7.59,7.59,0,0,0-1.33-.1c-1.32,0-2,.4-2,1.19s.57,1.14,1.69,1.14,1.62-.37,1.62-1.11Z"/><path class="cls-1" d="M121.85,49.19H121V45.33c0-.93-.53-1.4-1.58-1.4a4.45,4.45,0,0,0-1.7.34v4.92h-.82V43.77a5.51,5.51,0,0,1,2.59-.66c1.55,0,2.33.74,2.33,2.22Z"/><path class="cls-1" d="M128.22,45v4.41q0,2.07-2.61,2.07a6.56,6.56,0,0,1-1.7-.22v-.8a6.67,6.67,0,0,0,1.63.22c1.24,0,1.86-.41,1.86-1.25v-.56a4.07,4.07,0,0,1-1.48.25c-1.78,0-2.67-1-2.67-2.93a3.09,3.09,0,0,1,.93-2.52,2.57,2.57,0,0,1,1.67-.53,2.37,2.37,0,0,1,2,.76A1.75,1.75,0,0,1,128.22,45Zm-.82,0a.93.93,0,0,0-.32-.71,1.86,1.86,0,0,0-1.23-.34c-1.18,0-1.77.75-1.77,2.27s.61,2.15,1.84,2.15A3.51,3.51,0,0,0,127.4,48Z"/><path class="cls-1" d="M134.62,46.23l0,.25v.17H130.2a.76.76,0,0,0,.1.36c.14,1,.79,1.46,1.94,1.46a4,4,0,0,0,2-.49v.87a4.63,4.63,0,0,1-2,.42c-1.89,0-2.84-1-2.84-3a4,4,0,0,1,.44-1.94A2.33,2.33,0,0,1,132,43.12a2.25,2.25,0,0,1,2.26,1.42A4,4,0,0,1,134.62,46.23Zm-.85-.33a2.45,2.45,0,0,0-.25-1.06,1.57,1.57,0,0,0-1.53-.93c-1.14,0-1.73.66-1.8,2Z"/><path class="cls-1" d="M136.54,49.19V48h.89v1.17Zm0-7.84h.81l0,5.89h-.71Z"/></svg>