<svg id="图层_1" data-name="图层 1" xmlns="http://www.w3.org/2000/svg" viewBox="0 0 290 110"><defs><style>.cls-1{fill:#17489c;}</style></defs><title>55-logo-H5</title><path id="_路径_" data-name="&lt;路径&gt;" class="cls-1" d="M263.73,42.4H252.36V36.71a7.13,7.13,0,0,0-14.26,0V42.4H226.73V36.71a18.5,18.5,0,0,1,37,0Z"/><rect id="_路径_2" data-name="&lt;路径&gt;" class="cls-1" x="252.36" y="30.95" width="11.37" height="41.14"/><path id="_路径_3" data-name="&lt;路径&gt;" class="cls-1" d="M289.35,72.17H278V36.71a7.13,7.13,0,1,0-14.25,0V42.4H252.36V36.71a18.5,18.5,0,0,1,37,0Z"/><rect id="_路径_4" data-name="&lt;路径&gt;" class="cls-1" x="226.73" y="40.96" width="11.37" height="31.2"/><path class="cls-1" d="M223.28,44.48A28.2,28.2,0,0,0,200,16.69a28.57,28.57,0,0,0-13.31.86h0A28,28,0,0,0,175.4,24.3c-3.54,3.49-5.59,8-7.9,12.34s-4.46,8.74-6.79,13c-2.11,3.88-4.49,7.36-8.65,9.24h0a16,16,0,0,1-14-28.78,16.32,16.32,0,0,1,14-.37v0c4.38,2,6.74,5.65,8.9,9.72l6.44-12A28,28,0,0,0,165,24.75h0A28,28,0,0,0,141.72,17,28.49,28.49,0,0,0,122,29.63a27.7,27.7,0,0,0,43,34.31h0a31.52,31.52,0,0,0,5.2-7.48l.67,1.34h0a27.94,27.94,0,0,0,52.36-13.32ZM195.34,60.29a16.07,16.07,0,0,1-10.54-28.2,15.68,15.68,0,0,1,18.49-1.56c5.71,3.51,9.18,10.36,7.78,17A16.23,16.23,0,0,1,195.34,60.29Z"/><g id="_编组_" data-name="&lt;编组&gt;"><rect id="_路径_5" data-name="&lt;路径&gt;" class="cls-1" x="104.1" y="60.4" width="11.77" height="11.77" rx="5.88" ry="5.88"/><polygon id="_路径_6" data-name="&lt;路径&gt;" class="cls-1" points="76.96 2.18 65.68 2.18 54.3 29.01 65.59 29.01 76.96 2.18"/><rect id="_矩形_" data-name="&lt;矩形&gt;" class="cls-1" x="66.95" y="2.18" width="30.38" height="10.54"/><polygon id="_路径_7" data-name="&lt;路径&gt;" class="cls-1" points="28.9 2.18 17.62 2.18 6.24 29.01 17.53 29.01 28.9 2.18"/><rect id="_矩形_2" data-name="&lt;矩形&gt;" class="cls-1" x="18.89" y="2.18" width="30.38" height="10.54"/><g id="_编组_2" data-name="&lt;编组&gt;"><path id="_路径_8" data-name="&lt;路径&gt;" class="cls-1" d="M42.34,49.77A15.51,15.51,0,0,1,12,45.34H.65A27.14,27.14,0,0,0,17,70.06a27.15,27.15,0,0,0,29.42-5.75h0a27.32,27.32,0,0,0,2.28-2.64Z"/><path id="_路径_9" data-name="&lt;路径&gt;" class="cls-1" d="M102.13,44.65A26.81,26.81,0,0,0,56.36,26.37h0A27.32,27.32,0,0,0,54.08,29l6.38,11.91c3.9-13.11,22.3-14.84,28.62-2.77,6.7,12.77-7,27.29-20.14,21.32h0c-5.14-2.33-7.32-7-9.82-11.61C57,43.92,54.85,40,52.77,36,50.4,31.49,48.1,27.47,44,24.24A26.75,26.75,0,0,0,6.22,29L12.6,40.94a15.65,15.65,0,0,1,21.27-9.72v0c4.78,2.17,7,6.28,9.29,10.63L49,52.75q1.62,3,3.26,6.07a25.88,25.88,0,0,0,15,12.1h0C84.51,76.38,102.59,62.77,102.13,44.65Z"/></g></g><path class="cls-1" d="M15.83,88.81a9.64,9.64,0,0,1,1.73,5.94,10.45,10.45,0,0,1-2,6.52,7.91,7.91,0,0,1-6.66,3,8,8,0,0,1-6.35-2.67,10.1,10.1,0,0,1-2.06-6.5,10.38,10.38,0,0,1,1.76-6.08A7.64,7.64,0,0,1,9,85.83Q13.59,85.83,15.83,88.81ZM13.74,100a9.6,9.6,0,0,0,1.4-5.17,7.38,7.38,0,0,0-1.62-5,5.52,5.52,0,0,0-4.41-1.88,5.72,5.72,0,0,0-4.43,1.87A7.82,7.82,0,0,0,3,95.31a8,8,0,0,0,1.47,4.9q1.47,2,4.77,2A5,5,0,0,0,13.74,100Z"/><path class="cls-1" d="M20.1,91.05h2v1.81a5.66,5.66,0,0,1,1.92-1.61,5.16,5.16,0,0,1,2.25-.49c1.81,0,3,.63,3.67,1.9a6.86,6.86,0,0,1,.52,3v8.18H28.32v-8A4.56,4.56,0,0,0,28,93.88a2.12,2.12,0,0,0-2.08-1.19,4,4,0,0,0-1.25.16,3.42,3.42,0,0,0-2.24,2.35,8.61,8.61,0,0,0-.16,1.92v6.68H20.1Z"/><path class="cls-1" d="M41.55,91.4a4.84,4.84,0,0,1,1.93,1.65,5.73,5.73,0,0,1,.85,2.25,15.34,15.34,0,0,1,.19,2.81H35.24a5.47,5.47,0,0,0,.91,3.12,3,3,0,0,0,2.63,1.18,3.38,3.38,0,0,0,2.66-1.11,3.73,3.73,0,0,0,.79-1.5h2.11a4.63,4.63,0,0,1-.55,1.57,6.16,6.16,0,0,1-1,1.41,5,5,0,0,1-2.4,1.29,7.66,7.66,0,0,1-1.74.19,5.29,5.29,0,0,1-4-1.74,6.74,6.74,0,0,1-1.65-4.85,7.33,7.33,0,0,1,1.66-5,5.44,5.44,0,0,1,4.33-1.92A5.72,5.72,0,0,1,41.55,91.4Zm.76,5a5.43,5.43,0,0,0-.6-2.23,3.07,3.07,0,0,0-2.91-1.55,3.23,3.23,0,0,0-2.46,1.07,4,4,0,0,0-1.05,2.71Z"/><path class="cls-1" d="M55.46,86.31l3.3,14.21,4-14.21h2.56l4,14.24,3.3-14.24h2.59L70.54,103.8H68.05L64,89.3,60,103.8H57.46L52.88,86.31Z"/><path class="cls-1" d="M85.85,92.32a6.44,6.44,0,0,1,1.69,4.83,8.36,8.36,0,0,1-1.49,5.1,5.38,5.38,0,0,1-4.63,2,5.23,5.23,0,0,1-4.15-1.78,7.09,7.09,0,0,1-1.53-4.78,7.65,7.65,0,0,1,1.62-5.12,5.41,5.41,0,0,1,4.35-1.9A5.74,5.74,0,0,1,85.85,92.32Zm-1.33,8.48a8.15,8.15,0,0,0,.78-3.59,6.37,6.37,0,0,0-.57-2.9,3.17,3.17,0,0,0-3.08-1.76,3,3,0,0,0-2.83,1.5,7,7,0,0,0-.88,3.61,6.06,6.06,0,0,0,.88,3.39,3.1,3.1,0,0,0,2.81,1.36A2.93,2.93,0,0,0,84.52,100.8Z"/><path class="cls-1" d="M90.23,91.05h2v2.2a4.67,4.67,0,0,1,1.22-1.56,3.18,3.18,0,0,1,2.25-.93H96l.49,0v2.26l-.36,0-.35,0a3.05,3.05,0,0,0-2.49,1,3.62,3.62,0,0,0-.87,2.4v7.33H90.23Z"/><path class="cls-1" d="M98.35,86.31h2.15V103.8H98.35Z"/><path class="cls-1" d="M110.72,91.44a6.08,6.08,0,0,1,1.3,1.25V86.25h2.06V103.8h-1.93V102a4.61,4.61,0,0,1-1.77,1.7,5,5,0,0,1-2.34.53,4.72,4.72,0,0,1-3.68-1.8,7,7,0,0,1-1.55-4.77,8.26,8.26,0,0,1,1.42-4.83,4.62,4.62,0,0,1,4-2A4.51,4.51,0,0,1,110.72,91.44ZM105.94,101a3,3,0,0,0,2.77,1.38,2.9,2.9,0,0,0,2.43-1.28,6.06,6.06,0,0,0,1-3.68,5.44,5.44,0,0,0-1-3.58,3.05,3.05,0,0,0-2.42-1.16,3.23,3.23,0,0,0-2.62,1.24,5.69,5.69,0,0,0-1,3.65A6.35,6.35,0,0,0,105.94,101Z"/><path class="cls-1" d="M117.73,106.31a1.53,1.53,0,0,0,1.16-1.17,3.21,3.21,0,0,0,.18-1s0-.1,0-.15a.49.49,0,0,0,0-.15h-1.3v-2.59h2.55v2.4a5.2,5.2,0,0,1-.57,2.49,2.57,2.57,0,0,1-2,1.32Z"/><path class="cls-1" d="M145.53,88.81a9.65,9.65,0,0,1,1.74,5.94,10.39,10.39,0,0,1-2,6.52,8.84,8.84,0,0,1-13,.38,10.1,10.1,0,0,1-2.06-6.5A10.32,10.32,0,0,1,132,89.07a7.62,7.62,0,0,1,6.69-3.24Q143.31,85.83,145.53,88.81ZM143.44,100a9.6,9.6,0,0,0,1.4-5.17,7.42,7.42,0,0,0-1.61-5,5.54,5.54,0,0,0-4.42-1.88,5.74,5.74,0,0,0-4.43,1.87,7.86,7.86,0,0,0-1.71,5.5,8,8,0,0,0,1.47,4.9q1.47,2,4.77,2A4.92,4.92,0,0,0,143.44,100Z"/><path class="cls-1" d="M149.81,91.05h2v1.81a5.75,5.75,0,0,1,1.92-1.61,5.16,5.16,0,0,1,2.25-.49c1.81,0,3,.63,3.67,1.9a6.71,6.71,0,0,1,.52,3v8.18H158v-8a4.41,4.41,0,0,0-.34-1.89,2.1,2.1,0,0,0-2.07-1.19,4,4,0,0,0-1.25.16,3.17,3.17,0,0,0-1.55,1,3.23,3.23,0,0,0-.7,1.31,8.61,8.61,0,0,0-.16,1.92v6.68h-2.14Z"/><path class="cls-1" d="M171.25,91.4a4.71,4.71,0,0,1,1.93,1.65A5.58,5.58,0,0,1,174,95.3a14.48,14.48,0,0,1,.19,2.81h-9.28a5.55,5.55,0,0,0,.91,3.12,3,3,0,0,0,2.64,1.18,3.39,3.39,0,0,0,2.66-1.11,3.86,3.86,0,0,0,.79-1.5H174a4.42,4.42,0,0,1-.55,1.57,5.63,5.63,0,0,1-1.05,1.41,5,5,0,0,1-2.4,1.29,7.6,7.6,0,0,1-1.74.19,5.31,5.31,0,0,1-4-1.74,6.74,6.74,0,0,1-1.64-4.85,7.38,7.38,0,0,1,1.65-5,5.46,5.46,0,0,1,4.34-1.92A5.68,5.68,0,0,1,171.25,91.4Zm.77,5a5.76,5.76,0,0,0-.6-2.23,3.1,3.1,0,0,0-2.92-1.55A3.23,3.23,0,0,0,166,93.7a4,4,0,0,0-1,2.71Z"/><path class="cls-1" d="M184.23,86.31h12.69v2.14H186.54v5.31h9.6v2h-9.6v5.93H197.1v2.08H184.23Z"/><path class="cls-1" d="M198.77,91.05h2.77l2.94,4.49,3-4.49,2.61.06-4.3,6.15,4.49,6.54H207.5L204.33,99l-3.07,4.78h-2.72L203,97.26Z"/><path class="cls-1" d="M220.61,91.73a5,5,0,0,1,1.62,3.61h-2.08a3.88,3.88,0,0,0-.87-2,2.74,2.74,0,0,0-2.18-.78,3,3,0,0,0-2.93,2,7.93,7.93,0,0,0-.57,3.2,6,6,0,0,0,.81,3.22,2.79,2.79,0,0,0,2.55,1.31,2.76,2.76,0,0,0,2.11-.82,4.46,4.46,0,0,0,1.08-2.22h2.08a5,5,0,0,1-5.44,4.88,4.87,4.87,0,0,1-4-1.83,7,7,0,0,1-1.49-4.56,7.74,7.74,0,0,1,1.63-5.23,5.28,5.28,0,0,1,4.16-1.87A5.55,5.55,0,0,1,220.61,91.73Z"/><path class="cls-1" d="M224.38,86.25h2.14v6.53a6.15,6.15,0,0,1,1.37-1.36,4.56,4.56,0,0,1,2.59-.68,3.82,3.82,0,0,1,3.76,1.94,6.59,6.59,0,0,1,.54,2.94v8.18h-2.21v-8a4.51,4.51,0,0,0-.36-2.07,2.29,2.29,0,0,0-2.19-1,3.67,3.67,0,0,0-2.42.91c-.72.61-1.08,1.77-1.08,3.47v6.76h-2.14Z"/><path class="cls-1" d="M244.78,96.08a1.18,1.18,0,0,0,1-.61,2,2,0,0,0,.14-.83,1.74,1.74,0,0,0-.78-1.59,4.07,4.07,0,0,0-2.23-.5A2.44,2.44,0,0,0,240,95h-2a3.72,3.72,0,0,1,1.53-3.3,6.33,6.33,0,0,1,3.41-.92,6.83,6.83,0,0,1,3.65.86,2.9,2.9,0,0,1,1.4,2.66v7.35a1,1,0,0,0,.13.54.68.68,0,0,0,.58.2l.32,0,.38,0v1.58a4.83,4.83,0,0,1-.76.18,4.53,4.53,0,0,1-.71,0,1.75,1.75,0,0,1-1.61-.79,2.93,2.93,0,0,1-.37-1.18,5.57,5.57,0,0,1-1.88,1.49,5.85,5.85,0,0,1-2.71.63,4.06,4.06,0,0,1-2.9-1.07,3.58,3.58,0,0,1-1.12-2.7,3.5,3.5,0,0,1,1.1-2.75,5.28,5.28,0,0,1,2.91-1.2Zm-4.52,5.8a2.57,2.57,0,0,0,1.61.53,4.83,4.83,0,0,0,2.19-.52,2.94,2.94,0,0,0,1.79-2.84V97.32a3.53,3.53,0,0,1-1,.42,9.24,9.24,0,0,1-1.21.24l-1.3.16a5.22,5.22,0,0,0-1.75.49,1.9,1.9,0,0,0-1,1.78A1.78,1.78,0,0,0,240.26,101.88Z"/><path class="cls-1" d="M251.51,91.05h2v1.81a5.72,5.72,0,0,1,1.91-1.61,5.22,5.22,0,0,1,2.25-.49c1.82,0,3,.63,3.67,1.9a6.69,6.69,0,0,1,.53,3v8.18h-2.18v-8a4.4,4.4,0,0,0-.35-1.89,2.1,2.1,0,0,0-2.07-1.19,4,4,0,0,0-1.25.16,3.46,3.46,0,0,0-2.25,2.35,9.26,9.26,0,0,0-.16,1.92v6.68h-2.14Z"/><path class="cls-1" d="M272.17,91.56a5.86,5.86,0,0,1,1.23,1.22V91.17h2v11.6a8.6,8.6,0,0,1-.71,3.83c-.89,1.73-2.56,2.6-5,2.6a6.18,6.18,0,0,1-3.45-.92,3.62,3.62,0,0,1-1.57-2.89h2.18a2.47,2.47,0,0,0,.62,1.32,3.11,3.11,0,0,0,2.27.71c1.64,0,2.71-.57,3.21-1.73a10,10,0,0,0,.42-3.66,4.16,4.16,0,0,1-1.54,1.45,5.13,5.13,0,0,1-2.39.48,5.07,5.07,0,0,1-3.61-1.47q-1.54-1.47-1.55-4.87a7.39,7.39,0,0,1,1.56-5,4.82,4.82,0,0,1,3.77-1.8A4.67,4.67,0,0,1,272.17,91.56Zm.26,2.3A3.11,3.11,0,0,0,270,92.72a3,3,0,0,0-3.08,2.12,8.36,8.36,0,0,0-.44,3,5.28,5.28,0,0,0,.87,3.28,2.82,2.82,0,0,0,2.34,1.13,3.29,3.29,0,0,0,3.24-2.09,6.68,6.68,0,0,0,.52-2.75A5.31,5.31,0,0,0,272.43,93.86Z"/><path class="cls-1" d="M286.52,91.4a4.78,4.78,0,0,1,1.93,1.65,5.58,5.58,0,0,1,.85,2.25,14.48,14.48,0,0,1,.19,2.81h-9.28a5.55,5.55,0,0,0,.91,3.12,3,3,0,0,0,2.64,1.18,3.39,3.39,0,0,0,2.66-1.11,3.72,3.72,0,0,0,.78-1.5h2.11a4.42,4.42,0,0,1-.55,1.57,5.63,5.63,0,0,1-1.05,1.41,5,5,0,0,1-2.4,1.29,7.6,7.6,0,0,1-1.74.19,5.31,5.31,0,0,1-4-1.74,6.74,6.74,0,0,1-1.65-4.85,7.39,7.39,0,0,1,1.66-5,5.46,5.46,0,0,1,4.33-1.92A5.69,5.69,0,0,1,286.52,91.4Zm.77,5a5.76,5.76,0,0,0-.6-2.23,3.1,3.1,0,0,0-2.92-1.55,3.23,3.23,0,0,0-2.46,1.07,4,4,0,0,0-1.05,2.71Z"/></svg>