<?xml version="1.0" encoding="UTF-8"?>
<svg width="138px" height="52px" viewBox="0 0 138 52" version="1.1" xmlns="http://www.w3.org/2000/svg" xmlns:xlink="http://www.w3.org/1999/xlink">
    <!-- Generator: Sketch 51.1 (57501) - http://www.bohemiancoding.com/sketch -->
    <title>Group 49</title>
    <desc>Created with Sketch.</desc>
    <defs>
        <polygon id="path-1" points="0.736076667 0.407970588 30.6666667 0.407970588 30.6666667 26.1311471 0.736076667 26.1311471"></polygon>
        <polygon id="path-3" points="0.36018 0.407588235 46.210338 0.407588235 46.210338 33.7644054 0.36018 33.7644054"></polygon>
    </defs>
    <g id="Page-1" stroke="none" stroke-width="1" fill="none" fill-rule="evenodd">
        <g id="G.55.com0930" transform="translate(-919.000000, -4008.000000)">
            <g id="Group-49" transform="translate(919.000000, 4008.000000)">
                <polygon id="Fill-1" fill="#FFFFFF" points="5.99615385 47.6118577 2.95307692 43.0055336 2.05538462 43 2 51.9478261 2.91076923 51.9541502 2.95538462 44.6798419 5.98615385 49.1928854 9.07307692 44.7193676 9.02692308 51.9936759 9.94384615 52 10 43.0521739 9.09615385 43.0458498"></polygon>
                <g id="Group-48">
                    <path d="M17.0785733,49.2487412 C17.0732067,50.0708 16.47674,50.4753294 15.2815067,50.4676824 C14.0356733,50.4592706 13.4116067,50.0348588 13.4169733,49.1998 C13.42234,48.3265059 14.1545067,47.8913882 15.6111733,47.9005647 C16.1670067,47.9043882 16.6592067,47.9395647 17.0870067,48.0122118 L17.0785733,49.2487412 Z M15.17264,44.5259176 C14.5271067,44.5213294 13.86854,44.6322118 13.1961733,44.8509176 L13.19004,45.7433294 C13.9268067,45.5246235 14.57234,45.4206235 15.12894,45.4244471 C16.4391733,45.4328588 17.0870067,46.0109765 17.07934,47.1511529 C16.7151733,47.0792706 16.24904,47.0379765 15.6932067,47.0341529 C15.0032067,47.0295647 14.40214,47.1282118 13.89614,47.3224471 C12.9792067,47.6734471 12.5153733,48.2951529 12.5100067,49.1936824 C12.50464,49.9973882 12.8649733,50.5862118 13.5848733,50.9532706 C14.0625067,51.1926235 14.6306067,51.3111529 15.27614,51.3149765 C15.90864,51.3195647 16.4591067,51.2079176 16.9145067,50.9876824 C17.6259733,50.6351529 17.98094,50.0578 17.9863067,49.2540941 L17.9985733,47.3232118 C18.0100733,45.4680353 17.0709067,44.5381529 15.17264,44.5259176 Z" id="Fill-2" fill="#FFFFFF"></path>
                    <polygon id="Fill-4" fill="#FFFFFF" points="24.7122733 44.6952235 23.48484 44.6875765 20.4802733 47.8488706 20.5163067 42.2267529 19.5963067 42.2214 19.53804 51.2533412 20.4588067 51.2586941 20.47184 49.1427529 21.2507733 48.3252824 23.7945733 51.2801059 25.0089733 51.2885176 21.8687067 47.6791059"></polygon>
                    <path d="M27.46039,47.6703882 C27.5401233,46.2113294 28.2025233,45.4825647 29.46139,45.4902118 C30.2602567,45.4955647 30.82759,45.8435059 31.1549567,46.5340353 C31.33819,46.9240353 31.4248233,47.3132706 31.4225233,47.6956235 L27.46039,47.6703882 Z M29.5058567,44.6176824 C28.36199,44.6100353 27.5347567,45.0635059 27.0241567,45.9849765 C26.6937233,46.5883294 26.5296567,47.3010353 26.52429,48.1230941 C26.51049,50.2971529 27.5516233,51.3937412 29.64769,51.4067412 C30.4971567,51.4128588 31.2523233,51.2645059 31.9001567,50.9624471 L31.90629,49.9996824 C31.2584567,50.3529765 30.5224567,50.5265647 29.7044233,50.5212118 C28.4325233,50.5128 27.72029,49.9729176 27.5677233,48.9008 C27.4979567,48.7539765 27.46729,48.6201529 27.46729,48.5054471 L32.31799,48.5360353 L32.33179,48.3456235 L32.35249,48.0710941 C32.35709,47.3767412 32.23979,46.7512118 31.9944567,46.2013882 C31.54059,45.1529765 30.7133567,44.6253294 29.5058567,44.6176824 Z" id="Fill-6" fill="#FFFFFF"></path>
                    <polygon id="Fill-8" fill="#FFFFFF" points="37.7676867 43.5993235 40.83512 43.6184412 40.7852867 51.3893824 41.6991533 51.3947353 41.7489867 43.6245588 44.7972533 43.6444412 44.80262 42.7581471 37.7730533 42.7130294"></polygon>
                    <path d="M49.23104,44.7307059 C48.54104,44.7261176 47.8564067,44.8683529 47.17024,45.1635294 L47.1878733,42.3975882 L46.2747733,42.3914706 L46.2165067,51.4234118 L47.1303733,51.4295294 L47.1648733,46.0750588 C47.8311067,45.7798824 48.49044,45.6376471 49.1490067,45.6414706 C50.27984,45.6491176 50.8441067,46.2517059 50.8372067,47.4438824 L50.81114,51.4532353 L51.7119733,51.4585882 L51.73804,47.4492353 C51.74954,45.6452941 50.9115733,44.7414118 49.23104,44.7307059" id="Fill-10" fill="#FFFFFF"></path>
                    <path d="M54.6295233,47.8439765 C54.7092567,46.3849176 55.3724233,45.6561529 56.63129,45.6638 C57.4301567,45.6691529 57.9967233,46.0170941 58.32409,46.7076235 C58.5073233,47.0968588 58.5939567,47.4868588 58.5916567,47.8692118 L54.6295233,47.8439765 Z M56.67499,44.7905059 C55.5311233,44.7836235 54.70389,45.2370941 54.19329,46.1578 C53.8628567,46.7619176 53.69879,47.4746235 53.6934233,48.2966824 C53.6796233,50.4707412 54.7207567,51.5673294 56.8168233,51.5803294 C57.66629,51.5856824 58.4214567,51.4380941 59.06929,51.1360353 L59.0754233,50.1732706 C58.42759,50.5258 57.69159,50.7001529 56.8735567,50.6948 C55.6024233,50.6863882 54.8894233,50.1465059 54.7368567,49.0743882 C54.66709,48.9275647 54.6364233,48.7937412 54.63719,48.6790353 L59.4871233,48.7096235 L59.5009233,48.5184471 L59.52239,48.2446824 C59.52699,47.5503294 59.40969,46.9248 59.16359,46.3749765 C58.71049,45.3265647 57.8832567,44.7989176 56.67499,44.7905059 Z" id="Fill-12" fill="#FFFFFF"></path>
                    <path d="M73.4476633,50.1187471 L71.2250967,42.9266882 L70.3878967,42.9213353 C69.8274633,44.6388647 69.05773,47.0247471 68.08023,50.0843353 C67.13493,47.0125118 66.3958633,44.6174529 65.87683,42.8930412 L64.9046967,42.8861588 L67.6355633,51.5602176 L68.49193,51.5655706 L70.7995967,44.5180412 L73.0167967,51.5946294 L73.85323,51.5999824 L76.6952633,42.9618647 L75.7307967,42.9557471 L73.4476633,50.1187471 Z" id="Fill-14" fill="#FFFFFF"></path>
                    <path d="M80.88709,50.8864353 C79.4235233,50.8772588 78.6944233,50.0246118 78.7051567,48.3292588 C78.71589,46.6270235 79.45649,45.7843176 80.9200567,45.7934941 C82.3836233,45.8034353 83.1127233,46.6553176 83.10199,48.3567882 C83.0912567,50.0529059 82.3506567,50.8956118 80.88709,50.8864353 M80.9254233,44.9332 C78.8615567,44.9202 77.81889,46.0481412 77.8043233,48.3231412 C77.7897567,50.5927882 78.8178567,51.7337294 80.8817233,51.7467294 C82.95249,51.7604941 83.99439,50.6317882 84.0089567,48.3629059 C84.0235233,46.0879059 82.9954233,44.9462 80.9254233,44.9332" id="Fill-16" fill="#FFFFFF"></path>
                    <path d="M85.5338567,51.6746176 L86.43469,51.6807353 L86.4699567,46.2367941 C87.2381567,46.0127353 88.0186233,45.8965 88.81749,45.8819706 L88.8236233,44.9964329 C87.6414233,44.9949118 86.5596567,45.2052059 85.5729567,45.6127941 L85.5338567,51.6746176 Z" id="Fill-18" fill="#FFFFFF"></path>
                    <polygon id="Fill-20" fill="#FFFFFF" points="90.8054567 51.7082647 91.7193233 51.7143824 91.77759 42.6824412 90.8637233 42.6763235"></polygon>
                    <path d="M98.77419,49.7897706 C98.77189,50.1270059 98.6484567,50.4007706 98.4046567,50.6095353 C98.0895567,50.8687706 97.6226567,50.9934176 97.0024233,50.9895941 C95.6477233,50.9811824 94.9761233,50.1094176 94.9876233,48.3758294 C94.99759,46.7248294 95.7121233,45.9012412 97.12509,45.9096529 C97.7445567,45.9142412 98.2996233,46.0190059 98.7964233,46.2331235 L98.77419,49.7897706 Z M98.8025567,45.3085941 C98.3433233,45.1395941 97.7882567,45.0539471 97.12969,45.0493588 C95.1041567,45.0363588 94.0875567,46.1451824 94.07299,48.3704765 C94.0584233,50.6775941 95.0351567,51.8376529 96.9970567,51.8498882 C98.0320567,51.8567706 98.7818567,51.5807118 99.23879,51.0163588 C99.52859,50.6546529 99.6719567,50.2355941 99.67579,49.7637706 L99.7202567,42.7330647 L98.8194233,42.7269471 L98.8025567,45.3085941 Z" id="Fill-22" fill="#FFFFFF"></path>
                    <polygon id="Fill-24" fill="#FFFFFF" points="105.757297 51.8038529 106.66503 51.8099706 106.69033 47.9023235 110.57503 47.9275588 110.581163 47.0412647 106.695697 47.0160294 106.714863 44.0137941 111.137763 44.0428529 111.142363 43.1817941 105.813263 43.1481471"></polygon>
                    <polygon id="Fill-26" fill="#FFFFFF" points="113.31019 51.8520294 114.224057 51.8581471 114.282323 42.8262059 113.368457 42.8200882"></polygon>
                    <path d="M119.449503,51.1328235 C117.985937,51.1236471 117.256837,50.271 117.26757,48.5756471 C117.278303,46.8734118 118.018903,46.0307059 119.48247,46.0398824 C120.94527,46.0490588 121.67437,46.9017059 121.664403,48.6031765 C121.652903,50.2992941 120.912303,51.142 119.449503,51.1328235 M119.487837,45.1795882 C117.423203,45.1665882 116.381303,46.2937647 116.366737,48.5695294 C116.35217,50.8391765 117.38027,51.9801176 119.44337,51.9931176 C121.514137,52.0068824 122.556803,50.8781765 122.57137,48.6092941 C122.585937,46.3342941 121.557837,45.1925882 119.487837,45.1795882" id="Fill-28" fill="#FFFFFF"></path>
                    <polygon id="Fill-30" fill="#FFFFFF" points="130.55421 50.4835118 128.964143 45.3607471 128.165277 45.3561588 126.541477 50.4575118 124.816477 45.3347471 123.85201 45.3286294 126.109843 51.9333941 126.93401 51.9387471 128.563943 46.8817471 130.129477 51.9593941 130.966677 51.9647471 133.296577 45.3882765 132.344377 45.3829235"></polygon>
                    <polygon id="Fill-32" fill="#FFFFFF" points="135.586917 49.8397824 136.37275 49.8451353 136.47855 43.3436059 135.577717 43.3382529"></polygon>
                    <polygon id="Fill-34" fill="#FFFFFF" points="135.483647 51.9938824 136.461147 52 136.46958 50.7061176 135.49208 50.7"></polygon>
                    <g id="Group-38" transform="translate(107.333333, 7.647059)">
                        <mask id="mask-2" fill="white">
                            <use xlink:href="#path-1"></use>
                        </mask>
                        <g id="Clip-37"></g>
                        <path d="M28.0769433,2.99038235 C26.4071433,1.32561765 24.1868767,0.407970588 21.8255433,0.407970588 C19.52171,0.407970588 17.35741,1.28585294 15.70141,2.87491176 C14.0461767,1.28661765 11.88111,0.407970588 9.57727667,0.407970588 C7.21594333,0.407970588 4.99567667,1.32561765 3.32511,2.99114706 C1.65531,4.65744118 0.736076667,6.87202941 0.736076667,9.22655882 L0.736076667,11.2530294 L0.736076667,11.9366765 L0.736076667,26.1311471 L6.17097667,26.1311471 L6.17097667,11.9366765 L6.17097667,11.2530294 L6.17097667,9.22655882 C6.17097667,8.31885294 6.52517667,7.46620588 7.16917667,6.82385294 C7.81164333,6.18226471 8.66801,5.82820588 9.57727667,5.82820588 C10.4880767,5.82820588 11.34291,6.18226471 11.9861433,6.82308824 C12.6293767,7.46544118 12.9835767,8.31885294 12.9835767,9.22655882 L12.9835767,11.9366765 L12.9835767,26.0921471 L18.4184767,26.0921471 L18.4184767,11.9366765 L18.4184767,9.22655882 C18.4184767,8.31885294 18.7726767,7.46620588 19.4166767,6.82385294 C20.05991,6.18226471 20.9147433,5.82820588 21.8255433,5.82820588 C22.73481,5.82820588 23.59041,6.18226471 24.2336433,6.82308824 C24.8776433,7.46620588 25.2318433,8.31885294 25.2318433,9.22655882 L25.2318433,26.1311471 L30.6667433,26.1311471 L30.6667433,9.22655882 C30.6667433,6.87202941 29.74751,4.65744118 28.0769433,2.99038235" id="Fill-36" fill="#FFFFFF" mask="url(#mask-2)"></path>
                    </g>
                    <path d="M100.580073,22.0418824 C99.84024,25.5411765 96.64784,28.1144118 93.06444,28.1144118 C89.9119067,28.1144118 87.00854,26.1215882 85.8853733,23.1828235 C84.7484067,20.2104118 85.6208733,16.7562353 88.02514,14.6701176 C90.4961067,12.5258824 94.0710733,12.2169412 96.8632733,13.9268235 C99.59184,15.5977059 101.25244,18.8652941 100.580073,22.0418824 M95.26784,7.32588235 C93.1487733,6.97411765 90.95534,7.09111765 88.90374,7.73805882 L88.90374,7.73958824 C86.8950733,8.37276471 85.03054,9.47852941 83.5317067,10.9551765 C81.8412067,12.6207059 80.8591067,14.7733529 79.7535733,16.8365294 C78.6488067,18.8997059 77.62454,21.0041765 76.5082733,23.0612353 C75.5031733,24.9125882 74.36314,26.5689412 72.3744067,27.4674706 L72.3744067,27.4605882 C68.6070067,29.1651176 63.9449067,27.4506471 62.2728067,23.6676471 C60.6582067,20.0177059 62.12714,15.5839412 65.6982733,13.741 C67.7376067,12.6887647 70.2837067,12.6161176 72.3744067,13.5620588 L72.3744067,13.5551765 C74.4674067,14.5011176 75.5974733,16.2454118 76.6301733,18.1892941 L79.7052733,12.4708235 C79.35414,12.0158235 78.9853733,11.5753529 78.5782733,11.1700588 L78.57904,11.1700588 C75.68104,8.32382353 71.4666733,6.89152941 67.43094,7.48035294 C63.6183067,8.03705882 60.1062067,10.257 58.0178067,13.4947647 C55.6074067,17.2311176 55.4096067,22.1734118 57.2795067,26.1659412 C58.9286067,29.6835882 62.25364,32.2843529 66.0018733,33.254 C70.4500733,34.4048824 75.3099733,33.0643529 78.57904,29.8533529 L78.5782733,29.8525882 C79.6263067,28.808 80.36154,27.5791176 81.0645733,26.2905882 C81.1719067,26.5016471 81.2761733,26.7142353 81.3842733,26.9252941 L81.3911733,26.9252941 C83.74714,31.1426471 88.3203067,33.8145294 93.1625733,33.7778235 C97.60004,33.7434118 101.79984,31.4515882 104.231707,27.7504118 C105.614773,25.6436471 106.412873,23.101 106.417473,20.5774706 C106.47574,14.1134118 101.662607,8.385 95.26784,7.32588235" id="Fill-39" fill="#FFFFFF"></path>
                    <path d="M55.0757233,30.9726529 C55.0757233,29.4233588 53.8168567,28.1677118 52.26359,28.1677118 L52.2628233,28.1677118 C50.7095567,28.1677118 49.45069,29.4233588 49.45069,30.9726529 C49.45069,32.5219471 50.7095567,33.7775941 52.2628233,33.7775941 L52.26359,33.7775941 C53.8168567,33.7775941 55.0757233,32.5219471 55.0757233,30.9726529" id="Fill-41" fill="#FFFFFF"></path>
                    <path d="M21.8915533,30.0309941 C22.2848533,29.6387 22.64212,29.2127588 22.9817533,28.7722882 L19.9296533,23.0966412 C18.9084533,26.5263471 15.45922,28.7646412 11.90802,28.3264647 C8.23798667,27.8752882 5.40668667,24.6749941 5.40668667,20.9868176 L0.000153333333,20.9868176 C0.000153333333,26.0507 3.14425333,30.8041118 7.83012,32.7709353 C12.5826867,34.7652882 18.24682,33.6671706 21.8915533,30.0309941 Z" id="Fill-43" fill="#FFFFFF"></path>
                    <g id="Group-47" transform="translate(2.300000, 0.000000)">
                        <mask id="mask-4" fill="white">
                            <use xlink:href="#path-3"></use>
                        </mask>
                        <g id="Clip-46"></g>
                        <path d="M38.7694133,9.36825882 C36.2187133,8.19902353 33.3897133,7.94972941 30.73168,8.51484706 L32.0419133,5.43231765 L43.9122133,5.43231765 L43.9122133,0.407435294 L34.1778467,0.407435294 L29.3923133,0.407435294 L28.78358,0.407435294 L23.46138,12.9294941 C23.38778,13.0204941 23.3111133,13.1092 23.2398133,13.2017294 L26.2919133,18.8773765 C28.1526133,12.6312588 36.9470467,11.8030824 39.97078,17.5567294 C43.1716133,23.6460824 36.6350133,30.5697294 30.34068,27.7219647 L30.34068,27.7280824 C27.8881133,26.6200235 26.84238,24.4077294 25.65098,22.1916118 C24.63898,20.3096706 23.60628,18.4361412 22.6142133,16.5434941 C21.4818467,14.3832 20.3809133,12.4653176 18.4282133,10.9274941 C16.1320467,9.11972941 13.2279133,8.15161176 10.30308,8.20055294 C9.44594667,8.21431765 8.59418,8.33131765 7.75774667,8.51714118 L9.06951333,5.43231765 L20.9398133,5.43231765 L20.9398133,0.407435294 L11.20468,0.407435294 L6.41914667,0.407435294 L5.81041333,0.407435294 L0.380113333,13.1841412 C0.37398,13.1925529 0.366313333,13.1994353 0.36018,13.2078471 L3.41381333,18.8873176 C4.67038,14.6493176 9.54024667,12.4240235 13.5813467,14.2524353 L13.5813467,14.2440235 C15.8652467,15.2779059 16.9071467,17.2409059 18.0211133,19.3132588 C18.9541467,21.0491412 19.8879467,22.7850235 20.82098,24.5209059 C21.3400133,25.4859647 21.85828,26.4510235 22.3773133,27.4160824 C23.86388,30.1812588 26.5449133,32.2406118 29.53108,33.1812 L29.53108,33.1834941 C37.7873133,35.7857882 46.4299467,29.2972588 46.20608,20.6568471 C46.0834133,15.8552588 43.1578133,11.3786706 38.7694133,9.36825882" id="Fill-45" fill="#FFFFFF" mask="url(#mask-4)"></path>
                    </g>
                </g>
            </g>
        </g>
    </g>
</svg>