<?xml version="1.0" encoding="UTF-8"?>
<svg width="9px" height="12px" viewBox="0 0 9 12" version="1.1" xmlns="http://www.w3.org/2000/svg" xmlns:xlink="http://www.w3.org/1999/xlink">
    <!-- Generator: Sketch 59.1 (86144) - https://sketch.com -->
    <title>Lock</title>
    <desc>Created with Sketch.</desc>
    <g id="页面-1" stroke="none" stroke-width="1" fill="none" fill-rule="evenodd">
        <g id="交易页面" transform="translate(-758.000000, -494.000000)" fill="#788390" fill-rule="nonzero">
            <path d="M764.283776,497.064587 C764.283658,496.096809 763.47292,495.209677 762.418859,495.209677 C761.445867,495.209677 760.554061,496.016059 760.554061,497.064457 L760.554061,499 L759.5,499 L759.5,496.983824 C759.5,495.370956 760.797293,494 762.499941,494 C764.121521,494 765.5,495.290323 765.5,496.983824 L765.5,499 L766.276833,499 C766.678499,499 767,499.333427 767,499.750052 L767,505.249948 C767,505.66656 766.678499,506 766.276833,506 L758.723167,506 C758.321367,506 758,505.666573 758,505.249948 L758,499.750052 C758,499.33344 758.321367,499 758.723167,499 L764.283658,499 L764.283776,497.064587 Z" id="Lock"></path>
        </g>
    </g>
</svg>