<?xml version="1.0" encoding="UTF-8"?>
<svg width="13px" height="12px" viewBox="0 0 13 12" version="1.1" xmlns="http://www.w3.org/2000/svg" xmlns:xlink="http://www.w3.org/1999/xlink">
    <!-- Generator: Sketch 59.1 (86144) - https://sketch.com -->
    <title>Unlock</title>
    <desc>Created with Sketch.</desc>
    <g id="页面-1" stroke="none" stroke-width="1" fill="none" fill-rule="evenodd">
        <g id="交易页面" transform="translate(-480.000000, -494.000000)" fill="#788390" fill-rule="nonzero">
            <path d="M487,496.983824 C487,495.370956 488.297293,494 489.999941,494 C491.621521,494 493,495.290323 493,496.983824 L493,498.919367 L491.864857,498.919367 L491.783776,497.064587 C491.783658,496.096809 490.97292,495.209677 489.918859,495.209677 C488.945867,495.209677 488.054061,496.016059 488.054061,497.064457 L488.054061,499 L488.276833,499 C488.678499,499 489,499.333427 489,499.750052 L489,505.249948 C489,505.66656 488.678499,506 488.276833,506 L480.723167,506 C480.321367,506 480,505.666573 480,505.249948 L480,499.750052 C480,499.33344 480.321367,499 480.723167,499 L487,499 L487,496.983824 Z" id="Unlock"></path>
        </g>
    </g>
</svg>