<?xml version="1.0" encoding="UTF-8"?>
<svg width="16px" height="16px" viewBox="0 0 16 16" version="1.1" xmlns="http://www.w3.org/2000/svg" xmlns:xlink="http://www.w3.org/1999/xlink">
    <!-- Generator: Sketch 50.2 (55047) - http://www.bohemiancoding.com/sketch -->
    <title>balances</title>
    <desc>Created with Sketch.</desc>
    <defs></defs>
    <g id="Page-1" stroke="none" stroke-width="1" fill="none" fill-rule="evenodd">
        <g id="Tablet" transform="translate(-461.000000, -75.000000)" fill="#8D9ACE">
            <g id="balances" transform="translate(461.000000, 75.000000)">
                <path d="M1,3 L1,4 L0,4 L1,3 L1,14.5142857 C1,14.7071865 1.39417197,15 2,15 L14,15 C14.605828,15 15,14.7071865 15,14.5142857 L15,4.11428571 L16,4.11428571 L16,14.5142857 C16,15.3348231 15.1045695,16 14,16 L2,16 C0.8954305,16 0,15.3348231 0,14.5142857 L0,3 L1,3 Z M1,3 L1,4 L0,4 L1,3 L1,14.5142857 C1,14.7071865 1.39417197,15 2,15 L14,15 C14.605828,15 15,14.7071865 15,14.5142857 L15,4.11428571 L16,4.11428571 L16,14.5142857 C16,15.3348231 15.1045695,16 14,16 L2,16 C0.8954305,16 0,15.3348231 0,14.5142857 L0,3 L1,3 Z" id="Rectangle-11" fill-rule="nonzero"></path>
                <path d="M16,1 L2.5,1 C1.67157288,1 1,1.67157288 1,2.5 C1,3.32842712 1.67157288,4 2.5,4 L16,4 L16,5 L2.5,5 C1.11928813,5 0,3.88071187 0,2.5 C0,1.11928813 1.11928813,0 2.5,0 L16,0 L16,1 Z" id="Rectangle-16" fill-rule="nonzero"></path>
                <path d="M16,9 L7.39999998,9 C7.17908609,9 7,9.17908609 7,9.39999998 L7,11.6 C7,11.8209139 7.17908609,12 7.39999998,12 L16,12 L16,13 L7.39999998,13 C6.62680134,13 6,12.3731987 6,11.6 L6,9.39999998 C6,8.62680134 6.62680134,8 7.39999998,8 L16,8 L16,9 Z" id="Rectangle-17" fill-rule="nonzero"></path>
                <rect id="Rectangle-18" transform="translate(8.600000, 10.600000) rotate(45.000000) translate(-8.600000, -10.600000) " x="8" y="10" width="1.20000005" height="1.20000005" rx="0.200000003"></rect>
                <rect id="Rectangle-20" x="3" y="2" width="12" height="1" rx="0.5"></rect>
            </g>
        </g>
    </g>
</svg>