<?xml version="1.0" encoding="UTF-8"?>
<svg width="16px" height="16px" viewBox="0 0 16 16" version="1.1" xmlns="http://www.w3.org/2000/svg" xmlns:xlink="http://www.w3.org/1999/xlink">
    <!-- Generator: Sketch 50.2 (55047) - http://www.bohemiancoding.com/sketch -->
    <title>invite</title>
    <desc>Created with Sketch.</desc>
    <defs></defs>
    <g id="Page-1" stroke="none" stroke-width="1" fill="none" fill-rule="evenodd">
        <g id="Tablet" transform="translate(-537.000000, -126.000000)" fill="#8D9ACE" fill-rule="nonzero">
            <g id="invite" transform="translate(537.000000, 126.000000)">
                <path d="M15.2361189,5.46556236 L14.173133,4.7245642 L14.173133,2.09934815 C14.173133,0.941760746 13.2270682,-1.7908731e-08 12.0641536,0 L3.8438152,0 C2.68093735,0 1.73487253,0.941760746 1.73487253,2.09934815 L1.73487253,4.75064227 L0.751104309,5.46942918 C0.280515157,5.79500876 -7.09370159e-05,6.32935888 1.34524615e-08,6.89983746 L1.34524615e-08,14.2579744 C1.34524615e-08,15.2185194 0.785033694,16 1.74998704,16 L14.2500679,16 C15.214966,16 15.9999997,15.2185378 15.9999997,14.2579744 L15.9999997,6.9047672 C16.0003553,6.32874696 15.714341,5.78987587 15.2361189,5.46556236 Z M14.6433027,6.31440971 L14.6495805,6.31873467 C14.8447819,6.45046787 14.9616268,6.67000928 14.9614805,6.9047672 L14.9614805,7.61343807 L14.173133,8.11700308 L14.173133,5.98668378 L14.6433027,6.31440971 Z M3.8438152,1.0337945 L12.0641904,1.0337945 C12.6544476,1.0337945 13.1346323,1.51179458 13.1346323,2.09932983 L13.1346323,8.78028017 L8.14971812,11.9642778 L2.77341013,8.71806302 L2.77341013,2.09932983 C2.77341013,1.51179456 3.25359478,1.0337945 3.8438152,1.0337945 Z M1.34675565,6.31633395 C1.3511372,6.31332847 1.35548193,6.31026801 1.35973461,6.30711591 L1.73483572,6.0330122 L1.73483572,8.09090669 L1.03853762,7.67052392 L1.03853762,6.89981914 C1.03849995,6.66667031 1.15377289,6.448448 1.34675565,6.31633395 Z M14.2500679,14.9661688 L1.74998704,14.9661688 C1.35770954,14.9661688 1.03853762,14.6484673 1.03853762,14.2579561 L1.03853762,8.87960772 L7.88815069,13.0154638 C8.05765856,13.1179291 8.27101435,13.1152476 8.43786941,13.0085549 L14.9614805,8.84172764 L14.9614805,14.2579561 C14.9614621,14.6484673 14.6423638,14.9661688 14.2500679,14.9661688 Z" id="Shape"></path>
                <path d="M11.4693634,4.10105071 L5.53063659,4.10105071 C5.23757528,4.10105071 5.00000002,3.85457088 5,3.55052535 C4.99999998,3.24647981 5.23757528,3 5.53063659,3 L11.4693634,3 C11.7624247,3 12,3.24647983 12,3.55052535 C12,3.85457086 11.7624247,4.10105069 11.4693634,4.10105071 Z M10.012275,7 L5.53063659,7 C5.23757528,7 5.00000002,6.75352017 5,6.44947465 C4.99999998,6.14542914 5.23757528,5.89894931 5.53063659,5.89894929 L10.012275,5.89894929 C10.3053363,5.89894929 10.5429115,6.14542912 10.5429115,6.44947465 C10.5429115,6.75352019 10.3053363,7 10.012275,7 Z" id="Shape"></path>
            </g>
        </g>
    </g>
</svg>