<?xml version="1.0" encoding="utf-8"?>
<!-- Generator: Adobe Illustrator 22.0.0, SVG Export Plug-In . SVG Version: 6.00 Build 0)  -->
<svg version="1.1" id="Layer_1" xmlns="http://www.w3.org/2000/svg" xmlns:xlink="http://www.w3.org/1999/xlink" x="0px" y="0px"
	 viewBox="0 0 155.6 59.2" style="enable-background:new 0 0 155.6 59.2;" xml:space="preserve">
<style type="text/css">
	.st0{fill:#FFFFFF;}
</style>
<g>
	<g id="XMLID_442_">
		<polygon id="XMLID_478_" class="st0" points="41.1,10.7 35,10.7 28.9,25.2 35,25.2 		"/>
		<rect id="XMLID_476_" x="35.7" y="10.7" class="st0" width="16.4" height="5.7"/>
		<polygon id="XMLID_474_" class="st0" points="15.2,10.7 9.1,10.7 3,25.2 9.1,25.2 		"/>
		<rect id="XMLID_472_" x="9.8" y="10.7" class="st0" width="16.4" height="5.7"/>
		<g id="XMLID_444_">
			<g>
				<path id="XMLID_25_" class="st0" d="M22.5,36.4c-1.2,3.9-5,6.4-9,5.9c-4.1-0.5-7.3-4.1-7.3-8.3H0c0,5.7,3.5,11.1,8.8,13.3
					c5.4,2.3,11.7,1,15.9-3.1l0,0c0.4-0.4,0.8-0.9,1.2-1.4L22.5,36.4z"/>
				<path id="XMLID_24_" class="st0" d="M54.7,33.6c-0.1-5.4-3.4-10.5-8.4-12.8c-5.5-2.5-12-1.3-16.3,2.9l0,0
					c-0.4,0.4-0.8,0.9-1.2,1.4l3.4,6.4c2.1-7.1,12-8,15.4-1.5c3.6,6.9-3.8,14.7-10.9,11.5l0,0c-2.8-1.3-3.9-3.8-5.3-6.3
					c-1.1-2.1-2.3-4.2-3.4-6.4c-1.3-2.4-2.5-4.6-4.7-6.3c-2.6-2-5.9-3.1-9.2-3.1C9.9,19.6,5.6,21.7,3,25.2l3.4,6.4
					c1.4-4.8,6.9-7.3,11.5-5.2l0,0c2.6,1.2,3.8,3.4,5,5.7c1.1,2,2.1,3.9,3.2,5.9c0.6,1.1,1.2,2.2,1.8,3.3c1.7,3.1,4.7,5.5,8.1,6.5
					l0,0C45.2,50.7,54.9,43.4,54.7,33.6z"/>
			</g>
		</g>
	</g>
</g>
</svg>
