<?xml version="1.0" standalone="no"?><!DOCTYPE svg PUBLIC "-//W3C//DTD SVG 1.1//EN" "http://www.w3.org/Graphics/SVG/1.1/DTD/svg11.dtd"><svg t="1541145292929" class="icon" style="" viewBox="0 0 1568 1024" version="1.1" xmlns="http://www.w3.org/2000/svg" p-id="2360" xmlns:xlink="http://www.w3.org/1999/xlink" width="36.75" height="24"><defs><style type="text/css"></style></defs><path d="M1555.872 0v1024H0V0z" fill="#FFFFFF" p-id="2361"></path><path d="M282.176 340.608l146.976-221.088 36.416 24.32-146.976 221.12-36.416-24.352z m54.048 35.584l146.944-221.12 36.416 24.32-146.976 221.12-36.384-24.32zM227.296 302.816l146.976-221.12 36.384 24.352-146.976 221.12-36.384-24.352z m996.928 493.472l67.424-101.44 36.384 24.32-67.424 101.44-36.416-24.32z m-133.216 82.464l67.424-101.44 36.384 24.32-67.424 101.44-36.416-24.32z m76.992-118.304l67.424-101.44 36.384 24.352-67.424 101.44-36.416-24.352z m-133.216 82.496l67.424-101.44 36.384 24.32-67.424 101.44-36.416-24.32z m109.056 73.376l67.424-101.44 36.416 24.32-67.424 101.44-36.384-24.32z m-28.224-193.44l67.424-101.44 36.416 24.32-67.424 101.44-36.416-24.32z" fill="" p-id="2362"></path><path d="M631.008 733.088c78.784 52.672 179.584 59.2 264.448 17.088s140.896-126.368 146.976-221.12c6.08-94.752-38.688-185.568-117.472-238.208s-179.584-59.2-264.448-17.088-140.896 126.368-146.976 221.12a265.952 265.952 0 0 0 117.472 238.208z" fill="#CE1126" p-id="2363"></path><path d="M559.136 365.728c-41.312 60.96-24.32 143.84 36.48 182.848 60.768 41.44 143.424 24.384 182.336-36.576 41.312-60.96 121.568-78.016 182.336-36.576s77.792 121.92 36.48 182.848c-80.224 121.92-243.104 156.032-364.64 73.152s-155.584-243.808-72.928-365.728z" fill="#003F87" p-id="2364"></path><path d="M1224.512 227.232l36.416-24.384 67.424 101.44-36.384 24.384-67.424-101.44zM1115.296 300.16l36.416-24.32 67.424 101.44-36.384 24.352-67.424-101.44z m-80.512-119.328l36.416-24.352 67.424 101.44-36.416 24.352-67.424-101.44z m109.376-72.928l36.416-24.32L1248 185.024l-36.416 24.352-67.424-101.44z m66.496 140.768l-24.32-36.576-60.768-92.64-36.48 24.384 60.768 92.64 19.456 26.816 65.632 102.4 38.912-24.384-63.2-92.64zM410.848 758.24l7.296 7.328 65.632 102.4 36.48-24.384-145.856-221.856-36.48 24.384 72.928 112.16z m-49.824 44.576l36.416-24.352 67.424 101.44-36.416 24.352-67.424-101.44z m-15.808 11.52l-12.16-17.056-68.064-102.4-36.48 24.384 145.856 221.856 36.48-24.384-65.632-102.4z m-61.568-131.392l36.416-24.32 67.424 101.44-36.416 24.32-67.424-101.44z" fill="" p-id="2365"></path></svg>