<?xml version="1.0" encoding="UTF-8"?>
<svg width="12px" height="16px" viewBox="0 0 12 16" version="1.1" xmlns="http://www.w3.org/2000/svg" xmlns:xlink="http://www.w3.org/1999/xlink">
    <!-- Generator: Sketch 50.2 (55047) - http://www.bohemiancoding.com/sketch -->
    <title>phoneApp</title>
    <desc>Created with Sketch.</desc>
    <defs></defs>
    <g id="Page-1" stroke="none" stroke-width="1" fill="none" fill-rule="evenodd">
        <g id="Tablet" transform="translate(-349.000000, -75.000000)">
            <g id="phoneApp" transform="translate(349.000000, 75.000000)">
                <rect id="Rectangle-24" stroke="#8D9ACE" x="0.5" y="0.5" width="11" height="15" rx="2"></rect>
                <path d="M11.5,2.5 L12,3 L0,3 L0.5,2.5 L0,2 L12,2 L11.5,2.5 Z M0,2 L12,2 L12,3 L0,3 L0,2 Z" id="Rectangle-13" fill="#8D9ACE" fill-rule="nonzero"></path>
                <path d="M11.5,11.5 L12,12 L0,12 L0.5,11.5 L0,11 L12,11 L11.5,11.5 Z M0,11 L12,11 L12,12 L0,12 L0,11 Z" id="Rectangle-14" fill="#8D9ACE" fill-rule="nonzero"></path>
                <path d="M4.26086957,14 C4.11679528,14 4,13.7761424 4,13.5 C4,13.2238576 4.11679528,13 4.26086957,13 L7.73913043,13 C7.88320472,13 8,13.2238576 8,13.5 C8,13.7761424 7.88320472,14 7.73913043,14 L4.26086957,14 Z" id="Path-5" fill="#8D9ACE" fill-rule="nonzero"></path>
            </g>
        </g>
    </g>
</svg>