<?xml version="1.0" encoding="UTF-8"?>
<svg width="16px" height="16px" viewBox="0 0 16 16" version="1.1" xmlns="http://www.w3.org/2000/svg" xmlns:xlink="http://www.w3.org/1999/xlink">
    <!-- Generator: Sketch 50.2 (55047) - http://www.bohemiancoding.com/sketch -->
    <title>safety</title>
    <desc>Created with Sketch.</desc>
    <defs></defs>
    <g id="Page-1" stroke="none" stroke-width="1" fill="none" fill-rule="evenodd">
        <g id="Tablet" transform="translate(-537.000000, -75.000000)" fill="#8D9ACE" fill-rule="nonzero">
            <g id="safety" transform="translate(537.000000, 75.000000)">
                <path d="M8.88888156,4.09304078 L7.55553726,4.09304078 L7.55553726,7.44186559 L4.00001097,7.44186559 L4.00001097,8.5581528 L7.55553726,8.5581528 L7.55553726,11.9069592 L8.88888156,11.9069592 L8.88888156,8.55817117 L12.4444298,8.55817117 L12.4444298,7.44188399 L8.88888156,7.44188399 L8.88888156,4.09304078 Z M15.9951264,2.28456952 L14.6305209,2.26808327 C14.6159001,2.26808327 13.1050429,2.23930122 11.5310047,1.70508752 C10.025065,1.19147704 9.00630877,0.608098626 8.8164363,0.497179347 L7.99758516,0 L7.18382715,0.497179347 C7.18382715,0.497179347 7.17893161,0.501277933 7.1691844,0.505413303 C6.89604376,0.665736229 5.89219374,1.21617888 4.46923683,1.70508752 C2.92428645,2.23104889 1.38412185,2.26808325 1.36950108,2.26808327 L0.0390765416,2.28456952 L0,2.28456952 L0,9.03548246 C0,12.490889 5.1318696,16 8.00243679,16 C10.8681523,16 16,12.4908706 16,9.03548246 L15.9951264,2.28456952 Z M1,9.03550083 L1,3.36095519 L1.08640107,3.36095519 C1.10166855,3.36095519 2.93369683,3.3323937 4.81666259,2.71587734 C6.72511995,2.0954278 7.93627091,1.38469899 7.94138299,1.38060039 L7.99745541,1.34766462 L8.05350493,1.38060039 C8.06372911,1.38469898 9.27485714,2.0954278 11.1833374,2.71587734 C12.175517,3.04058503 13.1221234,3.19677261 13.74323,3.27065751 C14.4402843,3.352758 14.8982856,3.36097356 14.9033748,3.36097356 L14.994865,3.36097356 L15,9.03550083 C14.9999771,11.7965913 10.4352541,14.9069259 8.00252165,14.9069259 C5.57004142,14.9069259 1,11.7966097 1,9.03550083 Z" id="Shape"></path>
            </g>
        </g>
    </g>
</svg>