<?xml version="1.0" encoding="UTF-8"?>
<svg width="16px" height="16px" viewBox="0 0 16 16" version="1.1" xmlns="http://www.w3.org/2000/svg" xmlns:xlink="http://www.w3.org/1999/xlink">
    <!-- Generator: Sketch 50.2 (55047) - http://www.bohemiancoding.com/sketch -->
    <title>shutdown</title>
    <desc>Created with Sketch.</desc>
    <defs></defs>
    <g id="Page-1" stroke="none" stroke-width="1" fill="none" fill-rule="evenodd">
        <g id="Tablet" transform="translate(-575.000000, -126.000000)" fill="#8D9ACE" fill-rule="nonzero">
            <g id="shutdown" transform="translate(575.000000, 126.000000)">
                <path d="M13,4.05126793 L12,4.05126793 L12,2 C12,1.40727954 11.6690854,1 11.375,1 L1.625,1 C1.33091463,1 1,1.40727954 1,2 L1,14 C1,14.5927205 1.33091463,15 1.625,15 L11.375,15 C11.6690854,15 12,14.5927205 12,14 L12,12.0880469 L13,12.0880469 L13,14 C13,15.1045695 12.2724627,16 11.375,16 L1.625,16 C0.727537282,16 0,15.1045695 0,14 L0,2 C0,0.8954305 0.727537282,0 1.625,0 L11.375,0 C12.2724627,0 13,0.8954305 13,2 L13,4.05126793 Z" id="Rectangle-15"></path>
                <path d="M14.9215013,7.4874439 C15.1976437,7.4874439 15.4215013,7.71130152 15.4215013,7.9874439 C15.4215013,8.26358627 15.1976437,8.4874439 14.9215013,8.4874439 L4.92150129,8.4874439 C4.64535891,8.4874439 4.42150129,8.26358627 4.42150129,7.9874439 C4.42150129,7.71130152 4.64535891,7.4874439 4.92150129,7.4874439 L14.9215013,7.4874439 Z" id="Path-11"></path>
                <path d="M12.9100364,5.86987011 C12.7264896,5.66355674 12.7449457,5.34751268 12.951259,5.16396595 C13.1575724,4.98041922 13.4736165,4.99887523 13.6571632,5.2051886 L15.8720443,7.69479763 C16.0407699,7.88445144 16.0406082,8.1704385 15.8716683,8.35990138 L13.6517383,10.8495104 C13.4679584,11.0556161 13.1518937,11.0737147 12.945788,10.8899348 C12.7396823,10.7061548 12.7215837,10.3900901 12.9053636,10.1839844 L14.8289137,8.0267598 L12.9100364,5.86987011 Z" id="Path-13"></path>
            </g>
        </g>
    </g>
</svg>