<?xml version="1.0" encoding="UTF-8"?>
<svg width="16px" height="16px" viewBox="0 0 16 16" version="1.1" xmlns="http://www.w3.org/2000/svg" xmlns:xlink="http://www.w3.org/1999/xlink">
    <!-- Generator: Sketch 50.2 (55047) - http://www.bohemiancoding.com/sketch -->
    <title>transaction</title>
    <desc>Created with Sketch.</desc>
    <defs></defs>
    <g id="Page-1" stroke="none" stroke-width="1" fill="none" fill-rule="evenodd">
        <g id="Tablet" transform="translate(-499.000000, -75.000000)" fill="#8D9ACE" fill-rule="nonzero">
            <g id="transaction" transform="translate(499.000000, 75.000000)">
                <path d="M4,1 C4,1.55228475 3.55228475,2 3,2 L2,2 C1.44771525,2 1,2.44771525 1,3 L1,14 C1,14.5522847 1.44771525,15 2,15 L14,15 C14.5522847,15 15,14.5522847 15,14 L15,3 C15,2.44771525 14.5522847,2 14,2 L13,2 C12.4477153,2 12,1.55228475 12,1 L14,1 C15.1045695,1 16,1.8954305 16,3 L16,14 C16,15.1045695 15.1045695,16 14,16 L2,16 C0.8954305,16 0,15.1045695 0,14 L0,3 C0,1.8954305 0.8954305,1 2,1 L4,1 Z" id="Rectangle-19"></path>
                <path d="M3.55555556,8 C3.24873069,8 3,7.77614237 3,7.5 C3,7.22385763 3.24873069,7 3.55555556,7 L12.4444444,7 C12.7512693,7 13,7.22385763 13,7.5 C13,7.77614237 12.7512693,8 12.4444444,8 L3.55555556,8 Z" id="Path-7"></path>
                <path d="M3.55555556,12 C3.24873069,12 3,11.7761424 3,11.5 C3,11.2238576 3.24873069,11 3.55555556,11 L12.4444444,11 C12.7512693,11 13,11.2238576 13,11.5 C13,11.7761424 12.7512693,12 12.4444444,12 L3.55555556,12 Z" id="Path-7"></path>
                <path d="M6,2 C5.44771525,2 5,1.55228475 5,1 C5,0.44771525 5.44771525,0 6,0 L10,0 C10.5522847,0 11,0.44771525 11,1 C11,1.55228475 10.5522847,2 10,2 L6,2 Z" id="Path-8"></path>
            </g>
        </g>
    </g>
</svg>