<?xml version="1.0" encoding="UTF-8"?>
<svg width="16px" height="16px" viewBox="0 0 16 16" version="1.1" xmlns="http://www.w3.org/2000/svg" xmlns:xlink="http://www.w3.org/1999/xlink">
    <!-- Generator: Sketch 50.2 (55047) - http://www.bohemiancoding.com/sketch -->
    <title>user</title>
    <desc>Created with Sketch.</desc>
    <defs></defs>
    <g id="Page-1" stroke="none" stroke-width="1" fill="none" fill-rule="evenodd">
        <g id="Tablet" transform="translate(-385.000000, -75.000000)" fill="#8D9ACE" fill-rule="nonzero">
            <g id="user" transform="translate(385.000000, 75.000000)">
                <path d="M15,16 L15,14.5 C15,12.5670034 13.4329966,11 11.5,11 L4.5,11 C2.56700338,11 1,12.5670034 1,14.5 L1,16 L0,16 L0,14.5 C0,12.0147186 2.01471863,10 4.5,10 L11.5,10 C13.9852814,10 16,12.0147186 16,14.5 L16,16 L15,16 Z M15,16 L15,14.5 C15,12.5670034 13.4329966,11 11.5,11 L4.5,11 C2.56700338,11 1,12.5670034 1,14.5 L1,16 L0,16 L0,14.5 C0,12.0147186 2.01471863,10 4.5,10 L11.5,10 C13.9852814,10 16,12.0147186 16,14.5 L16,16 L15,16 Z" id="Rectangle-23"></path>
                <path d="M8,9 C10.209139,9 12,7.209139 12,5 C12,2.790861 10.209139,1 8,1 C5.790861,1 4,2.790861 4,5 C4,7.209139 5.790861,9 8,9 Z M8,10 C5.23857625,10 3,7.76142375 3,5 C3,2.23857625 5.23857625,0 8,0 C10.7614237,0 13,2.23857625 13,5 C13,7.76142375 10.7614237,10 8,10 Z" id="Oval-2"></path>
            </g>
        </g>
    </g>
</svg>