<?xml version="1.0" encoding="UTF-8"?>
<svg width="140px" height="29px" viewBox="0 0 140 29" version="1.1" xmlns="http://www.w3.org/2000/svg" xmlns:xlink="http://www.w3.org/1999/xlink">
    <!-- Generator: Sketch 51.1 (57501) - http://www.bohemiancoding.com/sketch -->
    <title>55SICO_logo_SICO_画板 1 副本 2</title>
    <desc>Created with Sketch.</desc>
    <defs></defs>
    <g id="Page-1" stroke="none" stroke-width="1" fill="none" fill-rule="evenodd">
        <g id="G.55.com0928标注" transform="translate(-565.000000, -1441.000000)" fill="#FFFFFF" fill-rule="nonzero">
            <g id="55SICO_logo_SICO_画板-1-副本-2" transform="translate(565.000000, 1441.000000)">
                <path d="M16.6471561,19.4479264 C16.3200586,20.6029822 15.6912462,21.6392664 14.8316966,22.4398072 C14.7150219,22.5473584 14.5936801,22.650021 14.4723384,22.7477949 L14.4396694,22.7771271 C13.9275329,23.1761558 13.3612061,23.4925451 12.7595527,23.7157563 L12.7222168,23.7157563 C12.5822071,23.7646433 12.4421974,23.8037528 12.3021877,23.8428624 L12.2041808,23.8721945 L11.7981526,23.960191 L11.6628099,23.960191 C11.5269032,23.9856254 11.3898165,24.0035752 11.2521147,24.0139667 L11.2007778,24.0139667 C11.0421001,24.0139667 10.8880895,24.0139667 10.7340788,24.0139667 C7.32789317,24.0356808 4.54633679,21.1678899 4.51298007,17.6 L0,17.6 C0,17.6928852 0,17.7857704 0,17.8786556 C0,18.1670885 0,18.4555215 0.0420029169,18.7390657 C0.0746718522,19.1057178 0.130675741,19.4674811 0.196013612,19.8194671 L0.196013612,19.8585767 C0.196013612,19.9612393 0.24735051,20.0639018 0.270685464,20.1714531 C0.322022363,20.4061104 0.378026252,20.6603225 0.443364123,20.8656477 C0.476033058,20.987865 0.522702965,21.1100824 0.560038892,21.227411 C0.634710744,21.4474023 0.704715605,21.6625048 0.788721439,21.8727186 L0.816723384,21.9656038 C0.8587263,22.0633777 0.910063199,22.1611516 0.956733106,22.2638142 C1.04073894,22.4544732 1.12474477,22.6451323 1.21808459,22.8309027 C1.3114244,23.0166731 1.35342732,23.0802261 1.42343218,23.2073321 C1.49343704,23.3344382 1.61944579,23.5593181 1.72678658,23.7304224 L1.80612543,23.8673058 C1.85746232,23.9504136 1.92280019,24.0286327 1.97880408,24.1117405 C2.03480797,24.1948483 2.19348566,24.424617 2.31016043,24.5761665 C2.4268352,24.727716 2.49684006,24.8157125 2.59484686,24.9330412 C2.69285367,25.0503698 2.84219737,25.2214741 2.96820613,25.3632462 C3.01954302,25.4170219 3.06154594,25.4756862 3.10821585,25.5245731 C3.15488576,25.5734601 3.22489062,25.6321244 3.28089451,25.6859 C3.41623724,25.8227835 3.55624696,25.9547782 3.69625668,26.086773 L4.02761303,26.3752059 C4.18162372,26.4974233 4.33096743,26.6147519 4.49431211,26.7320806 C4.56431697,26.7858562 4.62498785,26.8445205 4.69499271,26.8934075 C4.76499757,26.9422944 4.7976665,26.9520718 4.84433641,26.9862927 C5.00768109,27.0987326 5.17569276,27.2013952 5.34837141,27.3040578 C5.52105007,27.4067204 5.58638794,27.4507186 5.71239669,27.5191603 C5.83840544,27.587602 6.06708799,27.7049307 6.24443364,27.7929272 C6.33777346,27.8320368 6.42177929,27.8858124 6.51511911,27.9249219 L6.62245989,27.9689202 C6.81847351,28.052028 7.0238211,28.1253584 7.22916869,28.1986888 L7.579193,28.3257949 C7.79854157,28.3942366 8.01789013,28.4480122 8.24190569,28.5017878 C8.33991249,28.5262313 8.43325231,28.5604522 8.52659212,28.5800069 L8.58259601,28.5800069 C8.85328148,28.6386713 9.13330092,28.6777808 9.41332037,28.7120017 L9.61400097,28.7413339 C9.96744863,28.7806347 10.3226415,28.8002171 10.6780749,28.7999982 C11.0327662,28.7999982 11.3781235,28.7755547 11.7188138,28.7413339 L11.9894993,28.707113 C12.2368498,28.6728921 12.4842003,28.6386713 12.7268838,28.5897843 L12.8342246,28.5897843 L13.114244,28.5164539 C13.3102577,28.467567 13.5016043,28.41868 13.6929509,28.3600157 L14.1036461,28.2231323 L14.6263491,28.0226958 C14.6963539,27.988475 14.7756928,27.9689202 14.8456976,27.9346993 C14.9157025,27.9004785 14.9810404,27.8662576 15.0510452,27.8320368 C15.2003889,27.763595 15.3497326,27.6853759 15.5177443,27.6071568 C15.685756,27.5289377 15.8117647,27.4507186 15.9564414,27.3627221 C16.1011181,27.2747256 16.2224599,27.1965065 16.3531356,27.1133987 C16.4838114,27.0302909 16.5771512,26.9765153 16.684492,26.9031849 L16.7824988,26.8249658 C17.0485173,26.629418 17.3145357,26.4240929 17.5665532,26.2041016 C17.8185707,25.9841104 18.0332523,25.7690078 18.2666018,25.5343505 C18.5989138,25.1880363 18.910632,24.8206944 19.2,24.4343944 L16.6471561,19.4479264 Z" id="Shape"></path>
                <path d="M2.4,10.7378641 L2.4,10.7659859 L4.96062531,15.5373284 C5.46643489,13.8129377 6.69638727,12.3929341 8.33152958,11.6455548 C9.9666719,10.8981755 11.8459305,10.8970429 13.4819736,11.6424506 C13.8089676,11.7813257 14.1228719,11.9491637 14.4199316,12.1439571 C14.756393,12.367942 15.0704947,12.6237814 15.3578896,12.9079344 C15.6411323,13.1948797 15.8955939,13.5088414 16.1176356,13.8453298 C16.3128497,14.156042 16.4792474,14.4839312 16.6147533,14.8249079 L20.1461651,21.3866756 L20.5119687,22.0709742 L21.1638495,23.2849012 C21.5479505,23.8565959 21.9878152,24.3888269 22.4769907,24.8737864 C23.4554734,25.8542701 24.6149345,26.6358002 25.8911578,27.1750921 C26.2006839,27.3063274 26.5148999,27.4188149 26.8291158,27.5219284 C27.1761602,27.6297288 27.5278945,27.7234684 27.8890083,27.79846 C28.2438334,27.8721257 28.6023267,27.9268843 28.9629702,27.9625042 C29.2021495,27.9625042 29.4319492,27.990626 29.6992672,28 C29.816512,28 29.9290669,28 30.0510015,28 C30.414405,27.9999639 30.7775647,27.981191 31.1390327,27.9437563 C31.467318,27.9109474 31.7862237,27.8593907 32.1051295,27.79846 L32.2176844,27.79846 L32.2974108,27.7750251 C32.606937,27.7140944 32.9070835,27.6344158 33.2025403,27.5453632 L33.3338544,27.5031804 C33.610552,27.4141279 33.8825598,27.3157014 34.1451881,27.2032139 L34.2342941,27.1704051 L34.2765022,27.1704051 C34.5578896,27.0532307 34.8298974,26.9173083 35.0972154,26.776699 L35.2660479,26.6829595 C35.5380557,26.5329762 35.8053737,26.373619 36.0633122,26.2142618 C36.3889504,25.9943668 36.7020875,25.7565253 37.0012702,25.5018413 C37.0856864,25.4315367 37.160723,25.361232 37.2404494,25.2862404 C37.3201759,25.2112487 37.5265266,25.0378306 37.6625305,24.9019083 C37.7985344,24.7659859 37.7985344,24.747238 37.8688813,24.6722464 C37.9392281,24.5972548 38.0142648,24.5175762 38.0846116,24.4378976 C38.2956522,24.2035487 38.4926234,23.9691999 38.6802149,23.7114161 L38.8162189,23.5239371 C38.8678065,23.4536324 38.9287738,23.3833278 38.9756717,23.3130231 C39.1491939,23.0599263 39.303957,22.7927687 39.4446507,22.525611 L39.505618,22.4271845 C39.6322423,22.1928356 39.7447973,21.9584868 39.8479726,21.714764 C39.8808012,21.6350854 39.9230093,21.5647807 39.9558378,21.4897891 C39.9886663,21.4147975 40.0449438,21.2460663 40.0871519,21.1242049 C40.1668784,20.9179779 40.2512946,20.7117509 40.3169516,20.49615 C40.4107474,20.1836849 40.4904739,19.8712197 40.5561309,19.5587546 L40.5842697,19.4462672 C40.5842697,19.3806495 40.5842697,19.3197188 40.6124084,19.2541011 C40.6546165,19.0291262 40.6921348,18.7854034 40.7202736,18.5651155 C40.7202736,18.462002 40.7202736,18.3588885 40.7531021,18.255775 C40.7812408,17.9604955 40.7953102,17.660529 40.8,17.3605624 C40.8,17.3371276 40.8,17.3090057 40.8,17.2808838 C40.8,17.252762 40.8,17.0980917 40.8,17.0043522 C40.8,16.7465685 40.8,16.4934717 40.7577919,16.240375 C40.7577919,16.1044526 40.7202736,15.9685303 40.7015144,15.832608 C40.6733757,15.621694 40.6499267,15.415467 40.6077186,15.20924 L40.6077186,15.1201875 C40.6077186,14.9936391 40.5420616,14.8717777 40.5139228,14.7499163 C40.4857841,14.6280549 40.4295066,14.3937061 40.3779189,14.2249749 C40.3263312,14.0562437 40.2747435,13.9109474 40.2231558,13.7562772 C40.1715681,13.601607 40.1106009,13.4328758 40.0449438,13.2875795 C40.0449438,13.2313358 40.0027357,13.1704051 39.9792868,13.1094744 C39.9558378,13.0485437 39.8808012,12.9032474 39.8292135,12.8001339 C39.7776258,12.6970204 39.7025892,12.5282893 39.6369321,12.3970539 C39.571275,12.2658185 39.4587201,12.0642785 39.3602345,11.9002343 C39.2617489,11.7361902 39.2242306,11.6705725 39.1538837,11.558085 L38.9897411,11.2862404 C38.9334636,11.2018748 38.8678065,11.1268832 38.8068393,11.0425176 C38.745872,10.958152 38.6802149,10.8690994 38.6098681,10.7847338 C38.4738642,10.6066287 38.3378603,10.4285236 38.187787,10.2597924 L38.0142648,10.0676264 C37.9017098,9.94576498 37.7938447,9.81452963 37.6765999,9.69735521 L37.5124573,9.53799799 L37.4092819,9.44894543 C37.0036776,9.06165167 36.5676975,8.70743439 36.1055203,8.38968865 C35.528751,8.00257964 34.916296,7.67142456 34.2765022,7.40073652 C33.6269555,7.12465143 32.9513834,6.9142506 32.2598925,6.77268162 C32.0113337,6.72112487 31.758085,6.69300301 31.5048363,6.66019417 C31.3969712,6.66019417 31.2937958,6.62269836 31.1906204,6.61332441 C30.4609381,6.53831629 29.7254811,6.53831629 28.9957987,6.61332441 C28.8738642,6.61332441 28.7566194,6.65082022 28.6393747,6.66488115 C28.4001954,6.69768999 28.1703957,6.72581185 27.9312164,6.77268162 L27.8702491,6.77268162 L28.9535906,4.21827921 L38.9193942,4.21827921 L38.9193942,0 L26.2569614,0 L21.7360039,10.559759 C21.6797264,10.6300636 21.6140694,10.6909943 21.5624817,10.761299 L24.1184172,15.5279545 C24.4990986,14.2602127 25.2725167,13.1459113 26.3273083,12.3454972 C26.9783394,11.8550167 27.7192077,11.496747 28.5080606,11.2909274 L28.5737176,11.2909274 C28.7191011,11.2534315 28.8644846,11.2206227 29.0145579,11.1971878 L29.0942843,11.1971878 C29.4187445,11.1300925 29.748104,11.0893391 30.0791402,11.0753264 C32.6213241,11.0714555 34.9098863,12.6144025 35.8583045,14.971635 C36.8067227,17.3288675 36.2239993,20.0256735 34.3867894,21.7817119 C32.5495794,23.5377503 29.8278699,23.9993808 27.5138251,22.9474389 C27.1869173,22.808384 26.8730287,22.6405543 26.5758671,22.4459324 C25.9133725,21.9963445 25.3420903,21.4254049 24.8922325,20.7633077 C24.6947633,20.4467199 24.5237868,20.1143779 24.3810454,19.7696686 L20.8308745,13.179779 C20.7276991,12.9360562 20.6104543,12.7110814 20.4885198,12.4579846 C20.2902143,12.062913 20.0694328,11.6795156 19.8272594,11.3096753 C19.7616023,11.2112487 19.6818759,11.1175092 19.6115291,11.0190827 C19.5411822,10.9206562 19.3911089,10.7097422 19.2691744,10.550385 C19.1472399,10.3910278 19.0675134,10.3207231 18.9643381,10.2035487 C18.8611627,10.0863743 18.7439179,9.95513894 18.6266732,9.83327754 C18.5891549,9.79578172 18.5563263,9.74891195 18.518808,9.71141614 L18.2843185,9.48175427 L17.9372741,9.16303984 L17.5527113,8.84901239 L17.1775281,8.57248075 L16.9383488,8.38968865 C16.8820713,8.35219284 16.8211041,8.32407097 16.7601368,8.28657516 C16.6288227,8.1975226 16.4975085,8.12253097 16.3615046,8.04285236 C16.2255007,7.96317375 16.0707377,7.86943421 15.9206644,7.78975561 L15.4704446,7.5882156 C15.3391304,7.5272849 15.2078163,7.45698025 15.0765022,7.40073652 L15.0014656,7.37261466 C14.7622863,7.27418815 14.5324866,7.18982256 14.2698583,7.10545698 L14.1291646,7.05390023 C13.7747371,6.94152974 13.4146999,6.84766335 13.0505129,6.77268162 C12.8113337,6.72581185 12.581534,6.69300301 12.3189057,6.66019417 C12.2063508,6.66019417 12.0984856,6.62269836 11.9859306,6.61332441 C11.6229034,6.5757701 11.2581764,6.55699714 10.8932096,6.55708068 C10.5282365,6.55675164 10.1634967,6.57552526 9.80048852,6.61332441 C9.68324377,6.61332441 9.5753786,6.64613324 9.45813385,6.66488115 C9.21426478,6.69300301 8.98915486,6.72581185 8.73121641,6.77268162 L8.58114314,6.81017744 L9.67855398,4.23234014 L19.634978,4.23234014 L19.634978,0.0140609307 L6.94909624,0.0140609307 L2.4,10.7378641 Z" id="Shape"></path>
                <path d="M46.8135765,2.26697892 C45.0209952,3.79391101 44.136529,5.8969555 44.136529,8.47775176 C44.136529,10.2903981 44.6757223,11.7564403 45.7399197,12.7868852 C46.804117,13.8173302 48.4689946,14.5854801 50.8575264,15.1288056 L55.3460743,16.2014052 C57.4697392,16.70726 58.888669,17.2318501 59.5508362,17.7611241 C60.2130035,18.2903981 60.4636811,19.0257611 60.4636811,20.1030445 C60.5293461,21.2299494 59.9760575,22.3042949 59.0163727,22.9133489 C57.9900135,23.587822 56.4386502,23.9297424 54.4001211,23.9297424 C52.20078,23.9297424 50.4744154,23.4613583 49.2683251,22.5245902 C48.0635704,21.5744437 47.3788765,20.1195067 47.4189866,18.5948478 L47.4189866,18.4168618 C47.4138706,18.2472143 47.2734796,18.1123365 47.1020923,18.1124122 L43.5169297,18.1124122 C43.4320581,18.1124028 43.3507297,18.1461078 43.2911626,18.2059769 C43.2315955,18.265846 43.1987686,18.3468753 43.2000353,18.4309133 L43.2000353,18.8009368 C43.2000353,21.6112412 44.1932862,23.8922717 46.1608688,25.5316159 C48.1284515,27.1709602 50.9237431,28 54.4095806,28 C57.5454155,28 60.0852998,27.2786885 61.9440978,25.8548009 C63.8086135,24.4628708 64.8725623,22.2595335 64.7961467,19.9484778 C64.7961467,17.8079625 64.2285748,16.117096 63.1076202,14.9227166 C61.9866657,13.7283372 60.1846249,12.8384075 57.6778489,12.2482436 L53.170382,11.1850117 C51.1933398,10.7166276 49.8595458,10.2482436 49.249406,9.81733021 C48.6871026,9.38992161 48.382478,8.70896624 48.440616,8.00936768 C48.361166,6.8787893 48.8604743,5.78429033 49.7696803,5.09601874 C50.7156334,4.41217799 52.1014549,4.06557377 53.9555231,4.06557377 C55.8095914,4.06557377 57.1764937,4.47306792 58.2123125,5.27400468 C59.2566912,6.10437507 59.8892067,7.34005537 59.9481366,8.66510539 L59.9481366,8.82903981 C59.9605376,8.99314959 60.0988493,9.11989679 60.2650309,9.11943794 L63.8454637,9.11943794 C63.9332801,9.11952261 64.0173125,9.0840444 64.0780538,9.02123921 C64.138795,8.95843403 64.1709621,8.87376428 64.1670878,8.78688525 L64.1670878,8.59484778 C64.0441139,5.92974239 63.0555928,3.80327869 61.2251734,2.2763466 C59.394754,0.74941452 56.968384,0 53.9507934,0 C50.9332027,0 48.582509,0.744730679 46.8135765,2.26697892 Z" id="Shape"></path>
                <rect id="Rectangle-path" x="68.8" y="0" width="4.8" height="28" rx="0.68"></rect>
                <path d="M80.2255142,3.84074941 C79.0674334,5.1413067 78.1917781,6.66386908 77.6529655,8.31381733 C77.0620365,10.1611247 76.7746363,12.0904782 76.8017545,14.028103 C76.7758125,15.9601493 77.0517784,17.8845432 77.6198628,19.7330211 C78.1362288,21.3629948 78.9790007,22.8731604 80.0978325,24.1733021 C82.3062521,26.7119438 85.2996773,28 89.0071739,28 C92.1850282,28 94.8521559,27.0632319 96.9376227,25.1896956 C99.0230896,23.3161593 100.309364,20.7213115 100.768072,17.4566745 L100.796446,17.2505855 C100.810319,17.1595925 100.783169,17.0671539 100.72218,16.997731 C100.661191,16.9283081 100.572511,16.8888981 100.479606,16.8899297 L96.7390068,16.8899297 C96.5846601,16.8893584 96.4516738,16.997485 96.4221672,17.147541 L96.3937935,17.29274 C95.9823749,19.4332553 95.1453508,21.0960187 93.9063659,22.2435597 C92.6476754,23.3993929 90.9778564,24.0141283 89.2625372,23.9531616 C88.1039222,23.9760478 86.9529586,23.7624003 85.8813381,23.3255269 C84.92934,22.919233 84.0952944,22.2831601 83.4553869,21.4754098 C82.1076362,19.793911 81.4266674,17.2880562 81.4266674,14.028103 C81.4266674,10.9648712 82.1643836,8.5058548 83.6209001,6.71662763 C84.2922735,5.86808894 85.1556855,5.18779881 86.1414304,4.73067916 C87.1737316,4.27628668 88.2938385,4.05088533 89.4233215,4.07025761 C91.0467576,3.99776555 92.6500057,4.44982308 93.991487,5.35831382 C95.1730244,6.23358713 95.9594914,7.53410536 96.1809908,8.97892272 L96.2093645,9.12880562 C96.2388711,9.27886162 96.3718574,9.38698817 96.5262041,9.38641686 L100.266803,9.38641686 C100.360128,9.3860626 100.448693,9.34556906 100.509503,9.27545082 C100.570313,9.20533257 100.597368,9.11250702 100.583643,9.02107728 L100.555269,8.81498829 C100.269384,6.27777492 98.9889353,3.95323879 96.9896412,2.34192037 C95.031856,0.791569087 92.5018678,0 89.4800689,0 C85.6259748,0.00468384075 82.5190548,1.29274005 80.2255142,3.84074941 Z" id="Shape"></path>
                <path d="M106.846522,3.88563785 C105.631466,5.18050174 104.700499,6.7070938 104.111499,8.3705066 C103.484138,10.1880636 103.176377,12.0973125 103.201413,14.0163852 C103.177398,15.926206 103.485175,17.8260557 104.111499,19.6341749 C104.697879,21.2987898 105.629151,22.8258825 106.846522,24.1190436 C109.27183,26.6938639 112.488102,28 116.376219,28 C120.264335,28 123.523491,26.6938639 125.963093,24.1190436 C127.174783,22.8261078 128.103978,21.3029481 128.693351,19.6435379 C129.315715,17.8345748 129.621816,15.9351286 129.598672,14.0257482 C129.622845,12.1071133 129.31676,10.1982657 128.693351,8.37986959 C128.103069,6.71808747 127.174054,5.1920366 125.963093,3.89500084 C123.547315,1.3061361 120.321513,0 116.376219,0 C112.430924,0 109.257535,1.3061361 106.846522,3.88563785 Z M122.570521,6.76943655 C123.368471,7.69959761 123.972368,8.77491291 124.34781,9.93412473 C124.766003,11.2553152 124.970208,12.6328834 124.952945,14.0163852 C124.972667,15.3901422 124.77166,16.7583541 124.357339,18.0705568 C123.980075,19.2309448 123.372802,20.3065033 122.570521,21.2352449 C121.832116,22.1020926 120.9036,22.7934992 119.854558,23.2576492 C117.632373,24.1640487 115.134358,24.1640487 112.912174,23.2576492 C111.865776,22.7913703 110.939264,22.1002436 110.200975,21.2352449 C109.405497,20.3049232 108.804761,19.2294699 108.433217,18.0705568 C108.018533,16.755117 107.815958,15.3840134 107.832846,14.0070222 C107.816387,12.6239192 108.01893,11.2467129 108.433217,9.92476175 C108.810815,8.76646211 109.414491,7.69154033 110.210505,6.76007357 C110.949786,5.89374561 111.875862,5.19974578 112.921704,4.7283063 C115.145439,3.8295864 117.640352,3.8295864 119.864087,4.7283063 C120.909645,5.20223473 121.834291,5.89958092 122.570521,6.76943655 Z" id="Shape"></path>
                <polygon id="Shape" points="131.2 0.575645756 132.868182 0.575645756 132.868182 4.8 133.204545 4.8 133.536364 4.8 133.536364 0.575645756 135.2 0.575645756 135.2 0.287822878 135.2 0 131.2 0 131.2 0.287822878"></polygon>
                <polygon id="Shape" points="135.532308 4.8 135.86 4.8 135.86 0.752767528 135.86 0.752767528 137.276923 4.8 137.604615 4.8 137.927692 4.8 139.34 0.739483395 139.344615 0.739483395 139.344615 4.8 139.672308 4.8 140 4.8 140 0 139.510769 0 139.026154 0 137.609231 4.08708487 136.178462 0 135.689231 0 135.2 0 135.2 4.8"></polygon>
            </g>
        </g>
    </g>
</svg>