<?xml version="1.0" encoding="UTF-8"?>
<svg width="149px" height="24px" viewBox="0 0 149 24" version="1.1" xmlns="http://www.w3.org/2000/svg" xmlns:xlink="http://www.w3.org/1999/xlink">
    <!-- Generator: Sketch 50.2 (55047) - http://www.bohemiancoding.com/sketch -->
    <title>blockchain plus</title>
    <desc>Created with Sketch.</desc>
    <defs></defs>
    <g id="Page-1" stroke="none" stroke-width="1" fill="none" fill-rule="evenodd">
        <g id="G.55.com" transform="translate(-963.000000, -1724.000000)" fill="#FFFFFF" fill-rule="nonzero">
            <g id="Our-Lovely-Partners-" transform="translate(79.000000, 1548.000000)">
                <g id="Group-3" transform="translate(70.000000, 174.000000)">
                    <g id="blockchain-plus" transform="translate(814.000000, 2.000000)">
                        <path d="M23,8.00954369 L28.9079225,8.00954369 C29.8134888,7.94097912 30.7083278,8.24395432 31.3922796,8.85069902 C31.9072201,9.34164708 32.280788,9.96578686 32.472874,10.6561056 C32.5310984,10.8647564 32.5749666,11.0772675 32.6041612,11.2921011 C32.6041612,11.4972609 32.6041612,11.7024207 32.6041612,11.8973226 C32.6310925,12.4722843 32.5346057,13.0463178 32.3213888,13.5796332 C32.1825087,13.928613 31.9765119,14.2459596 31.7154481,14.5131105 C31.6206885,14.6170934 31.511881,14.7068912 31.3922796,14.7798183 L31.1196063,14.9747201 C31.7978804,15.2570503 32.3363056,15.8039514 32.6142602,16.4929029 C32.8684841,17.1674757 32.998563,17.8837413 32.9980227,18.6060492 C33.0144019,19.1877584 32.9289154,19.7677977 32.7455474,20.3191339 C32.5740387,20.8271058 32.3140665,21.2996426 31.9780224,21.7142207 C31.6315256,22.1061868 31.2084926,22.4205959 30.7358438,22.63744 C29.9187789,22.9243479 29.0535993,23.0429161 28.1908926,22.9862117 L23.0403961,22.9862117 L23,8.00954369 Z M25.4742581,13.928405 L28.4534669,13.928405 C28.9052497,13.9569405 29.3533744,13.8305018 29.7259425,13.5693752 C30.1015716,13.2629206 30.2991654,12.784318 30.2510912,12.2973843 C30.3052709,11.8050259 30.1162333,11.3173118 29.7461406,10.9946193 C29.3336647,10.7397424 28.8547073,10.6181181 28.3726748,10.6458476 L25.4742581,10.6458476 L25.4742581,13.928405 Z M25.4742581,20.4832617 L28.503962,20.4832617 C29.0304533,20.5292512 29.5514942,20.346625 29.9380218,19.9806201 C30.355197,19.5146836 30.5668,18.8958218 30.5237645,18.2675355 C30.5735023,17.7383516 30.3662275,17.2177492 29.9683188,16.8724486 C29.6187894,16.6020262 29.1955075,16.4479625 28.7564373,16.431355 L25.4742581,16.431355 L25.4742581,20.4832617 Z" id="Shape"></path>
                        <polygon id="Shape" points="37 23 35 23 35 8 37 8"></polygon>
                        <path d="M47.9397647,17.4658605 C48.0741453,18.9872619 47.587218,20.4986135 46.5872019,21.664019 C45.7826044,22.5161094 44.6554875,23 43.4753273,23 C42.2951672,23 41.1680503,22.5161094 40.3634528,21.664019 C39.3738811,20.5009614 38.8911151,18.9985441 39.0206912,17.4852068 C38.9124789,15.9795898 39.4088968,14.4924125 40.4026575,13.3450874 C41.2042315,12.4876754 42.3324739,12 43.514532,12 C44.6965902,12 45.8248325,12.4876754 46.6264066,13.3450874 C47.623346,14.5045555 48.1102101,16.0087472 47.9789694,17.5238995 L47.9397647,17.4658605 Z M45.5776804,17.4658605 C45.5776804,17.3401092 45.5776804,17.1950115 45.5776804,17.0305675 C45.5705776,16.8717749 45.5542152,16.7135177 45.5286745,16.5565819 C45.4541533,16.0047747 45.2638826,15.4743624 44.9700072,14.9992005 C44.6415462,14.5145602 44.0676108,14.2499732 43.4802279,14.312405 C42.8896664,14.2585075 42.3170167,14.5299383 41.9904486,15.0185469 C41.6871706,15.4884377 41.499228,16.0217159 41.4415825,16.5759283 C41.4112215,16.7322032 41.3948233,16.8908076 41.3925766,17.0499139 C41.3925766,17.2143579 41.3925766,17.3594555 41.3925766,17.5045532 C41.3925766,17.6496508 41.3925766,17.8044216 41.3925766,17.9591925 C41.3943541,18.1183252 41.4107567,18.2769707 41.4415825,18.4331781 C41.4974273,18.9877836 41.6855114,19.5214633 41.9904486,19.9905595 C42.3160621,20.4811899 42.8880939,20.756042 43.4802279,20.7063745 C44.0698093,20.756714 44.6392872,20.4812769 44.960206,19.9905595 C45.3244142,19.3711273 45.5327988,18.6745266 45.5678792,17.9591925 C45.5678792,17.8044216 45.5678792,17.6496508 45.5678792,17.5045532 L45.5776804,17.4658605 Z" id="Shape"></path>
                        <path d="M54.6559697,18.8981358 L56.9999251,18.8981358 C56.9825763,19.1802596 56.9399128,19.4603347 56.8724296,19.73511 C56.7953054,20.089143 56.6802472,20.4341874 56.5291725,20.7644921 C56.2390773,21.3559297 55.8206686,21.8780004 55.3032544,22.2941347 C54.6524935,22.7894174 53.8403023,23.0356107 53.0181432,22.9868031 C51.9435654,23.0832683 50.8909594,22.6464241 50.2132426,21.8227355 C49.6417208,21.0708053 49.258708,20.1974406 49.0952054,19.2733311 C49.055976,19.0232009 49.0265539,18.7730706 49.0069392,18.5229404 C49.0069392,18.2824306 49.0069392,18.0323003 49.0069392,17.8014109 C48.9462089,16.3516365 49.2850056,14.9126111 49.9876737,13.6357804 C50.6563877,12.5416572 51.8980127,11.9121933 53.1946754,12.0099338 C53.4214616,12.0112525 53.6477678,12.0305562 53.8713821,12.0676562 C54.7980733,12.2149222 55.6308768,12.7078368 56.1957228,13.4433725 C56.7246478,14.1990607 57.0052695,15.0953745 56.9999251,16.0120176 L54.6559697,16.0120176 C54.6559697,15.9350545 54.6559697,15.8484709 54.606933,15.752267 C54.5892919,15.6529678 54.5596613,15.556082 54.5186669,15.4636552 C54.4207905,15.1769427 54.2713169,14.9097606 54.0773364,14.6747829 C53.86756,14.4371226 53.5526431,14.3149939 53.2339047,14.3476895 L53.1358313,14.3476895 C52.6140692,14.3123669 52.1194075,14.5794327 51.8706839,15.0307375 C51.6024842,15.5031577 51.4324787,16.0230715 51.3705093,16.5603801 C51.3444929,16.6937661 51.3281067,16.8287871 51.3214726,16.9644366 C51.3214726,17.0991221 51.3214726,17.2338076 51.3214726,17.3684932 C51.3214726,17.5031787 51.3214726,17.7629293 51.3214726,18.0034391 C51.3301828,18.2514297 51.3531028,18.4987436 51.390124,18.7442095 C51.4624463,19.2279297 51.6253747,19.6943508 51.8706839,20.1199258 C52.1305046,20.5441164 52.6134953,20.7866042 53.1162166,20.7452514 C53.4333315,20.7608618 53.742668,20.6457639 53.9694556,20.4277784 C54.1758875,20.23499 54.3394929,20.0024479 54.4500155,19.7447304 C54.515484,19.5954132 54.5679765,19.4409376 54.606933,19.2829515 C54.6176817,19.1613213 54.6176817,19.0390068 54.606933,18.9173765 L54.6559697,18.8981358 Z" id="Shape"></path>
                        <polygon id="Shape" points="60.2593939 23 58 23 58 8 60.2593939 8 60.2593939 16.1688223 63.1684848 11.9516678 65.9612121 11.9516678 62.8678788 16.1688223 66 22.9591559 63.2654545 22.9591559 61.209697 18.2110279 60.24 19.4567733"></polygon>
                        <path d="M72.6215645,18.8982158 L74.9512616,18.8982158 C74.9045965,19.5432248 74.7429022,20.1750358 74.4736249,20.7645528 C74.1889297,21.3555421 73.7763262,21.8776919 73.2649118,22.2941795 C72.6176929,22.7886666 71.8107508,23.0347633 70.9937008,22.9868407 C69.9228958,23.0831235 68.8738563,22.6466257 68.1961148,21.8227851 C67.6269819,21.0725417 67.2491792,20.1981234 67.0946262,19.2734073 C67.0556355,19.0232796 67.0263924,18.773152 67.006897,18.5230243 C67.006897,18.282517 67.006897,18.0323893 67.006897,17.8015023 C66.9465361,16.351743 67.2832719,14.9127325 67.9816657,13.6359151 C68.6414359,12.5416469 69.8730736,11.9115042 71.1594115,12.0100854 C71.388051,12.0113863 71.6162209,12.0306881 71.8417496,12.0678072 C72.7585619,12.219284 73.5817682,12.7115723 74.1422036,13.4435092 C74.6975163,14.1879597 74.9979866,15.0876996 75,16.0121276 L72.6703029,16.0121276 C72.6703029,15.9351653 72.6703029,15.8485827 72.6215645,15.7523797 C72.6040307,15.6530815 72.5745804,15.5561967 72.5338353,15.4637709 C72.4444309,15.1737237 72.2950731,14.9051175 72.0951894,14.6749068 C71.8866891,14.437249 71.5736878,14.3151215 71.2568884,14.3478168 L71.1594115,14.3478168 C70.6442431,14.3163614 70.1574136,14.5828705 69.9117076,15.0308577 C69.6406611,15.5013443 69.4713885,16.0221794 69.4145756,16.5604844 C69.4002068,16.6947952 69.4002068,16.8302259 69.4145756,16.9645367 C69.4145756,17.0992208 69.4145756,17.233905 69.4145756,17.3685891 C69.4145756,17.5032732 69.4145756,17.7630211 69.4145756,18.0035285 C69.41837,18.2517937 69.4411796,18.4994205 69.4828094,18.7442911 C69.519968,19.2225053 69.6489821,19.6893746 69.8629692,20.1199931 C70.1145835,20.5461499 70.593469,20.7899654 71.0911777,20.7453122 C71.4093169,20.7612837 71.7199211,20.6463294 71.9489741,20.4278425 C72.1541503,20.2350562 72.3167605,20.0025165 72.4266108,19.7448016 C72.4929931,19.596869 72.5420491,19.4419415 72.5728261,19.2830275 C72.5883207,19.1616502 72.5883207,19.0388337 72.5728261,18.9174564 L72.6215645,18.8982158 Z" id="Shape"></path>
                        <path d="M85,15.32155 L85,22.9796057 L82.6674938,22.9796057 L82.6674938,16.2596873 C82.6674938,16.1577158 82.6674938,16.0455472 82.6674938,15.9027872 C82.6766612,15.7567799 82.6766612,15.6103173 82.6674938,15.46431 C82.6121764,15.1263965 82.483241,14.8056958 82.2903226,14.5261727 C82.0055738,14.2138372 81.5915759,14.0619351 81.17866,14.1182869 C80.6749716,14.1157961 80.1985336,14.3530029 79.8883375,14.760707 C79.4970862,15.3153366 79.3106205,15.9948601 79.3622829,16.6777702 L79.3622829,23 L77,23 L77,8 L79.3325062,8 L79.3325062,13.3025153 C79.5140807,12.8198511 79.8365027,12.4066863 80.2555831,12.1196465 C80.7289476,11.7695673 81.3002461,11.5870463 81.8833747,11.5995921 C82.7082716,11.5774898 83.5029814,11.9189164 84.0669975,12.5377294 C84.7117122,13.2995341 85.0333309,14.2944623 84.9602978,15.3011557 L85,15.32155 Z" id="Shape"></path>
                        <path d="M93.5075625,14.9007604 L93.5075625,20.6435462 C93.4788392,21.0689473 93.5279389,21.4960585 93.652397,21.9034431 C93.7170857,22.0771991 93.8401334,22.2224051 94,22.3136421 L94,22.7140744 L91.5571237,22.7140744 C91.5571237,22.6261746 91.5571237,22.5382748 91.4895342,22.4601417 C91.4219448,22.3820086 91.4895342,22.2941088 91.441256,22.2159756 L91.441256,21.8936764 C91.441256,21.7862434 91.441256,21.6495104 91.441256,21.4834775 L91.2771102,21.6788103 L91.0936531,21.8936764 C90.8138977,22.1979314 90.4879472,22.4550957 90.1280893,22.6554746 C89.6715118,22.9017046 89.1580642,23.0197387 88.6411212,22.997307 L88.5831873,22.997307 C87.9246263,22.9751219 87.2965518,22.7112835 86.8162057,22.2550422 C86.2219056,21.6345305 85.9286371,20.7803502 86.0147877,19.9208147 C85.9581551,19.0679693 86.2123408,18.2236822 86.7293049,17.5475205 C87.1998921,17.0289254 87.8288843,16.6850209 88.5155979,16.5708563 L90.5529374,16.1801906 L90.6301825,16.1801906 L90.7074276,16.1801906 C90.8673309,16.1299148 91.0152522,16.0467915 91.1419313,15.9360245 C91.2816595,15.7866916 91.3518916,15.5842292 91.335044,15.3793259 C91.3738561,15.0524677 91.2637304,14.7254788 91.0357193,14.4905614 C90.8425331,14.3323799 90.6136509,14.2250113 90.3694803,14.1780288 L90.1087781,14.1780288 L89.7997977,14.1780288 C89.4452472,14.1389826 89.0917768,14.2605442 88.8342339,14.5100947 C88.6514185,14.7194657 88.5221232,14.9709691 88.457664,15.2425929 C88.428294,15.307634 88.4087642,15.3767741 88.3997302,15.4476924 C88.4097811,15.5156809 88.4097811,15.5848033 88.3997302,15.6527919 L86.2368674,15.6527919 C86.3527351,14.1291956 86.7775831,13.1427647 87.4921003,12.7227991 C88.1927497,12.283323 88.995133,12.0374833 89.8191089,12.0098342 L90.0798112,12.0098342 C90.2888158,11.9967219 90.4984229,11.9967219 90.7074276,12.0098342 C90.9500267,12.038482 91.1893149,12.0908148 91.4219448,12.1661005 C91.9691532,12.327024 92.465166,12.6300733 92.8606348,13.0450983 C93.3188521,13.5865379 93.5508563,14.2870495 93.5075625,14.9984268 L93.5075625,14.9007604 Z M91.2771102,18.9050838 L91.2771102,17.5475205 C91.1416616,17.6942759 90.9725216,17.8049776 90.7846727,17.8698197 C90.4465446,17.996861 90.0974258,18.0916836 89.7418638,18.1530524 C89.3650324,18.2301069 89.0051587,18.3757113 88.6797437,18.5827846 C88.3374204,18.8628748 88.1652098,19.3039101 88.2259287,19.7450151 C88.2076253,20.0450413 88.2855097,20.3430345 88.4480084,20.594713 C88.578978,20.7668437 88.7520264,20.9014881 88.9501016,20.9853787 L89.1142474,20.9853787 L89.2687376,20.9853787 C89.7833837,20.9806462 90.2769939,20.778139 90.6494938,20.4189134 C91.0736313,20.0275646 91.3036371,19.4656252 91.2771102,18.8855505 L91.2771102,18.9050838 Z" id="Shape"></path>
                        <path d="M98,10.6959459 L96,10.6959459 L96,8 L98,8 L98,10.6959459 Z M98,11.9932432 L98,23 L96,23 L96,11.9932432 L98,11.9932432 Z" id="Shape"></path>
                        <path d="M108.959931,15.5726255 L108.959931,23 L106.621702,23 L106.621702,16.4825036 C106.621702,16.3836038 106.621702,16.2748141 106.621702,16.1363543 C106.621702,15.9978946 106.621702,15.8594349 106.621702,15.7110852 C106.558297,15.384003 106.426058,15.0739343 106.233655,14.8012071 C105.959339,14.4928529 105.55043,14.3376645 105.139164,14.385828 C104.630754,14.3803327 104.14882,14.6107063 103.835726,15.0088967 C103.448172,15.5490502 103.261735,16.2063894 103.30838,16.8682128 L103.30838,23 L101,23 L101,12.2594824 L103.238731,12.2594824 L103.238731,13.8418791 L103.417829,13.5155098 C103.487479,13.3968301 103.567078,13.2682603 103.666577,13.1298006 C103.894471,12.8196671 104.181918,12.5574809 104.51232,12.3583822 C104.927214,12.1050742 105.408918,11.9810678 105.895358,12.002343 C106.723597,11.9892289 107.520075,12.3187973 108.094289,12.9122211 C108.740586,13.6510782 109.062993,14.6160364 108.989781,15.5924055 L108.959931,15.5726255 Z" id="Shape"></path>
                        <path d="M118.472139,23 L116,23 L116,8.00200413 L121.343325,8.00200413 C122.383171,7.96469041 123.377555,8.45020618 124.019854,9.30884108 C124.71087,10.3279135 125.053802,11.5617975 124.993137,12.8107557 C124.98618,13.1286543 124.960174,13.4457796 124.915275,13.7602544 C124.857948,14.150372 124.763389,14.533458 124.633022,14.9037367 C124.395852,15.5935397 124.013244,16.2182543 123.513747,16.7312665 C122.900014,17.3182938 122.0844,17.6170065 121.25573,17.5582493 L118.452674,17.5582493 L118.472139,23 Z M120.739889,15.016043 C121.184011,15.0752065 121.631624,14.9384105 121.975959,14.6382855 C122.210152,14.3828411 122.380648,14.070732 122.472334,13.7296254 C122.518889,13.545886 122.548227,13.3578161 122.559929,13.1680939 C122.559929,12.98432 122.559929,12.831175 122.559929,12.7086591 C122.613849,12.1296142 122.429739,11.5539379 122.053822,11.1261612 C121.578398,10.7639022 120.994428,10.5935397 120.408973,10.646307 L118.462407,10.646307 L118.462407,15.016043 L120.739889,15.016043 Z" id="Shape"></path>
                        <polygon id="Shape" points="129 23 127 23 127 8 129 8"></polygon>
                        <path d="M140,22.7130837 L137.748339,22.7130837 L137.748339,21.2037819 C137.530136,21.7462401 137.154112,22.2130018 136.667542,22.5453835 C136.187673,22.850054 135.627076,23.0079412 135.056354,22.9991605 C134.221631,23.0192896 133.420157,22.6765745 132.864738,22.0620123 C132.230849,21.2077698 131.929012,20.1576484 132.014111,19.1025969 L132.014111,12 L134.285786,12 L134.285786,18.6488199 C134.22043,19.2035881 134.374556,19.7618378 134.716103,20.2074454 C134.972465,20.4505211 135.303223,20.6031372 135.656797,20.6414929 L135.816915,20.6414929 L136.077107,20.6414929 L136.337299,20.5823046 C136.697135,20.4440124 137.004751,20.1993604 137.217948,19.8819097 C137.52455,19.3846005 137.664598,18.8047853 137.618244,18.224637 L137.618244,12 L139.969978,12 L140,22.7130837 Z" id="Shape"></path>
                        <path d="M148.676807,15.4696862 L146.443411,15.4696862 L146.443411,15.3924537 C146.39539,15.072417 146.271755,14.7681134 146.082557,14.5042798 C145.785571,14.1968226 145.357317,14.0495294 144.931724,14.1084631 C144.561921,14.0699109 144.189982,14.158545 143.87842,14.3594688 C143.708258,14.4949109 143.593829,14.6871261 143.556577,14.9000964 C143.551878,14.9385726 143.551878,14.9774689 143.556577,15.0159452 L143.556577,15.1317939 C143.550702,15.4329348 143.738813,15.7044849 144.024712,15.8075784 C144.390134,15.9714157 144.772853,16.0944589 145.165792,16.1744329 L145.71195,16.3095898 C145.90675,16.3534287 146.098867,16.408224 146.287366,16.4737089 C146.959241,16.6558595 147.59095,16.9603308 148.150154,17.3715368 C148.751962,17.888729 149.064356,18.6618048 148.988897,19.4471606 C149.055537,20.2912217 148.79778,21.1290687 148.267188,21.7930982 C147.835138,22.2731384 147.278644,22.6270235 146.657973,22.816429 C146.405398,22.8914722 146.147987,22.9495289 145.8875,22.9902022 C145.653619,23.0032659 145.419179,23.0032659 145.185297,22.9902022 L144.999994,22.9902022 L144.81469,22.9902022 C143.888287,22.9521479 142.990513,22.6614884 142.22044,22.1502986 C141.376072,21.4924311 140.921784,20.4588749 141.011091,19.3988903 L143.36152,19.3988903 C143.341338,19.8113741 143.488857,20.2146818 143.771139,20.5187618 C144.183737,20.8595134 144.720067,21.0166877 145.253567,20.9531946 C145.59162,20.980292 145.930365,20.9098759 146.228849,20.7504593 C146.412826,20.6443924 146.556686,20.4816461 146.638467,20.2870642 C146.680433,20.2151514 146.710092,20.136862 146.726243,20.0553667 C146.730531,19.9942979 146.730531,19.9330082 146.726243,19.8719395 C146.732838,19.557921 146.536781,19.2745755 146.238602,19.1671928 C145.854109,19.0019262 145.456044,18.869505 145.048758,18.7713761 L144.551364,18.6555274 L144.034465,18.5107164 C143.363855,18.3205485 142.732998,18.0132183 142.171676,17.6032344 C141.561311,17.0879383 141.247408,16.3075144 141.332934,15.5179565 C141.323213,15.3733054 141.323213,15.2281747 141.332934,15.0835236 C141.342838,14.9376035 141.362386,14.792482 141.391451,14.6490907 C141.535868,13.9675327 141.874281,13.3411089 142.366733,12.8437807 C143.024927,12.2327453 143.916237,11.9304485 144.81469,12.0135312 L145.165792,12.0135312 L145.546152,12.0135312 C146.308036,12.0909929 147.033584,12.374933 147.643008,12.8341267 C148.372143,13.5033911 148.764882,14.4576257 148.715818,15.440724 L148.676807,15.4696862 Z" id="Shape"></path>
                        <polygon id="Shape" points="5 2.14130435 6.10701107 2.14130435 6.10701107 1 6.89298893 1 6.89298893 2.14130435 8 2.14130435 8 2.91304348 6.89298893 2.91304348 6.89298893 4 6.15129151 4 6.15129151 2.91304348 5.04428044 2.91304348"></polygon>
                        <polygon id="Shape" points="2 2.74876847 2.74876847 2.74876847 2.74876847 2 3.25123153 2 3.25123153 2.74876847 4 2.74876847 4 3.26108374 3.25123153 3.26108374 3.25123153 4 2.74876847 4 2.74876847 3.26108374 2 3.26108374"></polygon>
                        <polygon id="Shape" points="0 0.736263736 0.748603352 0.736263736 0.748603352 0 1.25139665 0 1.25139665 0.736263736 2 0.736263736 2 1.27472527 1.25139665 1.27472527 1.25139665 2 0.748603352 2 0.748603352 1.27472527 0 1.27472527"></polygon>
                        <polygon id="Shape" points="1 5.75126904 1.74747475 5.75126904 1.74747475 5 2.25252525 5 2.25252525 5.75126904 3 5.75126904 3 6.25888325 2.25252525 6.25888325 2.25252525 7 1.74747475 7 1.74747475 6.25888325 1 6.25888325"></polygon>
                        <polygon id="Shape" points="5.23 7.14 5.91 7.14 5.91 7 5 7 5 7.73 5.23 7.73"></polygon>
                        <path d="M16.0820544,14.5998995 C15.5620369,14.2426106 14.9928905,13.9586374 14.3914505,13.7563798 C14.706052,13.6127064 15.0030993,13.4350418 15.2770049,13.226728 C16.4711892,12.3673885 17.1468535,10.9840452 17.0783032,9.53878158 C17.1239894,8.27271529 16.562284,7.05809464 15.5587722,6.25297828 C14.4146149,5.37901095 12.9853719,4.93671397 11.5335247,5.00731554 L9.87311012,5.00731554 L9.87311012,5.46830884 L10.9297376,5.46830884 L10.9297376,6.16470297 L9.87311012,6.16470297 L9.87311012,7.14553978 L9.15862869,7.14553978 L9.15862869,6.16470297 L8.10200122,6.16470297 L8.10200122,5.46830884 L9.15862869,5.46830884 L9.15862869,5.01712391 L5.40508539,5.01712391 L5.40508539,5.8508352 L7.27682548,5.8508352 L7.27682548,6.39029544 L7.27682548,7.21419835 L10.6781596,7.21419835 C11.6824867,7.13504233 12.686678,7.36857339 13.5461485,7.88116738 C14.1866024,8.38315955 14.5296994,9.16222784 14.4618923,9.9605414 C14.5395241,10.866569 14.1649949,11.7536353 13.4555804,12.3439748 C12.5195796,12.918273 11.4185481,13.183123 10.3158873,13.0992192 L5.63653712,13.0992192 L5.63653712,8.72468703 L5.40508539,8.72468703 L5.40508539,8.87181255 L4.14719554,8.87181255 L4.14719554,7.06707283 L3.53334529,7.06707283 L3.53334529,7.3515155 L3,7.3515155 L3,9.66629036 L3.17107302,9.66629036 L3.17107302,8.92085439 L3.68429208,8.92085439 L3.68429208,9.66629036 L4.4490891,9.66629036 L4.4490891,10.1763255 L3.68429208,10.1763255 L3.68429208,10.9119531 L3.17107302,10.9119531 L3.17107302,10.1763255 L3,10.1763255 L3,23.9865077 L10.9599269,23.9865077 C12.8097419,24.0930864 14.639542,23.5656765 16.13237,22.4956357 C17.3830015,21.4756943 18.0718801,19.9440864 17.994047,18.3565044 C18.0541428,16.8687554 17.333753,15.453363 16.0820544,14.5998995 Z M14.3210086,20.9361052 C13.3464201,21.5816076 12.1745988,21.8827215 11.0001794,21.7894332 L5.63653712,21.7894332 L5.63653712,15.1687848 L10.8190433,15.1687848 C12.0184467,15.0824442 13.2177186,15.3380372 14.270693,15.9044124 C15.0283121,16.4369515 15.4535866,17.3103801 15.3977623,18.2191873 C15.4927502,19.2388777 15.094625,20.2434467 14.3210086,20.9361052 Z" id="Shape"></path>
                        <rect id="Rectangle-path" x="3" y="5" width="1" height="1"></rect>
                    </g>
                </g>
            </g>
        </g>
    </g>
</svg>