<svg id="图层_1" data-name="图层 1" xmlns="http://www.w3.org/2000/svg" xmlns:xlink="http://www.w3.org/1999/xlink" viewBox="0 0 155.5 77.75"><defs><style>.cls-1{fill:none;}.cls-2{fill:#5a6cb1;}.cls-3{clip-path:url(#clip-path);}.cls-4{clip-path:url(#clip-path-98);}.cls-5{clip-path:url(#clip-path-99);}.cls-6{fill:#fff;}</style><clipPath id="clip-path"><circle class="cls-1" cx="12.01" cy="38.86" r="12.01"/></clipPath><clipPath id="clip-path-98"><path class="cls-1" d="M10,35.51a.42.42,0,0,0-.43.43v5.79a.42.42,0,0,0,.43.43h2.11a3.36,3.36,0,1,0,0-6.71H10Zm1.35,8.33h-.92v.81a.28.28,0,0,1-.27.27H9.63a.28.28,0,0,1-.27-.27v-.81h-1a.43.43,0,0,1-.43-.43V34.26a.43.43,0,0,1,.43-.43h1V33a.29.29,0,0,1,.27-.27h.6a.29.29,0,0,1,.27.27v.81h1V33a.29.29,0,0,1,.27-.27h.6a.29.29,0,0,1,.27.27v.81a5,5,0,0,1,0,10.07v.81a.29.29,0,0,1-.27.27h-.6a.29.29,0,0,1-.27-.27V43.9h-.11Z"/></clipPath><clipPath id="clip-path-99"><rect class="cls-1" x="-60.07" y="-5.89" width="338.32" height="179.98"/></clipPath></defs><title>logo_new_0911</title><g id="_编组_" data-name="&lt;编组&gt;"><path id="_路径_" data-name="&lt;路径&gt;" class="cls-2" d="M107.47,40.69v6.37a.94.94,0,0,0,.93.94h.43a.94.94,0,0,0,.93-.94V40.69a5,5,0,0,1,4.34-5,.93.93,0,0,0,.76-.94v-.42a1,1,0,0,0-1-.94,7.34,7.34,0,0,0-6.37,7.31"/><path id="_路径_2" data-name="&lt;路径&gt;" class="cls-2" d="M88.1,48.17h-.43a.94.94,0,0,1-.93-.94V30.49a.93.93,0,0,1,.93-.93h.43a.93.93,0,0,1,.93.93V47.23c-.17.51-.42.94-.93.94"/><path id="_路径_3" data-name="&lt;路径&gt;" class="cls-2" d="M83.51,48.17h-.43a.94.94,0,0,1-.93-.94V30.49a.93.93,0,0,1,.93-.93h.43a.93.93,0,0,1,.93.93V47.23a.94.94,0,0,1-.93.94"/><path id="_复合路径_" data-name="&lt;复合路径&gt;" class="cls-2" d="M103.65,47.74a.94.94,0,0,1-.94-.93V34.91a.94.94,0,0,1,.94-.93h.42a.94.94,0,0,1,.94.93v12a1,1,0,0,1-.94.94h-.42ZM102,46.81a7,7,0,0,1-3.14,1,7.26,7.26,0,0,1-1.36-14.45,8.36,8.36,0,0,1,4.42,1v2.81a5.12,5.12,0,1,0-3.4,8.49,4.81,4.81,0,0,0,3.31-1.7l.17,2.81Z"/></g><g id="_编组_2" data-name="&lt;编组&gt;"><path id="_复合路径_2" data-name="&lt;复合路径&gt;" class="cls-2" d="M61.58,47.74a.93.93,0,0,1-.93-.93V34.91a.93.93,0,0,1,.93-.93H62a.93.93,0,0,1,.93.93v12a.94.94,0,0,1-.93.94h-.43ZM60,46.81a7,7,0,0,1-3.14,1,7.26,7.26,0,1,1-1.36-14.45,8.3,8.3,0,0,1,4.41,1v2.81A5.11,5.11,0,0,0,51,41a5.25,5.25,0,0,0,5.53,4.67A4.81,4.81,0,0,0,59.8,44L60,46.81Z"/><path id="_复合路径_3" data-name="&lt;复合路径&gt;" class="cls-2" d="M77.9,40.18a5.12,5.12,0,1,0-4.67,5.52A5.13,5.13,0,0,0,77.9,40.18ZM80,40a7.25,7.25,0,1,1-7.9-6.54A7.14,7.14,0,0,1,80,40Z"/><path id="_复合路径_4" data-name="&lt;复合路径&gt;" class="cls-2" d="M37.62,31.85H32V46h5.61C46.8,46,47.22,31.85,37.62,31.85ZM38,48.17H31.59a1.61,1.61,0,0,1-1.79-1.62V31.34a1.75,1.75,0,0,1,1.79-1.61h6.12C49.94,29.56,49.77,48.17,38,48.17Z"/></g><g id="_编组_3" data-name="&lt;编组&gt;"><circle id="SVGID" class="cls-2" cx="12.01" cy="38.86" r="12.01"/><g class="cls-3"><polygon class="cls-2" points="22.24 26.85 22.46 27.39 0.05 35.83 0.05 26.85 22.24 26.85"/></g><g class="cls-3"><polygon class="cls-2" points="22.46 27.39 22.57 27.61 0.05 35.99 0.05 35.83 22.46 27.39"/></g><g class="cls-3"><polygon class="cls-2" points="22.57 27.61 22.62 27.71 0.05 36.21 0.05 35.99 22.57 27.61"/></g><g class="cls-3"><polygon class="cls-2" points="22.62 27.71 22.67 27.93 0.05 36.43 0.05 36.21 22.62 27.71"/></g><g class="cls-3"><polygon class="cls-2" points="22.67 27.93 22.73 28.09 0.05 36.59 0.05 36.43 22.67 27.93"/></g><g class="cls-3"><polygon class="cls-2" points="22.73 28.09 22.78 28.26 0.05 36.81 0.05 36.59 22.73 28.09"/></g><g class="cls-3"><polygon class="cls-2" points="22.78 28.26 22.89 28.42 0.05 36.97 0.05 36.81 22.78 28.26"/></g><g class="cls-3"><polygon class="cls-2" points="22.89 28.42 22.94 28.64 0.05 37.19 0.05 36.97 22.89 28.42"/></g><g class="cls-3"><polygon class="cls-2" points="22.94 28.64 23 28.8 0.05 37.35 0.05 37.19 22.94 28.64"/></g><g class="cls-3"><polygon class="cls-2" points="23 28.8 23.05 28.96 0.05 37.62 0.05 37.35 23 28.8"/></g><g class="cls-3"><polygon class="cls-2" points="23.05 28.96 23.11 29.12 0.05 37.84 0.05 37.62 23.05 28.96"/></g><g class="cls-3"><polygon class="cls-2" points="23.11 29.12 23.16 29.34 0.05 38 0.05 37.84 23.11 29.12"/></g><g class="cls-3"><polygon class="cls-2" points="23.16 29.34 23.27 29.45 0.05 38.21 0.05 38 23.16 29.34"/></g><g class="cls-3"><polygon class="cls-2" points="23.27 29.45 23.32 29.66 0.05 38.38 0.05 38.21 23.27 29.45"/></g><g class="cls-3"><polygon class="cls-2" points="23.32 29.66 23.38 29.83 0.05 38.59 0.05 38.38 23.32 29.66"/></g><g class="cls-3"><polygon class="cls-2" points="23.38 29.83 23.43 30.04 0.05 38.76 0.05 38.59 23.38 29.83"/></g><g class="cls-3"><polygon class="cls-2" points="23.43 30.04 23.49 30.15 0.05 38.97 0.05 38.76 23.43 30.04"/></g><g class="cls-3"><polygon class="cls-2" points="23.49 30.15 23.59 30.37 0.05 39.19 0.05 38.97 23.49 30.15"/></g><g class="cls-3"><polygon class="cls-2" points="23.59 30.37 23.65 30.58 0.05 39.35 0.05 39.19 23.59 30.37"/></g><g class="cls-3"><polygon class="cls-2" points="23.65 30.58 23.7 30.69 0.05 39.57 0.05 39.35 23.65 30.58"/></g><g class="cls-3"><polygon class="cls-2" points="23.7 30.69 23.76 30.85 0.05 39.78 0.05 39.57 23.7 30.69"/></g><g class="cls-3"><polygon class="cls-2" points="23.76 30.85 23.81 31.07 0.05 40 0.05 39.78 23.76 30.85"/></g><g class="cls-3"><polygon class="cls-2" points="23.81 31.07 23.92 31.29 0.05 40.22 0.05 40 23.81 31.07"/></g><g class="cls-3"><polygon class="cls-2" points="23.92 31.29 23.97 31.39 0.05 40.38 0.05 40.22 23.92 31.29"/></g><g class="cls-3"><polygon class="cls-2" points="23.97 31.39 24.03 31.61 0.05 40.59 0.05 40.38 23.97 31.39"/></g><g class="cls-3"><polygon class="cls-2" points="24.03 31.61 24.03 31.67 24.03 31.77 0.05 40.76 0.05 40.59 24.03 31.61"/></g><g class="cls-3"><polygon class="cls-2" points="24.03 31.99 0.05 40.97 0.05 40.76 24.03 31.77 24.03 31.99"/></g><g class="cls-3"><polygon class="cls-2" points="24.03 32.15 0.05 41.14 0.05 40.97 24.03 31.99 24.03 32.15"/></g><g class="cls-3"><polygon class="cls-2" points="24.03 32.37 0.05 41.35 0.05 41.14 24.03 32.15 24.03 32.37"/></g><g class="cls-3"><polygon class="cls-2" points="24.03 32.53 0.05 41.57 0.05 41.35 24.03 32.37 24.03 32.53"/></g><g class="cls-3"><polygon class="cls-2" points="24.03 32.8 0.05 41.78 0.05 41.57 24.03 32.53 24.03 32.8"/></g><g class="cls-3"><polygon class="cls-2" points="24.03 33.02 0.05 42 0.05 41.78 24.03 32.8 24.03 33.02"/></g><g class="cls-3"><polygon class="cls-2" points="24.03 33.18 0.05 42.16 0.05 42 24.03 33.02 24.03 33.18"/></g><g class="cls-3"><polygon class="cls-2" points="24.03 33.4 0.05 42.38 0.05 42.16 24.03 33.18 24.03 33.4"/></g><g class="cls-3"><polygon class="cls-2" points="24.03 33.56 0.05 42.6 0.05 42.38 24.03 33.4 24.03 33.56"/></g><g class="cls-3"><polygon class="cls-2" points="24.03 33.78 0.05 42.76 0.05 42.6 24.03 33.56 24.03 33.78"/></g><g class="cls-3"><polygon class="cls-2" points="24.03 33.94 0.05 42.98 0.05 42.76 24.03 33.78 24.03 33.94"/></g><g class="cls-3"><polygon class="cls-2" points="24.03 34.16 0.05 43.14 0.05 42.98 24.03 33.94 24.03 34.16"/></g><g class="cls-3"><polygon class="cls-2" points="24.03 34.37 0.05 43.35 0.05 43.14 24.03 34.16 24.03 34.37"/></g><g class="cls-3"><polygon class="cls-2" points="24.03 34.53 0.05 43.52 0.05 43.35 24.03 34.37 24.03 34.53"/></g><g class="cls-3"><polygon class="cls-2" points="24.03 34.75 0.05 43.79 0.05 43.52 24.03 34.53 24.03 34.75"/></g><g class="cls-3"><polygon class="cls-2" points="24.03 34.97 0.05 44 0.05 43.79 24.03 34.75 24.03 34.97"/></g><g class="cls-3"><polygon class="cls-2" points="24.03 35.18 0.05 44.17 0.05 44 24.03 34.97 24.03 35.18"/></g><g class="cls-3"><polygon class="cls-2" points="24.03 35.4 0.05 44.38 0.05 44.17 24.03 35.18 24.03 35.4"/></g><g class="cls-3"><polygon class="cls-2" points="24.03 35.56 0.05 44.55 0.05 44.38 24.03 35.4 24.03 35.56"/></g><g class="cls-3"><polygon class="cls-2" points="24.03 35.78 0.05 44.76 0.05 44.55 24.03 35.56 24.03 35.78"/></g><g class="cls-3"><polygon class="cls-2" points="24.03 35.94 0.05 44.92 0.05 44.76 24.03 35.78 24.03 35.94"/></g><g class="cls-3"><polygon class="cls-2" points="24.03 36.16 0.05 45.14 0.05 44.92 24.03 35.94 24.03 36.16"/></g><g class="cls-3"><polygon class="cls-2" points="24.03 36.32 0.05 45.36 0.05 45.14 24.03 36.16 24.03 36.32"/></g><g class="cls-3"><polygon class="cls-2" points="24.03 36.54 0.05 45.52 0.05 45.36 24.03 36.32 24.03 36.54"/></g><g class="cls-3"><polygon class="cls-2" points="24.03 36.7 0.05 45.73 0.05 45.52 24.03 36.54 24.03 36.7"/></g><g class="cls-3"><polygon class="cls-2" points="24.03 36.97 0.05 45.95 0.05 45.73 24.03 36.7 24.03 36.97"/></g><g class="cls-3"><polygon class="cls-2" points="24.03 37.19 0.05 46.17 0.05 46.06 0.05 45.95 24.03 36.97 24.03 37.19"/></g><g class="cls-3"><polygon class="cls-2" points="24.03 37.35 0.11 46.28 0.05 46.17 24.03 37.19 24.03 37.35"/></g><g class="cls-3"><polygon class="cls-2" points="24.03 37.56 0.16 46.49 0.11 46.28 24.03 37.35 24.03 37.56"/></g><g class="cls-3"><polygon class="cls-2" points="24.03 37.73 0.27 46.71 0.16 46.49 24.03 37.56 24.03 37.73"/></g><g class="cls-3"><polygon class="cls-2" points="24.03 37.94 0.33 46.82 0.27 46.71 24.03 37.73 24.03 37.94"/></g><g class="cls-3"><polygon class="cls-2" points="24.03 38.16 0.38 46.98 0.33 46.82 24.03 37.94 24.03 38.16"/></g><g class="cls-3"><polygon class="cls-2" points="24.03 38.32 0.43 47.2 0.38 46.98 24.03 38.16 24.03 38.32"/></g><g class="cls-3"><polygon class="cls-2" points="24.03 38.54 0.49 47.41 0.43 47.2 24.03 38.32 24.03 38.54"/></g><g class="cls-3"><polygon class="cls-2" points="24.03 38.7 0.59 47.52 0.49 47.41 24.03 38.54 24.03 38.7"/></g><g class="cls-3"><polygon class="cls-2" points="24.03 38.92 0.65 47.74 0.59 47.52 24.03 38.7 24.03 38.92"/></g><g class="cls-3"><polygon class="cls-2" points="24.03 39.19 0.7 47.9 0.65 47.74 24.03 38.92 24.03 39.19"/></g><g class="cls-3"><polygon class="cls-2" points="24.03 39.35 0.76 48.01 0.7 47.9 24.03 39.19 24.03 39.35"/></g><g class="cls-3"><polygon class="cls-2" points="24.03 39.57 0.81 48.23 0.76 48.01 24.03 39.35 24.03 39.57"/></g><g class="cls-3"><polygon class="cls-2" points="24.03 39.73 0.87 48.44 0.81 48.23 24.03 39.57 24.03 39.73"/></g><g class="cls-3"><polygon class="cls-2" points="24.03 39.95 0.97 48.6 0.87 48.44 24.03 39.73 24.03 39.95"/></g><g class="cls-3"><polygon class="cls-2" points="24.03 40.11 1.03 48.77 0.97 48.6 24.03 39.95 24.03 40.11"/></g><g class="cls-3"><polygon class="cls-2" points="24.03 40.32 1.08 48.93 1.03 48.77 24.03 40.11 24.03 40.32"/></g><g class="cls-3"><polygon class="cls-2" points="24.03 40.54 1.19 49.15 1.08 48.93 24.03 40.32 24.03 40.54"/></g><g class="cls-3"><polygon class="cls-2" points="24.03 40.7 1.3 49.25 1.19 49.15 24.03 40.54 24.03 40.7"/></g><g class="cls-3"><polygon class="cls-2" points="24.03 40.92 1.35 49.47 1.3 49.25 24.03 40.7 24.03 40.92"/></g><g class="cls-3"><polygon class="cls-2" points="24.03 41.14 1.41 49.63 1.35 49.47 24.03 40.92 24.03 41.14"/></g><g class="cls-3"><polygon class="cls-2" points="24.03 41.35 1.46 49.85 1.41 49.63 24.03 41.14 24.03 41.35"/></g><g class="cls-3"><polygon class="cls-2" points="24.03 41.57 1.51 49.96 1.46 49.85 24.03 41.35 24.03 41.57"/></g><g class="cls-3"><polygon class="cls-2" points="24.03 41.73 1.62 50.17 1.51 49.96 24.03 41.57 24.03 41.73"/></g><g class="cls-3"><polygon class="cls-2" points="24.03 41.95 1.68 50.34 1.62 50.17 24.03 41.73 24.03 41.95"/></g><g class="cls-3"><polygon class="cls-2" points="24.03 42.11 1.73 50.5 1.68 50.34 24.03 41.95 24.03 42.11"/></g><g class="cls-3"><polygon class="cls-2" points="24.03 42.33 1.79 50.66 1.73 50.5 24.03 42.11 24.03 42.33"/></g><g class="cls-3"><polygon class="cls-2" points="24.03 42.49 1.84 50.88 1.84 50.88 1.79 50.66 24.03 42.33 24.03 42.49"/></g><g class="cls-3"><polygon class="cls-2" points="24.03 42.7 2.38 50.88 1.84 50.88 24.03 42.49 24.03 42.7"/></g><g class="cls-3"><polygon class="cls-2" points="24.03 42.87 2.87 50.88 2.38 50.88 24.03 42.7 24.03 42.87"/></g><g class="cls-3"><polygon class="cls-2" points="24.03 43.14 3.46 50.88 2.87 50.88 24.03 42.87 24.03 43.14"/></g><g class="cls-3"><polygon class="cls-2" points="24.03 43.35 3.95 50.88 3.46 50.88 24.03 43.14 24.03 43.35"/></g><g class="cls-3"><polygon class="cls-2" points="24.03 43.52 4.49 50.88 3.95 50.88 24.03 43.35 24.03 43.52"/></g><g class="cls-3"><polygon class="cls-2" points="24.03 43.73 4.98 50.88 4.49 50.88 24.03 43.52 24.03 43.73"/></g><g class="cls-3"><polygon class="cls-2" points="24.03 43.9 5.57 50.88 4.98 50.88 24.03 43.73 24.03 43.9"/></g><g class="cls-3"><polygon class="cls-2" points="24.03 44.11 6.12 50.88 5.57 50.88 24.03 43.9 24.03 44.11"/></g><g class="cls-3"><polygon class="cls-2" points="24.03 44.33 6.6 50.88 6.12 50.88 24.03 44.11 24.03 44.33"/></g><g class="cls-3"><polygon class="cls-2" points="24.03 44.49 7.14 50.88 6.6 50.88 24.03 44.33 24.03 44.49"/></g><g class="cls-3"><polygon class="cls-2" points="24.03 44.71 7.68 50.88 7.14 50.88 24.03 44.49 24.03 44.71"/></g><g class="cls-3"><polygon class="cls-2" points="24.03 44.87 8.22 50.88 7.68 50.88 24.03 44.71 24.03 44.87"/></g><g class="cls-3"><polygon class="cls-2" points="24.03 45.09 8.71 50.88 8.22 50.88 24.03 44.87 24.03 45.09"/></g><g class="cls-3"><polygon class="cls-2" points="24.03 45.36 9.25 50.88 8.71 50.88 24.03 45.09 24.03 45.36"/></g><g class="cls-3"><polygon class="cls-2" points="24.03 45.52 9.85 50.88 9.25 50.88 24.03 45.36 24.03 45.52"/></g><g class="cls-3"><polygon class="cls-2" points="24.03 45.73 10.34 50.88 9.85 50.88 24.03 45.52 24.03 45.73"/></g><g class="cls-3"><polygon class="cls-2" points="10.34 50.88 24.03 45.73 24.03 50.88 10.34 50.88"/></g></g><g class="cls-4"><g id="_编组_4" data-name="&lt;编组&gt;"><g id="_剪切组_" data-name="&lt;剪切组&gt;"><g class="cls-5"><g id="_编组_5" data-name="&lt;编组&gt;"><rect class="cls-6" x="7.25" y="32.1" width="10.77" height="13.42"/></g></g></g></g></g></svg>