<?xml version="1.0" encoding="UTF-8"?>
<svg width="50px" height="50px" viewBox="0 0 50 50" version="1.1" xmlns="http://www.w3.org/2000/svg" xmlns:xlink="http://www.w3.org/1999/xlink">
    <!-- Generator: Sketch 51.3 (57544) - http://www.bohemiancoding.com/sketch -->
    <title>F</title>
    <desc>Created with Sketch.</desc>
    <defs></defs>
    <g id="Page-1" stroke="none" stroke-width="1" fill="none" fill-rule="evenodd">
        <g id="Welcome-on-board" transform="translate(-516.000000, -369.000000)" fill-rule="nonzero">
            <g id="Group-3" transform="translate(232.000000, 369.000000)">
                <g id="F" transform="translate(284.000000, 0.000000)">
                    <rect id="Rectangle-6-Copy" fill="#0F0B10" x="0" y="0" width="50" height="50"></rect>
                    <g id="外汇买卖" transform="translate(10.000000, 10.000000)">
                        <path d="M1.25,21.875 C1.25,25.6719577 4.32804234,28.75 8.125,28.75 C11.9219577,28.75 15,25.6719577 15,21.875 C15,18.0780423 11.9219577,15 8.125,15 C4.32804234,15 1.25,18.0780423 1.25,21.875 Z" id="Shape" stroke="#FFFFFF"></path>
                        <path d="M15.4735654,30 C15.2309209,30 14.9882764,29.9932329 14.7456318,29.9830822 C14.165981,29.9560137 13.7211327,29.462014 13.7514633,28.8800418 C13.7784238,28.2980695 14.2704529,27.8514396 14.8501038,27.8818917 C18.179726,28.0443025 21.3610654,26.9006594 23.8279515,24.6539758 C26.2948376,22.4106758 27.7405946,19.3350201 27.9057277,15.9988303 C27.9326882,15.416858 28.4247173,14.9803788 29.0043682,15.0006802 C29.584019,15.0277486 30.0288673,15.5217484 29.9985367,16.1037206 C29.8098132,20.0015813 28.1180416,23.5949216 25.2366378,26.2171803 C22.5338473,28.6702611 19.093013,30 15.4735654,30 Z" id="Shape" fill="#FFFFFF"></path>
                        <path d="M5.78773301,19.5669549 C5.88394468,19.1411164 6.01924233,18.7906184 6.19061936,18.5154612 C6.60553217,17.8373952 7.18280216,17.5 7.92844257,17.5 C8.72820204,17.5 9.31449188,17.8603249 9.68129886,18.5776992 C9.78352375,18.7775157 9.86169573,19.0592243 9.91581479,19.4228249 L9.04690319,19.4261006 C9.04088996,19.3835168 9.03487673,19.35076 9.0288635,19.3311059 C9.00180397,19.1705975 8.95670475,19.0264675 8.89055923,18.9019916 C8.69212267,18.538391 8.37342153,18.3582285 7.9344558,18.3582285 C7.28803367,18.3582285 6.85808779,18.7611373 6.64461816,19.5669549 L8.82441371,19.5669549 L8.58388455,20.3432914 L6.53036681,20.3432914 C6.52435358,20.4546646 6.52435358,20.5660377 6.52435358,20.6806866 L8.43956705,20.6806866 L8.19903788,21.4570231 L6.5904991,21.4570231 C6.63860493,21.7190776 6.72279014,21.961478 6.84305472,22.1842243 C7.09561034,22.6526468 7.4594107,22.8884958 7.9344558,22.8884958 C8.28322309,22.8884958 8.56283824,22.773847 8.77029465,22.5412736 C8.884546,22.4200734 8.97173782,22.2464623 9.03187011,22.0237159 C9.06193626,21.9188941 9.09200241,21.7878669 9.12808178,21.6306342 L10,21.6306342 C9.90378833,22.1219864 9.79855683,22.47576 9.68731209,22.6919549 C9.32651834,23.3962264 8.74624173,23.75 7.94948888,23.75 C6.73782321,23.75 6.00120265,22.9834906 5.73662057,21.4537474 L5,21.4537474 L5.24052916,20.6774109 L5.6825015,20.6774109 C5.6825015,20.5889675 5.68550812,20.4775943 5.69452796,20.3400157 L5,20.3400157 L5.24052916,19.5636792 L5.78773301,19.5636792 L5.78773301,19.5669549 Z" id="Shape" fill="#FFFFFF"></path>
                        <path d="M21.875,15 C25.6719577,15 28.75,11.9219577 28.75,8.12500007 C28.7500001,5.66879913 27.4396325,3.39917585 25.3125,2.17107536 C23.1853676,0.942974879 20.5646324,0.942974879 18.4375,2.17107536 C16.3103675,3.39917585 14.9999999,5.66879913 15,8.12500007 C15,11.9219577 18.0780423,15 21.875,15 Z" id="Shape" stroke="#FFFFFF"></path>
                        <path d="M22.91532,4.58383595 C22.9250162,4.58383595 22.9379444,4.58383595 22.9508727,4.58735424 C23.1544926,4.6190189 23.3581125,4.67882992 23.5617324,4.77734218 C24.376212,5.17490953 24.7834518,5.78357459 24.7834518,6.59630076 C24.7834518,6.61741053 24.7834518,6.65963008 24.7802198,6.71944109 L23.9980608,6.71944109 C23.9754363,6.36057499 23.8978668,6.08966626 23.7750485,5.90671492 C23.6037492,5.65691596 23.3193277,5.4880378 22.918552,5.39656212 L22.918552,7.69400885 L23.6393019,7.90862485 C24.5475113,8.17601528 25,8.72838762 25,9.57277845 C25,10.0970044 24.8319328,10.5579011 24.4925663,10.9484318 C24.1402715,11.3495175 23.6166774,11.581725 22.9217841,11.641536 L22.9217841,12.5 L22.133161,12.5 L22.133161,11.641536 L22.1137686,11.641536 C21.7226891,11.6028347 21.3865546,11.5043225 21.1053652,11.3459992 C20.5591467,11.0469441 20.2165482,10.5966023 20.0743374,9.99497386 C20.0290886,9.79794934 20.0032321,9.54111379 20,9.22798552 L20.7756949,9.22798552 L20.7756949,9.29835143 C20.7756949,10.1673703 21.2281836,10.6740048 22.133161,10.8182549 L22.133161,8.34489345 L21.4188752,8.14083233 C20.5979315,7.90510655 20.1874596,7.37032569 20.1874596,6.54000804 C20.1874596,5.991154 20.3587589,5.53729393 20.7045895,5.17490953 C21.0277957,4.83011661 21.5061409,4.62253719 22.133161,4.56272618 L22.133161,3.75 L22.91532,3.75 L22.91532,4.58383595 Z M22.1266968,7.49698432 L22.1266968,5.37897065 C22.1073045,5.38248894 22.0943762,5.38248894 22.0911441,5.38248894 C21.405947,5.4880378 21.0665805,5.87505026 21.0665805,6.54352634 C21.0665805,6.81795336 21.1409179,7.01849618 21.2895928,7.13811821 C21.4414997,7.26125854 21.6742081,7.3668074 21.9909502,7.45828307 L22.1266968,7.49698432 Z M22.91532,8.55599115 L22.91532,10.8464013 C23.7136393,10.747889 24.1111829,10.3432851 24.1111829,9.63610776 C24.1111829,9.34057097 24.0368455,9.12595497 23.8881707,8.99929634 C23.6877828,8.83041817 23.4033613,8.69320466 23.0413704,8.59117411 L22.91532,8.55599115 Z" id="Shape" fill="#FFFFFF"></path>
                        <path d="M1.04639978,15 L0.99583835,15 C0.416067285,14.9729408 -0.0288733005,14.4791098 0.0014635576,13.8973363 C0.392471951,5.85059732 7.24186035,-0.393320372 15.2541616,0.0193329096 C15.8339327,0.0463921412 16.2788733,0.540223118 16.2485364,1.1219966 C16.2215703,1.70377008 15.7226976,2.14686499 15.149668,2.11980576 C8.28342581,1.77480056 2.4284122,7.10885159 2.091336,13.9988084 C2.06774067,14.5602875 1.60257551,15 1.04639978,15 Z" id="Shape" fill="#FFFFFF"></path>
                    </g>
                </g>
            </g>
        </g>
    </g>
</svg>