<?xml version="1.0" encoding="UTF-8"?>
<svg width="46px" height="61px" viewBox="0 0 46 61" version="1.1" xmlns="http://www.w3.org/2000/svg" xmlns:xlink="http://www.w3.org/1999/xlink">
    <!-- Generator: Sketch 50.2 (55047) - http://www.bohemiancoding.com/sketch -->
    <title>FF</title>
    <desc>Created with Sketch.</desc>
    <defs></defs>
    <g id="Page-1" stroke="none" stroke-width="1" fill="none" fill-rule="evenodd">
        <g id="G.55.com" transform="translate(-1027.000000, -1268.000000)">
            <g id="FF" transform="translate(1027.000000, 1269.000000)">
                <rect id="Rectangle-30-Copy" fill="#FFFFFF" x="29" y="49" width="2" height="11" rx="1"></rect>
                <rect id="Rectangle-30" fill="#FFFFFF" x="22" y="38" width="2" height="15" rx="1"></rect>
                <rect id="Rectangle-30-Copy-2" fill="#FFFFFF" x="15" y="49" width="2" height="11" rx="1"></rect>
                <path d="M8,23 C13,24.4442569 18,25.1663853 23,25.1663853 C28,25.1663853 33,24.4442569 38,23 L38,29.8336147 C33,31.2778716 28,32 23,32 C18,32 13,31.2778716 8,29.8336147 L8,23 Z" id="Rectangle-19" fill="#406FFD"></path>
                <path d="M23,42.8950774 C26.3256564,42.8950774 29.8605902,43.2899825 33.6048014,44.0797927 C36.5349338,36.9313257 38,30.8656808 38,25.8828582 C38,16.1454215 33.202796,7.59939729 23.6083881,0.244785478 L23.6083983,0.244772082 C23.2494697,-0.030365362 22.7505585,-0.0303654605 22.3916297,0.244771841 C12.7972099,7.59938673 8,16.1454155 8,25.8828582 C8,30.5566214 9.30611917,36.6222662 11.9183575,44.0797927 C15.9804628,43.2899825 19.6743436,42.8950774 23,42.8950774 Z" id="Oval-3" stroke="#FFFFFF" stroke-width="2"></path>
                <path d="M45.7962576,52.9264252 C45.8645496,53.4744714 45.4756319,53.9741122 44.9275857,54.0424042 C44.3795395,54.1106961 43.8798987,53.7217785 43.8116067,53.1737323 C43.0811022,47.311399 40.0843496,42.0965618 35.6272156,38.7494101 C35.1855924,38.4177665 35.0964363,37.79091 35.4280799,37.3492869 C35.7597234,36.9076637 36.3865799,36.8185076 36.8282031,37.1501512 C41.721269,40.8246725 44.99901,46.5284752 45.7962576,52.9264252 Z M8.60137248,37.300194 C9.03190745,36.9542777 9.66134557,37.0228747 10.0072619,37.4534096 C10.3531782,37.8839446 10.2845812,38.5133827 9.8540462,38.859299 C5.73755682,42.1667209 2.95294461,47.2415099 2.21955856,52.9503847 C2.14918803,53.4981679 1.64807542,53.8851873 1.10029222,53.8148168 C0.552509022,53.7444463 0.165489587,53.2433337 0.235860119,52.6955505 C1.03433423,46.4800126 4.07661149,40.9356445 8.60137248,37.300194 Z" id="Oval-5" fill="#FFFFFF" fill-rule="nonzero"></path>
                <circle id="Oval-4" stroke="#FFFFFF" stroke-width="2" cx="23" cy="15" r="4"></circle>
                <path d="M11.0232837,28.4274808 C10.7523833,28.3739311 10.5761857,28.1109123 10.6297354,27.8400119 C10.6832851,27.5691115 10.9463039,27.3929139 11.2172043,27.4464636 C13.3422049,27.8665188 15.5996327,28.1665142 17.9384069,28.3363391 C18.2138242,28.3563379 18.4208817,28.5958199 18.4008829,28.8712371 C18.3808841,29.1466544 18.1414021,29.3537119 17.8659848,29.3337131 C15.4869657,29.160966 13.1889841,28.8555813 11.0232837,28.4274808 Z M28.2986633,29.2379775 C28.0236792,29.2632438 27.7802782,29.0608076 27.7550119,28.7858236 C27.7297455,28.5108395 27.9321817,28.2674385 28.2071658,28.2421722 C30.5555147,28.026399 32.8091265,27.6780456 34.913488,27.2088234 C35.1830115,27.1487261 35.450222,27.3184996 35.5103193,27.5880231 C35.5704166,27.8575466 35.4006431,28.1247571 35.1311196,28.1848544 C32.9844557,28.663509 30.6887466,29.0183697 28.2986633,29.2379775 Z" id="Oval-6" fill="#FFFFFF" fill-rule="nonzero"></path>
                <path d="M22.456,26.806 L22.45,27.466 L20.368,27.466 L20.368,28.618 L22.348,28.618 L22.348,29.272 L20.368,29.272 L20.368,31 L19.66,31 L19.66,26.806 L22.456,26.806 Z M26.182,26.806 L26.176,27.466 L24.094,27.466 L24.094,28.618 L26.074,28.618 L26.074,29.272 L24.094,29.272 L24.094,31 L23.386,31 L23.386,26.806 L26.182,26.806 Z" fill="#FFFFFF"></path>
            </g>
        </g>
    </g>
</svg>