<?xml version="1.0" encoding="UTF-8"?>
<svg width="116px" height="32px" viewBox="0 0 116 32" version="1.1" xmlns="http://www.w3.org/2000/svg" xmlns:xlink="http://www.w3.org/1999/xlink">
    <!-- Generator: Sketch 51.1 (57501) - http://www.bohemiancoding.com/sketch -->
    <title>Group 18</title>
    <desc>Created with Sketch.</desc>
    <defs>
        <path d="M0.39750091,20.2135416 C0.161361751,19.8243173 0,19.1947666 0,18.288318 L0,2.60963144 C0,1.70318288 0.162673638,1.07363216 0.39750091,0.684407851 L9.94014672,10.4581176 L0.39750091,20.2135416 Z M13.970255,14.5854626 L4.22820284,19.9901948 C3.12622009,20.6014598 2.44010464,20.8979495 1.64379093,20.8979495 L1.55458279,20.8979495 L10.842723,11.3645661 L13.970255,14.5854626 Z M15.1443914,6.9603233 L17.2040496,8.10709827 C17.9649425,8.53289399 19.1194006,9.31003649 19.1194006,10.4581176 C19.1194006,11.5866069 17.9649425,12.3650555 17.2040496,12.7908512 L15.1443914,13.9376262 L11.7466113,10.4581176 L15.1443914,6.9603233 Z M1.5532709,0 L1.64510279,0 C2.44010464,0 3.12753195,0.296489663 4.22951472,0.906448561 L13.970255,6.31248686 L10.8440349,9.5320772 L1.55458279,0 L1.5532709,0 Z" id="path-1"></path>
    </defs>
    <g id="Page-1" stroke="none" stroke-width="1" fill="none" fill-rule="evenodd">
        <g id="G.55.com0930" transform="translate(-150.000000, -3236.000000)">
            <g id="Group-17" transform="translate(150.000000, 3019.000000)">
                <g id="Group-16" transform="translate(0.000000, 217.000000)">
                    <g id="Group-18">
                        <g id="谷歌play" transform="translate(11.000000, 5.000000)" fill-rule="nonzero" stroke="#FFFFFF">
                            <g id="Shape">
                                <use xlink:href="#path-1"></use>
                                <use xlink:href="#path-1"></use>
                                <use xlink:href="#path-1"></use>
                                <use xlink:href="#path-1"></use>
                            </g>
                        </g>
                        <rect id="Rectangle-46" stroke="#FFFFFF" x="0.5" y="0.5" width="114.399239" height="30.4104438" rx="4"></rect>
                        <g id="Group-15" transform="translate(39.384323, 1.779850)" fill="#FFFFFF">
                            <text id="Get-it-now" font-family="Helvetica-Light, Helvetica" font-size="10" font-weight="300">
                                <tspan x="0" y="10">Get it now</tspan>
                            </text>
                            <text id="Google-play" font-family="Helvetica" font-size="12" font-weight="normal">
                                <tspan x="0" y="23">Google play</tspan>
                            </text>
                        </g>
                    </g>
                </g>
            </g>
        </g>
    </g>
</svg>