<?xml version="1.0" encoding="UTF-8"?>
<svg width="291px" height="110px" viewBox="0 0 291 110" version="1.1" xmlns="http://www.w3.org/2000/svg" xmlns:xlink="http://www.w3.org/1999/xlink">
    <!-- Generator: Sketch 51.3 (57544) - http://www.bohemiancoding.com/sketch -->
    <title>Group 50</title>
    <desc>Created with Sketch.</desc>
    <defs>
        <polygon id="path-1" points="0.345527184 0.0236812469 3.1707699 0.0236812469 3.1707699 18.3056812 0.345527184 18.3056812"></polygon>
        <polygon id="path-3" points="0 109.281046 291 109.281046 291 0.392327803 0 0.392327803"></polygon>
    </defs>
    <g id="Page-1" stroke="none" stroke-width="1" fill="none" fill-rule="evenodd">
        <g id="55H5" transform="translate(-230.000000, -205.000000)">
            <g id="Group-50" transform="translate(230.000000, 205.000000)">
                <polygon id="Fill-1" fill="#17489C" points="5 108.886262 6.93396068 108.897928 7.03108721 93.5433615 13.470005 103.073983 20.0289027 93.6279355 19.9317762 108.985418 21.8800202 109 22 90.1049885 20.0803226 90.0962394 13.4928583 99.7347659 7.02537389 90.0116654 5.11712317 90"></polygon>
                <g id="Group-49">
                    <path d="M36.031168,100.864071 C35.1299155,100.711764 34.0902262,100.63561 32.9177505,100.629969 C29.8467117,100.610225 28.3041291,101.526892 28.2928282,103.371507 C28.2815272,105.134328 29.595265,106.031251 32.2227408,106.045353 C34.7428573,106.062277 36.0029155,105.210482 36.0142165,103.473046 L36.031168,100.864071 Z M37.9269058,103.487148 C37.9156049,105.182277 37.1669155,106.400738 35.6667117,107.145353 C34.7061291,107.610738 33.5477796,107.844841 32.2114398,107.836379 C30.8524981,107.827918 29.6545951,107.576892 28.6459835,107.07202 C27.1288282,106.296379 26.3688379,105.052533 26.3773136,103.357405 C26.3914398,101.46202 27.371799,100.150482 29.3014398,99.4086868 C30.3693816,98.9968919 31.6379155,98.7909945 33.0929155,98.8022765 C34.2653913,98.8079175 35.2485757,98.8953534 36.0142165,99.0476611 C36.031168,96.6389432 34.6637505,95.4204816 31.9006631,95.4007381 C30.7310126,95.395097 29.3664204,95.615097 27.8125369,96.0748406 L27.8266631,94.1935586 C29.244935,93.7309945 30.6321291,93.4968919 31.9938961,93.508174 C35.997265,93.5307381 37.9777602,95.4966355 37.952333,99.4086868 L37.9269058,103.487148 Z" id="Fill-2" fill="#17489C"></path>
                    <polygon id="Fill-4" fill="#17489C" points="46.1141767 100.161764 52.7365456 107.779969 50.1740505 107.763046 44.8117398 101.526892 43.1702738 103.250225 43.1420214 107.717918 41.2010796 107.703815 41.322565 88.6427893 43.2635068 88.6540714 43.1872252 100.519969 49.5242447 93.8466355 52.112167 93.8635586"></polygon>
                    <path d="M66.2604501,100.196174 C66.2632427,99.3895073 66.0824272,98.5659175 65.6953689,97.7451483 C65.0060097,96.2869432 63.810932,95.5536099 62.1270874,95.5423278 C59.4713592,95.5254047 58.0728641,97.0625842 57.9033495,100.142584 L66.2604501,100.196174 Z M68.2211359,100.988738 L68.1787573,101.566943 L68.1476796,101.970277 L57.920301,101.905405 C57.920301,102.147969 57.9852816,102.43002 58.1321942,102.740277 C58.4542718,105.005148 59.957301,106.141815 62.6384563,106.161559 C64.3618544,106.172841 65.9129126,105.803353 67.2803301,105.061559 L67.2662039,107.092328 C65.9016117,107.726943 64.311,108.04002 62.5169709,108.028738 C58.0982913,108.000533 55.9002524,105.687712 55.9313301,101.098738 C55.9426311,99.3641227 56.2901359,97.8579688 56.9851456,96.5859175 C58.0615631,94.6425842 59.8075631,93.6836099 62.2174951,93.7005329 C64.7658641,93.717456 66.5090388,94.8315586 67.4667961,97.0428406 C67.9838155,98.2020714 68.2324369,99.5220714 68.2211359,100.988738 Z" id="Fill-6" fill="#17489C"></path>
                    <polygon id="Fill-8" fill="#17489C" points="79.6529155 89.6810201 94.4769641 89.7769175 94.4628379 91.644097 88.0354107 91.6046099 87.9308767 108.003071 86.0040612 107.991789 86.1085951 91.5933278 79.6416146 91.5510201"></polygon>
                    <path d="M109.044763,108.138456 L107.1462,108.127174 L107.19988,99.6656355 C107.216831,97.1497381 106.024579,95.8776868 103.640074,95.8607637 C102.250054,95.8523022 100.86286,96.1512765 99.4558893,96.7774304 L99.3852583,108.076405 L97.4556175,108.065123 L97.5771029,89.0012765 L99.5067437,89.0153791 L99.4671903,94.8538406 C100.913715,94.2305073 102.357414,93.9287124 103.812414,93.937174 C107.358093,93.9625586 109.12387,95.8692252 109.101268,99.6769175 L109.044763,108.138456 Z" id="Fill-10" fill="#17489C"></path>
                    <path d="M123.551819,100.562277 C123.55747,99.7556099 123.373829,98.9320201 122.989596,98.1112509 C122.297412,96.6530458 121.102334,95.9197124 119.418489,95.9084304 C116.762761,95.8915073 115.367091,97.4286868 115.197577,100.508687 L123.551819,100.562277 Z M125.515363,101.354841 L125.470159,101.933046 L125.439082,102.336379 L115.211703,102.271507 C115.211703,102.514071 115.276683,102.796123 115.423596,103.106379 C115.745674,105.371251 117.248703,106.507918 119.929858,106.524841 C121.653256,106.536123 123.20714,106.169456 124.571732,105.424841 L124.557606,107.45561 C123.195839,108.093046 121.602402,108.406123 119.808373,108.394841 C115.389693,108.366635 113.19448,106.053815 113.222732,101.464841 C113.234033,99.7302252 113.581538,98.2240714 114.276548,96.9520201 C115.35579,95.0086868 117.098965,94.0497124 119.511722,94.0666355 C122.057266,94.0835586 123.803266,95.1976611 124.758198,97.4089432 C125.275217,98.568174 125.523839,99.888174 125.515363,101.354841 Z" id="Fill-12" fill="#17489C"></path>
                    <path d="M144.429233,108.364379 L142.623903,108.353097 L136.866058,90.0451483 L138.914359,90.0592509 C140.007728,93.7005329 141.567262,98.7548919 143.559058,105.239251 C145.621485,98.7802765 147.246,93.7456611 148.426951,90.1213022 L150.192728,90.1325842 L154.879806,105.309764 L159.691194,90.191815 L161.728194,90.2059175 L155.733029,108.437712 L153.970078,108.42643 L149.294301,93.4889945 L144.429233,108.364379 Z" id="Fill-14" fill="#17489C"></path>
                    <path d="M170.635902,96.181456 C167.550737,96.1617124 165.988378,97.941456 165.965776,101.531969 C165.943174,105.1112 167.480106,106.910687 170.568096,106.93043 C173.653261,106.950174 175.212795,105.173251 175.235397,101.5912 C175.260824,98.0006868 173.721067,96.2011996 170.635902,96.181456 M170.55397,108.746841 C166.203096,108.718635 164.036135,106.309918 164.064387,101.520687 C164.09829,96.7173534 166.293504,94.3368406 170.647203,94.3650458 C175.012203,94.3932509 177.179164,96.8019688 177.150912,101.605302 C177.119834,106.394533 174.921795,108.775046 170.55397,108.746841" id="Fill-16" fill="#17489C"></path>
                    <path d="M187.289295,96.3687381 C185.60545,96.3997637 183.958334,96.6451483 182.33947,97.1189945 L182.266014,108.606943 L180.364625,108.592841 L180.446557,95.801815 C182.528761,94.9387381 184.808732,94.4959175 187.300596,94.4987247 L187.289295,96.3687381 Z" id="Fill-18" fill="#17489C"></path>
                    <polygon id="Fill-20" fill="#17489C" points="193.407358 108.678302 191.480543 108.66702 191.602028 89.603174 193.528844 89.614456"></polygon>
                    <path d="M207.504754,106.346584 C208.021774,105.906584 208.278871,105.328379 208.284521,104.614789 L208.33255,97.1094047 C207.284385,96.6581227 206.11191,96.4353022 204.806648,96.4268406 C201.828842,96.4099175 200.322987,98.1473534 200.300385,101.633507 C200.274958,105.291712 201.690405,107.130687 204.54955,107.14761 C205.857638,107.156071 206.840822,106.893764 207.504754,106.346584 M208.343851,95.1576099 L208.38058,89.7111996 L210.279143,89.7224816 L210.18591,104.5612 C210.177434,105.556841 209.875133,106.442482 209.264881,107.20402 C208.301473,108.397097 206.719337,108.978123 204.53825,108.96402 C200.399269,108.935815 198.339667,106.49043 198.37357,101.619405 C198.401822,96.9260714 200.546182,94.5850458 204.817949,94.6104304 C206.207968,94.6188919 207.377618,94.8022252 208.343851,95.1576099" id="Fill-22" fill="#17489C"></path>
                    <polygon id="Fill-24" fill="#17489C" points="223.127782 90.5982509 234.366597 90.6687637 234.355296 92.485174 225.02917 92.4259432 224.989617 98.7636355 233.18282 98.8144047 233.171519 100.684405 224.978316 100.633635 224.924636 108.877994 223.009121 108.866712"></polygon>
                    <polygon id="Fill-26" fill="#17489C" points="240.86409 108.981225 238.937275 108.969943 239.05876 89.906097 240.985576 89.9173791"></polygon>
                    <path d="M251.95119,96.7021227 C248.866025,96.6823791 247.303666,98.4621227 247.281064,102.052635 C247.258462,105.631866 248.795394,107.431353 251.883384,107.451097 C254.96855,107.470841 256.530909,105.691097 256.550685,102.111866 C256.576113,98.5213534 255.036355,96.7218663 251.95119,96.7021227 M251.872083,109.267507 C247.518384,109.239302 245.351423,106.830584 245.382501,102.041353 C245.413579,97.2380201 247.608792,94.8575073 251.962491,94.8857124 C256.330317,94.9139175 258.497278,97.3226355 258.4662,102.125969 C258.435122,106.9152 256.237083,109.295712 251.872083,109.267507" id="Fill-28" fill="#17489C"></path>
                    <polygon id="Fill-30" fill="#17489C" points="267.66519 109.152148 265.927666 109.140866 261.164307 95.1990714 263.198482 95.213174 266.837394 106.02702 270.261588 95.2583022 271.945433 95.2695842 275.298996 106.08061 279.07352 95.3147124 281.082268 95.328815 276.169171 109.208559 274.403394 109.197277 271.103511 98.4793278"></polygon>
                    <g id="Group-34" transform="translate(285.349515, 90.975365)">
                        <mask id="mask-2" fill="white">
                            <use xlink:href="#path-1"></use>
                        </mask>
                        <g id="Clip-33"></g>
                        <path d="M0.543294175,0.0236812469 L2.44185728,0.0349632981 L2.21866311,13.7567582 L0.563070874,13.7454761 L0.543294175,0.0236812469 Z M0.345527184,18.2921428 L0.362478641,15.5618864 L2.42490583,15.5759889 L2.40795437,18.3062453 L0.345527184,18.2921428 Z" id="Fill-32" fill="#17489C" mask="url(#mask-2)"></path>
                    </g>
                    <path d="M265.172479,40.8647124 L253.713294,40.8647124 L253.713294,35.1447124 C253.713294,33.2295842 252.964605,31.4272765 251.608488,30.0706099 C250.252372,28.7195842 248.449867,27.9721483 246.528702,27.9721483 C244.610362,27.9721483 242.805032,28.7195842 241.451741,30.0734304 C240.092799,31.4272765 239.34411,33.2295842 239.34411,35.1447124 L239.34411,40.8647124 L227.884925,40.8647124 L227.884925,35.1447124 C227.884925,30.1749688 229.823042,25.5013791 233.346119,21.9841996 C236.866372,18.4698406 241.550624,16.5321483 246.528702,16.5321483 C251.509605,16.5321483 256.191032,18.4698406 259.711284,21.9841996 C263.231537,25.5013791 265.172479,30.1721483 265.172479,35.1447124 L265.172479,40.8647124 Z" id="Fill-35" fill="#17489C"></path>
                    <mask id="mask-4" fill="white">
                        <use xlink:href="#path-3"></use>
                    </mask>
                    <g id="Clip-38"></g>
                    <polygon id="Fill-37" fill="#17489C" mask="url(#mask-4)" points="253.712447 70.7415586 265.171631 70.7415586 265.171631 29.3420714 253.712447 29.3420714"></polygon>
                    <path d="M290.999717,70.8230714 L279.540533,70.8230714 L279.540533,35.1464047 C279.540533,33.228456 278.791844,31.4289688 277.435727,30.0723022 C276.079611,28.718456 274.274281,27.9738406 272.355941,27.9738406 C270.437601,27.9738406 268.632271,28.718456 267.27898,30.0723022 C265.920038,31.4289688 265.171349,33.228456 265.171349,35.1464047 L265.171349,40.8635842 L253.712164,40.8635842 L253.712164,35.1464047 C253.712164,30.1738406 255.650281,25.5002509 259.173358,21.9858919 C262.693611,18.4687124 267.375038,16.5310201 272.355941,16.5310201 C277.336844,16.5310201 282.018271,18.4687124 285.538523,21.9830714 C289.061601,25.5002509 290.999717,30.1738406 290.999717,35.1464047 L290.999717,70.8230714 Z" id="Fill-39" fill="#17489C" mask="url(#mask-4)"></path>
                    <polygon id="Fill-40" fill="#17489C" mask="url(#mask-4)" points="227.886903 70.8233534 239.346087 70.8233534 239.346087 39.4225842 227.886903 39.4225842"></polygon>
                    <path d="M196.245032,58.8703022 C189.597236,58.8703022 183.474935,54.662097 181.104556,48.4626099 C178.70875,42.1869688 180.547983,34.8959432 185.616469,30.4931227 C190.829042,25.9661996 198.366789,25.3174816 204.254595,28.9249175 C210.009615,32.4505586 213.51009,39.3495329 212.091818,46.0538919 C210.532284,53.4379945 203.799731,58.8703022 196.245032,58.8703022 M224.401401,42.9626099 C224.525712,29.3197893 214.374615,17.2282509 200.892556,14.9915842 C196.420197,14.2526099 191.7981,14.4979945 187.469828,15.8631227 L187.469828,15.8659432 C183.234789,17.2028663 179.302051,19.5382509 176.14343,22.6549175 C172.577974,26.1692765 170.507071,30.7131227 168.176246,35.0679945 C165.84542,39.4200458 163.686935,43.8623534 161.333508,48.2031227 C159.21175,52.1123534 156.810294,55.6069688 152.614809,57.505174 L152.614809,57.4910714 C144.673051,61.0872252 134.841207,57.4656868 131.315304,49.4836355 C127.910886,41.780815 131.007352,32.4223534 138.53945,28.5328663 C142.839469,26.3131227 148.20743,26.1579945 152.614809,28.1549175 L152.614809,28.140815 C157.030663,30.1377381 159.412343,33.8185073 161.590605,37.9223534 L168.074537,25.8505586 C167.334323,24.8915842 166.554556,23.9636355 165.698508,23.1061996 C159.587508,17.0985073 150.702119,14.0777381 142.192488,15.3215842 C134.151848,16.4949175 126.744061,21.1797893 122.342333,28.0138919 C117.259721,35.9000458 116.841585,46.3303022 120.785624,54.755174 C124.260673,62.1815842 131.272925,67.6703022 139.177954,69.7179945 C148.55776,72.146456 158.804916,69.3174816 165.698508,62.5397893 L165.698508,62.5369688 C167.907848,60.3341483 169.458906,57.7392765 170.939333,55.0174816 C171.168178,55.4631227 171.385721,55.9144047 171.614566,56.3600458 L171.628692,56.3600458 C176.595469,65.2615842 186.240848,70.8997893 196.451275,70.820815 C205.808479,70.7503022 214.665615,65.9131227 219.790605,58.1003022 C222.711906,53.655174 224.392925,48.2905586 224.401401,42.9626099" id="Fill-41" fill="#17489C" mask="url(#mask-4)"></path>
                    <path d="M110.207633,58.9805842 C106.930351,58.9805842 104.274623,61.6318663 104.274623,64.9008406 C104.274623,68.169815 106.930351,70.821097 110.207633,70.821097 C113.482089,70.821097 116.137817,68.169815 116.137817,64.9008406 C116.137817,61.6318663 113.482089,58.9805842 110.207633,58.9805842" id="Fill-42" fill="#17489C" mask="url(#mask-4)"></path>
                    <polygon id="Fill-43" fill="#17489C" mask="url(#mask-4)" points="76.9200583 0.391481649 65.5456311 0.391481649 54.0779709 27.3950714 65.4523981 27.3950714"></polygon>
                    <polygon id="Fill-44" fill="#17489C" mask="url(#mask-4)" points="66.8282913 10.997456 97.4482718 10.997456 97.4482718 0.392327803 66.8282913 0.392327803"></polygon>
                    <polygon id="Fill-45" fill="#17489C" mask="url(#mask-4)" points="28.4784466 0.391481649 17.1040194 0.391481649 5.63635922 27.3950714 17.0107864 27.3950714"></polygon>
                    <polygon id="Fill-46" fill="#17489C" mask="url(#mask-4)" points="18.3895049 10.997456 49.0066602 10.997456 49.0066602 0.392327803 18.3895049 0.392327803"></polygon>
                    <path d="M42.0266155,48.2781483 C39.8709553,55.5155842 32.5987806,60.2399432 25.1090621,59.3176355 C17.3707223,58.3643022 11.4009845,51.609174 11.4009845,43.8273791 L0.00113009709,43.8273791 C0.00113009709,54.5143022 6.63197476,64.5468663 16.5118485,68.6958406 C26.5329845,72.9068663 38.4781107,70.5884047 46.1627709,62.9137893 C46.990567,62.0873791 47.7449068,61.1876355 48.4625184,60.2568663 L42.0266155,48.2781483 Z" id="Fill-47" fill="#17489C" mask="url(#mask-4)"></path>
                    <path d="M102.285087,43.1290201 C102.025165,32.9949175 95.8576602,23.5490201 86.602165,19.3041483 C76.4086893,14.6277381 64.0962816,16.8587637 56.1573495,24.736456 C55.3267282,25.5656868 54.5723883,26.4654304 53.8547767,27.3961996 L60.2906796,39.3749175 C64.2149417,26.1918406 82.759835,24.4431227 89.1364078,36.5854304 C95.8859126,49.4385073 82.1015534,64.0515842 68.8313883,58.0410714 L68.8313883,58.055174 C63.6583689,55.7141483 61.4518544,51.0461996 58.9402136,46.3669688 C56.8043301,42.3956868 54.6288932,38.4441483 52.5382136,34.4474816 C50.1480583,29.8895329 47.828534,25.842097 43.7093301,22.5956868 C38.8668641,18.7795329 32.7445631,16.7374816 26.5770583,16.8390201 C18.4742621,16.9744047 10.4731748,20.886456 5.61093204,27.4074816 L12.0496602,39.3946611 C14.6997379,30.4479945 24.9666699,25.7546611 33.4876019,29.6131227 L33.4876019,29.5961996 C38.3046408,31.776456 40.5026796,35.9197893 42.8504563,40.2944047 C44.8196505,43.9582509 46.7860194,47.622097 48.7552136,51.2859432 L52.0353204,57.395174 C55.1713398,63.230815 60.8246505,67.5772252 67.1221165,69.5628663 L67.1221165,69.5685073 C84.5312621,75.0600458 102.756903,61.3636355 102.285087,43.1290201" id="Fill-48" fill="#17489C" mask="url(#mask-4)"></path>
                </g>
            </g>
        </g>
    </g>
</svg>