<?xml version="1.0" encoding="UTF-8"?>
<svg width="151px" height="25px" viewBox="0 0 151 25" version="1.1" xmlns="http://www.w3.org/2000/svg" xmlns:xlink="http://www.w3.org/1999/xlink">
    <!-- Generator: Sketch 50.2 (55047) - http://www.bohemiancoding.com/sketch -->
    <title>hash</title>
    <desc>Created with Sketch.</desc>
    <defs></defs>
    <g id="Page-1" stroke="none" stroke-width="1" fill="none" fill-rule="evenodd">
        <g id="G.55.com" transform="translate(-356.000000, -1722.000000)" fill="#FFFFFF" fill-rule="nonzero">
            <g id="Our-Lovely-Partners-" transform="translate(79.000000, 1548.000000)">
                <g id="Group-3" transform="translate(70.000000, 174.000000)">
                    <g id="hash" transform="translate(207.000000, 0.000000)">
                        <path d="M20.4,18.43 L20.4,7.29 C20.4,7.29 20.4,7.23 20.4,7.2 C20.4072648,6.94886818 20.2915555,6.70998451 20.09,6.56 L12.45,1 C12.1405989,0.821367205 11.7594011,0.821367205 11.45,1 L4.09,6.54 C4.03579908,6.58239598 3.98856172,6.63300744 3.95,6.69 L3.89,6.76 C3.77961594,6.89629307 3.71645129,7.06473215 3.71,7.24 L3.71,10 C3.71,10.4307821 4.0592179,10.78 4.49,10.78 C4.70031201,10.7853944 4.90388519,10.7056037 5.05451815,10.5587366 C5.20515111,10.4118694 5.29006917,10.2103812 5.29,10 L5.29,7.6 L11.94,2.6 L18.79,7.6 L18.79,18.06 L11.9,23.06 L5.26,18.06 L5.26,15.56 C5.25461072,15.1369932 4.91300684,14.7953893 4.49,14.79 C4.06699316,14.7953893 3.72538928,15.1369932 3.72,15.56 L3.72,18.34 C3.7151746,18.3965639 3.7151746,18.4534361 3.72,18.51 C3.71990131,18.751675 3.83042969,18.9801003 4.02,19.13 L11.41,24.69 C11.41,24.69 11.48,24.69 11.52,24.74 C11.5891856,24.7769262 11.6632555,24.8038607 11.74,24.82 C11.9638349,24.8755626 12.2007593,24.8318227 12.39,24.7 L20,19.17 C20.06,19.12 20.1,19.06 20.15,19.01 L20.15,18.96 C20.3036972,18.8260024 20.3943451,18.6338288 20.4,18.43 Z" id="Shape"></path>
                        <path d="M1.62,19.33 L1.62,13.66 L11.13,13.66 L11.13,19.88 C11.13,20.3218278 11.4881722,20.68 11.93,20.68 C12.3718278,20.68 12.73,20.3218278 12.73,19.88 L12.73,12.92 L12.73,12.77 L12.73,6.45 C12.73,6.0081722 12.3718278,5.65 11.93,5.65 C11.4881722,5.65 11.13,6.0081722 11.13,6.45 L11.13,12.05 L1.61,12.05 L1.61,6.54 L7.23,2.3 C7.53685436,2.05789921 7.59857179,1.61706045 7.37,1.3 L7.28,1.19 C7.16661631,1.03791986 6.99709003,0.937536141 6.80922705,0.911235325 C6.62136408,0.884934508 6.43078836,0.934903946 6.28,1.05 L0.32,5.5 C0.218687967,5.58031812 0.142372371,5.68785373 0.1,5.81 C0.03560426,5.92276478 0.00117613526,6.05014884 6.75015599e-16,6.18 L0,19.69 C0.00163876722,19.9112086 0.0959504491,20.1215962 0.26,20.27 C0.301676244,20.3335001 0.3521833,20.3907415 0.41,20.44 L6.12,24.73 C6.27078836,24.8450961 6.46136408,24.8950655 6.64922705,24.8687647 C6.83709003,24.8424639 7.00661631,24.7420801 7.12,24.59 L7.22,24.46 C7.33509605,24.3092116 7.38506549,24.1186359 7.35876468,23.9307729 C7.33246386,23.74291 7.23208014,23.5733837 7.08,23.46 L1.62,19.33 Z" id="Shape"></path>
                        <path d="M38.23,5.24 L37.91,5.17 C37.7502215,5.158095 37.5897785,5.158095 37.43,5.17 C37.2635553,5.15783611 37.0964447,5.15783611 36.93,5.17 L36.63,5.24 C36.5615472,5.25994418 36.5017157,5.30217817 36.46,5.36 C36.427385,5.40697581 36.4099362,5.46281205 36.41,5.52 L36.41,11.67 L29.41,11.67 L29.41,5.52 C29.4100638,5.46281205 29.392615,5.40697581 29.36,5.36 C29.3182843,5.30217817 29.2584528,5.25994418 29.19,5.24 L28.88,5.17 C28.7168951,5.15778273 28.5531049,5.15778273 28.39,5.17 C28.2268696,5.15848667 28.0631304,5.15848667 27.9,5.17 L27.58,5.24 C27.5145108,5.2605214 27.4580375,5.30287638 27.42,5.36 C27.3828714,5.40464497 27.3648985,5.46215811 27.37,5.52 L27.37,20.25 C27.3653513,20.3108708 27.383136,20.3713388 27.42,20.42 C27.4591096,20.4739621 27.5156116,20.5128072 27.58,20.53 C27.6842126,20.5634019 27.7913594,20.5868403 27.9,20.6 C28.0631304,20.6115133 28.2268696,20.6115133 28.39,20.6 C28.5531049,20.6122173 28.7168951,20.6122173 28.88,20.6 C28.9855995,20.5881758 29.0895659,20.5646995 29.19,20.53 C29.2570794,20.5127008 29.3167336,20.474101 29.36,20.42 C29.3928524,20.3694053 29.4102291,20.3103245 29.41,20.25 L29.41,13.44 L36.41,13.44 L36.41,20.25 C36.4097709,20.3103245 36.4271476,20.3694053 36.46,20.42 C36.5032664,20.474101 36.5629206,20.5127008 36.63,20.53 C36.7272927,20.5637055 36.8278373,20.5871659 36.93,20.6 C37.0964447,20.6121639 37.2635553,20.6121639 37.43,20.6 C37.5897785,20.611905 37.7502215,20.611905 37.91,20.6 C38.0186406,20.5868403 38.1257874,20.5634019 38.23,20.53 C38.2943884,20.5128072 38.3508904,20.4739621 38.39,20.42 C38.4098582,20.3650731 38.4098582,20.3049269 38.39,20.25 L38.39,5.52 C38.4100813,5.46855694 38.4100813,5.41144306 38.39,5.36 C38.3519625,5.30287638 38.2954892,5.2605214 38.23,5.24 Z" id="Shape"></path>
                        <path d="M49.6,10.08 C49.2311521,9.72454476 48.7816579,9.4637695 48.29,9.32 C47.6580522,9.12976956 46.999713,9.04199101 46.34,9.06 C45.9309238,9.06145199 45.5227384,9.0982556 45.12,9.17 C44.7404107,9.23623876 44.366103,9.32981569 44,9.45 C43.6924201,9.55790639 43.3918411,9.6848175 43.1,9.83 C42.9006893,9.92774018 42.7156488,10.0522219 42.55,10.2 C42.4536106,10.2849287 42.3841023,10.3961419 42.35,10.52 C42.3315277,10.6761222 42.3315277,10.8338778 42.35,10.99 C42.3394233,11.0997458 42.3394233,11.2102542 42.35,11.32 C42.3583528,11.4049825 42.3856927,11.4870024 42.43,11.56 C42.4558848,11.6171209 42.49751,11.6656835 42.55,11.7 C42.6055596,11.7158412 42.6644404,11.7158412 42.72,11.7 C42.8741847,11.675989 43.0210794,11.6179144 43.15,11.53 C43.34,11.41 43.59,11.29 43.87,11.15 C44.1923081,10.9960302 44.5267774,10.8689319 44.87,10.77 C45.2922877,10.6481324 45.7305751,10.5908178 46.17,10.6 C46.5562896,10.5889211 46.9416847,10.6430117 47.31,10.76 C47.5973145,10.8472563 47.8561931,11.0094869 48.06,11.23 C48.2635543,11.4542831 48.4079163,11.7258211 48.48,12.02 C48.5732193,12.3756326 48.6169645,12.7424189 48.61,13.11 L48.61,14 L47.13,14 C46.3775212,13.9908829 45.6263268,14.0646609 44.89,14.22 C44.2967173,14.3434496 43.7286645,14.5666132 43.21,14.88 C42.767691,15.1577507 42.4030014,15.5430832 42.15,16 C41.8966949,16.4839263 41.7694424,17.0238895 41.78,17.57 C41.7718622,18.0406435 41.8638975,18.5076375 42.05,18.94 C42.2254289,19.3232404 42.4812093,19.664281 42.8,19.94 C43.140053,20.2286498 43.5344776,20.4462635 43.96,20.58 C44.4528551,20.7287478 44.9651955,20.8029024 45.48,20.8 C46.1111045,20.8037185 46.7343445,20.6598939 47.3,20.38 C47.8893087,20.096507 48.4188522,19.7027439 48.86,19.22 L48.86,20.29 C48.8559892,20.3701373 48.8892035,20.4476373 48.95,20.5 C49.026284,20.5575212 49.1155963,20.5953072 49.21,20.61 C49.3764326,20.6224926 49.5435674,20.6224926 49.71,20.61 C49.8697213,20.6233566 50.0302787,20.6233566 50.19,20.61 C50.2832379,20.5913717 50.3717034,20.553944 50.45,20.5 C50.5172925,20.451908 50.5550797,20.3725549 50.55,20.29 L50.55,13.09 C50.5587217,12.4985927 50.4812414,11.9090692 50.32,11.34 C50.1867318,10.867406 49.9394987,10.434748 49.6,10.08 Z M48.6,17.67 C48.2012243,18.1325732 47.7361866,18.533584 47.22,18.86 C46.7909671,19.1263722 46.2949725,19.2651119 45.79,19.26 C45.2535402,19.2914484 44.7260275,19.1120223 44.32,18.76 C43.9565893,18.4201872 43.7624911,17.9367729 43.79,17.44 C43.7855109,17.1435348 43.8469944,16.8497803 43.97,16.58 C44.1042534,16.3197653 44.3041945,16.0991406 44.55,15.94 C44.8546542,15.7438817 45.1941343,15.6080897 45.55,15.54 C46.0100654,15.4417806 46.4795954,15.3948276 46.95,15.4 L48.6,15.4 L48.6,17.67 Z" id="Shape"></path>
                        <path d="M60.6,15.32 C60.3412162,15.0754297 60.0481283,14.8699314 59.73,14.71 C59.4033333,14.55 59.07,14.4 58.73,14.26 L57.73,13.87 C57.4290993,13.7571025 57.1408584,13.6129821 56.87,13.44 C56.6304981,13.297406 56.420133,13.1107917 56.25,12.89 C56.0850195,12.6679641 56.0003926,12.3964529 56.01,12.12 C56.011579,11.9067347 56.0557785,11.6959371 56.14,11.5 C56.2240597,11.3104154 56.3506674,11.1427459 56.51,11.01 C56.6902389,10.8584651 56.9020698,10.749133 57.13,10.69 C57.4159588,10.6084328 57.7127619,10.5713324 58.01,10.58 C58.3479833,10.5726278 58.6851356,10.6164576 59.01,10.71 C59.2659155,10.7826335 59.5165112,10.8728479 59.76,10.98 C59.9380798,11.0642365 60.1116485,11.1576966 60.28,11.26 C60.3701467,11.3297659 60.4770553,11.3745985 60.59,11.39 C60.6321243,11.4044763 60.6778757,11.4044763 60.72,11.39 C60.7634423,11.3554762 60.7977744,11.3108444 60.82,11.26 C60.8528635,11.1802889 60.8731063,11.0959439 60.88,11.01 C60.8861539,10.8934145 60.8861539,10.7765855 60.88,10.66 C60.8859305,10.5534158 60.8859305,10.4465842 60.88,10.34 C60.88,10.26 60.88,10.18 60.88,10.12 L60.82,9.96 C60.7705201,9.89951226 60.7133728,9.84572655 60.65,9.8 C60.5354476,9.71281499 60.4113093,9.63900304 60.28,9.58 C60.0946736,9.48450613 59.9004054,9.40746875 59.7,9.35 C59.4470714,9.27500445 59.1899636,9.21490134 58.93,9.17 C58.645886,9.12192918 58.3581482,9.09850867 58.07,9.1 C57.4924368,9.08576901 56.9169077,9.1737911 56.37,9.36 C55.9220549,9.50784937 55.5075332,9.74229193 55.15,10.05 C54.8397066,10.3266225 54.593922,10.6679901 54.43,11.05 C54.2621174,11.4276182 54.1768803,11.8367563 54.18,12.25 C54.1484443,13.037634 54.4539535,13.8014069 55.02,14.35 C55.2760314,14.596144 55.5655602,14.8048741 55.88,14.97 C56.2035116,15.143842 56.537485,15.2974697 56.88,15.43 L57.88,15.82 C58.1764734,15.9316662 58.4611895,16.0723494 58.73,16.24 C58.963719,16.3824402 59.1702637,16.5652831 59.34,16.78 C59.4959273,17.0022385 59.5765352,17.2685952 59.57,17.54 C59.5782871,17.80249 59.5234152,18.0631316 59.41,18.3 C59.3055415,18.5107703 59.1510382,18.6927408 58.96,18.83 C58.7436366,18.974706 58.5032087,19.0796816 58.25,19.14 C57.9561238,19.2159858 57.6535263,19.2529699 57.35,19.25 C56.9540547,19.2577973 56.5593144,19.2038157 56.18,19.09 C55.8775566,18.9976867 55.5832287,18.8806244 55.3,18.74 C55.05,18.61 54.84,18.5 54.67,18.39 C54.5563997,18.3031809 54.4218428,18.2479781 54.28,18.23 C54.2309305,18.2163579 54.1790695,18.2163579 54.13,18.23 C54.0845114,18.2666629 54.049928,18.3150796 54.03,18.37 C54.0042267,18.4518411 53.9841783,18.5353761 53.97,18.62 C53.963646,18.746587 53.963646,18.873413 53.97,19 C53.9646438,19.1951218 53.9848146,19.3901067 54.03,19.58 C54.0600837,19.7060611 54.126083,19.8206914 54.22,19.91 C54.3454158,20.016021 54.4830596,20.1066644 54.63,20.18 C54.8556981,20.2913921 55.0897413,20.3850094 55.33,20.46 C55.6306575,20.5589647 55.9381423,20.6358359 56.25,20.69 C56.6101058,20.7509988 56.9747661,20.7811084 57.34,20.78 C57.9008966,20.7846205 58.4596703,20.7105662 59,20.56 C59.4818664,20.4281408 59.9335543,20.2039949 60.33,19.9 C60.694204,19.6092215 60.9881596,19.240068 61.19,18.82 C61.3958097,18.3612068 61.4982275,17.8627734 61.49,17.36 C61.5038106,16.9510834 61.4251924,16.5443194 61.26,16.17 C61.1016855,15.8437395 60.8768706,15.5542052 60.6,15.32 Z" id="Shape"></path>
                        <path d="M73.14,10.39 C72.8300577,9.96532005 72.4217128,9.62217309 71.95,9.39 C71.3890664,9.13360626 70.7764414,9.01039677 70.16,9.03 C69.5604892,9.03340395 68.970582,9.18088076 68.44,9.46 C67.8025635,9.80038898 67.2276927,10.2467592 66.74,10.78 L66.74,4.42 C66.7548464,4.36430576 66.7548464,4.30569424 66.74,4.25 C66.6943668,4.20323064 66.6400087,4.16585947 66.58,4.14 C66.4883775,4.09760232 66.3904013,4.0705744 66.29,4.06 L65.8,4.06 L65.32,4.06 C65.2166688,4.07207822 65.1156249,4.09902326 65.02,4.14 C64.9614487,4.16329506 64.9098171,4.20115823 64.87,4.25 C64.8551536,4.30569424 64.8551536,4.36430576 64.87,4.42 L64.87,20.26 C64.8524725,20.3118933 64.8524725,20.3681067 64.87,20.42 C64.9088978,20.4721862 64.9605481,20.5135064 65.02,20.54 C65.1176297,20.5725265 65.2180569,20.5959595 65.32,20.61 L65.8,20.61 L66.29,20.61 C66.3889266,20.5972926 66.4861696,20.5738201 66.58,20.54 C66.6405957,20.5107299 66.6949339,20.4699762 66.74,20.42 C66.7575275,20.3681067 66.7575275,20.3118933 66.74,20.26 L66.74,12.8 C67.1835512,12.220885 67.7051736,11.7059931 68.29,11.27 C68.7140072,10.9480268 69.2278492,10.7662596 69.76,10.75 C70.1061481,10.7421258 70.4491169,10.817579 70.76,10.97 C71.044841,11.1053186 71.2869982,11.3163413 71.46,11.58 C71.6595943,11.8850468 71.8019199,12.2239172 71.88,12.58 C71.9716834,13.0475382 72.0119229,13.5237063 72,14 L72,20.25 C71.9824725,20.3018933 71.9824725,20.3581067 72,20.41 C72.0388978,20.4621862 72.0905481,20.5035064 72.15,20.53 C72.246951,20.5648748 72.3476262,20.5883657 72.45,20.6 L72.93,20.6 L73.41,20.6 C73.5121627,20.5871659 73.6127073,20.5637055 73.71,20.53 C73.7694519,20.5035064 73.8211022,20.4621862 73.86,20.41 C73.8775275,20.3581067 73.8775275,20.3018933 73.86,20.25 L73.86,13.77 C73.8722926,13.0977849 73.8051611,12.4264698 73.66,11.77 C73.5784455,11.2804568 73.4017861,10.8116298 73.14,10.39 Z" id="Shape"></path>
                        <path d="M94,17.66 C93.9876593,17.6040921 93.9557386,17.5544377 93.91,17.52 C93.8606629,17.5084857 93.8093371,17.5084857 93.76,17.52 C93.5819409,17.5448574 93.4150669,17.6213413 93.28,17.74 C93.07,17.89 92.81,18.06 92.48,18.25 C92.1098901,18.4527188 91.721508,18.6201249 91.32,18.75 C90.798682,18.9104729 90.2553977,18.988085 89.71,18.98 C89.0428132,18.9910078 88.3811009,18.8579832 87.77,18.59 C87.1990734,18.3370124 86.7005808,17.9450941 86.32,17.45 C85.9011333,16.8898265 85.5923406,16.2552744 85.41,15.58 C85.20032,14.7366377 85.1061262,13.8687093 85.13,13 C85.1171108,12.1188323 85.2281984,11.2402298 85.46,10.39 C85.6396121,9.69038831 85.9519372,9.03178974 86.38,8.45 C86.7586685,7.93950938 87.2519032,7.52505526 87.82,7.24 C88.4007693,6.96371095 89.0368933,6.82349006 89.68,6.83 C90.2257223,6.7949322 90.7734455,6.85240932 91.3,7 C91.6980081,7.12648808 92.0804374,7.29757489 92.44,7.51 C92.7074367,7.65946297 92.9646678,7.8264961 93.21,8.01 C93.3388001,8.13567664 93.5026725,8.21935618 93.68,8.25 C93.7387252,8.24941382 93.7953696,8.22817218 93.84,8.19 C93.8889485,8.14624336 93.926673,8.09137144 93.95,8.03 C93.9867502,7.94054263 94.0103291,7.84622721 94.02,7.75 C94.0314661,7.61691317 94.0314661,7.48308683 94.02,7.35 C94.0190691,7.2330762 94.0123944,7.11626874 94,7 C94.0074211,6.91015298 94.0074211,6.81984702 94,6.73 C93.9857823,6.66211685 93.9586208,6.59760817 93.92,6.54 C93.8630411,6.44934368 93.795942,6.36546981 93.72,6.29 C93.5392072,6.13640463 93.3451088,5.99919717 93.14,5.88 C92.8207411,5.7032276 92.4860205,5.55595055 92.14,5.44 C91.7671798,5.31703119 91.3862614,5.2201309 91,5.15 C89.653882,4.90607131 88.2660933,5.05178912 87,5.57 C86.1810359,5.93119729 85.4532601,6.47104981 84.87,7.15 C84.2506987,7.89988191 83.7821117,8.76235365 83.49,9.69 C83.1458143,10.7898186 82.9803772,11.9377501 83,13.09 C82.9799661,14.203997 83.1351945,15.3142177 83.46,16.38 C83.7251167,17.2602884 84.1675202,18.0770332 84.76,18.78 C85.3049719,19.4170449 85.9893201,19.9200408 86.76,20.25 C87.6181638,20.5932859 88.5358163,20.7632215 89.46,20.75 C89.9976016,20.7558294 90.5341983,20.7021697 91.06,20.59 C91.4991425,20.4924221 91.9303511,20.3620568 92.35,20.2 C92.6772018,20.0687503 92.9918241,19.9080921 93.29,19.72 C93.4669252,19.6149313 93.6342399,19.4944647 93.79,19.36 C93.8536026,19.3022407 93.907611,19.2347302 93.95,19.16 C93.9886208,19.1023918 94.0157823,19.0378831 94.03,18.97 C94.0420356,18.8871012 94.0420356,18.8028988 94.03,18.72 C94.0362207,18.6100879 94.0362207,18.4999121 94.03,18.39 C94.03,18.21 94.03,18.06 94.03,17.94 C94.034754,17.8456707 94.0246301,17.751181 94,17.66 Z" id="Shape"></path>
                        <path d="M104.86,10.08 C104.494971,9.72464908 104.048724,9.46376609 103.56,9.32 C102.911805,9.12563131 102.236346,9.03782163 101.56,9.06 C101.150924,9.06145199 100.742738,9.0982556 100.34,9.17 C99.9639082,9.23726466 99.5929979,9.33082761 99.23,9.45 C98.9192126,9.55802052 98.6153134,9.68492348 98.32,9.83 C98.1206893,9.92774018 97.9356488,10.0522219 97.77,10.2 C97.6767995,10.2875905 97.6078924,10.3978419 97.57,10.52 C97.5515277,10.6761222 97.5515277,10.8338778 97.57,10.99 C97.5644118,11.099929 97.5644118,11.210071 97.57,11.32 C97.5828846,11.4039528 97.609936,11.485107 97.65,11.56 C97.6825566,11.6156247 97.726936,11.6634179 97.78,11.7 C97.8321981,11.7155625 97.8878019,11.7155625 97.94,11.7 C98.0946459,11.6777041 98.2419157,11.6194812 98.37,11.53 C98.57,11.41 98.81,11.29 99.1,11.15 C99.4216025,10.9943872 99.7562139,10.8672349 100.1,10.77 C100.518855,10.6480743 100.953858,10.5907485 101.39,10.6 C101.77629,10.5889211 102.161685,10.6430117 102.53,10.76 C102.819176,10.8494949 103.080752,11.0112588 103.29,11.23 C103.489948,11.4567995 103.633813,11.7274035 103.71,12.02 C103.798052,12.3765941 103.841716,12.7426997 103.84,13.11 L103.84,14 L102.4,14 C101.644213,13.9908768 100.889705,14.0646509 100.15,14.22 C99.5567173,14.3434496 98.9886645,14.5666132 98.47,14.88 C98.0496588,15.1569624 97.7057673,15.535243 97.47,15.98 C97.2120601,16.4621866 97.0845185,17.0033765 97.1,17.55 C97.0936231,18.0195073 97.1820547,18.4854736 97.36,18.92 C97.5354289,19.3032404 97.7912093,19.644281 98.11,19.92 C98.450053,20.2086498 98.8444776,20.4262635 99.27,20.56 C99.7662881,20.7087103 100.281918,20.7828532 100.8,20.78 C101.43082,20.781178 102.053487,20.6374857 102.62,20.36 C103.206125,20.0712695 103.734753,19.6781869 104.18,19.2 L104.18,20.27 C104.17193,20.3487159 104.201602,20.4266052 104.26,20.48 C104.340161,20.5372736 104.432637,20.574949 104.53,20.59 C104.693077,20.6029288 104.856923,20.6029288 105.02,20.59 C105.179721,20.6033566 105.340279,20.6033566 105.5,20.59 C105.596255,20.5711014 105.687942,20.5337475 105.77,20.48 C105.830797,20.4276373 105.864011,20.3501373 105.86,20.27 L105.86,13.07 C105.871691,12.4790965 105.797586,11.8896229 105.64,11.32 C105.486462,10.8485619 105.218473,10.4225275 104.86,10.08 Z M103.86,17.67 C103.455572,18.1307069 102.98753,18.5314047 102.47,18.86 C102.044522,19.1260764 101.551801,19.2648709 101.05,19.26 C100.510298,19.2930281 99.9790955,19.1135678 99.57,18.76 C99.211148,18.417084 99.0179301,17.935862 99.04,17.44 C99.0327796,17.1421792 99.0979806,16.8470586 99.23,16.58 C99.3603124,16.3201851 99.5569455,16.099404 99.8,15.94 C100.104424,15.7434354 100.443993,15.6076076 100.8,15.54 C101.256672,15.4416997 101.722898,15.3947416 102.19,15.4 L103.87,15.4 L103.86,17.67 Z" id="Shape"></path>
                        <path d="M117.58,10.74 C117.244164,10.2272024 116.787432,9.80481187 116.25,9.51 C115.632496,9.19223141 114.9441,9.0373423 114.25,9.06 C113.913054,9.05964614 113.577296,9.09993715 113.25,9.18 C112.927516,9.26929035 112.615686,9.39335154 112.32,9.55 C111.997359,9.72293626 111.692551,9.92725762 111.41,10.16 C111.081402,10.4330595 110.767622,10.723473 110.47,11.03 L110.47,9.59 C110.486982,9.53460565 110.486982,9.47539435 110.47,9.42 C110.430183,9.37115823 110.378551,9.33329506 110.32,9.31 C110.239064,9.26904817 110.150556,9.24521903 110.06,9.24 L109.65,9.24 L109.24,9.24 C109.146086,9.24413364 109.054093,9.26798373 108.97,9.31 C108.912238,9.32978283 108.862887,9.36855882 108.83,9.42 C108.813018,9.47539435 108.813018,9.53460565 108.83,9.59 L108.83,24.5 C108.818645,24.5527289 108.818645,24.6072711 108.83,24.66 C108.868038,24.7171236 108.924511,24.7594786 108.99,24.78 C109.085784,24.8186887 109.186985,24.8423021 109.29,24.85 C109.446452,24.8615934 109.603548,24.8615934 109.76,24.85 C109.923105,24.8622173 110.086895,24.8622173 110.25,24.85 C110.353015,24.8423021 110.454216,24.8186887 110.55,24.78 C110.611445,24.7568912 110.663967,24.7148732 110.7,24.66 C110.715562,24.6078019 110.715562,24.5521981 110.7,24.5 L110.7,19.16 C110.954239,19.4171651 111.224801,19.6576643 111.51,19.88 C111.742382,20.0793143 111.99748,20.2504989 112.27,20.39 C112.518137,20.5261723 112.784022,20.6271412 113.06,20.69 C113.348727,20.755805 113.643869,20.7893439 113.94,20.79 C114.630838,20.8021105 115.315186,20.6549756 115.94,20.36 C116.509396,20.0816433 117.005915,19.6741552 117.39,19.17 C117.804262,18.602392 118.106337,17.9609062 118.28,17.28 C118.658679,15.7317015 118.6792,14.1174241 118.34,12.56 C118.20462,11.910551 117.946683,11.2928607 117.58,10.74 Z M116.39,16.47 C116.29381,16.9338327 116.132195,17.3816427 115.91,17.8 C115.70673,18.1968422 115.411944,18.539617 115.05,18.8 C114.669847,19.0379984 114.228404,19.159656 113.78,19.15 C113.227113,19.1471187 112.69014,18.9646181 112.25,18.63 C111.673102,18.1958751 111.155389,17.6882468 110.71,17.12 L110.71,12.83 C110.980782,12.4774785 111.274767,12.1434042 111.59,11.83 C111.837538,11.5937974 112.105221,11.3796515 112.39,11.19 C112.62542,11.0417316 112.877063,10.9209429 113.14,10.83 C113.383805,10.7592616 113.63615,10.722251 113.89,10.72 C114.343826,10.7031037 114.791516,10.8290165 115.17,11.08 C115.520868,11.3204494 115.803394,11.6477668 115.99,12.03 C116.204351,12.4542132 116.349516,12.9099626 116.42,13.38 C116.501226,13.90608 116.541347,14.4376881 116.54,14.97 C116.540983,15.4737923 116.490725,15.9763785 116.39,16.47 Z" id="Shape"></path>
                        <path d="M122.74,4.82 C122.387418,4.77990296 122.032232,4.86869938 121.74,5.07 C121.536512,5.33865288 121.44349,5.67496461 121.48,6.01 C121.442441,6.33891479 121.535838,6.66939759 121.74,6.93 C122.013959,7.12113165 122.347946,7.20640503 122.68,7.17 C123.033168,7.22002429 123.391922,7.13033589 123.68,6.92 C123.887744,6.65734325 123.981408,6.32231225 123.94,5.99 C123.9793,5.6625042 123.889643,5.3325656 123.69,5.07 C123.414317,4.87381685 123.07654,4.78492824 122.74,4.82 Z" id="Shape"></path>
                        <path d="M123.51,9.32 C123.414216,9.28131135 123.313015,9.25769789 123.21,9.25 C123.046895,9.23778273 122.883105,9.23778273 122.72,9.25 C122.563574,9.23770889 122.406426,9.23770889 122.25,9.25 C122.146985,9.25769789 122.045784,9.28131135 121.95,9.32 C121.884511,9.3405214 121.828038,9.38287638 121.79,9.44 C121.779759,9.48947556 121.779759,9.54052444 121.79,9.59 L121.79,20.26 C121.777272,20.312574 121.777272,20.367426 121.79,20.42 C121.830526,20.474711 121.88613,20.5164139 121.95,20.54 C122.046951,20.5748748 122.147626,20.5983657 122.25,20.61 L122.72,20.61 L123.21,20.61 C123.312163,20.5971659 123.412707,20.5737055 123.51,20.54 C123.569452,20.5135064 123.621102,20.4721862 123.66,20.42 C123.677527,20.3681067 123.677527,20.3118933 123.66,20.26 L123.66,9.59 C123.674168,9.54100361 123.674168,9.48899639 123.66,9.44 C123.623967,9.38512678 123.571445,9.34310883 123.51,9.32 Z" id="Shape"></path>
                        <path d="M133.46,10.91 C133.581173,10.9029788 133.68871,10.8300067 133.74,10.72 C133.825393,10.5250045 133.863101,10.3124702 133.85,10.1 C133.862061,9.97362042 133.862061,9.84637958 133.85,9.72 C133.841377,9.6332311 133.817689,9.54863057 133.78,9.47 C133.750329,9.4096248 133.705545,9.35795115 133.65,9.32 C133.597159,9.30974742 133.542841,9.30974742 133.49,9.32 L130.75,9.32 L130.75,6.74 C130.743189,6.61500033 130.659477,6.50737012 130.54,6.47 C130.450045,6.42321078 130.351221,6.39594914 130.25,6.39 C130.08687,6.37848667 129.92313,6.37848667 129.76,6.39 C129.603548,6.37840658 129.446452,6.37840658 129.29,6.39 C129.185372,6.39453137 129.082992,6.42183274 128.99,6.47 C128.924511,6.4905214 128.868038,6.53287638 128.83,6.59 C128.816358,6.63906946 128.816358,6.69093054 128.83,6.74 L128.83,9.28 L127.35,9.28 C127.290439,9.26973679 127.229561,9.26973679 127.17,9.28 C127.115127,9.31603303 127.073109,9.36855547 127.05,9.43 C127.012981,9.50965897 126.986104,9.59364842 126.97,9.68 C126.957939,9.80637958 126.957939,9.93362042 126.97,10.06 C126.956899,10.2724702 126.994607,10.4850045 127.08,10.68 C127.134689,10.7915637 127.245879,10.8644119 127.37,10.87 L128.86,10.87 L128.86,17.1 C128.852826,17.6414998 128.909891,18.18194 129.03,18.71 C129.126647,19.1230132 129.314581,19.5091325 129.58,19.84 C129.850101,20.1434096 130.194833,20.3709324 130.58,20.5 C131.036173,20.6584482 131.517267,20.7329839 132,20.72 C132.179863,20.7299462 132.360137,20.7299462 132.54,20.72 L133.06,20.63 C133.207818,20.5984364 133.351934,20.551515 133.49,20.49 C133.59849,20.4515602 133.697407,20.390163 133.78,20.31 C133.85222,20.2278965 133.900631,20.1276178 133.92,20.02 C133.939149,19.8371667 133.939149,19.6528333 133.92,19.47 C133.932113,19.3536478 133.932113,19.2363522 133.92,19.12 C133.928846,19.0435885 133.928846,18.9664115 133.92,18.89 C133.907003,18.8451132 133.878699,18.8061946 133.84,18.78 C133.800506,18.7709986 133.759494,18.7709986 133.72,18.78 C133.647025,18.7797733 133.575043,18.7969118 133.51,18.83 L133.23,18.94 L132.85,19.06 C132.688751,19.0930173 132.524595,19.1097679 132.36,19.11 C131.896086,19.1561209 131.445056,18.9402432 131.19,18.55 C130.947678,18.0281011 130.837768,17.4545079 130.87,16.88 L130.87,10.88 L133.46,10.91 Z" id="Shape"></path>
                        <path d="M144.6,10.08 C144.234971,9.72464908 143.788724,9.46376609 143.3,9.32 C142.651805,9.12563131 141.976346,9.03782163 141.3,9.06 C140.890924,9.06145199 140.482738,9.0982556 140.08,9.17 C139.703908,9.23726466 139.332998,9.33082761 138.97,9.45 C138.66242,9.55790639 138.361841,9.6848175 138.07,9.83 C137.866385,9.92553655 137.677745,10.0501739 137.51,10.2 C137.416799,10.2875905 137.347892,10.3978419 137.31,10.52 C137.291528,10.6761222 137.291528,10.8338778 137.31,10.99 C137.304412,11.099929 137.304412,11.210071 137.31,11.32 C137.327517,11.4027646 137.354355,11.4832781 137.39,11.56 C137.422557,11.6156247 137.466936,11.6634179 137.52,11.7 C137.572198,11.7155625 137.627802,11.7155625 137.68,11.7 C137.834646,11.6777041 137.981916,11.6194812 138.11,11.53 C138.31,11.41 138.55,11.29 138.84,11.15 C139.161603,10.9943872 139.496214,10.8672349 139.84,10.77 C140.258855,10.6480743 140.693858,10.5907485 141.13,10.6 C141.516332,10.5881477 141.901857,10.6422565 142.27,10.76 C142.559176,10.8494949 142.820752,11.0112588 143.03,11.23 C143.229948,11.4567995 143.373813,11.7274035 143.45,12.02 C143.538052,12.3765941 143.581716,12.7426997 143.58,13.11 L143.58,14 L142.11,14 C141.357497,13.9903109 140.60624,14.0640951 139.87,14.22 C139.273088,14.3418009 138.701475,14.5650343 138.18,14.88 C137.741335,15.1504021 137.379718,15.5292395 137.13,15.98 C136.87206,16.4621866 136.744519,17.0033765 136.76,17.55 C136.751862,18.0206435 136.843897,18.4876375 137.03,18.92 C137.198261,19.3047787 137.451215,19.6466085 137.77,19.92 C138.11238,20.2107353 138.510509,20.4285149 138.94,20.56 C139.43269,20.7094901 139.945143,20.783661 140.46,20.78 C141.090982,20.7826185 141.713973,20.6388514 142.28,20.36 C142.866125,20.0712695 143.394753,19.6781869 143.84,19.2 L143.84,20.27 C143.837359,20.347907 143.866193,20.4235969 143.92,20.48 C144.001138,20.5354791 144.093192,20.5729829 144.19,20.59 C144.353092,20.602563 144.516908,20.602563 144.68,20.59 C144.84306,20.6033612 145.00694,20.6033612 145.17,20.59 C145.262636,20.5694531 145.350746,20.532176 145.43,20.48 C145.490797,20.4276373 145.524011,20.3501373 145.52,20.27 L145.52,13.07 C145.531691,12.4790965 145.457586,11.8896229 145.3,11.32 C145.169563,10.8564787 144.929467,10.4311656 144.6,10.08 Z M143.6,17.67 C143.201224,18.1325732 142.736187,18.533584 142.22,18.86 C141.790303,19.1248592 141.294755,19.2634741 140.79,19.26 C140.250583,19.2909017 139.720158,19.1117041 139.31,18.76 C138.951148,18.417084 138.75793,17.935862 138.78,17.44 C138.77278,17.1421792 138.837981,16.8470586 138.97,16.58 C139.100312,16.3201851 139.296946,16.099404 139.54,15.94 C139.844424,15.7434354 140.183993,15.6076076 140.54,15.54 C140.999975,15.4412058 141.46957,15.3942463 141.94,15.4 L143.61,15.4 L143.6,17.67 Z" id="Shape"></path>
                        <path d="M150.4,4.25 C150.360183,4.20115823 150.308551,4.16329506 150.25,4.14 C150.155254,4.09652995 150.05381,4.06947813 149.95,4.06 L149.47,4.06 L148.99,4.06 C148.886445,4.07088518 148.785225,4.09787711 148.69,4.14 C148.628549,4.15774235 148.575393,4.19672387 148.54,4.25 C148.525605,4.30575245 148.525605,4.36424755 148.54,4.42 L148.54,20.26 C148.522473,20.3118933 148.522473,20.3681067 148.54,20.42 C148.54,20.42 148.61,20.5 148.69,20.54 C148.787293,20.5737055 148.887837,20.5971659 148.99,20.61 L149.47,20.61 L149.95,20.61 C150.052374,20.5983657 150.153049,20.5748748 150.25,20.54 C150.309452,20.5135064 150.361102,20.4721862 150.4,20.42 C150.417527,20.3681067 150.417527,20.3118933 150.4,20.26 L150.4,4.42 C150.414395,4.36424755 150.414395,4.30575245 150.4,4.25 Z" id="Shape"></path>
                    </g>
                </g>
            </g>
        </g>
    </g>
</svg>