<svg id="图层_1" data-name="图层 1" xmlns="http://www.w3.org/2000/svg" xmlns:xlink="http://www.w3.org/1999/xlink" viewBox="0 0 155.5 77.75"><defs><style>.cls-1{fill:none;}.cls-2{fill:#5a6cb1;}.cls-3{clip-path:url(#clip-path);}</style><clipPath id="clip-path"><path class="cls-1" d="M185.51,35.51a.42.42,0,0,0-.43.43v5.79a.42.42,0,0,0,.43.43h2.11a3.36,3.36,0,1,0,0-6.71h-2.11Zm1.35,8.33h-.92v.81a.28.28,0,0,1-.27.27h-.54a.28.28,0,0,1-.27-.27v-.81h-1a.43.43,0,0,1-.43-.43V34.26a.43.43,0,0,1,.43-.43h1V33a.29.29,0,0,1,.27-.27h.6A.29.29,0,0,1,186,33v.81h1V33a.29.29,0,0,1,.27-.27h.6a.29.29,0,0,1,.27.27v.81a5,5,0,0,1,0,10.07v.81a.29.29,0,0,1-.27.27h-.6a.29.29,0,0,1-.27-.27V43.9h-.11Z"/></clipPath></defs><title>logo_new_0911</title><path class="cls-2" d="M20.4,44.43V33.29s0-.06,0-.09a.77.77,0,0,0-.31-.64L12.45,27a1,1,0,0,0-1,0L4.09,32.54a.66.66,0,0,0-.14.15l-.06.07,0,0a.81.81,0,0,0-.18.48V36a.78.78,0,0,0,.78.78h0A.78.78,0,0,0,5.29,36v-2.4l6.65-5,6.85,5V44.06l-6.89,5-6.64-5V41.56a.78.78,0,0,0-.77-.77h0a.78.78,0,0,0-.77.77v2.78a1,1,0,0,0,0,.17.79.79,0,0,0,.3.62l7.39,5.56s.07,0,.11.05h0a.83.83,0,0,0,.22.08.8.8,0,0,0,.65-.12L20,45.17c.06-.05.1-.11.15-.16l0,0,0-.05A.73.73,0,0,0,20.4,44.43Z"/><path class="cls-2" d="M1.62,45.33V39.66h9.51v6.22a.8.8,0,0,0,1.6,0V38.92h0v-.15h0V32.45a.8.8,0,0,0-1.6,0v5.6H1.61V32.54L7.23,28.3a.73.73,0,0,0,.14-1l-.09-.11a.71.71,0,0,0-1-.14L.32,31.5a.68.68,0,0,0-.22.31.76.76,0,0,0-.1.37L0,45.69a.79.79,0,0,0,.26.58.8.8,0,0,0,.15.17l5.71,4.29a.71.71,0,0,0,1-.14l.1-.13a.71.71,0,0,0-.14-1Z"/><path class="cls-2" d="M38.23,31.24l-.32-.07a3.23,3.23,0,0,0-.48,0,3.43,3.43,0,0,0-.5,0l-.3.07a.32.32,0,0,0-.17.12.28.28,0,0,0-.05.16v6.15h-7V31.52a.28.28,0,0,0-.05-.16.32.32,0,0,0-.17-.12l-.31-.07a3.28,3.28,0,0,0-.49,0,3.48,3.48,0,0,0-.49,0l-.32.07a.3.3,0,0,0-.16.12.22.22,0,0,0-.05.16V46.25a.25.25,0,0,0,.05.17.29.29,0,0,0,.16.11,1.73,1.73,0,0,0,.32.07,3.48,3.48,0,0,0,.49,0,3.28,3.28,0,0,0,.49,0,1.44,1.44,0,0,0,.31-.07.32.32,0,0,0,.17-.11.31.31,0,0,0,.05-.17V39.44h7v6.81a.31.31,0,0,0,.05.17.32.32,0,0,0,.17.11,1.48,1.48,0,0,0,.3.07,3.43,3.43,0,0,0,.5,0,3.23,3.23,0,0,0,.48,0,1.73,1.73,0,0,0,.32-.07.29.29,0,0,0,.16-.11.25.25,0,0,0,0-.17V31.52a.22.22,0,0,0,0-.16A.3.3,0,0,0,38.23,31.24Z"/><path class="cls-2" d="M48.5,36.08a3.13,3.13,0,0,0-1.3-.76,6.25,6.25,0,0,0-2-.26,7.1,7.1,0,0,0-1.22.11,8.17,8.17,0,0,0-1.11.28,7.87,7.87,0,0,0-.9.38,2.32,2.32,0,0,0-.56.37.74.74,0,0,0-.2.32,2,2,0,0,0,0,.47,3.25,3.25,0,0,0,0,.33,1.12,1.12,0,0,0,.08.24.44.44,0,0,0,.13.14.28.28,0,0,0,.16,0,1,1,0,0,0,.43-.17c.2-.12.44-.24.73-.38a6.12,6.12,0,0,1,1-.38,4.29,4.29,0,0,1,1.29-.17,3.36,3.36,0,0,1,1.14.16,1.78,1.78,0,0,1,.76.47,1.93,1.93,0,0,1,.42.79,4.46,4.46,0,0,1,.13,1.09V40H46a10.18,10.18,0,0,0-2.24.22,5.33,5.33,0,0,0-1.69.66,3,3,0,0,0-1,1.1,3.14,3.14,0,0,0-.37,1.57A3.32,3.32,0,0,0,41,44.91a2.79,2.79,0,0,0,.74,1,3.3,3.3,0,0,0,1.17.64,5.11,5.11,0,0,0,1.52.22,4.08,4.08,0,0,0,1.82-.42,5.38,5.38,0,0,0,1.56-1.16v1.07a.29.29,0,0,0,.08.21.69.69,0,0,0,.27.11,3.19,3.19,0,0,0,.49,0,3,3,0,0,0,.49,0,.78.78,0,0,0,.26-.11.26.26,0,0,0,.09-.21v-7.2a6.11,6.11,0,0,0-.22-1.75A3,3,0,0,0,48.5,36.08Zm-1,7.59a6.19,6.19,0,0,1-1.38,1.19,2.69,2.69,0,0,1-1.43.4,2.09,2.09,0,0,1-1.48-.5,1.72,1.72,0,0,1-.53-1.32,1.84,1.84,0,0,1,.19-.86,1.65,1.65,0,0,1,.57-.64,2.81,2.81,0,0,1,1-.4,6.3,6.3,0,0,1,1.4-.14h1.67Z"/><path class="cls-2" d="M60.16,41.32a3.66,3.66,0,0,0-.87-.61c-.33-.16-.66-.31-1-.45l-1-.39a4.6,4.6,0,0,1-.86-.43,2.08,2.08,0,0,1-.62-.55,1.22,1.22,0,0,1-.24-.77,1.6,1.6,0,0,1,.13-.62,1.25,1.25,0,0,1,.37-.49,1.58,1.58,0,0,1,.62-.32,2.9,2.9,0,0,1,.88-.11,3.35,3.35,0,0,1,1,.13,5.78,5.78,0,0,1,.75.27,5.67,5.67,0,0,1,.52.28.65.65,0,0,0,.31.13.2.2,0,0,0,.13,0,.34.34,0,0,0,.1-.13.83.83,0,0,0,.06-.25,3.32,3.32,0,0,0,0-.35,2.88,2.88,0,0,0,0-.32,1.24,1.24,0,0,0,0-.22.75.75,0,0,0,0-.16.9.9,0,0,0-.17-.16,1.89,1.89,0,0,0-.37-.22,3,3,0,0,0-.59-.23,6.28,6.28,0,0,0-.77-.18,5.52,5.52,0,0,0-2.55.19,3.6,3.6,0,0,0-1.22.69A3,3,0,0,0,54,37a3.06,3.06,0,0,0-.24,1.2,2.77,2.77,0,0,0,.84,2.1,3.77,3.77,0,0,0,.86.62,8.89,8.89,0,0,0,1,.46l1,.39a5.17,5.17,0,0,1,.85.42,2.31,2.31,0,0,1,.61.54,1.27,1.27,0,0,1,.23.76,1.64,1.64,0,0,1-.16.76,1.46,1.46,0,0,1-.46.53,2,2,0,0,1-.7.31,3.46,3.46,0,0,1-.9.11,3.81,3.81,0,0,1-1.17-.16,5.37,5.37,0,0,1-.88-.35c-.25-.13-.46-.24-.63-.35a.81.81,0,0,0-.39-.16.28.28,0,0,0-.15,0,.32.32,0,0,0-.1.14,1.85,1.85,0,0,0-.06.25,3.79,3.79,0,0,0,0,.38,2.24,2.24,0,0,0,.06.58.67.67,0,0,0,.19.33,2.06,2.06,0,0,0,.41.27,4.42,4.42,0,0,0,.7.28,6.5,6.5,0,0,0,.92.23,6.41,6.41,0,0,0,1.09.09,6,6,0,0,0,1.69-.23,3.86,3.86,0,0,0,1.33-.66,3.1,3.1,0,0,0,.86-1.08,3.43,3.43,0,0,0,.3-1.46,2.72,2.72,0,0,0-.23-1.19A2.75,2.75,0,0,0,60.16,41.32Z"/><path class="cls-2" d="M73.14,36.39a3.25,3.25,0,0,0-1.19-1,4,4,0,0,0-1.79-.36,3.74,3.74,0,0,0-1.72.43,6.37,6.37,0,0,0-1.7,1.32V30.42a.33.33,0,0,0,0-.17.5.5,0,0,0-.16-.11.92.92,0,0,0-.29-.08l-.49,0-.48,0a1.08,1.08,0,0,0-.3.08.37.37,0,0,0-.15.11.33.33,0,0,0,0,.17V46.26a.25.25,0,0,0,0,.16.38.38,0,0,0,.15.12,1.67,1.67,0,0,0,.3.07l.48,0,.49,0a1.37,1.37,0,0,0,.29-.07.52.52,0,0,0,.16-.12.25.25,0,0,0,0-.16V38.8a7.9,7.9,0,0,1,1.55-1.53,2.56,2.56,0,0,1,1.47-.52,2.16,2.16,0,0,1,1,.22,1.72,1.72,0,0,1,.7.61,3,3,0,0,1,.42,1A6.53,6.53,0,0,1,72,40v6.25a.25.25,0,0,0,0,.16.38.38,0,0,0,.15.12,1.33,1.33,0,0,0,.3.07l.48,0,.48,0a1.48,1.48,0,0,0,.3-.07.38.38,0,0,0,.15-.12.25.25,0,0,0,0-.16V39.77a8.54,8.54,0,0,0-.2-2A3.8,3.8,0,0,0,73.14,36.39Z"/><path class="cls-2" d="M87,43.66a.24.24,0,0,0-.09-.14.33.33,0,0,0-.15,0,.92.92,0,0,0-.48.22c-.21.15-.47.32-.8.51a6.72,6.72,0,0,1-1.16.5,5.21,5.21,0,0,1-1.61.23,4.64,4.64,0,0,1-1.94-.39,3.74,3.74,0,0,1-1.45-1.14,5.53,5.53,0,0,1-.91-1.87A9.6,9.6,0,0,1,78.13,39a9.4,9.4,0,0,1,.33-2.61,5.64,5.64,0,0,1,.92-1.94,4.06,4.06,0,0,1,1.44-1.21,4.23,4.23,0,0,1,1.86-.41A4.85,4.85,0,0,1,84.3,33a5.54,5.54,0,0,1,1.14.51,6.93,6.93,0,0,1,.77.5.89.89,0,0,0,.47.24.25.25,0,0,0,.16-.06.41.41,0,0,0,.11-.16,1,1,0,0,0,.07-.28,2.33,2.33,0,0,0,0-.4A3.57,3.57,0,0,0,87,33a1.64,1.64,0,0,0,0-.27.54.54,0,0,0-.08-.19,1.41,1.41,0,0,0-.2-.25,4,4,0,0,0-.58-.41,6,6,0,0,0-1-.44A8.47,8.47,0,0,0,84,31.15a7.18,7.18,0,0,0-4,.42,6,6,0,0,0-2.13,1.58,7.55,7.55,0,0,0-1.38,2.54,10.77,10.77,0,0,0-.49,3.4,10.63,10.63,0,0,0,.46,3.29,6.74,6.74,0,0,0,1.3,2.4,5.46,5.46,0,0,0,2,1.47,7,7,0,0,0,2.7.5,7.29,7.29,0,0,0,1.6-.16,9,9,0,0,0,1.29-.39,5.83,5.83,0,0,0,.94-.48,3.5,3.5,0,0,0,.5-.36.81.81,0,0,0,.16-.2.54.54,0,0,0,.08-.19.87.87,0,0,0,0-.25,2.92,2.92,0,0,0,0-.33c0-.18,0-.33,0-.45A.9.9,0,0,0,87,43.66Z"/><path class="cls-2" d="M97.13,36.08a3.24,3.24,0,0,0-1.31-.76,6.18,6.18,0,0,0-1.95-.26,7.21,7.21,0,0,0-1.23.11,8.17,8.17,0,0,0-1.11.28,7.87,7.87,0,0,0-.9.38,2.22,2.22,0,0,0-.55.37.59.59,0,0,0-.2.32,1.92,1.92,0,0,0,0,.47,1.69,1.69,0,0,0,0,.33.76.76,0,0,0,.07.24.44.44,0,0,0,.13.14.31.31,0,0,0,.17,0,1.1,1.1,0,0,0,.43-.17,7.57,7.57,0,0,1,.72-.38,6.49,6.49,0,0,1,1-.38,4.36,4.36,0,0,1,1.3-.17,3.44,3.44,0,0,1,1.14.16,1.75,1.75,0,0,1,.75.47,1.93,1.93,0,0,1,.42.79,4,4,0,0,1,.13,1.09V40H94.66a10.18,10.18,0,0,0-2.24.22,5.26,5.26,0,0,0-1.68.66A3.09,3.09,0,0,0,89.68,42a3.14,3.14,0,0,0-.37,1.57,3.32,3.32,0,0,0,.27,1.37,2.94,2.94,0,0,0,.75,1,3.25,3.25,0,0,0,1.16.64,5.11,5.11,0,0,0,1.52.22,4.08,4.08,0,0,0,1.82-.42,5.25,5.25,0,0,0,1.56-1.16v1.07a.26.26,0,0,0,.09.21.58.58,0,0,0,.26.11,3.19,3.19,0,0,0,.49,0,2.93,2.93,0,0,0,.49,0,.7.7,0,0,0,.26-.11.27.27,0,0,0,.1-.21v-7.2a6.09,6.09,0,0,0-.23-1.75A3,3,0,0,0,97.13,36.08Zm-1,7.59a6.19,6.19,0,0,1-1.38,1.19,2.69,2.69,0,0,1-1.43.4,2.1,2.1,0,0,1-1.48-.5,1.71,1.71,0,0,1-.52-1.32,2,2,0,0,1,.18-.86,1.65,1.65,0,0,1,.57-.64,2.89,2.89,0,0,1,1-.4,6.3,6.3,0,0,1,1.4-.14h1.67Z"/><path class="cls-2" d="M109.77,36.74a3.77,3.77,0,0,0-1.34-1.23,4,4,0,0,0-2-.45,4.17,4.17,0,0,0-1,.12,5,5,0,0,0-.94.37,6,6,0,0,0-.9.61,10.41,10.41,0,0,0-.94.87V35.59a.29.29,0,0,0,0-.17.37.37,0,0,0-.15-.11.67.67,0,0,0-.27-.07l-.41,0-.4,0a.67.67,0,0,0-.27.07.37.37,0,0,0-.15.11.4.4,0,0,0,0,.17V50.5a.27.27,0,0,0,0,.16.31.31,0,0,0,.15.12,1.1,1.1,0,0,0,.31.07,3,3,0,0,0,.47,0,3.28,3.28,0,0,0,.49,0,1.11,1.11,0,0,0,.3-.07.31.31,0,0,0,.15-.12.28.28,0,0,0,.05-.16V45.16a9.78,9.78,0,0,0,.8.72,4.27,4.27,0,0,0,.77.51,2.92,2.92,0,0,0,.79.3,3.92,3.92,0,0,0,.87.1,4.44,4.44,0,0,0,2-.43,4.1,4.1,0,0,0,1.46-1.19,5.71,5.71,0,0,0,.89-1.89,10.48,10.48,0,0,0,.06-4.72A5.62,5.62,0,0,0,109.77,36.74Zm-1.2,5.73a4.67,4.67,0,0,1-.48,1.33,2.72,2.72,0,0,1-.86,1,2.26,2.26,0,0,1-1.27.35,2.54,2.54,0,0,1-1.52-.52,8.29,8.29,0,0,1-1.54-1.51V38.83a10,10,0,0,1,.88-1,5.33,5.33,0,0,1,.8-.64,3.21,3.21,0,0,1,.75-.36,2.78,2.78,0,0,1,.75-.11,2.17,2.17,0,0,1,1.28.36,2.54,2.54,0,0,1,.82.95,4.76,4.76,0,0,1,.43,1.35,10.25,10.25,0,0,1,.12,1.59A6.77,6.77,0,0,1,108.57,42.47Z"/><path class="cls-2" d="M118,30.82a1.42,1.42,0,0,0-1,.25,1.82,1.82,0,0,0,0,1.86,1.4,1.4,0,0,0,.94.24,1.37,1.37,0,0,0,1-.25,1.25,1.25,0,0,0,.26-.93,1.27,1.27,0,0,0-.25-.92A1.38,1.38,0,0,0,118,30.82Z"/><path class="cls-2" d="M118.79,35.32a1,1,0,0,0-.3-.07,3.85,3.85,0,0,0-1,0,1,1,0,0,0-.3.07.3.3,0,0,0-.16.12.37.37,0,0,0,0,.15V46.26a.34.34,0,0,0,0,.16.35.35,0,0,0,.16.12,1.33,1.33,0,0,0,.3.07l.48,0,.48,0a1.33,1.33,0,0,0,.3-.07.38.38,0,0,0,.15-.12.25.25,0,0,0,0-.16V35.59a.27.27,0,0,0,0-.15A.31.31,0,0,0,118.79,35.32Z"/><path class="cls-2" d="M133.26,36.91a.33.33,0,0,0,.28-.19,1.34,1.34,0,0,0,.11-.62,2,2,0,0,0,0-.38.75.75,0,0,0-.07-.25.39.39,0,0,0-.13-.15.42.42,0,0,0-.16,0h-2.74V32.74a.3.3,0,0,0-.21-.27.72.72,0,0,0-.29-.08,3.48,3.48,0,0,0-.49,0,3.18,3.18,0,0,0-.47,0,.72.72,0,0,0-.3.08.3.3,0,0,0-.16.12.28.28,0,0,0,0,.15v2.54h-1.48a.43.43,0,0,0-.17,0,.28.28,0,0,0-.13.15,1.05,1.05,0,0,0-.08.25,2,2,0,0,0,0,.38,1.34,1.34,0,0,0,.11.62.34.34,0,0,0,.29.19h1.49v6.23a6.85,6.85,0,0,0,.17,1.61,2.84,2.84,0,0,0,.55,1.13,2.33,2.33,0,0,0,1,.66,4,4,0,0,0,1.42.22,4.89,4.89,0,0,0,.54,0l.52-.09a2.17,2.17,0,0,0,.43-.14.8.8,0,0,0,.29-.18.6.6,0,0,0,.14-.29,2.64,2.64,0,0,0,.05-.55,1.69,1.69,0,0,0,0-.35,1,1,0,0,0-.05-.23.2.2,0,0,0-.08-.11l-.12,0a.46.46,0,0,0-.21.05l-.28.11-.38.12a2.46,2.46,0,0,1-.49.05,1.25,1.25,0,0,1-1.17-.56,3.5,3.5,0,0,1-.32-1.67v-6Z"/><path class="cls-2" d="M145.75,36.08a3.2,3.2,0,0,0-1.3-.76,6.25,6.25,0,0,0-2-.26,7.1,7.1,0,0,0-1.22.11,8,8,0,0,0-1.12.28,7.87,7.87,0,0,0-.9.38,2.44,2.44,0,0,0-.55.37.66.66,0,0,0-.2.32,2,2,0,0,0,0,.47,1.72,1.72,0,0,0,0,.33.75.75,0,0,0,.08.24.42.42,0,0,0,.12.14.31.31,0,0,0,.17,0,1.05,1.05,0,0,0,.43-.17c.19-.12.44-.24.72-.38a6.49,6.49,0,0,1,1-.38,4.4,4.4,0,0,1,1.3-.17,3.44,3.44,0,0,1,1.14.16,1.69,1.69,0,0,1,.75.47,1.72,1.72,0,0,1,.42.79,4,4,0,0,1,.13,1.09V40h-1.47a10.25,10.25,0,0,0-2.24.22,5.36,5.36,0,0,0-1.68.66A3.09,3.09,0,0,0,138.3,42a3.25,3.25,0,0,0-.37,1.57,3.32,3.32,0,0,0,.27,1.37,2.94,2.94,0,0,0,.75,1,3.34,3.34,0,0,0,1.16.64,5.16,5.16,0,0,0,1.52.22,4.05,4.05,0,0,0,1.82-.42A5.12,5.12,0,0,0,145,45.21v1.07a.26.26,0,0,0,.09.21.58.58,0,0,0,.26.11,3.34,3.34,0,0,0,.5,0,2.88,2.88,0,0,0,.48,0,.7.7,0,0,0,.26-.11.24.24,0,0,0,.1-.21v-7.2a6.09,6.09,0,0,0-.23-1.75A3,3,0,0,0,145.75,36.08Zm-1,7.59a6.19,6.19,0,0,1-1.38,1.19,2.66,2.66,0,0,1-1.43.4,2.06,2.06,0,0,1-1.47-.5,1.72,1.72,0,0,1-.53-1.32,2,2,0,0,1,.18-.86,1.76,1.76,0,0,1,.58-.64,2.83,2.83,0,0,1,1-.4,6.37,6.37,0,0,1,1.4-.14h1.67Z"/><path class="cls-2" d="M155.4,30.25a.37.37,0,0,0-.15-.11.92.92,0,0,0-.3-.08l-.48,0-.48,0a1,1,0,0,0-.3.08.27.27,0,0,0-.15.11.34.34,0,0,0,0,.17V46.26a.25.25,0,0,0,0,.16s.07.08.15.12a1.48,1.48,0,0,0,.3.07l.48,0,.48,0a1.33,1.33,0,0,0,.3-.07.38.38,0,0,0,.15-.12.25.25,0,0,0,0-.16V30.42A.34.34,0,0,0,155.4,30.25Z"/></svg>