<?xml version="1.0" standalone="no"?><!DOCTYPE svg PUBLIC "-//W3C//DTD SVG 1.1//EN" "http://www.w3.org/Graphics/SVG/1.1/DTD/svg11.dtd"><svg class="icon" width="14px" height="14.00px" viewBox="0 0 1024 1024" version="1.1" xmlns="http://www.w3.org/2000/svg"><path d="M512 1012c-275.7 0-500-224.3-500-500S236.3 12 512 12s500 224.3 500 500-224.3 500-500 500z m0-933.3C273.1 78.7 78.7 273.1 78.7 512S273.1 945.3 512 945.3 945.3 750.9 945.3 512 750.9 78.7 512 78.7z" fill="#808dc2" /><path d="M520.2 228.9c-57.6 0-102.7 16.3-135.3 49.8-32.7 32.7-49 77-49 133.8h81.7c0-34.2 7-60.7 21-79.3 15.6-22.6 41.2-33.4 76.2-33.4 28 0 50.6 7.8 66.1 23.3 14.8 15.6 22.6 36.6 22.6 63.8 0 20.2-7.8 38.9-21.8 56.8l-13.2 14.8c-48.2 42.8-77.8 74.7-87.9 96.4-10.9 20.2-15.6 45.1-15.6 73.9V642h83.2v-13.2c0-18.7 3.9-35.8 12.4-51.3 7-14 17.9-28 32.7-40.4 36.6-31.9 58.3-52.1 65.3-60.7 19.4-24.9 29.6-56.8 29.6-94.9 0-46.7-15.6-84-46.7-111.2-31.1-28.2-71.6-41.4-121.3-41.4z m-14 455c-15.6 0-29.6 4.7-40.4 15.6-10.9 10.1-16.3 23.3-16.3 39.7 0 15.6 5.4 28.8 16.3 39.7 10.9 10.9 24.9 16.3 40.4 16.3 15.6 0 29.6-5.4 40.4-15.6 10.9-10.9 17.1-24.1 17.1-40.4 0-16.3-5.4-29.6-16.3-39.7-10.9-10.9-24.9-15.6-41.2-15.6z" fill="#808dc2" /></svg>