<?xml version="1.0" encoding="UTF-8"?>
<svg width="156px" height="25px" viewBox="0 0 156 25" version="1.1" xmlns="http://www.w3.org/2000/svg" xmlns:xlink="http://www.w3.org/1999/xlink">
    <!-- Generator: Sketch 50.2 (55047) - http://www.bohemiancoding.com/sketch -->
    <title>John</title>
    <desc>Created with Sketch.</desc>
    <defs></defs>
    <g id="Page-1" stroke="none" stroke-width="1" fill="none" fill-rule="evenodd">
        <g id="G.55.com" transform="translate(-963.000000, -1782.000000)" fill="#FFFFFF" fill-rule="nonzero">
            <g id="Our-Lovely-Partners-" transform="translate(79.000000, 1548.000000)">
                <g id="Group-3" transform="translate(70.000000, 174.000000)">
                    <g id="John" transform="translate(814.000000, 60.000000)">
                        <path d="M20.42,7.07 C19.8279441,7.04803515 19.364113,6.55319905 19.3804504,5.96096112 C19.3967877,5.36872319 19.8871936,4.90021049 20.47956,4.91091889 C21.0719264,4.92162729 21.5450785,5.40755854 21.54,6 C21.5236355,6.60362016 21.0237381,7.08120073 20.42,7.07 Z M20.42,5.57 C20.1880404,5.57 20,5.75804041 20,5.99 C20,6.22195959 20.1880404,6.41 20.42,6.41 C20.6519596,6.41 20.84,6.22195959 20.84,5.99 C20.84,5.75804041 20.6519596,5.57 20.42,5.57 Z" id="Shape"></path>
                        <path d="M10.7,3 C10.1077173,2.98354131 9.6392857,2.49296531 9.65018275,1.90055416 C9.66107979,1.30814301 10.1472361,0.835126081 10.7397234,0.84046052 C11.3322108,0.84579496 11.8097714,1.32748868 11.81,1.92 C11.7990495,2.52360087 11.3036743,3.00558751 10.7,3 Z M10.7,1.5 C10.4726608,1.51628085 10.2997963,1.71090847 10.3104614,1.93858025 C10.3211266,2.16625204 10.5114287,2.34386729 10.7392943,2.33882428 C10.96716,2.33378127 11.1494178,2.14792071 11.15,1.92 C11.1289829,1.68884585 10.9320241,1.51377133 10.7,1.52 L10.7,1.5 Z" id="Shape"></path>
                        <path d="M1.11,7.15 C0.51353247,7.15 0.03,6.66646753 0.03,6.07 C0.03,5.47353247 0.51353247,4.99 1.11,4.99 C1.49584685,4.98999998 1.85238406,5.19584681 2.04530749,5.52999998 C2.23823092,5.86415315 2.23823092,6.27584685 2.04530749,6.61000002 C1.85238406,6.94415319 1.49584685,7.15000002 1.11,7.15 Z M1.11,5.65 C0.878040405,5.65 0.69,5.83804041 0.69,6.07 C0.69,6.30195959 0.878040405,6.49 1.11,6.49 C1.34195959,6.49 1.53,6.30195959 1.53,6.07 C1.53,5.83804041 1.34195959,5.65 1.11,5.65 Z" id="Shape"></path>
                        <path d="M10.77,8.24 C10.1777173,8.22354131 9.7092857,7.73296531 9.72018275,7.14055416 C9.73107979,6.54814301 10.2172361,6.07512608 10.8097234,6.08046052 C11.4022108,6.08579496 11.8797714,6.56748868 11.88,7.16 C11.8690495,7.76360087 11.3736743,8.24558751 10.77,8.24 Z M10.77,6.74 C10.5426608,6.75628085 10.3697963,6.95090847 10.3804614,7.17858025 C10.3911266,7.40625204 10.5814287,7.58386729 10.8092943,7.57882428 C11.03716,7.57378127 11.2194178,7.38792071 11.22,7.16 C11.2091889,6.92091453 11.0092623,6.73431638 10.77,6.74 Z" id="Shape"></path>
                        <path d="M5.47,10.4 C4.87771727,10.3835413 4.4092857,9.89296531 4.42018275,9.30055416 C4.43107979,8.70814301 4.91723608,8.23512608 5.50972343,8.24046052 C6.10221078,8.24579496 6.57977136,8.72748868 6.58,9.32 C6.56904949,9.92360087 6.07367433,10.4055875 5.47,10.4 Z M5.47,8.9 C5.23804041,8.9 5.05,9.08804041 5.05,9.32 C5.05,9.55195959 5.23804041,9.74 5.47,9.74 C5.70195959,9.74 5.89,9.55195959 5.89,9.32 C5.89,9.08804041 5.70195959,8.9 5.47,8.9 Z" id="Shape"></path>
                        <path d="M16.15,10.35 C15.5592359,10.3281047 15.09586,9.83531048 15.1103235,9.24431771 C15.1247871,8.65332493 15.6117145,8.18378782 16.2028424,8.19081736 C16.7939704,8.19784689 17.2695944,8.6788304 17.27,9.27 C17.2647436,9.5617538 17.143779,9.83946427 16.9337276,10.0420138 C16.7236762,10.2445634 16.441752,10.3553528 16.15,10.35 Z M16.15,8.85 C15.9180404,8.85 15.73,9.03804041 15.73,9.27 C15.73,9.50195959 15.9180404,9.69 16.15,9.69 C16.3819596,9.69 16.57,9.50195959 16.57,9.27 C16.57,9.03804041 16.3819596,8.85 16.15,8.85 Z" id="Shape"></path>
                        <path d="M10.81,20 C10.2107364,19.9890025 9.73278255,19.496231 9.74008083,18.8969109 C9.74737911,18.2975908 10.237191,17.8166044 10.8365447,17.8202032 C11.4358984,17.8238019 11.9198991,18.3106355 11.92,18.91 C11.9173599,19.2017419 11.7989276,19.4804847 11.5907596,19.684902 C11.3825916,19.8893192 11.1017417,20.0026643 10.81,20 Z M10.81,18.5 C10.5813844,18.5164235 10.4081524,18.7131034 10.4207273,18.9419629 C10.4333022,19.1708224 10.6270397,19.3473389 10.8560784,19.3386162 C11.0851172,19.3298934 11.2648681,19.139153 11.26,18.91 C11.2388451,18.6803651 11.0403103,18.5083017 10.81,18.52 L10.81,18.5 Z" id="Shape"></path>
                        <path d="M10.87,24.89 C10.280816,24.8626933 9.82250618,24.3677454 9.84050352,23.7782035 C9.85850085,23.1886617 10.3461483,22.7225916 10.9359008,22.7312751 C11.5256534,22.7399586 11.9993676,23.2201839 12,23.81 C11.9947728,24.1035271 11.8724298,24.3827862 11.6601997,24.5856256 C11.4479695,24.788465 11.1634631,24.8980531 10.87,24.89 Z M10.87,23.39 C10.6380404,23.39 10.45,23.5780404 10.45,23.81 C10.45,24.0419596 10.6380404,24.23 10.87,24.23 C11.1019596,24.23 11.29,24.0419596 11.29,23.81 C11.29,23.5780404 11.1019596,23.39 10.87,23.39 Z" id="Shape"></path>
                        <path d="M7,16.63 C6.40771727,16.6135413 5.9392857,16.1229653 5.95018275,15.5305542 C5.96107979,14.938143 6.44723608,14.4651261 7.03972343,14.4704605 C7.63221078,14.475795 8.10977136,14.9574887 8.11,15.55 C8.09904949,16.1536009 7.60367433,16.6355875 7,16.63 Z M7,15.13 C6.77266078,15.1462808 6.59979626,15.3409085 6.61046144,15.5685803 C6.62112662,15.796252 6.81142867,15.9738673 7.03929433,15.9688243 C7.26715998,15.9637813 7.44941777,15.7779207 7.45,15.55 C7.43918887,15.3109145 7.23926228,15.1243164 7,15.13 Z" id="Shape"></path>
                        <path d="M8,15.77 C7.8412132,15.7705703 7.68421911,15.7364411 7.54,15.67 L7.79,15.06 C7.90164734,15.1083978 8.02835266,15.1083978 8.14,15.06 C8.36011494,14.9283226 8.52121692,14.7171 8.59,14.47 C9.0554595,12.927215 9.44262036,11.3618836 9.75,9.78 C9.89,9.11 10.03,8.47 10.16,7.91 C10.214371,7.67260928 10.4379021,7.51355832 10.68,7.54 C10.9267874,7.58046505 11.1035029,7.80028198 11.09,8.05 L10.71,14.05 L12.31,11 C12.3929803,10.8274417 12.5821652,10.7328492 12.77,10.77 C12.9629135,10.8168272 13.1040242,10.9821283 13.12,11.18 L13.25,14.18 L15.25,9.78 L15.85,10.05 L13.44,15.34 C13.3637166,15.5203978 13.1728689,15.6241194 12.98,15.59 C12.7850312,15.5533663 12.6404287,15.3881063 12.63,15.19 L12.49,12.06 L11,15 C10.8937749,15.2205919 10.6480597,15.3372025 10.41,15.28 C10.1619278,15.2101096 9.99565672,14.97733 10.01,14.72 L10.28,10.48 C10.0087972,11.9201095 9.65148936,13.342662 9.21,14.74 C9.09186008,15.1720093 8.79805972,15.5347258 8.4,15.74 C8.27006137,15.7769134 8.13399104,15.7871187 8,15.77 Z" id="Shape"></path>
                        <path d="M19.6,6.09 C16.3893419,6.11526677 13.298571,4.87177055 11,2.63 L11.49,2.19 C13.66803,4.26644367 16.5607775,5.42640675 19.57,5.43 L19.6,6.09 Z" id="Shape"></path>
                        <rect id="Rectangle-path" transform="translate(18.381788, 7.705482) rotate(-38.970000) translate(-18.381788, -7.705482) " x="16.4417875" y="7.20548205" width="3.88" height="1"></rect>
                        <path d="M11.78,23.88 L11.47,23.29 C11.47,23.29 13.62,22.14 16.9,17.93 C20.18,13.72 20.28,6.79 20.28,6.72 L21,6.72 C21,7.01 20.89,13.95 17.48,18.32 C14.07,22.69 11.87,23.83 11.78,23.88 Z" id="Shape"></path>
                        <path d="M9.88,23.94 C7.09685895,22.2863549 4.83690914,19.8808255 3.36,17 C1.83027716,13.8151475 0.927216479,10.3658631 0.7,6.84 L1.36,6.84 C1.60812215,10.2705089 2.50391728,13.6229543 4,16.72 C5.42579375,19.4652842 7.5860855,21.7605942 10.24,23.35 L9.88,23.94 Z" id="Shape"></path>
                        <path d="M1.87,6.17 L1.87,5.51 C1.87,5.51 7.12,5.33 9.96,2.27 L10.44,2.72 C7.39,6 2.09,6.16 1.87,6.17 Z" id="Shape"></path>
                        <rect id="Rectangle-path" transform="translate(3.373850, 7.667950) rotate(-53.930590) translate(-3.373850, -7.667950) " x="2.8728011" y="5.73891174" width="1" height="3.85807653"></rect>
                        <path d="M6.15,9.35 L6.08,8.69 C7.45860675,8.5388237 8.7798381,8.05494416 9.93,7.28 L10.36,7.78 C9.10877519,8.64474068 7.66191454,9.18430629 6.15,9.35 Z" id="Shape"></path>
                        <path d="M15.41,9.29 C13.9021377,9.12024868 12.4594786,8.58096897 11.21,7.72 L11.64,7.22 C12.7896105,7.99602374 14.111117,8.48000403 15.49,8.63 L15.41,9.29 Z" id="Shape"></path>
                        <path d="M6.33,15 C5.59054762,13.4582851 5.13977458,11.7941531 5,10.09 L5.66,10.09 C5.79871311,11.6888615 6.22203381,13.2500683 6.91,14.7 L6.33,15 Z" id="Shape"></path>
                        <path d="M9.88,19 C8.77802785,18.3762358 7.84713977,17.4900029 7.17,16.42 L7.73,16 C8.34363854,16.9576453 9.17227491,17.7588887 10.15,18.34 L9.88,19 Z" id="Shape"></path>
                        <path d="M11.75,18.82 L11.38,18.27 C12.5375325,17.4410264 13.5510264,16.4275325 14.38,15.27 C15.3239621,13.6559375 15.913686,11.8594954 16.11,10 L16.77,10.07 C16.5648876,12.0557971 15.9228722,13.9715983 14.89,15.68 C14.025971,16.8946247 12.9646247,17.955971 11.75,18.82 Z" id="Shape"></path>
                        <rect id="Rectangle-path" transform="translate(11.015640, 21.363002) rotate(-0.940000) translate(-11.015640, -21.363002) " x="10.5156402" y="19.6730021" width="1" height="3.38"></rect>
                        <rect id="Rectangle-path" x="10.43" y="2.78" width="1" height="3.51"></rect>
                        <path d="M33,19 L25.07,19 L25.07,18.18 L31.67,18.18 C32.37,18.23 32.67,17.93 32.67,17.29 L32.67,6.79 L35.67,6.79 L35.67,16.14 C35.73,18.12 34.84,19.09 33,19 Z" id="Shape"></path>
                        <path d="M37.09,16.59 L37.09,12.43 C37.09,10.8 37.83,9.98 39.32,9.98 L45.48,9.98 C47.01,9.98 47.78,10.8 47.78,12.43 L47.78,16.59 C47.78,18.22 47.01,19.04 45.48,19.04 L39.32,19.04 C37.78,19 37,18.22 37.09,16.59 Z M44.88,17.59 L44.88,11.47 C44.88,10.97 44.74,10.75 44.29,10.8 L40.51,10.8 C40.06,10.8 39.86,10.97 39.91,11.47 L39.91,17.63 C39.91,18.07 40.11,18.29 40.51,18.29 L44.29,18.29 C44.74,18.29 44.93,18.07 44.88,17.63 L44.88,17.59 Z" id="Shape"></path>
                        <path d="M51.93,11 L52,11 C52.2539794,10.465718 52.7555309,10.0914258 53.34,10 L57.34,10 C58.88,10 59.64,10.77 59.64,12.45 L59.64,19 L56.83,19 L56.83,11.47 C56.88,10.97 56.68,10.75 56.24,10.8 L53.12,10.8 C52.6039747,10.8896275 52.1617945,11.2203337 51.93,11.69 L51.93,19 L49.11,19 L49.11,6.72 L51.93,6.72 L51.93,11 Z" id="Shape"></path>
                        <path d="M63.37,10.06 L63.37,11.06 C63.5761823,10.5218113 64.0590508,10.1385824 64.63,10.06 L68.86,10.06 C70.39,10.01 71.16,10.8 71.16,12.43 L71.16,19 L68.34,19 L68.34,11.47 C68.34,10.97 68.19,10.75 67.74,10.8 L64.63,10.8 C63.93,10.85 63.51,11.09 63.37,11.54 L63.37,19 L60.62,19 L60.62,10 L63.37,10.06 Z" id="Shape"></path>
                        <polygon id="Shape" points="78.55 19 75.14 6.86 77.89 6.86 80.48 16.22 82.93 6.86 85.83 6.86 88.28 16.07 90.5 6.86 93.25 6.86 90.13 19 86.49 19 84.34 11.05 84.27 11.05 82.19 19"></polygon>
                        <path d="M97.18,10 L97.18,19 L94.29,19 L94.29,10 L97.18,10 Z M97,7 L97,9.16 L94.44,9.16 L94.44,7 L97,7 Z" id="Shape"></path>
                        <path d="M101.11,11.47 L101.11,17.63 C101.11,18.07 101.31,18.29 101.71,18.29 L107.35,18.29 L107.35,19 L100.45,19 C98.96,19 98.22,18.21 98.22,16.62 L98.22,12.43 C98.22,10.8 98.96,10.01 100.45,10.06 L107.27,10.06 L107.27,10.8 L101.63,10.8 C101.29,10.8 101.11,11 101.11,11.47 Z" id="Shape"></path>
                        <path d="M115.22,12.43 L118.11,17.7 C118.21,17.85 118.48,18.22 118.93,18.81 L119.15,19.04 C116.43,19.23 115.04,18.74 114.99,17.55 L114.77,17.11 L113.21,13.92 L111.13,15.47 L111.13,19 L108.31,19 L108.31,6.79 L111.13,6.79 L111.13,13.54 L116.03,10.06 L118.78,10.06 L118.7,10.13 C117.477197,10.7971275 116.313043,11.5665395 115.22,12.43 Z" id="Shape"></path>
                        <path d="M132,18.66 L123.58,18.66 L123.58,17.86 L130.84,17.86 C131.37,17.86 131.61,17.69 131.56,17.2 L131.56,13.86 C131.61,13.33 131.39,13.09 130.91,13.14 L125.83,13.14 C124.28,13.14 123.5,12.31 123.5,10.67 L123.5,9.07 C123.397041,8.41997276 123.606275,7.75941898 124.064706,7.287215 C124.523138,6.81501102 125.177211,6.5863218 125.83,6.67 L134.25,6.67 L134.25,7.47 L127,7.47 C126.52,7.47 126.3,7.66 126.35,8.2 L126.35,11.61 C126.35,12.14 126.52,12.39 127,12.34 L132,12.34 C132.65913,12.2457417 133.32425,12.4666242 133.796049,12.9364571 C134.267848,13.40629 134.491505,14.0704822 134.4,14.73 L134.4,16.26 C134.495005,16.9211139 134.272904,17.5883429 133.800623,18.0606233 C133.328343,18.5329037 132.661114,18.7550054 132,18.66 Z" id="Shape"></path>
                        <path d="M138.36,14.15 L138.36,17.27 C138.36,17.71 138.55,17.93 138.94,17.93 L145.77,17.93 L145.77,18.66 L137.85,18.66 C137.215249,18.7500205 136.575815,18.5302902 136.130473,18.0691138 C135.685131,17.6079374 135.487866,16.9612204 135.6,16.33 L135.6,12.19 C135.6,10.59 136.35,9.82 137.85,9.87 L143.85,9.87 C145.35,9.87 146.08,10.59 146.03,12.19 L146.03,12.85 C145.93,14.06 145.16,14.71 143.7,14.85 L139.56,14.85 C139.063718,14.847623 138.606353,14.5808266 138.36,14.15 Z M143.36,12.92 L143.36,11.25 C143.36,10.81 143.22,10.59 142.78,10.59 L138.93,10.59 C138.54,10.59 138.37,10.76 138.42,11.25 L138.42,13.35 C138.608757,13.8180475 139.07636,14.1123148 139.58,14.08 L142.13,14.08 C143.05,14.13 143.47,13.74 143.37,12.92 L143.36,12.92 Z" id="Shape"></path>
                        <path d="M149.4,11.25 L149.4,17.25 C149.4,17.69 149.59,17.91 149.98,17.91 L155.5,17.91 L155.5,18.64 L148.75,18.64 C147.29,18.64 146.57,17.86 146.57,16.31 L146.57,12.19 C146.57,10.59 147.29,9.82 148.75,9.87 L155.43,9.87 L155.43,10.59 L149.91,10.59 C149.57,10.59 149.4,10.81 149.4,11.25 Z" id="Shape"></path>
                    </g>
                </g>
            </g>
        </g>
    </g>
</svg>