<svg id="图层_1" data-name="图层 1" xmlns="http://www.w3.org/2000/svg" viewBox="0 0 155.5 77.75"><defs><style>.cls-1{fill:#5a6cb1;}</style></defs><title>logo_new_0911</title><path class="cls-1" d="M0,27.05H5V36.9l9.13-9.85h6.34l-9.51,9.71,10.14,14.1h-6.5L7.39,40.38,5,42.86v8H0Z"/><path class="cls-1" d="M29.13,29H25.76v-2h9.08v2H31.47v9.19H29.13Z"/><path class="cls-1" d="M36.72,37.27a4.3,4.3,0,0,1-1.14-3.14,4.44,4.44,0,0,1,1.14-3.21,4.59,4.59,0,0,1,6.17,0A4.44,4.44,0,0,1,44,34.13a4.3,4.3,0,0,1-1.14,3.14,4.15,4.15,0,0,1-3.09,1.16A4.14,4.14,0,0,1,36.72,37.27ZM41.28,36a2.94,2.94,0,0,0,.51-1.86,3.06,3.06,0,0,0-.51-1.91,2,2,0,0,0-3,0,3.13,3.13,0,0,0-.5,1.91,3,3,0,0,0,.5,1.86,2,2,0,0,0,3,0Z"/><path class="cls-1" d="M47.1,38.22,44.7,30H47L48.33,36h0L49.57,30h2.19L53,36,54.32,30h2.2l-2.39,8.27H51.9l-1.27-6.16h0l-1.3,6.16H47.1Z"/><path class="cls-1" d="M57.67,30h2.07v1.22c.09-.14.18-.28.28-.41a2.79,2.79,0,0,1,2.34-1,2.71,2.71,0,0,1,2,.77,3,3,0,0,1,.74,2.16v5.56H63V33.05a1.69,1.69,0,0,0-.33-1.14,1.31,1.31,0,0,0-1-.36,1.68,1.68,0,0,0-1.32.51,2.16,2.16,0,0,0-.46,1.49v4.67H57.67Z"/><path class="cls-1" d="M29.46,46.29a2,2,0,0,1,.69,1.32h-.74a1.24,1.24,0,0,0-.45-.84,1.51,1.51,0,0,0-.93-.28,1.31,1.31,0,0,0-1.11.54,2.66,2.66,0,0,0,0,2.79,1.43,1.43,0,0,0,2.52-.74h.74a2.32,2.32,0,0,1-.71,1.41A2.17,2.17,0,0,1,28,51a2.06,2.06,0,0,1-1.69-.73,2.69,2.69,0,0,1-.57-1.79,2.78,2.78,0,0,1,.57-1.81,2,2,0,0,1,1.7-.76A2.27,2.27,0,0,1,29.46,46.29Z"/><path class="cls-1" d="M34.94,46.62a2.64,2.64,0,0,1,.61,1.8A2.66,2.66,0,0,1,35,50.2a2.18,2.18,0,0,1-1.74.76,2.15,2.15,0,0,1-1.73-.76,2.6,2.6,0,0,1-.61-1.78,2.64,2.64,0,0,1,.61-1.8,2.37,2.37,0,0,1,3.46,0ZM32,47.08a2.26,2.26,0,0,0-.38,1.34A2.2,2.2,0,0,0,32,49.74a1.37,1.37,0,0,0,1.2.59,1.42,1.42,0,0,0,1.2-.59,2.19,2.19,0,0,0,.39-1.32,2.24,2.24,0,0,0-.39-1.34,1.44,1.44,0,0,0-1.2-.59A1.39,1.39,0,0,0,32,47.08Z"/><path class="cls-1" d="M40.15,46.78a1.72,1.72,0,0,1,.67-.69,1.56,1.56,0,0,1,.85-.22,1.64,1.64,0,0,1,1.22.48,1.84,1.84,0,0,1,.46,1.31v3.17H42.6v-3a1.44,1.44,0,0,0-.27-1,1.09,1.09,0,0,0-.89-.33,1,1,0,0,0-.8.36,1.33,1.33,0,0,0-.33.94v3h-.74v-3c0-.85-.37-1.28-1.11-1.28a1,1,0,0,0-.85.42,1.4,1.4,0,0,0-.34,1v2.94h-.75V46h.75v.64a1.63,1.63,0,0,1,1.36-.77A1.5,1.5,0,0,1,40.15,46.78Z"/><path class="cls-1" d="M48.13,46.78a1.78,1.78,0,0,1,.67-.69,1.56,1.56,0,0,1,.85-.22,1.67,1.67,0,0,1,1.23.48,1.88,1.88,0,0,1,.45,1.31v3.17h-.74v-3a1.38,1.38,0,0,0-.28-1,1.08,1.08,0,0,0-.89-.33,1,1,0,0,0-.8.36,1.37,1.37,0,0,0-.32.94v3h-.75v-3c0-.85-.37-1.28-1.11-1.28a1,1,0,0,0-.85.42,1.45,1.45,0,0,0-.34,1v2.94h-.74V46h.74v.64a1.64,1.64,0,0,1,1.37-.77A1.5,1.5,0,0,1,48.13,46.78Z"/><path class="cls-1" d="M52.49,46h.75v3a1.49,1.49,0,0,0,.29,1,1.18,1.18,0,0,0,.95.34,1.22,1.22,0,0,0,.86-.37,1.68,1.68,0,0,0,.47-1V46h.75v4.83h-.75v-.75a1.8,1.8,0,0,1-1.56.88c-1.17,0-1.76-.66-1.76-2Z"/><path class="cls-1" d="M61.78,47.86v3H61V47.91c0-.94-.42-1.41-1.27-1.41a1.19,1.19,0,0,0-.86.37,1.53,1.53,0,0,0-.43,1v2.92h-.75V46h.75v.71a1.65,1.65,0,0,1,.64-.62,1.71,1.71,0,0,1,.87-.22C61.18,45.87,61.78,46.53,61.78,47.86Z"/><path class="cls-1" d="M64,44.34a.47.47,0,0,1,.16.39.54.54,0,0,1-.16.4.58.58,0,0,1-.4.16.59.59,0,0,1-.41-.16.56.56,0,0,1-.16-.4.5.5,0,0,1,.16-.39.54.54,0,0,1,.41-.16A.54.54,0,0,1,64,44.34ZM63.18,46h.75v4.83h-.75Z"/><path class="cls-1" d="M66.62,44.44V46h1.19v.63H66.62V49.7a.54.54,0,0,0,.1.38.46.46,0,0,0,.36.12h.61v.63H67a1.07,1.07,0,0,1-.85-.31,1.27,1.27,0,0,1-.23-.82V46.63h-1V46h1V44.75Z"/><path class="cls-1" d="M68.11,46h.81l1.48,3.81L71.83,46h.82L70,52.68H69.2l.83-2Z"/></svg>