<?xml version="1.0" encoding="UTF-8"?>
<svg width="50px" height="50px" viewBox="0 0 50 50" version="1.1" xmlns="http://www.w3.org/2000/svg" xmlns:xlink="http://www.w3.org/1999/xlink">
    <!-- Generator: Sketch 51.3 (57544) - http://www.bohemiancoding.com/sketch -->
    <title>P</title>
    <desc>Created with Sketch.</desc>
    <defs></defs>
    <g id="Page-1" stroke="none" stroke-width="1" fill="none" fill-rule="evenodd">
        <g id="Welcome-on-board" transform="translate(-516.000000, -452.000000)" fill-rule="nonzero">
            <g id="Group-3" transform="translate(232.000000, 369.000000)">
                <g id="P" transform="translate(284.000000, 83.000000)">
                    <rect id="Rectangle-6-Copy" fill="#0064FF" x="0" y="0" width="50" height="50"></rect>
                    <g id="contact-person-pang_-copy" transform="translate(10.000000, 14.000000)">
                        <path d="M30,7.72894327 L30,1.93315462 C30,0.867346939 29.1609154,0 28.1256811,0 L1.87431892,0 C0.839084635,0 0,0.86367174 0,1.93315462 L0,7.72894327 C1.55466764,7.72894327 2.81147839,9.02628848 2.81147839,10.625 C2.81147839,12.2237115 1.55103523,13.5210567 0,13.5210567 L0,19.3168454 C0,20.3826531 0.839084635,21.25 1.87431892,21.25 L28.1256811,21.25 C29.1609154,21.25 30,20.3826531 30,19.3168454 L30,13.5210567 C28.4453324,13.5210567 27.1885216,12.2237115 27.1885216,10.625 C27.1848892,9.02261328 28.4453324,7.72894327 30,7.72894327 Z M28.1220487,15.0462643 L28.1220487,18.3502681 C28.1220487,18.8831719 27.7043226,19.3168454 27.1848892,19.3168454 L10.3123865,19.3168454 L10.3123865,17.868817 C10.3123865,17.6005275 10.1017072,17.387366 9.84380676,17.387366 L8.90664729,17.387366 C8.64874682,17.387366 8.43806756,17.6042027 8.43806756,17.868817 L8.43806756,19.3168454 L2.81147839,19.3168454 C2.29204504,19.3168454 1.87431892,18.8831719 1.87431892,18.3502681 L1.87431892,15.0462643 C3.52706139,14.3001989 4.68579731,12.602257 4.68579731,10.625 C4.68579731,8.6440678 3.52706139,6.94980111 1.87431892,6.20373573 L1.87431892,2.89973193 C1.87431892,2.36682809 2.29204504,1.93315462 2.81147839,1.93315462 L8.43806756,1.93315462 L8.43806756,3.38118298 C8.43806756,3.6457973 8.64874682,3.86263404 8.90664729,3.86263404 L9.84017436,3.86263404 C10.0980748,3.86263404 10.3087541,3.6457973 10.3087541,3.38118298 L10.3087541,1.93315462 L27.1848892,1.93315462 C27.7043226,1.93315462 28.1220487,2.36682809 28.1220487,2.89973193 L28.1220487,6.20373573 C26.4693062,6.94980111 25.3105703,8.6440678 25.3105703,10.625 C25.3105703,12.602257 26.4693062,14.3001989 28.1220487,15.0462643 Z" id="Shape" fill="#FFFFFF"></path>
                        <path d="M10.167982,14.7473354 L9.22266065,14.7473354 C8.96251409,14.7473354 8.75,14.5508184 8.75,14.3110011 L8.75,11.6863342 C8.75,11.4431861 8.96251409,11.25 9.22266065,11.25 L10.167982,11.25 C10.4281285,11.25 10.6406426,11.4465169 10.6406426,11.6863342 L10.6406426,14.3110011 C10.6406426,14.5508184 10.4317926,14.7473354 10.167982,14.7473354 Z M10.167982,9.74733536 L9.22266065,9.74733536 C8.96251409,9.74733536 8.75,9.55081842 8.75,9.31100114 L8.75,6.68633422 C8.75,6.44318614 8.96251409,6.25 9.22266065,6.25 L10.167982,6.25 C10.4281285,6.25 10.6406426,6.44651694 10.6406426,6.68633422 L10.6406426,9.31100114 C10.6406426,9.55081842 10.4317926,9.74733536 10.167982,9.74733536 Z M23.2998873,10.9121622 L24.9743517,10.9121622 L24.9743517,11.5250285 L23.2998873,11.5250285 L23.2998873,10.9121622 Z M21.651071,6.47554244 L24.9743517,6.47554244 L24.9743517,7.08840883 L21.651071,7.08840883 L21.651071,6.47554244 Z M24.9743517,9.20346403 L21.3249718,9.20346403 L21.3249718,8.59059764 L25,8.59059764 L25,9.20346403 L24.9743517,9.20346403 Z" id="Shape" fill="#FFFFFF"></path>
                        <path d="M20.9396909,14.3734355 L20.9391373,14.3567683 C20.8776918,12.5068 19.7373671,10.9189109 18.112611,10.3449864 L17.5327177,10.1401464 L18.0511168,9.80924152 C18.7306398,9.37548792 19.1464237,8.58833333 19.1404589,7.73695028 C19.1404589,6.41699526 18.1600476,5.43487442 16.875,5.43487442 C15.5919117,5.43487442 14.5951764,6.41286453 14.5951764,7.73695028 C14.5951764,8.57828608 15.0222696,9.36621225 15.692653,9.81236892 L16.1981313,10.1487772 L15.6238205,10.345871 C13.9842144,10.9085562 12.8498888,12.5131554 12.8,14.3468095 C12.8,14.4460665 12.8353345,14.5372123 12.898777,14.6028235 C12.9583242,14.6661739 13.0358197,14.6999857 13.1173004,14.6999857 L20.6982091,14.700002 C20.7149081,14.7001761 20.7919882,14.6351759 20.8664314,14.5158944 C20.8971267,14.4667109 20.9231858,14.4150441 20.9396909,14.3734355 Z M17.0155879,10.8815442 L16.8845014,10.6893633 L16.7527425,10.88253 L16.8060309,10.920097 C16.7593898,10.9862571 17.0075014,10.9839551 16.9620966,10.9188487 L17.0155879,10.8815442 Z M16.517442,11.2160139 L16.1957689,10.7444211 L16.3156406,10.5743842 C16.5066875,10.303386 17.2595033,10.2964014 17.4542375,10.5756325 L17.572599,10.7453521 L17.2515608,11.2160139 L17.7431299,13.9454592 L16.8845014,14.8929687 L16.0258729,13.9454592 L16.517442,11.2160139 Z" id="Shape" stroke="#FFFFFF" stroke-width="0.6"></path>
                    </g>
                </g>
            </g>
        </g>
    </g>
</svg>