<svg id="图层_1" data-name="图层 1" xmlns="http://www.w3.org/2000/svg" xmlns:xlink="http://www.w3.org/1999/xlink" viewBox="0 0 155.5 77.75"><defs><style>.cls-1{fill:none;}.cls-2{fill:#5a6cb1;}.cls-3{clip-path:url(#clip-path);}</style><clipPath id="clip-path"><path class="cls-1" d="M-165.49,35.51a.42.42,0,0,0-.43.43v5.79a.42.42,0,0,0,.43.43h2.11a3.41,3.41,0,0,0,3.52-3.35,3.44,3.44,0,0,0-3.52-3.36h-2.11Zm1.35,8.33h-.92v.81a.28.28,0,0,1-.27.27h-.54a.28.28,0,0,1-.27-.27v-.81h-1a.43.43,0,0,1-.43-.43V34.26a.43.43,0,0,1,.43-.43h1V33a.29.29,0,0,1,.27-.27h.6A.29.29,0,0,1-165,33v.81h1V33a.29.29,0,0,1,.27-.27h.6a.29.29,0,0,1,.27.27v.81a5.18,5.18,0,0,1,4.92,5,5.19,5.19,0,0,1-4.92,5v.81a.29.29,0,0,1-.27.27h-.6a.29.29,0,0,1-.27-.27V43.9h-.11Z"/></clipPath></defs><title>qzzb</title><polygon class="cls-2" points="13.18 35.86 13.18 33.76 17.6 33.76 17.6 32.92 13.18 32.92 13.18 26.81 12.33 26.81 12.33 32.92 7.91 32.92 7.91 33.76 12.33 33.76 12.33 35.86 0.96 35.86 0.96 36.71 24.54 36.71 24.54 35.86 13.18 35.86"/><path class="cls-1" d="M8.2,46.07l0,0a23.32,23.32,0,0,0,.19-7.56l-.08-.57.57.1a33.36,33.36,0,0,0,4.14.41A32.86,32.86,0,0,0,17.18,38l.57-.1-.08.57a26.23,26.23,0,0,0,1,10.88,11.78,11.78,0,0,0-1-20.75,1.83,1.83,0,0,1-1.83,1.81h-6A1.83,1.83,0,0,1,8,28.6v-.17a11.78,11.78,0,0,0-.7,21.35,29.24,29.24,0,0,0,.92-3.67Z"/><path class="cls-1" d="M17,45.51a23.89,23.89,0,0,1-.21-6.58,27.74,27.74,0,0,1-3.7.34,28.23,28.23,0,0,1-3.72-.34,24.66,24.66,0,0,1-.16,6.64C12.15,44.33,15.73,45.16,17,45.51Z"/><path class="cls-2" d="M25.28,39.27a12.59,12.59,0,0,0-7.84-11.68l-.59-.24V28.6a1,1,0,0,1-1,1h-6a1,1,0,0,1-1-1V27.21l-.57.21A12.62,12.62,0,0,0,7,50.59q.13-.37.27-.81A11.78,11.78,0,0,1,8,28.43v.17a1.83,1.83,0,0,0,1.83,1.83h6a1.83,1.83,0,0,0,1.83-1.81,11.78,11.78,0,0,1,1,20.75c.09.29.17.57.26.83A12.64,12.64,0,0,0,25.28,39.27Z"/><path class="cls-2" d="M9,46.59c3.29-1.74,8-.2,8.13-.15A33.49,33.49,0,0,0,18,49.79c.25-.13.51-.27.75-.42a26.23,26.23,0,0,1-1-10.88l.08-.57-.57.1a32.86,32.86,0,0,1-4.12.41A33.36,33.36,0,0,1,8.92,38l-.57-.1.08.57a23.32,23.32,0,0,1-.19,7.56l0,0,0,0a29.24,29.24,0,0,1-.92,3.67c.25.13.51.25.77.36A29.69,29.69,0,0,0,9,46.59Zm.34-7.66a28.23,28.23,0,0,0,3.72.34,27.74,27.74,0,0,0,3.7-.34A23.89,23.89,0,0,0,17,45.51c-1.24-.35-4.82-1.18-7.79.06A24.66,24.66,0,0,0,9.34,38.93Z"/><path class="cls-2" d="M18,49.79c.08.28.17.55.25.81.26-.12.51-.26.76-.4-.09-.26-.17-.54-.26-.83C18.47,49.52,18.21,49.66,18,49.79Z"/><path class="cls-2" d="M8.08,50.14c-.26-.11-.52-.23-.77-.36q-.13.44-.27.81l.77.35C7.9,50.69,8,50.42,8.08,50.14Z"/><polygon class="cls-2" points="13.18 35.79 13.18 33.69 17.6 33.69 17.6 32.85 13.18 32.85 13.18 26.74 12.33 26.74 12.33 32.85 7.91 32.85 7.91 33.69 12.33 33.69 12.33 35.79 0.96 35.79 0.96 36.63 24.54 36.63 24.54 35.79 13.18 35.79"/><path class="cls-1" d="M8.2,46l0,0a23.32,23.32,0,0,0,.19-7.56l-.08-.57.57.1a33.36,33.36,0,0,0,4.14.41A32.86,32.86,0,0,0,17.18,38l.57-.1-.08.57a26.23,26.23,0,0,0,1,10.88,11.78,11.78,0,0,0-1-20.75,1.83,1.83,0,0,1-1.83,1.81h-6A1.83,1.83,0,0,1,8,28.53v-.17a11.78,11.78,0,0,0-.7,21.35A29.24,29.24,0,0,0,8.23,46Z"/><path class="cls-1" d="M17,45.44a23.89,23.89,0,0,1-.21-6.58,27.74,27.74,0,0,1-3.7.34,28.23,28.23,0,0,1-3.72-.34,24.66,24.66,0,0,1-.16,6.64C12.15,44.26,15.73,45.08,17,45.44Z"/><path class="cls-2" d="M25.28,39.2a12.59,12.59,0,0,0-7.84-11.68l-.59-.24v1.25a1,1,0,0,1-1,1h-6a1,1,0,0,1-1-1V27.14l-.57.21A12.62,12.62,0,0,0,7,50.52c.09-.26.18-.52.27-.81A11.78,11.78,0,0,1,8,28.36v.17a1.83,1.83,0,0,0,1.83,1.83h6a1.83,1.83,0,0,0,1.83-1.81,11.78,11.78,0,0,1,1,20.75c.09.29.17.57.26.83A12.64,12.64,0,0,0,25.28,39.2Z"/><path class="cls-2" d="M9,46.52c3.29-1.74,8-.2,8.13-.15A33.49,33.49,0,0,0,18,49.72c.25-.13.51-.27.75-.42a26.23,26.23,0,0,1-1-10.88l.08-.57-.57.1a32.86,32.86,0,0,1-4.12.41A33.36,33.36,0,0,1,8.92,38l-.57-.1.08.57A23.32,23.32,0,0,1,8.24,46l0,0,0,0a29.24,29.24,0,0,1-.92,3.67c.25.13.51.25.77.36A29.69,29.69,0,0,0,9,46.52Zm.34-7.66a28.23,28.23,0,0,0,3.72.34,27.74,27.74,0,0,0,3.7-.34A23.89,23.89,0,0,0,17,45.44c-1.24-.36-4.82-1.18-7.79.06A24.66,24.66,0,0,0,9.34,38.86Z"/><path class="cls-2" d="M18,49.72c.08.28.17.55.25.81.26-.12.51-.26.76-.4-.09-.26-.17-.54-.26-.83C18.47,49.45,18.21,49.59,18,49.72Z"/><path class="cls-2" d="M8.08,50.07c-.26-.11-.52-.23-.77-.36-.09.29-.18.55-.27.81l.77.35C7.9,50.62,8,50.35,8.08,50.07Z"/><path class="cls-2" d="M35.9,36.74a4.07,4.07,0,0,1-3.2-1.34,5,5,0,0,1-1.2-3.47,5.24,5.24,0,0,1,1.23-3.64,4.26,4.26,0,0,1,3.35-1.36,4,4,0,0,1,3.1,1.31,4.92,4.92,0,0,1,1.19,3.45,5.29,5.29,0,0,1-1.22,3.7,3.48,3.48,0,0,1-.84.7l2.31,1.75h-1.1l-1.8-1.43A4.8,4.8,0,0,1,35.9,36.74ZM36,27.53a3.5,3.5,0,0,0-2.73,1.2,4.52,4.52,0,0,0-1.07,3.13,4.58,4.58,0,0,0,1,3.12,3.4,3.4,0,0,0,2.7,1.16A3.55,3.55,0,0,0,38.67,35a4.61,4.61,0,0,0,1-3.2,4.53,4.53,0,0,0-1-3.13A3.45,3.45,0,0,0,36,27.53Z"/><path class="cls-2" d="M42.22,36.57V27.09h.65v9.48Z"/><path class="cls-2" d="M52,36.57l-5.65-7.66a5.31,5.31,0,0,1-.31-.46L46,28.31h0a2.68,2.68,0,0,1,0,.42v7.84h-.65V27.09h.5l5.61,7.6a6.39,6.39,0,0,1,.41.61h0c0-.31,0-.58,0-.8V27.09h.65v9.48Z"/><path class="cls-2" d="M61.78,35.91a6.12,6.12,0,0,1-3,.83,4,4,0,0,1-3.13-1.32A4.93,4.93,0,0,1,54.42,32a5.2,5.2,0,0,1,1.29-3.6,4.4,4.4,0,0,1,3.45-1.44,6.17,6.17,0,0,1,2.42.5v.72a5.81,5.81,0,0,0-2.52-.62,3.7,3.7,0,0,0-2.88,1.22,4.53,4.53,0,0,0-1.09,3.12,4.48,4.48,0,0,0,1,3.13,3.51,3.51,0,0,0,2.75,1.14,4.42,4.42,0,0,0,2.25-.56V32.45H58.89v-.59h2.89Z"/><path class="cls-2" d="M64.17,36h5.68v.59H63.18v-.2l5.75-8.68H63.64v-.6h6.3v.18Z"/><path class="cls-2" d="M77.77,36.57V32H72.34v4.55h-.65V27.09h.65v4.34h5.43V27.09h.65v9.48Z"/><path class="cls-2" d="M80.86,36.57V27.09h4.43v.6H81.52V31.5H85v.59h-3.5V36h4v.59Z"/><path class="cls-2" d="M94.35,36.57,88.7,28.91a5.31,5.31,0,0,1-.31-.46l-.08-.14h0c0,.12,0,.26,0,.42v7.84h-.66V27.09h.5l5.62,7.6c.12.16.25.37.4.61h0c0-.31,0-.58,0-.8V27.09h.65v9.48Z"/><path class="cls-2" d="M104.11,35.91a6.12,6.12,0,0,1-3,.83A4,4,0,0,1,98,35.42,4.93,4.93,0,0,1,96.75,32,5.2,5.2,0,0,1,98,28.37a4.4,4.4,0,0,1,3.45-1.44,6.25,6.25,0,0,1,2.43.5v.72a5.84,5.84,0,0,0-2.52-.62,3.7,3.7,0,0,0-2.89,1.22,4.52,4.52,0,0,0-1.08,3.12,4.52,4.52,0,0,0,1,3.13,3.52,3.52,0,0,0,2.76,1.14,4.47,4.47,0,0,0,2.25-.56V32.45h-2.24v-.59h2.89Z"/><path class="cls-2" d="M32.38,50.35h5v.53H31.5V50.7L36.6,43H31.91v-.53H37.5v.15Z"/><path class="cls-2" d="M39,50.88V42.47h.59v8.41Z"/><path class="cls-2" d="M41.78,50.88V42.47H44a2.21,2.21,0,0,1,1.57.53,1.83,1.83,0,0,1,.59,1.41,2.08,2.08,0,0,1-.39,1.27,2.14,2.14,0,0,1-1.09.77v0a2,2,0,0,1,1.38.62,1.93,1.93,0,0,1,.51,1.38,2.33,2.33,0,0,1-.69,1.74,2.54,2.54,0,0,1-1.83.67ZM42.37,43v3.26h1.17A2.17,2.17,0,0,0,45,45.79a1.6,1.6,0,0,0,.56-1.28c0-1-.6-1.51-1.79-1.51Zm0,3.78v3.57h1.56a2.16,2.16,0,0,0,1.51-.48A1.71,1.71,0,0,0,46,48.52c0-1.16-.79-1.74-2.36-1.74Z"/><path class="cls-2" d="M48.32,50.88V42.47h3.93V43H48.9v3.37H52v.53H48.9v3.45h3.54v.53Z"/><path class="cls-2" d="M60.29,50.88l-5-6.8a4.29,4.29,0,0,1-.28-.41l-.07-.12h0c0,.1,0,.23,0,.37v7h-.58V42.47h.44l5,6.73c.11.15.23.33.36.55h0c0-.28,0-.51,0-.71V42.47h.57v8.41Z"/></svg>