<?xml version="1.0" encoding="UTF-8"?>
<svg width="105px" height="25px" viewBox="0 0 105 25" version="1.1" xmlns="http://www.w3.org/2000/svg" xmlns:xlink="http://www.w3.org/1999/xlink">
    <!-- Generator: Sketch 50.2 (55047) - http://www.bohemiancoding.com/sketch -->
    <title>qzzb</title>
    <desc>Created with Sketch.</desc>
    <defs></defs>
    <g id="Page-1" stroke="none" stroke-width="1" fill="none" fill-rule="evenodd">
        <g id="G.55.com" transform="translate(-591.000000, -1723.000000)">
            <g id="Our-Lovely-Partners-" transform="translate(79.000000, 1548.000000)">
                <g id="Group-3" transform="translate(70.000000, 174.000000)">
                    <g id="qzzb" transform="translate(441.000000, 1.000000)">
                        <polygon id="Shape" fill="#FFFFFF" fill-rule="nonzero" points="14.18 9.86 14.18 7.76 18.6 7.76 18.6 6.92 14.18 6.92 14.18 0.81 13.33 0.81 13.33 6.92 8.91 6.92 8.91 7.76 13.33 7.76 13.33 9.86 1.96 9.86 1.96 10.71 25.54 10.71 25.54 9.86"></polygon>
                        <path d="M9.2,20.07 C9.67423539,17.577122 9.73841239,15.023553 9.39,12.51 L9.31,11.94 L9.88,12.04 C11.250126,12.2626658 12.632814,12.3995986 14.02,12.45 C15.4148185,12.3885284 16.8043014,12.2382238 18.18,12 L18.75,11.9 L18.67,12.47 C18.2359377,16.1266549 18.5766616,19.8337312 19.67,23.35 C23.3982009,21.1183071 25.5951682,17.0155009 25.3860083,12.6754333 C25.1768484,8.33536572 22.5955277,4.46283848 18.67,2.6 C18.6590391,3.60286195 17.8429218,4.4100599 16.84,4.41 L10.84,4.41 C9.83318403,4.41556177 9.01098826,3.60677136 9,2.6 L9,2.43 C4.78458987,4.22551093 1.9927335,8.3023959 1.8425889,12.8818062 C1.6924443,17.4612165 4.21125509,21.7122217 8.3,23.78 C8.68557566,22.5778111 8.99288551,21.3519121 9.22,20.11 L9.2,20.07 Z" id="Shape"></path>
                        <path d="M18,19.51 C17.6266797,17.3368677 17.5560088,15.1225146 17.79,12.93 C16.5656514,13.1258972 15.3295459,13.2394853 14.09,13.27 C12.8438534,13.2389218 11.6011334,13.1253399 10.37,12.93 C10.6163443,15.1404213 10.5625229,17.3740092 10.21,19.57 C13.15,18.33 16.73,19.16 18,19.51 Z" id="Shape"></path>
                        <path d="M26.28,13.27 C26.2883155,8.1436139 23.1875438,3.52409699 18.44,1.59 L17.85,1.35 L17.85,2.6 C17.85,3.15228475 17.4022847,3.6 16.85,3.6 L10.85,3.6 C10.2977153,3.6 9.85,3.15228475 9.85,2.6 L9.85,1.21 L9.28,1.42 C4.53348936,3.14771412 1.27440603,7.53922026 0.995784565,12.5827041 C0.717163101,17.626188 3.47268316,22.3499639 8,24.59 C8.08666667,24.3433333 8.17666667,24.0733333 8.27,23.78 C4.18356793,21.7067029 1.67024346,17.4518402 1.82683019,12.8722148 C1.98341691,8.29258944 4.78149669,4.21933441 9,2.43 L9,2.6 C9,3.61068109 9.81931891,4.43 10.83,4.43 L16.83,4.43 C17.8329218,4.4300599 18.6490391,3.62286195 18.66,2.62 C22.5855277,4.48283848 25.1668484,8.35536572 25.3760083,12.6954333 C25.5851682,17.0355009 23.3882009,21.1383071 19.66,23.37 C19.75,23.66 19.83,23.94 19.92,24.2 C23.8411101,21.9552196 26.2658472,17.7881792 26.28,13.27 Z" id="Shape" fill="#FFFFFF" fill-rule="nonzero"></path>
                        <path d="M10,20.59 C13.29,18.85 18,20.39 18.13,20.44 C18.3620649,21.5709157 18.6524526,22.6890753 19,23.79 C19.25,23.66 19.51,23.52 19.75,23.37 C18.6566616,19.8537312 18.3159377,16.1466549 18.75,12.49 L18.83,11.92 L18.26,12.02 C16.8966506,12.2431366 15.5205865,12.380075 14.14,12.43 C12.7256357,12.3763339 11.3161204,12.2327103 9.92,12 L9.35,11.9 L9.43,12.47 C9.77841239,14.983553 9.71423539,17.537122 9.24,20.03 C9.01288551,21.2719121 8.70557566,22.4978111 8.32,23.7 C8.57,23.83 8.83,23.95 9.09,24.06 C9.46299792,22.9227328 9.76688582,21.7639515 10,20.59 Z M10.34,12.93 C11.5711334,13.1253399 12.8138534,13.2389218 14.06,13.27 C15.2995459,13.2394853 16.5356514,13.1258972 17.76,12.93 C17.535913,15.1238975 17.61668,17.3382572 18,19.51 C16.76,19.16 13.18,18.33 10.21,19.57 C10.5525389,17.3726538 10.5962687,15.1390699 10.34,12.93 Z" id="Shape" fill="#FFFFFF" fill-rule="nonzero"></path>
                        <path d="M19,23.79 C19.08,24.07 19.17,24.34 19.25,24.6 C19.51,24.48 19.76,24.34 20.01,24.2 C19.92,23.94 19.84,23.66 19.75,23.37 C19.47,23.52 19.21,23.66 19,23.79 Z" id="Shape" fill="#FFFFFF" fill-rule="nonzero"></path>
                        <path d="M9.08,24.14 C8.82,24.03 8.56,23.91 8.31,23.78 C8.22333333,24.0733333 8.13333333,24.3433333 8.04,24.59 L8.81,24.94 C8.9,24.69 9,24.42 9.08,24.14 Z" id="Shape" fill="#FFFFFF" fill-rule="nonzero"></path>
                        <polygon id="Shape" fill="#FFFFFF" fill-rule="nonzero" points="14.18 9.79 14.18 7.69 18.6 7.69 18.6 6.85 14.18 6.85 14.18 0.74 13.33 0.74 13.33 6.85 8.91 6.85 8.91 7.69 13.33 7.69 13.33 9.79 1.96 9.79 1.96 10.63 25.54 10.63 25.54 9.79"></polygon>
                        <path d="M9.2,20 C9.67423539,17.507122 9.73841239,14.953553 9.39,12.44 L9.31,11.87 L9.88,11.97 C11.250126,12.1926658 12.632814,12.3295986 14.02,12.38 C15.4133226,12.3416906 16.8027961,12.2147675 18.18,12 L18.75,11.9 L18.67,12.47 C18.2359377,16.1266549 18.5766616,19.8337312 19.67,23.35 C23.3982009,21.1183071 25.5951682,17.0155009 25.3860083,12.6754333 C25.1768484,8.33536572 22.5955277,4.46283848 18.67,2.6 C18.6590391,3.60286195 17.8429218,4.4100599 16.84,4.41 L10.84,4.41 C10.3441329,4.41289506 9.86831877,4.21443537 9.52147212,3.86004857 C9.17462546,3.50566176 8.98644304,3.02569024 9,2.53 L9,2.36 C4.78458987,4.15551093 1.9927335,8.2323959 1.8425889,12.8118062 C1.6924443,17.3912165 4.21125509,21.6422217 8.3,23.71 C8.69063659,22.4949554 9.00130104,21.2556381 9.23,20 L9.2,20 Z" id="Shape"></path>
                        <path d="M18,19.44 C17.6266797,17.2668677 17.5560088,15.0525146 17.79,12.86 C16.5656514,13.0558972 15.3295459,13.1694853 14.09,13.2 C12.8438534,13.1689218 11.6011334,13.0553399 10.37,12.86 C10.6163443,15.0704213 10.5625229,17.3040092 10.21,19.5 C13.15,18.26 16.73,19.08 18,19.44 Z" id="Shape"></path>
                        <path d="M26.28,13.2 C26.2883155,8.0736139 23.1875438,3.45409699 18.44,1.52 L17.85,1.28 L17.85,2.53 C17.85,3.08228475 17.4022847,3.53 16.85,3.53 L10.85,3.53 C10.2977153,3.53 9.85,3.08228475 9.85,2.53 L9.85,1.14 L9.28,1.35 C4.53348936,3.07771412 1.27440603,7.46922026 0.995784565,12.5127041 C0.717163101,17.556188 3.47268316,22.2799639 8,24.52 C8.09,24.26 8.18,24 8.27,23.71 C4.18356793,21.6367029 1.67024346,17.3818402 1.82683019,12.8022148 C1.98341691,8.22258944 4.78149669,4.14933441 9,2.36 L9,2.53 C9,3.01534618 9.19280302,3.48081384 9.53599459,3.82400541 C9.87918616,4.16719698 10.3446538,4.36 10.83,4.36 L16.83,4.36 C17.8329218,4.3600599 18.6490391,3.55286195 18.66,2.55 C22.5855277,4.41283848 25.1668484,8.28536572 25.3760083,12.6254333 C25.5851682,16.9655009 23.3882009,21.0683071 19.66,23.3 C19.75,23.59 19.83,23.87 19.92,24.13 C23.8411101,21.8852196 26.2658472,17.7181792 26.28,13.2 Z" id="Shape" fill="#FFFFFF" fill-rule="nonzero"></path>
                        <path d="M10,20.52 C13.29,18.78 18,20.32 18.13,20.37 C18.3620649,21.5009157 18.6524526,22.6190753 19,23.72 C19.25,23.59 19.51,23.45 19.75,23.3 C18.6566616,19.7837312 18.3159377,16.0766549 18.75,12.42 L18.83,11.85 L18.26,11.95 C16.8966506,12.1731366 15.5205865,12.310075 14.14,12.36 C12.7271281,12.3295052 11.3176215,12.209263 9.92,12 L9.35,11.9 L9.43,12.47 C9.77513038,14.9737122 9.71096015,17.5168797 9.24,20 C9.01288551,21.2419121 8.70557566,22.4678111 8.32,23.67 C8.57,23.8 8.83,23.92 9.09,24.03 C9.4645629,22.8796331 9.76846285,21.7074476 10,20.52 Z M10.34,12.86 C11.5711334,13.0553399 12.8138534,13.1689218 14.06,13.2 C15.2995459,13.1694853 16.5356514,13.0558972 17.76,12.86 C17.535913,15.0538975 17.61668,17.2682572 18,19.44 C16.76,19.08 13.18,18.26 10.21,19.5 C10.5525389,17.3026538 10.5962687,15.0690699 10.34,12.86 Z" id="Shape" fill="#FFFFFF" fill-rule="nonzero"></path>
                        <path d="M19,23.72 C19.08,24 19.17,24.27 19.25,24.53 C19.51,24.41 19.76,24.27 20.01,24.13 C19.92,23.87 19.84,23.59 19.75,23.3 C19.47,23.45 19.21,23.59 19,23.72 Z" id="Shape" fill="#FFFFFF" fill-rule="nonzero"></path>
                        <path d="M9.08,24.07 C8.82,23.96 8.56,23.84 8.31,23.71 C8.22,24 8.13,24.26 8.04,24.52 L8.81,24.87 C8.9,24.62 9,24.35 9.08,24.07 Z" id="Shape" fill="#FFFFFF" fill-rule="nonzero"></path>
                        <path d="M36.9,10.74 C35.686844,10.7930714 34.5133565,10.3016735 33.7,9.4 C32.874421,8.4373676 32.4454727,7.19699194 32.5,5.93 C32.4343305,4.60469556 32.8739086,3.30383032 33.73,2.29 C34.5893668,1.36178107 35.816799,0.863480256 37.08,0.93 C38.2556928,0.889571608 39.3895742,1.36872796 40.18,2.24 C41.0042831,3.19491877 41.4302859,4.42996902 41.37,5.69 C41.4488377,7.0336261 41.0125549,8.35677904 40.15,9.39 C39.9086357,9.66613914 39.625137,9.90238804 39.31,10.09 L41.62,11.84 L40.52,11.84 L38.72,10.41 C38.1404654,10.6369544 37.5223239,10.749035 36.9,10.74 Z M37,1.53 C35.9565926,1.50292417 34.9555473,1.94294412 34.27,2.73 C33.5306641,3.6006597 33.148374,4.71894759 33.2,5.86 C33.1372187,6.98772734 33.4933582,8.0988826 34.2,8.98 C34.8778012,9.75572146 35.8707443,10.1823192 36.9,10.14 C37.9462927,10.1872225 38.9600419,9.77001165 39.67,9 C40.3931313,8.09663959 40.7500913,6.95436747 40.67,5.8 C40.7401439,4.66828309 40.3833155,3.55141038 39.67,2.67 C38.9909847,1.91580003 38.0143503,1.49881003 37,1.53 Z" id="Shape" fill="#FFFFFF" fill-rule="nonzero"></path>
                        <polygon id="Shape" fill="#FFFFFF" fill-rule="nonzero" points="43.22 10.57 43.22 1.09 43.87 1.09 43.87 10.57"></polygon>
                        <path d="M53,10.57 L47.35,2.91 C47.2387228,2.76217242 47.1352483,2.60862963 47.04,2.45 L47,2.31 C47.010987,2.44978444 47.010987,2.59021556 47,2.73 L47,10.57 L46.35,10.57 L46.35,1.09 L46.85,1.09 L52.46,8.69 C52.6082569,8.88529866 52.74515,9.08896881 52.87,9.3 C52.87,8.99 52.87,8.72 52.87,8.5 L52.87,1.09 L53.52,1.09 L53.52,10.57 L53,10.57 Z" id="Shape" fill="#FFFFFF" fill-rule="nonzero"></path>
                        <path d="M62.78,9.91 C61.8682465,10.4405985 60.834821,10.7265129 59.78,10.74 C58.5923713,10.7868736 57.4454061,10.3031694 56.65,9.42 C55.819416,8.47824456 55.3794925,7.25504275 55.42,6 C55.3771254,4.67970734 55.838344,3.39258587 56.71,2.4 C57.5887712,1.43102592 58.8531204,0.903297577 60.16,0.96 C60.9921302,0.961771835 61.8153036,1.13184898 62.58,1.46 L62.58,2.18 C61.7974903,1.78597604 60.9360021,1.57402258 60.06,1.56 C58.9668597,1.52096479 57.9124697,1.96761607 57.18,2.78 C56.4367216,3.64562327 56.0474587,4.75984355 56.09,5.9 C56.0148754,7.03233053 56.3722706,8.15097747 57.09,9.03 C57.7921488,9.79915723 58.7996029,10.2167927 59.84,10.17 C60.6264701,10.1868816 61.4031961,9.99356309 62.09,9.61 L62.09,6.45 L59.89,6.45 L59.89,5.86 L62.78,5.86 L62.78,9.91 Z" id="Shape" fill="#FFFFFF" fill-rule="nonzero"></path>
                        <polygon id="Shape" fill="#FFFFFF" fill-rule="nonzero" points="65.17 10 70.85 10 70.85 10.59 64.18 10.59 64.18 10.39 69.93 1.71 64.64 1.71 64.64 1.11 70.94 1.11 70.94 1.29"></polygon>
                        <polygon id="Shape" fill="#FFFFFF" fill-rule="nonzero" points="78.77 10.57 78.77 6 73.34 6 73.34 10.55 72.69 10.55 72.69 1.09 73.34 1.09 73.34 5.43 78.77 5.43 78.77 1.09 79.42 1.09 79.42 10.57"></polygon>
                        <polygon id="Shape" fill="#FFFFFF" fill-rule="nonzero" points="81.86 10.57 81.86 1.09 86.29 1.09 86.29 1.69 82.52 1.69 82.52 5.5 86 5.5 86 6.09 82.5 6.09 82.5 10 86.5 10 86.5 10.59"></polygon>
                        <path d="M95.35,10.57 L89.7,2.91 C89.5887228,2.76217242 89.4852483,2.60862963 89.39,2.45 L89.31,2.31 C89.31,2.43 89.31,2.57 89.31,2.73 L89.31,10.57 L88.65,10.57 L88.65,1.09 L89.15,1.09 L94.77,8.69 C94.89,8.85 95.02,9.06 95.17,9.3 C95.17,8.99 95.17,8.72 95.17,8.5 L95.17,1.09 L95.82,1.09 L95.82,10.57 L95.35,10.57 Z" id="Shape" fill="#FFFFFF" fill-rule="nonzero"></path>
                        <path d="M105.11,9.91 C104.198247,10.4405985 103.164821,10.7265129 102.11,10.74 C100.929266,10.7808767 99.7908583,10.297694 99,9.42 C98.162175,8.48128098 97.7149754,7.257743 97.75,6 C97.6883857,4.67485166 98.1355595,3.37625892 99,2.37 C99.8787712,1.40102592 101.14312,0.873297577 102.45,0.93 C103.285273,0.932614298 104.111549,1.10262987 104.88,1.43 L104.88,2.15 C104.097131,1.75694938 103.235869,1.54505148 102.36,1.53 C101.263412,1.48796776 100.204745,1.93487942 99.47,2.75 C98.7294562,3.61660787 98.3436974,4.73102221 98.39,5.87 C98.31887,7.00183926 98.6758101,8.11906165 99.39,9 C100.095244,9.77074515 101.106413,10.1884018 102.15,10.14 C102.936201,10.1544855 103.712311,9.96132025 104.4,9.58 L104.4,6.45 L102.16,6.45 L102.16,5.86 L105.05,5.86 L105.11,9.91 Z" id="Shape" fill="#FFFFFF" fill-rule="nonzero"></path>
                        <polygon id="Shape" fill="#FFFFFF" fill-rule="nonzero" points="33.38 24.35 38.38 24.35 38.38 24.88 32.5 24.88 32.5 24.7 37.6 17 32.91 17 32.91 16.47 38.5 16.47 38.5 16.62"></polygon>
                        <polygon id="Shape" fill="#FFFFFF" fill-rule="nonzero" points="40 24.88 40 16.47 40.59 16.47 40.59 24.88"></polygon>
                        <path d="M42.78,24.88 L42.78,16.47 L45,16.47 C45.5722653,16.4363587 46.1352118,16.626398 46.57,17 C46.9629261,17.3614363 47.1784235,17.8764386 47.16,18.41 C47.1723256,18.8645841 47.035335,19.3106818 46.77,19.68 C46.4980321,20.0462918 46.1161217,20.3160817 45.68,20.45 C46.2034362,20.4680023 46.698925,20.6906132 47.06,21.07 C47.4055362,21.4446211 47.588872,21.9407063 47.57,22.45 C47.5933255,23.10095 47.3431037,23.7319443 46.88,24.19 C46.3833467,24.6477668 45.7248196,24.8888668 45.05,24.86 L42.78,24.88 Z M43.37,17 L43.37,20.26 L44.54,20.26 C45.0676538,20.2862825 45.5867723,20.119169 46,19.79 C46.3729318,19.4716766 46.5793195,18.9999334 46.56,18.51 C46.56,17.51 45.96,17 44.77,17 L43.37,17 Z M43.37,20.78 L43.37,24.35 L44.93,24.35 C45.4759639,24.3870499 46.0156405,24.2154971 46.44,23.87 C46.8192588,23.5264583 47.0247313,23.0311228 47,22.52 C47,21.36 46.21,20.78 44.64,20.78 L43.37,20.78 Z" id="Shape" fill="#FFFFFF" fill-rule="nonzero"></path>
                        <polygon id="Shape" fill="#FFFFFF" fill-rule="nonzero" points="49.32 24.88 49.32 16.47 53.25 16.47 53.25 17 49.9 17 49.9 20.37 53 20.37 53 20.9 49.9 20.9 49.9 24.35 53.44 24.35 53.44 24.88"></polygon>
                        <path d="M61.29,24.88 L56.29,18.08 C56.18883,17.9488533 56.0953401,17.8119574 56.01,17.67 L55.94,17.55 C55.94,17.65 55.94,17.78 55.94,17.92 L55.94,24.92 L55.36,24.92 L55.36,16.47 L55.8,16.47 L60.8,23.2 C60.91,23.35 61.03,23.53 61.16,23.75 C61.16,23.47 61.16,23.24 61.16,23.04 L61.16,16.47 L61.73,16.47 L61.73,24.88 L61.29,24.88 Z" id="Shape" fill="#FFFFFF" fill-rule="nonzero"></path>
                    </g>
                </g>
            </g>
        </g>
    </g>
</svg>