<?xml version="1.0" encoding="UTF-8"?>
<svg width="101px" height="25px" viewBox="0 0 101 25" version="1.1" xmlns="http://www.w3.org/2000/svg" xmlns:xlink="http://www.w3.org/1999/xlink">
    <!-- Generator: Sketch 50.2 (55047) - http://www.bohemiancoding.com/sketch -->
    <title>redstar</title>
    <desc>Created with Sketch.</desc>
    <defs></defs>
    <g id="Page-1" stroke="none" stroke-width="1" fill="none" fill-rule="evenodd">
        <g id="G.55.com" transform="translate(-779.000000, -1722.000000)" fill="#FFFFFF" fill-rule="nonzero">
            <g id="Our-Lovely-Partners-" transform="translate(79.000000, 1548.000000)">
                <g id="Group-3" transform="translate(70.000000, 174.000000)">
                    <g id="redstar" transform="translate(629.000000, 0.000000)">
                        <path d="M51.66,2 C51.76,1.91 51.86,1.74 51.96,1.74 C54.0609792,1.671252 56.1641488,1.7179891 58.26,1.88 C60.64,2.15 61.92,3.88 62.01,6.26 C62.14,9.62 59.81,11.09 57.36,11.26 C55.5,11.36 53.64,11.26 51.77,11.26 C51.61,10.94 51.72,10.83 52.06,10.82 C52.91,10.82 53.06,10.65 53.06,9.82 L53.06,3.2 C53.06,2.28 52.94,2.2 52.06,2.13 L51.78,2.13 L51.66,2 Z M55,6.32 L55,9.57 C55,10.02 55.1,10.57 55.6,10.57 C56.6286934,10.8796946 57.7444005,10.6036433 58.51,9.85 C59.1089361,9.14409233 59.5275866,8.30335981 59.73,7.4 C60.1125591,6.20340601 59.9196389,4.89711623 59.2075164,3.86219099 C58.4953939,2.82726576 57.3442917,2.18029211 56.09,2.11 C55.24,2.05 55,2.26 55,3.11 C55,4.16 55,5.21 55,6.27 L55,6.32 Z" id="Shape"></path>
                        <path d="M41.18,10.68 L41.18,11.24 C40.2840303,11.2899981 39.3859697,11.2899981 38.49,11.24 C38.2,11.24 37.89,10.83 37.71,10.54 C37.33,9.92 37.04,9.24 36.71,8.61 C36.4995498,8.21157358 36.2298073,7.84742116 35.91,7.53 C35.596112,7.30493059 35.2612246,7.11069595 34.91,6.95 L34.91,10.47 C34.91,10.86 35.2,10.87 35.49,10.85 C35.78,10.83 36.01,10.85 35.88,11.26 L31.88,11.26 C31.79,10.99 31.88,10.86 32.17,10.84 C32.76,10.84 32.9,10.64 32.9,10.01 L32.9,3.28 C32.9,2.35 32.83,2.28 31.9,2.18 C31.8,1.94 31.81,1.79 32.13,1.79 L37.38,1.79 C38.4229464,1.93606977 39.2836725,2.67942412 39.58,3.69 C39.7364004,4.32251905 39.6196098,4.99165208 39.2581847,5.53378979 C38.8967595,6.07592749 38.3240177,6.44109303 37.68,6.54 C37.5682249,6.55399822 37.4578324,6.57741483 37.35,6.61 C37.44,6.75 37.49,6.85 37.56,6.95 L39.56,9.69 C39.93,10.22 40.31,10.83 41.18,10.68 Z M34.83,6.54 C36.0271605,6.80847865 37.2175344,6.06393772 37.5,4.87 C37.5147727,4.70032093 37.5147727,4.52967907 37.5,4.36 C37.6186549,3.28492337 36.8611103,2.31030461 35.79,2.16 C35.6075415,2.13467138 35.4224585,2.13467138 35.24,2.16 C35.08,2.16 34.8,2.41 34.8,2.54 C34.82,3.87 34.83,5.19 34.83,6.54 Z" id="Shape"></path>
                        <path d="M97.11,6.57 C97.99,7.71 98.82,8.81 99.66,9.89 C100.02,10.36 100.39,10.83 101.12,10.67 L101.12,11.24 C100.12,11.24 99.23,11.3 98.31,11.24 C98.04,11.24 97.75,10.83 97.58,10.57 C97.2,9.9 96.91,9.23 96.58,8.57 C96.2857364,7.87371236 95.6888382,7.35050531 94.96,7.15 C94.8535678,7.13999755 94.7464322,7.13999755 94.64,7.15 L94.64,10.36 C94.6284601,10.6674827 94.8630443,10.9286235 95.17,10.95 L95.31,10.95 C95.6,10.95 95.76,11.02 95.65,11.37 L91.78,11.37 C91.69,11.09 91.78,10.97 92.07,10.95 C92.66,10.95 92.81,10.75 92.81,10.16 L92.81,3.26 C92.81,2.53 92.69,2.43 91.97,2.26 C91.86,2.26 91.79,2.08 91.7,1.99 L91.78,1.85 L93.91,1.85 C94.85,1.85 95.79,1.85 96.72,1.85 C97.2202102,1.88854492 97.7087049,2.02084558 98.16,2.24 C99.1447379,2.58604011 99.6977842,3.63116693 99.43,4.64 C99.3038982,5.68790784 98.4779078,6.51389819 97.43,6.64 L97.11,6.57 Z M94.64,6.57 C95.8438704,6.85099417 97.0477823,6.10358415 97.33,4.9 C97.3699746,4.67173692 97.3699746,4.43826308 97.33,4.21 C97.3726224,3.66761921 97.1756388,3.13376822 96.7909353,2.74906471 C96.4062318,2.3643612 95.8723808,2.16737764 95.33,2.21 C94.87,2.21 94.59,2.42 94.59,2.88 C94.59,4.05 94.59,5.29 94.59,6.56 L94.64,6.57 Z" id="Shape"></path>
                        <path d="M45.3,2.15 L45.3,6.15 C45.8260374,6.10082342 46.345513,5.99692829 46.85,5.84 C47.1626149,5.65879401 47.3895398,5.35982944 47.48,5.01 C47.58,4.61 47.7,4.47 48.15,4.61 L48.15,7.81 C47.92,7.63 47.65,7.53 47.58,7.35 C47.3441944,6.73910231 46.7014083,6.38810724 46.06,6.52 L45.23,6.52 C45.3,7.82 45.34,9.06 45.46,10.29 C45.46,10.46 45.87,10.7 46.14,10.73 C47.4760259,11.080669 48.8924267,10.6006665 49.74,9.51 C49.9678815,9.23619168 50.2462641,9.0087328 50.56,8.84 C50.5508506,9.6444124 50.422799,10.4430504 50.18,11.21 L42.18,11.21 C42.07,10.89 42.18,10.8 42.49,10.79 C43.23,10.79 43.36,10.61 43.36,9.89 L43.36,3.51 C43.36,3.29 43.36,3.06 43.3,2.84 C43.2947984,2.47048708 42.9993953,2.17067497 42.63,2.16 L42.53,2.16 C42.4,2.16 42.27,2.02 42.14,1.95 C42.27,1.88 42.41,1.76 42.54,1.76 L49.34,1.76 C49.65,1.76 49.75,1.86 49.8,2.16 C49.9,2.83 50.04,3.45 50.17,4.09 L50.06,4.18 C49.8390776,4.04829847 49.6254328,3.9047559 49.42,3.75 C49.09,3.46 48.79,3.13 48.48,2.83 C48.0318504,2.36645934 47.4036181,2.12174097 46.76,2.16 L45.3,2.15 Z" id="Shape"></path>
                        <path d="M78.77,11.24 L74.36,11.24 C74.25,10.93 74.36,10.83 74.66,10.81 C75.38,10.75 75.51,10.65 75.51,9.9 L75.51,2.32 C74.76,2.32 73.97,2.1 73.35,2.55 C72.7851944,3.04498722 72.2633291,3.58692425 71.79,4.17 C71.41,3.01 72.14,2.1 72.22,1.06 C73.39,1.86 74.72,1.65 75.98,1.73 C76.7721993,1.78998833 77.5678007,1.78998833 78.36,1.73 C79.0336573,1.63884457 79.7014493,1.50862514 80.36,1.34 C80.58,1.28 80.81,1.2 81.03,1.12 C81.18,2.12 81.33,3.12 81.48,4.07 L81.35,4.17 C81.13,4 80.82,3.88 80.72,3.66 C80.05,2.28 78.89,2.24 77.59,2.36 L77.59,9.91 C77.59,10.66 77.69,10.77 78.44,10.82 C78.8,10.84 78.8,10.84 78.77,11.24 Z" id="Shape"></path>
                        <path d="M80.16,11.1 C80.28,11.01 80.38,10.83 80.5,10.83 C80.9001301,10.8371406 81.2659842,10.6050396 81.43,10.24 C81.8532187,9.48024288 82.2370596,8.6992101 82.58,7.9 C83.21,6.34 83.8,4.77 84.38,3.2 C84.4911874,2.80631259 84.5747243,2.40533568 84.63,2 L86.35,1.33 C87.07,3.59 87.78,5.81 88.52,8.05 C88.79,8.79 89.1,9.52 89.44,10.23 C89.5797915,10.6298911 89.9563826,10.8983124 90.38,10.9 C90.49,10.9 90.6,11.08 90.72,11.18 L90.63,11.3 L86.33,11.3 C86.25,11.03 86.33,10.89 86.62,10.88 C87.17,10.88 87.29,10.72 87.15,10.21 C86.94,9.41 86.7,8.63 86.47,7.84 C86.4236834,7.74657507 86.3335001,7.68269526 86.23,7.67 L83.47,7.67 C83.3684712,7.69997461 83.2824712,7.7680579 83.23,7.86 C83.05,8.46 82.85,9.07 82.7,9.67 C82.51,10.48 82.7,10.67 83.47,10.88 C83.58,10.88 83.66,11.06 83.76,11.16 L83.68,11.28 L80.32,11.28 L80.16,11.1 Z M83.52,7 L86.18,7 L85,3.23 L84.88,3.23 L83.52,7 Z" id="Shape"></path>
                        <path d="M69.72,1.58 C69.72,2.25 69.82,2.97 69.87,3.69 C69.87,3.98 69.76,4.11 69.58,4.08 C69.2487678,3.53664219 68.8777533,3.01855888 68.47,2.53 C68.0067838,2.01842179 67.2624773,1.87200084 66.64,2.17 C65.9058638,2.50174899 65.5791812,3.3654442 65.91,4.1 C66.0056377,4.30207523 66.1458127,4.47985811 66.32,4.62 C66.6551577,4.87268305 67.021515,5.08106976 67.41,5.24 C67.99,5.52 68.6,5.74 69.17,6.03 C69.9575636,6.37028231 70.4403691,7.17495807 70.37,8.03 L70.37,8.61 C70.4291186,10.0008183 69.3862917,11.1932491 68,11.32 C67.0683365,11.4783406 66.1104831,11.3420038 65.26,10.93 C65.01,10.79 64.59,10.93 64.18,10.93 C64.18,10.09 64.27,9.18 64.32,8.24 L64.5,8.16 C64.6851924,8.35101548 64.852554,8.55854391 65,8.78 C65.19,9.13 65.3,9.53 65.47,9.89 C65.82,10.62 66.47,10.89 67.47,10.74 C68.1338986,10.6829501 68.6962223,10.2275471 68.89,9.59 C69.0790632,8.84196609 68.7038074,8.0661563 68,7.75 C67.41,7.42 66.77,7.17 66.16,6.88 C65.2114802,6.5445556 64.4942583,5.75598698 64.25,4.78 C64.0805556,4.11949616 64.1816262,3.41868538 64.5307989,2.83297628 C64.8799717,2.24726718 65.4483885,1.82506666 66.11,1.66 C66.2887165,1.60786554 66.4738369,1.58093895 66.66,1.58 C67.33,1.58 68,1.63 68.66,1.64 C69,1.64 69.33,1.6 69.72,1.58 Z" id="Shape"></path>
                        <path d="M75.51,23 L75.25,24.28 L75.19,24.57 L70,24.57 C69.93,24.37 70,24.29 70.2,24.28 C70.68,24.28 70.69,24.28 70.69,23.75 L70.69,18.91 C70.69,18.45 70.69,18.45 70.23,18.35 C70.17,18.35 70.13,18.25 70.07,18.2 C70.01,18.15 70.17,18.08 70.23,18.08 L72.81,18.08 C72.87,18.08 72.93,18.2 73.01,18.28 C72.9683038,18.310035 72.9205054,18.33052 72.87,18.34 C72.13,18.34 72.13,18.34 72.13,19.13 L72.13,24.13 C72.82,24.13 73.47,24.13 74.13,24.13 C74.33,24.13 74.53,23.86 74.69,23.68 C74.85,23.5 75.02,23.18 75.2,22.94 C75.3071003,22.8352996 75.4243434,22.7415051 75.55,22.66 L75.51,23 Z" id="Shape"></path>
                        <path d="M48.07,21.78 L48.07,23.78 C48.07,24.1 48.22,24.24 48.6,24.24 C48.77,24.24 48.95,24.24 48.87,24.52 L46,24.52 C45.94,24.33 46,24.24 46.2,24.23 C46.59,24.23 46.7,24.09 46.7,23.68 L46.7,18.79 C46.7,18.48 46.57,18.33 46.27,18.36 C46.1811299,18.3801681 46.0888701,18.3801681 46,18.36 C46,18.36 45.87,18.27 45.87,18.23 C45.87,18.19 45.94,18.11 46,18.09 C46.0629446,18.0800761 46.1270554,18.0800761 46.19,18.09 L49.27,18.09 C49.8874606,18.0613491 50.4806116,18.3332809 50.8618883,18.8198059 C51.243165,19.3063309 51.3654222,19.9472897 51.19,20.54 C51.0968502,20.9538409 50.8047257,21.2946528 50.41,21.45 C49.9099557,21.7092864 49.3531838,21.8398872 48.79,21.83 C48.5522105,21.789846 48.3110572,21.7730992 48.07,21.78 Z M48.07,18.39 L48.07,21.47 C48.6754642,21.6436598 49.3209484,21.3788458 49.63,20.83 C49.970735,20.2568146 49.970735,19.5431854 49.63,18.97 C49.3209278,18.4222168 48.6618609,18.1771791 48.07,18.39 Z" id="Shape"></path>
                        <path d="M61.17,24.56 L58.17,24.56 C58.09,24.34 58.17,24.28 58.38,24.27 C58.88,24.27 58.95,24.16 58.95,23.67 L58.95,18.41 C58.4544283,18.4114689 57.9620217,18.4890398 57.49,18.64 C57.08,18.85 56.81,19.33 56.42,19.74 C56.19,18.94 56.67,18.32 56.72,17.58 C57.4,18.15 58.2,17.95 58.94,18.08 C60.1055511,18.1657953 61.2770765,18.0439025 62.4,17.72 L62.77,17.66 C62.87,18.34 62.97,19 63.07,19.66 L62.98,19.73 C62.84,19.62 62.64,19.55 62.57,19.41 C62.11,18.46 61.32,18.41 60.41,18.49 L60.41,23.66 C60.41,24.17 60.49,24.23 61,24.29 C61.09,24.29 61.17,24.4 61.27,24.45 L61.17,24.56 Z" id="Shape"></path>
                        <path d="M42.34,24.46 C42.43,24.39 42.5,24.28 42.59,24.27 C42.84,24.27 42.95,24.11 42.89,23.9 C42.75,23.33 42.58,22.76 42.41,22.19 C42.41,22.19 42.26,22.09 42.19,22.09 C41.67,22.09 41.19,22.09 40.64,22.09 C40.460151,22.1172547 40.3041109,22.2287119 40.22,22.39 C40.0497069,22.8640396 39.9094294,23.3483309 39.8,23.84 C39.8,24.09 39.96,24.24 40.31,24.26 C40.66,24.28 40.6,24.26 40.57,24.55 L38.16,24.55 L38.1,24.47 C38.17,24.39 38.24,24.27 38.33,24.25 C38.6936508,24.1798743 39.0101291,23.9579757 39.2,23.64 C39.3814409,23.3638374 39.532327,23.0687712 39.65,22.76 C40.11,21.59 40.57,20.41 40.97,19.23 C41.0611006,18.9020226 41.1279477,18.5677871 41.17,18.23 L42.37,17.77 L42.52,18.27 C43.1,20 43.7,21.73 44.28,23.46 C44.3658484,23.9083337 44.7444037,24.241627 45.2,24.27 C45.27,24.27 45.33,24.42 45.45,24.56 L42.45,24.56 L42.34,24.46 Z M40.47,21.64 L42.26,21.64 L41.47,19.05 L41.39,19.05 L40.47,21.64 Z" id="Shape"></path>
                        <path d="M69.11,24.28 C68.8362244,24.2821467 68.5895494,24.1150443 68.49,23.86 C68.2394868,23.3671358 68.0190825,22.8595381 67.83,22.34 C67.32,20.83 66.83,19.34 66.34,17.76 C66.03,17.88 65.72,18.01 65.34,18.11 C64.96,18.21 64.99,18.29 65.09,18.57 C65.100409,18.6801829 65.0796173,18.791072 65.03,18.89 C64.57,20.04 64.16,21.18 63.7,22.35 C63.47,22.87 63.22,23.35 62.94,23.88 C62.8232635,24.11638 62.5836184,24.2671245 62.32,24.27 C62.24,24.27 62.17,24.4 62.09,24.47 L62.16,24.55 L64.46,24.55 C64.54,24.33 64.46,24.27 64.26,24.25 C63.87,24.25 63.73,24.07 63.8,23.69 C63.87,23.31 64.01,22.69 64.15,22.25 C64.1943839,22.1592395 64.2802117,22.0958015 64.38,22.08 L66.16,22.08 C66.24,22.08 66.37,22.13 66.38,22.18 C66.54,22.74 66.69,23.3 66.84,23.87 C66.84,24.12 66.77,24.26 66.49,24.27 C66.41,24.27 66.33,24.39 66.25,24.46 L66.31,24.55 L69.3,24.55 L69.36,24.47 C69.25,24.41 69.17,24.28 69.11,24.28 Z M64.42,21.66 C64.74,20.78 65.05,19.93 65.34,19.08 L65.41,19.08 C65.68,19.93 65.95,20.78 66.24,21.66 L64.42,21.66 Z" id="Shape"></path>
                        <path d="M37.61,18 C37.61,18.81 37.99,19.56 37.61,20.43 L37.26,19.89 L37.05,19.55 C36.22,18.2 35.94,18.38 34.57,18.44 C34.2787577,18.4992929 34.019177,18.6628643 33.84,18.9 C33.478766,19.3232814 33.2677946,19.8542261 33.24,20.41 C33.090164,21.4724605 33.366998,22.5510345 34.01,23.41 C34.3216036,23.8320783 34.8153609,24.0808132 35.34,24.08 C36.1421288,24.1479156 36.9320843,23.8503045 37.49,23.27 C37.5823452,23.191138 37.6791735,23.1176821 37.78,23.05 C38,23.33 37.78,23.51 37.66,23.68 C37.1121219,24.2888481 36.3628696,24.6794536 35.55,24.78 C34.2489519,25.0389469 32.9242588,24.4603912 32.23,23.33 C31.9294775,22.9031181 31.7719391,22.3919933 31.78,21.87 C31.78,21.45 31.78,21.03 31.78,20.61 C32.0235297,19.1365055 33.277114,18.0422396 34.77,18 C35.3964091,18.0281341 36.0207334,18.0915682 36.64,18.19 C36.88,18.19 37.15,18.45 37.33,18.06 C37.37,18 37.49,18 37.61,18 Z" id="Shape"></path>
                        <path d="M55.41,24.29 L55.41,24.56 L52.48,24.56 C52.39,24.36 52.48,24.29 52.67,24.25 C53.24,24.14 53.26,24.12 53.26,23.53 L53.26,19 C53.26,18.44 53.18,18.36 52.61,18.33 L52.48,18.33 C52.4,18.15 52.48,18.06 52.65,18.06 L55.1,18.06 C55.32,18.06 55.34,18.16 55.29,18.32 C54.64,18.42 54.6,18.47 54.6,19.12 L54.6,23.43 C54.59,24.22 54.6,24.22 55.41,24.29 Z" id="Shape"></path>
                        <path d="M10.82,9.46 L10.7,9.46 C10.44,9.54 10.16,9.61 9.9,9.7 C9.85626383,9.72530256 9.80425048,9.73214196 9.75545991,9.71900604 C9.70666934,9.70587012 9.66512061,9.67384093 9.64,9.63 C9.51,9.42 9.37,9.22 9.23,9.02 L9.15,8.93 C9.15,9.28 9.1,9.6 9.09,9.93 C9.09,10.02 9.09,10.06 8.96,10.08 L8.25,10.32 C8.19949455,10.32948 8.15169617,10.349965 8.11,10.38 L8.27,10.47 C8.44224523,10.5535618 8.61921161,10.6270195 8.8,10.69 C8.91857056,10.7487265 8.99536904,10.8677641 9,11 C9,11.29 9,11.57 9.06,11.9 L9.73,11.04 L10.73,11.45 C10.6553152,11.2437363 10.5472048,11.0511647 10.41,10.88 C10.1646054,10.6340793 10.1646054,10.2359207 10.41,9.99 C10.5583642,9.82270008 10.6953384,9.6456359 10.82,9.46 Z" id="Shape"></path>
                        <path d="M17.29,18.33 C17.181774,18.1231672 17.0615697,17.9228266 16.93,17.73 C16.8245804,17.6213717 16.8245804,17.4486283 16.93,17.34 C17.12,17.13 17.29,16.88 17.49,16.63 C17.13,16.71 16.8,16.79 16.49,16.88 C16.4209334,16.9084114 16.3417256,16.8776083 16.31,16.81 C16.21,16.65 16.09,16.49 15.99,16.31 C15.89,16.13 15.87,16.15 15.8,16.04 C15.8,16.37 15.72,16.66 15.69,16.94 C15.696607,17.084044 15.5927383,17.2095521 15.45,17.23 C15.2293884,17.2747168 15.0121879,17.3348646 14.8,17.41 L14.7,17.48 L14.79,17.55 L15.51,17.8 C15.6,17.8 15.64,17.86 15.63,17.96 C15.62,18.06 15.57,18.45 15.55,18.68 L15.55,18.86 C15.7,18.7 15.86,18.56 16,18.39 C16.1507361,18.1703361 16.4372318,18.0902858 16.68,18.2 C16.92,18.24 17.1,18.29 17.29,18.33 Z" id="Shape"></path>
                        <path d="M5.61,15.39 C5.88,15.53 6.1,15.67 6.36,15.79 C6.43179847,15.8213226 6.47870162,15.8916773 6.48,15.97 C6.4706293,16.136535 6.4706293,16.303465 6.48,16.47 L6.48,16.89 C6.65,16.66 6.8,16.47 6.94,16.26 C6.98065324,16.1736146 7.07909773,16.1308126 7.17,16.16 C7.42,16.28 7.66,16.39 7.93,16.5 C7.8,16.29 7.69,16.07 7.55,15.87 C7.40766524,15.7258866 7.40766524,15.4941134 7.55,15.35 C7.7,15.16 7.84,14.96 8,14.73 L7.2,14.9 C6.94,14.96 6.94,14.96 6.8,14.73 C6.66,14.5 6.53,14.31 6.41,14.1 L6.52,14.1 L6.52,15 C6.52,15.09 6.52,15.13 6.41,15.15 L5.61,15.39 Z" id="Shape"></path>
                        <path d="M4.74,11.54 L5.38,11.87 C5.46064766,11.8897715 5.51276771,11.9679516 5.5,12.05 L5.5,13 C5.66,12.77 5.81,12.58 5.94,12.38 C5.96226267,12.3177496 6.00921798,12.2674395 6.06978659,12.2409408 C6.13035519,12.214442 6.19917225,12.2141016 6.26,12.24 C6.48,12.33 6.71,12.38 6.97,12.46 C6.82,12.19 6.69,11.97 6.56,11.71 C6.48253943,11.6288509 6.48253943,11.5011491 6.56,11.42 C6.73,11.18 6.89,10.92 7.08,10.67 C7.02707616,10.6606534 6.97292384,10.6606534 6.92,10.67 C6.71,10.73 6.5,10.78 6.3,10.85 C6.25654592,10.8741556 6.20503611,10.8792627 6.15768473,10.8641102 C6.11033335,10.8489578 6.07135777,10.8148954 6.05,10.77 C5.93,10.57 5.79,10.38 5.62,10.14 C5.62,10.47 5.56,10.75 5.54,11.03 C5.54170306,11.1038734 5.49808478,11.1712835 5.43,11.2 C5.24,11.35 5,11.42 4.74,11.54 Z" id="Shape"></path>
                        <path d="M19.48,17.6 L20.13,16.8 L20.91,17.07 C20.82,16.8 20.74,16.57 20.65,16.34 C20.5847692,16.2469612 20.5847692,16.1230388 20.65,16.03 L21.1,15.34 L20.17,15.59 L19.73,14.79 L19.73,14.89 C19.73,15.17 19.66,15.46 19.64,15.74 C19.6463276,15.8434812 19.5725306,15.9346421 19.47,15.95 L18.8,16.16 L18.67,16.21 C18.6971324,16.2584452 18.7451047,16.2916567 18.8,16.3 C18.9894083,16.3803993 19.1830241,16.4505016 19.38,16.51 C19.4689891,16.5338998 19.5280031,16.6182056 19.52,16.71 C19.51,17 19.49,17.29 19.48,17.6 Z" id="Shape"></path>
                        <path d="M6.9,19.15 C7.16,19.29 7.39,19.42 7.64,19.53 C7.72034254,19.5676252 7.76837374,19.6516798 7.76,19.74 C7.76,19.99 7.76,20.24 7.76,20.51 C7.93,20.33 8.09,20.18 8.23,20.01 C8.29832816,19.9488854 8.40167184,19.9488854 8.47,20.01 L9.1,20.26 L9.34,20.34 C9.17,20.1 9.02,19.89 8.85,19.68 C8.74204261,19.5646531 8.74204261,19.3853469 8.85,19.27 C8.97,19.12 9.06,18.95 9.19,18.78 C8.92,18.78 8.69,18.78 8.48,18.87 C8.33175608,18.9083153 8.17618962,18.8428137 8.1,18.71 C8.01928358,18.5706301 7.92907041,18.436981 7.83,18.31 L7.68,18.12 L7.68,18.8 C7.68,19.02 7.61,19.04 7.45,19.07 L6.9,19.15 Z" id="Shape"></path>
                        <path d="M12.6,22.88 C12.7631117,22.857611 12.9106203,22.7712645 13.01,22.64 C13.1408099,22.5090534 13.328711,22.4526831 13.51,22.49 C13.75,22.49 14,22.56 14.26,22.6 C14.2201352,22.5407631 14.1767226,22.4839927 14.13,22.43 L13.88,22.15 C13.76,21.99 13.76,21.93 13.88,21.79 C14,21.65 14.12,21.54 14.25,21.41 L14.38,21.27 L13.55,21.42 C13.4379573,21.4528876 13.3170118,21.4177744 13.24,21.33 C13.08,21.16 12.9,21.02 12.74,20.87 L12.74,21.1 C12.7498519,21.1930733 12.7498519,21.2869267 12.74,21.38 C12.69,21.67 12.59,21.74 12.3,21.73 L12.12,21.73 C11.9925597,21.7325962 11.8754294,21.8006073 11.81,21.91 C12.01,21.96 12.19,22 12.37,22.06 C12.5278487,22.080777 12.6419755,22.2212408 12.63,22.38 L12.6,22.88 Z" id="Shape"></path>
                        <path d="M16.47,21.26 L16.4,22.05 C16.6,21.86 16.78,21.71 16.94,21.55 C17.0200012,21.4734597 17.1300749,21.4367685 17.24,21.45 C17.46,21.45 17.69,21.45 17.95,21.51 L17.58,20.94 L18.24,20.17 L17.29,20.42 C17.2152209,20.4504802 17.1294499,20.4204603 17.09,20.35 C17,20.2 16.88,20.06 16.78,19.92 L16.72,19.79 L16.65,19.84 C16.65,20.08 16.6,20.33 16.58,20.57 C16.5772255,20.662791 16.5109654,20.741475 16.42,20.76 C16.17,20.83 15.93,20.91 15.68,21 L15.53,21.07 L16.47,21.26 Z" id="Shape"></path>
                        <path d="M20.7,19.11 L20.36,18.4 L20.31,18.52 C20.31,18.75 20.22,18.98 20.19,19.21 C20.1845508,19.3147996 20.1116453,19.4039063 20.01,19.43 L19.41,19.68 L19.29,19.75 L20,20 L19.85,20.75 C20.06,20.55 20.25,20.37 20.43,20.18 C20.4899184,20.0994465 20.5951618,20.0670639 20.69,20.1 C20.83,20.1 20.98,20.16 21.14,20.19 C21.1272908,20.1137005 21.1037181,20.0396148 21.07,19.97 C20.9089503,19.7394445 20.9477748,19.4245354 21.16,19.24 C21.25,19.12 21.34,18.99 21.42,18.86 L20.7,19.11 Z" id="Shape"></path>
                        <path d="M4.68,15.63 L4.29,15.71 C3.92,15.79 3.92,15.79 3.74,15.47 L3.51,15.07 L3.51,15.79 C3.51651674,15.8715733 3.46043097,15.9449162 3.38,15.96 L2.97,16.07 L3.47,16.46 C3.5285188,16.5136434 3.57020585,16.5831218 3.59,16.66 C3.59,16.9 3.66,17.16 3.7,17.43 L4,16.85 L4.75,17.26 L4.68,17.11 L4.33,16.5 C4.27997076,16.4351994 4.27997076,16.3448006 4.33,16.28 C4.43,16.08 4.57,15.88 4.68,15.63 Z" id="Shape"></path>
                        <path d="M9.11,21.39 L9.11,22 C9.11,22.1 9.11,22.15 8.97,22.16 C8.83,22.17 8.62,22.22 8.44,22.25 C8.64409378,22.3619584 8.85443896,22.4621228 9.07,22.55 C9.16064285,22.5755497 9.2249707,22.6559595 9.23,22.75 C9.24436209,22.9151058 9.27110397,23.0788998 9.31,23.24 L9.54,23 C9.67076385,22.8670928 9.8710987,22.8310325 10.04,22.91 C10.24,22.99 10.44,23.05 10.68,23.12 L10.15,22.5 L10.6,22 C10.4471163,21.9833943 10.2928837,21.9833943 10.14,22 C9.82004524,22.0728675 9.49031548,21.9263209 9.33,21.64 C9.26112603,21.5528459 9.1876901,21.4693959 9.11,21.39 Z" id="Shape"></path>
                        <path d="M2.83,11.49 C2.83,11.71 2.83,11.93 2.83,12.16 C2.83662247,12.2269509 2.8006552,12.2908928 2.74,12.32 L2.24,12.61 C2.32177997,12.6767683 2.40871832,12.7369564 2.5,12.79 C2.67765088,12.8629391 2.77839585,13.051836 2.74,13.24 L2.74,13.86 L3.18,13.23 L3.77,13.52 C3.74275013,13.4343602 3.70932925,13.350808 3.67,13.27 C3.42453064,12.9412545 3.4454647,12.484892 3.72,12.18 C3.77647197,12.095433 3.82342371,12.0048833 3.86,11.91 L3.35,12 C3.3178141,12.0349187 3.27248948,12.0547828 3.225,12.0547828 C3.17751052,12.0547828 3.1321859,12.0349187 3.1,12 L3.1,11.94 C3,11.78 2.91,11.63 2.83,11.49 Z" id="Shape"></path>
                        <path d="M9,3.65 L9.55,3.15 L8.9,3.35 C8.80844668,3.40548477 8.68943711,3.3790382 8.63,3.29 C8.53271736,3.18706171 8.42918811,3.09021176 8.32,3 C8.31833229,3.03331247 8.31833229,3.06668753 8.32,3.1 C8.27600582,3.43173791 8.02020149,3.69566302 7.69,3.75 C7.55854216,3.79115153 7.43130128,3.84472664 7.31,3.91 L7.96,4.01 L7.84,4.7 C7.99854405,4.57299624 8.14576339,4.4324687 8.28,4.28 C8.38426889,4.12875466 8.57310395,4.06045261 8.75,4.11 C8.95535107,4.14182528 9.16235699,4.16185811 9.37,4.17 L9,3.65 Z" id="Shape"></path>
                        <path d="M4.17,19.4 C4.33,19.51 4.47,19.64 4.63,19.74 C4.74942056,19.8064663 4.82247545,19.9333511 4.82,20.07 C4.83831168,20.264967 4.86836625,20.458652 4.91,20.65 L5.07,20.46 C5.28,20.18 5.28,20.18 5.6,20.34 L5.99,20.53 C5.92922975,20.3850045 5.85206072,20.2474423 5.76,20.12 C5.59995614,19.932888 5.59995614,19.657112 5.76,19.47 C5.80916562,19.4002733 5.85263932,19.3267024 5.89,19.25 L5.22,19.25 C5.13794088,19.2614357 5.05554644,19.2314741 5,19.17 C4.89,18.97 4.75,18.79 4.6,18.56 C4.6,18.8 4.67,18.98 4.69,19.17 C4.71,19.36 4.69,19.38 4.5,19.38 L4.17,19.4 Z" id="Shape"></path>
                        <path d="M2.75,8.3 C2.71938065,8.52589933 2.66232276,8.74741822 2.58,8.96 C2.44162491,9.13994455 2.28402529,9.30425054 2.11,9.45 C2.39,9.62 2.38,9.55 2.38,9.92 L2.38,10.45 C2.46,10.29 2.56,10.11 2.63,9.95 C2.7,9.79 2.74,9.83 2.85,9.87 C2.97024984,9.91384297 3.09403618,9.94729874 3.22,9.97 C3.1502102,9.72297783 3.11983668,9.4664903 3.13,9.21 C3.20853877,8.96131405 3.32308851,8.72547634 3.47,8.51 L2.91,8.78 L2.75,8.3 Z" id="Shape"></path>
                        <path d="M13.57,24.79 C13.9384858,24.570736 14.3613335,24.4598252 14.79,24.47 L14.55,24.24 L15.05,23.87 L14.55,23.96 C14.3897256,24.0093049 14.2153397,23.971395 14.09,23.86 C13.98,23.76 13.86,23.67 13.74,23.58 C13.7564343,23.6625231 13.7564343,23.7474769 13.74,23.83 C13.74,24.07 13.74,24.07 13.48,24.13 L12.94,24.26 C13.0184035,24.2982887 13.1031136,24.3220076 13.19,24.33 C13.52,24.38 13.57,24.43 13.59,24.76 C13.55,24.73 13.56,24.73 13.57,24.79 Z" id="Shape"></path>
                        <path d="M17.26,22.62 C17.307381,22.9949288 17.0443456,23.3382123 16.67,23.39 L16.62,23.39 C16.5539619,23.4139211 16.4903432,23.4440563 16.43,23.48 L16.92,23.57 L16.79,23.96 C16.9008059,23.9076755 17.0077433,23.8475232 17.11,23.78 C17.272396,23.6489977 17.4717014,23.5720728 17.68,23.56 L18.08,23.56 L17.88,23.26 L18.37,22.81 C18.1603585,22.8423469 17.9531996,22.8891247 17.75,22.95 C17.6863598,22.9921988 17.6036402,22.9921988 17.54,22.95 C17.4575367,22.8312204 17.3637658,22.7207047 17.26,22.62 Z" id="Shape"></path>
                        <path d="M4.88,5.4 L4.72,6 C4.87901709,5.86259432 5.02620198,5.71206432 5.16,5.55 C5.22806096,5.45990784 5.33745896,5.41086735 5.45,5.42 L5.9,5.42 C5.86029482,5.30239866 5.81009257,5.1886069 5.75,5.08 C5.69307893,5.01012503 5.69307893,4.90987497 5.75,4.84 C5.89,4.69 6.02,4.53 6.16,4.37 L5.52,4.67 L5.39,4.35 C5.32779589,4.42009877 5.27409042,4.4973004 5.23,4.58 C5.15282092,4.86744375 4.93995642,5.09898057 4.66,5.2 C4.57756965,5.24055033 4.50034291,5.2909156 4.43,5.35 L4.88,5.4 Z" id="Shape"></path>
                        <path d="M6,21.64 L6.14,22.13 L5.64,22.13 L5.64,22.19 C5.83549325,22.2783315 6.02006362,22.3890737 6.19,22.52 C6.33298411,22.6699998 6.46030862,22.8341814 6.57,23.01 C6.59310851,23.0145808 6.61689149,23.0145808 6.64,23.01 C6.74576561,22.9169047 6.90423439,22.9169047 7.01,23.01 C7.15186864,23.0867545 7.29888776,23.1535814 7.45,23.21 L7.07,22.8 L7.34,22.42 C6.87329588,22.196059 6.42520694,21.9352311 6,21.64 Z" id="Shape"></path>
                        <path d="M23.47,18.6 C23.4785887,18.5470124 23.4785887,18.4929876 23.47,18.44 C23.3759639,18.2465638 23.4033116,18.0160621 23.54,17.85 C23.62,17.72 23.69,17.58 23.77,17.44 L23.43,17.66 L23.22,17.2 C23.1698383,17.376054 23.1396483,17.5571938 23.13,17.74 C23.1366035,17.865375 23.0589452,17.9798188 22.94,18.02 L22.42,18.29 C22.52,18.49 22.72,18.45 22.87,18.51 L22.75,19.06 C22.8245796,18.9748142 22.8883925,18.8807741 22.94,18.78 C23.0090986,18.6170996 23.1943834,18.5376918 23.36,18.6 L23.47,18.6 Z" id="Shape"></path>
                        <path d="M11.67,24.38 L11.67,24.33 L11,24.33 C10.9216205,24.3200643 10.8464539,24.292731 10.78,24.25 C10.65,24.16 10.53,24.05 10.39,23.94 C10.3799948,24.0129921 10.3799948,24.0870079 10.39,24.16 C10.39,24.29 10.39,24.35 10.21,24.33 L9.72,24.33 L9.72,24.38 L10.03,24.38 C10.2024831,24.3805025 10.3619988,24.4716543 10.45,24.62 C10.54,24.78 10.61,24.81 10.79,24.73 C10.9716597,24.6503845 11.1783403,24.6503845 11.36,24.73 C11.45,24.73 11.55,24.79 11.64,24.82 L11.36,24.55 L11.67,24.38 Z" id="Shape"></path>
                        <path d="M23.67,10.54 L24.13,10.87 C24.191923,10.9148943 24.2318998,10.9839452 24.24,11.06 L24.24,11.74 L24.38,11.25 L24.67,11.5 C24.5716989,11.3100597 24.4977806,11.1084645 24.45,10.9 C24.468221,10.6823262 24.511851,10.4675322 24.58,10.26 C24.18,10.34 24.17,9.94 23.97,9.76 C23.9790073,9.94105208 23.9990445,10.1213866 24.03,10.3 C24.03,10.38 24.03,10.43 23.93,10.46 C23.8415596,10.4805181 23.7546771,10.5072512 23.67,10.54 Z" id="Shape"></path>
                        <path d="M20.54,21.3 C20.4900622,21.3781878 20.4497694,21.4621313 20.42,21.55 C20.3718267,21.8392923 20.1552044,22.0716689 19.87,22.14 C19.7620366,22.1798046 19.6582119,22.2300423 19.56,22.29 L20,22.29 L19.82,22.69 L19.97,22.57 C20.1671872,22.3463821 20.4357438,22.1979692 20.73,22.15 C20.73,22.15 20.82,22.06 20.82,22.01 C20.8054444,21.8743864 20.8576477,21.7401494 20.96,21.65 C21.05,21.56 21.12,21.46 21.21,21.36 L20.67,21.64 L20.54,21.3 Z" id="Shape"></path>
                        <path d="M22.64,7.28 C22.8211625,7.43930746 22.9853688,7.61691837 23.13,7.81 C23.2332763,8.03980968 23.3071915,8.28171403 23.35,8.53 L23.5,8.13 L23.84,8.39 C23.6405008,8.09549352 23.5390162,7.74554653 23.55,7.39 C23.5425931,7.35587333 23.5206877,7.32666606 23.49,7.31 C23.3128358,7.25010939 23.1681571,7.11989854 23.09,6.95 L22.88,6.61 L23.05,7.21 L22.64,7.28 Z" id="Shape"></path>
                        <path d="M2.4,17.49 C2.3001943,17.3042454 2.2261794,17.1057509 2.18,16.9 C2.17972787,16.683494 2.21002693,16.468034 2.27,16.26 L2,16.3 C1.96950002,16.3093405 1.93653621,16.3061532 1.90839076,16.2911423 C1.88024531,16.2761314 1.85923453,16.2505322 1.85,16.22 C1.80940227,16.1075229 1.76266539,15.9973574 1.71,15.89 L1.79,16.38 L1.6,16.46 L2.05,17.46 L2,17.46 L2.07,17.24 L2.4,17.49 Z" id="Shape"></path>
                        <path d="M1.63,14.32 C1.55750643,14.0857506 1.51056669,13.8443463 1.49,13.6 C1.5169476,13.3571894 1.57405445,13.1186843 1.66,12.89 L1.31,13.09 L1.19,12.6 C1.20237877,12.8982982 1.13689872,13.1946817 1,13.46 C0.987720833,13.5092461 0.987720833,13.5607539 1,13.61 C1.11037239,13.790733 1.16916373,13.9982318 1.17,14.21 L1.17,14.43 L1.27,14.1 L1.63,14.32 Z" id="Shape"></path>
                        <path d="M24.61,14.77 L24.8,14.41 L24.98,14.52 L24.98,13.33 L24.86,13.33 L24.72,12.87 L24.72,13.32 C24.7345418,13.4856045 24.6476452,13.6435984 24.5,13.72 C24.4460363,13.7509304 24.3957204,13.7878287 24.35,13.83 C24.3890205,13.8809012 24.4363518,13.9248517 24.49,13.96 C24.6196331,14.0290588 24.6856074,14.1775009 24.65,14.32 C24.6242569,14.4686373 24.6108777,14.6191525 24.61,14.77 Z" id="Shape"></path>
                        <path d="M3.47,19.36 C3.1,19.46 2.97,19.25 2.85,19.01 C2.73,18.77 2.73,18.81 2.68,18.71 L2.85,19.21 L2.7,19.21 L3.2,20.06 C3.2,20.06 3.2,20.12 3.26,20.06 C3.32,20 3.42,20.06 3.49,20.15 L3.76,20.34 L3.42,20 C3.34658535,19.9059655 3.34658535,19.7740345 3.42,19.68 C3.44809111,19.5754344 3.46485418,19.4681508 3.47,19.36 Z" id="Shape"></path>
                        <path d="M9.19,1.77 C8.60454323,1.87758223 8.04677255,2.10205092 7.55,2.43 L7.88,2.43 L7.79,2.65 C8.11038923,2.33884964 8.55924679,2.19788611 9,2.27 L8.77,2 L9.19,1.77 Z" id="Shape"></path>
                        <path d="M3.23,6.06 L2.67,7 L2.67,7.06 C2.78,7.12 2.67,7.19 2.67,7.26 C2.65122008,7.33470507 2.62784221,7.40817839 2.6,7.48 L2.86,7.15 C2.99261548,7.08133553 3.13389017,7.03088029 3.28,7 C3.23185113,6.61997677 3.38304859,6.24198311 3.68,6 L3.34,6.3 L3.23,6.06 Z" id="Shape"></path>
                        <path d="M1.36,10 C1.36,10.4 1.09,10.73 1.14,11.14 C1.13967629,11.2886837 1.11949794,11.4366583 1.08,11.58 L1,11.58 L1.14,11.15 L1.35,11.21 C1.16,10.77 1.35,10.42 1.5,10.02 L1.32,10.12 L1.36,10 Z" id="Shape"></path>
                        <path d="M8.64,24.37 L8.7,24.22 C8.50682793,24.187355 8.31631518,24.1405624 8.13,24.08 C7.97085394,24.0022387 7.82007075,23.908418 7.68,23.8 L7.35,23.89 L8.83,24.51 L8.64,24.37 Z" id="Shape"></path>
                        <path d="M6.22,3.12 C5.82537789,3.3086295 5.48227612,3.58997295 5.22,3.94 L6,3.55 C6,3.55 6.06,3.5 6.05,3.48 C6.02314034,3.33590061 6.09165594,3.19080874 6.22,3.12 Z" id="Shape"></path>
                        <path d="M13.73,0.94 C14.0712286,1.02862875 14.405466,1.14226948 14.73,1.28 C15.7664384,1.74438483 16.690722,2.42651294 17.44,3.28 C17.5675532,3.42007425 17.7417263,3.50893806 17.93,3.53 L18.87,3.62 C19.3120908,3.63852919 19.7527881,3.68193118 20.19,3.75 C20.7137919,3.85639419 21.2084109,4.07470879 21.64,4.39 C22.0531723,4.61510964 22.2266069,5.11806996 22.04,5.55 C21.8999831,5.93466908 21.7328984,6.30893872 21.54,6.67 C21.41,6.93 21.26,7.17 21.11,7.42 C21.0308611,7.53795584 21.0308611,7.69204416 21.11,7.81 C21.37,8.26 21.64,8.7 21.89,9.15 C22.7989931,10.7198968 23.4410549,12.4298085 23.79,14.21 C23.79,14.42 23.84,14.63 23.87,14.88 L23.65,14.74 C22.47,13.91 21.29,13.07 20.1,12.26 C19.65,11.95 19.17,11.7 18.71,11.42 C18.6816143,11.3893821 18.6417517,11.3719804 18.6,11.3719804 C18.5582483,11.3719804 18.5183857,11.3893821 18.49,11.42 C18.33,11.6 18.15,11.78 18,11.98 C16.6014168,13.8002028 15.0234924,15.4752817 13.29,16.98 C12.64,17.58 11.94,18.12 11.29,18.69 C11.16,18.77 11.03,18.85 10.89,18.92 L10.89,18.27 C10.95,17.37 10.98,16.47 11.07,15.57 C11.16,14.67 11.31,13.57 11.44,12.57 C11.57,11.57 11.71,10.75 11.84,9.84 C11.84,9.63 11.91,9.43 11.94,9.23 C11.97,9.03 11.94,8.89 11.67,8.81 L8.54,8 L5.66,7.19 L5.16,7 L5.36,6.85 C6.06,6.53 6.75,6.19 7.46,5.85 C8.80264166,5.29190843 10.1786187,4.81766391 11.58,4.43 C11.9,4.34 12.23,4.29 12.58,4.23 C12.69,4.23 12.72,4.14 12.73,4.05 L13,2.49 C13.07,2 13.14,1.49 13.21,1.03 L13.21,0.93 L13.73,0.94 Z" id="Shape"></path>
                        <path d="M10.82,9.46 C10.7189517,9.66233812 10.6019134,9.85628739 10.47,10.04 C10.2246054,10.2859207 10.2246054,10.6840793 10.47,10.93 C10.6072048,11.1011647 10.7153152,11.2937363 10.79,11.5 L9.79,11.09 L9.08,12 C9.08,11.67 9.02,11.39 9.02,11.1 C9.04602744,10.9225925 8.93377132,10.7542083 8.76,10.71 C8.57921161,10.6470195 8.40224523,10.5735618 8.23,10.49 L8.07,10.4 C8.11169617,10.369965 8.15949455,10.34948 8.21,10.34 L8.92,10.1 C9.01,10.1 9.05,10.04 9.05,9.95 C9.05,9.62 9.05,9.3 9.11,8.95 L9.19,9.04 C9.33,9.24 9.47,9.44 9.6,9.65 C9.64131972,9.74715728 9.74834961,9.79853162 9.85,9.77 C10.11,9.68 10.39,9.61 10.65,9.53 L10.82,9.46 Z" id="Shape"></path>
                        <path d="M17.29,18.33 L16.76,18.19 C16.5142543,18.0789287 16.2242469,18.1587858 16.07,18.38 C15.94,18.55 15.77,18.69 15.62,18.85 L15.62,18.67 C15.6307275,18.4284959 15.6574527,18.1879686 15.7,17.95 C15.7,17.85 15.7,17.82 15.59,17.79 C15.345975,17.7187449 15.1056737,17.635307 14.87,17.54 L14.77,17.47 C14.8026981,17.4409485 14.8398342,17.4173165 14.88,17.4 C15.0921879,17.3248646 15.3093884,17.2647168 15.53,17.22 C15.6712881,17.1993579 15.7720768,17.0722764 15.76,16.93 C15.76,16.65 15.83,16.36 15.87,16.03 L16.06,16.3 L16.39,16.8 C16.4007375,16.8338061 16.425881,16.8611298 16.4586796,16.8746352 C16.4914783,16.8881405 16.5285714,16.8864436 16.56,16.87 L17.56,16.62 C17.36,16.87 17.2,17.11 17,17.33 C16.9468209,17.3809288 16.9167485,17.4513673 16.9167485,17.525 C16.9167485,17.5986327 16.9468209,17.6690712 17,17.72 C17.1349854,17.912576 17.2585319,18.1129217 17.37,18.32 L17.29,18.33 Z" id="Shape"></path>
                        <path d="M5.61,15.39 C5.91,15.31 6.16,15.23 6.42,15.17 C6.51,15.17 6.53,15.11 6.53,15.02 L6.53,14.11 L6.59,14.11 L6.98,14.74 C7.11,14.95 7.13,14.96 7.39,14.91 L8.19,14.74 C8.02,14.96 7.89,15.17 7.73,15.36 C7.58766524,15.5041134 7.58766524,15.7358866 7.73,15.88 C7.87,16.08 7.99,16.3 8.11,16.51 L7.35,16.17 C7.28365877,16.1038879 7.17634123,16.1038879 7.11,16.17 C6.97,16.38 6.81,16.57 6.64,16.8 C6.64,16.63 6.64,16.51 6.64,16.38 C6.64,16.25 6.64,16.04 6.64,15.88 C6.62917247,15.801446 6.57502012,15.7356895 6.5,15.71 C6.11,15.67 5.88,15.53 5.61,15.39 Z" id="Shape"></path>
                        <path d="M4.74,11.54 C5.01,11.42 5.23,11.32 5.48,11.23 C5.55202033,11.2045371 5.60012489,11.136389 5.6,11.06 C5.6,10.78 5.65,10.5 5.68,10.17 C5.84,10.41 5.98,10.6 6.1,10.8 C6.11786086,10.8482893 6.15455442,10.8872625 6.20168081,10.9079982 C6.2488072,10.9287338 6.30233115,10.9294562 6.35,10.91 L7,10.72 C7.05569424,10.7348464 7.11430576,10.7348464 7.17,10.72 L6.64,11.47 C6.57138095,11.5544893 6.57138095,11.6755107 6.64,11.76 L7.06,12.51 C6.8,12.43 6.56,12.38 6.35,12.29 C6.23374137,12.2199462 6.08282388,12.2554562 6.01,12.37 C6.01,12.37 6.01,12.37 6.01,12.37 C5.88,12.57 5.73,12.76 5.56,12.99 L5.56,12.05 C5.56949483,11.9717547 5.52396087,11.8972446 5.45,11.87 L4.74,11.54 Z" id="Shape"></path>
                        <path d="M19.48,17.6 C19.48,17.27 19.48,16.99 19.48,16.71 C19.4919176,16.6660511 19.4845445,16.6191063 19.4597279,16.5809269 C19.4349113,16.5427474 19.3950024,16.5169508 19.35,16.51 C19.15,16.45 18.96,16.37 18.77,16.3 C18.7180711,16.2848541 18.6724555,16.253274 18.64,16.21 L18.77,16.15 L19.44,15.94 C19.5410111,15.9294808 19.6158914,15.8413863 19.61,15.74 C19.625148,15.4552904 19.6551891,15.1715689 19.7,14.89 L19.7,14.79 L20.14,15.59 L21.07,15.34 C20.91,15.58 20.77,15.83 20.62,16.02 C20.5547692,16.1130388 20.5547692,16.2369612 20.62,16.33 C20.71,16.56 20.79,16.79 20.88,17.06 L20.1,16.8 L19.48,17.6 Z" id="Shape"></path>
                        <path d="M6.9,19.15 C7.11,19.15 7.29,19.05 7.48,19.02 C7.67,18.99 7.72,18.92 7.71,18.75 C7.7,18.58 7.71,18.3 7.71,18.07 L7.86,18.27 C7.96126717,18.3918273 8.05161573,18.5223307 8.13,18.66 C8.1977006,18.8020475 8.36108345,18.8708403 8.51,18.82 L9.22,18.73 C9.09,18.92 9,19.09 8.88,19.23 C8.8262491,19.2826649 8.79595918,19.3547487 8.79595918,19.43 C8.79595918,19.5052513 8.8262491,19.5773351 8.88,19.63 L9.37,20.3 L9.13,20.21 L8.54,20 C8.47167184,19.9388854 8.36832816,19.9388854 8.3,20 C8.16,20.17 8,20.32 7.83,20.5 C7.83,20.22 7.83,19.97 7.83,19.73 C7.84165369,19.6410034 7.79259046,19.5551428 7.71,19.52 C7.39,19.42 7.16,19.28 6.9,19.15 Z" id="Shape"></path>
                        <path d="M12.6,22.88 L12.6,22.39 C12.6071101,22.2328048 12.4953218,22.0952193 12.34,22.07 C12.16,22.01 11.97,21.97 11.78,21.92 C11.8424337,21.8076207 11.9614509,21.7385139 12.09,21.74 L12.26,21.74 C12.56,21.74 12.65,21.68 12.71,21.39 L12.71,21.11 L12.71,20.88 C12.8860712,21.0227854 13.0530623,21.1764172 13.21,21.34 C13.2823003,21.4283551 13.4010034,21.463966 13.51,21.43 L14.34,21.28 L14.21,21.42 L13.84,21.8 C13.73,21.93 13.72,22 13.84,22.16 L14.09,22.44 C14.1397991,22.4914165 14.1834275,22.548469 14.22,22.61 C13.95,22.61 13.73,22.55 13.47,22.5 C13.2916577,22.4604624 13.1056484,22.517404 12.98,22.65 C12.8854575,22.7702585 12.7503893,22.8520103 12.6,22.88 Z" id="Shape"></path>
                        <path d="M16.47,21.26 L15.53,21.06 L15.68,20.99 L16.42,20.75 C16.5130802,20.735124 16.5811812,20.6542541 16.58,20.56 C16.58,20.32 16.63,20.07 16.65,19.83 L16.72,19.83 L16.78,19.97 C16.88,20.11 17,20.24 17.09,20.39 C17.1294499,20.4604603 17.2152209,20.4904802 17.29,20.46 L18.24,20.22 L17.58,20.99 L17.95,21.55 C17.7136323,21.5668246 17.4763677,21.5668246 17.24,21.55 C17.12964,21.5319715 17.0174709,21.5693612 16.94,21.65 C16.78,21.81 16.6,21.96 16.4,22.14 L16.47,21.26 Z" id="Shape"></path>
                        <path d="M20.7,19.11 L21.39,18.82 C21.3125997,18.9527641 21.2257068,19.0797615 21.13,19.2 C20.9252346,19.3894432 20.8911236,19.7007056 21.05,19.93 C21.0792659,20.0013118 21.1026766,20.0748883 21.12,20.15 C20.96,20.15 20.81,20.15 20.66,20.06 C20.565129,20.0302335 20.4617273,20.0620494 20.4,20.14 L19.83,20.71 L20,20 L19.31,19.8 C19.3449208,19.7688828 19.3857245,19.7450806 19.43,19.73 C19.62,19.65 19.82,19.56 20.02,19.49 C20.1272242,19.4661521 20.20262,19.369813 20.2,19.26 C20.2,19.03 20.28,18.8 20.33,18.57 C20.3347803,18.5260241 20.3521406,18.4843596 20.38,18.45 L20.7,19.11 Z" id="Shape"></path>
                        <path d="M4.68,15.63 C4.55,15.88 4.43,16.08 4.31,16.29 C4.25997076,16.3548006 4.25997076,16.4451994 4.31,16.51 C4.43,16.71 4.54,16.92 4.66,17.13 L4.73,17.27 L4,16.87 L3.65,17.45 C3.65,17.16 3.58,16.92 3.54,16.68 C3.52260801,16.6021396 3.48051588,16.5319861 3.42,16.48 C3.26304315,16.3380092 3.0959326,16.2076629 2.92,16.09 L3.31,16 C3.39443796,15.9947125 3.46016539,15.9246032 3.46,15.84 L3.46,15.11 L3.69,15.52 C3.87,15.83 3.87,15.83 4.24,15.76 C4.38153197,15.700877 4.52906237,15.6572885 4.68,15.63 Z" id="Shape"></path>
                        <path d="M9.11,21.39 C9.18871306,21.4754794 9.2621807,21.5656442 9.33,21.66 C9.48790614,21.9489497 9.8197085,22.0964174 10.14,22.02 C10.2930413,22.033384 10.4469587,22.033384 10.6,22.02 L10.15,22.52 L10.68,23.14 C10.44,23 10.24,23 10,22.9 C9.83315026,22.818485 9.63308658,22.8504952 9.5,22.98 C9.41406042,23.0581803 9.32392695,23.1316224 9.23,23.2 C9.23,23.02 9.16,22.86 9.15,22.7 C9.14141083,22.6104989 9.08351608,22.5333059 9,22.5 C8.78087751,22.4204055 8.56990841,22.319944 8.37,22.2 C8.54518621,22.1643092 8.72208425,22.1376076 8.9,22.12 C9.08,22.12 9.04,22.06 9.04,21.95 L9.04,21.4 L9.11,21.39 Z" id="Shape"></path>
                        <path d="M2.83,11.49 C2.91,11.63 3,11.78 3.07,11.93 C3.0770114,11.9775928 3.10385867,12.0199868 3.14388568,12.0466715 C3.18391269,12.0733562 3.2333715,12.0818329 3.28,12.07 L3.35,12.07 L3.78,11.91 C3.7468425,12.0013918 3.70321893,12.0886389 3.65,12.17 C3.37240579,12.4724425 3.3472788,12.9289163 3.59,13.26 C3.63083015,13.3414386 3.66754309,13.4248771 3.7,13.51 L3.1,13.23 L2.66,13.86 L2.66,13.24 C2.68853237,13.0507928 2.59151164,12.8648364 2.42,12.78 L2.16,12.61 C2.33,12.5 2.49,12.4 2.66,12.31 C2.71869271,12.2788405 2.75384951,12.2163395 2.75,12.15 C2.75,11.93 2.75,11.7 2.75,11.48 L2.83,11.49 Z" id="Shape"></path>
                        <path d="M9,3.65 L9.38,4.22 C9.16847193,4.22226766 8.95729726,4.20215579 8.75,4.16 C8.57606839,4.11197024 8.39089584,4.18040358 8.29,4.33 C8.15576339,4.4824687 8.00854405,4.62299624 7.85,4.75 L7.96,4.06 L7.28,4 C7.4021215,3.93645709 7.52920676,3.88294751 7.66,3.84 C7.98950944,3.78082727 8.24594275,3.52038719 8.3,3.19 L8.3,3.09 C8.39806467,3.17142766 8.49154133,3.25822741 8.58,3.35 C8.64311249,3.44040001 8.76538713,3.46660172 8.86,3.41 L9.51,3.21 L9,3.65 Z" id="Shape"></path>
                        <path d="M4.17,19.4 L4.47,19.4 C4.65,19.4 4.68,19.4 4.66,19.19 C4.64,18.98 4.6,18.78 4.57,18.56 C4.73,18.79 4.86,18.97 4.98,19.17 C5.02658093,19.2515592 5.11645715,19.2984511 5.21,19.29 L5.89,19.29 C5.84924673,19.3669331 5.80243211,19.4404989 5.75,19.51 C5.58995614,19.697112 5.58995614,19.972888 5.75,20.16 C5.84890606,20.2846844 5.9297042,20.4227145 5.99,20.57 L5.59,20.38 C5.28,20.22 5.28,20.22 5.07,20.5 L4.91,20.69 C4.91,20.47 4.84,20.29 4.82,20.11 C4.81401162,19.9704624 4.73905134,19.8430299 4.62,19.77 C4.46,19.67 4.32,19.55 4.16,19.43 L4.17,19.4 Z" id="Shape"></path>
                        <path d="M2.75,8.3 L2.89,8.8 L3.45,8.53 C3.30308851,8.74547634 3.18853877,8.98131405 3.11,9.23 C3.09348896,9.48543458 3.11710883,9.74187879 3.18,9.99 L2.81,9.88 C2.76917336,9.86033233 2.72192146,9.85889989 2.67997844,9.8760584 C2.63803541,9.89321691 2.60533582,9.92735677 2.59,9.97 L2.34,10.47 L2.34,9.93 C2.34,9.56 2.34,9.63 2.07,9.47 C2.24413579,9.32066182 2.40170824,9.15303156 2.54,8.97 C2.62082617,8.76038221 2.67785035,8.54234858 2.71,8.32 L2.75,8.3 Z" id="Shape"></path>
                        <path d="M13.57,24.79 L13.57,24.72 C13.57,24.39 13.5,24.34 13.17,24.29 C13.0831136,24.2820076 12.9984035,24.2582887 12.92,24.22 L13.46,24.09 C13.7,24.03 13.7,24.03 13.72,23.79 C13.7068987,23.7071816 13.7068987,23.6228184 13.72,23.54 C13.84,23.63 13.96,23.72 14.07,23.82 C14.1953397,23.931395 14.3697256,23.9693049 14.53,23.92 L15.03,23.83 L14.53,24.2 L14.77,24.43 C14.3444747,24.4371671 13.9292003,24.5617494 13.57,24.79 Z" id="Shape"></path>
                        <path d="M17.26,22.62 C17.4,22.75 17.5,22.83 17.59,22.93 C17.6527472,22.9750641 17.7372528,22.9750641 17.8,22.93 C18.0029205,22.8680665 18.2101558,22.8212715 18.42,22.79 L17.92,23.24 L18.12,23.54 L17.73,23.54 C17.5182342,23.5499989 17.3151254,23.6270401 17.15,23.76 C17.0490779,23.8296845 16.94196,23.8899383 16.83,23.94 L16.97,23.55 L16.47,23.46 C16.5338048,23.4240076 16.6007464,23.3938839 16.67,23.37 C17.0475581,23.3381482 17.3287976,23.0078033 17.3,22.63 L17.26,22.62 Z" id="Shape"></path>
                        <path d="M4.88,5.4 L4.47,5.4 C4.54034291,5.3409156 4.61756965,5.29055033 4.7,5.25 C4.97995642,5.14898057 5.19282092,4.91744375 5.27,4.63 C5.31055696,4.54519259 5.36459083,4.46751891 5.43,4.4 L5.55,4.72 L6.19,4.42 C6.06,4.58 5.93,4.74 5.79,4.89 C5.72388793,4.95634123 5.72388793,5.06365877 5.79,5.13 L5.94,5.47 L5.45,5.47 C5.3343603,5.45925189 5.22123395,5.50827331 5.15,5.6 C5.01642156,5.76533846 4.86924135,5.91920868 4.71,6.06 L4.88,5.4 Z" id="Shape"></path>
                        <path d="M6,21.64 C6.42152204,21.8923304 6.86299696,22.1097233 7.32,22.29 L7,22.67 L7.43,23.1 C7.27563417,23.043625 7.12528639,22.9768038 6.98,22.9 C6.87940501,22.8034888 6.72059499,22.8034888 6.62,22.9 L6.55,22.9 C6.43997997,22.7217165 6.30905198,22.5572172 6.16,22.41 C5.99213814,22.281269 5.81113128,22.1706537 5.62,22.08 L5.62,22.02 L6.11,22.02 L6,21.64 Z" id="Shape"></path>
                        <path d="M23.47,18.6 L23.34,18.6 C23.14,18.53 23.02,18.6 22.92,18.79 C22.85687,18.8848415 22.779261,18.969199 22.69,19.04 L22.82,18.48 C22.66,18.42 22.47,18.48 22.37,18.26 C22.55,18.17 22.71,18.07 22.89,18 C23.0105055,17.9559992 23.0877818,17.8380511 23.08,17.71 C23.0912144,17.5313442 23.1179824,17.3540062 23.16,17.18 L23.38,17.63 L23.71,17.42 C23.6431204,17.5587268 23.5662515,17.692412 23.48,17.82 C23.3482876,17.9919835 23.3214156,18.2223152 23.41,18.42 C23.4388322,18.4766856 23.4590544,18.5373522 23.47,18.6 Z" id="Shape"></path>
                        <path d="M11.67,24.38 L11.35,24.57 L11.63,24.84 C11.54,24.84 11.44,24.79 11.35,24.75 C11.1683403,24.6703845 10.9616597,24.6703845 10.78,24.75 C10.6,24.83 10.53,24.8 10.44,24.64 C10.3387019,24.5006052 10.1716304,24.4246636 10,24.44 L9.69,24.44 L9.9,24.44 C9.99640603,24.4299611 10.093594,24.4299611 10.19,24.44 C10.33,24.44 10.38,24.44 10.37,24.27 C10.3599948,24.1970079 10.3599948,24.1229921 10.37,24.05 C10.51,24.16 10.63,24.27 10.76,24.36 C10.8264539,24.402731 10.9016205,24.4300643 10.98,24.44 L11.66,24.44 L11.67,24.38 Z" id="Shape"></path>
                        <path d="M23.67,10.54 L24.01,10.42 C24.11,10.42 24.11,10.35 24.1,10.26 C24.092324,10.0826003 24.0756358,9.90570539 24.05,9.73 C24.25,9.93 24.26,10.32 24.65,10.22 C24.5803365,10.430127 24.5399568,10.6488503 24.53,10.87 C24.5749278,11.0761207 24.6490061,11.2747853 24.75,11.46 L24.47,11.21 L24.33,11.71 L24.28,11.71 L24.28,11 C24.2701046,10.9217695 24.2307689,10.8502501 24.17,10.8 C23.9982512,10.7234779 23.8312806,10.6366532 23.67,10.54 Z" id="Shape"></path>
                        <path d="M20.54,21.3 L20.66,21.66 L21.2,21.38 C21.11,21.47 21.04,21.58 20.95,21.66 C20.8473944,21.7542181 20.7954655,21.8914586 20.81,22.03 C20.8046714,22.0885669 20.7710688,22.1408375 20.72,22.17 C20.4265536,22.2137002 20.157667,22.3587575 19.96,22.58 C19.9152767,22.6261833 19.8648742,22.6665053 19.81,22.7 L19.99,22.31 L19.52,22.31 L19.52,22.26 L19.83,22.12 C20.1138242,22.0493136 20.3293805,21.8180806 20.38,21.53 C20.4097694,21.4421313 20.4500622,21.3581878 20.5,21.28 L20.54,21.3 Z" id="Shape"></path>
                        <path d="M22.64,7.28 L23,7.28 L22.83,6.68 L23.04,7.02 C23.1181571,7.18989854 23.2628358,7.32010939 23.44,7.38 C23.44,7.38 23.51,7.44 23.5,7.46 C23.499325,7.79856639 23.6003563,8.12953091 23.79,8.41 L23.45,8.15 L23.3,8.55 C23.2571915,8.30171403 23.1832763,8.05980968 23.08,7.83 C22.9539519,7.63108205 22.8063972,7.44663868 22.64,7.28 Z" id="Shape"></path>
                        <path d="M2.4,17.49 L2.1,17.25 L2,17.47 L1.54,16.41 L1.72,16.34 L1.64,15.84 C1.64,15.95 1.75,16.06 1.79,16.17 C1.80501395,16.238219 1.87125405,16.282379 1.94,16.27 L2,16.27 L2.32,16.27 C2.26236692,16.4788213 2.2288154,16.693551 2.22,16.91 C2.27126346,17.1188346 2.34853395,17.3204098 2.45,17.51 L2.4,17.49 Z" id="Shape"></path>
                        <path d="M1.63,14.32 L1.33,14.08 L1.22,14.41 L1.22,14.19 C1.21916373,13.9782318 1.16037239,13.770733 1.05,13.59 C1.05,13.54 1.05,13.47 1.05,13.44 C1.19153875,13.1763806 1.25730269,12.8787122 1.24,12.58 L1.36,13.07 L1.71,12.87 C1.62873752,13.1000933 1.57176097,13.3380542 1.54,13.58 C1.54002727,13.8293948 1.57024712,14.0778691 1.63,14.32 Z" id="Shape"></path>
                        <path d="M24.61,14.77 C24.6000833,14.6401891 24.6000833,14.5098109 24.61,14.38 C24.6483788,14.2399876 24.5809945,14.0925846 24.45,14.03 C24.39865,13.9920008 24.3516936,13.9483985 24.31,13.9 C24.3528513,13.8518022 24.4035714,13.8112261 24.46,13.78 C24.6118602,13.7079976 24.7005142,13.5468084 24.68,13.38 L24.68,12.94 L24.82,13.39 L24.94,13.39 L24.94,14.58 L24.76,14.47 L24.57,14.82 L24.61,14.77 Z" id="Shape"></path>
                        <path d="M3.47,19.36 C3.45398088,19.4592931 3.42715486,19.5565374 3.39,19.65 C3.31658535,19.7440345 3.31658535,19.8759655 3.39,19.97 L3.73,20.4 C3.64394451,20.3342841 3.55375906,20.2741605 3.46,20.22 C3.37,20.16 3.34,20.07 3.23,20.13 C3.12,20.19 3.23,20.13 3.17,20.07 L2.67,19.23 L2.82,19.23 L2.64,18.74 C2.70578483,18.8364133 2.765887,18.9365836 2.82,19.04 C3,19.25 3.09,19.46 3.47,19.36 Z" id="Shape"></path>
                        <path d="M9.19,1.77 L8.77,2 L8.99,2.24 C8.54764355,2.1789341 8.10250813,2.33102204 7.79,2.65 L7.88,2.43 L7.55,2.43 C8.04677255,2.10205092 8.60454323,1.87758223 9.19,1.77 Z" id="Shape"></path>
                        <path d="M3.23,6.06 L3.29,6.27 L3.63,5.97 C3.33183533,6.21056632 3.18343191,6.5910879 3.24,6.97 C3.09323596,6.9873215 2.95088656,7.03138203 2.82,7.1 C2.72182294,7.19948995 2.63154958,7.30648061 2.55,7.42 C2.58263435,7.34897627 2.60939064,7.27539646 2.63,7.2 C2.63,7.13 2.73,7.06 2.63,7 L3.23,6.06 Z" id="Shape"></path>
                        <path d="M1.36,10 L1.36,10.13 L1.54,10 C1.42,10.4 1.2,10.76 1.39,11.2 L1.18,11.13 L1,11.54 C1.05382246,11.3987547 1.08748632,11.2506337 1.1,11.1 C1.1,10.69 1.32,10.36 1.33,9.96 L1.36,10 Z" id="Shape"></path>
                        <path d="M8.64,24.37 L8.83,24.48 L7.35,23.86 L7.68,23.77 C7.82007075,23.878418 7.97085394,23.9722387 8.13,24.05 C8.31631518,24.1105624 8.50682793,24.157355 8.7,24.19 L8.64,24.37 Z" id="Shape"></path>
                        <path d="M6.22,3.12 C6.09549611,3.19372838 6.03129578,3.33817913 6.06,3.48 C6.06,3.48 6.06,3.54 6.06,3.55 L5.27,3.94 C5.52130813,3.59901422 5.84595603,3.31879182 6.22,3.12 Z" id="Shape"></path>
                    </g>
                </g>
            </g>
        </g>
    </g>
</svg>