<?xml version="1.0" encoding="UTF-8"?>
<svg width="50px" height="50px" viewBox="0 0 50 50" version="1.1" xmlns="http://www.w3.org/2000/svg" xmlns:xlink="http://www.w3.org/1999/xlink">
    <!-- Generator: Sketch 51.3 (57544) - http://www.bohemiancoding.com/sketch -->
    <title>S</title>
    <desc>Created with Sketch.</desc>
    <defs></defs>
    <g id="Page-1" stroke="none" stroke-width="1" fill="none" fill-rule="evenodd">
        <g id="Welcome-on-board" transform="translate(-764.000000, -369.000000)">
            <g id="Group-3" transform="translate(232.000000, 369.000000)">
                <g id="S" transform="translate(532.000000, 0.000000)">
                    <rect id="Rectangle-6-Copy" fill="#15A3A6" fill-rule="nonzero" x="0" y="0" width="50" height="50"></rect>
                    <circle id="Oval-2" stroke="#FFFFFF" stroke-width="2" cx="25.625" cy="19.375" r="9.375"></circle>
                    <path d="M20.6,26.9 L14.4,26.9 L14.4,37.934943 C16.2201438,36.3314809 16.2353045,36.3181262 16.6332415,35.9675948 C17.1238618,35.541281 17.8854795,35.543571 18.3731286,35.9731681 L20.6,37.9349426 L20.6,26.9 Z" id="Rectangle" stroke="#FFFFFF" stroke-width="1.3" transform="translate(17.500000, 32.500000) rotate(32.000000) translate(-17.500000, -32.500000) "></path>
                    <path d="M35.6,26.9 L29.4,26.9 L29.4,37.934943 C31.2201438,36.3314809 31.2353045,36.3181262 31.6332415,35.9675948 C32.1238618,35.541281 32.8854795,35.543571 33.3731286,35.9731681 L35.6,37.9349426 L35.6,26.9 Z" id="Rectangle" stroke="#FFFFFF" stroke-width="1.3" transform="translate(32.500000, 32.500000) scale(-1, 1) rotate(32.000000) translate(-32.500000, -32.500000) "></path>
                </g>
            </g>
        </g>
    </g>
</svg>