<?xml version="1.0" encoding="UTF-8"?>
<svg width="8px" height="8px" viewBox="0 0 8 8" version="1.1" xmlns="http://www.w3.org/2000/svg" xmlns:xlink="http://www.w3.org/1999/xlink">
    <!-- Generator: Sketch 50.2 (55047) - http://www.bohemiancoding.com/sketch -->
    <title>Combined Shape</title>
    <desc>Created with Sketch.</desc>
    <defs></defs>
    <g id="Page-1" stroke="none" stroke-width="1" fill="none" fill-rule="evenodd">
        <g id="登录后首页" transform="translate(-21.000000, -1722.000000)" fill="#FFFFFF">
            <g id="Group-2" transform="translate(15.000000, 1716.000000)">
                <path d="M10,9.55186065 L13.4576928,6.09307412 C13.5814029,5.96932484 13.782378,5.96892507 13.9065831,6.09218122 C14.0307881,6.21543736 14.0311894,6.41567481 13.9074792,6.53942409 L10.4479976,10 L13.9074792,13.4605759 C14.0311894,13.5843252 14.0307881,13.7845626 13.9065831,13.9078188 C13.782378,14.0310749 13.5814029,14.0306752 13.4576928,13.9069259 L10,10.4481393 L6.54230721,13.9069259 C6.41859706,14.0306752 6.21762205,14.0310749 6.09341695,13.9078188 C5.96921185,13.7845626 5.96881061,13.5843252 6.09252076,13.4605759 L9.55200236,10 L6.09252076,6.53942409 C5.96881061,6.41567481 5.96921185,6.21543736 6.09341695,6.09218122 C6.21762205,5.96892507 6.41859706,5.96932484 6.54230721,6.09307412 L10,9.55186065 Z" id="Combined-Shape"></path>
            </g>
        </g>
    </g>
</svg>