<?xml version="1.0" encoding="UTF-8"?>
<svg width="111px" height="174px" viewBox="0 0 111 174" version="1.1" xmlns="http://www.w3.org/2000/svg" xmlns:xlink="http://www.w3.org/1999/xlink">
    <!-- Generator: Sketch 50.2 (55047) - http://www.bohemiancoding.com/sketch -->
    <title>sico@2x</title>
    <desc>Created with Sketch.</desc>
    <defs>
        <linearGradient x1="50%" y1="0%" x2="50%" y2="100%" id="linearGradient-1">
            <stop stop-color="#5A65FF" offset="0%"></stop>
            <stop stop-color="#8376FF" offset="100%"></stop>
        </linearGradient>
        <linearGradient x1="50%" y1="0%" x2="50%" y2="100%" id="linearGradient-2">
            <stop stop-color="#ED5360" offset="0%"></stop>
            <stop stop-color="#FE9766" offset="100%"></stop>
        </linearGradient>
    </defs>
    <g id="Page-1" stroke="none" stroke-width="1" fill="none" fill-rule="evenodd">
        <g id="登录后首页" transform="translate(-249.000000, -534.000000)">
            <g id="Group-4" transform="translate(42.000000, 534.000000)">
                <g id="sico" transform="translate(207.000000, 0.000000)">
                    <rect id="Rectangle-7" fill="url(#linearGradient-1)" x="16" y="37" width="34" height="34" rx="3"></rect>
                    <rect id="Rectangle-7" fill="#6469BE" opacity="0.0784040179" x="52" y="156" width="27" height="18"></rect>
                    <rect id="Rectangle-7" fill="#6469BE" opacity="0.129464286" x="84" y="23" width="27" height="18"></rect>
                    <rect id="Rectangle-7" fill="url(#linearGradient-1)" x="83" y="99" width="28" height="28" rx="3"></rect>
                    <rect id="Rectangle-7" fill="url(#linearGradient-1)" x="7" y="102" width="40" height="40" rx="3"></rect>
                    <g id="社群" transform="translate(24.000000, 47.000000)" fill="#FFFFFF" fill-rule="nonzero">
                        <path d="M13.956435,4.93355149 C13.956435,2.21383731 11.7336215,0 8.99999999,0 C6.26637844,0 4.04356502,2.21383731 4.04356502,4.93355149 C4.04048449,6.73795856 5.0256231,8.39796312 6.6075823,9.25404034 C5.49418024,10.4300788 4.81177252,12.4155202 4.81177252,14.5011353 C4.81177252,14.7733312 5.03153565,14.9939896 5.3026272,14.9939896 C5.57371875,14.9939896 5.79348187,14.7733312 5.79348187,14.5011353 C5.79348187,12.5146921 6.45493847,10.687525 7.52045227,9.73387204 C7.54443698,9.71178747 7.56646836,9.68765533 7.58629864,9.66174703 C8.51112193,9.93524537 9.4948641,9.93524537 10.4196874,9.66174703 C10.4386514,9.68897461 10.4607534,9.71385664 10.4855338,9.73587552 C11.5510476,10.6895285 12.2125042,12.5156939 12.2125042,14.5031388 C12.2124739,14.6792389 12.3060237,14.8419751 12.4579071,14.9300339 C12.6097904,15.0180927 12.7969272,15.0180927 12.9488106,14.9300339 C13.100694,14.8419751 13.1942437,14.6792389 13.1942135,14.5031388 C13.1942135,12.416522 12.5088128,10.4300788 11.3984037,9.25504207 C12.9780485,8.39686443 13.96063,6.73690958 13.956435,4.93355149 Z M8.99999999,0.983705083 C11.1948786,0.983705083 12.9777186,2.75577668 12.9777187,4.93355149 C12.9777187,7.1113263 11.1928833,8.88439963 8.99999999,8.88439963 C6.80711672,8.88439963 5.02228134,7.11232803 5.02228134,4.93355149 C5.02228134,2.75477495 6.80711673,0.983705083 8.99999999,0.983705083 Z M3.51280346,3.74449044 C3.4897566,3.74508603 3.46676741,3.74709324 3.44396408,3.75050087 C1.48054539,4.01996795 0,5.68986243 0,7.63423267 C0.00241082389,8.97393888 0.692501828,10.2177552 1.82573994,10.9249366 L1.8846026,10.9630025 C1.69909756,11.2104585 1.53867368,11.4759006 1.40571998,11.755376 L1.39175257,11.7884333 C1.00073473,12.6404985 0.802766722,13.5690251 0.812105093,14.5071457 C0.812151824,14.7793084 1.03190126,14.999915 1.30295976,14.999915 C1.57401826,14.999915 1.7937677,14.7793084 1.79381443,14.5071457 C1.78573508,13.7058115 1.95616991,12.9127991 2.29265048,12.1861226 C2.46455387,11.8080046 2.70898445,11.4676075 3.01197207,11.1843863 L3.6185567,10.6524643 L2.86830728,10.3519434 C2.72523821,10.2962557 2.58679289,10.2292632 2.45427335,10.1515961 L2.40838044,10.1245492 C1.52930531,9.60553055 0.987281423,8.6601654 0.981709348,7.63623614 C0.981709348,6.1827167 2.09810443,4.93154801 3.57565679,4.73120074 C3.7047039,4.71374704 3.82144698,4.64521921 3.89990024,4.54087084 C3.97991839,4.43738008 4.01579663,4.30625129 3.99966744,4.17623881 C3.97112023,3.92853987 3.76113432,3.74232549 3.51280346,3.74449044 Z M16.59428,11.751369 C16.46064,11.4725821 16.3002542,11.2075384 16.1153974,10.9599973 C17.2824031,10.2603823 17.9979149,8.99695545 18,7.6322292 C18,5.68785896 16.5194546,4.01796448 14.5530429,3.74749566 L14.4852012,3.74749566 C14.2402459,3.74656298 14.0330718,3.92922352 14.0023279,4.1732336 C13.9656185,4.4422601 14.1525442,4.69041936 14.4203525,4.72819554 C15.9008979,4.92854281 17.0143,6.18371845 17.0143,7.63323094 C17.0105862,8.64360584 16.4842906,9.57947126 15.6245427,10.1045145 L15.5876289,10.1265527 C15.4415015,10.2161172 15.2879567,10.2928672 15.1286997,10.3559503 L14.3804456,10.6564712 L14.9860326,11.1883932 C15.2808605,11.4610812 15.520083,11.7887153 15.6903891,12.1530653 L15.7063518,12.1861226 C16.0435744,12.9125488 16.214046,13.7057323 16.2051879,14.5071457 C16.2051879,14.7793416 16.424951,15 16.6960426,15 C16.9671341,15 17.1868972,14.7793416 17.1868972,14.5071457 C17.1952308,13.569234 16.997665,12.6409966 16.6082474,11.7884333 L16.59428,11.751369 Z" id="Shape"></path>
                        <path d="M8.99904717,8 C10.1014769,8 11,7.28716959 11,6.41397436 C10.9887008,6.18238497 10.7823735,6 10.5316818,6 C10.28099,6 10.0746627,6.18238497 10.0633635,6.41397436 C10.0633635,6.81312415 9.58694615,7.13737828 9,7.13737828 C8.41305385,7.13737828 7.9366365,6.81312415 7.9366365,6.41397436 C7.92533733,6.18238497 7.71901003,6 7.46831825,6 C7.21762647,6 7.01129917,6.18238497 7,6.41397436 C7.00095283,7.28716959 7.89757027,8 8.99904717,8 Z" id="Shape"></path>
                    </g>
                    <g id="火箭" transform="translate(18.000000, 108.000000)" fill="#FFFFFF" fill-rule="nonzero">
                        <path d="M10.3237582,6.61415466 L10.3237582,5.32375687 C10.3237582,5.14494593 10.1787793,5 10,5 C9.82122072,5 9.67624182,5.14494597 9.67624182,5.32375687 L9.67624182,6.61415466 C8.60696565,6.75855024 7.75855733,7.6069551 7.61416119,8.67622694 L6.32375818,8.67622694 C6.14494652,8.67622694 6,8.82117291 6,8.99998381 C6,9.17879471 6.14494655,9.32374068 6.32375818,9.32374068 L7.61416119,9.32374068 C7.75855736,10.3930449 8.60696565,11.2414498 9.67624182,11.3858453 L9.67624182,12.6762431 C9.67624182,12.8550541 9.82122072,13 10,13 C10.1787793,13 10.3237582,12.855054 10.3237582,12.6762431 L10.3237582,11.3858453 C11.3930667,11.2414498 12.2414427,10.3930449 12.3858388,9.32374068 L13.6762418,9.32374068 C13.8550211,9.32374068 14,9.17879471 14,8.99998381 C14,8.82117291 13.8550211,8.67622694 13.6762418,8.67622694 L12.3858388,8.67622694 C12.2414426,7.6069551 11.3930343,6.75855021 10.3237582,6.61415466 Z M10,10.7607356 C9.02914634,10.7607356 8.23927347,9.97089833 8.23927347,9.00001619 C8.23927347,8.02916646 9.02911393,7.23929679 10,7.23929682 C10.9708861,7.23929685 11.7607265,8.02913408 11.7607265,9.00001619 C11.7607265,9.9708983 10.9708537,10.7607356 10,10.7607356 Z" id="Shape"></path>
                        <path d="M15.1060299,16.4922846 L15.1060299,8.07737534 C15.1060299,6.55514496 14.5213093,5.1200819 13.4595488,4.03651253 C12.473626,3.03033866 11.1906509,2.44428856 9.81812732,2.36565942 L9.81812732,0.324645513 C9.81812732,0.145343781 9.67567704,0 9.50001591,0 C9.32435477,0 9.18190449,0.145343812 9.18190449,0.324645513 L9.18190449,2.36565942 C7.80941277,2.44428856 6.52640578,3.03033866 5.54048304,4.03651253 C4.47872257,5.12008187 3.89400193,6.55514493 3.89400193,8.07737534 L3.89400193,16.4922846 L0,23.3754514 L5.68404671,23.3754514 L4.91313549,26.4537078 L14.0868645,26.4537078 L13.3159533,23.3754514 L19,23.3754514 L15.1060299,16.4922846 Z M1.10200161,22.7261928 L3.89403375,17.7908992 L3.89403375,22.7261928 L1.10200161,22.7261928 Z M5.73246329,25.8044492 L6.3070043,23.5102443 L12.6930911,23.5102443 L13.267664,25.8044492 L5.73246329,25.8044492 Z M14.4698071,22.7261928 L9.81815914,22.7261928 L9.81815914,18.4143809 C9.81815914,18.2351116 9.67570886,18.0897354 9.50004772,18.0897354 C9.32438659,18.0897354 9.18193631,18.2351116 9.18193631,18.4143809 L9.18193631,22.7261604 L4.53025658,22.7261928 L4.53025658,8.07737534 C4.53025658,6.72860305 5.04881002,5.45657697 5.99038802,4.49562624 C6.93199785,3.53470796 8.17839021,3.00550332 9.50004772,3.00550328 C10.8217052,3.00550325 12.0681294,3.53470796 13.0096756,4.49562624 C13.9512854,5.456577 14.469807,6.72857062 14.4698071,8.07737534 L14.4698071,22.7261928 Z M15.1060299,17.7908667 L17.8980938,22.7261928 L15.1060299,22.7261928 L15.1060299,17.7908667 Z M5.49375246,26.9825878 C5.31805951,26.9825878 5.17564105,27.1279641 5.17564105,27.3072333 L5.17564105,28.6753545 C5.17564105,28.8546238 5.31805954,29 5.49375246,29 C5.66944538,29 5.81186388,28.8546238 5.81186388,28.6753545 L5.81186388,27.3072333 C5.81186388,27.1279316 5.66944538,26.9825878 5.49375246,26.9825878 Z M9.50004772,26.9825878 C9.32438659,26.9825878 9.18193631,27.1279641 9.18193631,27.3072333 L9.18193631,28.6753545 C9.18193631,28.8546238 9.32438659,29 9.50004772,29 C9.67570886,29 9.81815914,28.8546238 9.81815914,28.6753545 L9.81815914,27.3072333 C9.81815914,27.1279316 9.67570886,26.9825878 9.50004772,26.9825878 Z M13.5637303,26.9825878 C13.3880691,26.9825878 13.2456189,27.1279641 13.2456189,27.3072333 L13.2456189,28.6753545 C13.2456189,28.8546238 13.3880691,29 13.5637303,29 C13.7393914,29 13.8818417,28.8546238 13.8818417,28.6753545 L13.8818417,27.3072333 C13.8818417,27.1279316 13.7393914,26.9825878 13.5637303,26.9825878 Z" id="Shape"></path>
                    </g>
                    <rect id="Rectangle-6" fill="url(#linearGradient-2)" x="38" y="58" width="52" height="52" rx="2"></rect>
                    <text id="SICO" font-family="PingFang-SC-Heavy, PingFang SC" font-size="16" font-weight="600" fill="#FFFFFF">
                        <tspan x="45" y="91">SICO</tspan>
                    </text>
                    <rect id="Rectangle-8" fill="#31345F" x="0" y="0" width="15" height="15"></rect>
                    <g id="交易" transform="translate(92.000000, 108.000000)" fill="#FFFFFF" fill-rule="nonzero">
                        <path d="M9.86207897,4.93102539 L8.34486851,4.93102539 L8.34486851,0.758443797 C8.34486851,0.339692831 8.00483729,0 7.58628966,0 L0.758592042,0 C0.339661977,0 0,0.339692831 0,0.758443797 L0,10.241332 C0,10.6603072 0.339661977,11 0.758592042,11 L9.86207897,11 C10.4895773,11 11,10.4895574 11,9.86205078 L11,6.06897461 C11,5.44145478 10.4895773,4.93103858 9.86207897,4.93103858 L9.86207897,4.93102539 Z M7.58628966,10.2413452 L0.758592042,10.2413452 L0.758592042,0.758443797 L7.58628966,0.758443797 L7.58628966,10.2413452 Z M10.2413948,9.86205078 C10.2413948,10.0709779 10.0710165,10.2413452 9.86209216,10.2413452 L8.34486851,10.2413452 L8.34486851,5.68962743 L9.86209216,5.68962743 C10.0710297,5.68962743 10.2413816,5.85966507 10.2413816,6.06896142 L10.2413816,9.86203759 L10.2413948,9.86205078 Z M1.89651307,1.89636665 L6.06906601,1.89636665 L6.06906601,2.6551665 L1.89651307,2.6551665 L1.89651307,1.89636665 Z M1.89651307,4.17223872 L4.93093399,4.17223872 L4.93093399,4.93103858 L1.89651307,4.93103858 L1.89651307,4.17223872 Z M1.89651307,6.44829542 L6.44835544,6.44829542 L6.44835544,7.20687109 L1.89651307,7.20687109 L1.89651307,6.44829542 Z" id="Shape"></path>
                    </g>
                </g>
            </g>
        </g>
    </g>
</svg>