<?xml version="1.0" encoding="UTF-8"?>
<svg width="130px" height="25px" viewBox="0 0 130 25" version="1.1" xmlns="http://www.w3.org/2000/svg" xmlns:xlink="http://www.w3.org/1999/xlink">
    <!-- Generator: Sketch 50.2 (55047) - http://www.bohemiancoding.com/sketch -->
    <title>slowmist</title>
    <desc>Created with Sketch.</desc>
    <defs></defs>
    <g id="Page-1" stroke="none" stroke-width="1" fill="none" fill-rule="evenodd">
        <g id="G.55.com" transform="translate(-591.000000, -1782.000000)" fill="#FFFFFF" fill-rule="nonzero">
            <g id="Our-Lovely-Partners-" transform="translate(79.000000, 1548.000000)">
                <g id="Group-3" transform="translate(70.000000, 174.000000)">
                    <g id="slowmist" transform="translate(441.000000, 60.000000)">
                        <path d="M33.2,17.08 L39.2,17.08 C39.597083,17.1088013 39.9945393,17.0293101 40.35,16.85 C40.5841229,16.715847 40.7202923,16.4590702 40.7,16.19 C40.7185837,15.9159415 40.5838322,15.6541386 40.35,15.51 C39.9862773,15.3594274 39.5928258,15.2944223 39.2,15.32 L36.72,15.32 C35.717174,15.4191661 34.7075447,15.2172402 33.82,14.74 C33.2298146,14.2538661 32.9313378,13.4982287 33.03,12.74 C32.9803162,11.9159311 33.3439586,11.1211663 34,10.62 C34.8485949,10.1429433 35.8192253,9.92724766 36.79,10 L42.85,10 L42.85,11.86 L37.85,11.86 C37.3200507,11.822956 36.7878142,11.8839767 36.28,12.04 C36.0250141,12.1406825 35.8664205,12.3968722 35.89,12.67 C35.8677729,12.9263763 35.9965862,13.1722927 36.22,13.3 C36.5304508,13.4519581 36.8749846,13.5208648 37.22,13.5 L39.76,13.5 C40.6994623,13.4391906 41.6340738,13.677219 42.43,14.18 C43.0617838,14.6436282 43.4126236,15.3981224 43.36,16.18 C43.3740842,16.9272955 43.0855751,17.6485682 42.56,18.18 C41.9859932,18.7129077 41.222516,18.9938096 40.44,18.96 L33.2,18.96 L33.2,17.08 Z" id="Shape"></path>
                        <polygon id="Shape" points="48.29 18.94 45.35 18.94 45.35 6.68 48.29 6.68"></polygon>
                        <path d="M61.32,14.44 C61.3669464,15.7468413 60.8010607,17.0006664 59.79,17.83 C58.6104897,18.7196468 57.1554604,19.1657142 55.68,19.09 C54.1985212,19.1644733 52.7376076,18.7187709 51.55,17.83 C50.5719478,16.9791501 50.0104081,15.7463533 50.0104081,14.45 C50.0104081,13.1536467 50.5719478,11.9208499 51.55,11.07 C52.0741205,10.6153913 52.6871176,10.2748374 53.35,10.07 C54.1079454,9.85625713 54.892535,9.75186968 55.68,9.76 C57.1537203,9.6856831 58.6072089,10.1277417 59.79,11.01 C60.8125576,11.8479356 61.379676,13.1193188 61.32,14.44 Z M52.97,14.44 C52.8990763,15.1755059 53.1584831,15.9045209 53.6780713,16.4299037 C54.1976595,16.9552866 54.9237528,17.2227624 55.66,17.16 C56.403027,17.2399253 57.1422904,16.9791511 57.6707207,16.4507207 C58.1991511,15.9222904 58.4599253,15.183027 58.38,14.44 C58.4359086,13.6993327 58.1698856,12.9705025 57.65,12.44 C57.1140339,11.9288437 56.3892231,11.6642878 55.65,11.71 C54.9194585,11.6628294 54.2049497,11.938231 53.6950569,12.4635168 C53.1851641,12.9888026 52.9311289,13.7111841 53,14.44 L52.97,14.44 Z" id="Shape"></path>
                        <polygon id="Shape" points="70.61 12.8 68.38 18.94 65.27 18.94 61.52 9.94 64.52 9.94 66.88 16.22 69.17 10 72.17 10 74.54 16.28 76.9 10 79.81 10 76.19 19 72.93 19"></polygon>
                        <path d="M88.59,10 L99.39,10 C100.576426,9.90625362 101.763075,10.1784847 102.79,10.78 C103.538843,11.3882644 103.936169,12.3291011 103.85,13.29 L103.85,18.98 L101,18.98 L101,13.58 C101.048473,13.1136432 100.919986,12.6460933 100.64,12.27 C100.188274,12.0223232 99.6731506,11.9144259 99.16,11.96 L97.6,11.96 L97.6,18.96 L94.72,18.96 L94.72,11.96 L91.42,11.96 L91.42,18.96 L88.59,18.96 L88.59,10 Z" id="Shape"></path>
                        <path d="M109.32,8.94 L106.32,8.94 L106.32,6.68 L109.32,6.68 L109.32,8.94 Z M109.32,18.94 L106.32,18.94 L106.32,10 L109.32,10 L109.32,18.94 Z" id="Shape"></path>
                        <path d="M111.58,17.08 L117.58,17.08 C117.976988,17.1073109 118.374053,17.0278979 118.73,16.85 C118.96212,16.7149159 119.094769,16.4574206 119.07,16.19 C119.090667,15.9179913 118.960007,15.6566715 118.73,15.51 C118.365986,15.3604506 117.972773,15.295485 117.58,15.32 L115.1,15.32 C114.093984,15.4187476 113.081281,15.2169031 112.19,14.74 C111.599815,14.2538661 111.301338,13.4982287 111.4,12.74 C111.329048,11.9097436 111.678105,11.0990303 112.33,10.58 C113.188237,10.0781042 114.178393,9.84799755 115.17,9.92 L121.23,9.92 L121.23,11.78 L116.23,11.78 C115.703318,11.7418679 115.174158,11.8029249 114.67,11.96 C114.415014,12.0606825 114.25642,12.3168722 114.28,12.59 C114.257773,12.8463763 114.386586,13.0922927 114.61,13.22 C114.920451,13.3719581 115.264985,13.4408648 115.61,13.42 L118.15,13.42 C119.092748,13.3577414 120.03098,13.5958003 120.83,14.1 C121.461784,14.5636282 121.812624,15.3181224 121.76,16.1 C121.774084,16.8472955 121.485575,17.5685682 120.96,18.1 C120.379444,18.6287429 119.61472,18.9087829 118.83,18.88 L111.54,18.88 L111.58,17.08 Z" id="Shape"></path>
                        <path d="M122.74,10 L124.74,10 L124.74,6.68 L127.55,6.68 L127.55,10 L130.55,10 L130.55,11.77 L127.55,11.77 L127.55,15.41 C127.494934,15.9126314 127.64249,16.4164801 127.96,16.81 C128.365304,17.1098585 128.868904,17.2455806 129.37,17.19 L130.52,17.19 L130.52,18.98 L127.94,18.98 C127.089858,19.0391998 126.24824,18.7788689 125.58,18.25 C124.988213,17.7232776 124.677326,16.9497594 124.74,16.16 L124.74,11.73 L122.74,11.73 L122.74,10 Z" id="Shape"></path>
                        <path d="M11.8,0.87 C9,4.54 1.09,4.71 1.09,4.71 C1.09,4.71 -0.45,17.83 11.83,24.91 L11.8,0.87 Z" id="Shape" opacity="0.8"></path>
                        <path d="M18.06,19.47 L16.06,19.47 C14.800419,20.8825884 13.3457659,22.1082683 11.74,23.11 C7.60067828,20.5602817 4.58672464,16.5309511 3.31,11.84 C2.79332645,9.98038875 2.52763872,8.06003814 2.52,6.13 C3.57228231,6.03510021 4.61763699,5.87479023 5.65,5.65 C7.86554495,5.25553177 9.9580145,4.34799587 11.76,3 C12.9349739,3.89237601 14.258768,4.56950853 15.67,5 L15.67,3.45 C14.163947,2.97297247 12.8181696,2.0907791 11.78,0.9 C8.88,4.54 1.06,4.71 1.06,4.71 C1.06,4.71 -0.47,17.78 11.73,24.86 C14.1705911,23.4922929 16.320785,21.6614011 18.06,19.47 Z" id="Shape"></path>
                        <rect id="Rectangle-path" x="16.68" y="2.34" width="1.62" height="1.42"></rect>
                        <rect id="Rectangle-path" x="20.02" y="3.75" width="1.87" height="1.67"></rect>
                        <rect id="Rectangle-path" x="14.41" y="5.17" width="2.17" height="1.87"></rect>
                        <rect id="Rectangle-path" x="16.98" y="5.42" width="3.08" height="2.78"></rect>
                        <rect id="Rectangle-path" x="12.79" y="7.9" width="2.48" height="2.17"></rect>
                        <rect id="Rectangle-path" x="20.22" y="8.91" width="2.27" height="2.02"></rect>
                        <rect id="Rectangle-path" x="17.89" y="10.22" width="1" height="1"></rect>
                        <rect id="Rectangle-path" x="15.67" y="11.49" width="3.44" height="3.08"></rect>
                        <rect id="Rectangle-path" x="14.46" y="14.87" width="1" height="1"></rect>
                        <rect id="Rectangle-path" x="16.23" y="16.34" width="1.42" height="1.42"></rect>
                        <rect id="Rectangle-path" x="20.17" y="12.4" width="1.36" height="1.26"></rect>
                        <rect id="Rectangle-path" x="19.11" y="16.54" width="2.17" height="2.02"></rect>
                        <rect id="Rectangle-path" x="21.53" y="15.28" width="1.72" height="1.52"></rect>
                        <rect id="Rectangle-path" x="22.85" y="12.75" width="1.42" height="1.42"></rect>
                        <rect id="Rectangle-path" x="24.36" y="10.12" width="2.63" height="2.43"></rect>
                        <rect id="Rectangle-path" x="23.1" y="6.23" width="1.21" height="1.11"></rect>
                        <rect id="Rectangle-path" x="25.54" y="5.54" width="1.18" height="1.18"></rect>
                        <rect id="Rectangle-path" x="17.56" y="3.6" width="1" height="2.22"></rect>
                        <rect id="Rectangle-path" x="14.41" y="6.91" width="1" height="1.26"></rect>
                        <rect id="Rectangle-path" x="15.04" y="7.9" width="2.12" height="1"></rect>
                        <rect id="Rectangle-path" x="18.25" y="7.97" width="1" height="2.38"></rect>
                        <rect id="Rectangle-path" x="18.37" y="9.62" width="1.92" height="1"></rect>
                        <rect id="Rectangle-path" x="21.13" y="5.14" width="1" height="3.99"></rect>
                        <rect id="Rectangle-path" x="24.14" y="6.53" width="1.87" height="1"></rect>
                        <rect id="Rectangle-path" x="25.83" y="6.61" width="1" height="3.74"></rect>
                        <rect id="Rectangle-path" x="22.34" y="10.68" width="2.58" height="1"></rect>
                        <rect id="Rectangle-path" x="21.3" y="12.85" width="1.77" height="1"></rect>
                        <rect id="Rectangle-path" x="23.1" y="13.38" width="1" height="2.17"></rect>
                        <rect id="Rectangle-path" x="18.78" y="13.46" width="1.77" height="1"></rect>
                        <rect id="Rectangle-path" x="17.49" y="14.14" width="1" height="2.73"></rect>
                        <rect id="Rectangle-path" transform="translate(15.975345, 14.978832) rotate(-45.000000) translate(-15.975345, -14.978832) " x="15.2253452" y="14.4788322" width="1.5" height="1"></rect>
                        <rect id="Rectangle-path" x="21.1" y="16.54" width="1" height="1"></rect>
                        <rect id="Rectangle-path" transform="translate(24.704069, 12.820615) rotate(-54.170000) translate(-24.704069, -12.820615) " x="24.1440693" y="12.320615" width="1.12" height="1"></rect>
                    </g>
                </g>
            </g>
        </g>
    </g>
</svg>