<svg id="图层_1" data-name="图层 1" xmlns="http://www.w3.org/2000/svg" viewBox="0 0 61.75 21.88"><defs><style>.cls-1{fill:#fff;}</style></defs><title>town</title><g id="Page-1"><g id="G.55.com0928标注"><g id="Our-Lovely-Partners-"><g id="Group-3"><g id="town"><polygon id="Shape" class="cls-1" points="0 0.09 4.25 0.09 4.25 8.46 12.01 0.09 17.4 0.09 9.32 8.34 17.93 20.33 12.41 20.33 6.28 11.42 4.25 13.53 4.25 20.33 0 20.33 0 0.09"/><polygon id="Shape-2" data-name="Shape" class="cls-1" points="24.76 1.75 21.89 1.75 21.89 0.05 29.61 0.05 29.61 1.75 26.75 1.75 26.75 9.56 24.76 9.56 24.76 1.75"/><path id="Shape-3" data-name="Shape" class="cls-1" d="M31.21,8.78a3.67,3.67,0,0,1-1-2.67,3.8,3.8,0,0,1,1-2.73,3.91,3.91,0,0,1,5.25,0,3.79,3.79,0,0,1,.94,2.73,3.67,3.67,0,0,1-1,2.67,3.54,3.54,0,0,1-2.63,1A3.51,3.51,0,0,1,31.21,8.78ZM35.09,7.7a2.54,2.54,0,0,0,.43-1.58,2.61,2.61,0,0,0-.43-1.63,1.74,1.74,0,0,0-1.28-.57,1.7,1.7,0,0,0-1.27.57,2.61,2.61,0,0,0-.43,1.63,2.61,2.61,0,0,0,.43,1.58,1.7,1.7,0,0,0,1.27.57A1.74,1.74,0,0,0,35.09,7.7Z"/><polygon id="Shape-4" data-name="Shape" class="cls-1" points="40.03 9.58 37.99 2.6 39.95 2.6 41.08 7.7 41.08 7.7 42.13 2.6 43.99 2.6 45.05 7.7 46.17 2.6 48.04 2.6 46.01 9.63 44.11 9.63 43.03 4.39 43.03 4.39 41.93 9.63 40.03 9.63 40.03 9.58"/><path id="Shape-5" data-name="Shape" class="cls-1" d="M49,2.6h1.76v1L51,3.29a2.35,2.35,0,0,1,2-.85,2.27,2.27,0,0,1,1.7.65,2.54,2.54,0,0,1,.63,1.84V9.65H53.55V5.19a1.52,1.52,0,0,0-.28-1,1.08,1.08,0,0,0-.85-.3,1.42,1.42,0,0,0-1.12.43,1.83,1.83,0,0,0-.4,1.27v4H49Z"/><path id="Shape-6" data-name="Shape" class="cls-1" d="M25,16.44a1.76,1.76,0,0,1,.59,1.13H25a1.11,1.11,0,0,0-.38-.72,1.35,1.35,0,0,0-.8-.24,1.12,1.12,0,0,0-.94.46,2.25,2.25,0,0,0,0,2.37A1.21,1.21,0,0,0,25,18.82h.63a2,2,0,0,1-.6,1.19,1.86,1.86,0,0,1-1.25.44,1.77,1.77,0,0,1-1.44-.62,2.28,2.28,0,0,1-.48-1.52,2.36,2.36,0,0,1,.48-1.54,1.73,1.73,0,0,1,1.45-.65A2,2,0,0,1,25,16.44Z"/><path id="Shape-7" data-name="Shape" class="cls-1" d="M29.7,16.72a2.31,2.31,0,0,1,.52,1.53,2.3,2.3,0,0,1-.47,1.52,1.82,1.82,0,0,1-1.48.64,1.8,1.8,0,0,1-1.47-.64,2.2,2.2,0,0,1-.52-1.52,2.26,2.26,0,0,1,.52-1.53,2,2,0,0,1,2.94,0Zm-2.5.4a1.82,1.82,0,0,0-.32,1.13,1.82,1.82,0,0,0,.32,1.13,1.17,1.17,0,0,0,1,.5,1.24,1.24,0,0,0,1-.5,2.1,2.1,0,0,0,0-2.26,1.22,1.22,0,0,0-1-.51A1.19,1.19,0,0,0,27.2,17.12Z"/><path id="Shape-8" data-name="Shape" class="cls-1" d="M34.13,16.86a1.41,1.41,0,0,1,.57-.59,1.27,1.27,0,0,1,.72-.18,1.39,1.39,0,0,1,1,.4,1.59,1.59,0,0,1,.39,1.12V20.3h-.64V17.75A1.24,1.24,0,0,0,36,16.9a1,1,0,0,0-.76-.28.86.86,0,0,0-.68.31,1.15,1.15,0,0,0-.28.8v2.55h-.63V17.73c0-.73-.31-1.09-.94-1.09A.82.82,0,0,0,32,17a1.15,1.15,0,0,0-.29.85v2.5H31V16.2h.64v.54a1.36,1.36,0,0,1,1.15-.65A1.28,1.28,0,0,1,34.13,16.86Z"/><path id="Shape-9" data-name="Shape" class="cls-1" d="M40.91,16.86a1.54,1.54,0,0,1,.57-.59,1.31,1.31,0,0,1,.72-.18,1.41,1.41,0,0,1,1,.4,1.62,1.62,0,0,1,.38,1.12V20.3H43V17.75a1.18,1.18,0,0,0-.24-.85.91.91,0,0,0-.75-.28.83.83,0,0,0-.68.31,1.17,1.17,0,0,0-.28.8v2.55h-.63V17.73c0-.73-.32-1.09-1-1.09a.84.84,0,0,0-.72.36,1.24,1.24,0,0,0-.29.85v2.5h-.63V16.2h.63v.54a1.38,1.38,0,0,1,1.17-.65A1.27,1.27,0,0,1,40.91,16.86Z"/><path id="Shape-10" data-name="Shape" class="cls-1" d="M44.61,16.2h.64v2.55a1.31,1.31,0,0,0,.25.85,1,1,0,0,0,.81.29,1.09,1.09,0,0,0,.73-.32,1.5,1.5,0,0,0,.4-.85V16.2h.63v4.1h-.63v-.63a1.54,1.54,0,0,1-1.33.74c-1,0-1.5-.56-1.5-1.7Z"/><path id="Shape-11" data-name="Shape" class="cls-1" d="M52.51,17.78v2.55h-.66V17.82q0-1.2-1.08-1.2a1,1,0,0,0-.73.32,1.35,1.35,0,0,0-.37.85v2.48H49V16.2h.64v.6a1.47,1.47,0,0,1,.55-.53,1.45,1.45,0,0,1,.74-.18C52,16.09,52.51,16.65,52.51,17.78Z"/><path id="Shape-12" data-name="Shape" class="cls-1" d="M54.4,14.79a.4.4,0,0,1,.13.33.43.43,0,0,1-.13.34.48.48,0,0,1-.34.13.45.45,0,0,1-.35-.13.49.49,0,0,1-.14-.34.44.44,0,0,1,.14-.33.43.43,0,0,1,.35-.14A.48.48,0,0,1,54.4,14.79Zm-.7,1.41h.64v4.1H53.7Z"/><path id="Shape-13" data-name="Shape" class="cls-1" d="M56.62,14.87V16.2h1v.53h-1v2.61a.49.49,0,0,0,.09.33.42.42,0,0,0,.31.1h.51v.53H57a.88.88,0,0,1-.72-.26,1,1,0,0,1-.2-.7V16.73h-.85V16.2H56V15.13Z"/><polygon id="Shape-14" data-name="Shape" class="cls-1" points="57.89 16.2 58.58 16.2 59.84 19.44 61.05 16.2 61.75 16.2 59.5 21.88 58.82 21.88 59.52 20.18 57.89 16.2"/></g></g></g></g></g></svg>